<svg xmlns="http://www.w3.org/2000/svg" width="70" height="70" viewBox="0 0 96.193 112">
  <path id="FontAwsome_drupal_" data-name="FontAwsome (drupal)" d="M104.02,53.391c-5.561-3.507-10.9-4.885-16.208-8.392-3.257-2.2-7.841-7.515-11.648-12.1-.676,7.34-2.881,10.321-5.511,12.4-5.336,4.259-8.717,5.561-13.4,8.091C53.293,55.47,32,70.125,32,97.43c0,27.355,23,47.47,48.547,47.47,25.476,0,47.646-18.537,47.646-46.594C128.193,70.175,107.4,55.47,104.02,53.391Zm.626,81.564c-5.035,5.035-22.57,7.189-29.234,1.052-1.2-1.2.075-3.006,1.628-3.006,0,0,4.259,3.332,12.9,3.332,6.764,0,11.523-1.929,13.652-3.507C105.122,131.673,105.7,133.9,104.646,134.955ZM90.993,121.778c2.179-.9,7.265-.952,9.219.326,1.027.7,4.033,4.709,1.553,5.937-2.1,1.052-.3-3.933-6.638-3.933-3.682,0-4.885,1.3-6.688,2.756-1.754,1.5-2.455,2-3.056,1.177C83.879,125.987,89.365,122.455,90.993,121.778Zm23.172,4.334c-3.808-.251-11.4-12.225-16.283-12.4-7.741-.225-26.077,20.216-40.406,10.521-9.719-6.663-3.657-26.253,12.976-26.353,12.4-.125,20.992,12.275,27.18,12.149,5.336-.075,15.481-10.471,20.491-10.471C130.322,99.559,123.96,126.939,114.165,126.112Z" transform="translate(-32 -32.9)" fill="#6b63ff"/>
</svg>
