<svg xmlns="http://www.w3.org/2000/svg" width="810.289" height="406.196" viewBox="0 0 810.289 406.196">
  <g id="Group_5809" data-name="Group 5809" transform="translate(-0.005)">
    <path id="Path_41433" data-name="Path 41433" d="M419.722,634.149q-36.675,0-73.24-1.313c-34.831-1.251-70.849-2.544-104.326-21.111-23.419-12.987-44.159-33.824-59.98-60.26a202.762,202.762,0,0,1-22.987-57.633,236.928,236.928,0,0,1,.863-112.159,199.2,199.2,0,0,1,13.357-36.607c24.413-50.555,68.942-84.492,122.168-93.107a6.169,6.169,0,0,1,1.326-.028c.239.013.478.027.721.016l.313-.1a15.3,15.3,0,0,1,2.465-.633c82.089-12.221,168.868,12.506,250.951,71.5,63.466,45.624,147.577,70.192,257.139,75.107l1.555.081c30.5,1.752,60,14.326,85.32,36.365,24.99,21.752,43.754,50.773,54.262,83.928,1.292,4.042,2.476,8.25,3.52,12.505a23.594,23.594,0,0,1-6.289,22.372v.008l-.273.281c-.657.653-1.348,1.28-2.055,1.863l-.831.685c-7,5.768-12.532,10.324-19.15,13.863a58.882,58.882,0,0,1-13.971,5.275c-26.7,6.509-53.812,12.544-80.586,17.938-52,10.484-105.364,19.133-158.619,25.7a2056.08,2056.08,0,0,1-251.652,15.454ZM296.28,253.721a3.179,3.179,0,0,0-.489.033c-52.729,8.535-96.835,42.138-121.007,92.193a197.192,197.192,0,0,0-13.225,36.245,234.854,234.854,0,0,0-.853,111.163,200.814,200.814,0,0,0,22.765,57.082c15.665,26.177,36.194,46.8,59.367,59.655,33.177,18.4,69.024,19.688,103.692,20.933a2053.554,2053.554,0,0,0,324.676-14.131c53.22-6.568,106.553-15.211,158.516-25.689,26.756-5.39,53.85-11.42,80.531-17.926a57.407,57.407,0,0,0,13.635-5.146c6.485-3.467,11.963-7.98,18.9-13.693l.831-.684c.607-.5,1.2-1.038,1.774-1.6l.164-.172a21.715,21.715,0,0,0,6.08-20.79h0c-1.032-4.21-2.2-8.373-3.483-12.373-21.466-67.729-77-115.593-138.179-119.106l-1.547-.081c-50.046-2.246-93.841-8.467-133.88-19.02-47.8-12.6-89.525-31.56-124.025-56.361-81.77-58.773-168.187-83.407-249.917-71.245a14.02,14.02,0,0,0-2.246.582l-.564.158a8.5,8.5,0,0,1-.962-.012c-.189-.01-.372-.019-.55-.019Z" transform="translate(-152.875 -227.954)" fill="#f0f0f0"/>
    <path id="Path_41434" data-name="Path 41434" d="M426.309,365.724c-2.263-2.172-4.579-14.282-7.468-15.511,2.16,4.774.592,6.038.58,11.277a35.448,35.448,0,0,1-1.034,8.83H369.435v-38.2a26.139,26.139,0,0,1,26.14-26.139,15.6,15.6,0,0,1,3.874.567,24.853,24.853,0,0,1,17.534,17.582C420.714,337.767,426.65,360.472,426.309,365.724Z" transform="translate(-173.206 -233.381)" fill="#2f2e41"/>
    <path id="Path_41435" data-name="Path 41435" d="M370.535,420.7l.024-29.777-17.5,1.564,6.178,18.781-2.891,47.205a7.406,7.406,0,1,0,8.961,6.242Z" transform="translate(-171.434 -241.355)" fill="#ffb6b6"/>
    <path id="Path_41436" data-name="Path 41436" d="M257.746,429.934h7.071l3.364-27.276H257.744Z" transform="translate(-24.198 -37.803)" fill="#ffb6b6"/>
    <path id="Path_41437" data-name="Path 41437" d="M407.832,654.7l11.179-.667v4.789l10.628,7.34a2.992,2.992,0,0,1-1.7,5.453H414.63l-2.294-4.737-.9,4.738h-5.018Z" transform="translate(-176.679 -266.058)" fill="#2f2e41"/>
    <path id="Path_41438" data-name="Path 41438" d="M212.62,429.934h7.072l3.363-27.276H212.619Z" transform="translate(-19.961 -37.803)" fill="#ffb6b6"/>
    <path id="Path_41439" data-name="Path 41439" d="M362.707,654.7l11.179-.667v4.789l10.628,7.34a2.992,2.992,0,0,1-1.7,5.453H369.5l-2.294-4.738-.9,4.738H361.3Z" transform="translate(-172.442 -266.058)" fill="#2f2e41"/>
    <path id="Path_41440" data-name="Path 41440" d="M398.761,355.43l-14.649.287-10.341,10.915-8.29,1.216a16.551,16.551,0,0,0-14.115,15.311h0l1.436,7.889h8.617l4.985,29.27c-1.938,4.939-2.07,8.838,1.909,10.37l12.352,23.267,36.48-16.373c1.85-3.181,2.443-6.375.552-9.482l2.608-44.807h8.769c0-8.38-2.835-15.445-11.163-16.378a98.453,98.453,0,0,0-9.957-.57Z" transform="translate(-171.51 -238.024)" fill="#e6e6e6"/>
    <path id="Path_41441" data-name="Path 41441" d="M416.615,445.38S381,451.7,367.783,438.486c0,0-1.341,2.277-3.363,6.054-.581,1.086-1.7,1.822-2.382,3.138-.616,1.2-2.2,2.666-2.872,4.022-.54,1.091.326,2.517-.236,3.7-6.767,14.193-14.673,34.214-12.978,47.434,1.093,8.525,3.35,28.363,5.728,49.67.186,1.665-1.319,3.8-1.132,5.481.176,1.582,2.043,2.7,2.22,4.289.117,1.053-1.187,2.127-1.071,3.179.128,1.154,1.676,2.285,1.8,3.435,3.257,29.42,6.239,56.887,6.239,56.887H376.4l3.143-62.732-2.569-22.867,6.032-46.246,8.33,43.948,1.072,24.734,8.8,64.311h15.4V564.661l1.149-3.234-1.149-4.148,1.149-4.469-1.149-4.867Z" transform="translate(-170.98 -245.821)" fill="#2f2e41"/>
    <path id="Path_41442" data-name="Path 41442" d="M405.539,343.3a16.605,16.605,0,1,1,2.877-13.877c.048.2.088.4.127.6A16.583,16.583,0,0,1,405.539,343.3Z" transform="translate(-173.791 -234.388)" fill="#ffb6b6"/>
    <path id="Path_41443" data-name="Path 41443" d="M402.027,333.71a8.729,8.729,0,0,0-2.551-4.625,11.909,11.909,0,0,1-.689,4.992,23.011,23.011,0,0,1-12.645-2.5c-2.93-1.988-6.658-1.815-11,0a16.084,16.084,0,0,1,16.088-16.086h2.87a16.088,16.088,0,0,1,16.086,16.083A47.889,47.889,0,0,1,402.027,333.71Z" transform="translate(-173.742 -234.274)" fill="#2f2e41"/>
    <circle id="Ellipse_3647" data-name="Ellipse 3647" cx="46.212" cy="46.212" r="46.212" transform="translate(56.405 212.031)" fill="#f0f0f0"/>
    <circle id="Ellipse_3648" data-name="Ellipse 3648" cx="46.212" cy="46.212" r="46.212" transform="translate(350.893)" fill="#f0f0f0"/>
    <circle id="Ellipse_3649" data-name="Ellipse 3649" cx="46.212" cy="46.212" r="46.212" transform="translate(717.87 219.28)" fill="#f0f0f0"/>
    <path id="Path_41444" data-name="Path 41444" d="M677.192,281.564V386.353a8.263,8.263,0,0,1-8.177,8.263.729.729,0,0,1-.089,0h-12.2a36.794,36.794,0,0,1-36.794-36.794V281.564A8.267,8.267,0,0,1,628.2,273.3h4.942c-2.29,6.679,28.783,9.49,30.489,0h5.293A8.267,8.267,0,0,1,677.192,281.564Z" transform="translate(-196.724 -230.313)" fill="#6c63ff"/>
    <path id="Path_41445" data-name="Path 41445" d="M643.182,264.537a1.085,1.085,0,0,1,1.083-1.083h7.367a1.083,1.083,0,1,1,0,2.167h-7.367a1.085,1.085,0,0,1-1.083-1.083Z" transform="translate(-198.907 -229.388)" fill="#3f3d56"/>
    <path id="Path_41446" data-name="Path 41446" d="M670.447,406.534H623.858A13.649,13.649,0,0,1,610.224,392.9V319.649a1.981,1.981,0,0,1-.826-1.612V310.67a1.98,1.98,0,0,1,.826-1.611v-1.977a1.981,1.981,0,0,1-.826-1.611V298.1a1.98,1.98,0,0,1,.826-1.611v-3.574a1.979,1.979,0,0,1-1.042-1.749V283.8a1.979,1.979,0,0,1,1.042-1.749v-9.792a13.649,13.649,0,0,1,13.634-13.633h46.589a13.649,13.649,0,0,1,13.633,13.633v21.345a1.709,1.709,0,0,1,.8,1.448V309.1a1.709,1.709,0,0,1-.8,1.449V392.9A13.649,13.649,0,0,1,670.447,406.534ZM623.858,260.44a11.835,11.835,0,0,0-11.821,11.821v11.334l-.872.034a.177.177,0,0,0-.171.174v7.367a.178.178,0,0,0,.171.174l.872.033v6.388l-.689.17a.178.178,0,0,0-.136.169v7.367a.178.178,0,0,0,.136.169l.689.17v4.522l-.689.17a.178.178,0,0,0-.136.169v7.367a.178.178,0,0,0,.136.169l.689.17V392.9a11.835,11.835,0,0,0,11.822,11.821h46.589A11.835,11.835,0,0,0,682.268,392.9V309h.8V295.158h-.8v-22.9a11.835,11.835,0,0,0-11.821-11.821Z" transform="translate(-195.715 -228.935)" fill="#3f3d56"/>
    <circle id="Ellipse_3650" data-name="Ellipse 3650" cx="1.083" cy="1.083" r="1.083" transform="translate(455.759 34.066)" fill="#3f3d56"/>
    <path id="Path_41447" data-name="Path 41447" d="M383.722,488.8H262.5a6.514,6.514,0,0,1-6.5-6.5V423.231a6.514,6.514,0,0,1,6.5-6.5H383.721a6.514,6.514,0,0,1,6.5,6.5V482.3a6.514,6.514,0,0,1-6.5,6.5Z" transform="translate(-162.557 -243.779)" fill="#fff"/>
    <path id="Path_41448" data-name="Path 41448" d="M383.722,488.8H262.5a6.514,6.514,0,0,1-6.5-6.5V423.231a6.514,6.514,0,0,1,6.5-6.5H383.721a6.514,6.514,0,0,1,6.5,6.5V482.3a6.514,6.514,0,0,1-6.5,6.5ZM262.5,418.546a4.7,4.7,0,0,0-4.685,4.685V482.3a4.7,4.7,0,0,0,4.685,4.685H383.72a4.7,4.7,0,0,0,4.685-4.685V423.231a4.7,4.7,0,0,0-4.685-4.685Z" transform="translate(-162.557 -243.779)" fill="#3f3d56"/>
    <path id="Path_41449" data-name="Path 41449" d="M330.732,480.867c-23.909,0-48.839-.228-58.14-.377A4.69,4.69,0,0,1,268,475.819v-48.9a1.658,1.658,0,0,1,1.652-1.656H378.815a1.658,1.658,0,0,1,1.656,1.652v33.175a20.7,20.7,0,0,1-20.349,20.616C351.453,480.823,341.188,480.867,330.732,480.867Z" transform="translate(-163.683 -244.58)" fill="#6c63ff"/>
    <path id="Path_41450" data-name="Path 41450" d="M371.354,456.246H272.715a4.022,4.022,0,0,1-3.773-2.66l-11.165-31.321a4.008,4.008,0,0,1,3.767-5.352l123.3-.172a4.008,4.008,0,0,1,3.95,4.71l.1.04-.354.826,0,.008-13.5,31.492a4,4,0,0,1-3.679,2.428Zm13.493-37.693-123.3.172a2.2,2.2,0,0,0-2.064,2.932l11.164,31.32a2.2,2.2,0,0,0,2.068,1.457h98.638a2.187,2.187,0,0,0,2.013-1.329l13.5-31.493.664.285-.664-.285a2.194,2.194,0,0,0-2.017-3.058Z" transform="translate(-162.702 -243.78)" fill="#3f3d56"/>
    <circle id="Ellipse_3651" data-name="Ellipse 3651" cx="7.724" cy="7.724" r="7.724" transform="translate(152.644 203.836)" fill="#fff"/>
    <circle id="Ellipse_3652" data-name="Ellipse 3652" cx="7.724" cy="7.724" r="7.724" transform="translate(444.413 136.784)" fill="#fff"/>
    <path id="Path_41451" data-name="Path 41451" d="M969.765,506.544l-20.632-20.37a10.768,10.768,0,0,0-7.639-3.135h-.073a10.8,10.8,0,0,0-7.666,3.226,25.363,25.363,0,0,0-.444,35.194c.218.236.444.462.671.689a24.691,24.691,0,0,0,4.132,3.307,25.079,25.079,0,0,0,13.691,4.014h.154a25.214,25.214,0,0,0,17.9-7.539,10.894,10.894,0,0,0-.091-15.386Zm-1.2,14.108a23.642,23.642,0,0,1-29.684,3.153,24.265,24.265,0,0,1-3.633-2.945,23.56,23.56,0,0,1-.208-33.318,8.982,8.982,0,0,1,6.4-2.691h.054a8.981,8.981,0,0,1,6.361,2.61l20.632,20.379a9.068,9.068,0,0,1,.082,12.813Z" transform="translate(-225.5 -250.004)" fill="#3f3d56"/>
    <path id="Path_41452" data-name="Path 41452" d="M895.056,432.763l-20.632-20.379a10.807,10.807,0,0,0-7.638-3.135h-.063a10.826,10.826,0,0,0-7.675,3.235,25.441,25.441,0,0,0-4.277,29.9l.009.009a24.971,24.971,0,0,0,3.923,5.373c.172.2.372.4.571.6a25.222,25.222,0,0,0,17.823,7.321h.163a25.239,25.239,0,0,0,17.9-7.548A10.872,10.872,0,0,0,895.056,432.763Zm-1.2,14.108a23.428,23.428,0,0,1-16.609,7H877.1a23.559,23.559,0,0,1-16.754-40.114,9.068,9.068,0,0,1,12.812-.082l20.632,20.37a9.078,9.078,0,0,1,.073,12.822Z" transform="translate(-218.487 -243.076)" fill="#3f3d56"/>
    <path id="Path_41453" data-name="Path 41453" d="M971.6,513.483l-22.746-22.466a7.907,7.907,0,0,0-11.17.069A19.935,19.935,0,1,0,966.05,519.1Z" transform="translate(-226.016 -250.539)" fill="#6c63ff"/>
    <path id="Path_41454" data-name="Path 41454" d="M896.894,439.7l-22.746-22.466a7.907,7.907,0,0,0-11.17.069,19.935,19.935,0,1,0,28.366,28.016Z" transform="translate(-219.002 -243.612)" fill="#6c63ff"/>
    <path id="Path_41455" data-name="Path 41455" d="M939.2,522.822l-.544,1.432q-3.833-1.454-7.43-2.918C888.743,504,868.464,483.714,854.9,445.2l-.009-.009q-.965-2.718-1.876-5.564l1.432-.462a23.145,23.145,0,0,0,2.084,5.237q1.115,3.167,2.292,6.171c12.749,32.5,31.551,51.078,67.6,66.763q2.718,1.183,5.573,2.347a23.637,23.637,0,0,0,7.2,3.135Z" transform="translate(-218.607 -245.885)" fill="#3f3d56"/>
    <rect id="Rectangle_2166" data-name="Rectangle 2166" width="1.813" height="66.147" transform="translate(654.287 212.25) rotate(-45.355)" fill="#3f3d56"/>
    <path id="Path_41456" data-name="Path 41456" d="M432.546,413.088l.024-29.777-17.5,1.564,6.178,18.781L398.82,437.648a7.405,7.405,0,1,0,8.961,6.242Z" transform="translate(-175.422 -240.641)" fill="#ffb6b6"/>
  </g>
</svg>
