<svg id="Group_5783" data-name="Group 5783" xmlns="http://www.w3.org/2000/svg" width="200" height="200" viewBox="0 0 301.21 301.21">
  <path id="Path_41391" data-name="Path 41391" d="M321.493,300.963h-75.3V199.05L311.3,234.72Z" transform="translate(-106.801 -86.351)" fill="#2f2e41"/>
  <circle id="Ellipse_3640" data-name="Ellipse 3640" cx="48.89" cy="48.89" r="48.89" transform="translate(104.411 98.846)" fill="#ffb6b6"/>
  <path id="Path_41392" data-name="Path 41392" d="M213.815,336.624,211.606,314.3l44.106-8.247,26.045,63.413-45.295,52.089L204.19,358.139Z" transform="translate(-88.581 -132.769)" fill="#ffb6b6"/>
  <path id="Path_41393" data-name="Path 41393" d="M299.947,409.01c-.549.572-1.11,1.138-1.67,1.7q-2.667,2.667-5.441,5.181a150.645,150.645,0,0,1-195.464,5.685.286.286,0,0,1-.045-.04c-.81-.651-1.608-1.314-2.406-1.987.142-.408.294-.81.447-1.206a69.286,69.286,0,0,1,35.8-38.065,53.18,53.18,0,0,1,8.555-3.239L151.793,355.3l8.5,15.853,6.262,11.686,25.693,47.939,22.166-55.192,6.868-17.11,1.761-4.382,8.374,6.517,7.927,6.166,15.961,3.522,12.949,2.859,17.586,3.884c7.111,5.792,11.437,16.81,13.855,30.5C299.783,408.025,299.868,408.517,299.947,409.01Z" transform="translate(-41.178 -153.609)" fill="#6c63ff"/>
  <path id="Path_41394" data-name="Path 41394" d="M224.861,149a36.887,36.887,0,0,1,59.646-5.2c4.527,5.257,7.5,11.694,11.908,17.047,9.5,11.519,25.689,18.255,29.837,32.6,1.81,6.258.908,12.939-.008,19.389l-2.355,16.585c-.611,4.3-1.2,8.838.416,12.873,1.893,4.734,6.422,7.834,9.35,12.007a20.7,20.7,0,0,1-.849,24.232c-2.371,2.921-5.515,5.123-8,7.947s-4.33,6.684-3.289,10.3c1.995,6.925,12.855,8.586,14.046,15.693.609,3.634-1.9,7.263-5.19,8.924s-7.16,1.71-10.817,1.265a44.439,44.439,0,0,1-34.826-63.081c4.909-10.4,14.033-19.593,13.934-31.095-.054-6.266-2.928-12.118-5.738-17.719L275.67,176.377c-3.081-6.14-6.657-12.757-13-15.395-4.9-2.039-10.465-1.248-15.708-.414s-10.8,1.645-15.715-.358-8.632-7.955-6.29-12.719" transform="translate(-97.277 -56.827)" fill="#2f2e41"/>
  <path id="Path_41395" data-name="Path 41395" d="M197.093,162.859c-9.446-3.109-20.041,1.882-26.436,9.5s-9.5,17.385-12.452,26.88l-5.078,16.316L148.351,230.9c-1.873,6.018-3.761,12.411-2.224,18.523,1.111,4.419,3.97,8.431,4.032,12.987.064,4.759-2.916,8.937-5.528,12.916s-5.064,8.706-3.819,13.3c1.893,6.988,11.608,10.829,11.075,18.049-.178,2.41-1.571,4.638-1.546,7.054.032,3.074,2.439,5.73,5.258,6.955s5.991,1.291,9.065,1.237a140.387,140.387,0,0,0,28.042-3.336c3.541-.789,7.142-1.757,10.089-3.872s5.146-5.619,4.763-9.227c-.6-5.621-6.642-8.811-9.692-13.57-3-4.675-2.926-10.6-4.218-16-1.775-7.422-6.16-13.9-9.452-20.786-12.375-25.884-8.043-58.876,10.595-80.688,1.648-1.928,3.448-3.869,4.136-6.31s-.2-5.553-2.587-6.407" transform="translate(-60.941 -70.16)" fill="#2f2e41"/>
  <path id="Path_41396" data-name="Path 41396" d="M257.1,44.111A150.605,150.605,0,0,0,0,150.605a149.462,149.462,0,0,0,36.966,98.839q3.423,3.932,7.145,7.655c.583.583,1.172,1.166,1.767,1.733q2.378,2.3,4.841,4.49,1.495,1.333,3.023,2.616c.8.674,1.6,1.336,2.406,1.987a.286.286,0,0,0,.045.04,150.645,150.645,0,0,0,195.464-5.685q2.777-2.514,5.441-5.181c.561-.561,1.121-1.127,1.67-1.7q2.293-2.361,4.462-4.8A150.613,150.613,0,0,0,257.1,44.111Zm5.764,205.078c-1.415,1.608-2.865,3.193-4.348,4.739q-3.465,3.609-7.157,6.987c-.934.861-1.88,1.7-2.837,2.531A149.531,149.531,0,0,1,216.5,284.751q-6.106,3.015-12.513,5.475a149.016,149.016,0,0,1-124.136-7.983q-1.35-.73-2.684-1.483a148.543,148.543,0,0,1-13.543-8.668q-4.866-3.491-9.433-7.36c-1.064-.9-2.118-1.812-3.154-2.746q-2.531-2.251-4.954-4.631-4.586-4.493-8.77-9.359A148.806,148.806,0,0,1,1.132,150.605c0-82.42,67.053-149.473,149.473-149.473S300.078,68.186,300.078,150.605A148.817,148.817,0,0,1,262.863,249.189Z" fill="#6b63ff"/>
</svg>
