<?xml version="1.0" encoding="UTF-8"?>
<svg version="1.1" xmlns="http://www.w3.org/2000/svg" width="512" height="512">
<path d="M0 0 C1.67951917 -0.00570825 3.35903447 -0.01267426 5.0385437 -0.02079773 C9.58410724 -0.03869514 14.12947737 -0.03756707 18.67506552 -0.03185534 C22.47709061 -0.0287582 26.27907884 -0.03486187 30.08109868 -0.04089409 C39.05474821 -0.05492682 48.02830251 -0.05338877 57.00195312 -0.04199219 C66.24286031 -0.03051513 75.48347712 -0.04458257 84.72434604 -0.07138866 C92.67366315 -0.09358022 100.62288935 -0.10017517 108.57223523 -0.09431225 C113.31321043 -0.09094938 118.05399958 -0.09331296 122.79494858 -0.11056328 C127.25532997 -0.12608526 131.71528295 -0.12201893 136.17564774 -0.10325813 C137.80658642 -0.09958659 139.43755721 -0.10263862 141.06846619 -0.11314392 C150.8169011 -0.17111199 159.85966704 -0.0135944 167.86376953 6.29858398 C168.37037109 6.93151367 168.87697266 7.56444336 169.39892578 8.21655273 C169.92357422 8.84174805 170.44822266 9.46694336 170.98876953 10.11108398 C175.21942453 16.69833727 175.91028312 21.99506422 175.85986328 29.68530273 C175.86416855 31.14377625 175.86416855 31.14377625 175.86856079 32.63171387 C175.87059423 34.67904241 175.86511496 36.72639071 175.85253906 38.77368164 C175.83647543 41.89440657 175.8524126 45.01383649 175.87158203 48.13452148 C175.86959947 50.13061807 175.86575554 52.12671386 175.85986328 54.12280273 C175.86593597 55.04903442 175.87200867 55.97526611 175.87826538 56.92956543 C175.80551082 63.68311024 174.4008517 68.0311381 171.02392578 73.90405273 C170.35059836 76.89661905 170.78535528 77.45102121 172.27392578 80.02905273 C172.65162109 80.59881836 173.02931641 81.16858398 173.41845703 81.75561523 C175.29263426 84.71779797 175.59458965 87.32325169 175.63842773 90.73266602 C175.65126297 91.60432404 175.66409821 92.47598206 175.67732239 93.37405396 C175.68470932 94.31465668 175.69209625 95.2552594 175.69970703 96.22436523 C175.70777878 97.19759735 175.71585052 98.17082947 175.72416687 99.17355347 C175.73800235 101.23637108 175.7487269 103.29921153 175.7565918 105.36206055 C175.77374652 108.49630038 175.81763095 111.62946921 175.86181641 114.76342773 C175.87194894 116.77123251 175.88046328 118.77904622 175.88720703 120.78686523 C175.90471512 121.71532257 175.92222321 122.64377991 175.94026184 123.60037231 C175.91625345 130.90875864 174.26793838 136.98994462 169.56689453 142.70874023 C168.93396484 143.22694336 168.30103516 143.74514648 167.64892578 144.27905273 C167.02373047 144.81272461 166.39853516 145.34639648 165.75439453 145.89624023 C160.20795575 149.54347255 155.69507268 150.77901548 149.07449341 150.79173279 C148.00923992 150.79981109 148.00923992 150.79981109 146.92246616 150.8080526 C144.56043534 150.82227525 142.19896948 150.81524284 139.83691406 150.80810547 C138.13621574 150.81381208 136.43552125 150.82077746 134.73483276 150.8289032 C130.1272965 150.84681879 125.51995085 150.84566909 120.91239023 150.83996081 C117.06061464 150.83686628 113.20887553 150.84296445 109.35710514 150.84899956 C100.26701048 150.86303828 91.17700981 150.86148927 82.08691406 150.85009766 C72.72160916 150.83862021 63.35659074 150.85268732 53.99132359 150.87949413 C45.93928329 150.90167569 37.88733276 150.90828288 29.83526409 150.90241772 C25.03114961 150.89905244 20.22721871 150.90143454 15.42313004 150.91866875 C10.90367095 150.93417471 6.384635 150.93014199 1.86519241 150.9113636 C0.21125874 150.90768764 -1.44270654 150.91075714 -3.09661102 150.92124939 C-11.57556579 150.97091174 -19.08407338 151.01190926 -26.53857422 146.40405273 C-27.44607422 145.86780273 -28.35357422 145.33155273 -29.28857422 144.77905273 C-35.69519861 138.01650477 -37.29347453 130.4683414 -37.16748047 121.42749023 C-37.16989243 120.41739899 -37.17230438 119.40730774 -37.17478943 118.36660767 C-37.17381654 116.24721317 -37.1605578 114.12779148 -37.13549805 112.00854492 C-37.10108562 108.78012254 -37.11489653 105.55442768 -37.13427734 102.32592773 C-37.12738033 100.25560369 -37.11770927 98.18528664 -37.10498047 96.11499023 C-37.10994034 95.15958344 -37.11490021 94.20417664 -37.12001038 93.21981812 C-37.01144242 86.99426558 -35.76448057 82.71572384 -32.53857422 77.40405273 C-32.04357422 76.41405273 -32.04357422 76.41405273 -31.53857422 75.40405273 C-32.2971874 73.93740058 -33.12244421 72.50501597 -33.97607422 71.09155273 C-37.09595533 65.10451831 -37.84412565 59.04885932 -36.53857422 52.40405273 C-34.69091797 50.02124023 -34.69091797 50.02124023 -32.53857422 48.40405273 C-31.54857422 48.40405273 -30.55857422 48.40405273 -29.53857422 48.40405273 C-29.56136822 45.29825779 -29.63865241 42.1961479 -29.72607422 39.09155273 C-29.731875 38.21047852 -29.73767578 37.3294043 -29.74365234 36.42163086 C-29.82712196 33.98246317 -29.94946042 31.77367567 -30.53857422 29.40405273 C-32.88922892 27.34158266 -32.88922892 27.34158266 -35.53857422 26.40405273 C-37.29260675 22.89598767 -36.34141776 19.14011992 -35.53857422 15.40405273 C-32.06623285 8.59292158 -26.4376395 3.66107573 -19.25768661 1.04971123 C-12.99665954 -0.43698175 -6.40476936 -0.01964964 0 0 Z " fill="#000000" transform="translate(37.53857421875,352.595947265625)"/>
<path d="M0 0 C0.99892273 -0.00671722 1.99784546 -0.01343445 3.02703857 -0.02035522 C6.3246357 -0.03933338 9.62202942 -0.04325885 12.91967773 -0.04541016 C15.21223535 -0.0518364 17.50479214 -0.05856463 19.79734802 -0.06558228 C24.59978132 -0.07755329 29.40214268 -0.08126309 34.20458984 -0.08007812 C40.36415258 -0.07987454 46.52325599 -0.10721904 52.68270969 -0.14162254 C57.41556426 -0.16383219 62.14830706 -0.16791755 66.88120842 -0.16685867 C69.15265428 -0.16922196 71.42410288 -0.17808615 73.69549751 -0.19352341 C76.86764136 -0.21307009 80.03877822 -0.20739039 83.2109375 -0.1953125 C84.15182724 -0.20655151 85.09271698 -0.21779053 86.06211853 -0.22937012 C92.39029549 -0.16799303 92.39029549 -0.16799303 95.65513611 2.13339233 C97.04077148 4.29052734 97.04077148 4.29052734 97.04077148 7.29052734 C103.31077148 7.29052734 109.58077148 7.29052734 116.04077148 7.29052734 C116.70077148 5.64052734 117.36077148 3.99052734 118.04077148 2.29052734 C120.47648686 -0.14518803 121.11483419 0.03158134 124.45532227 0 C125.37032501 -0.0127597 126.28532776 -0.02551941 127.22805786 -0.03866577 C128.22070648 -0.04089142 129.2133551 -0.04311707 130.23608398 -0.04541016 C131.25749481 -0.05206696 132.27890564 -0.05872375 133.33126831 -0.06558228 C135.49841508 -0.07572467 137.66559319 -0.08039881 139.83276367 -0.08007812 C143.13180028 -0.08442787 146.42947387 -0.12066634 149.72827148 -0.15869141 C151.83503775 -0.16456408 153.94181037 -0.16853045 156.04858398 -0.17041016 C157.02908722 -0.18478119 158.00959045 -0.19915222 159.01980591 -0.21395874 C166.35515286 -0.16562858 171.71450862 1.37570118 177.28295898 6.25537109 C177.82178711 6.90634766 178.36061523 7.55732422 178.91577148 8.22802734 C179.47006836 8.87642578 180.02436523 9.52482422 180.59545898 10.19287109 C184.52317268 15.89336368 184.36176529 21.2896999 184.37670898 27.99755859 C184.38669418 29.55660164 184.38669418 29.55660164 184.3968811 31.1471405 C184.40699246 33.34343704 184.41169859 35.5397642 184.41137695 37.73608398 C184.41574264 41.08092427 184.45205892 44.42443661 184.48999023 47.76904297 C184.49586033 49.90771036 184.49982843 52.04638398 184.50170898 54.18505859 C184.51608002 55.17802444 184.53045105 56.1709903 184.54525757 57.19404602 C184.5085146 62.83246821 183.83677635 66.77729842 180.89956665 71.63798523 C179.81020644 73.4237985 179.81020644 73.4237985 180.04077148 76.29052734 C180.65539298 77.47929205 181.31711288 78.64414506 182.00756836 79.79052734 C184.64926085 84.90731386 184.61868015 89.62277674 184.57202148 95.29052734 C184.57584839 96.32564453 184.57967529 97.36076172 184.58361816 98.42724609 C184.58632802 100.60564146 184.57903212 102.78406989 184.56225586 104.96240234 C184.54083393 108.28085452 184.5620902 111.59714184 184.58764648 114.91552734 C184.58500305 117.04053208 184.57987774 119.16553548 184.57202148 121.29052734 C184.58011841 122.27408203 184.58821533 123.25763672 184.59655762 124.27099609 C184.49782198 131.58942044 182.92468116 136.93958776 178.11108398 142.53271484 C177.46913086 143.07154297 176.82717773 143.61037109 176.16577148 144.16552734 C175.52897461 144.71982422 174.89217773 145.27412109 174.23608398 145.84521484 C169.31003898 149.08834056 164.49571225 149.54363233 158.70489502 149.56468201 C157.98811891 149.56991869 157.27134281 149.57515536 156.53284621 149.58055073 C154.14252709 149.59549497 151.75242309 149.59625464 149.36206055 149.59692383 C147.64342897 149.60454911 145.92480079 149.61297725 144.20617676 149.62214661 C139.54484563 149.64406307 134.88358009 149.65288677 130.22220325 149.65797305 C127.30708098 149.66162024 124.39197579 149.66786221 121.47686005 149.67497444 C111.29861194 149.6994598 101.12041472 149.7125187 90.94213867 149.71606445 C81.46834639 149.71969818 71.99487837 149.74958428 62.52118516 149.79146904 C54.37659038 149.82620978 46.23210287 149.84161355 38.08743453 149.84231049 C33.2278749 149.84310206 28.36864569 149.85178554 23.5091629 149.88030815 C18.93550207 149.90655346 14.36244407 149.90865812 9.78874207 149.89265251 C8.11586437 149.8908431 6.4429515 149.89748264 4.77014923 149.91347122 C-4.23238803 149.99422963 -12.45116722 149.99860936 -19.95922852 144.29052734 C-26.71159943 137.10521701 -28.27559016 130.78018095 -28.33032227 121.12646484 C-28.33935074 120.13860992 -28.34837921 119.150755 -28.35768127 118.13296509 C-28.3721695 116.04342672 -28.38106696 113.95384313 -28.38476562 111.86425781 C-28.39661098 108.6969554 -28.44576832 105.53163476 -28.49633789 102.36474609 C-28.62620631 84.84169889 -28.62620631 84.84169889 -23.79908752 76.73812866 C-22.67519778 74.3115698 -22.67519778 74.3115698 -23.81867981 72.02328491 C-24.30181137 71.24570831 -24.78494293 70.46813171 -25.28271484 69.66699219 C-28.27074085 64.17511091 -28.69097095 59.77651464 -28.62329102 53.60302734 C-28.62807465 52.61987549 -28.63285828 51.63672363 -28.63778687 50.6237793 C-28.64116608 48.55987941 -28.63210353 46.49592453 -28.61108398 44.43212891 C-28.58429035 41.29776091 -28.61090017 38.16697329 -28.64282227 35.03271484 C-28.63951782 33.01447788 -28.63311086 30.99624312 -28.62329102 28.97802734 C-28.63341217 28.05481689 -28.64353333 27.13160645 -28.65396118 26.18041992 C-28.53281486 19.35535338 -26.8113885 13.96863128 -22.95922852 8.29052734 C-15.8777992 1.54705255 -9.54989791 -0.00921938 0 0 Z " fill="#000000" transform="translate(326.959228515625,-0.29052734375)"/>
<path d="M0 0 C1.37998743 -0.01148238 2.75993176 -0.03187501 4.13964844 -0.06152344 C12.27042658 -0.23609574 18.52712282 -0.32035099 25.39575195 4.29516602 C30.46337264 9.89622046 31.36506434 16.87179222 31.4309082 24.21704102 C31.40622399 31.58333731 31.40622399 31.58333731 34.8894043 37.74584961 C38.01123344 39.87508863 41.30695012 41.38374884 44.79418945 42.81469727 C48.39575195 44.29516602 48.39575195 44.29516602 50.55981445 46.05688477 C52.33756701 47.5194096 52.33756701 47.5194096 54.6418457 47.20532227 C57.62076307 46.22080064 60.4173496 45.01321837 63.27148438 43.71630859 C70.95744757 40.25904102 77.82983594 37.62843276 86.39575195 39.29516602 C92.44174678 41.87031196 95.15495883 46.83737578 98.39575195 52.29516602 C98.76700195 52.90569824 99.13825195 53.51623047 99.52075195 54.14526367 C100.76815383 56.20577567 101.99100412 58.27921473 103.20825195 60.35766602 C103.60568604 61.01798828 104.00312012 61.67831055 104.41259766 62.35864258 C107.49769835 67.7527264 108.81692419 72.49275184 108.1184082 78.79907227 C106.06460078 85.20354868 102.70184435 88.33451702 97.39575195 92.29516602 C96.36579102 93.09825195 95.33583008 93.90133789 94.2746582 94.72875977 C85.76968365 101.29516602 85.76968365 101.29516602 83.39575195 101.29516602 C83.72575195 101.95516602 84.05575195 102.61516602 84.39575195 103.29516602 C84.49115308 104.79278363 84.52648681 106.29451429 84.52856445 107.79516602 C84.52985352 108.68204102 84.53114258 109.56891602 84.5324707 110.48266602 C84.52860352 111.41079102 84.52473633 112.33891602 84.52075195 113.29516602 C84.52461914 114.22329102 84.52848633 115.15141602 84.5324707 116.10766602 C84.53053711 117.43797852 84.53053711 117.43797852 84.52856445 118.79516602 C84.52743652 119.60985352 84.52630859 120.42454102 84.52514648 121.26391602 C84.39575195 123.29516602 84.39575195 123.29516602 83.39575195 125.29516602 C83.9784082 125.57134766 84.56106445 125.8475293 85.16137695 126.13208008 C88.8459011 128.05002949 92.06768311 130.57323082 95.39575195 133.04516602 C96.10731445 133.55821289 96.81887695 134.07125977 97.55200195 134.59985352 C102.36580445 138.17428149 106.15226892 141.6424346 108.14575195 147.49829102 C109.34486772 157.31605136 104.22181057 164.86567562 99.52075195 173.10766602 C99.11042725 173.83727539 98.70010254 174.56688477 98.27734375 175.31860352 C95.20534148 180.53650298 91.93336368 184.52636015 86.39575195 187.29516602 C77.21396846 188.91155984 70.10589575 185.92470027 61.98388672 182.05322266 C57.4814383 179.88995852 57.4814383 179.88995852 52.59887695 179.37329102 C50.17418864 180.3878769 48.21457564 181.56859315 46.08325195 183.10766602 C41.88558643 186.12595047 41.88558643 186.12595047 39.3815918 186.9909668 C37.01286182 187.86477918 35.31915788 188.64789128 33.39575195 190.29516602 C32.04750473 193.97725718 31.86562571 197.65095753 31.64575195 201.54516602 C30.64128877 215.37856242 30.64128877 215.37856242 26.39575195 221.29516602 C19.43874844 226.8323729 13.36868465 226.5406944 4.79150391 226.59033203 C3.41151648 226.60181441 2.03157215 226.62220704 0.65185547 226.65185547 C-7.47892268 226.82642777 -13.73561892 226.91068302 -20.60424805 222.29516602 C-24.89862904 217.54874492 -25.69779656 212.43041131 -26.60424805 206.29516602 C-26.71639648 205.60036133 -26.82854492 204.90555664 -26.9440918 204.18969727 C-27.66934819 199.21225269 -27.70870374 194.30903915 -27.60424805 189.29516602 C-28.86237305 188.94454102 -30.12049805 188.59391602 -31.41674805 188.23266602 C-36.58203087 186.5598651 -40.64230174 183.77656599 -45.02612305 180.62329102 C-47.46567986 179.10225014 -47.46567986 179.10225014 -49.9284668 179.36938477 C-52.86284575 180.38463704 -55.65430789 181.58979703 -58.47949219 182.87451172 C-73.59372669 189.66824119 -73.59372669 189.66824119 -81.60424805 187.29516602 C-89.05940472 183.34162966 -92.62066145 177.14491782 -96.54174805 169.92016602 C-97.11731445 168.91727539 -97.69288086 167.91438477 -98.28588867 166.88110352 C-102.13948105 159.94554502 -104.36162744 154.68796652 -102.97924805 146.67016602 C-100.05064898 139.4817865 -94.50694909 135.38447628 -88.41674805 130.92016602 C-87.69293945 130.37489258 -86.96913086 129.82961914 -86.22338867 129.26782227 C-80.87175275 125.29516602 -80.87175275 125.29516602 -78.60424805 125.29516602 C-79.09924805 124.30516602 -79.09924805 124.30516602 -79.60424805 123.29516602 C-79.69964917 121.7975484 -79.7349829 120.29581774 -79.73706055 118.79516602 C-79.73834961 117.90829102 -79.73963867 117.02141602 -79.7409668 116.10766602 C-79.73709961 115.17954102 -79.73323242 114.25141602 -79.72924805 113.29516602 C-79.73504883 111.90297852 -79.73504883 111.90297852 -79.7409668 110.48266602 C-79.73967773 109.59579102 -79.73838867 108.70891602 -79.73706055 107.79516602 C-79.73593262 106.98047852 -79.73480469 106.16579102 -79.73364258 105.32641602 C-79.60424805 103.29516602 -79.60424805 103.29516602 -78.60424805 101.29516602 C-79.1869043 101.01898438 -79.76956055 100.74280273 -80.36987305 100.45825195 C-84.05439719 98.54030254 -87.2761792 96.01710121 -90.60424805 93.54516602 C-91.31581055 93.03211914 -92.02737305 92.51907227 -92.76049805 91.99047852 C-98.19214307 87.95727941 -101.87558777 84.25838447 -103.54174805 77.48266602 C-104.19253682 69.21336193 -99.40492733 61.52457779 -95.41674805 54.60766602 C-94.97266602 53.79233398 -94.52858398 52.97700195 -94.07104492 52.13696289 C-90.4128362 45.7544464 -86.0644905 40.70768217 -78.8659668 38.42797852 C-70.79157915 38.40347355 -64.37483324 41.11713558 -57.19091797 44.53588867 C-52.68772402 46.70037761 -52.68772402 46.70037761 -47.8034668 47.22094727 C-45.37638072 46.19924318 -43.46641992 44.99256063 -41.35424805 43.42016602 C-36.9874675 40.36708919 -32.72568833 38.67541233 -27.60424805 37.29516602 C-27.64549805 36.11954102 -27.68674805 34.94391602 -27.72924805 33.73266602 C-27.69990493 24.46024154 -27.64297343 12.87777264 -21.60424805 5.29516602 C-14.64724453 -0.24204086 -8.57718075 0.04963764 0 0 Z M-19.16674805 91.54516602 C-25.71317301 98.93087623 -29.05753246 106.24520415 -28.54174805 116.23266602 C-27.48371285 124.22394362 -23.73989973 131.07986208 -17.60424805 136.29516602 C-16.82049805 136.99641602 -16.03674805 137.69766602 -15.22924805 138.42016602 C-8.81636648 143.0007957 -2.44250045 144.47820213 5.39575195 144.29516602 C14.73312877 142.67185769 22.06245953 138.11881045 27.74731445 130.47875977 C32.61243738 123.20952639 34.02882449 116.81207455 33.0012207 108.10766602 C31.45978346 100.94744138 27.97548537 95.03793942 22.39575195 90.29516602 C21.61200195 89.59391602 20.82825195 88.89266602 20.02075195 88.17016602 C7.10484299 78.94451676 -7.64260233 81.42640392 -19.16674805 91.54516602 Z " fill="#8B9AA6" transform="translate(254.604248046875,142.704833984375)"/>
<path d="M0 0 C1.93220085 0.70470154 3.85743989 1.42871817 5.77612305 2.16943359 C6.8149614 2.55473236 7.85379974 2.94003113 8.92411804 3.33700562 C12.21853727 4.56399127 15.50288958 5.81579288 18.7878418 7.06787109 C20.97931502 7.88584386 23.17136869 8.70226329 25.36401367 9.51708984 C58.85117089 22.01993537 58.85117089 22.01993537 61.83862305 27.32177734 C63.58273489 33.1319168 63.46658322 39.0355705 61.1628418 44.63037109 C57.42896505 48.53791653 53.30063316 51.82629566 49.06225586 55.17041016 C46.29538931 57.38901146 43.60905175 59.7018864 40.9128418 62.00537109 C36.36953311 65.87106977 31.76317809 69.63648811 27.08081055 73.33349609 C25.09469137 74.94144865 23.14777776 76.57115166 21.21362305 78.23974609 C20.64579102 78.72830078 20.07795898 79.21685547 19.49291992 79.72021484 C18.39219072 80.67090192 17.29551541 81.62631258 16.20385742 82.58740234 C10.26636489 87.71082357 4.99869688 91.21148411 -3.0949707 90.81787109 C-6.92019159 90.2274833 -9.70750982 89.1326484 -12.5246582 86.44287109 C-15.32899402 82.34751483 -16.66189841 78.30646798 -17.5246582 73.44287109 C-38.77337592 82.85752572 -57.24251855 94.97022195 -74.04516602 111.03076172 C-75.0263066 111.9672167 -76.01261067 112.8982934 -77.00415039 113.82373047 C-113.11241444 147.5755554 -133.87078157 197.88897011 -135.61352539 246.94433594 C-135.82533329 255.8697818 -135.52671281 264.68744423 -134.7590332 273.58349609 C-134.01984494 282.6015929 -134.25343901 289.47964198 -139.3371582 297.19287109 C-144.67374132 302.68192802 -149.57136501 304.60811953 -157.0871582 304.88037109 C-164.33293507 304.82791976 -169.02976158 303.1512433 -174.5246582 298.44287109 C-181.93283196 289.73826693 -181.67097579 277.62916748 -181.7277832 266.74755859 C-181.73484283 265.84569321 -181.74190247 264.94382782 -181.74917603 264.01463318 C-181.97815689 226.16425872 -181.97815689 226.16425872 -178.5246582 209.44287109 C-178.32598145 208.4597998 -178.12730469 207.47672852 -177.92260742 206.46386719 C-168.5525415 161.41034421 -147.74108997 119.20010788 -115.32202148 86.27099609 C-113.46688325 84.38410732 -111.63425664 82.47696689 -109.80200195 80.56787109 C-101.90871128 72.42101357 -93.71169115 65.09716903 -84.5246582 58.44287109 C-83.89978516 57.98960449 -83.27491211 57.53633789 -82.63110352 57.06933594 C-64.73762397 44.20924091 -45.80242114 34.02192464 -25.5246582 25.44287109 C-25.6896582 24.67974609 -25.8546582 23.91662109 -26.0246582 23.13037109 C-26.88127649 16.81281121 -27.67878306 10.88428906 -24.8996582 5.00537109 C-17.63448137 -2.83337233 -9.92428189 -3.22490959 0 0 Z " fill="#010101" transform="translate(194.524658203125,1.55712890625)"/>
<path d="M0 0 C5.70245747 3.10656265 9.72049204 6.81387472 12.0546875 12.92578125 C21.54731307 46.51912841 13.88172927 89.38602651 4.0546875 121.92578125 C3.80380371 122.76093262 3.55291992 123.59608398 3.29443359 124.45654297 C-6.99796656 157.87540366 -25.69908884 190.21025808 -50.24951172 215.19921875 C-51.47108991 216.44295629 -52.68539574 217.69385161 -53.89501953 218.94921875 C-63.01978849 228.41795582 -72.26211482 237.24101665 -82.9453125 244.92578125 C-83.56728516 245.37614746 -84.18925781 245.82651367 -84.83007812 246.29052734 C-97.91059873 255.69338399 -111.52973133 263.97853615 -126.0703125 270.92578125 C-126.85188721 271.29977051 -127.63346191 271.67375977 -128.4387207 272.05908203 C-132.88024757 274.12684624 -137.19650502 275.71653584 -141.9453125 276.92578125 C-141.7803125 277.66828125 -141.6153125 278.41078125 -141.4453125 279.17578125 C-140.56484579 285.77928156 -139.71133556 292.26798477 -142.5703125 298.42578125 C-146.60347262 302.67121295 -149.75656569 305.14945876 -155.6953125 305.61328125 C-163.76979516 305.34524863 -172.94996877 301.95989971 -179.9453125 297.92578125 C-182.23544903 294.49057645 -182.12374223 292.94045025 -181.9453125 288.92578125 C-182.574375 288.74402344 -183.2034375 288.56226563 -183.8515625 288.375 C-189.31592358 286.77025541 -194.63750988 284.98992671 -199.9453125 282.92578125 C-200.2753125 283.91578125 -200.6053125 284.90578125 -200.9453125 285.92578125 C-205.55143363 288.22884182 -209.76210719 287.31930266 -214.4453125 285.76171875 C-225.27360702 281.47705025 -225.27360702 281.47705025 -228.9453125 275.92578125 C-230.81495852 270.31684319 -230.67194999 264.898083 -228.6328125 259.36328125 C-225.20089089 254.20331461 -219.78195656 250.66864829 -214.9453125 246.92578125 C-213.14849084 245.47380415 -211.35675613 244.01550809 -209.5703125 242.55078125 C-208.66152344 241.80828125 -207.75273437 241.06578125 -206.81640625 240.30078125 C-204.27679683 238.1999887 -201.76213516 236.0746433 -199.25537109 233.93505859 C-194.05961595 229.50232738 -188.80555704 225.15870933 -183.4453125 220.92578125 C-182.58232544 220.24056396 -182.58232544 220.24056396 -181.7019043 219.54150391 C-175.78356558 214.90311129 -172.02189933 212.30407043 -164.4453125 212.5859375 C-160.57058747 213.11265793 -157.78893063 214.21073096 -154.9453125 216.92578125 C-152.14097669 221.02113752 -150.80807229 225.06218437 -149.9453125 229.92578125 C-128.33687477 220.48730219 -109.42774696 207.57798116 -92.37744141 191.29052734 C-90.99832197 189.97629658 -89.60296037 188.67917464 -88.20703125 187.3828125 C-52.57247333 153.29534103 -32.8805842 102.47037505 -31.79296875 53.64453125 C-31.69983926 45.56179312 -31.9399758 37.57709095 -32.7109375 29.52734375 C-33.51410599 20.61217349 -33.00430147 13.98487839 -28.3203125 6.23828125 C-20.45004188 -1.42487699 -10.5592118 -3.85117141 0 0 Z " fill="#010101" transform="translate(486.9453125,207.07421875)"/>
<path d="M0 0 C1.37998743 -0.01148238 2.75993176 -0.03187501 4.13964844 -0.06152344 C12.27042658 -0.23609574 18.52712282 -0.32035099 25.39575195 4.29516602 C30.46337264 9.89622046 31.36506434 16.87179222 31.4309082 24.21704102 C31.40622399 31.58333731 31.40622399 31.58333731 34.8894043 37.74584961 C38.01123344 39.87508863 41.30695012 41.38374884 44.79418945 42.81469727 C48.39575195 44.29516602 48.39575195 44.29516602 50.55981445 46.05688477 C52.33756701 47.5194096 52.33756701 47.5194096 54.6418457 47.20532227 C57.62076307 46.22080064 60.4173496 45.01321837 63.27148438 43.71630859 C70.95744757 40.25904102 77.82983594 37.62843276 86.39575195 39.29516602 C92.44174678 41.87031196 95.15495883 46.83737578 98.39575195 52.29516602 C98.76700195 52.90569824 99.13825195 53.51623047 99.52075195 54.14526367 C100.76815383 56.20577567 101.99100412 58.27921473 103.20825195 60.35766602 C103.60568604 61.01798828 104.00312012 61.67831055 104.41259766 62.35864258 C107.49769835 67.7527264 108.81692419 72.49275184 108.1184082 78.79907227 C106.06460078 85.20354868 102.70184435 88.33451702 97.39575195 92.29516602 C96.36579102 93.09825195 95.33583008 93.90133789 94.2746582 94.72875977 C85.76968365 101.29516602 85.76968365 101.29516602 83.39575195 101.29516602 C83.72575195 101.95516602 84.05575195 102.61516602 84.39575195 103.29516602 C84.49115308 104.79278363 84.52648681 106.29451429 84.52856445 107.79516602 C84.52985352 108.68204102 84.53114258 109.56891602 84.5324707 110.48266602 C84.52860352 111.41079102 84.52473633 112.33891602 84.52075195 113.29516602 C84.52461914 114.22329102 84.52848633 115.15141602 84.5324707 116.10766602 C84.53053711 117.43797852 84.53053711 117.43797852 84.52856445 118.79516602 C84.52743652 119.60985352 84.52630859 120.42454102 84.52514648 121.26391602 C84.39575195 123.29516602 84.39575195 123.29516602 83.39575195 125.29516602 C83.9784082 125.57134766 84.56106445 125.8475293 85.16137695 126.13208008 C88.8459011 128.05002949 92.06768311 130.57323082 95.39575195 133.04516602 C96.10731445 133.55821289 96.81887695 134.07125977 97.55200195 134.59985352 C102.36580445 138.17428149 106.15226892 141.6424346 108.14575195 147.49829102 C109.34486772 157.31605136 104.22181057 164.86567562 99.52075195 173.10766602 C99.11042725 173.83727539 98.70010254 174.56688477 98.27734375 175.31860352 C95.20534148 180.53650298 91.93336368 184.52636015 86.39575195 187.29516602 C77.21396846 188.91155984 70.10589575 185.92470027 61.98388672 182.05322266 C57.4814383 179.88995852 57.4814383 179.88995852 52.59887695 179.37329102 C50.17418864 180.3878769 48.21457564 181.56859315 46.08325195 183.10766602 C41.88558643 186.12595047 41.88558643 186.12595047 39.3815918 186.9909668 C37.01286182 187.86477918 35.31915788 188.64789128 33.39575195 190.29516602 C32.04750473 193.97725718 31.86562571 197.65095753 31.64575195 201.54516602 C30.64128877 215.37856242 30.64128877 215.37856242 26.39575195 221.29516602 C19.43874844 226.8323729 13.36868465 226.5406944 4.79150391 226.59033203 C3.41151648 226.60181441 2.03157215 226.62220704 0.65185547 226.65185547 C-7.47892268 226.82642777 -13.73561892 226.91068302 -20.60424805 222.29516602 C-24.89862904 217.54874492 -25.69779656 212.43041131 -26.60424805 206.29516602 C-26.71639648 205.60036133 -26.82854492 204.90555664 -26.9440918 204.18969727 C-27.66934819 199.21225269 -27.70870374 194.30903915 -27.60424805 189.29516602 C-28.86237305 188.94454102 -30.12049805 188.59391602 -31.41674805 188.23266602 C-36.58203087 186.5598651 -40.64230174 183.77656599 -45.02612305 180.62329102 C-47.46567986 179.10225014 -47.46567986 179.10225014 -49.9284668 179.36938477 C-52.86284575 180.38463704 -55.65430789 181.58979703 -58.47949219 182.87451172 C-73.59372669 189.66824119 -73.59372669 189.66824119 -81.60424805 187.29516602 C-89.05940472 183.34162966 -92.62066145 177.14491782 -96.54174805 169.92016602 C-97.11731445 168.91727539 -97.69288086 167.91438477 -98.28588867 166.88110352 C-102.13948105 159.94554502 -104.36162744 154.68796652 -102.97924805 146.67016602 C-100.05064898 139.4817865 -94.50694909 135.38447628 -88.41674805 130.92016602 C-87.69293945 130.37489258 -86.96913086 129.82961914 -86.22338867 129.26782227 C-80.87175275 125.29516602 -80.87175275 125.29516602 -78.60424805 125.29516602 C-79.09924805 124.30516602 -79.09924805 124.30516602 -79.60424805 123.29516602 C-79.69964917 121.7975484 -79.7349829 120.29581774 -79.73706055 118.79516602 C-79.73834961 117.90829102 -79.73963867 117.02141602 -79.7409668 116.10766602 C-79.73709961 115.17954102 -79.73323242 114.25141602 -79.72924805 113.29516602 C-79.73504883 111.90297852 -79.73504883 111.90297852 -79.7409668 110.48266602 C-79.73967773 109.59579102 -79.73838867 108.70891602 -79.73706055 107.79516602 C-79.73593262 106.98047852 -79.73480469 106.16579102 -79.73364258 105.32641602 C-79.60424805 103.29516602 -79.60424805 103.29516602 -78.60424805 101.29516602 C-79.1869043 101.01898438 -79.76956055 100.74280273 -80.36987305 100.45825195 C-84.05439719 98.54030254 -87.2761792 96.01710121 -90.60424805 93.54516602 C-91.31581055 93.03211914 -92.02737305 92.51907227 -92.76049805 91.99047852 C-98.19214307 87.95727941 -101.87558777 84.25838447 -103.54174805 77.48266602 C-104.19253682 69.21336193 -99.40492733 61.52457779 -95.41674805 54.60766602 C-94.97266602 53.79233398 -94.52858398 52.97700195 -94.07104492 52.13696289 C-90.4128362 45.7544464 -86.0644905 40.70768217 -78.8659668 38.42797852 C-70.79157915 38.40347355 -64.37483324 41.11713558 -57.19091797 44.53588867 C-52.68772402 46.70037761 -52.68772402 46.70037761 -47.8034668 47.22094727 C-45.37638072 46.19924318 -43.46641992 44.99256063 -41.35424805 43.42016602 C-36.9874675 40.36708919 -32.72568833 38.67541233 -27.60424805 37.29516602 C-27.64549805 36.11954102 -27.68674805 34.94391602 -27.72924805 33.73266602 C-27.69990493 24.46024154 -27.64297343 12.87777264 -21.60424805 5.29516602 C-14.64724453 -0.24204086 -8.57718075 0.04963764 0 0 Z M-10.60424805 16.29516602 C-10.87886952 18.07372952 -11.09585177 19.86126478 -11.2878418 21.65063477 C-11.41094727 22.74827148 -11.53405273 23.8459082 -11.66088867 24.97680664 C-11.9126524 27.29432405 -12.16268283 29.61203048 -12.41088867 31.92993164 C-12.5352832 33.03401367 -12.65967773 34.1380957 -12.7878418 35.27563477 C-12.89668701 36.2852124 -13.00553223 37.29479004 -13.11767578 38.33496094 C-14.44600018 46.41621196 -14.44600018 46.41621196 -17.80737305 48.96704102 C-18.7303418 49.40532227 -19.65331055 49.84360352 -20.60424805 50.29516602 C-21.6715918 50.81594727 -22.73893555 51.33672852 -23.83862305 51.87329102 C-25.57885742 52.70086914 -25.57885742 52.70086914 -27.35424805 53.54516602 C-32.67923941 56.11064769 -37.09213422 58.94401244 -41.4440918 63.01000977 C-44.59225438 64.88296725 -47.10304621 64.98728719 -50.60424805 64.29516602 C-54.60931081 62.83780809 -58.43928007 61.05060258 -62.29174805 59.23266602 C-64.33238856 58.27288943 -66.37780254 57.32317868 -68.4284668 56.38500977 C-69.32654053 55.96082764 -70.22461426 55.53664551 -71.14990234 55.09960938 C-73.89342906 54.20038322 -75.00694459 54.05672811 -77.60424805 55.29516602 C-79.06281393 57.01974918 -79.06281393 57.01974918 -80.18237305 59.22485352 C-80.6206543 60.02020508 -81.05893555 60.81555664 -81.51049805 61.63500977 C-81.95393555 62.47161133 -82.39737305 63.30821289 -82.85424805 64.17016602 C-83.3131543 64.9990332 -83.77206055 65.82790039 -84.24487305 66.68188477 C-86.85264666 71.22517524 -86.85264666 71.22517524 -87.60424805 76.29516602 C-85.90288184 77.94470431 -85.90288184 77.94470431 -83.6237793 79.47485352 C-82.37177734 80.37397461 -82.37177734 80.37397461 -81.09448242 81.29125977 C-80.21083008 81.91129883 -79.32717773 82.53133789 -78.41674805 83.17016602 C-76.69116845 84.39261241 -74.9684317 85.61908314 -73.2487793 86.84985352 C-72.47896729 87.39109863 -71.70915527 87.93234375 -70.91601562 88.48999023 C-63.81985776 94.03112353 -63.81985776 94.03112353 -62.95727539 99.08813477 C-62.92449991 100.55262288 -62.9203124 102.017946 -62.94018555 103.48266602 C-62.93540192 104.26279053 -62.93061829 105.04291504 -62.9256897 105.84667969 C-62.92229797 107.49066187 -62.93144973 109.13471217 -62.95239258 110.77856445 C-62.97917413 113.28823897 -62.95262604 115.79344231 -62.9206543 118.30297852 C-62.92395853 119.90455084 -62.93036506 121.50612039 -62.94018555 123.10766602 C-62.93006439 123.85363037 -62.91994324 124.59959473 -62.90951538 125.36816406 C-62.99563985 129.21641433 -63.4134182 131.05868269 -65.85546875 134.08496094 C-70.83679457 138.09028491 -70.83679457 138.09028491 -73.2487793 139.84594727 C-74.08989258 140.46147461 -74.93100586 141.07700195 -75.79760742 141.71118164 C-76.66192383 142.33702148 -77.52624023 142.96286133 -78.41674805 143.60766602 C-79.30040039 144.2528418 -80.18405273 144.89801758 -81.09448242 145.56274414 C-83.26158964 147.14414671 -85.43153907 148.72147345 -87.60424805 150.29516602 C-87.03990191 153.82975501 -86.16490182 156.44142369 -84.3190918 159.50219727 C-83.87114258 160.25307617 -83.42319336 161.00395508 -82.96166992 161.77758789 C-82.4930957 162.54651367 -82.02452148 163.31543945 -81.54174805 164.10766602 C-81.06930664 164.89592773 -80.59686523 165.68418945 -80.11010742 166.49633789 C-78.9479349 168.4332921 -77.77920387 170.36594897 -76.60424805 172.29516602 C-73.04279859 171.69420604 -70.04629915 170.73522435 -66.76831055 169.22875977 C-65.41866211 168.62451172 -65.41866211 168.62451172 -64.04174805 168.00805664 C-62.17174857 167.16006382 -60.30452548 166.3059208 -58.44018555 165.44555664 C-49.22845888 161.34633827 -49.22845888 161.34633827 -43.60424805 162.29516602 C-40.68237305 164.08813477 -40.68237305 164.08813477 -37.85424805 166.48266602 C-33.12050461 170.2660971 -28.67738341 172.94411541 -23.0769043 175.22485352 C-18.90136259 177.03227599 -16.15781931 178.46480912 -13.60424805 182.29516602 C-13.11767578 185.08251953 -13.11767578 185.08251953 -12.7878418 188.42407227 C-12.66344727 189.62354492 -12.53905273 190.82301758 -12.41088867 192.05883789 C-12.28907227 193.31245117 -12.16725586 194.56606445 -12.04174805 195.85766602 C-11.79379463 198.33847174 -11.54265679 200.81896193 -11.2878418 203.29907227 C-11.18012451 204.40065674 -11.07240723 205.50224121 -10.96142578 206.63720703 C-10.75450689 209.26473732 -10.75450689 209.26473732 -9.60424805 211.29516602 C-1.68424805 211.29516602 6.23575195 211.29516602 14.39575195 211.29516602 C15.77697863 208.53271266 15.89220949 205.9293731 16.26293945 202.86157227 C16.42665039 201.5731543 16.59036133 200.28473633 16.7590332 198.95727539 C17.01700083 196.90606425 17.27111105 194.85464806 17.51538086 192.80175781 C17.75297823 190.82027196 18.00773793 188.84086781 18.26293945 186.86157227 C18.40844238 185.6750708 18.55394531 184.48856934 18.70385742 183.26611328 C19.41917251 180.19459978 19.89229817 179.12410812 22.39575195 177.29516602 C24.16249423 176.52677334 25.95915097 175.82583929 27.77075195 175.17016602 C35.02380567 172.28311411 42.80824036 167.88267761 48.39575195 162.29516602 C55.458731 161.35018813 60.80633159 164.39565748 67.08325195 167.35766602 C69.12389247 168.3174426 71.16930645 169.26715335 73.2199707 170.20532227 C74.11804443 170.62950439 75.01611816 171.05368652 75.94140625 171.49072266 C78.68541577 172.39010706 79.79684331 172.52978557 82.39575195 171.29516602 C83.86955932 169.58791288 83.86955932 169.58791288 85.0090332 167.40063477 C85.45182617 166.60979492 85.89461914 165.81895508 86.35083008 165.00415039 C86.7987793 164.17206055 87.24672852 163.3399707 87.70825195 162.48266602 C88.40917969 161.25193359 88.40917969 161.25193359 89.12426758 159.99633789 C91.61485256 155.86698583 91.61485256 155.86698583 92.27685547 151.24047852 C91.08855682 148.61693636 89.57340228 147.56287022 87.24731445 145.87719727 C85.98661133 144.95583984 85.98661133 144.95583984 84.70043945 144.01586914 C83.81614258 143.38616211 82.9318457 142.75645508 82.02075195 142.10766602 C81.14418945 141.46635742 80.26762695 140.82504883 79.36450195 140.16430664 C74.67223517 136.68216037 74.67223517 136.68216037 69.39575195 134.29516602 C68.40079187 126.89005326 68.1127683 119.54309393 68.0456543 112.07348633 C68.02896269 110.71393881 68.00150235 109.35448356 67.96362305 107.99536133 C67.9087958 106.00727752 67.89010654 104.0183011 67.87231445 102.02954102 C67.85249512 100.85617188 67.83267578 99.68280273 67.81225586 98.47387695 C68.85994879 92.7663615 73.56138601 90.00453442 78.0402832 86.74438477 C78.88139648 86.12885742 79.72250977 85.51333008 80.58911133 84.87915039 C81.45342773 84.25331055 82.31774414 83.6274707 83.20825195 82.98266602 C84.0919043 82.33749023 84.97555664 81.69231445 85.88598633 81.02758789 C88.05309355 79.44618532 90.22304298 77.86885858 92.39575195 76.29516602 C91.83140581 72.76057703 90.95640572 70.14890834 89.1105957 67.08813477 C88.66264648 66.33725586 88.21469727 65.58637695 87.75317383 64.81274414 C87.28459961 64.04381836 86.81602539 63.27489258 86.33325195 62.48266602 C85.62458984 61.30027344 85.62458984 61.30027344 84.90161133 60.09399414 C83.7394388 58.15703993 82.57070778 56.22438306 81.39575195 54.29516602 C77.8343025 54.89612599 74.83780306 55.85510768 71.55981445 57.36157227 C70.66004883 57.7644043 69.7602832 58.16723633 68.83325195 58.58227539 C66.96325248 59.43026821 65.09602938 60.28441124 63.23168945 61.14477539 C54.01996278 65.24399376 54.01996278 65.24399376 48.39575195 64.29516602 C45.47387695 62.50219727 45.47387695 62.50219727 42.64575195 60.10766602 C37.91200851 56.32423494 33.46888732 53.64621662 27.8684082 51.36547852 C20.82086125 48.31488157 20.82086125 48.31488157 19.1809082 44.38110352 C17.96504937 38.97444235 17.45267731 33.41961446 16.83325195 27.92016602 C16.58581331 25.74524383 16.33471775 23.57073346 16.0793457 21.39672852 C15.97162842 20.4410498 15.86391113 19.48537109 15.75292969 18.50073242 C15.62138718 16.32580985 15.62138718 16.32580985 14.39575195 15.29516602 C12.62716002 15.19570149 10.85463744 15.16436384 9.08325195 15.16235352 C8.00817383 15.16106445 6.9330957 15.15977539 5.82543945 15.15844727 C4.69364258 15.16231445 3.5618457 15.16618164 2.39575195 15.17016602 C1.26395508 15.16629883 0.1321582 15.16243164 -1.03393555 15.15844727 C-2.10901367 15.15973633 -3.1840918 15.16102539 -4.29174805 15.16235352 C-5.28561523 15.16348145 -6.27948242 15.16460937 -7.3034668 15.16577148 C-9.5680003 15.03682272 -9.5680003 15.03682272 -10.60424805 16.29516602 Z " fill="#000101" transform="translate(254.604248046875,142.704833984375)"/>
<path d="M0 0 C6.6 0 13.2 0 20 0 C20.99 2.475 20.99 2.475 22 5 C25.09841404 8.09841404 28.82960367 7.29837374 32.98828125 7.30859375 C34.82747705 7.33375959 36.66666968 7.35915753 38.50585938 7.38476562 C41.40908957 7.41348617 44.31226464 7.43749848 47.21557617 7.45629883 C50.01510701 7.47798215 52.81397892 7.51743146 55.61328125 7.55859375 C56.91039787 7.55876747 56.91039787 7.55876747 58.23371887 7.5589447 C62.95950819 7.63638311 66.18820748 7.89587049 70 11 C72.58714172 14.88071258 72.30577355 18.14637426 72.30078125 22.6484375 C72.30506638 23.49798004 72.3093515 24.34752258 72.31376648 25.22280884 C72.31950864 27.01994944 72.32001088 28.81711328 72.31567383 30.61425781 C72.31251974 33.35782798 72.33595331 36.10031362 72.36132812 38.84375 C72.36360179 40.59114448 72.3643043 42.33854184 72.36328125 44.0859375 C72.372491 44.9037973 72.38170074 45.7216571 72.39118958 46.56430054 C72.35397217 51.16957039 72.07482344 54.31890396 69 58 C65.46236963 60.34319252 62.31018924 60.2584529 58.13673401 60.27415466 C57.10171868 60.28200968 57.10171868 60.28200968 56.04579395 60.29002339 C53.73432803 60.30502194 51.4230835 60.30572849 49.11157227 60.30639648 C47.45408759 60.31401797 45.79660645 60.32244544 44.13912964 60.33161926 C39.63710143 60.35356962 35.13514114 60.36236364 30.63306546 60.36744571 C27.8208436 60.371088 25.00863956 60.37732734 22.19642448 60.3844471 C12.38704521 60.40894141 2.57771884 60.42199389 -7.23168945 60.42553711 C-16.3783548 60.42917455 -25.52468503 60.45908483 -34.6712479 60.50094169 C-42.52273348 60.53561369 -50.3741078 60.551085 -58.22566944 60.55178314 C-62.91575307 60.55257688 -67.60549521 60.56136002 -72.2954998 60.58978081 C-76.70579159 60.61590934 -81.11545747 60.61819614 -85.52579117 60.60212517 C-87.1443283 60.60030662 -88.76290101 60.60703801 -90.38136101 60.62294388 C-92.59156815 60.64334119 -94.79957202 60.63289386 -97.00975037 60.61473083 C-98.24621024 60.61674216 -99.48267012 60.61875349 -100.75659847 60.62082577 C-104.89600821 59.82849333 -106.36304659 58.20881587 -109 55 C-110.61693064 51.76613873 -110.18436668 48.22198144 -110.203125 44.66796875 C-110.20882507 43.83920731 -110.21452515 43.01044586 -110.22039795 42.15657043 C-110.22985248 40.40053587 -110.23638373 38.64448353 -110.24023438 36.88842773 C-110.24992406 34.20850404 -110.2809359 31.52935247 -110.3125 28.84960938 C-110.31903173 27.14323372 -110.32428154 25.43685258 -110.328125 23.73046875 C-110.3404718 22.93134567 -110.3528186 22.1322226 -110.36553955 21.30888367 C-110.34724985 16.71402702 -109.98542601 13.72391232 -107 10 C-103.94155183 7.96103455 -103.34040701 7.74948479 -99.90100098 7.74171448 C-99.06821121 7.73488647 -98.23542145 7.72805847 -97.37739563 7.72102356 C-96.46717148 7.72357651 -95.55694733 7.72612946 -94.61914062 7.72875977 C-93.17730659 7.72091965 -93.17730659 7.72091965 -91.7063446 7.71292114 C-89.61761612 7.70267325 -87.52886205 7.69689937 -85.44010925 7.69503975 C-82.13723748 7.69138521 -78.83466843 7.67468451 -75.53186035 7.65428162 C-66.14092626 7.59877453 -56.74994758 7.56814073 -47.35888672 7.54370117 C-41.61709395 7.52785599 -35.87551639 7.49767032 -30.13383484 7.45893669 C-27.94254332 7.44726091 -25.75121337 7.44135612 -23.55989075 7.44125557 C-20.49998399 7.44106424 -17.44067382 7.42285089 -14.38085938 7.40063477 C-13.47063522 7.40521194 -12.56041107 7.40978912 -11.62260437 7.414505 C-10.37341972 7.40003326 -10.37341972 7.40003326 -9.09899902 7.38526917 C-8.37560081 7.38325784 -7.65220261 7.38124651 -6.90688324 7.37917423 C-4.39148193 6.87899921 -3.581359 5.99391814 -2 4 C-1.34 2.68 -0.68 1.36 0 0 Z " fill="#8A99A5" transform="translate(424,7)"/>
<path d="M0 0 C0.6973229 -0.00538554 1.3946458 -0.01077108 2.11309969 -0.01631981 C4.45543034 -0.03065524 6.79720028 -0.02348219 9.13955688 -0.01637268 C10.81659908 -0.02207341 12.4936374 -0.02903652 14.17066956 -0.03717041 C18.73065525 -0.05515149 23.29044904 -0.05392398 27.85045958 -0.04822803 C31.65519053 -0.04514278 35.45988427 -0.05122132 39.26460993 -0.05726677 C48.24037228 -0.07132713 57.21603949 -0.06973865 66.19180298 -0.05836487 C75.45485849 -0.04688648 84.71762439 -0.06095116 93.98064172 -0.08776134 C101.92977991 -0.10990823 109.87882713 -0.11655788 117.82799399 -0.11068493 C122.57726765 -0.10731119 127.32635572 -0.1097578 132.07560349 -0.12693596 C136.54246967 -0.14238656 141.00890659 -0.13847065 145.47575569 -0.11963081 C147.11524052 -0.11593944 148.75475702 -0.11906937 150.39421272 -0.1295166 C152.63268987 -0.14269183 154.86973875 -0.13121174 157.1081543 -0.11352539 C158.98691537 -0.11321146 158.98691537 -0.11321146 160.90363121 -0.1128912 C164.77511688 0.47841195 166.42182914 1.66328121 169.18106079 4.38768005 C170.79799143 7.62154133 170.36542747 11.16569861 170.38418579 14.7197113 C170.38988586 15.54847275 170.39558594 16.37723419 170.40145874 17.23110962 C170.41091327 18.98714418 170.41744452 20.74319653 170.42129517 22.49925232 C170.43098485 25.17917601 170.46199669 27.85832759 170.49356079 30.53807068 C170.50009253 32.24444633 170.50534233 33.95082748 170.50918579 35.6572113 C170.52153259 36.45633438 170.53387939 37.25545746 170.54660034 38.07879639 C170.52837804 42.65672223 170.23693601 45.7352014 167.18106079 49.38768005 C163.15551273 52.35827881 160.23658858 52.76692989 155.28019714 52.78208923 C154.59820517 52.78818034 153.9162132 52.79427144 153.2135548 52.80054712 C150.93505601 52.81715697 148.6571173 52.81240443 146.37857056 52.80760193 C144.74226299 52.81494342 143.1059606 52.82352989 141.46966553 52.83326721 C137.02957183 52.85548266 132.58966371 52.85841392 128.14952207 52.8565197 C124.44171022 52.85640001 120.73393771 52.8649635 117.02613682 52.87329721 C108.27851642 52.8925311 99.53099146 52.89541503 90.78335571 52.88865662 C81.76107156 52.88201428 72.73919608 52.90488789 63.71699482 52.94197035 C55.96822044 52.97266245 48.21957756 52.98402796 40.4707436 52.98013353 C35.84381516 52.97806566 31.21720479 52.98355113 26.59033394 53.00802612 C22.2390957 53.03028297 17.88852226 53.02842462 13.53728104 53.0080986 C11.9417475 53.00468673 10.34616931 53.00978539 8.75069618 53.02408218 C6.56932607 53.04227819 4.39021063 53.02952757 2.20890808 53.00914001 C0.98941751 53.00985252 -0.23007307 53.01056503 -1.48651791 53.01129913 C-5.97612118 52.17112858 -7.61950473 50.61628414 -10.81893921 47.38768005 C-11.88322094 44.28352502 -12.30310429 41.36851007 -12.78768921 38.12986755 C-13.77575515 34.55956625 -13.77575515 34.55956625 -19.81893921 32.38768005 C-19.81893921 25.78768005 -19.81893921 19.18768005 -19.81893921 12.38768005 C-17.50893921 11.39768005 -15.19893921 10.40768005 -12.81893921 9.38768005 C-11.01864439 6.45412458 -11.01864439 6.45412458 -9.81893921 3.38768005 C-7.20889911 -0.38091596 -4.355322 0.00845452 0 0 Z " fill="#8796A1" transform="translate(27.818939208984375,368.61231994628906)"/>
<path d="M0 0 C1.01914305 -0.00551503 1.01914305 -0.00551503 2.05887485 -0.01114148 C4.34652877 -0.02219694 6.6341373 -0.0260253 8.92181396 -0.02983093 C10.55767461 -0.03609421 12.19353383 -0.04274089 13.82939148 -0.04974365 C18.28200829 -0.06716663 22.73461435 -0.07770907 27.18725681 -0.08594918 C29.96831258 -0.09109688 32.74936499 -0.09717273 35.5304184 -0.10346031 C44.22930606 -0.12251652 52.92818521 -0.13674641 61.62708974 -0.14507228 C71.67279916 -0.15484552 81.71828828 -0.18116547 91.76392007 -0.22157317 C99.52535066 -0.25172277 107.28671807 -0.26654008 115.04820609 -0.26985329 C119.68521371 -0.27220522 124.3219861 -0.28118395 128.95893097 -0.30631447 C133.32233529 -0.32957987 137.68534926 -0.33383468 142.04879951 -0.32355309 C143.64917613 -0.32305723 145.24957185 -0.32939239 146.84988976 -0.34310913 C149.03768238 -0.36080998 151.22407137 -0.35373246 153.41186523 -0.34057617 C155.24694578 -0.3441587 155.24694578 -0.3441587 157.11909866 -0.34781361 C161.15556144 0.25024263 163.2995835 1.60783114 166.4598999 4.14717102 C169.01442961 7.97896558 168.76574267 11.13385489 168.76068115 15.57685852 C168.76496628 16.40420502 168.7692514 17.23155151 168.77366638 18.08396912 C168.77940804 19.83403102 168.77991114 21.58411679 168.77557373 23.33418274 C168.77241978 26.0053356 168.79585313 28.67537433 168.82122803 31.34638977 C168.82350172 33.04821129 168.82420419 34.75003579 168.82318115 36.45185852 C168.83699577 37.64583755 168.83699577 37.64583755 168.85108948 38.86393738 C168.81322216 43.42791397 168.50067678 46.50454347 165.4598999 50.14717102 C161.43460569 53.11802304 158.51528669 53.52642128 153.55903625 53.5415802 C152.87704428 53.5476713 152.19505231 53.55376241 151.49239391 53.56003809 C149.21389512 53.57664794 146.93595642 53.57189539 144.65740967 53.5670929 C143.0211021 53.57443439 141.38479971 53.58302085 139.74850464 53.59275818 C135.30841094 53.61497363 130.86850282 53.61790488 126.42836118 53.61601067 C122.72054933 53.61589097 119.01277683 53.62445446 115.30497593 53.63278818 C106.55735553 53.65202206 97.80983057 53.654906 89.06219482 53.64814758 C80.03991067 53.64150525 71.01803519 53.66437885 61.99583393 53.70146132 C54.24705955 53.73215342 46.49841667 53.74351892 38.74958271 53.7396245 C34.12265427 53.73755663 29.4960439 53.7430421 24.86917305 53.76751709 C20.51793482 53.78977394 16.16736137 53.78791559 11.81612015 53.76758957 C10.22058662 53.7641777 8.62500842 53.76927636 7.02953529 53.78357315 C4.84816518 53.80176916 2.66904974 53.78901854 0.48774719 53.76863098 C-0.73174338 53.76934349 -1.95123396 53.770056 -3.20767879 53.7707901 C-7.69712684 52.93064859 -9.34173794 51.37650071 -12.5401001 48.14717102 C-14.53211941 42.17111309 -13.84749692 35.28692003 -13.89019775 29.01509094 C-13.90675065 27.23338249 -13.93403218 25.45174026 -13.972229 23.67036438 C-14.02715724 21.09327472 -14.04889403 18.51773691 -14.0635376 15.94013977 C-14.08620697 15.14931503 -14.10887634 14.3584903 -14.13223267 13.54370117 C-14.11663759 9.4362162 -13.76065267 6.9083092 -11.13238525 3.66011047 C-7.24650642 -0.10682783 -5.32908646 0.0186383 0 0 Z " fill="#788A96" transform="translate(29.54010009765625,434.8528289794922)"/>
<path d="M0 0 C0.68915579 -0.00382555 1.37831159 -0.00765109 2.08835089 -0.01159257 C4.40294129 -0.02193038 6.71728399 -0.01792899 9.03189087 -0.01396179 C10.68922659 -0.01830788 12.34656029 -0.02349068 14.00389099 -0.02944946 C18.51012626 -0.04286286 23.01627778 -0.04341546 27.52252913 -0.04088616 C31.2825169 -0.03981788 35.04248763 -0.04469622 38.80247176 -0.04949158 C47.67274026 -0.06059519 56.54296643 -0.0610196 65.41323853 -0.05497742 C74.56718161 -0.0489379 83.72097097 -0.06124613 92.87488782 -0.08254749 C100.73059774 -0.10015643 108.5862587 -0.1061659 116.44198763 -0.10290974 C121.13534193 -0.10109537 125.82858661 -0.10374821 130.52192307 -0.11762428 C134.93619197 -0.13018627 139.35022115 -0.12827401 143.76448631 -0.11521339 C145.38462212 -0.11284438 147.00477471 -0.11559393 148.62489128 -0.12383652 C150.83687652 -0.13427871 153.04805368 -0.12622439 155.26000977 -0.11352539 C156.49776846 -0.11369313 157.73552715 -0.11386087 159.01079369 -0.1140337 C162.57360342 0.2972454 164.41994771 1.10264214 167.25698853 3.26069641 C169.84413024 7.14140899 169.56276208 10.40707067 169.55776978 14.90913391 C169.5620549 15.75867645 169.56634003 16.60821899 169.570755 17.48350525 C169.57649716 19.28064585 169.5769994 21.07780969 169.57266235 22.87495422 C169.56950827 25.61852439 169.59294183 28.36101003 169.61831665 31.10444641 C169.62059031 32.85184089 169.62129283 34.59923826 169.62026978 36.34663391 C169.62947952 37.16449371 169.63868927 37.98235352 169.6481781 38.82499695 C169.6109607 43.43026681 169.33181196 46.57960037 166.25698853 50.26069641 C162.71935816 52.60388893 159.56717776 52.51914931 155.39372253 52.53485107 C154.35870721 52.54270609 154.35870721 52.54270609 153.30278248 52.5507198 C150.99131656 52.56571835 148.68007203 52.5664249 146.36856079 52.5670929 C144.71107611 52.57471438 143.05359498 52.58314186 141.39611816 52.59231567 C136.89408996 52.61426603 132.39212966 52.62306005 127.89005399 52.62814212 C125.07783212 52.63178441 122.26562808 52.63802375 119.45341301 52.64514351 C109.64403373 52.66963783 99.83470736 52.68269031 90.02529907 52.68623352 C80.87863373 52.68987096 71.7323035 52.71978124 62.58574063 52.7616381 C54.73425505 52.7963101 46.88288072 52.81178141 39.03131908 52.81247956 C34.34123546 52.81327329 29.65149331 52.82205643 24.96148872 52.85047722 C20.55119693 52.87660575 16.14153105 52.87889256 11.73119736 52.86282158 C10.11266022 52.86100303 8.49408752 52.86773442 6.87562752 52.88364029 C4.66542037 52.9040376 2.45741651 52.89359027 0.24723816 52.87542725 C-0.98922172 52.87743857 -2.22568159 52.8794499 -3.49960995 52.88152218 C-7.63901969 52.08918974 -9.10605806 50.46951228 -11.74301147 47.26069641 C-13.35994211 44.02683514 -12.92737815 40.48267785 -12.94613647 36.92866516 C-12.95183655 36.09990372 -12.95753662 35.27114227 -12.96340942 34.41726685 C-12.97286395 32.66123228 -12.9793952 30.90517994 -12.98324585 29.14912415 C-12.99293553 26.46920045 -13.02394737 23.79004888 -13.05551147 21.11030579 C-13.06204321 19.40393013 -13.06729301 17.69754899 -13.07113647 15.99116516 C-13.08348328 15.19204208 -13.09583008 14.39291901 -13.10855103 13.56958008 C-13.09026133 8.97472343 -12.72843749 5.98460873 -9.74301147 2.26069641 C-6.0883941 -0.17571517 -4.35658908 0.00722997 0 0 Z " fill="#788995" transform="translate(326.7430114746094,81.73930358886719)"/>
<path d="M0 0 C4.39432176 1.19845139 4.39432176 1.19845139 6.4375 3.9375 C8.95518286 13.45887235 8.75210399 23.65750614 8.69824219 33.44067383 C8.68755855 35.73741336 8.6981875 38.03336264 8.7109375 40.33007812 C8.76680843 92.28865496 -11.76231245 143.78903716 -45.5625 182.9375 C-46.33078125 183.83597656 -47.0990625 184.73445312 -47.890625 185.66015625 C-65.41667988 205.62038542 -85.48459352 221.8550468 -108.5625 234.9375 C-109.55008301 235.50017578 -109.55008301 235.50017578 -110.55761719 236.07421875 C-119.7761017 241.27598276 -129.12929385 245.58702441 -139.05151367 249.28735352 C-140.25964722 249.74452759 -140.25964722 249.74452759 -141.4921875 250.2109375 C-142.20616699 250.47310059 -142.92014648 250.73526367 -143.65576172 251.00537109 C-145.7960749 252.05168553 -147.07831232 253.07633443 -148.5625 254.9375 C-148.74432491 257.87760436 -148.74432491 257.87760436 -148.3125 261.125 C-148.19519531 262.27742188 -148.07789063 263.42984375 -147.95703125 264.6171875 C-147.76173828 266.26074219 -147.76173828 266.26074219 -147.5625 267.9375 C-147.46324219 268.80632812 -147.36398437 269.67515625 -147.26171875 270.5703125 C-147.04663267 272.36162643 -146.80783251 274.15007739 -146.5625 275.9375 C-148.10452616 275.48037762 -149.64610214 275.02173653 -151.1875 274.5625 C-152.10402344 274.29179687 -153.02054687 274.02109375 -153.96484375 273.7421875 C-155.91960228 273.13665328 -157.84485652 272.43461509 -159.75 271.6875 C-163.36672047 270.72304121 -165.94976138 271.03431534 -169.5625 271.9375 C-170.2225 272.9275 -170.8825 273.9175 -171.5625 274.9375 C-177.85360716 273.81619572 -183.97826182 272.09313598 -189.5625 268.9375 C-190.5703125 266.96875 -190.5703125 266.96875 -190.875 264.875 C-191.10122735 260.99728175 -191.10122735 260.99728175 -193.25 259.60546875 C-195.32548513 258.58680234 -197.39015521 257.72668836 -199.5625 256.9375 C-200.5525 256.525 -201.5425 256.1125 -202.5625 255.6875 C-203.5525 255.31625 -203.5525 255.31625 -204.5625 254.9375 C-203.00360459 250.78367311 -199.96537637 248.46819647 -196.625 245.75 C-196.04379395 245.26805176 -195.46258789 244.78610352 -194.86376953 244.28955078 C-193.10232067 242.83184972 -191.33327799 241.38384527 -189.5625 239.9375 C-188.59957031 239.14472656 -187.63664062 238.35195313 -186.64453125 237.53515625 C-183.95669824 235.32826306 -181.2597162 233.13290853 -178.5625 230.9375 C-177.1703125 229.7928125 -177.1703125 229.7928125 -175.75 228.625 C-171.35670608 225.01273611 -166.9517715 221.4150487 -162.5 217.875 C-161.43072266 217.02228516 -161.43072266 217.02228516 -160.33984375 216.15234375 C-158.5625 214.9375 -158.5625 214.9375 -156.5625 214.9375 C-156.39234375 216.04609375 -156.2221875 217.1546875 -156.046875 218.296875 C-155.80292789 219.76055768 -155.55808924 221.22409196 -155.3125 222.6875 C-155.20292969 223.41710937 -155.09335937 224.14671875 -154.98046875 224.8984375 C-154.39569848 228.28394957 -153.77939103 230.60304186 -151.890625 233.515625 C-149.55930492 235.22098429 -149.55930492 235.22098429 -146.34375 234.91015625 C-142.00052414 233.79294216 -138.12503704 232.25042462 -134.0625 230.375 C-133.27858887 230.01857422 -132.49467773 229.66214844 -131.68701172 229.29492188 C-107.26374474 218.04925009 -86.51086882 202.91662916 -67.5625 183.9375 C-66.9025 183.32390625 -66.2425 182.7103125 -65.5625 182.078125 C-38.49760842 156.49334468 -18.47734373 117.24236109 -11.5625 80.9375 C-11.29397217 79.64513428 -11.29397217 79.64513428 -11.02001953 78.32666016 C-7.12179878 58.99345904 -7.26035288 39.93623909 -7.70996094 20.29321289 C-7.72702087 19.24396133 -7.74408081 18.19470978 -7.76165771 17.11366272 C-7.79480949 15.12414801 -7.84467156 13.13482042 -7.91363525 11.14622498 C-8.00942379 4.59474086 -8.00942379 4.59474086 -5.76953125 1.30078125 C-3.5625 -0.0625 -3.5625 -0.0625 0 0 Z " fill="#98E29A" transform="translate(477.5625,221.0625)"/>
<path d="M0 0 C7.29686576 2.07582282 14.38426039 4.54335545 21.4765625 7.23046875 C23.05345352 7.8233947 23.05345352 7.8233947 24.66220093 8.42829895 C27.98431578 9.67825421 31.30467597 10.93279646 34.625 12.1875 C36.89181219 13.04132071 39.15873821 13.89483929 41.42578125 14.74804688 C46.95184128 16.82854092 52.47647226 18.91279289 58 21 C56.07582751 25.30068624 53.06645161 27.79180228 49.5 30.75 C48.55169312 31.54942017 48.55169312 31.54942017 47.58422852 32.36499023 C43.30354059 35.95911687 38.95884906 39.46810256 34.5703125 42.9296875 C31.4327872 45.45687353 28.37510368 48.07049253 25.3125 50.6875 C13.20102215 61 13.20102215 61 10 61 C9.82984375 59.80761719 9.6596875 58.61523438 9.484375 57.38671875 C9.24048156 55.82017239 8.99564029 54.2537734 8.75 52.6875 C8.64042969 51.90181641 8.53085938 51.11613281 8.41796875 50.30664062 C7.87103133 46.92426447 7.4837793 44.60924543 5.328125 41.89453125 C0.24892142 39.94295806 -4.66969529 42.04490262 -9.43945312 44.11816406 C-10.07818359 44.40916992 -10.71691406 44.70017578 -11.375 45 C-12.06271484 45.30905273 -12.75042969 45.61810547 -13.45898438 45.93652344 C-35.91773562 56.1903153 -57.60741997 69.66575625 -74.66015625 87.76171875 C-76 89 -76 89 -78 89 C-78.26167969 89.59425781 -78.52335937 90.18851562 -78.79296875 90.80078125 C-80.07347962 93.13388034 -81.34378094 94.41270188 -83.3125 96.1875 C-114.25658479 126.5160605 -132.20275129 170.69562906 -138 213 C-138.17781006 214.16023682 -138.35562012 215.32047363 -138.53881836 216.51586914 C-139.2081337 221.94035829 -139.04802487 227.34160413 -138.95703125 232.796875 C-138.9346633 235.07681442 -138.91320572 237.35676292 -138.89257812 239.63671875 C-138.85535739 243.20744474 -138.81204319 246.7777055 -138.75317383 250.34814453 C-138.69883308 253.8102912 -138.66964371 257.27190957 -138.64453125 260.734375 C-138.62074905 261.80419617 -138.59696686 262.87401733 -138.57246399 263.97625732 C-138.54634219 271.33910237 -138.54634219 271.33910237 -140.8347168 274.67285156 C-143.81208423 276.49774381 -145.56969151 276.57171808 -149 276 C-151.86487447 273.81067532 -152.88394491 272.43898039 -153.81274414 268.92578125 C-154.90796089 259.27169673 -155.44039339 249.71680863 -155.4375 240 C-155.4385675 239.22775085 -155.43963501 238.45550171 -155.44073486 237.65985107 C-155.32565354 179.25981802 -131.18129041 123.91893253 -91 82 C-90.49742676 81.47019531 -89.99485352 80.94039063 -89.47705078 80.39453125 C-81.56414603 72.08955674 -73.20329813 64.83548431 -64 58 C-63.44763672 57.58153809 -62.89527344 57.16307617 -62.32617188 56.73193359 C-44.52426183 43.26490424 -24.60639556 32.49236908 -3.5390625 25.10546875 C-1.00163375 24.00071131 0.38153061 23.23013173 2 21 C2.56971589 13.82157975 1.33495537 7.04427345 0 0 Z " fill="#98E29A" transform="translate(183,15)"/>
<path d="M0 0 C11.19246645 6.5264778 18.95589768 16.11285563 23.1640625 28.3984375 C26.28695267 41.85313252 23.75356976 55.09554056 16.75 66.875 C9.58828918 77.30717496 -0.80361647 83.69148659 -13 87 C-27.92072834 88.79878085 -40.51931027 85.59551039 -52.4921875 76.29296875 C-61.90546165 67.68612774 -67.34352234 56.31983036 -68.23828125 43.6171875 C-68.49688142 30.57829461 -65.24130105 20.3130514 -57 10 C-51.09012458 4.16165106 -44.8575124 -0.26756776 -37 -3 C-36.10023438 -3.35320312 -35.20046875 -3.70640625 -34.2734375 -4.0703125 C-22.86355419 -7.31082829 -10.31763846 -5.5807807 0 0 Z M-43.5625 19.25 C-50.10892497 26.63571022 -53.45328442 33.95003813 -52.9375 43.9375 C-51.8794648 51.9287776 -48.13565168 58.78469607 -42 64 C-41.21625 64.70125 -40.4325 65.4025 -39.625 66.125 C-33.21211844 70.70562969 -26.83825241 72.18303611 -19 72 C-9.66262319 70.37669167 -2.33329242 65.82364444 3.3515625 58.18359375 C8.21668542 50.91436038 9.63307254 44.51690854 8.60546875 35.8125 C7.0640315 28.65227537 3.57973342 22.74277341 -2 18 C-2.78375 17.29875 -3.5675 16.5975 -4.375 15.875 C-17.29090896 6.64935074 -32.03835428 9.1312379 -43.5625 19.25 Z " fill="#010101" transform="translate(279,215)"/>
<path d="M0 0 C3.56144946 0.60095998 6.5579489 1.55994166 9.8359375 3.06640625 C10.73570312 3.46923828 11.63546875 3.87207031 12.5625 4.28710938 C14.43249947 5.13510219 16.29972257 5.98924522 18.1640625 6.84960938 C23.23574454 9.10650788 27.33996744 10.89294924 33 10 C35.70099983 8.5505706 35.70099983 8.5505706 37.9375 6.5 C38.70964844 5.8503125 39.48179687 5.200625 40.27734375 4.53125 C40.84582031 4.0259375 41.41429687 3.520625 42 3 C42.66 3.33 43.32 3.66 44 4 C42.625 5.5 42.625 5.5 41 7 C40.34 7 39.68 7 39 7 C38.62488281 7.96873047 38.62488281 7.96873047 38.2421875 8.95703125 C37.27074408 11.33676215 36.2546796 13.67124393 35.1953125 16.01171875 C23.45125306 42.26048358 20.5214399 70.71007108 30.15625 98.3125 C30.82166626 99.98554659 31.51731431 101.64750709 32.265625 103.28515625 C33 105 33 105 33 107 C31.10701172 107.34998047 31.10701172 107.34998047 29.17578125 107.70703125 C22.51473501 109.18480008 16.54270593 112.13697051 10.37695312 114.98632812 C9.48298828 115.38658203 8.58902344 115.78683594 7.66796875 116.19921875 C6.86641357 116.56877686 6.0648584 116.93833496 5.23901367 117.3190918 C2.62199883 118.11495423 1.48208116 118.13941691 -1 117 C-2.37207031 115.28173828 -2.37207031 115.28173828 -3.578125 113.0703125 C-4.23554688 111.87728516 -4.23554688 111.87728516 -4.90625 110.66015625 C-5.3496875 109.82355469 -5.793125 108.98695313 -6.25 108.125 C-6.70890625 107.29613281 -7.1678125 106.46726562 -7.640625 105.61328125 C-11 99.42443266 -11 99.42443266 -11 96 C-9.33520508 94.45361328 -9.33520508 94.45361328 -7.01953125 92.8203125 C-6.18486328 92.22089844 -5.35019531 91.62148438 -4.49023438 91.00390625 C-3.16475586 90.07384766 -3.16475586 90.07384766 -1.8125 89.125 C-0.08692041 87.90255361 1.63581635 86.67608288 3.35546875 85.4453125 C4.12528076 84.90406738 4.89509277 84.36282227 5.68823242 83.80517578 C11.31275453 79.60829608 11.31275453 79.60829608 13.64697266 73.20703125 C13.67974814 71.74254314 13.68393565 70.27722001 13.6640625 68.8125 C13.66884613 68.03237549 13.67362976 67.25225098 13.67855835 66.44848633 C13.68195008 64.80450414 13.67279831 63.16045385 13.65185547 61.51660156 C13.62507392 59.00692705 13.651622 56.50172371 13.68359375 53.9921875 C13.68028952 52.39061518 13.67388299 50.78904562 13.6640625 49.1875 C13.67924423 48.06855347 13.67924423 48.06855347 13.69473267 46.92700195 C13.6086082 43.07875169 13.19082985 41.23648332 10.7487793 38.21020508 C7.09778835 35.26996172 7.09778835 35.26996172 3.35546875 32.44921875 C2.09379883 31.52592773 2.09379883 31.52592773 0.80664062 30.58398438 C-0.05767578 29.95814453 -0.92199219 29.33230469 -1.8125 28.6875 C-2.69615234 28.04232422 -3.57980469 27.39714844 -4.49023438 26.73242188 C-6.6573416 25.15101931 -8.82729103 23.57369257 -11 22 C-10.43565386 18.46541101 -9.56065377 15.85374233 -7.71484375 12.79296875 C-7.26689453 12.04208984 -6.81894531 11.29121094 -6.35742188 10.51757812 C-5.88884766 9.74865234 -5.42027344 8.97972656 -4.9375 8.1875 C-4.46505859 7.39923828 -3.99261719 6.61097656 -3.50585938 5.79882812 C-2.34368685 3.86187392 -1.17495583 1.92921705 0 0 Z " fill="#798A96" transform="translate(178,197)"/>
<path d="M0 0 C5.34943681 4.5307599 8.51699842 10.34298803 9.4375 17.3125 C8.52213695 25.02770286 6.00442022 30.95470869 -0.12109375 35.84375 C-6.41426224 39.71646907 -12.78741608 39.85366331 -20 39 C-25.82935616 36.78191165 -30.16039701 32.76680612 -32.90234375 27.15234375 C-35.13465073 21.81332384 -36.14266044 17.18421375 -34.12109375 11.55078125 C-31.00292608 4.66611402 -27.11982688 0.3240049 -20.5625 -3.375 C-13.01872662 -5.21494473 -6.6823567 -3.80569728 0 0 Z " fill="#020202" transform="translate(404,90)"/>
<path d="M0 0 C5.23892392 3.02286986 9.43097718 7.81670678 11.6875 13.4375 C12.5871108 20.75991352 12.273202 27.44801168 7.6875 33.4375 C3.77344397 37.50593875 -0.29954027 41.06733638 -6.046875 41.7734375 C-12.69753782 41.85958598 -17.88359239 41.51549339 -23.3125 37.4375 C-28.44292054 32.30707946 -31.37396533 26.90138987 -31.875 19.625 C-31.67086247 13.53798996 -29.0960734 9.09674759 -25.3125 4.4375 C-18.33286573 -1.98258553 -8.82838842 -3.98811369 0 0 Z " fill="#020202" transform="translate(102.3125,441.5625)"/>
<path d="M0 0 C4.92418647 2.82252338 9.21001638 7.42003277 11.75 12.5 C11.89977039 14.74655587 11.97150174 16.99863768 12 19.25 C12.02578125 20.46171875 12.0515625 21.6734375 12.078125 22.921875 C11.48807907 29.35618536 8.55172258 33.35305777 3.75 37.5 C-1.4991508 41.46364449 -5.67908524 42.19188353 -12.24609375 41.9453125 C-18.59747543 41.00375527 -23.33538123 38.11749499 -27.1875 33 C-30.77790581 27.23058928 -32.17067371 22.30843893 -31.25 15.5 C-28.867071 8.29969022 -24.05386182 2.81837396 -17.33203125 -0.76953125 C-11.70156096 -2.74494953 -5.44611303 -2.36879479 0 0 Z " fill="#020202" transform="translate(55.25,441.5)"/>
<path d="M0 0 C5.48251273 2.42001538 9.31889683 6.53948715 12.75 11.3828125 C14.79065442 17.50477576 14.62552194 24.80232678 12.5625 30.8828125 C8.58317662 36.3715344 4.2593769 40.31967101 -2.25 42.3828125 C-8.40992578 43.27178138 -14.01086249 42.93211464 -19.46484375 39.78515625 C-24.55357961 35.78765915 -28.70038666 29.83124551 -29.5 23.359375 C-29.81825716 17.53129071 -28.71188741 13.11405863 -25.25 8.3828125 C-17.87588758 0.70648236 -10.78193634 -2.95754504 0 0 Z " fill="#020302" transform="translate(53.25,373.6171875)"/>
<path d="M0 0 C6.2375766 3.21905392 10.42881105 7.44188535 13.99609375 13.44140625 C15.4505559 19.6955935 15.49912468 25.15743349 12.49609375 30.94140625 C9.01359104 36.50947556 4.92246935 40.02541237 -1.37890625 42.12890625 C-7.8157172 42.9960414 -13.73067604 43.11640409 -19.37890625 39.62890625 C-24.6786751 35.41251556 -27.88596067 31.61619071 -28.8515625 24.78515625 C-29.11606632 18.43706464 -28.98236878 13.01442939 -25.078125 7.8125 C-18.25485452 1.05197223 -9.56072674 -3.50089009 0 0 Z " fill="#020202" transform="translate(351.37890625,86.87109375)"/>
<path d="M0 0 C5.69228398 2.83102973 9.87143156 7.5395113 12.25 13.4375 C13.1496108 20.75991352 12.835702 27.44801168 8.25 33.4375 C4.42538014 37.41297493 0.33551186 41.07366476 -5.30078125 41.73828125 C-13.2167409 41.77187089 -19.29318335 40.48366911 -25.39453125 35.00390625 C-29.7957598 29.91776029 -31.58096892 23.63868806 -31.25 16.98828125 C-30.07745253 11.00645703 -27.06087739 6.43073101 -22.4765625 2.4765625 C-15.06676223 -2.50226229 -8.3108467 -3.18791272 0 0 Z " fill="#020202" transform="translate(101.75,374.5625)"/>
<path d="M0 0 C4.8542902 2.74303384 8.3121266 7.18315126 10.37109375 12.33984375 C11.23595278 19.94255797 11.17496191 27.10220571 6.37109375 33.33984375 C2.39550743 37.5877305 -1.89231903 40.00696822 -7.6796875 40.7109375 C-15.05407806 40.86107479 -20.03399449 40.35310627 -25.62890625 35.33984375 C-30.23741702 30.73133298 -32.18849388 25.31262723 -33.12890625 18.96484375 C-32.2633909 12.68985743 -29.55263042 6.67217628 -24.75390625 2.40234375 C-16.11082857 -3.30208752 -9.44922937 -4.04145122 0 0 Z " fill="#020202" transform="translate(401.62890625,21.66015625)"/>
<path d="M0 0 C5.81221627 3.28613766 10.42380542 8.82610376 12.53125 15.1484375 C13.27106962 21.97660874 12.66353576 27.53431166 8.53125 33.1484375 C3.19341231 38.7215859 -1.32816646 41.44175543 -9.15625 41.6484375 C-17.31643646 41.51271714 -21.53084133 39.16064633 -27.125 33.4609375 C-31.08729491 28.35397962 -31.26109591 22.85758833 -31.01171875 16.5625 C-29.9327878 9.77843059 -26.31539403 5.2341958 -20.96875 1.0859375 C-14.75506975 -2.34353602 -6.61396373 -2.28139888 0 0 Z " fill="#020202" transform="translate(353.46875,20.8515625)"/>
<path d="M0 0 C1.02549314 -0.00128164 1.02549314 -0.00128164 2.07170331 -0.00258917 C4.37337982 -0.00424249 6.67498421 0.001275 8.97665405 0.00672913 C10.62224831 0.00701106 12.2678427 0.00685315 13.91343689 0.00628662 C18.39045935 0.00599887 22.8674552 0.01189199 27.34447145 0.01886058 C32.01966499 0.02509784 36.69485909 0.02569821 41.37005615 0.02688599 C50.22752887 0.0299982 59.0849893 0.03821011 67.9424566 0.04823548 C78.02453439 0.05940002 88.10661276 0.06490793 98.18869519 0.06993091 C118.93231205 0.08039281 139.67591782 0.09799014 160.41952515 0.12025452 C160.41952515 0.45025452 160.41952515 0.78025452 160.41952515 1.12025452 C109.59952515 1.12025452 58.77952515 1.12025452 6.41952515 1.12025452 C6.41952515 3.43025452 6.41952515 5.74025452 6.41952515 8.12025452 C4.54452515 10.05775452 4.54452515 10.05775452 2.41952515 11.12025452 C1.75952515 11.12025452 1.09952515 11.12025452 0.41952515 11.12025452 C-0.26821891 12.44283924 -0.92758859 13.78011954 -1.58047485 15.12025452 C-2.11672485 16.17212952 -2.65297485 17.22400452 -3.20547485 18.30775452 C-5.38365637 23.5847922 -5.52737374 28.36858254 -3.66641235 33.77650452 C-1.68056814 38.13254988 -0.32593498 40.62796953 3.73202515 43.30775452 C4.61890015 43.90587952 5.50577515 44.50400452 6.41952515 45.12025452 C6.41952515 47.43025452 6.41952515 49.74025452 6.41952515 52.12025452 C57.23952515 52.12025452 108.05952515 52.12025452 160.41952515 52.12025452 C160.41952515 52.45025452 160.41952515 52.78025452 160.41952515 53.12025452 C138.74911965 53.23705158 117.07876605 53.32522498 95.40810966 53.37931538 C85.34605259 53.40509797 75.28419108 53.4402496 65.22225952 53.49745178 C56.45235823 53.54728499 47.68259857 53.57954513 38.91255963 53.59069699 C34.26873628 53.59721589 29.6253181 53.61253823 24.9816246 53.6489048 C20.61000304 53.68286303 16.23895323 53.69330789 11.8672123 53.68579292 C10.26359385 53.68716756 8.65995612 53.69710145 7.0564518 53.71628189 C4.8639414 53.74121956 2.67357981 53.73516001 0.48101807 53.7215271 C-0.7449666 53.72613606 -1.97095127 53.73074503 -3.23408699 53.73549366 C-7.73979854 52.90711087 -9.37519685 51.36070626 -12.58047485 48.12025452 C-14.57249416 42.14419659 -13.88787168 35.26000352 -13.93057251 28.98817444 C-13.94712541 27.20646598 -13.97440693 25.42482375 -14.01260376 23.64344788 C-14.067532 21.06635822 -14.08926879 18.4908204 -14.10391235 15.91322327 C-14.12658173 15.12239853 -14.1492511 14.33157379 -14.17260742 13.51678467 C-14.15701234 9.40929969 -13.80102743 6.8813927 -11.17276001 3.63319397 C-7.27110433 -0.14903827 -5.35170857 -0.00401178 0 0 Z " fill="#4D5C64" transform="translate(29.580474853515625,434.87974548339844)"/>
<path d="M0 0 C1.0686731 -0.0038269 2.13734619 -0.00765381 3.23840332 -0.01159668 C5.49439437 -0.01431464 7.75041699 -0.00696165 10.00634766 0.00976562 C13.45677034 0.03117567 16.90511073 0.00995872 20.35546875 -0.015625 C22.54948376 -0.0129817 24.74349747 -0.00785669 26.9375 0 C27.96782349 -0.00809692 28.99814697 -0.01619385 30.05969238 -0.02453613 C34.4850768 0.03331565 37.23006691 0.10580884 41.11914062 2.34570312 C42.96875 4.53125 42.96875 4.53125 43.59375 8.03125 C42.96875 11.53125 42.96875 11.53125 41.13500977 13.71459961 C36.40786804 16.42681039 32.04604622 16.12285875 26.68359375 16.09765625 C25.04373253 16.10695412 25.04373253 16.10695412 23.3707428 16.11643982 C21.06349579 16.12353334 18.75619754 16.12037223 16.44897461 16.10766602 C12.91489889 16.09378397 9.3834622 16.12790087 5.84960938 16.16601562 C3.60677018 16.16696666 1.36392767 16.16510882 -0.87890625 16.16015625 C-2.46494408 16.18004356 -2.46494408 16.18004356 -4.08302307 16.20033264 C-11.37797253 16.10747392 -11.37797253 16.10747392 -14.69311523 13.18334961 C-16.3404185 9.91849733 -16.72135027 8.13510698 -16.03125 4.53125 C-11.56454725 -0.6728132 -6.35311191 -0.04992671 0 0 Z " fill="#010101" transform="translate(144.03125,453.46875)"/>
<path d="M0 0 C1.0686731 -0.0038269 2.13734619 -0.00765381 3.23840332 -0.01159668 C5.49439437 -0.01431464 7.75041699 -0.00696165 10.00634766 0.00976562 C13.45677034 0.03117567 16.90511073 0.00995872 20.35546875 -0.015625 C22.54948376 -0.0129817 24.74349747 -0.00785669 26.9375 0 C27.96782349 -0.00809692 28.99814697 -0.01619385 30.05969238 -0.02453613 C34.4850768 0.03331565 37.23006691 0.10580884 41.11914062 2.34570312 C42.96875 4.53125 42.96875 4.53125 43.59375 8.03125 C42.96875 11.53125 42.96875 11.53125 41.13500977 13.71459961 C36.40786804 16.42681039 32.04604622 16.12285875 26.68359375 16.09765625 C25.04373253 16.10695412 25.04373253 16.10695412 23.3707428 16.11643982 C21.06349579 16.12353334 18.75619754 16.12037223 16.44897461 16.10766602 C12.91489889 16.09378397 9.3834622 16.12790087 5.84960938 16.16601562 C3.60677018 16.16696666 1.36392767 16.16510882 -0.87890625 16.16015625 C-2.46494408 16.18004356 -2.46494408 16.18004356 -4.08302307 16.20033264 C-11.37797253 16.10747392 -11.37797253 16.10747392 -14.69311523 13.18334961 C-16.3404185 9.91849733 -16.72135027 8.13510698 -16.03125 4.53125 C-11.56454725 -0.6728132 -6.35311191 -0.04992671 0 0 Z " fill="#010202" transform="translate(144.03125,386.46875)"/>
<path d="M0 0 C1.0450621 -0.00241196 2.09012421 -0.00482391 3.16685486 -0.00730896 C5.36982021 -0.006332 7.57281057 0.00702535 9.77563477 0.03198242 C13.14489149 0.06633028 16.51152996 0.05262218 19.88085938 0.03320312 C22.02475073 0.04010079 24.16863533 0.04977244 26.3125 0.0625 C27.82046898 0.0550602 27.82046898 0.0550602 29.35890198 0.04747009 C33.72657996 0.12095518 36.39553556 0.22751185 40.23217773 2.44555664 C42.08984375 4.62890625 42.08984375 4.62890625 42.58984375 8.12890625 C42.06544985 11.79966352 41.63706585 13.03859987 39.08984375 15.62890625 C36.78187561 16.14356995 36.78187561 16.14356995 34.03930664 16.16235352 C33.0113649 16.17818985 31.98342316 16.19402618 30.92433167 16.21034241 C29.26022499 16.2029026 29.26022499 16.2029026 27.5625 16.1953125 C25.8518058 16.20461037 25.8518058 16.20461037 24.10655212 16.21409607 C21.69319514 16.22120428 19.27978922 16.2180029 16.86645508 16.20532227 C13.16981843 16.19147172 9.47571897 16.22549842 5.77929688 16.26367188 C3.4361973 16.26462316 1.09309454 16.26276374 -1.25 16.2578125 C-2.35738022 16.27107071 -3.46476044 16.28432892 -4.60569763 16.29798889 C-12.25999017 16.20494974 -12.25999017 16.20494974 -15.59985352 13.24584961 C-17.10688689 10.2359948 -17.73214187 8.91684872 -16.91015625 5.62890625 C-11.7971706 -0.04754048 -7.38535475 -0.09759564 0 0 Z " fill="#040505" transform="translate(442.91015625,32.37109375)"/>
<path d="M0 0 C1.0450621 -0.00241196 2.09012421 -0.00482391 3.16685486 -0.00730896 C5.36982021 -0.006332 7.57281057 0.00702535 9.77563477 0.03198242 C13.14489149 0.06633028 16.51152996 0.05262218 19.88085938 0.03320312 C22.02475073 0.04010079 24.16863533 0.04977244 26.3125 0.0625 C27.82046898 0.0550602 27.82046898 0.0550602 29.35890198 0.04747009 C33.72532964 0.12093415 36.39392329 0.22607901 40.22827148 2.44555664 C42.08984375 4.62890625 42.08984375 4.62890625 42.65234375 8.12890625 C41.99933493 12.19207225 41.24891171 13.11673912 38.08984375 15.62890625 C35.69958496 16.14356995 35.69958496 16.14356995 33.01757812 16.16235352 C31.50580994 16.18610802 31.50580994 16.18610802 29.96350098 16.21034241 C28.3399469 16.2029026 28.3399469 16.2029026 26.68359375 16.1953125 C25.00831604 16.20461037 25.00831604 16.20461037 23.29919434 16.21409607 C20.93889233 16.22119709 18.57854027 16.21801539 16.21826172 16.20532227 C12.60290589 16.19145635 8.99013718 16.22552713 5.375 16.26367188 C3.08203062 16.26462304 0.78905798 16.26276439 -1.50390625 16.2578125 C-2.58627563 16.27107071 -3.66864502 16.28432892 -4.78381348 16.29798889 C-12.26380213 16.20497113 -12.26380213 16.20497113 -15.58398438 13.24584961 C-17.10922285 10.23608687 -17.73399773 8.92427217 -16.91015625 5.62890625 C-11.7971706 -0.04754048 -7.38535475 -0.09759564 0 0 Z " fill="#030404" transform="translate(442.91015625,99.37109375)"/>
<path d="M0 0 C1.0528418 0.01353516 1.0528418 0.01353516 2.12695312 0.02734375 C3.85561525 0.05086296 5.58410145 0.08673287 7.3125 0.125 C5.68852807 6.18518793 4.07858089 9.8355272 -0.6875 14.125 C-4.95517353 19.96605678 -4.65733881 26.16679137 -3.6875 33.125 C-1.58577004 37.93650759 0.9507943 41.2171962 5.3125 44.125 C6.29765378 46.74856462 6.73488929 49.37024123 7.3125 52.125 C4.91475255 52.26072155 2.52474755 52.35936868 0.125 52.4375 C-0.88530273 52.5003418 -0.88530273 52.5003418 -1.91601562 52.56445312 C-5.90586318 52.66176648 -7.4864502 52.28954409 -10.61328125 49.73046875 C-14.03917337 45.42713533 -13.86251102 42.11953461 -13.890625 36.79296875 C-13.89632507 35.96420731 -13.90202515 35.13544586 -13.90789795 34.28157043 C-13.91735248 32.52553587 -13.92388373 30.76948353 -13.92773438 29.01342773 C-13.93742406 26.33350404 -13.9684359 23.65435247 -14 20.97460938 C-14.00653173 19.26823372 -14.01178154 17.56185258 -14.015625 15.85546875 C-14.0279718 15.05634567 -14.0403186 14.2572226 -14.05303955 13.43388367 C-14.03474985 8.83902702 -13.67292601 5.84891232 -10.6875 2.125 C-7.00662647 -0.32891569 -4.24394412 -0.10302759 0 0 Z " fill="#768793" transform="translate(327.6875,14.875)"/>
<path d="M0 0 C1.0528418 0.01353516 1.0528418 0.01353516 2.12695312 0.02734375 C3.85561525 0.05086296 5.58410145 0.08673287 7.3125 0.125 C5.72849373 6.15195068 4.48277413 9.37655126 -0.6875 13.125 C-4.58219969 19.58175516 -4.72245849 25.77350912 -3.6875 33.125 C-1.58306266 37.93608789 0.94998488 41.21665658 5.3125 44.125 C6.29765378 46.74856462 6.73488929 49.37024123 7.3125 52.125 C4.91475255 52.26072155 2.52474755 52.35936868 0.125 52.4375 C-0.88530273 52.5003418 -0.88530273 52.5003418 -1.91601562 52.56445312 C-5.90586318 52.66176648 -7.4864502 52.28954409 -10.61328125 49.73046875 C-14.03917337 45.42713533 -13.86251102 42.11953461 -13.890625 36.79296875 C-13.89632507 35.96420731 -13.90202515 35.13544586 -13.90789795 34.28157043 C-13.91735248 32.52553587 -13.92388373 30.76948353 -13.92773438 29.01342773 C-13.93742406 26.33350404 -13.9684359 23.65435247 -14 20.97460938 C-14.00653173 19.26823372 -14.01178154 17.56185258 -14.015625 15.85546875 C-14.0279718 15.05634567 -14.0403186 14.2572226 -14.05303955 13.43388367 C-14.03474985 8.83902702 -13.67292601 5.84891232 -10.6875 2.125 C-7.00662647 -0.32891569 -4.24394412 -0.10302759 0 0 Z " fill="#566872" transform="translate(327.6875,81.875)"/>
<path d="M0 0 C1.9375 1.6875 1.9375 1.6875 3 4 C2.92897215 7.4803645 2.61415498 9.29485909 0.3125 11.9375 C-2.89943934 13.41325591 -4.66474802 13.06444212 -8 12 C-9.9375 10.3125 -9.9375 10.3125 -11 8 C-10.92897215 4.5196355 -10.61415498 2.70514091 -8.3125 0.0625 C-5.10056066 -1.41325591 -3.33525198 -1.06444212 0 0 Z " fill="#E9CE6D" transform="translate(395,35)"/>
<path d="M0 0 C1.9375 1.6875 1.9375 1.6875 3 4 C2.77962372 7.67293796 2.63033454 9.36966546 0 12 C-7.1372549 12.67973856 -7.1372549 12.67973856 -10.0625 10.375 C-11.34452118 7.12721302 -11.05543562 5.30703161 -10 2 C-6.89527044 -1.5646895 -4.35928569 -1.39126139 0 0 Z " fill="#90D591" transform="translate(395,102)"/>
<path d="M0 0 C3.375 0.875 3.375 0.875 5.375 2.875 C5.92521834 8.92740175 5.92521834 8.92740175 4.25 11.8125 C1.43987736 13.40490283 -0.45264724 13.32819325 -3.625 12.875 C-6.4162125 10.89177007 -7.45097224 9.74513879 -8.125 6.375 C-7.12928094 1.39640472 -5.01830468 -0.17304499 0 0 Z " fill="#95DD97" transform="translate(93.625,455.125)"/>
<path d="M0 0 C3.375 0.875 3.375 0.875 5.375 2.875 C5.92521834 8.92740175 5.92521834 8.92740175 4.25 11.8125 C1.43987736 13.40490283 -0.45264724 13.32819325 -3.625 12.875 C-6.4162125 10.89177007 -7.45097224 9.74513879 -8.125 6.375 C-7.12928094 1.39640472 -5.01830468 -0.17304499 0 0 Z " fill="#F5D872" transform="translate(93.625,388.125)"/>
<path d="M0 0 C1.9375 1.6875 1.9375 1.6875 3 4 C2.77962372 7.67293796 2.63033454 9.36966546 0 12 C-6.00458716 12.54587156 -6.00458716 12.54587156 -8.9375 10.9375 C-10.63335287 7.84506242 -10.43060657 5.44485259 -10 2 C-7.0239502 -1.66283052 -4.29996319 -1.37232868 0 0 Z " fill="#F3D671" transform="translate(348,102)"/>
<path d="M0 0 C3.375 0.875 3.375 0.875 5.375 2.875 C5.92521834 8.92740175 5.92521834 8.92740175 4.25 11.8125 C1.43987736 13.40490283 -0.45264724 13.32819325 -3.625 12.875 C-6.4162125 10.89177007 -7.45097224 9.74513879 -8.125 6.375 C-7.12928094 1.39640472 -5.01830468 -0.17304499 0 0 Z " fill="#94DC96" transform="translate(46.625,388.125)"/>
<path d="M0 0 C2.9375 1 2.9375 1 4.875 2.6875 C6.32300221 5.83903422 5.867426 7.70949263 4.9375 11 C2.9375 13 2.9375 13 -0.5 13.3125 C-4.0625 13 -4.0625 13 -6 11.875 C-7.59240283 9.06487736 -7.51569325 7.17235276 -7.0625 4 C-4.88642935 0.73589403 -3.96077619 0 0 0 Z " fill="#94DB96" transform="translate(345.0625,34)"/>
<path d="M0 0 C3.375 0.875 3.375 0.875 5.375 2.875 C5.92521834 8.92740175 5.92521834 8.92740175 4.25 11.8125 C1.43987736 13.40490283 -0.45264724 13.32819325 -3.625 12.875 C-6.4162125 10.89177007 -7.45097224 9.74513879 -8.125 6.375 C-7.12928094 1.39640472 -5.01830468 -0.17304499 0 0 Z " fill="#F5D872" transform="translate(46.625,455.125)"/>
</svg>
