<?xml version="1.0" encoding="UTF-8"?>
<svg version="1.1" xmlns="http://www.w3.org/2000/svg" width="256" height="256">
<path d="M0 0 C1.46021611 0.88003008 2.90215377 1.79208167 4.3125 2.75 C5.67375 3.5853125 5.67375 3.5853125 7.0625 4.4375 C13.58232676 11.13843306 16.43131871 18.18023548 16.625 27.375 C16.68107422 29.09589844 16.68107422 29.09589844 16.73828125 30.8515625 C15.7671252 39.74343165 11.07660031 47.31595539 6.5625 54.875 C6.05589844 55.73609375 5.54929687 56.5971875 5.02734375 57.484375 C3.79521775 59.57666444 2.55693891 61.66501902 1.3125 63.75 C2.26769531 63.41226563 3.22289062 63.07453125 4.20703125 62.7265625 C5.51287639 62.27562317 6.81887446 61.82512652 8.125 61.375 C8.74826172 61.15328125 9.37152344 60.9315625 10.01367188 60.703125 C33.69855037 52.60979969 61.09630532 54.99893984 83.50390625 65.78125 C107.88286129 78.11624579 125.73138537 97.96991388 134.54101562 123.90869141 C142.28464473 148.20988395 140.38109678 172.19559186 131.3125 195.75 C130.9617894 196.38302536 130.6110788 197.01605072 130.2497406 197.66825867 C129.18990457 200.02230146 129.08695147 201.56308043 129.13305664 204.13208008 C129.14289078 204.9900972 129.15272491 205.84811432 129.16285706 206.73213196 C129.19245766 208.11189461 129.19245766 208.11189461 129.22265625 209.51953125 C129.24308331 211.47981517 129.26325767 213.44010174 129.28320312 215.40039062 C129.326631 218.48131584 129.37499235 221.56206337 129.42895508 224.64282227 C129.47742733 227.6225525 129.50717497 230.60204823 129.53515625 233.58203125 C129.5677932 234.95268486 129.5677932 234.95268486 129.60108948 236.35102844 C129.64879264 242.54399188 129.17765236 247.66379445 124.76629639 252.41549683 C121.03028053 254.4473382 117.50475086 254.17606785 113.31567383 254.15405273 C111.95124397 254.16434761 111.95124397 254.16434761 110.55924988 254.17485046 C107.54585208 254.19317554 104.53297298 254.18926781 101.51953125 254.18359375 C99.41362846 254.18815762 97.30772715 254.19346381 95.201828 254.19947815 C90.77747575 254.20842404 86.35330376 254.2059749 81.92895508 254.19604492 C76.303071 254.18463994 70.67782255 254.20462817 65.05202198 254.23396206 C60.69435257 254.25247311 56.33683064 254.25200071 51.9791317 254.24632454 C49.90823167 254.24617267 47.83732075 254.25210381 45.76645851 254.26461601 C15.24479149 254.42284279 -9.24233164 245.33708142 -31.6875 224.1875 C-50.24596448 205.16215591 -59.11857393 179.32624587 -58.98779297 153.04711914 C-58.34568188 123.93519092 -45.52265471 99.73666424 -24.6875 79.75 C-23.68613253 78.75136934 -22.68592285 77.75157466 -21.6875 76.75 C-23.87314332 72.83229457 -26.06136633 68.91603553 -28.25 65 C-28.85908203 63.90816406 -29.46816406 62.81632812 -30.09570312 61.69140625 C-33.73600888 55.18122981 -37.44481339 48.72340954 -41.27734375 42.32421875 C-45.36885289 34.85523115 -45.66225724 26.87568779 -43.5625 18.75 C-40.80482209 10.38718141 -35.29987676 4.14390864 -27.6875 -0.25 C-19.28637791 -3.70300357 -8.25751744 -4.03562882 0 0 Z " fill="#020303" transform="translate(72.6875,2.25)"/>
<path d="M0 0 C1.86011719 0.06767578 1.86011719 0.06767578 3.7578125 0.13671875 C10.83123416 0.8058262 10.83123416 0.8058262 13.4375 3.46875 C14.69318112 5.9408722 15.31964134 8.30524611 16 11 C16.429547 12.49037712 16.86210732 13.97988746 17.296875 15.46875 C19.6092426 23.6065987 21.58277526 31.51643039 22 40 C20.93458984 40.19916016 20.93458984 40.19916016 19.84765625 40.40234375 C18.92855469 40.57894531 18.00945312 40.75554687 17.0625 40.9375 C16.14597656 41.11152344 15.22945312 41.28554687 14.28515625 41.46484375 C12.04710156 41.77714988 12.04710156 41.77714988 11 43 C10.83333333 46 10.83333333 46 11 49 C12.08552366 50.31262571 12.08552366 50.31262571 14.72265625 50.09765625 C15.82480469 50.08605469 16.92695313 50.07445312 18.0625 50.0625 C19.16722656 50.05347656 20.27195313 50.04445312 21.41015625 50.03515625 C22.69212891 50.01775391 22.69212891 50.01775391 24 50 C25.1577506 53.47325181 25.06866652 56.36067448 25 60 C23.948125 60.49306641 23.948125 60.49306641 22.875 60.99609375 C11.66056337 66.61854907 7.11543992 72.49026019 2 84 C-12.52 84 -27.04 84 -42 84 C-42 64.44425676 -42 64.44425676 -41 57.4375 C-40.85691406 56.33631836 -40.85691406 56.33631836 -40.7109375 55.21289062 C-40.4836275 53.47396911 -40.24344732 51.73673581 -40 50 C-39.14535156 50.01160156 -38.29070312 50.02320313 -37.41015625 50.03515625 C-35.75306641 50.04869141 -35.75306641 50.04869141 -34.0625 50.0625 C-32.96035156 50.07410156 -31.85820313 50.08570313 -30.72265625 50.09765625 C-28.08552366 50.31262571 -28.08552366 50.31262571 -27 49 C-26.95919217 47.00041636 -26.95745644 44.99954746 -27 43 C-32.445 41.515 -32.445 41.515 -38 40 C-36.44100569 31.52059194 -34.61459195 23.15493621 -32.4375 14.8125 C-32.22778564 13.99934326 -32.01807129 13.18618652 -31.80200195 12.34838867 C-31.59792725 11.57986572 -31.39385254 10.81134277 -31.18359375 10.01953125 C-31.00368896 9.33995361 -30.82378418 8.66037598 -30.63842773 7.96020508 C-29.92634287 5.77384584 -29.25120355 3.93822522 -28 2 C-19.70075824 -1.70228039 -8.84472332 -0.3404743 0 0 Z " fill="#9ADFCD" transform="translate(121,69)"/>
<path d="M0 0 C1.48253014 -0.01073296 1.48253014 -0.01073296 2.99501038 -0.02168274 C5.07503362 -0.02943043 7.15513875 -0.02451016 9.23510742 -0.00756836 C12.39855036 0.01164825 15.5575897 -0.02776321 18.72070312 -0.07226562 C20.75130467 -0.07255605 22.7819102 -0.06941433 24.8125 -0.0625 C25.74714584 -0.07778244 26.68179169 -0.09306488 27.64476013 -0.10881042 C34.64256964 0.01390425 39.29533717 1.94639185 44.47265625 6.69921875 C48.77172316 11.58990122 49.02084698 16.70603465 48.86328125 22.9140625 C48.85925293 23.67368286 48.85522461 24.43330322 48.85107422 25.21594238 C48.83032291 28.02311752 48.77447855 30.82994528 48.72265625 33.63671875 C48.64015625 39.92734375 48.55765625 46.21796875 48.47265625 52.69921875 C24.71265625 52.69921875 0.95265625 52.69921875 -23.52734375 52.69921875 C-23.63046875 46.42921875 -23.73359375 40.15921875 -23.83984375 33.69921875 C-23.88536377 31.73597656 -23.93088379 29.77273437 -23.9777832 27.75 C-23.99240444 26.17059022 -24.00514123 24.59116141 -24.015625 23.01171875 C-24.04120483 22.21056641 -24.06678467 21.40941406 -24.09313965 20.58398438 C-24.09780532 14.47755703 -22.61457985 10.29384049 -18.52734375 5.69921875 C-12.88754829 0.57019554 -7.39638279 -0.05514971 0 0 Z " fill="#FED98E" transform="translate(142.52734375,193.30078125)"/>
<path d="M0 0 C1.134375 0.020625 2.26875 0.04125 3.4375 0.0625 C5.5625 5.6875 5.5625 5.6875 4.4375 9.0625 C5.10056152 9.15225098 5.76362305 9.24200195 6.44677734 9.33447266 C40.63585148 14.07688525 66.91097824 25.3071149 91.4375 50.0625 C92.20449219 50.83207031 92.97148437 51.60164063 93.76171875 52.39453125 C117.1213787 76.91252145 127.34157728 110.33368129 126.6875 143.71875 C126.03036157 161.88205614 121.92431693 190.57568307 108.4375 204.0625 C105.3070827 204.39552312 103.25851702 204.53921956 100.5 202.9375 C98.87971018 200.07816502 99.70248993 198.21893918 100.4375 195.0625 C101.4608983 192.78461347 102.55098725 190.5361119 103.6875 188.3125 C117.20386015 160.60796473 118.0047095 127.65618896 108.04345703 98.70214844 C97.17111094 69.13300635 75.15172124 45.33414309 46.62207031 32.11962891 C33.42552022 26.25302277 19.04796228 21.39838808 4.4375 22.0625 C4.685 22.805 4.9325 23.5475 5.1875 24.3125 C5.4375 27.0625 5.4375 27.0625 3.875 29.4375 C1.4375 31.0625 1.4375 31.0625 -1.40625 31.015625 C-5.57794794 29.75585483 -6.91480589 27.90449908 -9.5 24.4375 C-10.29277344 23.41398437 -11.08554688 22.39046875 -11.90234375 21.3359375 C-13.97369326 17.25172365 -13.83603058 15.42322728 -12.5625 11.0625 C-10.75 8.2265625 -10.75 8.2265625 -8.5625 5.6875 C-7.4796875 4.40746094 -7.4796875 4.40746094 -6.375 3.1015625 C-3.67537129 0.0644802 -3.67537129 0.0644802 0 0 Z " fill="#000000" transform="translate(115.5625,18.9375)"/>
<path d="M0 0 C5.96121358 3.49707937 10.56131903 8.93179776 12.6875 15.5 C13.84435244 23.42748359 12.41768676 30.00736385 7.6875 36.5 C2.52811582 41.52415839 -2.78102925 44.49964641 -10 44.9375 C-16.51049469 44.79174266 -22.04021278 42.34955155 -26.9453125 38.078125 C-32.23451495 32.187157 -33.91644349 25.92930755 -33.65234375 18.20703125 C-32.73153768 10.87233461 -28.88498798 6.62558615 -23.41015625 1.9453125 C-16.68882894 -2.68576963 -7.48610354 -3.30441289 0 0 Z " fill="#FBD1B2" transform="translate(165.3125,139.5)"/>
<path d="M0 0 C7.07470713 1.51969726 14.06619387 3.27991737 21.0625 5.125 C22.11888672 5.40214844 23.17527344 5.67929688 24.26367188 5.96484375 C26.84284566 6.64173099 29.42160698 7.32014591 32 8 C32.02741912 9.5415636 32.04658248 11.08327474 32.0625 12.625 C32.07410156 13.48351562 32.08570313 14.34203125 32.09765625 15.2265625 C32 18 32 18 31 24 C30.67 30.6 30.34 37.2 30 44 C15.48 44 0.96 44 -14 44 C-14 27.56909184 -9.07756968 13.61635452 0 0 Z " fill="#99DECC" transform="translate(39,109)"/>
<path d="M0 0 C14.52 0 29.04 0 44 0 C44.33 6.6 44.66 13.2 45 20 C45.495 22.475 45.495 22.475 46 25 C46.06459042 26.76977761 46.08611065 28.54170152 46.0625 30.3125 C46.05347656 31.19550781 46.04445312 32.07851562 46.03515625 32.98828125 C46.02355469 33.65214844 46.01195312 34.31601563 46 35 C44.99582031 35.24234375 43.99164063 35.4846875 42.95703125 35.734375 C41.57529661 36.07200033 40.19380338 36.41061457 38.8125 36.75 C38.0915918 36.92684326 37.37068359 37.10368652 36.62792969 37.28588867 C30.8845482 38.72046954 25.27575749 40.45028076 19.671875 42.36328125 C16.82911314 43.04072304 15.68639476 43.0238346 13 42 C11.45363948 39.48011501 10.17749872 37.10146643 8.9375 34.4375 C8.42993164 33.40012695 8.42993164 33.40012695 7.91210938 32.34179688 C4.71875813 25.71420328 1.95232625 19.18157856 0.8125 11.875 C0.57466797 10.41707031 0.57466797 10.41707031 0.33203125 8.9296875 C0 6 0 6 0 0 Z " fill="#9CE1CF" transform="translate(25,163)"/>
<path d="M0 0 C6.21581761 3.29724649 10.01773012 7.24850287 12.25390625 13.95703125 C14.37577578 21.6284057 10.80604553 27.6330933 7.17944336 34.18725586 C5.88791059 36.45414535 4.57428329 38.7068313 3.25390625 40.95703125 C2.31243417 42.58199311 1.37102834 44.20699336 0.4296875 45.83203125 C-1.93404916 49.89087621 -4.33101834 53.92854429 -6.74609375 57.95703125 C-10.86643504 56.58358415 -11.35997459 54.62802203 -13.46875 50.875 C-13.81489853 50.26441238 -14.16104706 49.65382477 -14.51768494 49.0247345 C-15.62331479 47.06940459 -16.71591559 45.10712252 -17.80859375 43.14453125 C-18.54800882 41.83352195 -19.28823405 40.52296922 -20.02929688 39.21289062 C-28.9973183 23.31291107 -28.9973183 23.31291107 -27.74609375 12.95703125 C-25.7403301 7.09552777 -21.4869267 3.1869868 -16.265625 0.03515625 C-10.7024084 -2.34538294 -5.61296065 -2.13180725 0 0 Z " fill="#FA9BAE" transform="translate(66.74609375,11.04296875)"/>
<path d="M0 0 C14.19 0 28.38 0 43 0 C45.475 7.425 45.475 7.425 48 15 C49.32 16.65 50.64 18.3 52 20 C52 20.66 52 21.32 52 22 C51.41992188 22.23074219 50.83984375 22.46148437 50.2421875 22.69921875 C49.07042969 23.18841797 49.07042969 23.18841797 47.875 23.6875 C47.10929687 24.00074219 46.34359375 24.31398437 45.5546875 24.63671875 C42.79922872 25.95267556 42.79922872 25.95267556 40.35546875 28.59765625 C36.23658134 32.14564122 31.64682196 31.7398065 26.4375 31.75 C24.47522548 31.7940431 22.5129846 31.83961153 20.55078125 31.88671875 C19.60283691 31.9026709 18.65489258 31.91862305 17.67822266 31.93505859 C12.43597415 32.06217237 7.22197691 32.53691903 2 33 C1.65682264 30.1258896 1.32543403 27.25113316 1 24.375 C0.90460938 23.58609375 0.80921875 22.7971875 0.7109375 21.984375 C-0.11774872 14.52619901 0 7.65525231 0 0 Z " fill="#9BE1CF" transform="translate(79,163)"/>
<path d="M0 0 C1.55516654 2.48050556 2.82630814 4.80473743 4.0625 7.4375 C4.41393066 8.16525635 4.76536133 8.8930127 5.12744141 9.64282227 C7.64723732 14.97270499 9.66044769 20.24898971 11 26 C11.20238281 26.76699219 11.40476563 27.53398437 11.61328125 28.32421875 C12.86279614 33.33077843 13.18746633 37.84467603 13 43 C8.38 43 3.76 43 -1 43 C-1.804375 41.185 -2.60875 39.37 -3.4375 37.5 C-7.68586559 29.08267753 -12.8856406 23.91496971 -21.75 20.5625 C-25.18243051 19.44344736 -28.4347437 18.71305126 -32 18 C-32.33 14.37 -32.66 10.74 -33 7 C-31.91203125 6.75765625 -30.8240625 6.5153125 -29.703125 6.265625 C-21.75519276 4.46203832 -14.05701857 2.53503243 -6.41796875 -0.36328125 C-3.70982884 -1.07641018 -2.59129959 -0.97389837 0 0 Z " fill="#99DECC" transform="translate(188,110)"/>
<path d="M0 0 C-0.33 13.86 -0.66 27.72 -1 42 C-13.64419476 42 -13.64419476 42 -17 40 C-23.80732281 30.40592942 -25.13329803 13.37214489 -27 2 C-24.93958323 1.65402297 -22.87646904 1.32411291 -20.8125 1 C-19.66394531 0.814375 -18.51539062 0.62875 -17.33203125 0.4375 C-11.58209565 -0.14319683 -5.77918404 0 0 0 Z " fill="#99DDCC" transform="translate(110,204)"/>
<path d="M0 0 C1.2544341 3.76330231 0.52398298 5.0388322 -0.75 8.75 C-3.13245511 16.08763083 -4.616278 23.4209772 -6 31 C-10.58654154 32.37683943 -13.77133347 31.50021719 -18.3125 30.1875 C-19.64311586 29.81079745 -20.97384421 29.43449201 -22.3046875 29.05859375 C-23.52414063 28.70925781 -24.74359375 28.35992187 -26 28 C-28.66170148 27.31006888 -31.3292398 26.65406372 -34 26 C-28.15301395 13.22530536 -12.14052998 5.57808134 0 0 Z " fill="#98DCCB" transform="translate(80,75)"/>
<path d="M0 0 C0.24234375 1.00417969 0.4846875 2.00835937 0.734375 3.04296875 C1.0719612 4.42471296 1.41057835 5.80620552 1.75 7.1875 C1.92684326 7.90768311 2.10368652 8.62786621 2.28588867 9.36987305 C3.73054858 15.14914939 5.45777739 20.78010625 7.36328125 26.42578125 C8 29 8 29 7 32 C-6.09445516 25.9757758 -17.12971407 18.65410275 -27 8 C-26 6 -26 6 -22.39453125 4.74609375 C-20.86952286 4.30179997 -19.34202922 3.86597161 -17.8125 3.4375 C-16.67844727 3.10588867 -16.67844727 3.10588867 -15.52148438 2.76757812 C-10.37862844 1.29118149 -5.38557322 0 0 0 Z " fill="#98DDCB" transform="translate(73,208)"/>
<path d="M0 0 C13.17809727 3.56164791 24.93922706 13.00039998 34 23 C34 23.66 34 24.32 34 25 C31.37820532 25.82425332 28.75328393 26.63441324 26.125 27.4375 C25.39796875 27.66759766 24.6709375 27.89769531 23.921875 28.13476562 C18.30495059 29.83462433 12.84890128 30.5968649 7 31 C5.99856118 27.06843948 5.00177656 23.13573137 4.00927734 19.2019043 C3.67103529 17.86401591 3.33152641 16.52644712 2.99072266 15.18920898 C2.50089381 13.26630945 2.01600603 11.34215339 1.53125 9.41796875 C1.23798828 8.26063232 0.94472656 7.1032959 0.64257812 5.91088867 C0 3 0 3 0 0 Z " fill="#99DDCB" transform="translate(146,76)"/>
<path d="M0 0 C4.29 0 8.58 0 13 0 C13.38792378 6.85332014 11.99955127 12.46993393 10 19 C9.57074219 20.44826172 9.57074219 20.44826172 9.1328125 21.92578125 C8.43148463 24.28691842 7.72040658 26.64462813 7 29 C3.08329397 29 1.38851968 27.44485775 -1.76953125 25.2890625 C-4.41508948 23.76010591 -7.08448611 22.89004276 -10 22 C-9.52949219 21.24976563 -9.05898437 20.49953125 -8.57421875 19.7265625 C-4.6225882 13.23050731 -1.84446213 7.37784854 0 0 Z " fill="#98DDCB" transform="translate(188,163)"/>
<path d="M0 0 C2.4375 0.8125 2.4375 0.8125 4.4375 2.8125 C3.86931818 8.38068182 3.86931818 8.38068182 2.4375 9.8125 C-0.5 10 -0.5 10 -3.5625 9.8125 C-5.5625 7.8125 -5.5625 7.8125 -5.875 5.375 C-5.5625 2.8125 -5.5625 2.8125 -4.375 0.9375 C-2.5625 -0.1875 -2.5625 -0.1875 0 0 Z " fill="#110A0C" transform="translate(59.5625,22.1875)"/>
<path d="M0 0 C3.29714793 0.32971479 4.6226839 0.6226839 7 3 C6.43181818 8.56818182 6.43181818 8.56818182 5 10 C2.0625 10.25 2.0625 10.25 -1 10 C-3 7 -3 7 -2.75 4.4375 C-2 2 -2 2 0 0 Z " fill="#080C0B" transform="translate(111,111)"/>
</svg>
