<?xml version="1.0" encoding="UTF-8"?>
<svg version="1.1" xmlns="http://www.w3.org/2000/svg" width="512" height="512">
<path d="M0 0 C0.7513623 0.17160645 1.50272461 0.34321289 2.27685547 0.52001953 C13.39857669 3.14725323 23.73986555 6.99328291 34 12 C34.63534668 12.30808594 35.27069336 12.61617187 35.92529297 12.93359375 C50.70298798 20.19995335 63.1877667 29.59009073 75 41 C75.92554688 41.86238281 76.85109375 42.72476563 77.8046875 43.61328125 C104.89740395 69.51637417 121.25389321 108.52182444 122.203125 145.86328125 C122.73620405 190.05075014 108.903683 230.00662437 78 262 C77.13761719 262.92554688 76.27523438 263.85109375 75.38671875 264.8046875 C50.85591045 290.46209588 13.3941312 307.71686404 -22.13110352 309.12402344 C-37.59479165 309.46910471 -52.87054922 309.56442886 -68 306 C-68.82725586 305.80664062 -69.65451172 305.61328125 -70.50683594 305.4140625 C-94.88446481 299.50433429 -117.15456173 288.63982401 -136 272 C-136.96292969 271.16984375 -137.92585938 270.3396875 -138.91796875 269.484375 C-167.70246479 244.26754798 -186.13729824 208.09787666 -190 170 C-190.23483113 164.54409002 -190.2456665 159.08543268 -190.25 153.625 C-190.25067474 152.86333527 -190.25134949 152.10167053 -190.25204468 151.31692505 C-190.2360684 139.97272424 -189.84429989 129.03060208 -187 118 C-186.82307617 117.29713867 -186.64615234 116.59427734 -186.46386719 115.87011719 C-179.6734284 89.56449679 -167.20069238 66.20119952 -149 46 C-146.4952643 44.74763215 -145.14618088 45.12619429 -142.375 45.375 C-137.012127 45.41397437 -134.19780341 43.84559878 -130.40234375 40.1328125 C-128.35620801 37.02086233 -128.83430403 34.71240024 -129.125 31.12109375 C-129 29 -129 29 -126.4375 26 C-124.99127088 24.95293011 -123.50497394 23.96072236 -122 23 C-120.95328125 22.31164062 -119.9065625 21.62328125 -118.828125 20.9140625 C-84.02161082 -1.29969489 -40.38927005 -9.3430381 0 0 Z " fill="#020203" transform="translate(290,103)"/>
<path d="M0 0 C7.81622598 4.6404791 12.11187163 11.19313731 14.4375 19.9375 C14.85154341 23.77469102 15.19184904 27.42880191 13.4375 30.9375 C14.27796875 31.18113281 15.1184375 31.42476562 15.984375 31.67578125 C19.84474141 33.08629975 23.19564098 34.99735465 26.6875 37.125 C28.20368915 38.03248405 29.72066888 38.93864806 31.23828125 39.84375 C32.06666504 40.33875 32.89504883 40.83375 33.74853516 41.34375 C38.76417865 44.3165229 43.82168227 47.21689472 48.875 50.125 C49.98069336 50.76203857 51.08638672 51.39907715 52.22558594 52.05541992 C54.49774082 53.36450657 56.77004009 54.67334262 59.04248047 55.98193359 C64.5091998 59.13082054 69.97324887 62.28433264 75.4375 65.4375 C77.60415311 66.6875235 79.77081979 67.93752347 81.9375 69.1875 C120.9375 91.6875 120.9375 91.6875 124.19091797 93.56762695 C126.34255816 94.80686686 128.49780728 96.03986325 130.65673828 97.26635742 C135.73878844 100.1635183 140.76163125 103.10852479 145.67034912 106.28970337 C147.97796547 107.77982712 150.30709493 109.23426135 152.63867188 110.68652344 C154.26820299 111.72185564 155.86530599 112.80768051 157.4609375 113.89453125 C160.51347198 115.78269691 162.93208024 117.14696108 166.4375 117.9375 C169.95422035 116.93200017 172.61329191 115.53796317 175.68945312 113.57128906 C181.58159759 110.06824795 188.12465268 110.35955309 194.625 111.9375 C202.3911175 114.66180471 207.3706339 120.1245127 211.52734375 127.04296875 C214.41614492 133.05613856 214.32571448 140.24552413 212.7890625 146.6328125 C210.13283593 154.05662521 205.92723042 158.85708379 199.1875 162.875 C196.4375 163.9375 196.4375 163.9375 193.4375 163.9375 C193.7675 222.6775 194.0975 281.4175 194.4375 341.9375 C197.0775 343.2575 199.7175 344.5775 202.4375 345.9375 C208.40421903 350.25156663 211.68436034 355.84195249 213.4375 362.9375 C214.61013054 371.39978227 213.04855257 379.05415947 207.9296875 385.9765625 C202.81291486 391.56931398 197.35783051 394.52816517 189.80859375 395.31640625 C180.32842894 395.60824846 175.23541658 394.13611105 167.4375 388.9375 C166.04917969 389.75927734 166.04917969 389.75927734 164.6328125 390.59765625 C152.41652682 397.81346919 140.12773913 404.90169796 127.83251953 411.98193359 C122.36580025 415.13082051 116.90172354 418.2842849 111.4375 421.4375 C104.91517561 425.20115365 98.39236237 428.96394623 91.8671875 432.72265625 C81.41543851 438.744973 70.97446112 444.78411958 60.5625 450.875 C50.2856895 456.88643737 39.95781011 462.80575315 29.61181641 468.69702148 C28.4882373 469.33712158 27.3646582 469.97722168 26.20703125 470.63671875 C25.21292236 471.20221436 24.21881348 471.76770996 23.19458008 472.3503418 C21.34444131 473.41540441 19.51323672 474.51399943 17.7019043 475.64379883 C15.4375 476.9375 15.4375 476.9375 13.4375 476.9375 C13.7675 477.5975 14.0975 478.2575 14.4375 478.9375 C15.54917988 487.39355678 12.94809331 495.02412354 7.8125 501.75 C1.82007919 508.02494189 -4.59202991 510.2434188 -13.1875 510.5 C-21.5087188 510.181885 -26.21759258 508.25590377 -32.3125 502.75 C-35.84550981 498.93467205 -38.30276622 495.01484165 -39.5625 489.9375 C-39.44401452 487.7912971 -39.31859801 485.64546941 -39.1875 483.5 C-39.37335036 480.22296511 -39.50874034 477.9332244 -41.97216797 475.60546875 C-46.29358822 472.65984283 -51.07224075 470.53480593 -55.78955078 468.30664062 C-60.69728744 465.88345105 -65.3601658 463.04537726 -70.0625 460.25 C-72.11629121 459.04534562 -74.17099552 457.84224676 -76.2265625 456.640625 C-77.78745605 455.72700195 -77.78745605 455.72700195 -79.37988281 454.79492188 C-84.7214109 451.67752807 -90.07898374 448.58807458 -95.4375 445.5 C-96.51708984 444.87778564 -97.59667969 444.25557129 -98.70898438 443.61450195 C-100.8993252 442.35238483 -103.08975502 441.09042215 -105.28027344 439.82861328 C-110.70909942 436.70069852 -116.13569281 433.56891552 -121.5625 430.4375 C-123.72915583 429.18748121 -125.8958225 427.93748122 -128.0625 426.6875 C-134.5625 422.9375 -134.5625 422.9375 -141.0625 419.1875 C-142.13669189 418.5677832 -143.21088379 417.94806641 -144.31762695 417.30957031 C-146.46723634 416.06939239 -148.61681358 414.82915873 -150.76635742 413.58886719 C-155.83559212 410.6639977 -160.90514936 407.73969167 -165.9758606 404.81738281 C-168.36676597 403.43943062 -170.75748672 402.06115828 -173.14819336 400.68286133 C-174.83233963 399.71209018 -176.51675231 398.74178126 -178.20117188 397.77148438 C-179.22404297 397.18173828 -180.24691406 396.59199219 -181.30078125 395.984375 C-182.19837158 395.46713867 -183.09596191 394.94990234 -184.02075195 394.41699219 C-185.78650902 393.38918623 -187.53187015 392.3258527 -189.25976562 391.2355957 C-191.43044285 389.72625303 -191.43044285 389.72625303 -193.66796875 390.12109375 C-195.86788656 391.01314368 -195.86788656 391.01314368 -198.875 393 C-205.73205631 396.48620433 -214.24307884 396.18062254 -221.5078125 394.08984375 C-228.75148517 390.82243788 -234.27145408 385.41912227 -237.5 378.125 C-239.92151049 370.39130088 -239.25055622 362.64968303 -235.96875 355.30078125 C-232.83292152 350.03084728 -228.32150114 345.25967788 -222.5625 342.9375 C-221.5725 342.9375 -220.5825 342.9375 -219.5625 342.9375 C-219.5625 283.8675 -219.5625 224.7975 -219.5625 163.9375 C-221.5425 163.2775 -223.5225 162.6175 -225.5625 161.9375 C-232.52039655 157.35667843 -235.98116436 151.68150693 -238.5625 143.9375 C-239.44838541 135.20935028 -238.26090183 127.65476741 -232.76171875 120.640625 C-226.57670072 114.05928543 -220.36540501 111.47354917 -211.40234375 110.87109375 C-205.33122526 111.01305938 -200.20236137 112.59293934 -195.50390625 116.4453125 C-193.71339753 117.6048338 -193.71339753 117.6048338 -191.5625 117.9375 C-187.22777535 116.52228918 -183.57504395 114.07010859 -179.75 111.625 C-178.59893714 110.92001299 -177.44590075 110.21823917 -176.29101562 109.51953125 C-173.89237676 108.06492005 -171.50283736 106.59682529 -169.11865234 105.11865234 C-163.67641741 101.76029185 -158.11437202 98.60993794 -152.5625 95.4375 C-150.39526628 94.18848341 -148.22860108 92.93847984 -146.0625 91.6875 C-133.0625 84.1875 -120.0625 76.6875 -107.0625 69.1875 C-105.98959717 68.5685083 -104.91669434 67.9495166 -103.8112793 67.31176758 C-101.64871417 66.0641526 -99.48611661 64.81659384 -97.32348633 63.5690918 C-91.84379629 60.40806551 -86.36470642 57.24600691 -80.88671875 54.08203125 C-79.78642334 53.44765137 -78.68612793 52.81327148 -77.55249023 52.15966797 C-75.37015545 50.89773091 -73.19120318 49.62992408 -71.01586914 48.35595703 C-65.84378419 45.33834631 -60.66204943 42.44664067 -55.296875 39.78515625 C-45.56674455 35.48735301 -45.56674455 35.48735301 -39.22265625 27.65625 C-38.98851594 24.32206969 -38.98851594 24.32206969 -39.34375 21.04296875 C-39.71123019 15.82606252 -37.55969536 12.08691905 -34.5625 7.9375 C-25.3260615 -2.01844367 -12.92369634 -5.97082627 0 0 Z M-37.96875 47.91015625 C-39.09168457 48.55476807 -40.21461914 49.19937988 -41.37158203 49.86352539 C-42.60194103 50.575592 -43.83224558 51.28775272 -45.0625 52 C-46.33295729 52.731409 -47.60363079 53.46244258 -48.87451172 54.19311523 C-52.14443185 56.07445711 -55.41141687 57.96083366 -58.6776123 59.84863281 C-61.54653727 61.5059614 -64.41786991 63.15910385 -67.2890625 64.8125 C-72.64327593 67.89718687 -77.99447991 70.98705239 -83.34472656 74.07861328 C-88.74920649 77.20074607 -94.15600107 80.31886526 -99.5625 83.4375 C-100.63371094 84.05560547 -101.70492187 84.67371094 -102.80859375 85.31054688 C-108.24896075 88.44972374 -113.69012955 91.58749629 -119.1328125 94.72265625 C-127.68146599 99.64811519 -136.22794186 104.5772197 -144.7578125 109.53515625 C-145.76360352 110.11958496 -146.76939453 110.70401367 -147.80566406 111.30615234 C-149.79356656 112.46732241 -151.77738725 113.63551181 -153.75683594 114.81103516 C-158.73089689 117.7584114 -163.72469055 120.5617715 -168.8828125 123.17578125 C-178.46820647 127.55997494 -178.46820647 127.55997494 -185.61474609 134.83496094 C-186.57994779 138.08777935 -186.62065252 141.1725749 -186.5859375 144.546875 C-186.54558193 150.38498071 -189.33328919 153.66747984 -193.26953125 157.67578125 C-196.70044256 160.80770247 -199.08039441 162.14465776 -203.5625 163.9375 C-203.5625 223.0075 -203.5625 282.0775 -203.5625 342.9375 C-200.9225 344.2575 -198.2825 345.5775 -195.5625 346.9375 C-190.62215898 350.84381616 -187.5045287 355.98194532 -185.5625 361.9375 C-185.6050069 364.10535194 -185.68996396 366.27269659 -185.8125 368.4375 C-185.78830465 371.81334753 -185.78830465 371.81334753 -184.5625 374.9375 C-180.25108678 378.66597783 -175.41855392 381.00156592 -170.33203125 383.52099609 C-165.14323451 386.17485705 -160.15440025 389.18363012 -155.125 392.125 C-152.87990265 393.42099846 -150.63379427 394.71524694 -148.38671875 396.0078125 C-146.69361572 396.98282715 -146.69361572 396.98282715 -144.96630859 397.97753906 C-143.28142334 398.94771973 -143.28142334 398.94771973 -141.5625 399.9375 C-137.18699212 402.45745294 -132.81193866 404.97819141 -128.4375 407.5 C-126.81992798 408.43247559 -126.81992798 408.43247559 -125.16967773 409.38378906 C-117.99491198 413.52372005 -110.83746657 417.6924179 -103.6875 421.875 C-94.42387165 427.29298651 -85.11730363 432.63281128 -75.79318237 437.94564819 C-65.32580933 443.91123327 -54.90872511 449.95939485 -44.51171875 456.046875 C-43.6594873 456.5430835 -42.80725586 457.03929199 -41.92919922 457.55053711 C-40.42382323 458.43273651 -38.92463567 459.32564754 -37.43408203 460.23266602 C-34.00036993 462.50933619 -34.00036993 462.50933619 -30.0625 462.375 C-29.2375 461.900625 -28.4125 461.42625 -27.5625 460.9375 C-22.48790826 458.42843115 -18.3304637 457.41730222 -12.625 457.5 C-11.9227832 457.50394775 -11.22056641 457.50789551 -10.49707031 457.51196289 C-4.78032715 457.6706138 -1.32474212 458.91530788 3.4375 461.9375 C5.30259259 462.84138756 5.30259259 462.84138756 7.4375 462.9375 C10.01026955 461.91410985 10.01026955 461.91410985 12.671875 460.24609375 C14.22624268 459.33452515 14.22624268 459.33452515 15.81201172 458.40454102 C16.92592285 457.73479248 18.03983398 457.06504395 19.1875 456.375 C20.36011707 455.6822874 21.53346858 454.99081669 22.70751953 454.30053711 C25.12090452 452.87937906 27.53031281 451.45182563 29.93652344 450.01855469 C35.04239213 446.97908906 40.1782679 443.99121436 45.3125 441 C46.2828418 440.43273193 47.25318359 439.86546387 48.25292969 439.28100586 C56.54567633 434.43770046 64.8824038 429.67320239 73.22595215 424.91827393 C82.34890571 419.71785969 91.43634528 414.45945223 100.5 409.15625 C106.70451581 405.52734884 112.91995408 401.91840586 119.15014648 398.33374023 C121.32768927 397.07767081 123.50174381 395.81553307 125.67211914 394.54711914 C131.17820572 391.33735073 136.71086925 388.2515649 142.37890625 385.3359375 C143.49072266 384.74361328 144.60253906 384.15128906 145.74804688 383.54101562 C147.85779672 382.41961706 149.98764977 381.33496181 152.13867188 380.29492188 C155.05925363 378.71219352 157.21555751 377.41290683 159.4375 374.9375 C160.29023185 371.53188556 160.45505392 368.58110218 160.3659668 365.07666016 C160.50995309 358.75797155 163.89189533 353.80849513 167.8125 349.0625 C170.86912415 346.58808998 174.0070393 344.85759393 177.4375 342.9375 C177.6477098 319.70262285 177.80643368 296.46790239 177.90380955 273.23226738 C177.95022415 262.44358414 178.01350617 251.6554916 178.11645508 240.8671875 C178.20613946 231.46443101 178.26421886 222.06210226 178.28429645 212.65892994 C178.29603391 207.6793982 178.32362867 202.70109015 178.38907051 197.72195053 C178.45017481 193.0348463 178.46900252 188.34946917 178.45546913 183.66200447 C178.45794465 181.942218 178.4758433 180.22237365 178.51034927 178.50293159 C179.03023556 169.48516667 179.03023556 169.48516667 175.46626091 161.65463638 C173.1789928 160.131329 170.93817135 159.05774548 168.4375 157.9375 C164.13490509 154.22663046 161.73741558 149.38535355 160.4375 143.9375 C160.4797157 142.16528143 160.52549876 140.39314544 160.57421875 138.62109375 C160.25874593 134.99556914 159.96653023 133.45624045 157.34130859 130.88208008 C154.30577116 128.94287215 151.22229685 127.29773039 148 125.6875 C146.81737671 125.0583122 145.63706618 124.42476006 144.45898438 123.78710938 C142.0113667 122.46665635 139.55489927 121.16547435 137.09033203 119.87695312 C131.44098952 116.90339907 125.9490953 113.65684451 120.4375 110.4375 C118.27418454 109.18750832 116.11011875 107.93881431 113.9453125 106.69140625 C112.87313477 106.07281738 111.80095703 105.45422852 110.69628906 104.81689453 C107.42050434 102.92769834 104.14394107 101.03985891 100.8671875 99.15234375 C89.43113195 92.56286778 78.01357307 85.94382163 66.62109375 79.27929688 C61.25686318 76.14723302 55.88020114 73.03824966 50.484375 69.9609375 C49.8946994 69.62462311 49.3050238 69.28830872 48.69747925 68.94180298 C45.72392715 67.24691622 42.74874239 65.55495118 39.77197266 63.86572266 C34.10929756 60.64655021 28.48110558 57.38259299 22.9140625 54 C21.90230957 53.38777588 20.89055664 52.77555176 19.84814453 52.14477539 C17.95446268 50.99334948 16.06701573 49.83158478 14.18701172 48.65795898 C13.35186035 48.15079346 12.51670898 47.64362793 11.65625 47.12109375 C10.93373047 46.67306396 10.21121094 46.22503418 9.46679688 45.76342773 C6.98867505 44.75482738 5.90526065 45.00829559 3.4375 45.9375 C2.23647178 46.579475 1.0492051 47.2476862 -0.125 47.9375 C-6.84104631 51.33913385 -13.7302205 51.71454736 -20.9375 49.6875 C-24.43660566 48.4822525 -27.45956105 46.97380369 -30.5625 44.9375 C-33.55889237 44.9375 -35.38249365 46.41913015 -37.96875 47.91015625 Z " fill="#000000" transform="translate(268.5625,2.0625)"/>
<path d="M0 0 C31.05912162 0 31.05912162 0 44.6875 1.5 C46.10599211 1.64577905 47.52461347 1.79030577 48.94335938 1.93359375 C52.29716297 2.27489998 55.64898506 2.63219375 59 3 C58.70465192 4.72336933 58.40414795 6.44585541 58.1015625 8.16796875 C57.85140381 9.60692505 57.85140381 9.60692505 57.59619141 11.07495117 C57.02085747 13.89766855 56.26114467 16.57340796 55.375 19.3125 C54.23311377 23.00752672 53.35114906 26.10689437 54 30 C55.41666667 32.58333333 55.41666667 32.58333333 58 34 C61.60581779 34.41349769 61.60581779 34.41349769 65 33 C67.86148827 27.48352261 69.4530137 21.51114561 71.1875 15.5625 C71.46013672 14.64017578 71.73277344 13.71785156 72.01367188 12.76757812 C72.67958811 10.51280912 73.34159671 8.25697196 74 6 C81.62118622 6.58309247 89.09753688 7.55668761 96.625 8.875 C98.08292969 9.11669922 98.08292969 9.11669922 99.5703125 9.36328125 C105.59907556 10.40859097 111.26156245 11.87286675 117 14 C110.32309881 37.38663298 84.27458116 59.52520278 63.6953125 71.0234375 C55.64114921 75.37578343 47.7981975 79.37892027 39 82 C39.78375 81.01 40.5675 80.02 41.375 79 C44.55214018 74.73835524 47.49364063 70.33962495 50.375 65.875 C50.82794434 65.194375 51.28088867 64.51375 51.74755859 63.8125 C54.32208019 59.76105232 55.73622768 56.95678042 55 52 C53.01677007 49.2087875 51.87013879 48.17402776 48.5 47.5 C45.16119354 48.16776129 44.2509911 49.45249616 42 52 C40.5565122 54.19145185 39.17220284 56.38381161 37.8125 58.625 C29.35265945 72.10814484 18.35742136 83.68495234 3 89 C2.01 89 1.02 89 0 89 C0 59.63 0 30.26 0 0 Z " fill="#C5ECFB" transform="translate(263,307)"/>
<path d="M0 0 C5.36830813 1.06691375 10.73318234 2.14871327 16.09375 3.25390625 C18.2291557 3.69015784 20.3645725 4.12635511 22.5 4.5625 C24.09521484 4.89411133 24.09521484 4.89411133 25.72265625 5.23242188 C31.50004397 6.40562147 37.17507889 7.32960567 43.05664062 7.76928711 C45 8 45 8 47 9 C47.02735618 10.70824133 47.04655506 12.41661405 47.0625 14.125 C47.07410156 15.07632813 47.08570313 16.02765625 47.09765625 17.0078125 C47 20 47 20 46.50219727 22.55932617 C45.84350923 27.07215579 45.85715417 31.48861267 45.8671875 36.04296875 C45.86623077 37.00721268 45.86527405 37.9714566 45.86428833 38.96492004 C45.86360953 41.00143499 45.86544286 43.03795213 45.86962891 45.07446289 C45.87495207 48.1597187 45.86968883 51.24482699 45.86328125 54.33007812 C45.86394265 56.31770865 45.8652251 58.30533908 45.8671875 60.29296875 C45.86516327 61.20169235 45.86313904 62.11041595 45.86105347 63.04667664 C45.88098784 68.61648676 46.20917162 74.08898114 46.77638245 79.63027954 C47.0462874 82.49051693 47.09979591 85.31571529 47.0625 88.1875 C47.05347656 89.10917969 47.04445312 90.03085937 47.03515625 90.98046875 C47.02355469 91.64691406 47.01195312 92.31335938 47 93 C44.8519801 94.07400995 43.32426046 94.29200673 40.94921875 94.578125 C40.11503418 94.68471436 39.28084961 94.79130371 38.42138672 94.90112305 C37.5192041 95.01625244 36.61702148 95.13138184 35.6875 95.25 C26.86059893 96.4280985 18.29636038 98.18647544 9.66674805 100.37402344 C8.83570557 100.58446289 8.00466309 100.79490234 7.1484375 101.01171875 C6.41802246 101.20209717 5.68760742 101.39247559 4.93505859 101.58862305 C3 102 3 102 0 102 C-1.13827817 98.10792575 -2.25805016 94.2107436 -3.375 90.3125 C-3.69210938 89.22904297 -4.00921875 88.14558594 -4.3359375 87.02929688 C-12.60971907 57.98487614 -10.53908316 28.11861943 0 0 Z " fill="#C6ECFB" transform="translate(124,205)"/>
<path d="M0 0 C1.27871767 2.96038204 2.08799995 6.09708397 3 9.1875 C3.39058594 10.43563477 3.39058594 10.43563477 3.7890625 11.70898438 C7.61209937 24.48140301 8.41006008 37.37804174 8.375 50.625 C8.37478851 51.36712738 8.37457703 52.10925476 8.37435913 52.87387085 C8.32507172 70.2597145 5.45311521 84.82130724 -1 101 C-5.28286656 100.20168328 -9.56548466 99.40204903 -13.84790039 98.60131836 C-15.29738098 98.33046954 -16.74692293 98.05994881 -18.1965332 97.78979492 C-28.14684745 95.9351199 -38.07980383 94.01000975 -48 92 C-47.93941406 91.28908203 -47.87882812 90.57816406 -47.81640625 89.84570312 C-45.80123336 65.52411648 -44.0765964 40.55634358 -47.5625 16.30078125 C-47.93681694 13.47669365 -48.08693059 10.84154372 -48 8 C-37.0923692 5.75269918 -26.14939206 3.71505579 -15.1940918 1.71411133 C-14.06398682 1.50681396 -12.93388184 1.2995166 -11.76953125 1.0859375 C-10.24743042 0.8082251 -10.24743042 0.8082251 -8.69458008 0.52490234 C-6.06038118 0.05014933 -6.06038118 0.05014933 -3.7644043 -0.63037109 C-2 -1 -2 -1 0 0 Z " fill="#98E4FA" transform="translate(388,206)"/>
<path d="M0 0 C6.32713668 23.62131028 4.59164052 53.06556729 1 77 C0 78 0 78 -2.6953125 78.1328125 C-3.82710938 78.13023437 -4.95890625 78.12765625 -6.125 78.125 C-7.24132812 78.12757813 -8.35765625 78.13015625 -9.5078125 78.1328125 C-13 78 -13 78 -16.10131836 77.52514648 C-20.69426853 76.90648309 -25.24412086 76.66705849 -29.87109375 76.46484375 C-30.68968872 76.42653442 -31.50828369 76.3882251 -32.35168457 76.34875488 C-35.38012161 76.20800504 -38.40882748 76.07308825 -41.4375 75.9375 C-48.223125 75.628125 -55.00875 75.31875 -62 75 C-62 51.24 -62 27.48 -62 3 C-46.655 2.505 -46.655 2.505 -31 2 C-23.88410544 1.26086711 -23.88410544 1.26086711 -16.78125 0.41015625 C-11.17990678 -0.19742747 -5.62549562 -0.17890269 0 0 Z " fill="#C5ECFB" transform="translate(325,217)"/>
<path d="M0 0 C2.69961387 0.04173006 5.36819741 0.15712431 8.0625 0.3125 C9.94269975 0.41162119 11.82290901 0.5105623 13.703125 0.609375 C14.81107422 0.66931641 15.91902344 0.72925781 17.06054688 0.79101562 C23.46632401 1.13083623 29.8733647 1.44505989 36.28027344 1.76269531 C44.52032694 2.17223011 52.76013805 2.586629 61 3 C61 26.76 61 50.52 61 75 C54.85375 75.28875 48.7075 75.5775 42.375 75.875 C27.87044306 76.57852219 13.44602034 77.49774483 -1 79 C-2.60128689 66.32375335 -3.31967409 53.84973062 -3.26074219 41.07397461 C-3.24996559 38.30365338 -3.26074648 35.53397444 -3.2734375 32.76367188 C-3.2815036 22.07644745 -2.94731216 11.53770455 -1 1 C-0.67 0.67 -0.34 0.34 0 0 Z " fill="#C6EDFC" transform="translate(187,217)"/>
<path d="M0 0 C11.03619801 2.2072396 19.21453722 8.09225247 27 16 C27.62519531 16.62648437 28.25039063 17.25296875 28.89453125 17.8984375 C43.58669858 33.61872489 59.25943924 64.03414455 59 86 C52.27554837 86.59701451 45.55018284 87.18230408 38.82373047 87.75634766 C36.59149895 87.9489611 34.36004557 88.15059117 32.12890625 88.35546875 C21.34077651 89.26658375 10.9653179 89 0 89 C0 59.63 0 30.26 0 0 Z " fill="#C5EBFA" transform="translate(263,116)"/>
<path d="M0 0 C0 29.37 0 58.74 0 89 C-19.65225934 89 -38.63274496 88.7860716 -58 86 C-57.57468857 78.54030143 -56.06726959 71.88257483 -53.6875 64.8125 C-53.34138672 63.78237793 -52.99527344 62.75225586 -52.63867188 61.69091797 C-49.95647879 54.04992164 -46.72166847 46.81376797 -43 39.625 C-42.28976685 38.24598511 -42.28976685 38.24598511 -41.56518555 36.83911133 C-38.04021266 30.29170873 -33.76682178 24.68713682 -29 19 C-28.30600098 18.12166504 -27.61200195 17.24333008 -26.89697266 16.33837891 C-21.15960353 9.26598231 -9.71638732 0 0 0 Z " fill="#C6EDFC" transform="translate(248,116)"/>
<path d="M0 0 C0 29.04 0 58.08 0 88 C-13.85017617 86.26872798 -23.28481222 77.46763818 -32 67 C-42.03767484 53.70042602 -48.83563484 38.26170936 -53.9375 22.5 C-54.23229248 21.59233887 -54.52708496 20.68467773 -54.83081055 19.74951172 C-56.56551864 14.14173916 -57.53014626 8.85235544 -58 3 C-38.63274496 0.2139284 -19.65225934 0 0 0 Z " fill="#C7EDFC" transform="translate(248,307)"/>
<path d="M0 0 C0.99 0.495 0.99 0.495 2 1 C1.62230469 1.36867188 1.24460937 1.73734375 0.85546875 2.1171875 C-17.57412076 21.53947152 -27.79884876 50.17674035 -33 76 C-41.83802322 75.80672315 -50.29062993 74.29587748 -58.9375 72.5625 C-60.02732178 72.34505127 -61.11714355 72.12760254 -62.23999023 71.90356445 C-67.27527913 70.86913971 -72.171872 69.80530003 -77 68 C-72.4827102 57.07446187 -64.86770517 47.57481457 -57.1484375 38.7109375 C-54.74287355 36.16128167 -54.74287355 36.16128167 -54.625 32.875 C-54.87760397 30.11004123 -54.87760397 30.11004123 -55.71875 28.05078125 C-56 26 -56 26 -54.7421875 24.11328125 C-48.40347072 18 -48.40347072 18 -44 18 C-43.67 18.33 -43.34 18.66 -43 19 C-36.32371633 19.83453546 -32.80898084 17.49838065 -27.5 13.9375 C-18.79120725 8.3434387 -9.86695409 3.2889847 0 0 Z " fill="#C5EBFA" transform="translate(208,123)"/>
<path d="M0 0 C0.24492187 1.15371094 0.48984375 2.30742187 0.7421875 3.49609375 C6.48504135 29.07789724 16.83653941 52.39415067 33 73 C33.99 74.485 33.99 74.485 35 76 C1.9318582 66.55195949 -25.21426455 41.1943353 -42.32421875 12.13671875 C-44 9 -44 9 -44 7 C-39.69518346 6.16280374 -35.39016476 5.32665694 -31.08496094 4.49145508 C-29.62234068 4.20755939 -28.15977471 3.92338387 -26.69726562 3.63891602 C-24.58738405 3.22858142 -22.47730518 2.81927474 -20.3671875 2.41015625 C-19.09987793 2.16402588 -17.83256836 1.91789551 -16.52685547 1.66430664 C-10.89790159 0.60405581 -5.74506193 -0.11490124 0 0 Z " fill="#C4EBFA" transform="translate(175,313)"/>
<path d="M0 0 C6.83251185 2.02514031 13.01927912 4.79869038 19.3125 8.125 C20.23458252 8.61145996 21.15666504 9.09791992 22.10668945 9.59912109 C33.32768821 15.64036236 42.74011551 23.26223172 52 32 C52.72574219 32.66128906 53.45148438 33.32257813 54.19921875 34.00390625 C63.37652701 42.68692502 73.06733101 54.24189368 78 66 C78 66.66 78 67.32 78 68 C69.25236407 70.89534429 60.5135003 72.741895 51.4375 74.25 C50.39078125 74.42499023 49.3440625 74.59998047 48.265625 74.78027344 C43.78598796 75.50031859 39.54704249 76.09608227 35 76 C34.70867187 74.89785156 34.41734375 73.79570312 34.1171875 72.66015625 C27.758729 48.95829044 19.40271315 27.05175138 5 7 C4.0677015 5.6927132 3.13540974 4.38542161 2.203125 3.078125 C1.47609375 2.06234375 0.7490625 1.0465625 0 0 Z " fill="#97E3F9" transform="translate(302,123)"/>
<path d="M0 0 C2.98088859 0.42757405 5.95931643 0.86677037 8.9375 1.3125 C9.76830078 1.43044922 10.59910156 1.54839844 11.45507812 1.66992188 C17.21737704 2.54435634 22.53428144 3.9797911 28 6 C21.32309881 29.38663298 -4.72541884 51.52520278 -25.3046875 63.0234375 C-33.35885079 67.37578343 -41.2018025 71.37892027 -50 74 C-49.21625 73.01 -48.4325 72.02 -47.625 71 C-44.41811721 66.72415628 -41.53748543 62.2674975 -38.6875 57.75 C-38.24293457 57.05261719 -37.79836914 56.35523438 -37.34033203 55.63671875 C-36.92251465 54.96769531 -36.50469727 54.29867187 -36.07421875 53.609375 C-35.69869873 53.01092773 -35.32317871 52.41248047 -34.9362793 51.79589844 C-33.9400991 49.88510274 -33.51763113 48.08223935 -33 46 C-31.50390625 44.53515625 -31.50390625 44.53515625 -29.5625 43.0625 C-16.31311873 31.91882397 -7.97734437 15.04746135 0 0 Z " fill="#97E3F9" transform="translate(352,315)"/>
<path d="M0 0 C0.63447422 2.22681972 1.25744424 4.45597759 1.875 6.6875 C2.22304688 7.92886719 2.57109375 9.17023438 2.9296875 10.44921875 C5.47785866 20.63370614 6.3383154 30.71451219 6.25 41.1875 C6.23984863 42.94852051 6.23984863 42.94852051 6.22949219 44.74511719 C6.05218727 59.79129493 4.37701399 73.59409958 0 88 C-6.38855206 88.20281118 -11.8003286 87.4994161 -18 86 C-17.93941406 85.28908203 -17.87882812 84.57816406 -17.81640625 83.84570312 C-15.80123336 59.52411648 -14.0765964 34.55634358 -17.5625 10.30078125 C-17.93681694 7.47669365 -18.08693059 4.84154372 -18 2 C-11.85221129 0.3722167 -6.35987804 -0.20190089 0 0 Z " fill="#C5ECFB" transform="translate(358,212)"/>
<path d="M0 0 C3.05740689 2.37798314 4.95878352 3.8570929 5.5703125 7.83203125 C5.77114758 11.86881639 5.6019295 14.1592612 3.5 17.6875 C0.21105806 20.70236344 -1.62482913 21.58016289 -6.0625 22.25 C-10.3420823 21.66971765 -12.27654331 20.60007829 -15.35546875 17.66015625 C-17.84640341 14.24820373 -18.26831196 10.88909125 -17.75 6.75 C-16.15804049 3.50711951 -14.80395191 1.54954972 -11.9375 -0.625 C-7.65437443 -1.84875016 -4.06770435 -1.84895652 0 0 Z " fill="#CCCAE3" transform="translate(261.75,475.25)"/>
<path d="M0 0 C3.55603214 1.29931943 5.48887171 2.36960845 7.875 5.3125 C9.23833511 8.56935609 9.50047119 10.49670169 9 14 C6.71481238 18.31646551 4.54447291 21.0976625 0 23 C-3.36742108 23.4898067 -5.75992466 23.7490388 -8.74609375 21.9453125 C-11.62147016 19.61467167 -13.74952374 17.78911617 -14.2734375 14.046875 C-14.46329043 9.75327801 -14.4342668 6.90417036 -11.625 3.5 C-7.64773631 -0.28787018 -5.46414033 -0.36427602 0 0 Z " fill="#CDCAE3" transform="translate(60,129)"/>
<path d="M0 0 C3.70390021 2.02666238 5.65363011 3.48044516 8 7 C8.6820176 10.76904461 8.83098707 14.45628171 6.984375 17.88671875 C4.84357352 20.5498242 3.25941392 21.91352869 0 23 C-4.96736392 23.36795288 -8.10647112 23.2446074 -12 20 C-14.59868856 15.96755224 -15.8764191 12.77161508 -15 8 C-10.80278061 1.76193082 -7.72700908 -0.64391742 0 0 Z " fill="#CDCAE3" transform="translate(259,15)"/>
<path d="M0 0 C3.62535141 1.647887 6.20557709 3.41115419 8 7 C8.70522322 11.58395095 8.64997503 14.90897048 6.25 18.9375 C2.92728316 21.98332377 1.13018796 22.85349415 -3.375 23.4375 C-8.23844407 22.85053261 -9.60199844 21.47702486 -13 18 C-15.30996678 14.74504681 -15.40143766 11.93408903 -15 8 C-11.96933505 1.14112669 -7.28818465 -0.78087693 0 0 Z " fill="#CDCAE4" transform="translate(458,359)"/>
<path d="M0 0 C3.55603214 1.29931943 5.48887171 2.36960845 7.875 5.3125 C9.23833511 8.56935609 9.50047119 10.49670169 9 14 C6.71481238 18.31646551 4.54447291 21.0976625 0 23 C-3.36742108 23.4898067 -5.75992466 23.7490388 -8.74609375 21.9453125 C-11.62147016 19.61467167 -13.74952374 17.78911617 -14.2734375 14.046875 C-14.46329043 9.75327801 -14.4342668 6.90417036 -11.625 3.5 C-7.64773631 -0.28787018 -5.46414033 -0.36427602 0 0 Z " fill="#CDCAE3" transform="translate(60,359)"/>
<path d="M0 0 C3.62535141 1.647887 6.20557709 3.41115419 8 7 C8.70522322 11.58395095 8.64997503 14.90897048 6.25 18.9375 C2.92728316 21.98332377 1.13018796 22.85349415 -3.375 23.4375 C-8.23844407 22.85053261 -9.60199844 21.47702486 -13 18 C-15.30996678 14.74504681 -15.40143766 11.93408903 -15 8 C-11.96933505 1.14112669 -7.28818465 -0.78087693 0 0 Z " fill="#CDCAE4" transform="translate(458,129)"/>
<path d="M0 0 C13.39042346 9.94785005 22.73221601 27.85023066 29 43 C27.43883181 43.33951619 25.87598662 43.67132544 24.3125 44 C23.44238281 44.185625 22.57226562 44.37125 21.67578125 44.5625 C19.06287036 44.98972047 16.64186962 45.07616201 14 45 C13.70867187 43.89785156 13.41734375 42.79570312 13.1171875 41.66015625 C10.95696584 33.61694882 8.65829493 25.66455254 5.875 17.8125 C5.63378418 17.13131104 5.39256836 16.45012207 5.14404297 15.74829102 C3.97473001 12.50930211 2.72498833 9.34368357 1.3203125 6.19921875 C0 3 0 3 0 0 Z " fill="#C4EBFA" transform="translate(323,154)"/>
</svg>
