<?xml version="1.0" encoding="UTF-8"?>
<svg version="1.1" xmlns="http://www.w3.org/2000/svg" width="512" height="512">
<path d="M0 0 C1.01790619 0.00215515 2.03581238 0.0043103 3.08456421 0.00653076 C17.69363523 0.05620146 32.02575853 0.30709809 46.375 3.3125 C47.34985352 3.51117676 48.32470703 3.70985352 49.32910156 3.91455078 C97.7109774 14.03517194 141.69928269 35.9516877 177.375 70.3125 C178.3640332 71.26068604 178.3640332 71.26068604 179.37304688 72.22802734 C188.86130305 81.37247479 197.6012044 90.66984009 205.375 101.3125 C206.23306152 102.46355017 207.09113451 103.61459177 207.94921875 104.765625 C213.98736829 112.95680614 219.34595521 121.47054105 224.375 130.3125 C224.73948242 130.94430176 225.10396484 131.57610352 225.47949219 132.22705078 C247.08534998 169.97532572 256.85198095 212.74189997 256.6875 255.9375 C256.68534485 256.95540619 256.6831897 257.97331238 256.68096924 259.02206421 C256.63129854 273.63113523 256.38040191 287.96325853 253.375 302.3125 C253.07698486 303.77478027 253.07698486 303.77478027 252.77294922 305.26660156 C242.65232806 353.6484774 220.7358123 397.63678269 186.375 433.3125 C185.74287598 433.97185547 185.11075195 434.63121094 184.45947266 435.31054688 C175.31502521 444.79880305 166.01765991 453.5387044 155.375 461.3125 C154.22394983 462.17056152 153.07290823 463.02863451 151.921875 463.88671875 C143.73224019 469.92427396 135.22961724 475.30707302 126.375 480.3125 C125.66778809 480.7146875 124.96057617 481.116875 124.23193359 481.53125 C101.09654164 494.5566741 75.92537591 503.30551461 49.9375 508.625 C49.21860596 508.77235596 48.49971191 508.91971191 47.7590332 509.0715332 C33.08339502 511.86090125 18.55831162 512.66142619 3.64770508 512.62817383 C0.70811513 512.6250221 -2.2304558 512.64854926 -5.16992188 512.67382812 C-18.54306192 512.71848737 -31.43916711 511.51301542 -44.625 509.3125 C-46.33055054 509.03031616 -46.33055054 509.03031616 -48.07055664 508.74243164 C-91.33802759 500.97044532 -132.38793216 480.98345309 -165.625 452.3125 C-166.37007813 451.67828125 -167.11515625 451.0440625 -167.8828125 450.390625 C-181.38779833 438.57948485 -194.05918743 425.82889772 -204.625 411.3125 C-205.48149066 410.16255169 -206.33826433 409.01281411 -207.1953125 407.86328125 C-213.23534209 399.67315742 -218.61867614 391.16870382 -223.625 382.3125 C-224.0271875 381.60528809 -224.429375 380.89807617 -224.84375 380.16943359 C-237.8691741 357.03404164 -246.61801461 331.86287591 -251.9375 305.875 C-252.08485596 305.15610596 -252.23221191 304.43721191 -252.3840332 303.6965332 C-255.35789088 288.05024391 -255.99800362 272.57681954 -255.9375 256.6875 C-255.93534485 255.66959381 -255.9331897 254.65168762 -255.93096924 253.60293579 C-255.88129854 238.99386477 -255.63040191 224.66174147 -252.625 210.3125 C-252.42632324 209.33764648 -252.22764648 208.36279297 -252.02294922 207.35839844 C-241.90232806 158.9765226 -219.9858123 114.98821731 -185.625 79.3125 C-184.99287598 78.65314453 -184.36075195 77.99378906 -183.70947266 77.31445312 C-174.56502521 67.82619695 -165.26765991 59.0862956 -154.625 51.3125 C-153.47394983 50.45443848 -152.32290823 49.59636549 -151.171875 48.73828125 C-142.98224019 42.70072604 -134.47961724 37.31792698 -125.625 32.3125 C-124.91778809 31.9103125 -124.21057617 31.508125 -123.48193359 31.09375 C-100.34654164 18.0683259 -75.17537591 9.31948539 -49.1875 4 C-48.46860596 3.85264404 -47.74971191 3.70528809 -47.0090332 3.5534668 C-31.36274391 0.57960912 -15.88931954 -0.06050362 0 0 Z " fill="#898EC6" transform="translate(255.625,-0.3125)"/>
<path d="M0 0 C15.71503408 13.43490111 26.35096894 31.1137416 29.375 51.75 C29.62453762 55.94366069 29.60945062 60.1204678 29.5703125 64.3203125 C29.5674826 65.48255341 29.56465271 66.64479431 29.56173706 67.84225464 C29.55062659 71.51994537 29.525539 75.19738405 29.5 78.875 C29.4899584 81.38280896 29.48083462 83.89062177 29.47265625 86.3984375 C29.45071722 92.51570963 29.41733165 98.6328368 29.375 104.75 C30.60476563 104.70359375 31.83453125 104.6571875 33.1015625 104.609375 C34.7343506 104.57183964 36.36716511 104.53544138 38 104.5 C38.80824219 104.46648437 39.61648438 104.43296875 40.44921875 104.3984375 C45.93300755 104.3092702 49.03986302 105.05761203 53.375 108.75 C54.84235655 111.6847131 54.51118236 114.28461073 54.52217102 117.56257629 C54.52584771 118.27129543 54.5295244 118.98001456 54.5333125 119.71021003 C54.54436971 122.09693436 54.5481966 124.48361519 54.55200195 126.87036133 C54.55826503 128.57680907 54.56491169 130.28325545 54.57191467 131.98970032 C54.58933803 136.63439282 54.59987992 141.27907502 54.6081202 145.92379212 C54.61326719 148.82410693 54.61934303 151.72441852 54.62563133 154.62473106 C54.64468654 163.69470228 54.65891737 172.76466533 54.6672433 181.83465272 C54.67702005 192.31278187 54.70334959 202.79070001 54.74374419 213.26875478 C54.77387776 221.36222637 54.78870952 229.45563738 54.79202431 237.549164 C54.79437783 242.38566768 54.80337731 247.22194603 54.82848549 252.05838966 C54.85172324 256.60810233 54.85601685 261.15744061 54.84572411 265.70719719 C54.8452276 267.37733326 54.8515819 269.04748748 54.86528015 270.71756744 C54.88293577 272.99765343 54.87592551 275.27638655 54.86274719 277.55647278 C54.86513555 278.83240201 54.8675239 280.10833124 54.86998463 281.422925 C54.28582739 285.34938013 53.18769069 286.99482919 50.375 289.75 C46.72439021 290.96686993 43.37001483 290.89809996 39.56900024 290.89717102 C38.76550498 290.90084771 37.96200972 290.9045244 37.13416612 290.9083125 C34.43269938 290.91935534 31.7312711 290.92319416 29.02978516 290.92700195 C27.09659197 290.93326603 25.1634 290.93991278 23.23020935 290.94691467 C17.9719587 290.96432664 12.71371715 290.97487646 7.45544481 290.9831202 C4.17203011 290.98826876 0.88861824 290.99434448 -2.39479446 291.00063133 C-12.6629149 291.01968189 -22.93102813 291.03391468 -33.19916284 291.0422433 C-45.06167323 291.05202354 -56.92399741 291.07836419 -68.78644216 291.11874419 C-77.94998854 291.1488697 -87.11348141 291.16370869 -96.27707636 291.16702431 C-101.75295113 291.16937839 -107.22862694 291.17838559 -112.7044487 291.20348549 C-117.85414894 291.22670957 -123.0035184 291.23102228 -128.15325737 291.22072411 C-130.04431316 291.22022729 -131.93538492 291.22659035 -133.82639122 291.24028015 C-136.40633791 291.25791412 -138.98508644 291.25093539 -141.56503296 291.23774719 C-142.68989233 291.25420106 -142.68989233 291.25420106 -143.83747613 291.27098733 C-148.7100431 291.21076996 -151.20906336 290.22527679 -154.625 286.75 C-156.09235655 283.8152869 -155.76118236 281.21538927 -155.77217102 277.93742371 C-155.77584771 277.22870457 -155.7795244 276.51998544 -155.7833125 275.78978997 C-155.79436971 273.40306564 -155.7981966 271.01638481 -155.80200195 268.62963867 C-155.80826503 266.92319093 -155.81491169 265.21674455 -155.82191467 263.51029968 C-155.83933803 258.86560718 -155.84987992 254.22092498 -155.8581202 249.57620788 C-155.86326719 246.67589307 -155.86934303 243.77558148 -155.87563133 240.87526894 C-155.89468654 231.80529772 -155.90891737 222.73533467 -155.9172433 213.66534728 C-155.92702005 203.18721813 -155.95334959 192.70929999 -155.99374419 182.23124522 C-156.02387776 174.13777363 -156.03870952 166.04436262 -156.04202431 157.950836 C-156.04437783 153.11433232 -156.05337731 148.27805397 -156.07848549 143.44161034 C-156.10172324 138.89189767 -156.10601685 134.34255939 -156.09572411 129.79280281 C-156.0952276 128.12266674 -156.1015819 126.45251252 -156.11528015 124.78243256 C-156.13293577 122.50234657 -156.12592551 120.22361345 -156.11274719 117.94352722 C-156.11632972 116.02963337 -156.11632972 116.02963337 -156.11998463 114.077075 C-155.53850656 110.16862809 -154.3789344 108.5281125 -151.625 105.75 C-149.27647472 104.57573736 -147.88725935 104.63491827 -145.2734375 104.65234375 C-144.42265625 104.65556641 -143.571875 104.65878906 -142.6953125 104.66210938 C-141.80585938 104.67048828 -140.91640625 104.67886719 -140 104.6875 C-139.1028125 104.69201172 -138.205625 104.69652344 -137.28125 104.70117188 C-135.06243352 104.71297409 -132.84374982 104.72943845 -130.625 104.75 C-130.63388245 104.13629044 -130.64276489 103.52258087 -130.6519165 102.89027405 C-130.74144262 96.41595927 -130.80116346 89.94182441 -130.84472656 83.46704102 C-130.86465733 81.06104371 -130.89181193 78.65509365 -130.92675781 76.24926758 C-131.1654794 59.37375765 -131.25550858 42.66259819 -122.9375 27.4375 C-122.59501221 26.7863623 -122.25252441 26.13522461 -121.8996582 25.46435547 C-113.07530195 9.18091319 -100.87834793 -1.87058259 -84.625 -10.25 C-83.47257812 -10.88228516 -83.47257812 -10.88228516 -82.296875 -11.52734375 C-56.55271872 -24.5468121 -21.68443228 -17.08288146 0 0 Z " fill="#898EC6" transform="translate(306.625,119.25)"/>
<path d="M0 0 C0.81984375 0.56203125 1.6396875 1.1240625 2.484375 1.703125 C18.87247264 13.81606674 25.87043258 30.76412218 31 50 C31 67.16 31 84.32 31 102 C-16.85 102 -64.7 102 -114 102 C-114 30.38586156 -114 30.38586156 -94 8 C-68.71126169 -17.01847698 -29.28309417 -20.36241647 0 0 Z " fill="#898EC6" transform="translate(298,122)"/>
<path d="M0 0 C15.71503408 13.43490111 26.35096894 31.1137416 29.375 51.75 C29.62453762 55.94366069 29.60945062 60.1204678 29.5703125 64.3203125 C29.5674826 65.48255341 29.56465271 66.64479431 29.56173706 67.84225464 C29.55062659 71.51994537 29.525539 75.19738405 29.5 78.875 C29.4899584 81.38280896 29.48083462 83.89062177 29.47265625 86.3984375 C29.45071722 92.51570963 29.41733165 98.6328368 29.375 104.75 C30.60476563 104.70359375 31.83453125 104.6571875 33.1015625 104.609375 C34.7343506 104.57183964 36.36716511 104.53544138 38 104.5 C38.80824219 104.46648437 39.61648438 104.43296875 40.44921875 104.3984375 C45.93300755 104.3092702 49.03986302 105.05761203 53.375 108.75 C54.84235655 111.6847131 54.51118236 114.28461073 54.52217102 117.56257629 C54.52584771 118.27129543 54.5295244 118.98001456 54.5333125 119.71021003 C54.54436971 122.09693436 54.5481966 124.48361519 54.55200195 126.87036133 C54.55826503 128.57680907 54.56491169 130.28325545 54.57191467 131.98970032 C54.58933803 136.63439282 54.59987992 141.27907502 54.6081202 145.92379212 C54.61326719 148.82410693 54.61934303 151.72441852 54.62563133 154.62473106 C54.64468654 163.69470228 54.65891737 172.76466533 54.6672433 181.83465272 C54.67702005 192.31278187 54.70334959 202.79070001 54.74374419 213.26875478 C54.77387776 221.36222637 54.78870952 229.45563738 54.79202431 237.549164 C54.79437783 242.38566768 54.80337731 247.22194603 54.82848549 252.05838966 C54.85172324 256.60810233 54.85601685 261.15744061 54.84572411 265.70719719 C54.8452276 267.37733326 54.8515819 269.04748748 54.86528015 270.71756744 C54.88293577 272.99765343 54.87592551 275.27638655 54.86274719 277.55647278 C54.86513555 278.83240201 54.8675239 280.10833124 54.86998463 281.422925 C54.28582739 285.34938013 53.18769069 286.99482919 50.375 289.75 C46.72439021 290.96686993 43.37001483 290.89809996 39.56900024 290.89717102 C38.76550498 290.90084771 37.96200972 290.9045244 37.13416612 290.9083125 C34.43269938 290.91935534 31.7312711 290.92319416 29.02978516 290.92700195 C27.09659197 290.93326603 25.1634 290.93991278 23.23020935 290.94691467 C17.9719587 290.96432664 12.71371715 290.97487646 7.45544481 290.9831202 C4.17203011 290.98826876 0.88861824 290.99434448 -2.39479446 291.00063133 C-12.6629149 291.01968189 -22.93102813 291.03391468 -33.19916284 291.0422433 C-45.06167323 291.05202354 -56.92399741 291.07836419 -68.78644216 291.11874419 C-77.94998854 291.1488697 -87.11348141 291.16370869 -96.27707636 291.16702431 C-101.75295113 291.16937839 -107.22862694 291.17838559 -112.7044487 291.20348549 C-117.85414894 291.22670957 -123.0035184 291.23102228 -128.15325737 291.22072411 C-130.04431316 291.22022729 -131.93538492 291.22659035 -133.82639122 291.24028015 C-136.40633791 291.25791412 -138.98508644 291.25093539 -141.56503296 291.23774719 C-142.68989233 291.25420106 -142.68989233 291.25420106 -143.83747613 291.27098733 C-148.7100431 291.21076996 -151.20906336 290.22527679 -154.625 286.75 C-156.09235655 283.8152869 -155.76118236 281.21538927 -155.77217102 277.93742371 C-155.77584771 277.22870457 -155.7795244 276.51998544 -155.7833125 275.78978997 C-155.79436971 273.40306564 -155.7981966 271.01638481 -155.80200195 268.62963867 C-155.80826503 266.92319093 -155.81491169 265.21674455 -155.82191467 263.51029968 C-155.83933803 258.86560718 -155.84987992 254.22092498 -155.8581202 249.57620788 C-155.86326719 246.67589307 -155.86934303 243.77558148 -155.87563133 240.87526894 C-155.89468654 231.80529772 -155.90891737 222.73533467 -155.9172433 213.66534728 C-155.92702005 203.18721813 -155.95334959 192.70929999 -155.99374419 182.23124522 C-156.02387776 174.13777363 -156.03870952 166.04436262 -156.04202431 157.950836 C-156.04437783 153.11433232 -156.05337731 148.27805397 -156.07848549 143.44161034 C-156.10172324 138.89189767 -156.10601685 134.34255939 -156.09572411 129.79280281 C-156.0952276 128.12266674 -156.1015819 126.45251252 -156.11528015 124.78243256 C-156.13293577 122.50234657 -156.12592551 120.22361345 -156.11274719 117.94352722 C-156.11632972 116.02963337 -156.11632972 116.02963337 -156.11998463 114.077075 C-155.53850656 110.16862809 -154.3789344 108.5281125 -151.625 105.75 C-149.27647472 104.57573736 -147.88725935 104.63491827 -145.2734375 104.65234375 C-144.42265625 104.65556641 -143.571875 104.65878906 -142.6953125 104.66210938 C-141.80585938 104.67048828 -140.91640625 104.67886719 -140 104.6875 C-139.1028125 104.69201172 -138.205625 104.69652344 -137.28125 104.70117188 C-135.06243352 104.71297409 -132.84374982 104.72943845 -130.625 104.75 C-130.63388245 104.13629044 -130.64276489 103.52258087 -130.6519165 102.89027405 C-130.74144262 96.41595927 -130.80116346 89.94182441 -130.84472656 83.46704102 C-130.86465733 81.06104371 -130.89181193 78.65509365 -130.92675781 76.24926758 C-131.1654794 59.37375765 -131.25550858 42.66259819 -122.9375 27.4375 C-122.59501221 26.7863623 -122.25252441 26.13522461 -121.8996582 25.46435547 C-113.07530195 9.18091319 -100.87834793 -1.87058259 -84.625 -10.25 C-83.47257812 -10.88228516 -83.47257812 -10.88228516 -82.296875 -11.52734375 C-56.55271872 -24.5468121 -21.68443228 -17.08288146 0 0 Z M-106.05957031 14.38427734 C-128.04704153 41.1984556 -122.625 68.7921177 -122.625 104.75 C-74.775 104.75 -26.925 104.75 22.375 104.75 C24.74938345 65.77947235 24.74938345 65.77947235 14.75 29.5625 C14.23904785 28.57334595 14.23904785 28.57334595 13.71777344 27.56420898 C4.23452959 9.93143582 -12.07172731 -2.08653264 -31 -8.125 C-58.07497582 -15.90290214 -87.6121594 -6.63120405 -106.05957031 14.38427734 Z M-148.625 112.75 C-148.71258003 114.74964982 -148.73196576 116.7523611 -148.72265625 118.75390625 C-148.72015869 119.84775635 -148.71766113 120.94160645 -148.71508789 122.06860352 C-148.70598389 123.46908936 -148.69687988 124.8695752 -148.6875 126.3125 C-148.666875 130.746875 -148.64625 135.18125 -148.625 139.75 C-139.055 140.08 -129.485 140.41 -119.625 140.75 C-119.295 142.4 -118.965 144.05 -118.625 145.75 C-128.525 146.08 -138.425 146.41 -148.625 146.75 C-148.625 156.32 -148.625 165.89 -148.625 175.75 C-139.055 176.08 -129.485 176.41 -119.625 176.75 C-119.295 178.4 -118.965 180.05 -118.625 181.75 C-120.48465075 183.60965075 -123.57389119 182.99087549 -126.06640625 183.06640625 C-127.37158203 183.10830078 -128.67675781 183.15019531 -130.02148438 183.19335938 C-131.4101533 183.23317608 -132.79882522 183.27288825 -134.1875 183.3125 C-135.58009183 183.35567989 -136.97267028 183.399294 -138.36523438 183.44335938 C-141.78502549 183.54985806 -145.20499896 183.65047056 -148.625 183.75 C-148.625 192.99 -148.625 202.23 -148.625 211.75 C-139.055 212.08 -129.485 212.41 -119.625 212.75 C-119.295 214.4 -118.965 216.05 -118.625 217.75 C-120.48465075 219.60965075 -123.57389119 218.99087549 -126.06640625 219.06640625 C-127.24146729 219.10451416 -128.41652832 219.14262207 -129.62719727 219.18188477 C-131.13209717 219.22498779 -132.63699707 219.26809082 -134.1875 219.3125 C-141.3340625 219.5290625 -141.3340625 219.5290625 -148.625 219.75 C-148.625 229.32 -148.625 238.89 -148.625 248.75 C-138.725 249.08 -128.825 249.41 -118.625 249.75 C-118.625 251.4 -118.625 253.05 -118.625 254.75 C-128.525 255.08 -138.425 255.41 -148.625 255.75 C-148.645625 260.184375 -148.66625 264.61875 -148.6875 269.1875 C-148.696604 270.58798584 -148.70570801 271.98847168 -148.71508789 273.43139648 C-148.71758545 274.52524658 -148.72008301 275.61909668 -148.72265625 276.74609375 C-148.72789307 277.87200928 -148.73312988 278.9979248 -148.73852539 280.15795898 C-148.92045448 282.67970871 -148.92045448 282.67970871 -147.625 283.75 C-145.12316166 283.84994659 -142.64886747 283.8844141 -140.14648438 283.87698364 C-139.35412636 283.87854363 -138.56176834 283.88010362 -137.74539948 283.88171089 C-135.06983116 283.8857241 -132.39431882 283.88253001 -129.71875 283.87939453 C-127.80891893 283.88074843 -125.89908812 283.8825283 -123.98925781 283.88470459 C-118.78692999 283.88928028 -113.58462189 283.88748881 -108.3822937 283.8843255 C-102.95082545 283.8818026 -97.51935894 283.88413924 -92.08789062 283.88571167 C-82.96484065 283.88753357 -73.84179875 283.88512652 -64.71875 283.88037109 C-54.15495404 283.87492844 -43.59117738 283.87669108 -33.0273819 283.8821975 C-23.97519007 283.88672805 -14.92300406 283.88737946 -5.87081146 283.88475883 C-0.4565957 283.88319573 4.95761098 283.88300318 10.37182617 283.88629532 C15.46066191 283.88917319 20.54947264 283.8871999 25.63830566 283.88140106 C27.51167764 283.88007301 29.38505169 283.88046834 31.25842285 283.88266373 C33.80447227 283.88537347 36.35044023 283.88199628 38.89648438 283.87698364 C39.64773338 283.87921436 40.39898239 283.88144509 41.17299652 283.88374341 C44.56068461 284.17200561 44.56068461 284.17200561 47.375 282.75 C47.46258003 280.75035018 47.48196576 278.7476389 47.47265625 276.74609375 C47.46890991 275.1053186 47.46890991 275.1053186 47.46508789 273.43139648 C47.45598389 272.03091064 47.44687988 270.6304248 47.4375 269.1875 C47.4065625 262.5359375 47.4065625 262.5359375 47.375 255.75 C37.475 255.42 27.575 255.09 17.375 254.75 C17.375 253.1 17.375 251.45 17.375 249.75 C27.275 249.42 37.175 249.09 47.375 248.75 C47.375 239.18 47.375 229.61 47.375 219.75 C37.805 219.42 28.235 219.09 18.375 218.75 C18.045 217.1 17.715 215.45 17.375 213.75 C19.23465075 211.89034925 22.32389119 212.50912451 24.81640625 212.43359375 C25.99146729 212.39548584 27.16652832 212.35737793 28.37719727 212.31811523 C29.88209717 212.27501221 31.38699707 212.23190918 32.9375 212.1875 C37.701875 212.043125 42.46625 211.89875 47.375 211.75 C47.375 202.18 47.375 192.61 47.375 182.75 C32.525 182.255 32.525 182.255 17.375 181.75 C17.705 180.1 18.035 178.45 18.375 176.75 C27.945 176.42 37.515 176.09 47.375 175.75 C47.375 166.18 47.375 156.61 47.375 146.75 C32.525 146.255 32.525 146.255 17.375 145.75 C17.705 144.1 18.035 142.45 18.375 140.75 C27.945 140.42 37.515 140.09 47.375 139.75 C47.395625 135.315625 47.41625 130.88125 47.4375 126.3125 C47.446604 124.91201416 47.45570801 123.51152832 47.46508789 122.06860352 C47.46758545 120.97475342 47.47008301 119.88090332 47.47265625 118.75390625 C47.47789307 117.62799072 47.48312988 116.5020752 47.48852539 115.34204102 C47.67045448 112.82029129 47.67045448 112.82029129 46.375 111.75 C43.87316166 111.65005341 41.39886747 111.6155859 38.89648438 111.62301636 C37.70794735 111.62067637 37.70794735 111.62067637 36.49539948 111.61828911 C33.81983116 111.6142759 31.14431882 111.61746999 28.46875 111.62060547 C26.55891893 111.61925157 24.64908812 111.6174717 22.73925781 111.61529541 C17.53692999 111.61071972 12.33462189 111.61251119 7.1322937 111.6156745 C1.70082545 111.6181974 -3.73064106 111.61586076 -9.16210938 111.61428833 C-18.28515935 111.61246643 -27.40820125 111.61487348 -36.53125 111.61962891 C-47.09504596 111.62507156 -57.65882262 111.62330892 -68.2226181 111.6178025 C-77.27480993 111.61327195 -86.32699594 111.61262054 -95.37918854 111.61524117 C-100.7934043 111.61680427 -106.20761098 111.61699682 -111.62182617 111.61370468 C-116.71066191 111.61082681 -121.79947264 111.6128001 -126.88830566 111.61859894 C-128.76167764 111.61992699 -130.63505169 111.61953166 -132.50842285 111.61733627 C-135.05447227 111.61462653 -137.60044023 111.61800372 -140.14648438 111.62301636 C-141.27335789 111.61967027 -141.27335789 111.61967027 -142.42299652 111.61625659 C-145.81068461 111.32799439 -145.81068461 111.32799439 -148.625 112.75 Z " fill="#FCFCFD" transform="translate(306.625,119.25)"/>
<path d="M0 0 C0.7115625 -0.01546875 1.423125 -0.0309375 2.15625 -0.046875 C5.54685557 -0.02157197 7.64455058 0.25322301 10.453125 2.203125 C12.25304351 4.87573127 12.58170803 6.55245251 12.75 9.75 C12.80671875 10.64203125 12.8634375 11.5340625 12.921875 12.453125 C12.94765625 13.12859375 12.9734375 13.8040625 13 14.5 C16.32218282 14.12032196 17.84143223 13.63417273 20.4375 11.4375 C23.68426429 8.98262944 24.99683168 8.94901581 29 9.5 C31.26797688 11.16397259 32.96778488 12.62449718 34.875 14.625 C35.37257813 15.099375 35.87015625 15.57375 36.3828125 16.0625 C38.80256662 18.52214017 39.94517773 20.16600589 40.5078125 23.59375 C39.94133525 26.83574287 39.08274409 28.35835089 37 30.875 C36.443125 31.56335938 35.88625 32.25171875 35.3125 32.9609375 C34.879375 33.46882813 34.44625 33.97671875 34 34.5 C34.33 35.16 34.66 35.82 35 36.5 C37.4887744 36.81733007 39.95019108 36.87947445 42.45703125 36.9609375 C45.88653263 37.68792858 47.00072962 38.61775666 49 41.5 C49.40100915 44.33065284 49.56122899 46.68346659 49.5 49.5 C49.52320313 50.56734375 49.52320313 50.56734375 49.546875 51.65625 C49.52150132 55.05632341 49.24185764 57.15101821 47.2890625 59.96875 C43.93965415 62.20930985 41.16880315 61.98464329 37.2421875 62.03125 C36.50226563 62.1859375 35.76234375 62.340625 35 62.5 C33.6412418 64.44464857 33.6412418 64.44464857 33 66.5 C33.598125 66.7475 34.19625 66.995 34.8125 67.25 C37.41320743 68.73611853 38.54416577 69.87949839 40 72.5 C40.625 75.25 40.625 75.25 40 78.5 C36.99392413 82.82842072 33.39979925 86.58149589 29 89.5 C26.0625 90 26.0625 90 23 89.5 C20.3125 87.0625 20.3125 87.0625 18 84.5 C16.515 84.005 16.515 84.005 15 83.5 C14.01 83.995 14.01 83.995 13 84.5 C12.7229783 86.69800827 12.6850125 88.86404234 12.63671875 91.078125 C11.67321971 94.74296797 9.98216835 96.21764716 7 98.5 C3.37109375 99.1640625 3.37109375 99.1640625 -0.5625 99.125 C-1.86316406 99.13789063 -3.16382813 99.15078125 -4.50390625 99.1640625 C-8 98.5 -8 98.5 -10.41796875 96.26171875 C-11.99760744 93.50417664 -12.56279114 91.82324843 -12.75 88.6875 C-12.80671875 87.89730469 -12.8634375 87.10710937 -12.921875 86.29296875 C-12.96054688 85.40544922 -12.96054688 85.40544922 -13 84.5 C-14.32 84.17 -15.64 83.84 -17 83.5 C-17.61875 84.304375 -18.2375 85.10875 -18.875 85.9375 C-21.25511736 88.80764153 -22.03924186 89.31699845 -25.625 90 C-31.40079564 89.14432657 -35.0764839 84.81526194 -38.70703125 80.4453125 C-40.61064753 77.58126143 -40.53979637 75.87372729 -40 72.5 C-38.53960734 70.12010085 -37.00593378 68.50593378 -35 66.5 C-34.34 66.5 -33.68 66.5 -33 66.5 C-33.6412418 64.44464857 -33.6412418 64.44464857 -35 62.5 C-37.28998397 61.94598049 -37.28998397 61.94598049 -39.875 62 C-43.07373661 61.96180613 -44.60672294 61.76307954 -47.2890625 59.96875 C-49.64936884 56.56301117 -49.58686316 53.49570524 -49.5 49.5 C-49.51546875 48.7884375 -49.5309375 48.076875 -49.546875 47.34375 C-49.52157197 43.95314443 -49.24677699 41.85544942 -47.296875 39.046875 C-44.62426873 37.24695649 -42.94754749 36.91829197 -39.75 36.75 C-38.41195312 36.66492188 -38.41195312 36.66492188 -37.046875 36.578125 C-36.37140625 36.55234375 -35.6959375 36.5265625 -35 36.5 C-34.67 35.51 -34.34 34.52 -34 33.5 C-35.39514773 31.64727971 -36.99499389 30.13131576 -38.65234375 28.51171875 C-40.60226628 25.60096483 -40.56143516 23.94146897 -40 20.5 C-38.33602741 18.23202312 -36.87550282 16.53221512 -34.875 14.625 C-34.400625 14.12742187 -33.92625 13.62984375 -33.4375 13.1171875 C-30.9342055 10.65448697 -29.32692889 9.54911986 -25.828125 9.0234375 C-22.90081707 9.51671315 -21.89842012 9.91876787 -19.875 12 C-17.13191926 14.93745248 -17.13191926 14.93745248 -13 14.5 C-12.96132812 13.48679687 -12.96132812 13.48679687 -12.921875 12.453125 C-12.83679688 11.11507813 -12.83679688 11.11507813 -12.75 9.75 C-12.70359375 8.86828125 -12.6571875 7.9865625 -12.609375 7.078125 C-10.99458434 0.24631837 -6.20368034 -0.13486262 0 0 Z " fill="#8C91C8" transform="translate(256,267.5)"/>
<path d="M0 0 C0.7115625 -0.01546875 1.423125 -0.0309375 2.15625 -0.046875 C5.54685557 -0.02157197 7.64455058 0.25322301 10.453125 2.203125 C12.25304351 4.87573127 12.58170803 6.55245251 12.75 9.75 C12.80671875 10.64203125 12.8634375 11.5340625 12.921875 12.453125 C12.94765625 13.12859375 12.9734375 13.8040625 13 14.5 C16.32218282 14.12032196 17.84143223 13.63417273 20.4375 11.4375 C23.68426429 8.98262944 24.99683168 8.94901581 29 9.5 C31.26797688 11.16397259 32.96778488 12.62449718 34.875 14.625 C35.37257813 15.099375 35.87015625 15.57375 36.3828125 16.0625 C38.80256662 18.52214017 39.94517773 20.16600589 40.5078125 23.59375 C39.94133525 26.83574287 39.08274409 28.35835089 37 30.875 C36.443125 31.56335938 35.88625 32.25171875 35.3125 32.9609375 C34.879375 33.46882813 34.44625 33.97671875 34 34.5 C34.33 35.16 34.66 35.82 35 36.5 C37.4887744 36.81733007 39.95019108 36.87947445 42.45703125 36.9609375 C45.88653263 37.68792858 47.00072962 38.61775666 49 41.5 C49.40100915 44.33065284 49.56122899 46.68346659 49.5 49.5 C49.52320313 50.56734375 49.52320313 50.56734375 49.546875 51.65625 C49.52150132 55.05632341 49.24185764 57.15101821 47.2890625 59.96875 C43.93965415 62.20930985 41.16880315 61.98464329 37.2421875 62.03125 C36.50226563 62.1859375 35.76234375 62.340625 35 62.5 C33.6412418 64.44464857 33.6412418 64.44464857 33 66.5 C33.598125 66.7475 34.19625 66.995 34.8125 67.25 C37.41320743 68.73611853 38.54416577 69.87949839 40 72.5 C40.625 75.25 40.625 75.25 40 78.5 C36.99392413 82.82842072 33.39979925 86.58149589 29 89.5 C26.0625 90 26.0625 90 23 89.5 C20.3125 87.0625 20.3125 87.0625 18 84.5 C16.515 84.005 16.515 84.005 15 83.5 C14.01 83.995 14.01 83.995 13 84.5 C12.7229783 86.69800827 12.6850125 88.86404234 12.63671875 91.078125 C11.67321971 94.74296797 9.98216835 96.21764716 7 98.5 C3.37109375 99.1640625 3.37109375 99.1640625 -0.5625 99.125 C-1.86316406 99.13789063 -3.16382813 99.15078125 -4.50390625 99.1640625 C-8 98.5 -8 98.5 -10.41796875 96.26171875 C-11.99760744 93.50417664 -12.56279114 91.82324843 -12.75 88.6875 C-12.80671875 87.89730469 -12.8634375 87.10710937 -12.921875 86.29296875 C-12.96054688 85.40544922 -12.96054688 85.40544922 -13 84.5 C-14.32 84.17 -15.64 83.84 -17 83.5 C-17.61875 84.304375 -18.2375 85.10875 -18.875 85.9375 C-21.25511736 88.80764153 -22.03924186 89.31699845 -25.625 90 C-31.40079564 89.14432657 -35.0764839 84.81526194 -38.70703125 80.4453125 C-40.61064753 77.58126143 -40.53979637 75.87372729 -40 72.5 C-38.53960734 70.12010085 -37.00593378 68.50593378 -35 66.5 C-34.34 66.5 -33.68 66.5 -33 66.5 C-33.6412418 64.44464857 -33.6412418 64.44464857 -35 62.5 C-37.28998397 61.94598049 -37.28998397 61.94598049 -39.875 62 C-43.07373661 61.96180613 -44.60672294 61.76307954 -47.2890625 59.96875 C-49.64936884 56.56301117 -49.58686316 53.49570524 -49.5 49.5 C-49.51546875 48.7884375 -49.5309375 48.076875 -49.546875 47.34375 C-49.52157197 43.95314443 -49.24677699 41.85544942 -47.296875 39.046875 C-44.62426873 37.24695649 -42.94754749 36.91829197 -39.75 36.75 C-38.41195312 36.66492188 -38.41195312 36.66492188 -37.046875 36.578125 C-36.37140625 36.55234375 -35.6959375 36.5265625 -35 36.5 C-34.67 35.51 -34.34 34.52 -34 33.5 C-35.39514773 31.64727971 -36.99499389 30.13131576 -38.65234375 28.51171875 C-40.60226628 25.60096483 -40.56143516 23.94146897 -40 20.5 C-38.33602741 18.23202312 -36.87550282 16.53221512 -34.875 14.625 C-34.400625 14.12742187 -33.92625 13.62984375 -33.4375 13.1171875 C-30.9342055 10.65448697 -29.32692889 9.54911986 -25.828125 9.0234375 C-22.90081707 9.51671315 -21.89842012 9.91876787 -19.875 12 C-17.13191926 14.93745248 -17.13191926 14.93745248 -13 14.5 C-12.96132812 13.48679687 -12.96132812 13.48679687 -12.921875 12.453125 C-12.83679688 11.11507813 -12.83679688 11.11507813 -12.75 9.75 C-12.70359375 8.86828125 -12.6571875 7.9865625 -12.609375 7.078125 C-10.99458434 0.24631837 -6.20368034 -0.13486262 0 0 Z M-5 7.5 C-5.33 11.46 -5.66 15.42 -6 19.5 C-14.07870036 23.47906137 -14.07870036 23.47906137 -17.75 23.5625 C-20.82407101 22.11085536 -22.74731862 20.01013069 -25 17.5 C-27.88437779 18.79299694 -29.87219421 20.15941363 -32 22.5 C-30.88392409 25.10417711 -29.96476062 26.53121203 -27.8125 28.4375 C-26 30.5 -26 30.5 -26.0625 32.75 C-27.29612941 36.36864628 -28.61121343 39.93746053 -30 43.5 C-35.94 43.995 -35.94 43.995 -42 44.5 C-42 47.8 -42 51.1 -42 54.5 C-38.04 54.83 -34.08 55.16 -30 55.5 C-26.02093863 63.57870036 -26.02093863 63.57870036 -25.9375 67.25 C-27.38914464 70.32407101 -29.48986931 72.24731862 -32 74.5 C-30.7251791 77.34383123 -29.54862922 79.63754018 -27 81.5 C-25.01633305 81.63306157 -25.01633305 81.63306157 -23 80.5 C-22.175 79.63375 -21.35 78.7675 -20.5 77.875 C-19.2625 76.699375 -19.2625 76.699375 -18 75.5 C-16.109375 75.75390625 -16.109375 75.75390625 -14 76.5 C-13.29359375 76.74878906 -12.5871875 76.99757813 -11.859375 77.25390625 C-11.16328125 77.52074219 -10.4671875 77.78757812 -9.75 78.0625 C-8.5125 78.536875 -7.275 79.01125 -6 79.5 C-5.505 84.945 -5.505 84.945 -5 90.5 C-1.7 90.5 1.6 90.5 5 90.5 C5.33 86.87 5.66 83.24 6 79.5 C14.37225073 75.43699597 14.37225073 75.43699597 17.140625 75.71484375 C19 76.5 19 76.5 21.5 79.125 C23.67488355 81.71945875 23.67488355 81.71945875 26.0625 81.5625 C28.49392628 80.2291372 30.14901982 78.54929949 32 76.5 C30.88371346 73.89533141 29.99673777 72.4972038 27.8125 70.625 C26 68.5 26 68.5 26.0625 65.6875 C27.11421022 62.11168525 28.44287309 58.88505849 30 55.5 C35.94 55.005 35.94 55.005 42 54.5 C42 51.2 42 47.9 42 44.5 C38.04 44.17 34.08 43.84 30 43.5 C26.02093863 35.42129964 26.02093863 35.42129964 25.9375 31.75 C27.38914464 28.67592899 29.48986931 26.75268138 32 24.5 C30.70700306 21.61562221 29.34058637 19.62780579 27 17.5 C24.39533141 18.61628654 22.9972038 19.50326223 21.125 21.6875 C19 23.5 19 23.5 16.1875 23.4375 C12.61168525 22.38578978 9.38505849 21.05712691 6 19.5 C5.505 13.56 5.505 13.56 5 7.5 C1.7 7.5 -1.6 7.5 -5 7.5 Z " fill="#FAFBFD" transform="translate(256,267.5)"/>
<path d="M0 0 C4.97725721 2.97793613 8.40745897 7.07491608 10.9375 12.25 C12.52987606 20.37111791 12.11442184 27.34268354 7.5625 34.4375 C5.67285503 36.56600459 3.97121906 37.79957104 1.5625 39.4375 C0.69625 40.035625 -0.17 40.63375 -1.0625 41.25 C-7.42054365 43.48708943 -14.57807022 43.65651483 -20.8125 40.875 C-25.83699961 37.91263877 -29.26814122 33.82937023 -31.8125 28.625 C-33.24889793 21.29937058 -33.14610677 15.08741559 -29.4375 8.4375 C-22.38169544 -1.55822313 -11.59703825 -5.15176122 0 0 Z " fill="#FBFBFD" transform="translate(266.4375,296.5625)"/>
<path d="M0 0 C4.6192119 2.289781 7.2812426 5.49727493 9.0078125 10.33984375 C9.74051596 15.37718001 8.81558807 19.14746948 6.40234375 23.5390625 C3.1066679 27.79482319 -1.35153209 29.07616699 -6.4921875 29.90234375 C-11.18130497 29.14873559 -14.45195969 27.50531771 -17.9921875 24.33984375 C-20.77755973 19.63952812 -21.67009436 15.76309862 -20.9921875 10.33984375 C-17.52093838 1.02434469 -9.53478968 -3.15956756 0 0 Z " fill="#8A8FC7" transform="translate(261.9921875,302.66015625)"/>
</svg>
