<?xml version="1.0" encoding="UTF-8"?>
<svg version="1.1" xmlns="http://www.w3.org/2000/svg" width="256" height="256">
<path d="M0 0 C5.97524661 4.15819875 10.91053433 9.91506884 15.8125 15.25 C17.11031131 16.65138049 18.40847482 18.05243492 19.70703125 19.453125 C20.2688208 20.06317383 20.83061035 20.67322266 21.40942383 21.30175781 C22.96781721 23.01606177 22.96781721 23.01606177 24.68237305 24.50292969 C26 26 26 26 26.375 29.5 C26 33 26 33 24.76953125 34.70703125 C22.4758988 36.38295254 21.12148298 36.30962969 18.3125 36.1875 C17.10013672 36.14689453 17.10013672 36.14689453 15.86328125 36.10546875 C15.24839844 36.07066406 14.63351563 36.03585938 14 36 C13.89870453 45.36297977 13.85181015 54.72423586 13.87302971 64.08774471 C13.88120393 68.43651097 13.87113228 72.78359247 13.81835938 77.13208008 C13.76804768 81.3344515 13.76697529 85.53429676 13.79904556 89.73681831 C13.80277682 91.33431024 13.78921082 92.93194553 13.75750351 94.52912712 C13.4477631 103.72007548 13.4477631 103.72007548 17.14141846 111.87454224 C19.65491895 114.1379942 22.24425664 116.04541319 25 118 C39.50079583 132.21346527 47.95626017 151.30494507 48.24145508 171.63916016 C48.31308384 195.62047126 41.31970798 216.57183953 24.23828125 233.953125 C15.85930665 242.0711276 5.84650643 247.81652917 -5 252 C-6.06863281 252.41378906 -7.13726562 252.82757813 -8.23828125 253.25390625 C-28.26013656 259.7615761 -50.56494302 257.32684863 -69.25 248.25 C-85.64311499 239.8438295 -97.48116538 228.35616247 -106 212 C-106 211.34 -106 210.68 -106 210 C-106.99700928 210.00888245 -107.99401855 210.01776489 -109.02124023 210.0269165 C-118.43701626 210.10815592 -127.85272076 210.16803897 -137.26876831 210.20724869 C-142.10917823 210.22808485 -146.94930423 210.25632966 -151.78955078 210.30175781 C-156.46447524 210.34535758 -161.13912734 210.36916696 -165.8142395 210.37950897 C-167.59396652 210.38687504 -169.37367936 210.40125922 -171.15328979 210.42292023 C-173.65459906 210.45214278 -176.15479632 210.45594825 -178.65625 210.45410156 C-179.74922142 210.47567322 -179.74922142 210.47567322 -180.86427307 210.49768066 C-186.29488304 210.45456272 -190.44936175 208.9786534 -195 206 C-199.88666198 200.86273997 -200.1744765 196.50480303 -200.23828125 189.67578125 C-200.246353 188.85554977 -200.25442474 188.0353183 -200.26274109 187.19023132 C-200.27656868 185.45277002 -200.28729676 183.71528171 -200.29516602 181.9777832 C-200.30666432 180.20979801 -200.32708205 178.44184693 -200.35668945 176.67407227 C-200.39959602 174.11190331 -200.41556841 171.55076598 -200.42578125 168.98828125 C-200.45204338 167.817528 -200.45204338 167.817528 -200.47883606 166.62312317 C-200.46195759 162.29325938 -199.96393784 159.61886073 -197.72338867 155.87573242 C-196.56580405 153.9665688 -196.56580405 153.9665688 -196 152 C-197.5034439 148.75505426 -197.5034439 148.75505426 -198.93334961 146.81613159 C-200.86918484 143.520083 -200.57049866 140.01751328 -200.53125 136.28515625 C-200.5350769 135.47058456 -200.53890381 134.65601288 -200.54284668 133.8167572 C-200.54555457 132.10316728 -200.53827241 130.38953522 -200.52148438 128.67602539 C-200.5000845 126.0727793 -200.52130803 123.47230114 -200.546875 120.86914062 C-200.54423098 119.19530649 -200.53910447 117.52147405 -200.53125 115.84765625 C-200.53934692 115.0797023 -200.54744385 114.31174835 -200.55578613 113.52052307 C-200.48266317 109.24291756 -199.92902595 106.58083751 -197.71679688 102.88452148 C-196.56145053 100.97110049 -196.56145053 100.97110049 -196 99 C-197.50622832 95.75919991 -197.50622832 95.75919991 -198.93557739 93.82058716 C-200.8758312 90.50197935 -200.55039352 86.96688233 -200.49609375 83.21484375 C-200.49754898 82.39552872 -200.49900421 81.57621368 -200.50050354 80.73207092 C-200.49885243 79.01006492 -200.48737999 77.28804295 -200.46655273 75.56616211 C-200.43754148 72.94125311 -200.44597109 70.31836072 -200.45898438 67.69335938 C-200.4527474 66.01301109 -200.44435678 64.33266914 -200.43359375 62.65234375 C-200.43652939 61.87406723 -200.43946503 61.09579071 -200.44248962 60.29393005 C-200.35969754 55.47854678 -199.61280533 52.18969493 -197 48 C-191.47407613 42.76491422 -186.51739959 41.69766349 -179.07421875 41.8046875 C-178.32662796 41.8075174 -177.57903717 41.81034729 -176.80879211 41.81326294 C-174.4348612 41.82440531 -172.06131575 41.84949838 -169.6875 41.875 C-168.0722711 41.88503751 -166.45703624 41.89416201 -164.84179688 41.90234375 C-160.89438406 41.92432511 -156.94725726 41.95881343 -153 42 C-152.34 43.32 -151.68 44.64 -151 46 C-149.54054712 45.91291331 -148.08234132 45.80473093 -146.625 45.6875 C-145.81289062 45.62949219 -145.00078125 45.57148437 -144.1640625 45.51171875 C-141.62078662 45.17009472 -141.62078662 45.17009472 -140 42 C-137.05250603 41.6926049 -134.31380115 41.58031598 -131.36279297 41.59594727 C-130.02100731 41.58565239 -130.02100731 41.58565239 -128.65211487 41.57514954 C-125.68197944 41.55678507 -122.71236778 41.5607349 -119.7421875 41.56640625 C-117.67912625 41.56184692 -115.61606653 41.5565421 -113.55300903 41.55052185 C-109.22017263 41.54157021 -104.88752029 41.54403467 -100.5546875 41.55395508 C-95.01305326 41.56540871 -89.47205962 41.54529902 -83.93050957 41.51603794 C-79.66498802 41.49764515 -75.39961881 41.49797522 -71.13406754 41.50367546 C-69.09201285 41.50382851 -67.04994772 41.4977981 -65.00793076 41.48538399 C-62.14274433 41.47042942 -59.27872531 41.48118635 -56.41357422 41.49829102 C-55.57585983 41.48862305 -54.73814545 41.47895508 -53.87504578 41.46899414 C-48.14630734 41.54025083 -43.79281302 42.7964658 -39 46 C-34.0345494 51.22008909 -33.84985969 55.60614429 -33.8671875 62.53515625 C-33.86623077 63.36961777 -33.86527405 64.20407928 -33.86428833 65.06382751 C-33.8636082 66.82648799 -33.86545085 68.58915098 -33.86962891 70.35180664 C-33.87498625 73.05555822 -33.86967483 75.75914418 -33.86328125 78.46289062 C-33.86394193 80.17447953 -33.86522288 81.88606834 -33.8671875 83.59765625 C-33.86516327 84.40912613 -33.86313904 85.22059601 -33.86105347 86.05665588 C-33.88503575 91.77007151 -33.88503575 91.77007151 -35 94 C-34.24074219 93.98839844 -33.48148438 93.97679688 -32.69921875 93.96484375 C-31.70535156 93.95582031 -30.71148437 93.94679688 -29.6875 93.9375 C-28.70136719 93.92589844 -27.71523437 93.91429688 -26.69921875 93.90234375 C-24 94 -24 94 -21 95 C-21.02320313 93.73542969 -21.04640625 92.47085938 -21.0703125 91.16796875 C-21.08907126 89.5078184 -21.10727135 87.84766167 -21.125 86.1875 C-21.14175781 85.35412109 -21.15851563 84.52074219 -21.17578125 83.66210938 C-21.18222656 82.85966797 -21.18867188 82.05722656 -21.1953125 81.23046875 C-21.20578613 80.49207764 -21.21625977 79.75368652 -21.22705078 78.99291992 C-21 77 -21 77 -19 74 C-18.34 74 -17.68 74 -17 74 C-17.08746284 72.56138706 -17.19565348 71.12402492 -17.3125 69.6875 C-17.39951172 68.48673828 -17.39951172 68.48673828 -17.48828125 67.26171875 C-17.77630732 64.92719074 -17.77630732 64.92719074 -19.51367188 63.73242188 C-21.68146139 61.20570795 -21.34104558 59.30478161 -21.29296875 56.01953125 C-21.28330078 54.85615234 -21.27363281 53.69277344 -21.26367188 52.49414062 C-21.23853516 51.27919922 -21.21339844 50.06425781 -21.1875 48.8125 C-21.17396484 47.58595703 -21.16042969 46.35941406 -21.14648438 45.09570312 C-21.11108741 42.06336336 -21.0617076 39.03190004 -21 36 C-21.61488281 36.03480469 -22.22976562 36.06960937 -22.86328125 36.10546875 C-23.67152344 36.13253906 -24.47976562 36.15960938 -25.3125 36.1875 C-26.51326172 36.23970703 -26.51326172 36.23970703 -27.73828125 36.29296875 C-30 36 -30 36 -31.74609375 34.68359375 C-33 33 -33 33 -33.75 29.875 C-32.7455427 24.68530397 -30.24344564 22.76641864 -26.4375 19.2578125 C-24.26423609 17.24475715 -22.34940392 15.1946088 -20.4375 12.9375 C-8.38830175 -1.08236152 -8.38830175 -1.08236152 0 0 Z " fill="#010202" transform="translate(204,0)"/>
<path d="M0 0 C10.74026336 8.24929867 18.88544343 19.45805429 24 32 C24.391875 32.95261719 24.78375 33.90523437 25.1875 34.88671875 C27.89489856 42.67989031 28.38394243 49.98500103 28.4375 58.1875 C28.4475708 59.18475098 28.4576416 60.18200195 28.46801758 61.20947266 C28.24898069 80.03421699 19.55305661 97.37799581 6.6875 110.8125 C-7.24282919 124.14800797 -25.47169878 131.63755047 -44.75 131.4375 C-45.79986084 131.42847656 -46.84972168 131.41945312 -47.93139648 131.41015625 C-68.59989336 130.95230477 -84.8025366 122.57282402 -99 108 C-99.59167969 107.41734375 -100.18335937 106.8346875 -100.79296875 106.234375 C-114.85341003 91.306936 -118.60113336 71.93297477 -118.34765625 52.19140625 C-118.05483209 44.15528208 -116.11087673 37.35924855 -113 30 C-112.62746094 29.08476562 -112.25492187 28.16953125 -111.87109375 27.2265625 C-103.16481919 7.99388629 -87.10091228 -4.25875771 -68 -12 C-45.14239202 -20.21656618 -19.16911755 -13.92580011 0 0 Z " fill="#040607" transform="translate(216,117)"/>
<path d="M0 0 C2.3828125 -0.29296875 2.3828125 -0.29296875 5.125 -0.1875 C6.03507812 -0.16042969 6.94515625 -0.13335937 7.8828125 -0.10546875 C8.58148438 -0.07066406 9.28015625 -0.03585938 10 0 C10 0.99 10 1.98 10 3 C11.15178741 3.00142502 12.30357483 3.00285004 13.49026489 3.00431824 C24.34910417 3.0209936 35.20756895 3.06378391 46.06620979 3.13209057 C51.64868662 3.16636943 57.23088951 3.191472 62.81347656 3.19555664 C68.20185798 3.19983758 73.58962135 3.22828401 78.97780991 3.27343178 C81.03263625 3.2864132 83.08753654 3.29071219 85.14239883 3.28615379 C88.02285603 3.2812525 90.90150363 3.30731966 93.78173828 3.34057617 C95.05380882 3.32763771 95.05380882 3.32763771 96.35157776 3.31443787 C100.47324256 3.39412008 103.21668032 3.73895305 106.52960205 6.30989075 C109.71148509 9.77476287 109.84077947 12.47875557 109.7265625 16.96875 C109.72805801 18.1056427 109.72805801 18.1056427 109.72958374 19.26550293 C109.72491814 20.86249316 109.70555302 22.45950022 109.67236328 24.05615234 C109.62513166 26.49320675 109.63124978 28.92588473 109.64453125 31.36328125 C109.6333768 32.91929677 109.61915642 34.47529396 109.6015625 36.03125 C109.60338531 36.75534058 109.60520813 37.47943115 109.60708618 38.22546387 C109.47202638 43.07277649 108.44392966 45.59393342 105 49 C102.39198931 50.30400535 100.47587751 50.13480027 97.55412292 50.14717102 C95.81910774 50.15790398 95.81910774 50.15790398 94.04904175 50.16885376 C92.77368561 50.17154266 91.49832947 50.17423157 90.18432617 50.17700195 C88.83255335 50.18326592 87.48078226 50.18991267 86.12901306 50.19691467 C82.45123311 50.21433032 78.77346617 50.22487794 75.0956552 50.2331202 C72.7983749 50.23826913 70.50109863 50.24434491 68.20382118 50.25063133 C61.01757679 50.26968493 53.83134269 50.28391575 46.64507788 50.2922433 C38.34710327 50.30201761 30.04939527 50.32834125 21.75151461 50.36874419 C15.3395573 50.3988941 8.92767645 50.41371109 2.51564962 50.41702431 C-1.3148348 50.41937609 -5.14503444 50.42835258 -8.97544289 50.45348549 C-12.57965063 50.47675192 -16.18338581 50.48100558 -19.78764915 50.47072411 C-21.73929256 50.46999203 -23.69091189 50.48909339 -25.64245605 50.50878906 C-27.39016045 50.49837334 -27.39016045 50.49837334 -29.173172 50.48774719 C-30.68885128 50.49132972 -30.68885128 50.49132972 -32.23515034 50.49498463 C-35.75495025 49.86484301 -37.4375625 48.44143614 -40 46 C-42.3361681 41.32766379 -41.3119196 34.36186549 -41.35009766 29.17016602 C-41.36664678 27.52028284 -41.39392356 25.87047105 -41.43212891 24.22094727 C-41.48701149 21.83832742 -41.5087871 19.45738628 -41.5234375 17.07421875 C-41.54610687 16.34071701 -41.56877625 15.60721527 -41.59213257 14.85148621 C-41.5767519 11.10678152 -41.09550135 9.13878129 -38.95825195 6.03295898 C-35.29589883 3.51613019 -32.43819426 3.31792657 -28.14453125 3.3984375 C-27.40168381 3.39043121 -26.65883636 3.38242493 -25.89347839 3.37417603 C-23.53259 3.35117598 -21.17343369 3.36055267 -18.8125 3.375 C-16.4411818 3.37884369 -14.07061895 3.37547132 -11.6993866 3.35440063 C-10.22703102 3.34227753 -8.7544628 3.34503686 -7.28218079 3.36410522 C-5.054468 3.386044 -5.054468 3.386044 -2 3 C-1.34 2.01 -0.68 1.02 0 0 Z " fill="#4E64CA" transform="translate(53,46)"/>
<path d="M0 0 C10.74026336 8.24929867 18.88544343 19.45805429 24 32 C24.391875 32.95261719 24.78375 33.90523437 25.1875 34.88671875 C27.89489856 42.67989031 28.38394243 49.98500103 28.4375 58.1875 C28.4475708 59.18475098 28.4576416 60.18200195 28.46801758 61.20947266 C28.24898069 80.03421699 19.55305661 97.37799581 6.6875 110.8125 C-7.24282919 124.14800797 -25.47169878 131.63755047 -44.75 131.4375 C-45.79986084 131.42847656 -46.84972168 131.41945312 -47.93139648 131.41015625 C-68.59989336 130.95230477 -84.8025366 122.57282402 -99 108 C-99.59167969 107.41734375 -100.18335937 106.8346875 -100.79296875 106.234375 C-114.85341003 91.306936 -118.60113336 71.93297477 -118.34765625 52.19140625 C-118.05483209 44.15528208 -116.11087673 37.35924855 -113 30 C-112.62746094 29.08476562 -112.25492187 28.16953125 -111.87109375 27.2265625 C-103.16481919 7.99388629 -87.10091228 -4.25875771 -68 -12 C-45.14239202 -20.21656618 -19.16911755 -13.92580011 0 0 Z M-67 -1 C-67.97839844 -0.58621094 -68.95679688 -0.17242187 -69.96484375 0.25390625 C-87.10279156 8.18533985 -97.90426012 20.82700752 -105 38 C-110.4997585 53.10134358 -109.00054901 69.67060955 -102.38476562 84.1706543 C-98.65321642 91.85479468 -94.20988241 98.06586725 -88 104 C-87.08154297 104.94746094 -87.08154297 104.94746094 -86.14453125 105.9140625 C-74.51748665 117.16924 -58.61855672 121.57240219 -42.83764648 121.56054688 C-24.83633102 120.98326968 -9.74315655 112.6379059 2.5546875 99.83203125 C6.00833714 95.8321974 8.62360138 91.70650375 11 87 C11.56460938 85.94425781 11.56460938 85.94425781 12.140625 84.8671875 C19.27437236 70.43998202 19.90054842 53.99027415 15.38671875 38.73828125 C9.55689461 23.02238914 -1.1364299 9.98743253 -16 2 C-31.20789582 -4.91089 -51.2094568 -7.71668371 -67 -1 Z " fill="#00C3F4" transform="translate(216,117)"/>
<path d="M0 0 C0 1.98 0 3.96 0 6 C-0.95712891 6.25523437 -0.95712891 6.25523437 -1.93359375 6.515625 C-2.75988281 6.75796875 -3.58617187 7.0003125 -4.4375 7.25 C-5.26121094 7.48203125 -6.08492187 7.7140625 -6.93359375 7.953125 C-9.1752389 8.80174402 -9.1752389 8.80174402 -9.78515625 10.984375 C-10.03532959 12.99361533 -10.03532959 12.99361533 -10 15 C-6.7 14.67 -3.4 14.34 0 14 C0.61329305 19.87009063 0.61329305 19.87009063 0 23 C-1.61138136 24.66336141 -3.24293076 25.64722307 -5.2421875 26.8046875 C-7.91909961 28.62498774 -8.83776203 31.06022161 -10 34 C-13.3 34 -16.6 34 -20 34 C-19.855625 33.154375 -19.71125 32.30875 -19.5625 31.4375 C-18.9941203 27.96406851 -18.48797607 24.48554338 -18 21 C-19.65 21 -21.3 21 -23 21 C-25.92968087 26.61522166 -26.89252835 31.65957136 -26 38 C-23.15642897 40.84357103 -21.08496212 40.20060338 -17.125 40.25 C-13.2890625 40.46484375 -13.2890625 40.46484375 -10 41 C-7.5 43.8125 -7.5 43.8125 -6 47 C-2.72419867 49.76623223 -0.7678533 50.90401834 3.5 51.4375 C8.69685013 50.78789373 11.79381987 49.33657798 15.3125 45.4375 C16.99116117 43.1355288 16.99116117 43.1355288 18 41 C20.30428213 40.74364497 22.62091113 40.59407467 24.9375 40.5 C30.02893688 40.59688461 30.02893688 40.59688461 34 38 C35.3791743 30.4508354 33.27940896 24.19525141 29 18 C23.98772032 12.18753376 18.19256623 9.3762297 11 7 C10.01 6.67 9.02 6.34 8 6 C8 4.02 8 2.04 8 0 C17.46575596 0.36406754 25.94080764 4.32346978 32.4375 11.25 C38.65037682 18.98387156 41.46405608 26.57599692 43.12890625 36.3125 C43.7352022 39.13781673 43.7352022 39.13781673 46.08984375 40.375 C46.72019531 40.58125 47.35054688 40.7875 48 41 C45.92595909 48.67395137 41.65623942 57.34376058 36 63 C34.34302621 63.69040574 32.6744239 64.3530635 31 65 C29.77499721 65.93693136 28.56851135 66.89826929 27.375 67.875 C17.80849633 75.12989497 7.60637037 75.98235737 -4 75 C-11.60846748 73.67153742 -18.56468685 69.43531315 -24 64 C-26.10820797 64.3185177 -26.10820797 64.3185177 -28 65 C-27.66589857 67.99663278 -27.3450005 69.62199262 -25.28515625 71.87890625 C-14.09470248 80.35533081 -3.66090788 81.86903159 10 83 C6.8083097 85.12779353 3.84826998 86.30460479 0.25 87.625 C-0.94109375 88.07101563 -2.1321875 88.51703125 -3.359375 88.9765625 C-11.22492649 91.18769393 -15.98127888 89.55414599 -22.9453125 85.8203125 C-36.98831268 77.45197736 -45.84122119 65.86357709 -50 50 C-50.54862628 46.95161788 -50.83967533 44.09961027 -51 41 C-49.64455078 40.94392578 -49.64455078 40.94392578 -48.26171875 40.88671875 C-47.08222656 40.82097656 -45.90273437 40.75523437 -44.6875 40.6875 C-43.51574219 40.62949219 -42.34398438 40.57148438 -41.13671875 40.51171875 C-38.09488514 40.22037814 -38.09488514 40.22037814 -36.16015625 38.86328125 C-34.48813921 36.17792055 -34.23260388 33.61624219 -33.75 30.5 C-31.59185822 19.66456277 -26.06868166 11.33944032 -17 5 C-11.40442622 1.66711726 -6.56995611 -0.18249878 0 0 Z " fill="#FAFAFA" transform="translate(167,138)"/>
<path d="M0 0 C1.13229034 -0.00073013 2.26458069 -0.00146027 3.43118286 -0.00221252 C7.16506235 0.00126438 10.8976867 0.0401337 14.63134766 0.0793457 C17.22351398 0.08867338 19.81568913 0.0957897 22.40786743 0.1007843 C28.52778356 0.11790905 34.64718352 0.15729449 40.76690543 0.20753175 C47.73661865 0.26349957 54.70635377 0.29093027 61.67623591 0.31600893 C76.00786793 0.36821326 90.33912308 0.45610888 104.67041016 0.56762695 C103.00580424 1.90353216 101.33875339 3.23639204 99.67041016 4.56762695 C98.98784149 5.12154617 98.30527283 5.67546539 97.60202026 6.24617004 C91.60880854 10.70564727 86.97206625 11.40686747 79.61572266 11.2668457 C78.59235809 11.27343704 77.56899353 11.28002838 76.51461792 11.28681946 C73.27420363 11.30419446 70.03573134 11.28237884 66.79541016 11.25512695 C63.53405923 11.24382953 60.27327347 11.24113819 57.01193237 11.25556946 C54.9897303 11.26296407 52.96739734 11.25471042 50.94534302 11.22917175 C50.03364349 11.22959976 49.12194397 11.23002777 48.18261719 11.23046875 C47.38147491 11.22347458 46.58033264 11.21648041 45.75491333 11.20927429 C43.14747128 11.65752681 42.2731253 12.50269311 40.67041016 14.56762695 C40.21269051 16.5385937 40.21269051 16.5385937 40.27197266 18.69262695 C40.26810547 19.4815332 40.26423828 20.27043945 40.26025391 21.08325195 C40.27185547 21.9030957 40.28345703 22.72293945 40.29541016 23.56762695 C40.28380859 24.3874707 40.27220703 25.20731445 40.26025391 26.05200195 C40.26605469 27.23536133 40.26605469 27.23536133 40.27197266 28.44262695 C40.27535645 29.16192383 40.27874023 29.8812207 40.28222656 30.62231445 C40.80264132 33.23027974 41.47989803 34.05801613 43.67041016 35.56762695 C46.47328306 36.07370056 46.47328306 36.07370056 49.65087891 36.0793457 C50.81425781 36.11479492 51.97763672 36.15024414 53.17626953 36.18676758 C54.39121094 36.20932617 55.60615234 36.23188477 56.85791016 36.25512695 C58.69772461 36.30636719 58.69772461 36.30636719 60.57470703 36.35864258 C63.60651694 36.44122106 66.63803395 36.51034065 69.67041016 36.56762695 C68.35041016 39.86762695 67.03041016 43.16762695 65.67041016 46.56762695 C55.71729083 46.66034074 45.76427438 46.73139895 35.81081104 46.77487564 C31.18890432 46.79574322 26.56729323 46.82404559 21.94555664 46.86938477 C17.48461187 46.9128723 13.0239513 46.9367703 8.5628109 46.94713593 C6.86154392 46.9545221 5.16029236 46.96894572 3.4591465 46.99054718 C1.07455562 47.01962065 -1.30886368 47.02358144 -3.69360352 47.02172852 C-4.395634 47.03610962 -5.09766449 47.05049072 -5.82096863 47.06530762 C-10.58892485 47.02526664 -12.98053915 45.93493508 -16.32958984 42.56762695 C-18.67105698 37.88469268 -17.68344435 30.93952929 -17.73461914 25.73779297 C-17.75619881 24.08784047 -17.79030223 22.43800244 -17.8371582 20.78857422 C-17.90421437 18.40581336 -17.9316223 16.02541734 -17.95068359 13.6418457 C-17.97851425 12.90834396 -18.00634491 12.17484222 -18.03501892 11.41911316 C-18.01958255 7.55853441 -17.53769858 5.80811378 -14.99412537 2.86880493 C-10.47794341 -0.62255377 -5.47748854 -0.0926198 0 0 Z " fill="#9FABE2" transform="translate(29.32958984375,102.432373046875)"/>
<path d="M0 0 C0.72264038 -0.00073013 1.44528076 -0.00146027 2.18981934 -0.00221252 C4.56043564 0.00125002 6.92904669 0.04004269 9.29931641 0.0793457 C10.94982836 0.0886787 12.60035422 0.09579252 14.25088501 0.1007843 C18.58146847 0.11981611 22.91120483 0.16888291 27.24145508 0.2243042 C31.66557355 0.27557979 36.08982977 0.298316 40.51416016 0.32348633 C49.18512052 0.37700633 57.85539414 0.46227158 66.52587891 0.56762695 C66.19587891 3.86762695 65.86587891 7.16762695 65.52587891 10.56762695 C64.26130859 10.60500977 62.99673828 10.64239258 61.69384766 10.6809082 C60.03366161 10.74656528 58.37350669 10.81301271 56.71337891 10.88012695 C55.88 10.90268555 55.04662109 10.92524414 54.18798828 10.94848633 C52.98432617 11.00166016 52.98432617 11.00166016 51.75634766 11.0559082 C51.01795654 11.08209229 50.27956543 11.10827637 49.51879883 11.13525391 C46.96307621 11.68972956 46.06107993 12.46568312 44.52587891 14.56762695 C44.06815926 16.5385937 44.06815926 16.5385937 44.12744141 18.69262695 C44.12357422 19.4815332 44.11970703 20.27043945 44.11572266 21.08325195 C44.12732422 21.9030957 44.13892578 22.72293945 44.15087891 23.56762695 C44.13927734 24.3874707 44.12767578 25.20731445 44.11572266 26.05200195 C44.12152344 27.23536133 44.12152344 27.23536133 44.12744141 28.44262695 C44.1308252 29.16192383 44.13420898 29.8812207 44.13769531 30.62231445 C44.6477405 33.1783145 45.42772827 34.04273513 47.52587891 35.56762695 C49.64203735 36.06817446 49.64203735 36.06817446 51.97509766 36.0793457 C52.82265625 36.11479492 53.67021484 36.15024414 54.54345703 36.18676758 C55.86506836 36.22060547 55.86506836 36.22060547 57.21337891 36.25512695 C58.55239258 36.30636719 58.55239258 36.30636719 59.91845703 36.35864258 C62.12080562 36.44108343 64.32275828 36.51024246 66.52587891 36.56762695 C68.14576952 40.11113768 68.63002158 42.69482114 68.52587891 46.56762695 C58.5728048 46.68351866 48.61989141 46.77234114 38.66627979 46.82668781 C34.04428576 46.85277279 29.4227536 46.88815035 24.80102539 46.94482422 C20.34006403 46.99918384 15.87954668 47.02905577 11.41827965 47.04201317 C9.71698708 47.05124602 8.01571859 47.06927608 6.31461525 47.09627724 C3.92983276 47.132622 1.54688049 47.13757032 -0.83813477 47.13525391 C-1.8911805 47.16221848 -1.8911805 47.16221848 -2.96549988 47.18972778 C-6.76656482 47.14982642 -8.38120932 46.64036636 -11.40994263 44.26921082 C-14.13002345 40.70918605 -14.21372348 37.69346049 -14.17333984 33.38012695 C-14.18049515 32.60000244 -14.18765045 31.81987793 -14.19502258 31.01611328 C-14.2027823 29.37216327 -14.19782388 27.72810981 -14.1809082 26.08422852 C-14.16167076 23.57410775 -14.20108795 21.06952012 -14.24560547 18.55981445 C-14.24589584 16.95824867 -14.24275556 15.35667783 -14.23583984 13.75512695 C-14.25112228 13.0091626 -14.26640472 12.26319824 -14.28215027 11.49462891 C-14.19221563 7.45678025 -13.71172051 5.81638494 -10.89372253 2.86604309 C-7.35876895 0.12341342 -4.482382 -0.03824558 0 0 Z " fill="#4E64CC" transform="translate(25.47412109375,155.432373046875)"/>
<path d="M0 0 C0.71592316 -0.00540298 1.43184631 -0.01080597 2.16946411 -0.01637268 C4.53136791 -0.02886016 6.89205271 -0.01237026 9.25390625 0.00561523 C10.89770573 0.00546024 12.54150558 0.00397128 14.18530273 0.00120544 C17.62858252 -0.00017855 21.07144576 0.01237916 24.51464844 0.03515625 C28.92662048 0.06354116 33.33790045 0.06080371 37.74992371 0.04806614 C41.14373681 0.04110861 44.53739016 0.04889903 47.93118286 0.06132317 C49.55786527 0.06583697 51.18456483 0.06617508 52.81124878 0.06225777 C55.08546047 0.05934475 57.35872105 0.0758555 59.6328125 0.09765625 C60.92646729 0.10305923 62.22012207 0.10846222 63.55297852 0.11402893 C66.99083427 0.52243022 68.40675305 1.06511879 70.81640625 3.50170898 C71.33398438 5.52294922 71.33398438 5.52294922 71.34765625 7.81030273 C71.35539062 9.05457031 71.35539062 9.05457031 71.36328125 10.32397461 C71.3478125 11.18700195 71.33234375 12.0500293 71.31640625 12.93920898 C71.33960938 14.22794922 71.33960938 14.22794922 71.36328125 15.54272461 C71.358125 16.37352539 71.35296875 17.20432617 71.34765625 18.06030273 C71.34314453 18.81625732 71.33863281 19.57221191 71.33398438 20.35107422 C70.58745569 23.45304177 69.31736984 24.53651277 66.81640625 26.50170898 C63.55297852 27.01637268 63.55297852 27.01637268 59.6328125 27.03515625 C58.91688934 27.04377182 58.20096619 27.05238739 57.46334839 27.06126404 C55.10149786 27.08393067 52.74083312 27.07718512 50.37890625 27.06811523 C48.73510383 27.0733503 47.09130443 27.07962635 45.44750977 27.0868988 C42.00425062 27.09730403 38.56140472 27.09273968 35.11816406 27.078125 C30.70592344 27.06093022 26.2949842 27.08443903 21.88288879 27.1196146 C18.48904799 27.14157553 15.09551928 27.14015053 11.70162964 27.13184929 C10.07492647 27.13102916 8.44820053 27.13790435 6.82156372 27.15262032 C4.54689524 27.17004525 2.27457404 27.15554576 0 27.1328125 C-1.29365479 27.13185074 -2.58730957 27.13088898 -3.92016602 27.12989807 C-7.18359375 26.50170898 -7.18359375 26.50170898 -9.60021973 24.09130859 C-11.14712326 21.56135628 -11.69499878 20.34081846 -11.71484375 17.43530273 C-11.72 16.7024707 -11.72515625 15.96963867 -11.73046875 15.21459961 C-11.715 14.4637207 -11.69953125 13.7128418 -11.68359375 12.93920898 C-11.6990625 12.18446289 -11.71453125 11.4297168 -11.73046875 10.65209961 C-11.70698418 7.32022639 -11.56419155 5.03372257 -9.59936523 2.28721619 C-6.29382595 -0.15592226 -4.0899354 0.00052535 0 0 Z " fill="#070604" transform="translate(80.18359375,59.498291015625)"/>
<path d="M0 0 C2.3828125 -0.29296875 2.3828125 -0.29296875 5.125 -0.1875 C6.03507812 -0.16042969 6.94515625 -0.13335937 7.8828125 -0.10546875 C8.58148438 -0.07066406 9.28015625 -0.03585938 10 0 C10 0.99 10 1.98 10 3 C13.63376296 4.21125432 16.99098013 4.17614393 20.77612305 4.20532227 C21.96183899 4.22017166 21.96183899 4.22017166 23.17150879 4.23532104 C25.78488162 4.26691393 28.39827263 4.29168474 31.01171875 4.31640625 C32.82347588 4.33697769 34.63522823 4.35797421 36.44697571 4.37937927 C41.21611664 4.43458035 45.98530074 4.48399831 50.7545166 4.53222656 C55.62088871 4.5824559 60.4871981 4.63813449 65.35351562 4.69335938 C74.90229018 4.80091694 84.45111918 4.90236728 94 5 C94 7.97 94 10.94 94 14 C92.6193763 14.00879936 92.6193763 14.00879936 91.21086121 14.01777649 C82.54381399 14.07564037 73.87702621 14.1476806 65.21023083 14.23571491 C60.75434865 14.28047428 56.29855908 14.31971793 51.8425293 14.34643555 C47.54352801 14.37241328 43.24488204 14.41277588 38.94610023 14.46318626 C37.30467454 14.47989255 35.66318734 14.49138336 34.02168846 14.49761391 C31.72526019 14.50721446 29.42974869 14.53522314 27.13354492 14.56762695 C25.82560471 14.57873001 24.51766449 14.58983307 23.17008972 14.60127258 C20.03689502 14.7352069 20.03689502 14.7352069 18.08117676 16.40246582 C16.70570937 18.4348404 16.57495746 19.78619972 16.48828125 22.23046875 C16.43861206 23.31557739 16.43861206 23.31557739 16.38793945 24.42260742 C16.35059692 25.79122925 16.35059692 25.79122925 16.3125 27.1875 C16.209375 30.095625 16.10625 33.00375 16 36 C9.4 36 2.8 36 -4 36 C-4.3125 27.1875 -4.3125 27.1875 -4.38793945 24.42260742 C-4.42105225 23.69920166 -4.45416504 22.9757959 -4.48828125 22.23046875 C-4.51446533 21.49207764 -4.54064941 20.75368652 -4.56762695 19.99291992 C-5.12377378 17.42949443 -5.88203705 16.53013472 -8 15 C-10.08667263 14.55716038 -10.08667263 14.55716038 -12.37890625 14.63671875 C-13.63670898 14.63768555 -13.63670898 14.63768555 -14.91992188 14.63867188 C-15.79197266 14.65478516 -16.66402344 14.67089844 -17.5625 14.6875 C-18.43841797 14.68427734 -19.31433594 14.68105469 -20.21679688 14.67773438 C-25.12550985 14.44521646 -25.12550985 14.44521646 -29 17 C-29.36894582 19.03060659 -29.36894582 19.03060659 -29.4140625 21.3515625 C-29.47207031 22.62773438 -29.47207031 22.62773438 -29.53125 23.9296875 C-29.57765625 25.26386719 -29.57765625 25.26386719 -29.625 26.625 C-29.68300781 27.97078125 -29.68300781 27.97078125 -29.7421875 29.34375 C-29.83658776 31.56215605 -29.91938805 33.78105013 -30 36 C-33.63 36 -37.26 36 -41 36 C-41.14536813 31.60451509 -41.23409948 27.20964913 -41.3125 22.8125 C-41.35439453 21.56662109 -41.39628906 20.32074219 -41.43945312 19.03710938 C-41.45556641 17.83505859 -41.47167969 16.63300781 -41.48828125 15.39453125 C-41.51446533 14.28956299 -41.54064941 13.18459473 -41.56762695 12.04614258 C-40.78923565 7.86894332 -39.42503445 6.47344769 -36 4 C-33.1794548 3.52812028 -30.95278977 3.34577955 -28.14453125 3.3984375 C-27.40168381 3.39043121 -26.65883636 3.38242493 -25.89347839 3.37417603 C-23.53259 3.35117598 -21.17343369 3.36055267 -18.8125 3.375 C-16.4411818 3.37884369 -14.07061895 3.37547132 -11.6993866 3.35440063 C-10.22703102 3.34227753 -8.7544628 3.34503686 -7.28218079 3.36410522 C-5.054468 3.386044 -5.054468 3.386044 -2 3 C-1.34 2.01 -0.68 1.02 0 0 Z " fill="#6A7DD5" transform="translate(53,46)"/>
<path d="M0 0 C4.92190829 4.00620442 9.44650752 8.33616202 13.9375 12.8125 C14.52942139 13.39990967 15.12134277 13.98731934 15.73120117 14.5925293 C20 18.87629543 20 18.87629543 20 20 C17.94921875 20.22786458 15.8984375 20.45572917 13.84765625 20.68359375 C11.98859771 20.81886614 11.98859771 20.81886614 11 22 C10.87579266 24.29983022 10.82195547 26.60347386 10.79467773 28.90649414 C10.77982834 29.98935951 10.77982834 29.98935951 10.76467896 31.09410095 C10.73297701 33.49108551 10.70827241 35.88808992 10.68359375 38.28515625 C10.66303171 39.94283069 10.64203545 41.6004998 10.62062073 43.25816345 C10.5653225 47.62948295 10.51594756 52.00085037 10.46777344 56.37225342 C10.41761484 60.82959274 10.3618994 65.28686213 10.30664062 69.74414062 C10.19896432 78.4960347 10.09754055 87.24798712 10 96 C8.56360955 95.52516047 7.1275584 95.04929448 5.69165039 94.57299805 C4.89191299 94.30811081 4.0921756 94.04322357 3.26820374 93.77030945 C-0.89247662 92.35729203 -4.93408958 90.66072397 -9 89 C-9.01458252 88.37432129 -9.02916504 87.74864258 -9.04418945 87.10400391 C-9.11852804 84.27703598 -9.21523234 81.45126792 -9.3125 78.625 C-9.33505859 77.64015625 -9.35761719 76.6553125 -9.38085938 75.640625 C-9.41630859 74.69960937 -9.45175781 73.75859375 -9.48828125 72.7890625 C-9.51446533 71.91975098 -9.54064941 71.05043945 -9.56762695 70.15478516 C-9.81345218 67.61399973 -9.81345218 67.61399973 -13 66 C-13.29296875 63.6171875 -13.29296875 63.6171875 -13.1875 60.875 C-13.16042969 59.96492188 -13.13335937 59.05484375 -13.10546875 58.1171875 C-13.07066406 57.41851562 -13.03585938 56.71984375 -13 56 C-11.515 55.505 -11.515 55.505 -10 55 C-9.97534712 50.31860746 -9.95716261 45.63725241 -9.94506836 40.95581055 C-9.94002843 39.36205386 -9.9331965 37.76830181 -9.92456055 36.17456055 C-9.91248001 33.88849747 -9.90676845 31.60249533 -9.90234375 29.31640625 C-9.89718246 28.59973282 -9.89202118 27.88305939 -9.88670349 27.14466858 C-9.88650737 25.42936328 -9.93807993 23.71418734 -10 22 C-11.49743119 20.50256881 -12.98824239 20.66797307 -15.0625 20.4375 C-16.361875 20.293125 -17.66125 20.14875 -19 20 C-13.17371096 12.84198775 -6.5617015 6.47408234 0 0 Z " fill="#5BDDC0" transform="translate(200,8)"/>
<path d="M0 0 C0.85464844 -0.01095703 1.70929687 -0.02191406 2.58984375 -0.03320312 C6.29913384 0.01019731 8.81755751 0.17681659 12.078125 2.01953125 C14.24417407 5.8934267 13.92688909 9.45830709 13.75 13.8125 C13.73195312 14.65296875 13.71390625 15.4934375 13.6953125 16.359375 C13.64830798 18.42757395 13.57656724 20.49518441 13.5 22.5625 C14.12044189 22.54678955 14.74088379 22.5310791 15.38012695 22.51489258 C18.19082528 22.45253786 21.00137812 22.41350852 23.8125 22.375 C24.78896484 22.34986328 25.76542969 22.32472656 26.77148438 22.29882812 C27.70927734 22.28916016 28.64707031 22.27949219 29.61328125 22.26953125 C30.47735596 22.2538208 31.34143066 22.23811035 32.23168945 22.22192383 C34.5 22.5625 34.5 22.5625 35.93164062 24.04882812 C38.2800015 26.31530344 40.2733919 25.99599736 43.48046875 26.07421875 C45.22553711 26.12739258 45.22553711 26.12739258 47.00585938 26.18164062 C48.22080078 26.20419922 49.43574219 26.22675781 50.6875 26.25 C52.52731445 26.30124023 52.52731445 26.30124023 54.40429688 26.35351562 C57.43610678 26.4360941 60.46762379 26.50521369 63.5 26.5625 C62.18 29.8625 60.86 33.1625 59.5 36.5625 C49.54688068 36.65521379 39.59386422 36.726272 29.64040089 36.76974869 C25.01849417 36.79061627 20.39688307 36.81891864 15.77514648 36.86425781 C11.31420171 36.90774535 6.85354114 36.93164335 2.39240074 36.94200897 C0.69113377 36.94939514 -1.01011779 36.96381876 -2.71126366 36.98542023 C-5.09585454 37.0144937 -7.47927383 37.01845448 -9.86401367 37.01660156 C-10.56604416 37.03098267 -11.26807465 37.04536377 -11.99137878 37.06018066 C-16.759335 37.02013969 -19.15094931 35.92980812 -22.5 32.5625 C-24.10725635 29.34798731 -23.55748185 26.12637464 -23.5 22.5625 C-20.2 22.5625 -16.9 22.5625 -13.5 22.5625 C-13.56960937 20.80873047 -13.56960937 20.80873047 -13.640625 19.01953125 C-13.67815594 17.4713798 -13.71455469 15.92320061 -13.75 14.375 C-13.78351562 13.60607422 -13.81703125 12.83714844 -13.8515625 12.04492188 C-13.91547937 8.32176427 -13.68718859 5.95950437 -12.078125 2.546875 C-8.20194797 -0.43660671 -4.75974616 -0.13281343 0 0 Z " fill="#8492D9" transform="translate(35.5,112.4375)"/>
<path d="M0 0 C0.72264038 -0.00073013 1.44528076 -0.00146027 2.18981934 -0.00221252 C4.56043564 0.00125002 6.92904669 0.04004269 9.29931641 0.0793457 C10.94982836 0.0886787 12.60035422 0.09579252 14.25088501 0.1007843 C18.58146847 0.11981611 22.91120483 0.16888291 27.24145508 0.2243042 C31.66557355 0.27557979 36.08982977 0.298316 40.51416016 0.32348633 C49.18512052 0.37700633 57.85539414 0.46227158 66.52587891 0.56762695 C66.19587891 3.86762695 65.86587891 7.16762695 65.52587891 10.56762695 C64.26130859 10.60500977 62.99673828 10.64239258 61.69384766 10.6809082 C60.03366161 10.74656528 58.37350669 10.81301271 56.71337891 10.88012695 C55.88 10.90268555 55.04662109 10.92524414 54.18798828 10.94848633 C52.98432617 11.00166016 52.98432617 11.00166016 51.75634766 11.0559082 C51.01795654 11.08209229 50.27956543 11.10827637 49.51879883 11.13525391 C46.95993685 11.69041066 46.06495188 12.46414817 44.52587891 14.56762695 C44.02643281 16.58555521 44.02643281 16.58555521 44.01416016 18.7980957 C43.96449097 19.88320435 43.96449097 19.88320435 43.91381836 20.99023438 C43.87647583 22.3588562 43.87647583 22.3588562 43.83837891 23.75512695 C43.73525391 26.66325195 43.63212891 29.57137695 43.52587891 32.56762695 C36.92587891 32.56762695 30.32587891 32.56762695 23.52587891 32.56762695 C23.21337891 23.75512695 23.21337891 23.75512695 23.13793945 20.99023438 C23.10482666 20.26682861 23.07171387 19.54342285 23.03759766 18.7980957 C23.01141357 18.05970459 22.98522949 17.32131348 22.95825195 16.56054688 C22.40234439 13.99822423 21.6390009 13.10153108 19.52587891 11.56762695 C16.38891932 10.9454232 13.2177147 11.10404211 10.02587891 11.13012695 C9.15833984 11.11014648 8.29080078 11.09016602 7.39697266 11.06958008 C2.62555139 11.00957873 2.62555139 11.00957873 -1.52490234 13.0480957 C-2.93010942 16.77796635 -3.04673606 20.35901703 -3.16162109 24.31762695 C-3.19578125 25.11040039 -3.22994141 25.90317383 -3.26513672 26.7199707 C-3.34731213 28.668702 -3.41240155 30.61814057 -3.47412109 32.56762695 C-6.77412109 32.56762695 -10.07412109 32.56762695 -13.47412109 32.56762695 C-13.64855676 28.17229547 -13.7550281 23.77785429 -13.84912109 19.38012695 C-13.89939453 18.13424805 -13.94966797 16.88836914 -14.00146484 15.60473633 C-14.02080078 14.40268555 -14.04013672 13.20063477 -14.06005859 11.9621582 C-14.09147949 10.85718994 -14.12290039 9.75222168 -14.15527344 8.61376953 C-13.36816098 5.09376876 -12.04073675 3.81174404 -9.24611473 1.61182117 C-6.22080555 -0.17092245 -3.45640407 -0.0294915 0 0 Z " fill="#697CD3" transform="translate(25.47412109375,155.432373046875)"/>
<path d="M0 0 C3.63 0 7.26 0 11 0 C9.98350302 15.24745466 3.72047251 27.90602624 -7.3125 38.4375 C-18.37746644 47.57477194 -31.35968137 51.55071291 -45.5 51.3125 C-46.48742187 51.31572266 -47.47484375 51.31894531 -48.4921875 51.32226562 C-55.73228304 51.26771696 -55.73228304 51.26771696 -58 49 C-56.94039062 48.65066406 -55.88078125 48.30132812 -54.7890625 47.94140625 C-53.40101541 47.48185012 -52.01299601 47.02221036 -50.625 46.5625 C-49.92632812 46.33240234 -49.22765625 46.10230469 -48.5078125 45.86523438 C-44.68189163 44.61264601 -44.68189163 44.61264601 -41 43 C-41.96679688 42.90203125 -42.93359375 42.8040625 -43.9296875 42.703125 C-57.36062849 41.16056148 -67.19607686 37.80392314 -77 28 C-76.625 25.375 -76.625 25.375 -76 23 C-74.2734375 22.296875 -74.2734375 22.296875 -72 22 C-69.8515625 23.328125 -69.8515625 23.328125 -67.625 25.25 C-57.99686466 33.17348187 -48.08304475 34.07152094 -36 33 C-28.76745985 31.52324518 -23.49238453 28.30643659 -17.97265625 23.48828125 C-16 22 -16 22 -13.9609375 21.6015625 C-10.94119889 20.6751885 -10.17081927 18.71084097 -8.5625 16.0625 C-7.964375 15.07765625 -7.36625 14.0928125 -6.75 13.078125 C-4.31536891 8.79578281 -2.12532137 4.44385378 0 0 Z " fill="#E9E7E9" transform="translate(215,179)"/>
<path d="M0 0 C1.10327108 0.93724732 2.20532649 1.87592574 3.30688477 2.81518555 C3.92072525 3.33775436 4.53456573 3.86032318 5.16700745 4.39872742 C7.87008713 6.76009401 10.41100826 9.26504152 12.9375 11.8125 C13.43056641 12.30169922 13.92363281 12.79089844 14.43164062 13.29492188 C18 16.87317961 18 16.87317961 18 18 C15.94921875 18.22786458 13.8984375 18.45572917 11.84765625 18.68359375 C9.98859771 18.81886614 9.98859771 18.81886614 9 20 C8.87579266 22.29983022 8.82195547 24.60347386 8.79467773 26.90649414 C8.77982834 27.98935951 8.77982834 27.98935951 8.76467896 29.09410095 C8.73297701 31.49108551 8.70827241 33.88808992 8.68359375 36.28515625 C8.66303171 37.94283069 8.64203545 39.6004998 8.62062073 41.25816345 C8.5653225 45.62948295 8.51594756 50.00085037 8.46777344 54.37225342 C8.41761484 58.82959274 8.3618994 63.28686213 8.30664062 67.74414062 C8.19896432 76.4960347 8.09754055 85.24798712 8 94 C6.56360955 93.52516047 5.1275584 93.04929448 3.69165039 92.57299805 C2.89191299 92.30811081 2.0921756 92.04322357 1.26820374 91.77030945 C-2.89423642 90.35669438 -6.93155623 88.66175872 -11 87 C-11 80.4 -11 73.8 -11 67 C-10.67 67 -10.34 67 -10 67 C-10 71.62 -10 76.24 -10 81 C-4.98464948 80.67039784 -4.98464948 80.67039784 -1 78 C-0.7827946 75.50272102 -0.68863071 73.11286738 -0.68115234 70.61279297 C-0.66608391 69.47118713 -0.66608391 69.47118713 -0.65071106 68.30651855 C-0.61976298 65.78508272 -0.60281192 63.26375361 -0.5859375 60.7421875 C-0.56723517 58.99625727 -0.54766247 57.25033615 -0.5272522 55.50442505 C-0.47582605 50.90461598 -0.43625661 46.30477757 -0.39910889 41.70483398 C-0.35913477 37.01278361 -0.30801245 32.32085639 -0.2578125 27.62890625 C-0.16092919 18.41935721 -0.07656428 9.2097388 0 0 Z " fill="#0EC7AA" transform="translate(202,10)"/>
<path d="M0 0 C1.28874023 -0.0299707 1.28874023 -0.0299707 2.60351562 -0.06054688 C6.33891667 -0.05764897 8.849357 0.03045491 12.12890625 1.90234375 C14.28079989 5.70773605 14.14492049 9.1378978 14.0625 13.4375 C14.07796875 14.24445313 14.0934375 15.05140625 14.109375 15.8828125 C14.0857263 19.46559126 13.91067066 21.82179766 12.12890625 24.97265625 C8.17319613 27.23048166 4.47323739 26.97902878 0 26.875 C-0.86302734 26.88208984 -1.72605469 26.88917969 -2.61523438 26.89648438 C-8.88173446 26.83318639 -8.88173446 26.83318639 -11.18188477 25.19555664 C-12.7826074 22.95429596 -12.8243935 21.61477495 -12.8359375 18.875 C-12.83980469 17.99585938 -12.84367187 17.11671875 -12.84765625 16.2109375 C-12.83605469 15.29570312 -12.82445313 14.38046875 -12.8125 13.4375 C-12.82990234 12.06464844 -12.82990234 12.06464844 -12.84765625 10.6640625 C-12.84378906 9.78492188 -12.83992188 8.90578125 -12.8359375 8 C-12.83086182 6.79537109 -12.83086182 6.79537109 -12.82568359 5.56640625 C-11.60292882 -1.1395193 -5.4147551 -0.04448268 0 0 Z " fill="#020305" transform="translate(35.4375,165.5625)"/>
<path d="M0 0 C1.28874023 -0.0299707 1.28874023 -0.0299707 2.60351562 -0.06054688 C6.33891667 -0.05764897 8.849357 0.03045491 12.12890625 1.90234375 C14.28079989 5.70773605 14.14492049 9.1378978 14.0625 13.4375 C14.07796875 14.24445313 14.0934375 15.05140625 14.109375 15.8828125 C14.0857263 19.46559126 13.91067066 21.82179766 12.12890625 24.97265625 C8.17319613 27.23048166 4.47323739 26.97902878 0 26.875 C-0.86302734 26.88208984 -1.72605469 26.88917969 -2.61523438 26.89648438 C-8.88173446 26.83318639 -8.88173446 26.83318639 -11.18188477 25.19555664 C-12.7826074 22.95429596 -12.8243935 21.61477495 -12.8359375 18.875 C-12.83980469 17.99585938 -12.84367187 17.11671875 -12.84765625 16.2109375 C-12.83605469 15.29570313 -12.82445313 14.38046875 -12.8125 13.4375 C-12.82990234 12.06464844 -12.82990234 12.06464844 -12.84765625 10.6640625 C-12.84378906 9.78492187 -12.83992188 8.90578125 -12.8359375 8 C-12.83086182 6.79537109 -12.83086182 6.79537109 -12.82568359 5.56640625 C-11.60292882 -1.1395193 -5.4147551 -0.04448268 0 0 Z " fill="#040606" transform="translate(35.4375,112.5625)"/>
<path d="M0 0 C1.28874023 -0.0299707 1.28874023 -0.0299707 2.60351562 -0.06054688 C6.33891667 -0.05764897 8.849357 0.03045491 12.12890625 1.90234375 C14.28079989 5.70773605 14.14492049 9.1378978 14.0625 13.4375 C14.07796875 14.24445313 14.0934375 15.05140625 14.109375 15.8828125 C14.0857263 19.46559126 13.91067066 21.82179766 12.12890625 24.97265625 C8.17319613 27.23048166 4.47323739 26.97902878 0 26.875 C-0.86302734 26.88208984 -1.72605469 26.88917969 -2.61523438 26.89648438 C-8.88173446 26.83318639 -8.88173446 26.83318639 -11.18188477 25.19555664 C-12.7826074 22.95429596 -12.8243935 21.61477495 -12.8359375 18.875 C-12.83980469 17.99585937 -12.84367187 17.11671875 -12.84765625 16.2109375 C-12.83605469 15.29570313 -12.82445313 14.38046875 -12.8125 13.4375 C-12.82990234 12.06464844 -12.82990234 12.06464844 -12.84765625 10.6640625 C-12.84378906 9.78492187 -12.83992188 8.90578125 -12.8359375 8 C-12.83086182 6.79537109 -12.83086182 6.79537109 -12.82568359 5.56640625 C-11.60292882 -1.1395193 -5.4147551 -0.04448268 0 0 Z " fill="#020305" transform="translate(35.4375,59.5625)"/>
<path d="M0 0 C3.32975293 0.47159591 5.29082395 1.78897837 7.875 3.875 C17.4018401 11.24548668 27.31985443 12.03579195 39 11 C46.31745145 9.50590782 51.53406197 6.27285971 57.02734375 1.29296875 C59 0 59 0 61.25390625 0.30078125 C61.83011719 0.53152344 62.40632813 0.76226562 63 1 C63.495 3.475 63.495 3.475 64 6 C54.1719743 15.30525837 43.77812752 19.91206645 30.0625 20.4375 C17.8774935 20.05522529 8.28674907 15.31624319 -0.7890625 7.44921875 C-1.18867188 6.97097656 -1.58828125 6.49273437 -2 6 C-1.57894737 1.57894737 -1.57894737 1.57894737 0 0 Z " fill="#080808" transform="translate(140,201)"/>
<path d="M0 0 C12.13732353 6.06866177 18.78252818 18.67200545 23 31 C24.08805016 34.71632718 24.07445322 38.12843248 24 42 C20.7 42 17.4 42 14 42 C13.773125 40.39125 13.54625 38.7825 13.3125 37.125 C11.22654366 25.69630961 5.15437667 16.02545186 -4 9 C-3.35455571 5.51460083 -1.89865603 2.97180943 0 0 Z " fill="#59DBBF" transform="translate(202,130)"/>
<path d="M0 0 C2.0245738 1.93254772 3.42105792 3.63158688 5 6 C4.9375 7.9375 4.9375 7.9375 4 10 C3.24074219 10.58523437 2.48148438 11.17046875 1.69921875 11.7734375 C-7.43059076 19.30453941 -11.78070438 30.53862119 -13 42 C-16.3 42 -19.6 42 -23 42 C-23.99479037 31.05730592 -18.64445011 19.71038947 -11.85546875 11.36328125 C-8.152978 7.15730088 -4.44834413 3.42240561 0 0 Z " fill="#F46EBD" transform="translate(139,130)"/>
<path d="M0 0 C0 3.99904969 -1.72586967 5.80200422 -4 9 C-6.62897735 8.41012695 -9.25225094 7.80395811 -11.875 7.1875 C-12.62136719 7.02185547 -13.36773437 6.85621094 -14.13671875 6.68554688 C-19.7734375 5.33984375 -19.7734375 5.33984375 -22 2 C-24.47266765 2.34444881 -24.47266765 2.34444881 -27 3 C-27.33 3.66 -27.66 4.32 -28 5 C-30.58203125 5.81640625 -30.58203125 5.81640625 -33.8125 6.5625 C-34.87082031 6.81128906 -35.92914063 7.06007812 -37.01953125 7.31640625 C-38.00308594 7.54199219 -38.98664063 7.76757812 -40 8 C-41.32 8.33 -42.64 8.66 -44 9 C-46.475 5.04 -46.475 5.04 -49 1 C-32.96926214 -7.74403883 -16.51981625 -6.73296732 0 0 Z " fill="#F6BC41" transform="translate(195,125)"/>
<path d="M0 0 C9.9 0 19.8 0 30 0 C30 3.63 30 7.26 30 11 C20.1 11 10.2 11 0 11 C0 7.37 0 3.74 0 0 Z " fill="#F0A834" transform="translate(114,67)"/>
<path d="M0 0 C0.33 0.66 0.66 1.32 1 2 C4.3 1.67 7.6 1.34 11 1 C11.61329305 6.87009063 11.61329305 6.87009063 11 10 C9.38861864 11.66336141 7.75706924 12.64722307 5.7578125 13.8046875 C3.08090039 15.62498774 2.16223797 18.06022161 1 21 C-2.3 21 -5.6 21 -9 21 C-8.855625 20.154375 -8.71125 19.30875 -8.5625 18.4375 C-8.17853697 16.09105925 -7.84739021 13.73551888 -7.5625 11.375 C-6.59325432 5.55952593 -4.74525466 3.49650343 0 0 Z " fill="#C0E5F3" transform="translate(156,151)"/>
<path d="M0 0 C5.91479642 0.36213039 9.70378272 1.84698997 14 6 C17.4789797 10.35769106 19.57606882 14.3475843 20 20 C16.7 20 13.4 20 10 20 C9.46375 18.9275 8.9275 17.855 8.375 16.75 C6.67008583 13.67134203 5.9693625 12.98232452 2.75 11.125 C0 9 0 9 -0.3828125 6.7578125 C-0.37570437 4.47610332 -0.26143748 2.26579146 0 0 Z " fill="#BFE5F3" transform="translate(175,152)"/>
<path d="M0 0 C4.91511194 1.34048507 4.91511194 1.34048507 6.4375 3.9375 C6.97818562 7.56781776 6.90129841 9.25964079 4.8125 12.3125 C1.72563568 14.42456506 0.1092087 14.54945145 -3.5625 13.9375 C-5.9375 12.3125 -5.9375 12.3125 -7.5625 9.9375 C-8.17225382 6.27897708 -8.00793026 4.63237121 -6 1.5 C-3.5625 -0.0625 -3.5625 -0.0625 0 0 Z " fill="#F66FBF" transform="translate(171.5625,168.0625)"/>
<path d="M0 0 C4.62 0 9.24 0 14 0 C14 3.63 14 7.26 14 11 C9.38 11 4.76 11 0 11 C0 7.37 0 3.74 0 0 Z " fill="#EBD06E" transform="translate(77,174)"/>
<path d="M0 0 C5.28 0 10.56 0 16 0 C11.68 8.64 11.68 8.64 8 12 C5.03470084 12.70399189 3.07920402 12.4247178 0 12 C0 8.04 0 4.08 0 0 Z " fill="#DFAA3B" transform="translate(95,120)"/>
<path d="M0 0 C3.63 0 7.26 0 11 0 C11 3.96 11 7.92 11 12 C7.37 12 3.74 12 0 12 C0 8.04 0 4.08 0 0 Z " fill="#53C9AF" transform="translate(30,173)"/>
<path d="M0 0 C3.63 0 7.26 0 11 0 C11 3.96 11 7.92 11 12 C7.37 12 3.74 12 0 12 C0 8.04 0 4.08 0 0 Z " fill="#53C9AF" transform="translate(30,67)"/>
<path d="M0 0 C3.63 0 7.26 0 11 0 C11 3.63 11 7.26 11 11 C7.37 11 3.74 11 0 11 C0 7.37 0 3.74 0 0 Z " fill="#F1D570" transform="translate(77,121)"/>
<path d="M0 0 C3.63 0 7.26 0 11 0 C11 3.63 11 7.26 11 11 C7.37 11 3.74 11 0 11 C0 7.37 0 3.74 0 0 Z " fill="#57D2B7" transform="translate(30,121)"/>
<path d="M0 0 C3.63 0 7.26 0 11 0 C11 3.63 11 7.26 11 11 C7.37 11 3.74 11 0 11 C0 7.37 0 3.74 0 0 Z " fill="#F3D671" transform="translate(77,67)"/>
<path d="M0 0 C4.94211131 6.02190033 6.49965798 13.33857767 6 21 C2.7 21 -0.6 21 -4 21 C-3.34 20.67 -2.68 20.34 -2 20 C-1.53146291 17.96820406 -1.53146291 17.96820406 -1.3671875 15.52734375 C-1.28339844 14.62822266 -1.19960937 13.72910156 -1.11328125 12.80273438 C-0.99533203 11.38444336 -0.99533203 11.38444336 -0.875 9.9375 C-0.78863281 8.98810547 -0.70226562 8.03871094 -0.61328125 7.06054688 C-0.40045632 4.70764908 -0.19642969 2.35431405 0 0 Z " fill="#0DC0A4" transform="translate(220,151)"/>
<path d="M0 0 C3.3 0 6.6 0 10 0 C10 3.3 10 6.6 10 10 C6.7 10 3.4 10 0 10 C0 6.7 0 3.4 0 0 Z " fill="#FFC344" transform="translate(96,68)"/>
</svg>
