<svg xmlns="http://www.w3.org/2000/svg" width="415.053" height="401.343" viewBox="0 0 415.053 401.343">
  <g id="Group_5708" data-name="Group 5708" transform="translate(0)">
    <path id="Path_41172" data-name="Path 41172" d="M806.489,664a2.166,2.166,0,0,1-1.57-3.754l.148-.59-.059-.142a5.816,5.816,0,0,0-10.728.04c-1.755,4.226-3.989,8.459-4.539,12.928a17.207,17.207,0,0,0,.3,5.917,68.982,68.982,0,0,1-6.275-28.65,66.552,66.552,0,0,1,.413-7.428q.342-3.033.949-6.022a69.78,69.78,0,0,1,13.838-29.575,18.57,18.57,0,0,0,7.724-8.013,14.162,14.162,0,0,0,1.288-3.871c-.376.049-1.418-5.677-1.134-6.028-.524-.8-1.462-1.19-2.034-1.966-2.846-3.859-6.768-3.185-8.815,2.059-4.373,2.207-4.415,5.867-1.732,9.388,1.707,2.24,1.942,5.27,3.44,7.668-.154.2-.314.388-.469.586a70.23,70.23,0,0,0-7.331,11.613,29.2,29.2,0,0,0-1.743-13.561c-1.668-4.025-4.8-7.414-7.549-10.894a5.993,5.993,0,0,0-10.673,2.943q-.008.077-.016.154.614.346,1.2.735a2.938,2.938,0,0,1-1.184,5.346l-.06.009a29.254,29.254,0,0,0,.771,4.37c-3.533,13.662,4.094,18.638,14.985,18.862.24.123.475.247.715.364a71.685,71.685,0,0,0-3.859,18.159,67.98,67.98,0,0,0,.049,10.978l-.019-.129a17.966,17.966,0,0,0-6.133-10.374c-4.72-3.877-11.388-5.3-16.48-8.421a3.372,3.372,0,0,0-5.164,3.28q.01.068.021.136a19.74,19.74,0,0,1,2.213,1.066q.614.346,1.2.735A2.938,2.938,0,0,1,757,647.262l-.06.009-.123.018a29.259,29.259,0,0,0,5.381,8.426c2.209,11.927,11.7,13.058,21.845,9.585h.006a71.671,71.671,0,0,0,4.814,14.054h17.2c.062-.191.117-.388.173-.579a19.541,19.541,0,0,1-4.759-.283c1.276-1.566,2.552-3.144,3.828-4.709a1.1,1.1,0,0,0,.08-.092c.647-.8,1.3-1.6,1.948-2.4h0A28.619,28.619,0,0,0,806.49,664Z" transform="translate(-427.835 -280.043)" fill="#f2f2f2"/>
    <path id="Path_41173" data-name="Path 41173" d="M784.5,476.551c4.558-16.549,13.06-30.644,26.787-41.487a3.774,3.774,0,0,1,5.212-1.122l31.332,20.23a3.774,3.774,0,0,1,1.122,5.212L822.17,500.871a3.774,3.774,0,0,1-5.212,1.122l-31.332-20.23a3.774,3.774,0,0,1-1.122-5.212Z" transform="translate(-434.506 -245.521)" fill="#f2f2f2"/>
    <path id="Path_41174" data-name="Path 41174" d="M797.542,466.741c1.174-8.744,8.408-17.682,17.221-26.672a3.535,3.535,0,0,1,4.881-1.051L846.571,456.4a3.535,3.535,0,0,1,1.051,4.881L823.785,498.2a3.535,3.535,0,0,1-4.882,1.051l-16.681-10.77a15.745,15.745,0,0,1-4.682-21.743Z" transform="translate(-437.049 -246.69)" fill="#fff"/>
    <path id="Path_41175" data-name="Path 41175" d="M800.674,505.7c-3.976-16.7-3.313-33.146,3.5-49.26a3.774,3.774,0,0,1,4.027-3.494l37.2,2.64a3.774,3.774,0,0,1,3.494,4.027l-3.5,49.259a3.774,3.774,0,0,1-4.027,3.494l-37.2-2.64a3.774,3.774,0,0,1-3.494-4.027Z" transform="translate(-437.78 -250.001)" fill="#f2f2f2"/>
    <path id="Path_41176" data-name="Path 41176" d="M806,491.957c-3.182-8.229-1.147-19.546,2.247-31.668a3.535,3.535,0,0,1,3.772-3.272l31.972,2.269a3.535,3.535,0,0,1,3.272,3.772l-3.11,43.834a3.535,3.535,0,0,1-3.772,3.272l-19.806-1.405A15.745,15.745,0,0,1,806,491.957Z" transform="translate(-439.192 -250.93)" fill="#fff"/>
    <path id="Path_41177" data-name="Path 41177" d="M795.1,368.08l-15.938-58.99a9.863,9.863,0,0,0-11.964-6.953h0a9.863,9.863,0,0,0-6.96,12.507l18.434,60.768,9.645,37.4a8.607,8.607,0,1,0,11.035.492Z" transform="translate(-428.993 -215.462)" fill="#ffb6b6"/>
    <path id="Path_41178" data-name="Path 41178" d="M645.831,379.8l16.344-58.878a9.863,9.863,0,0,0-6.751-12.079h0a9.863,9.863,0,0,0-12.362,7.215l-15.1,61.681L617.2,414.829a8.607,8.607,0,1,0,9.244,6.046Z" transform="translate(-394.669 -216.975)" fill="#ffb6b6"/>
    <path id="Path_41179" data-name="Path 41179" d="M442.262,492.337H431.847l-4.954-40.171h15.371Z" transform="translate(-97.569 -103.346)" fill="#ffb6b6"/>
    <path id="Path_41180" data-name="Path 41180" d="M768.791,703.069H736.765v-.405A12.466,12.466,0,0,1,749.229,690.2h0l5.85-4.438L766,690.2h2.8Z" transform="translate(-423.732 -303.213)" fill="#2f2e41"/>
    <path id="Path_41181" data-name="Path 41181" d="M348.772,491.858l-10.253-1.829,2.174-40.418,15.133,2.7Z" transform="translate(-77.371 -102.762)" fill="#ffb6b6"/>
    <path id="Path_41182" data-name="Path 41182" d="M671.453,702.436l-31.529-5.623.071-.4a12.467,12.467,0,0,1,14.46-10.084h0l6.538-3.342,9.966,6.286,2.752.491Z" transform="translate(-401.598 -302.58)" fill="#2f2e41"/>
    <path id="Path_41183" data-name="Path 41183" d="M680.185,452.382s-9.706,13.748-9.311,18.362,3.823.933.4,4.614-5.425,1.211-3.741,5.758,2.37,1.6,1.684,4.547.686,115.566.686,115.566h17.849s10.066-65.3,8.791-68.352-1.245-1.722.112-4.961,2.633-7.094,2.633-7.094l14.108-39.705,10.883,55.9,12.81,66.431h17.1s2.929-97.688,4.224-98.9-.254-3.953-1.879-5.529-1.3-3.177-.777-6.425,2.733-5.06,2.656-7.1,4.723-34.427-2.818-39.579S680.185,452.382,680.185,452.382Z" transform="translate(-407.769 -248.093)" fill="#2f2e41"/>
    <path id="Path_41184" data-name="Path 41184" d="M740.178,271.833l-19.965-5.174-9.32-12.854-22.133,2.721-4.711,17.533-15.757,9.146c28.246.169,13.035,82,17.186,87.279,3.379,4.3-16.862,14.518-10.519,21.038s4,3.911,2.526,11.01-12.2,14.611,0,14.536,85.835-1.126,83.731-9.542-2.071-6.278-5.243-11.554-5.307-2.328-4.24-10.113-2.4-13.807.016-17.252c3.707-5.288-.029-43.461-3.525-42.442Z" transform="translate(-408.082 -204.487)" fill="#6c63ff"/>
    <path id="Path_41185" data-name="Path 41185" d="M754.087,277.036s14.6-6.2,19.864,5.366c1.68,3.7,3.094,12.978,4.457,10.92s.048,2.454.892,2.46c.753,0,1.911-1.213,1.036,2.983a8.311,8.311,0,0,0,2.428,7.65l-25.383,15.2Z" transform="translate(-427.691 -209.417)" fill="#6c63ff"/>
    <path id="Path_41186" data-name="Path 41186" d="M674.461,290.671s-14.6-6.2-19.864,5.366c-1.479,3.254-1.111,10.485-3.992,9.673s-.836,2.247-1.216,3.309c-.424,1.184,1.426,4.536-1.171,3.363s-2.434,7.667-2.434,7.667l25.383,15.2Z" transform="translate(-402.937 -212.533)" fill="#6c63ff"/>
    <path id="Path_41187" data-name="Path 41187" d="M684.766,268.7l-4.208,7.363s-11.571,6.311-11.571,7.363,2.1,9.641,0,16.391,4.016,19.445,5.259,29.892c5.259,44.179-10.381,60.232-13.674,88.359l33.379,9.749s5.541-73.914,5.541-90.744S684.766,268.7,684.766,268.7Z" transform="translate(-406.318 -207.891)" fill="#2f2e41"/>
    <path id="Path_41188" data-name="Path 41188" d="M730.6,264.61l8.6,4.891s11.253,2.481,11.387,3.524.174,12.131,3.123,18.558,2.136,9.843,10.078,28.841c4.058,9.706,13.373,87.366,13.373,87.366L745.3,421.722s-14.937-72.6-17.087-89.293S730.6,264.61,730.6,264.61Z" transform="translate(-421.645 -206.956)" fill="#2f2e41"/>
    <circle id="Ellipse_3611" data-name="Ellipse 3611" cx="21.75" cy="21.75" r="21.75" transform="translate(265.702 4.125)" fill="#ffb6b6"/>
    <path id="Path_41189" data-name="Path 41189" d="M710.2,232.649c-5.141-4.019,1.887-21.7-6.6-17.924,0,0-10.377-6.6-12.462-2.264-2.414,5.025-11,2.745-16.273.972a12.816,12.816,0,0,0,.877-3.009,24.1,24.1,0,0,1-3.085,2.066,6.262,6.262,0,0,1-1.887-1.547,3.832,3.832,0,0,1-.481-4.349c.877-1.349,2.689-1.764,3.755-2.962a1.29,1.29,0,0,0,.177-1.185,3.39,3.39,0,0,1,3.037-4.246,1.219,1.219,0,0,0,.578-.126,13.215,13.215,0,0,0,2.462-1.943c-1.236.057.275-7.508,12.528-6.075,3.085-.113,4.7,3.289,7.733,3.827,7.363-4.208,13.936,1.862,17.134,7.664S724.347,226.045,710.2,232.649Z" transform="translate(-408.431 -189.875)" fill="#2f2e41"/>
    <path id="Path_41190" data-name="Path 41190" d="M539.95,204.875H344.983a14.006,14.006,0,0,0-13.994,13.986V394.542a14.012,14.012,0,0,0,13.994,13.994H539.95a14.006,14.006,0,0,0,13.986-13.994V218.861A14,14,0,0,0,539.95,204.875Z" transform="translate(-330.989 -193.303)" fill="#fff"/>
    <path id="Path_41191" data-name="Path 41191" d="M479.069,254.857H458.24a3.857,3.857,0,0,1,0-7.714h20.829a3.857,3.857,0,1,1,0,7.714Z" transform="translate(-359.192 -202.964)" fill="#6c63ff"/>
    <path id="Path_41192" data-name="Path 41192" d="M837.069,484.59H816.24a3.857,3.857,0,1,1,0-7.714h20.829a3.857,3.857,0,0,1,0,7.714Z" transform="translate(-441.015 -255.471)" fill="#6c63ff"/>
    <path id="Path_41193" data-name="Path 41193" d="M517.071,359.59H388.24a3.857,3.857,0,1,1,0-7.714H517.071a3.857,3.857,0,0,1,0,7.714Z" transform="translate(-343.193 -226.901)" fill="#e6e6e6"/>
    <path id="Path_41194" data-name="Path 41194" d="M517.071,392.59H388.24a3.857,3.857,0,1,1,0-7.714H517.071a3.857,3.857,0,0,1,0,7.714Z" transform="translate(-343.193 -234.444)" fill="#e6e6e6"/>
    <path id="Path_41195" data-name="Path 41195" d="M517.071,425.59H388.24a3.857,3.857,0,1,1,0-7.714H517.071a3.857,3.857,0,1,1,0,7.714Z" transform="translate(-343.193 -241.986)" fill="#e6e6e6"/>
    <path id="Path_41196" data-name="Path 41196" d="M495.538,272.145H419.373a14.006,14.006,0,0,0-13.994,13.986v22.935a14.012,14.012,0,0,0,13.994,13.994h76.165a14.006,14.006,0,0,0,13.986-13.994V286.131a14,14,0,0,0-13.986-13.986Zm12.443,36.921a12.451,12.451,0,0,1-12.451,12.451H440.856a33.934,33.934,0,0,1-33.934-33.934v-1.452a12.463,12.463,0,0,1,12.451-12.443h76.165a12.457,12.457,0,0,1,12.443,12.443Z" transform="translate(-347.991 -208.678)" fill="#e6e6e6"/>
    <circle id="Ellipse_3612" data-name="Ellipse 3612" cx="13.115" cy="13.115" r="13.115" transform="translate(97.202 70.973)" fill="#e6e6e6"/>
    <path id="Path_41197" data-name="Path 41197" d="M164.715,144.551,106,144.343l18.515-4.629,2.307-7.614,17.751-.1,5.315,7.529,13.423,3.479,1.219.316Z" transform="translate(-24.227 -30.17)" fill="#e6e6e6"/>
    <path id="Path_41198" data-name="Path 41198" d="M462.65,302.792c2.814-2.2-1.033-11.877,3.615-9.811,0,0,5.68-3.615,6.821-1.239,1.321,2.75,6.021,1.5,8.908.532a7.014,7.014,0,0,1-.48-1.647,13.189,13.189,0,0,0,1.689,1.131,3.428,3.428,0,0,0,1.033-.847,2.1,2.1,0,0,0,.263-2.38c-.48-.738-1.472-.966-2.055-1.621a.706.706,0,0,1-.1-.649,1.856,1.856,0,0,0-1.663-2.324.668.668,0,0,1-.316-.069,7.236,7.236,0,0,1-1.348-1.064c.676.031-.151-4.11-6.857-3.325-1.689-.062-2.57,1.8-4.233,2.095-4.03-2.3-7.628,1.019-9.379,4.195S454.9,299.178,462.65,302.792Z" transform="translate(-359.787 -210.332)" fill="#e6e6e6"/>
    <path id="Path_41199" data-name="Path 41199" d="M539.95,204.875H344.983a14.006,14.006,0,0,0-13.994,13.986V394.542a14.012,14.012,0,0,0,13.994,13.994H539.95a14.006,14.006,0,0,0,13.986-13.994V218.861A14,14,0,0,0,539.95,204.875Zm12.443,189.667a12.451,12.451,0,0,1-12.451,12.451H432.974A100.442,100.442,0,0,1,332.532,306.551V218.861a12.463,12.463,0,0,1,12.451-12.443H539.95a12.457,12.457,0,0,1,12.443,12.443Z" transform="translate(-330.989 -193.303)" fill="#e6e6e6"/>
    <path id="Path_41200" data-name="Path 41200" d="M793.547,709.273l-243.28.237a.919.919,0,0,1,0-1.837l243.28-.237a.919.919,0,0,1,0,1.837Z" transform="translate(-380.897 -308.167)" fill="#cacaca"/>
  </g>
</svg>
