<svg id="Group_5710" data-name="Group 5710" xmlns="http://www.w3.org/2000/svg" width="671.401" height="435.35" viewBox="0 0 671.401 435.35">
  <path id="Path_41201" data-name="Path 41201" d="M176.272,579.2c3.327-33.963,23.438-67.865,55.436-79.723a157.229,157.229,0,0,0,2.821,107.911c5.311,13.29,12.6,27.519,8.288,41.165-2.684,8.491-9.619,15.115-17.454,19.348s-16.6,6.381-25.249,8.489l-1.676,1.461C183.812,647.018,172.945,613.162,176.272,579.2Z" transform="translate(-154.993 -245.07)" fill="#f0f0f0"/>
  <path id="Path_41202" data-name="Path 41202" d="M239.663,499.861a134.388,134.388,0,0,0-31.426,76.479,57.873,57.873,0,0,0,1.13,18.1,33.192,33.192,0,0,0,8.654,15.175c3.826,3.99,8.2,7.628,10.992,12.478a20.324,20.324,0,0,1,1.425,16.56c-2.174,6.8-6.662,12.415-11.242,17.752-5.085,5.926-10.46,12-12.486,19.735-.245.937-1.685.5-1.44-.434,3.524-13.455,16.29-21.379,22.158-33.568,2.738-5.688,3.779-12.235.92-18.089-2.5-5.119-7.009-8.875-10.918-12.881a35.418,35.418,0,0,1-9.014-14.522,53.5,53.5,0,0,1-1.822-17.987,130.381,130.381,0,0,1,8.486-39.856,136.772,136.772,0,0,1,23.558-40.039c.624-.737,1.644.37,1.024,1.1Z" transform="translate(-162.611 -244.823)" fill="#fff"/>
  <path id="Path_41203" data-name="Path 41203" d="M203.979,583.639a20.162,20.162,0,0,1-15.893-20.714.753.753,0,0,1,1.5.036A18.67,18.67,0,0,0,204.413,582.2C205.36,582.4,204.92,583.837,203.979,583.639Z" transform="translate(-158.185 -261.232)" fill="#fff"/>
  <path id="Path_41204" data-name="Path 41204" d="M219.358,637.677a38.862,38.862,0,0,0,16.765-22.826c.249-.936,1.688-.5,1.44.434A40.421,40.421,0,0,1,220.069,639c-.821.516-1.528-.812-.711-1.325Z" transform="translate(-166.154 -274.656)" fill="#fff"/>
  <path id="Path_41205" data-name="Path 41205" d="M227.514,534.659a11.413,11.413,0,0,0,10.8-.831c.814-.526,1.52.8.711,1.325a12.789,12.789,0,0,1-11.943.945.777.777,0,0,1-.5-.937.756.756,0,0,1,.937-.5Z" transform="translate(-168.1 -253.888)" fill="#fff"/>
  <path id="Path_41206" data-name="Path 41206" d="M339.356,576.415c-.5.343-1,.686-1.5,1.042a150.288,150.288,0,0,0-18.82,15.5c-.459.431-.917.875-1.363,1.318A158.452,158.452,0,0,0,284.5,642.262a153.882,153.882,0,0,0-7.858,22.02c-2.84,10.4-5.092,21.9-11.027,30.5a26.4,26.4,0,0,1-1.99,2.591l-55.618,1.45c-.128-.06-.256-.108-.385-.168l-2.218.159c.079-.4.169-.8.248-1.2.045-.23.1-.46.147-.69.034-.153.068-.307.09-.447.011-.051.023-.1.034-.141.022-.14.057-.268.079-.4q.749-3.429,1.548-6.859c0-.013,0-.013.012-.026,4.1-17.414,9.7-34.639,17.731-50.467.242-.476.483-.965.75-1.442A146.832,146.832,0,0,1,238.711,616.8a129.816,129.816,0,0,1,8.384-10.11,107.946,107.946,0,0,1,26.475-20.931c19.673-11.052,42.663-15.69,64.149-9.812C338.269,576.1,338.806,576.252,339.356,576.415Z" transform="translate(-162.654 -264.109)" fill="#f0f0f0"/>
  <path id="Path_41207" data-name="Path 41207" d="M339.327,577.894a134.388,134.388,0,0,0-71.137,42.143,57.874,57.874,0,0,0-9.993,15.13,33.193,33.193,0,0,0-2.227,17.326c.653,5.489,1.956,11.028,1.263,16.581a20.324,20.324,0,0,1-8.832,14.08c-5.83,4.121-12.794,5.9-19.664,7.406-7.628,1.67-15.578,3.284-21.851,8.24-.76.6-1.647-.614-.888-1.214,10.915-8.622,25.878-7.262,37.9-13.461,5.611-2.893,10.384-7.494,11.626-13.889,1.086-5.593-.253-11.306-.962-16.858a35.419,35.419,0,0,1,1.546-17.023,53.5,53.5,0,0,1,9.375-15.458,130.381,130.381,0,0,1,30.772-26.714A136.773,136.773,0,0,1,339.172,576.4C340.114,576.186,340.262,577.683,339.327,577.894Z" transform="translate(-162.731 -264.879)" fill="#fff"/>
  <path id="Path_41208" data-name="Path 41208" d="M295.734,616.373a20.162,20.162,0,0,1-.218-26.107c.623-.741,1.8.193,1.179.934a18.67,18.67,0,0,0,.253,24.285C297.584,616.214,296.367,617.1,295.734,616.373Z" transform="translate(-184.658 -268.387)" fill="#fff"/>
  <path id="Path_41209" data-name="Path 41209" d="M272.175,672.337a38.861,38.861,0,0,0,27.129-8.132c.762-.6,1.65.617.888,1.214a40.423,40.423,0,0,1-28.247,8.4c-.966-.082-.731-1.568.23-1.486Z" transform="translate(-179.634 -287.462)" fill="#fff"/>
  <path id="Path_41210" data-name="Path 41210" d="M345.382,591.686a11.413,11.413,0,0,0,9.121,5.838c.967.07.73,1.556-.23,1.486a12.789,12.789,0,0,1-10.105-6.436.777.777,0,0,1,.163-1.051.756.756,0,0,1,1.051.163Z" transform="translate(-198.363 -268.744)" fill="#fff"/>
  <path id="Path_41211" data-name="Path 41211" d="M823.121,186.779c-.83-2.452-11.244-10.787-4.863-12.188l5.233,6.978,24.059-24.058,2.42,2.42Z" transform="translate(-319.991 -156.981)" fill="#6c63ff"/>
  <path id="Path_41212" data-name="Path 41212" d="M823.121,296.973c-.83-2.452-11.244-10.787-4.863-12.188l5.233,6.978L847.55,267.7l2.42,2.42Z" transform="translate(-319.991 -185.367)" fill="#6c63ff"/>
  <path id="Path_41213" data-name="Path 41213" d="M823.121,408.742c-.83-2.452-11.244-10.787-4.863-12.188l5.233,6.978,24.059-24.058,2.42,2.42Z" transform="translate(-319.991 -214.158)" fill="#6c63ff"/>
  <circle id="Ellipse_3613" data-name="Ellipse 3613" cx="7.424" cy="7.424" r="7.424" transform="translate(473.551 112.651)" fill="#3f3d56"/>
  <circle id="Ellipse_3614" data-name="Ellipse 3614" cx="7.424" cy="7.424" r="7.424" transform="translate(473.551 31.729)" fill="#3f3d56"/>
  <rect id="Rectangle_2157" data-name="Rectangle 2157" width="119.527" height="1.485" transform="translate(551.874 22.078)" fill="#3f3d56"/>
  <circle id="Ellipse_3615" data-name="Ellipse 3615" cx="7.424" cy="7.424" r="7.424" transform="translate(477.263 198.914)" fill="#3f3d56"/>
  <rect id="Rectangle_2158" data-name="Rectangle 2158" width="119.527" height="1.485" transform="translate(551.874 103.886)" fill="#3f3d56"/>
  <rect id="Rectangle_2159" data-name="Rectangle 2159" width="119.527" height="1.485" transform="translate(551.874 186.863)" fill="#3f3d56"/>
  <path id="Path_41214" data-name="Path 41214" d="M690.08,263.863H652.96V226H678.2v1.485H654.445v34.893H688.6V245.3h1.485Z" transform="translate(-168.2 -58.217)" fill="#3f3d56"/>
  <path id="Path_41215" data-name="Path 41215" d="M690.08,151.863H652.96V114H678.2v1.485H654.445v34.893H688.6V133.3h1.485Z" transform="translate(-168.2 -29.366)" fill="#3f3d56"/>
  <path id="Path_41216" data-name="Path 41216" d="M690.08,37.863H652.96V0H678.2V1.485H654.445V36.378H688.6V19.3h1.485Z" transform="translate(-168.2)" fill="#3f3d56"/>
  <path id="Path_41217" data-name="Path 41217" d="M523,332.449s-9.921,41.887,2.2,41.887,40.785-47.4,40.785-47.4l-9.921-12.125L538.26,339.535l-.933-12.6Z" transform="translate(-243.479 -197.501)" fill="#a0616a"/>
  <circle id="Ellipse_3616" data-name="Ellipse 3616" cx="9.651" cy="9.651" r="9.651" transform="translate(310.213 111.955)" fill="#a0616a"/>
  <path id="Path_41218" data-name="Path 41218" d="M365.174,548.854H378.02l6.112-49.552H365.171Z" transform="translate(-94.067 -128.618)" fill="#a0616a"/>
  <path id="Path_41219" data-name="Path 41219" d="M512.384,733.488l39.505,0v-.5a15.377,15.377,0,0,0-15.375-15.376h0l-7.216-5.475-13.464,5.475h-3.449Z" transform="translate(-241.73 -299.85)" fill="#2f2e41"/>
  <path id="Path_41220" data-name="Path 41220" d="M179.038,529.075l11.495,5.736,27.6-41.608-16.965-8.466Z" transform="translate(-46.12 -124.866)" fill="#a0616a"/>
  <path id="Path_41221" data-name="Path 41221" d="M318.25,712.206,353.6,729.847l.223-.447a15.377,15.377,0,0,0-6.892-20.625h0l-4.012-8.121-14.492-1.113L325.34,698Z" transform="translate(-191.722 -296.209)" fill="#2f2e41"/>
  <rect id="Rectangle_2160" data-name="Rectangle 2160" width="423.059" height="1.664" transform="translate(0 433.686)" fill="#ccc"/>
  <path id="Path_41222" data-name="Path 41222" d="M383.743,438.631s-5.134,61.73-6.236,74.957A94.07,94.07,0,0,1,372,537.838a22.8,22.8,0,0,0-2.2,8.818l-24.985,45.408s-7.635,5.612-6.533,10.021-4.6,7.054-4.6,7.054l26.312,5.071a3.414,3.414,0,0,1,2.2-4.409c3.307-1.1,5.939-10.663,5.939-10.663l36.939-60.2,26.455-55.115s15.432,49.6,18.739,55.115c0,0,12.125,61.729,14.33,67.24s3.307,5.511,2.2,7.716-1.1,4.409,0,5.511,22.046,0,22.046,0l-5.511-78.263-9.921-93.7L422.7,432.018Z" transform="translate(-195.693 -227.693)" fill="#2f2e41"/>
  <circle id="Ellipse_3617" data-name="Ellipse 3617" cx="23.148" cy="23.148" r="23.148" transform="translate(214.545 17.277)" fill="#a0616a"/>
  <path id="Path_41223" data-name="Path 41223" d="M492.6,278.022l-27.557-16.7s-.764-10.368-8.615-10.855c-3.942-.245-9.857-.619-18.734-1.192-1.876-.121-3.142,10.143-5.292,10L403.309,267l4.409,74.956s-6.614,29.762-4.409,35.274-5.511,7.716-3.307,8.818,0,8.818,0,8.818,42.99,22.046,90.388,5.512l-4.409-14.33a11.567,11.567,0,0,0-2.2-11.023s4.409-6.614-1.1-12.125c0,0,2.2-9.921-3.307-14.33l-1.1-15.432,3.307-7.716Z" transform="translate(-212.677 -180.62)" fill="#e6e6e6"/>
  <path id="Path_41224" data-name="Path 41224" d="M439.314,214.338l-.647-1.5c-.083-.194-8.27-19.547-1.014-31.484,3.359-5.526,9.467-8.646,18.153-9.273,13.591-.983,22.893,2.241,27.655,9.576a8.222,8.222,0,0,1-6.93,12.666h-.183l-2.5-3.243-.145.315a5.16,5.16,0,0,1-5.412,2.792c-.414-.03-.78.327-1.074,1.092a1.942,1.942,0,0,1-1.453,1.347c-1.8.35-4.358-1.914-5.5-3.042a1.84,1.84,0,0,1-.858,1.263c-1.208.7-3.089-.214-3.628-.5-4.3.913-7.083.669-8.275-.725-.808,5.719-2.543,16.014-4.624,16.584a1.04,1.04,0,0,1-1.135-.5c-.5-.65-.949-.974-1.228-.883-.677.215-1.076,2.444-1.134,3.882Z" transform="translate(-221.707 -160.689)" fill="#2f2e41"/>
  <path id="Path_41225" data-name="Path 41225" d="M505.087,288.86l11-1.786a53.685,53.685,0,0,1,15.459,28.242c3.307,17.637,4.409,20.944,4.409,20.944L509.5,342.873l-14.33-27.557Z" transform="translate(-237.294 -190.356)" fill="#e6e6e6"/>
  <rect id="Rectangle_2161" data-name="Rectangle 2161" width="86.412" height="173.953" transform="translate(212.204 207.59) rotate(-85.49)" fill="#fff"/>
  <path id="Path_41226" data-name="Path 41226" d="M463.706,328.256c-4.244-3.031-9.632-3.25-11.69-3.206.628,1.96,2.579,6.987,6.823,10.019s9.636,3.251,11.691,3.208C469.9,336.317,467.95,331.288,463.706,328.256Z" transform="translate(-226.179 -200.137)" fill="#6c63ff"/>
  <path id="Path_41227" data-name="Path 41227" d="M478.3,402.435l-27.845-2.2a6.285,6.285,0,1,0-.988,12.53h0l27.845,2.2a6.285,6.285,0,1,0,.988-12.53Z" transform="translate(-224.03 -219.502)" fill="#6c63ff"/>
  <path id="Path_41228" data-name="Path 41228" d="M605.739,323.238l-156.12-12.316A13.87,13.87,0,0,0,434.7,323.661l-6,76.06a13.878,13.878,0,0,0,12.741,14.923l156.12,12.316a13.87,13.87,0,0,0,14.916-12.739l5.706-72.292.115-1.477.182-2.3A13.87,13.87,0,0,0,605.739,323.238Zm-4.61,66.176-.989,12.531a8.4,8.4,0,0,1-9.014,7.692l-20.886-1.646a8.4,8.4,0,0,1-7.692-9.014l.989-12.531a8.4,8.4,0,0,1,9.014-7.692L593.43,380.4a8.41,8.41,0,0,1,7.7,9.012Zm-162.686-6.534a7.681,7.681,0,0,1,8.251-7.046l27.844,2.2a7.678,7.678,0,1,1-1.194,15.31l-.014,0-27.844-2.2a7.672,7.672,0,0,1-7.043-8.267ZM444.4,320.9l-.19-.779.8-.073c.313-.034,7.72-.7,13.486,3.42s7.534,11.345,7.611,11.647l.183.781-.8.081a21.1,21.1,0,0,1-3.407-.023,20.147,20.147,0,0,1-10.081-3.4C446.242,328.434,444.474,321.208,444.4,320.9Z" transform="translate(-220.161 -196.488)" fill="#6c63ff"/>
  <path id="Path_41229" data-name="Path 41229" d="M625.368,427.608l-9.05-.714a2.444,2.444,0,0,0-.384,4.873l9.05.714a2.444,2.444,0,0,0,.384-4.873Z" transform="translate(-267.824 -226.371)" fill="#6c63ff"/>
  <path id="Path_41230" data-name="Path 41230" d="M647.872,429.384l-9.05-.714a2.444,2.444,0,0,0-.384,4.873l9.05.714a2.444,2.444,0,1,0,.384-4.873Z" transform="translate(-273.621 -226.829)" fill="#6c63ff"/>
  <path id="Path_41231" data-name="Path 41231" d="M626.033,419.169l-9.05-.714a2.444,2.444,0,0,0-.384,4.873l9.05.714a2.444,2.444,0,1,0,.384-4.873Z" transform="translate(-267.995 -224.197)" fill="#6c63ff"/>
  <path id="Path_41232" data-name="Path 41232" d="M648.538,420.945l-9.05-.714a2.444,2.444,0,1,0-.384,4.873l9.05.714a2.444,2.444,0,0,0,.384-4.873Z" transform="translate(-273.792 -224.655)" fill="#6c63ff"/>
  <path id="Path_41233" data-name="Path 41233" d="M626.7,410.73l-9.05-.714a2.444,2.444,0,0,0-.384,4.873l9.05.714a2.444,2.444,0,1,0,.384-4.873Z" transform="translate(-268.167 -222.024)" fill="#6c63ff"/>
  <path id="Path_41234" data-name="Path 41234" d="M649.2,412.505l-9.05-.714a2.444,2.444,0,0,0-.384,4.873l9.05.714a2.444,2.444,0,0,0,.384-4.873Z" transform="translate(-273.964 -222.481)" fill="#6c63ff"/>
  <rect id="Rectangle_2162" data-name="Rectangle 2162" width="1.485" height="183.829" transform="translate(212.103 152.652) rotate(-85.509)" fill="#fff"/>
  <path id="Path_41235" data-name="Path 41235" d="M510.447,191.891l-.115,1.477-6.378-.5L436,187.53l.122-1.479,67.947,5.339Z" transform="translate(-112.312 -47.926)" fill="#3f3d56"/>
  <path id="Path_41236" data-name="Path 41236" d="M381,323.449s-9.921,41.887,2.2,41.887,40.785-47.4,40.785-47.4l-9.921-12.125L396.26,330.535l-.933-12.6Z" transform="translate(-206.901 -195.183)" fill="#a0616a"/>
  <circle id="Ellipse_3618" data-name="Ellipse 3618" cx="9.651" cy="9.651" r="9.651" transform="translate(204.792 105.273)" fill="#a0616a"/>
  <path id="Path_41237" data-name="Path 41237" d="M405.85,279.761l-6.614-6.614s-13.228,7.716-14.33,15.432-6.614,31.967-6.614,31.967l20.392,1.653,6.614-9.921Z" transform="translate(-207.188 -186.769)" fill="#e6e6e6"/>
</svg>
