<svg id="Group_5527" data-name="Group 5527" xmlns="http://www.w3.org/2000/svg" width="239.17" height="245.58" viewBox="0 0 239.17 245.58">
  <path id="Path_968" data-name="Path 968" d="M520.51,151.92h-1.344V115.052a21.338,21.338,0,0,0-21.338-21.338H419.715a21.338,21.338,0,0,0-21.339,21.338V317.314a21.338,21.338,0,0,0,21.338,21.338h78.112a21.338,21.338,0,0,0,21.338-21.338V178.164h1.344Z" transform="translate(-348.279 -93.713)" fill="#3f3d56"/>
  <path id="Path_969" data-name="Path 969" d="M523.024,120.712v205.12a16.183,16.183,0,0,1-16.176,16.181H427.131a16.187,16.187,0,0,1-16.189-16.184V120.712a16.186,16.186,0,0,1,16.188-16.181h9.67a7.7,7.7,0,0,0,7.119,10.594h45.447a7.7,7.7,0,0,0,7.119-10.594h10.358a16.183,16.183,0,0,1,16.181,16.175Z" transform="translate(-356.514 -100.803)" fill="#fff"/>
  <path id="Path_39" data-name="Path 39" d="M541.628,455.908H470.792a1.313,1.313,0,0,1-1.312-1.312V437.025a1.313,1.313,0,0,1,1.312-1.312h70.836a1.313,1.313,0,0,1,1.312,1.312V454.6a1.313,1.313,0,0,1-1.312,1.312Zm-70.836-19.67a.788.788,0,0,0-.787.787V454.6a.788.788,0,0,0,.787.787h70.836a.788.788,0,0,0,.787-.787V437.025a.788.788,0,0,0-.787-.787Z" transform="translate(-394.878 -317.847)" fill="#e6e6e6"/>
  <path id="Path_40" data-name="Path 40" d="M535.105,454.074a.918.918,0,0,0,0,1.837h43.288a.918.918,0,0,0,.07-1.836H535.105Z" transform="translate(-437.284 -329.88)" fill="#e6e6e6"/>
  <path id="Path_41" data-name="Path 41" d="M535.105,470.058a.918.918,0,1,0,0,1.837h43.288a.918.918,0,0,0,.07-1.836H535.105Z" transform="translate(-437.284 -340.355)" fill="#e6e6e6"/>
  <path id="Path_42" data-name="Path 42" d="M541.628,540.888H470.792a1.313,1.313,0,0,1-1.312-1.312V522.005a1.313,1.313,0,0,1,1.312-1.312h70.836a1.313,1.313,0,0,1,1.312,1.312v17.571A1.313,1.313,0,0,1,541.628,540.888Zm-70.836-19.67a.788.788,0,0,0-.787.787v17.571a.788.788,0,0,0,.787.787h70.836a.788.788,0,0,0,.787-.787V522.005a.788.788,0,0,0-.787-.787Z" transform="translate(-394.878 -373.54)" fill="#e6e6e6"/>
  <path id="Path_43" data-name="Path 43" d="M535.105,539.33a.918.918,0,0,0,0,1.837h43.288a.918.918,0,1,0,.03-1.836H535.105Z" transform="translate(-437.284 -385.754)" fill="#e6e6e6"/>
  <path id="Path_44" data-name="Path 44" d="M535.105,555.318a.918.918,0,0,0,0,1.837h43.288a.918.918,0,1,0,.03-1.836H535.105Z" transform="translate(-437.284 -396.232)" fill="#e6e6e6"/>
  <path id="Path_39-2" data-name="Path 39-2" d="M541.628,626.146H470.792a1.313,1.313,0,0,1-1.312-1.312V607.263a1.313,1.313,0,0,1,1.312-1.312h70.836a1.313,1.313,0,0,1,1.312,1.312v17.571a1.313,1.313,0,0,1-1.312,1.312Zm-70.836-19.67a.788.788,0,0,0-.787.787v17.571a.788.788,0,0,0,.787.787h70.836a.788.788,0,0,0,.787-.787V607.263a.788.788,0,0,0-.787-.787Z" transform="translate(-394.878 -429.414)" fill="#e6e6e6"/>
  <path id="Path_40-2" data-name="Path 40-2" d="M535.105,624.591a.918.918,0,0,0,0,1.837h43.288a.918.918,0,0,0,.07-1.836H535.105Z" transform="translate(-437.284 -441.63)" fill="#e6e6e6"/>
  <path id="Path_41-2" data-name="Path 41-2" d="M535.105,640.578a.918.918,0,0,0,0,1.837h43.288a.918.918,0,0,0,.07-1.836H535.105Z" transform="translate(-437.284 -452.108)" fill="#e6e6e6"/>
  <path id="Path_970" data-name="Path 970" d="M491.558,804.917H253.638c-.345,0-.624-.161-.624-.36s.28-.36.624-.36H491.559c.345,0,.624.161.624.36S491.9,804.917,491.558,804.917Z" transform="translate(-253.014 -559.336)" fill="#e6e6e6"/>
  <g id="Group_58" data-name="Group 58" transform="translate(9.255 213.842)">
    <path id="Path_438" data-name="Path 438" d="M280.739,731.884a6.712,6.712,0,0,0,6.481-1.142c2.27-1.905,2.982-5.045,3.561-7.951l1.713-8.6-3.586,2.469c-2.579,1.776-5.216,3.608-7,6.18s-2.565,6.083-1.13,8.867" transform="translate(-279.975 -714.194)" fill="#e6e6e6"/>
    <path id="Path_439" data-name="Path 439" d="M282.355,756.835a43.157,43.157,0,0,1-.6-9.943,15.636,15.636,0,0,1,3.015-8.2,13.64,13.64,0,0,1,3.5-3.171c.35-.221.672.334.324.554a12.966,12.966,0,0,0-5.13,6.188,20.774,20.774,0,0,0-1.1,8.953c.116,1.824.363,3.637.611,5.447a.332.332,0,0,1-.224.394.323.323,0,0,1-.394-.224Z" transform="translate(-281.038 -728.139)" fill="#f2f2f2"/>
    <path id="Path_442" data-name="Path 442" d="M293.12,771.98a4.941,4.941,0,0,0,4.3,2.222c2.179-.1,4-1.624,5.631-3.067l4.837-4.271-3.2-.153a19.238,19.238,0,0,0-6.858.5,6.526,6.526,0,0,0-4.616,4.687" transform="translate(-288.553 -748.56)" fill="#e6e6e6"/>
    <path id="Path_443" data-name="Path 443" d="M279.911,784.076c2.171-3.845,4.693-8.118,9.2-9.484a10.264,10.264,0,0,1,3.868-.4c.411.034.308.669-.1.633a9.534,9.534,0,0,0-6.173,1.633,16.041,16.041,0,0,0-4.243,4.579c-.7,1.068-1.332,2.185-1.961,3.3C280.294,784.693,279.709,784.436,279.911,784.076Z" transform="translate(-279.869 -753.489)" fill="#f2f2f2"/>
  </g>
  <g id="Group_59" data-name="Group 59" transform="translate(79.242 122.346)">
    <circle id="Ellipse_5" data-name="Ellipse 5" cx="5.509" cy="5.509" r="5.509" fill="#6c63ff"/>
    <path id="Path_40-3" data-name="Path 40-3" d="M491.057,461.712a3.731,3.731,0,0,0,0,1.837h5.417c.063.008.116-.4.117-.9a2.047,2.047,0,0,0-.113-.933h-5.421Z" transform="translate(-488.185 -457.232)" fill="#e6e6e6"/>
  </g>
  <g id="Group_60" data-name="Group 60" transform="translate(79.242 151.742)">
    <circle id="Ellipse_5-2" data-name="Ellipse 5-2" cx="5.509" cy="5.509" r="5.509" fill="#6c63ff"/>
    <path id="Path_40-4" data-name="Path 40-4" d="M491.057,547.005a3.731,3.731,0,0,0,0,1.837h5.417c.063.008.116-.4.117-.9a2.047,2.047,0,0,0-.113-.933h-5.421Z" transform="translate(-488.185 -542.525)" fill="#e6e6e6"/>
  </g>
  <g id="Group_61" data-name="Group 61" transform="translate(79.242 181.125)">
    <circle id="Ellipse_5-3" data-name="Ellipse 5-3" cx="5.509" cy="5.509" r="5.509" fill="#6c63ff"/>
    <path id="Path_40-5" data-name="Path 40-5" d="M491.057,632.263a3.731,3.731,0,0,0,0,1.837h5.417c.063.008.116-.4.117-.9a2.048,2.048,0,0,0-.113-.933h-5.421Z" transform="translate(-488.185 -627.783)" fill="#e6e6e6"/>
  </g>
  <path id="Path_40857" data-name="Path 40857" d="M596.12,268.856a1.546,1.546,0,0,1-1.383-.844,18.223,18.223,0,0,0-10.812-9.1,20.679,20.679,0,0,0-2.9-.656l-.2-.03,10.312-32.24.174.006c20.033,5.444,31.495,21.5,34.531,26.29a1.549,1.549,0,0,1-.619,2.214l-28.409,14.2A1.553,1.553,0,0,1,596.12,268.856Z" transform="translate(-467.85 -180.398)" fill="#e6e6e6"/>
  <path id="Path_2881" data-name="Path 2881" d="M804.462,529.6a3.2,3.2,0,0,1,4.381-2.2l7.68-8.372,1.435,5.727-7.513,7.072a3.214,3.214,0,0,1-5.983-2.227Z" transform="translate(-614.351 -372.45)" fill="#feb8b8"/>
  <path id="Path_2882" data-name="Path 2882" d="M839.328,757.627h-4.692l-2.233-18.1h6.927Z" transform="translate(-632.723 -516.955)" fill="#feb8b8"/>
  <path id="Path_2883" data-name="Path 2883" d="M827.2,787.6h-9.242a5.89,5.89,0,0,0-5.889,5.889v.192h15.13Z" transform="translate(-619.394 -548.459)" fill="#2f2e41"/>
  <path id="Path_2884" data-name="Path 2884" d="M906.159,746.38l-4.387,1.665-8.51-16.129,6.475-2.457Z" transform="translate(-672.607 -510.356)" fill="#feb8b8"/>
  <path id="Path_2885" data-name="Path 2885" d="M908.7,773.167l-8.64,3.279h0a5.89,5.89,0,0,0-3.416,7.6l.069.179,14.146-5.369Z" transform="translate(-674.571 -539.001)" fill="#2f2e41"/>
  <path id="Path_2886" data-name="Path 2886" d="M868.963,617.36l3.889,20.924s10.555,29.442,9.814,30.182-10.925,3.333-10.37,1.667-12.221-26.664-12.221-26.664Z" transform="translate(-650.858 -436.891)" fill="#2f2e41"/>
  <path id="Path_2887" data-name="Path 2887" d="M826.961,507.03s-7.85,10.261-6.821,10.822,5.013,3.528,5.013,3.528l4.054-11.126Z" transform="translate(-624.625 -364.585)" fill="#e4e4e4"/>
  <path id="Path_2888" data-name="Path 2888" d="M829.936,536.912s-1.3,9.629-.741,11.666.185,59.81-.185,60.735-1.482,4.074-.926,5.555,8.147,5.185,9.258,3.889,9.259-48.514,9.259-48.514,11.481-28.516,8.888-31.293S829.936,536.912,829.936,536.912Z" transform="translate(-629.793 -384.11)" fill="#2f2e41"/>
  <circle id="Ellipse_542" data-name="Ellipse 542" cx="9.073" cy="9.073" r="9.073" transform="translate(207.729 72.772)" fill="#feb8b8"/>
  <path id="Path_2890" data-name="Path 2890" d="M838.64,373.844a6.433,6.433,0,0,1,2.068-3.8l1.654-5.058h9.722l2.709,4.251c2.929,1.262,5.1,3.263,5.183,5.621.448,1.566-1.482,51.292-2.037,53.143-.163.539-2.378.827-5.492.955-2.855.117-6.464.1-9.929.02-5.737-.133-11.084-.441-11.984-.606C828.5,428,838.438,375.012,838.64,373.844Z" transform="translate(-631.318 -271.492)" fill="#e4e4e4"/>
  <path id="Path_2891" data-name="Path 2891" d="M870.078,553.74a3.2,3.2,0,0,0,.629-4.861l5.366-10.014-5.879.537L866,548.828a3.214,3.214,0,0,0,4.078,4.911Z" transform="translate(-654.161 -385.448)" fill="#feb8b8"/>
  <path id="Path_2893" data-name="Path 2893" d="M870.565,374.4s-8.518,3.518-5.37,12.407,6.666,19.443,6.666,19.443-4.444,23.887-4.444,24.814-2.777,5.925-1.667,6.851,8.518,2.777,8.7,1.852a62.618,62.618,0,0,1,2.037-6.3c.37-.741,9.073-23.887,7.961-25.924-.818-1.5-1.535-15.233-1.857-22.38a11.755,11.755,0,0,0-6.128-9.9A8.142,8.142,0,0,0,870.565,374.4Z" transform="translate(-653.756 -277.515)" fill="#e4e4e4"/>
  <path id="Path_2800" data-name="Path 2800" d="M868.97,313.779a13.621,13.621,0,0,0-2.233-.581c-2.665-.707-4.451-3.339-3.881-5.721a2.577,2.577,0,0,0,.14-.943c-.1-.705-.926-1.161-1.718-1.322a19.06,19.06,0,0,1-2.393-.4,3.236,3.236,0,0,1-2.115-2.539,4.712,4.712,0,0,1,.8-3.161l.286.72a2.678,2.678,0,0,0,.935-1.222,1.9,1.9,0,0,1,1.468,1.031c.459.237.526-.735,1.034-.878a1.015,1.015,0,0,1,.633.138,5.809,5.809,0,0,0,3.309-.171,14.206,14.206,0,0,1,5.78-.006,7.315,7.315,0,0,1,3.416,1.535,7.014,7.014,0,0,1,1.6,2.4,12.28,12.28,0,0,1,1.289,6.711,8.978,8.978,0,0,1-2.563,5.032c-.732.737-3.119,3.305-4.428,2.868C868.684,316.719,870.908,314.674,868.97,313.779Z" transform="translate(-648.675 -227.878)" fill="#2f2e41"/>
  <circle id="Ellipse_3561" data-name="Ellipse 3561" cx="2.757" cy="2.757" r="2.757" transform="translate(108.209 89.075)" fill="#3f3d56"/>
  <path id="Path_40858" data-name="Path 40858" d="M464.647,265.359a1.548,1.548,0,0,1-.724-.181l-28.244-14.9a1.551,1.551,0,0,1-.6-2.18,62.61,62.61,0,0,1,14.127-15.845A51.5,51.5,0,0,1,482.18,220.71a52.345,52.345,0,0,1,13.463,1.823l.174.047L485.5,254.818l-.145-.022a22.978,22.978,0,0,0-2.8-.249,17.064,17.064,0,0,0-16.511,9.936,1.521,1.521,0,0,1-.9.8,1.561,1.561,0,0,1-.492.08Z" transform="translate(-372.183 -176.942)" fill="#6c63ff"/>
  <path id="Path_40859" data-name="Path 40859" d="M591.7,226.483,584.4,259.072a20.812,20.812,0,0,0-2.922-.662l10.212-31.927Z" transform="translate(-468.279 -180.725)" fill="#3f3d56"/>
</svg>
