<svg xmlns="http://www.w3.org/2000/svg" width="88.842" height="87" viewBox="0 0 88.842 87">
  <g id="Layer_1" data-name="Layer 1" transform="translate(-15.158 -16.5)">
    <g id="Group_5589" data-name="Group 5589" transform="translate(16 16)">
      <rect id="Rectangle_2128" data-name="Rectangle 2128" width="88" height="87" transform="translate(0 0.5)" fill="none"/>
      <g id="Group_5588" data-name="Group 5588" transform="translate(0.158 3.984)">
        <path id="Path_41001" data-name="Path 41001" d="M78.017,199.43a14.318,14.318,0,0,0-3.017,9.2c0,8.266,4.7,12.071,8.7,13.81a14.181,14.181,0,0,0,5.437,1.444" transform="translate(-75 -172.432)" fill="none" stroke="#000" stroke-linecap="round" stroke-miterlimit="10" stroke-width="2"/>
        <path id="Path_41002" data-name="Path 41002" d="M179.276,141.869a13.975,13.975,0,0,0,13.756-13.506c.136-11-7.449-15.2-10.88-16.208a1.08,1.08,0,0,1-.775-.9,13.758,13.758,0,0,0-7.268-10.575,14.269,14.269,0,0,0-12.225-.394,1.071,1.071,0,0,1-1.318-.4A22.443,22.443,0,0,0,153.313,93a18.776,18.776,0,0,0-5.873-2.21A20.759,20.759,0,0,0,138.9,91c-13.89,3.1-16.25,14.759-16.426,18.9a1.087,1.087,0,0,1-.9,1.031,24.82,24.82,0,0,0-4.925,1.367" transform="translate(-106.332 -90.443)" fill="none" stroke="#000" stroke-linecap="round" stroke-miterlimit="10" stroke-width="2"/>
        <g id="Group_5587" data-name="Group 5587" transform="translate(15.002 23.862)">
          <path id="Path_41003" data-name="Path 41003" d="M180.2,186.77H139.41a3.85,3.85,0,0,0-3.85,3.85v36.511a3.85,3.85,0,0,0,3.85,3.85h17.37s0,1.719-3.01,4.454h-3.879a3.363,3.363,0,0,0-3.354,3.354v2.18a.994.994,0,0,0,.993.991h33.484a.994.994,0,0,0,.991-.991v-2.18a3.363,3.363,0,0,0-3.354-3.354h-3.537c-3.01-2.737-3.01-4.454-3.01-4.454h16.58a3.85,3.85,0,0,0,3.85-3.85V190.62a3.85,3.85,0,0,0-3.85-3.85h-2.168" transform="translate(-135.56 -186.77)" fill="none" stroke="#000" stroke-linecap="round" stroke-linejoin="round" stroke-width="2"/>
          <g id="Group_5586" data-name="Group 5586" transform="translate(4.125 5.556)">
            <rect id="Rectangle_2129" data-name="Rectangle 2129" width="48.722" height="31.884" rx="2" fill="none" stroke="#000" stroke-linecap="round" stroke-miterlimit="10" stroke-width="2"/>
            <path id="Path_41004" data-name="Path 41004" d="M209.146,314.03H188.31" transform="translate(-179.367 -288.061)" fill="none" stroke="#000" stroke-linecap="round" stroke-linejoin="round" stroke-width="2"/>
            <line id="Line_263" data-name="Line 263" x1="8.095" transform="translate(35.201 25.969)" fill="none" stroke="#000" stroke-linecap="round" stroke-linejoin="round" stroke-width="2"/>
            <circle id="Ellipse_3578" data-name="Ellipse 3578" cx="1.917" cy="1.917" r="1.917" transform="translate(30.571 24.051)" fill="none" stroke="#000" stroke-linecap="round" stroke-linejoin="round" stroke-width="2"/>
            <line id="Line_264" data-name="Line 264" x1="4.657" transform="translate(20.501 16.548)" fill="none" stroke="#000" stroke-linecap="round" stroke-linejoin="round" stroke-width="2"/>
            <line id="Line_265" data-name="Line 265" x1="12.921" transform="translate(30.375 16.548)" fill="none" stroke="#000" stroke-linecap="round" stroke-linejoin="round" stroke-width="2"/>
            <circle id="Ellipse_3579" data-name="Ellipse 3579" cx="1.917" cy="1.917" r="1.917" transform="translate(25.934 14.628)" fill="none" stroke="#000" stroke-linecap="round" stroke-linejoin="round" stroke-width="2"/>
            <g id="Group_5585" data-name="Group 5585" transform="translate(3.637 3.842)">
              <path id="Path_41005" data-name="Path 41005" d="M180.381,245.065a6.745,6.745,0,1,1-6.745-6.745v6.745Z" transform="translate(-166.89 -234.949)" fill="none" stroke="#000" stroke-linecap="round" stroke-linejoin="round" stroke-width="2"/>
              <path id="Path_41006" data-name="Path 41006" d="M207.74,231.455V224.71a7.223,7.223,0,0,1,5.3,2.6c.074.1.144.193.213.3a7.767,7.767,0,0,1,1.236,3.847Z" transform="translate(-197.621 -224.71)" fill="none" stroke="#6a63ff" stroke-linecap="round" stroke-miterlimit="10" stroke-width="2"/>
            </g>
          </g>
        </g>
      </g>
    </g>
  </g>
</svg>
