<svg xmlns="http://www.w3.org/2000/svg" width="115.4" height="28.144" viewBox="0 0 115.4 28.144">
  <g id="Group_2554" data-name="Group 2554" opacity="0.513">
    <path id="Path_11656" data-name="Path 11656" d="M64.753,25.217A13.911,13.911,0,1,1,54.189,8.484,14.112,14.112,0,0,1,64.753,19.048H56.689a5.887,5.887,0,0,0-5.6-3.629,5.645,5.645,0,0,0-4.476,1.814,7.3,7.3,0,0,0-1.693,4.758A6.048,6.048,0,0,0,50.6,28.645h.645a5.766,5.766,0,0,0,5.564-3.387Zm1.573-3.226a13.951,13.951,0,1,1,14.153,13.75h-.2A13.427,13.427,0,0,1,66.366,22.717Zm7.742,0A5.806,5.806,0,1,0,75.7,17.836a5.806,5.806,0,0,0-1.629,4.156ZM96.2,9.049h7.218V11.79a6.33,6.33,0,0,1,1.573-1.855,8.83,8.83,0,0,1,5.645-1.774,7.742,7.742,0,0,1,5.806,2.46,7.54,7.54,0,0,1,1.573,2.137,11.292,11.292,0,0,1,1.9-2.258,8.871,8.871,0,0,1,6.29-2.339,9.113,9.113,0,0,1,6.693,2.581c2.419,2.581,2.9,4.314,2.9,10.04V34.854h-7.7V21.306a8.75,8.75,0,0,0-.524-3.669,3.387,3.387,0,0,0-3.468-2.1,3.669,3.669,0,0,0-3.71,2.177,7.822,7.822,0,0,0-.564,3.185V34.895H112.09V20.984a8.911,8.911,0,0,0-.484-3.266,3.347,3.347,0,0,0-3.387-2.177,3.79,3.79,0,0,0-3.79,2.3,8.064,8.064,0,0,0-.565,3.468V34.895H96.123Z" transform="translate(-20.399 -7.84)" fill="#fff"/>
    <ellipse id="Ellipse_1937" data-name="Ellipse 1937" cx="5.927" cy="5.927" rx="5.927" ry="5.927" transform="translate(0 8.466)" fill="#fff"/>
  </g>
</svg>
