<svg id="Group_5530" data-name="Group 5530" xmlns="http://www.w3.org/2000/svg" width="311.598" height="228.732" viewBox="0 0 311.598 228.732">
  <path id="Path_40906" data-name="Path 40906" d="M943.077,637.22l.355-.656c-4.758-2.573-10.68-5.776-13.773-11.031-3.049-5.181-3.117-12.216-.179-18.359,2.5-5.229,7.1-9.914,13.286-13.548,1.221-.717,2.5-1.4,3.743-2.053a41.015,41.015,0,0,0,8.65-5.56c3.519-3.209,6.181-8.594,4.2-13.39a8.9,8.9,0,0,0-7.714-5.4l-.042.745a8.156,8.156,0,0,1,7.069,4.943c1.844,4.457-.686,9.515-4.012,12.549a40.462,40.462,0,0,1-8.5,5.452c-1.247.661-2.536,1.344-3.771,2.069-6.319,3.71-11.016,8.505-13.581,13.869-3.044,6.365-2.965,13.668.209,19.06C932.215,631.346,938.238,634.6,943.077,637.22Z" transform="translate(-648.558 -408.488)" fill="#f1f1f1"/>
  <ellipse id="Ellipse_3565" data-name="Ellipse 3565" cx="6.529" cy="3.171" rx="6.529" ry="3.171" transform="translate(291.825 156.328)" fill="#f1f1f1"/>
  <ellipse id="Ellipse_3566" data-name="Ellipse 3566" cx="6.529" cy="3.171" rx="6.529" ry="3.171" transform="translate(286.602 177.22)" fill="#f1f1f1"/>
  <ellipse id="Ellipse_3567" data-name="Ellipse 3567" cx="6.529" cy="3.171" rx="6.529" ry="3.171" transform="translate(298.54 180.578)" fill="#f1f1f1"/>
  <ellipse id="Ellipse_3568" data-name="Ellipse 3568" cx="6.529" cy="3.171" rx="6.529" ry="3.171" transform="translate(279.887 198.113)" fill="#f1f1f1"/>
  <ellipse id="Ellipse_3569" data-name="Ellipse 3569" cx="6.529" cy="3.171" rx="6.529" ry="3.171" transform="translate(266.829 198.113)" fill="#f1f1f1"/>
  <path id="Path_40907" data-name="Path 40907" d="M275.748,445.007H252.582a2.369,2.369,0,0,1-2.366-2.366V366.31a2.369,2.369,0,0,1,2.366-2.366h23.166a2.369,2.369,0,0,1,2.366,2.366v76.331A2.369,2.369,0,0,1,275.748,445.007Z" transform="translate(-224.53 -281.046)" fill="#6c63ff"/>
  <path id="Path_40908" data-name="Path 40908" d="M388.985,394.107H365.819a2.369,2.369,0,0,1-2.366-2.366V285.121a2.369,2.369,0,0,1,2.366-2.366h23.166a2.369,2.369,0,0,1,2.366,2.366v106.62a2.369,2.369,0,0,1-2.366,2.366Z" transform="translate(-295.521 -230.147)" fill="#6c63ff"/>
  <path id="Path_40909" data-name="Path 40909" d="M502.223,445.007H479.057a2.369,2.369,0,0,1-2.366-2.366V366.31a2.369,2.369,0,0,1,2.366-2.366h23.166a2.369,2.369,0,0,1,2.366,2.366v76.331a2.369,2.369,0,0,1-2.366,2.366Z" transform="translate(-366.512 -281.046)" fill="#6c63ff"/>
  <path id="Path_40910" data-name="Path 40910" d="M615.46,374.015H592.294a2.317,2.317,0,0,1-2.366-2.259V252.965a2.317,2.317,0,0,1,2.366-2.259H615.46a2.317,2.317,0,0,1,2.366,2.259V371.756A2.317,2.317,0,0,1,615.46,374.015Z" transform="translate(-437.504 -210.054)" fill="#6c63ff"/>
  <path id="Path_40911" data-name="Path 40911" d="M728.7,337.85H705.532a2.369,2.369,0,0,1-2.366-2.366v-140.1a2.369,2.369,0,0,1,2.366-2.366H728.7a2.369,2.369,0,0,1,2.366,2.366v140.1a2.369,2.369,0,0,1-2.366,2.366Z" transform="translate(-508.495 -173.889)" fill="#6c63ff"/>
  <circle id="Ellipse_3570" data-name="Ellipse 3570" cx="4.783" cy="4.783" r="4.783" transform="translate(34.853 63.768)" fill="#3f3d56"/>
  <circle id="Ellipse_3571" data-name="Ellipse 3571" cx="4.783" cy="4.783" r="4.783" transform="translate(77.099 32.681)" fill="#3f3d56"/>
  <circle id="Ellipse_3572" data-name="Ellipse 3572" cx="4.783" cy="4.783" r="4.783" transform="translate(119.345 63.768)" fill="#3f3d56"/>
  <circle id="Ellipse_3573" data-name="Ellipse 3573" cx="4.783" cy="4.783" r="4.783" transform="translate(161.591 17.536)" fill="#3f3d56"/>
  <circle id="Ellipse_3574" data-name="Ellipse 3574" cx="4.783" cy="4.783" r="4.783" transform="translate(203.837 0)" fill="#3f3d56"/>
  <path id="Path_40912" data-name="Path 40912" d="M428.716,582.353H181.739a.373.373,0,1,1,0-.746H428.716a.373.373,0,1,1,0,.746Z" transform="translate(-181.366 -417.504)" fill="#cbcbcb"/>
  <path id="Path_40913" data-name="Path 40913" d="M805.616,753.353H684.739a.373.373,0,0,1,0-.746H805.616a.373.373,0,0,1,0,.746Z" transform="translate(-496.709 -524.708)" fill="#cbcbcb"/>
  <path id="Path_40914" data-name="Path 40914" d="M792.757,545.526a2.958,2.958,0,0,0-.386-4.52l1.467-6.6-3.793-1.87-1.94,9.349a2.974,2.974,0,0,0,4.653,3.64Z" transform="translate(-561.474 -386.741)" fill="#ffb7b7"/>
  <path id="Path_40915" data-name="Path 40915" d="M903.678,546.332a2.958,2.958,0,0,0-.734-4.477l.952-6.693-3.926-1.57-1.211,9.471a2.975,2.975,0,0,0,4.921,3.269Z" transform="translate(-630.915 -387.402)" fill="#ffb7b7"/>
  <path id="Path_40916" data-name="Path 40916" d="M642.27,577.007H638.4l-1.84-14.919h5.709Z" transform="translate(-399.076 -352.386)" fill="#ffb7b7"/>
  <path id="Path_40917" data-name="Path 40917" d="M814.914,745.447H802.442v-.158a4.855,4.855,0,0,1,4.854-4.854h7.618Z" transform="translate(-570.734 -517.076)" fill="#2f2e41"/>
  <path id="Path_40918" data-name="Path 40918" d="M676.943,577.007h-3.868l-1.84-14.919h5.709Z" transform="translate(-420.813 -352.386)" fill="#ffb7b7"/>
  <path id="Path_40919" data-name="Path 40919" d="M849.587,745.447H837.115v-.158a4.855,4.855,0,0,1,4.854-4.854h7.618Z" transform="translate(-592.471 -517.076)" fill="#2f2e41"/>
  <path id="Path_40920" data-name="Path 40920" d="M885.019,404.843l4.171-1.505s1.77.376,1.77,5.177,4.7,49.575,4.7,49.575l-8.228,2.166-4.651-42.48Z" transform="translate(-621.102 -305.743)" fill="#2f2e41"/>
  <path id="Path_40921" data-name="Path 40921" d="M796.186,404.843l-4.171-1.505s-1.77.376-1.77,5.177-4.7,49.575-4.7,49.575l8.228,2.166,4.651-42.48Z" transform="translate(-560.14 -305.743)" fill="#2f2e41"/>
  <path id="Path_40922" data-name="Path 40922" d="M812.3,535.653l-1.14,33.633,2.524,37.2,6.5.15.946-34.705,5.364-17.353-.541,51.146,7.364-.088,4.561-35.188s6.023-29.121,2.683-34.8l-15.383-5.115Z" transform="translate(-576.198 -385.488)" fill="#2f2e41"/>
  <path id="Path_40923" data-name="Path 40923" d="M813.926,530.446l-.371,8.091s5.19,2.583,14.313,1.009a49.3,49.3,0,0,1,15.187-.536l-.7-10.314Z" transform="translate(-577.7 -384.333)" fill="#e5e5e5"/>
  <path id="Path_40924" data-name="Path 40924" d="M802.446,390.2l12-5.257.716-2.753,11.67.338.5,2.813,11.494,4.74-5.064,17.608.519,12.387L840.6,442.65s-5.326,4.523-18.123,2.577l-2.208-4.449-1.351,4.705s-11.221,4.128-14.331-1.246l2.254-38.817Z" transform="translate(-570.736 -292.484)" fill="#2f2e41"/>
  <circle id="Ellipse_3575" data-name="Ellipse 3575" cx="7.749" cy="7.749" r="7.749" transform="translate(242.401 71.62)" fill="#ffb7b7"/>
  <path id="Path_40925" data-name="Path 40925" d="M846.022,331.5a4.72,4.72,0,0,0-.783-1.75,9.453,9.453,0,0,0-1.411-4.072,4.271,4.271,0,0,0-1.264-1.459,3.731,3.731,0,0,0-1.989-.5c-.126,0-.354.036-.558.046-.131-.041-.263-.077-.4-.111-.077-.172-.23-.673-.273-.639l-.577.459c-.244-.042-.489-.075-.736-.1l-.269-.767a5.26,5.26,0,0,0-.381.717q-.368-.018-.736-.013l-.491-.471a.692.692,0,0,1-.541.53q-.339.035-.675.089h-.055a6.049,6.049,0,0,0-3.519.579,3.468,3.468,0,0,0-1.12,1.271c-.124.084-.248.168-.368.257a4.021,4.021,0,0,0-1.036,1.027,4.358,4.358,0,0,0-.459,1.111,10.652,10.652,0,0,0-.528,3.639,5.4,5.4,0,0,0,1.328,3.37c.518.557,1.177.968,1.7,1.524,1.068,1.145,1.269,2.742,2.182,3.954a6.912,6.912,0,0,0,4.28,2.366,7.149,7.149,0,0,0,5.326-1.328,3.294,3.294,0,0,0,.907-.951c.538-.93.31-2.1.509-3.155C844.461,335.145,846.349,333.484,846.022,331.5Z" transform="translate(-586.665 -255.131)" fill="#2f2e41"/>
  <path id="Path_40926" data-name="Path 40926" d="M104.806,75.929l-.445-.6,42.947-31.974,42.109,31.409L232.1,28.421l.076-.031,41.426-17.1.285.69-41.35,17.066L189.51,75.766l-42.2-31.479Z" transform="translate(-65.426 -7.079)" fill="#3f3d56"/>
</svg>
