<svg xmlns="http://www.w3.org/2000/svg" width="99.793" height="97" viewBox="0 0 99.793 97">
  <g id="Layer_1" data-name="Layer 1" transform="translate(-26.665 -28)">
    <g id="Group_5602" data-name="Group 5602">
      <g id="Group_5601" data-name="Group 5601" transform="translate(27.665 52.445)">
        <path id="Path_41012" data-name="Path 41012" d="M168.005,204.811H94.082a3.683,3.683,0,0,1-3.672-3.672V175.062a3.683,3.683,0,0,1,3.672-3.672H162.84" transform="translate(-90.41 -171.39)" fill="none" stroke="#000" stroke-linecap="round" stroke-linejoin="round" stroke-width="2"/>
        <path id="Path_41013" data-name="Path 41013" d="M350.91,171.39h4.872a3.683,3.683,0,0,1,3.672,3.672V200.12" transform="translate(-271.197 -171.39)" fill="none" stroke="#000" stroke-linecap="round" stroke-linejoin="round" stroke-width="2"/>
        <text id="www." transform="translate(24.521 22.211)" font-size="15" font-family="HossRound-Black, Hoss Round" font-weight="800"><tspan x="0" y="0">www.</tspan></text>
        <path id="Path_41014" data-name="Path 41014" d="M345.8,260.578l-3.666-.982a1.059,1.059,0,0,0-1.3,1.3l4.348,16.23a1.059,1.059,0,0,0,1.772.474l3.274-3.274a1.058,1.058,0,0,1,1.5,0l.866.866.591.591,2,2,1.047,1.047,1.551,1.551a1.058,1.058,0,0,0,1.5,0l2.258-2.258a1.057,1.057,0,0,0,0-1.493l-5.979-6.028a1.057,1.057,0,0,1-.006-1.484l3.314-3.4a1.061,1.061,0,0,0-.484-1.763l-8.339-2.234" transform="translate(-264.18 -232.579)" fill="none" stroke="#6a63ff" stroke-linecap="round" stroke-linejoin="round" stroke-width="2"/>
      </g>
      <rect id="Rectangle_2135" data-name="Rectangle 2135" width="97" height="97" transform="translate(28 28)" fill="none"/>
    </g>
  </g>
</svg>
