<svg xmlns="http://www.w3.org/2000/svg" width="103.869" height="40.185" viewBox="0 0 103.869 40.185">
  <g id="Group_2555" data-name="Group 2555" opacity="0.513">
    <ellipse id="Ellipse_1938" data-name="Ellipse 1938" cx="7.432" cy="7.432" rx="7.432" ry="7.432" transform="translate(0 24.939)" fill="#fff"/>
    <path id="Path_11657" data-name="Path 11657" d="M104.493,41.833a2.506,2.506,0,0,1-2.123,2.8H97.062a2.506,2.506,0,0,1-2.888-2.081,1.825,1.825,0,0,1,0-.679V24.888c0-2.293-.849-3.865-3.61-3.865a11.126,11.126,0,0,0-5.818,1.614v19.2a2.421,2.421,0,0,1-2.081,2.8H77.654a2.548,2.548,0,0,1-2.888-2.081v-26.2a2.506,2.506,0,0,1,2.123-2.8H79.31c1.359,0,1.953.679,2.888,2.251a22.423,22.423,0,0,1,11.169-3.1c8.493,0,11.211,4.247,11.211,10.447Zm28.878-9.385H117.4c-.255,4.034,1.953,5.223,6.922,5.223a25.481,25.481,0,0,0,7.177-.892,2.93,2.93,0,0,1,3.822,1.444,2.506,2.506,0,0,1,.255,1.359v1.189a3.143,3.143,0,0,1-2.336,3.312,35.035,35.035,0,0,1-10.277,1.529c-10.574,0-15.671-5.266-15.671-16.477s5.054-16.6,15.246-16.6c12.358,0,14.269,8.069,14.014,16.987a2.548,2.548,0,0,1-2.293,2.8h-.595Zm-15.925-6.285h9.046c.595-3.4,0-6.158-4.247-6.158s-5.011,2.251-5.011,6.158ZM142.587,9.6c0-1.784.764-2.463,3.1-3.1L149,5.608c2.675-.679,3.865.637,3.865,2.591v5.223h4.969a2.463,2.463,0,0,1,2.888,2.038,1.826,1.826,0,0,1,.042.892V18.9a2.463,2.463,0,0,1-2.081,2.8h-5.945V33.339c0,2.463.977,3.78,4.247,3.78h.637a2.633,2.633,0,0,1,2.888,2.293v2.421a3.143,3.143,0,0,1-2.633,3.1,16.988,16.988,0,0,1-2.888.255c-9.173,0-12.4-3.695-12.4-11.042V21.406h-2.506a2.548,2.548,0,0,1-2.888-2.081,1.826,1.826,0,0,1,0-.679V17.414c0-1.614.679-2.421,2.591-2.8l2.888-.764Z" transform="translate(-56.93 -5.427)" fill="#fff"/>
  </g>
</svg>
