<svg xmlns="http://www.w3.org/2000/svg" width="121.671" height="42.026" viewBox="0 0 121.671 42.026">
  <g id="Group_2556" data-name="Group 2556" opacity="0.513">
    <path id="Path_11658" data-name="Path 11658" d="M19.929,30.331h4.148a4.811,4.811,0,0,1,2.738.539l-2.9-3.111a5.641,5.641,0,0,0-8.3,0l-2.862,3.069a4.687,4.687,0,0,1,3.028-.5Zm8.835,10.245a4.148,4.148,0,0,0-1.037-1.949l-5.019-5.351A4.148,4.148,0,0,0,20.717,32.2H19.472a3.9,3.9,0,0,0-1.949,1.037L12.3,38.627a3.816,3.816,0,0,0,0,5.268l5.185,5.143a3.65,3.65,0,0,0,5.185,0l5.185-5.268a4.148,4.148,0,0,0,1.037-2.157,6.637,6.637,0,0,0,0-1.286M20.095,51.983H15.947a4.936,4.936,0,0,1-2.655-.539l2.862,3.069a5.724,5.724,0,0,0,8.3,0l2.862-3.069a5.019,5.019,0,0,1-2.7.539ZM9.144,40.867V36.511A5.392,5.392,0,0,1,9.6,33.732l-3.069,2.9a5.973,5.973,0,0,0,0,8.3l3.069,2.9a5.475,5.475,0,0,1-.5-2.7V40.867Zm21.776,0v4.4a5.06,5.06,0,0,1-.5,2.7l3.069-2.9a5.973,5.973,0,0,0,0-8.3l-3.069-2.9a5.226,5.226,0,0,1,.5,2.738Z" transform="translate(-4.856 -25.271)" fill="#fff"/>
    <path id="Path_11659" data-name="Path 11659" d="M29.277,32.914c-4.148,0-6.512,3.609-6.512,8.627s2.364,8.627,6.512,8.627,6.6-3.567,6.6-8.627-2.2-8.627-6.6-8.627m0,24.887A16.01,16.01,0,1,1,45.121,41.707v.207A14.974,14.974,0,0,1,31.185,57.8H29.277M66.192,34.988a6.512,6.512,0,0,0-2.489-.5c-3.609,0-6.554,2.7-6.554,8.876V56.6H48.315V26.236H57.15V30.01a8.3,8.3,0,0,1,7.383-4.148,8.627,8.627,0,0,1,3.069.456Zm17.918-2.2c-4.148,0-6.512,3.277-6.512,7.508s2.24,7.756,6.512,7.756a6.885,6.885,0,0,0,6.844-6.968v-.747a6.8,6.8,0,0,0-5.931-7.508h-.83m6.761,18.748a10.909,10.909,0,0,1-9,4.148,14.891,14.891,0,0,1,0-29.657,10.37,10.37,0,0,1,8.918,4.148V26.485h8.918V51.372a16.591,16.591,0,0,1-3.443,11.572,17.711,17.711,0,0,1-13.522,4.811,24.472,24.472,0,0,1-13.646-3.733l3.609-6.595a16.177,16.177,0,0,0,9.789,3.111c4.894,0,8.5-1.908,8.5-6.927Zm6.636,14.144v1.742H97.3V65.433H96.6v-.249h1.618v.249Zm2.862,1.742V65.474l-.664,1.7H99.54l-.788-1.7v1.7h-.29V65.184h.415l.664,1.659.622-1.659h.415v1.991Z" transform="translate(21.094 -25.78)" fill="#fff"/>
  </g>
</svg>
