<svg xmlns="http://www.w3.org/2000/svg" width="68" height="68.876" viewBox="0 0 68 68.876">
  <g id="Layer_1" data-name="Layer 1" transform="translate(-24 -23.755)">
    <g id="Group_5612" data-name="Group 5612">
      <rect id="Rectangle_2140" data-name="Rectangle 2140" width="68" height="68" transform="translate(24 24.393)" fill="none"/>
      <g id="Group_5611" data-name="Group 5611" transform="translate(27.087 24.762)">
        <g id="Group_5609" data-name="Group 5609">
          <path id="Path_41023" data-name="Path 41023" d="M191.212,112.032a22.258,22.258,0,0,0-17.675-5.482C162.2,107.975,154.05,118.271,154.05,129.7v2.286m44.679,0v-3.278a22.186,22.186,0,0,0-4.155-12.938M164.36,131.654v-3.019a11.692,11.692,0,0,1,6.627-10.734,12.114,12.114,0,0,1,17.431,10.825v3.259" transform="translate(-145.276 -106.371)" fill="none" stroke="#000" stroke-linecap="round" stroke-miterlimit="10" stroke-width="2"/>
          <rect id="Rectangle_2141" data-name="Rectangle 2141" width="62.219" height="40.74" rx="5" transform="translate(0 26.13)" fill="none" stroke="#000" stroke-miterlimit="10" stroke-width="2"/>
          <path id="Path_41024" data-name="Path 41024" d="M129.82,377.386a6.469,6.469,0,0,0,3.033.754h49.16a6.471,6.471,0,0,0,3.315-.913c-2.551-2.158-13.967-3.787-27.669-3.787s-25.674,1.709-27.839,3.946Z" transform="translate(-126.687 -311.27)" fill="none" stroke="#000" stroke-miterlimit="10" stroke-width="2"/>
          <path id="Path_41025" data-name="Path 41025" d="M129.82,258.613a6.469,6.469,0,0,0,3.033.754h49.16a6.471,6.471,0,0,0,3.315-.913c-2.551-2.158-13.967-3.787-27.669-3.787s-25.674,1.709-27.839,3.946Zm55.508-39.229a6.469,6.469,0,0,0-3.033-.754h-49.16a6.471,6.471,0,0,0-3.315.913c2.547,2.158,13.967,3.787,27.669,3.787S183.163,221.621,185.328,219.384Z" transform="translate(-126.687 -192.498)" fill="none" stroke="#000" stroke-miterlimit="10" stroke-width="2"/>
        </g>
        <g id="Group_5610" data-name="Group 5610" transform="translate(18.176 33.567)">
          <path id="Path_41026" data-name="Path 41026" d="M202.339,276.421a26.121,26.121,0,0,1,.966-7.265,17.365,17.365,0,0,1-4.737-1.746,12.9,12.9,0,0,0-3.517,7.1,34.213,34.213,0,0,0,7.289,1.955v-.042Z" transform="translate(-194.908 -263.49)" fill="none" stroke="#6a63ff" stroke-linecap="round" stroke-linejoin="round" stroke-width="2"/>
          <path id="Path_41027" data-name="Path 41027" d="M200.725,310.91a12.88,12.88,0,0,0,6.648,1.837h.061c-1.974-.021-3.706-2.407-4.693-6a33.116,33.116,0,0,1-7.307-1.958,33.325,33.325,0,0,0,7.307,1.958,26.4,26.4,0,0,1-.871-6.9,34.206,34.206,0,0,1-7.289-1.955,12.94,12.94,0,0,0,4,11.4" transform="translate(-194.44 -286.882)" fill="none" stroke="#6a63ff" stroke-linecap="round" stroke-linejoin="round" stroke-width="2"/>
          <path id="Path_41028" data-name="Path 41028" d="M219.495,250.57h-.061a12.9,12.9,0,0,0-9.274,3.92,17.323,17.323,0,0,0,4.737,1.746c1-3.406,2.686-5.645,4.6-5.666Z" transform="translate(-206.501 -250.57)" fill="none" stroke="#6a63ff" stroke-linecap="round" stroke-linejoin="round" stroke-width="2"/>
          <path id="Path_41029" data-name="Path 41029" d="M278.5,297.66a28.809,28.809,0,0,1-7.107,2.1,26.182,26.182,0,0,1-.91,6.951,25.249,25.249,0,0,0,7.172-2.1,12.887,12.887,0,0,0,.994-4.979,13.071,13.071,0,0,0-.149-1.969Z" transform="translate(-252.779 -286.698)" fill="none" stroke="#6a63ff" stroke-linecap="round" stroke-linejoin="round" stroke-width="2"/>
          <path id="Path_41030" data-name="Path 41030" d="M250.66,335.472a12.94,12.94,0,0,0,11.786-7.952,25.28,25.28,0,0,1-7.172,2.1C254.287,333.1,252.592,335.421,250.66,335.472Z" transform="translate(-237.573 -309.607)" fill="none" stroke="#6a63ff" stroke-linecap="round" stroke-linejoin="round" stroke-width="2"/>
          <path id="Path_41031" data-name="Path 41031" d="M255.23,256.273a23.371,23.371,0,0,0,4.5-1.469.281.281,0,0,1,.365.13.281.281,0,0,0-.365-.13,23.371,23.371,0,0,1-4.5,1.469,26.194,26.194,0,0,1,.954,7.23v.123a28.811,28.811,0,0,0,7.107-2.1A12.935,12.935,0,0,0,250.66,250.57c1.9.051,3.578,2.3,4.57,5.7Z" transform="translate(-237.573 -250.57)" fill="none" stroke="#6a63ff" stroke-linecap="round" stroke-linejoin="round" stroke-width="2"/>
          <path id="Path_41032" data-name="Path 41032" d="M250.286,361.68h0Z" transform="translate(-237.266 -335.815)" fill="none" stroke="#6a63ff" stroke-linecap="round" stroke-linejoin="round" stroke-width="2"/>
          <path id="Path_41033" data-name="Path 41033" d="M250.286,250.57h0Z" transform="translate(-237.266 -250.57)" fill="none" stroke="#6a63ff" stroke-linecap="round" stroke-linejoin="round" stroke-width="2"/>
          <path id="Path_41034" data-name="Path 41034" d="M230.5,256.244a21.4,21.4,0,0,0,9.263.037c-.994-3.4-2.668-5.65-4.57-5.7H235.1c-1.911.021-3.6,2.26-4.6,5.666Z" transform="translate(-222.106 -250.578)" fill="none" stroke="#6a63ff" stroke-linecap="round" stroke-linejoin="round" stroke-width="2"/>
          <path id="Path_41035" data-name="Path 41035" d="M239.5,336.057a32.074,32.074,0,0,1-9.4-.137c.987,3.59,2.719,5.976,4.693,6h.093c1.932-.051,3.627-2.37,4.614-5.857Z" transform="translate(-221.799 -316.052)" fill="none" stroke="#6a63ff" stroke-linecap="round" stroke-linejoin="round" stroke-width="2"/>
          <path id="Path_41036" data-name="Path 41036" d="M236.579,274.947a21.4,21.4,0,0,1-9.263-.037,26.134,26.134,0,0,0-.966,7.265v.042a35.155,35.155,0,0,0,11.181.081v-.123a26.206,26.206,0,0,0-.954-7.23Z" transform="translate(-218.922 -269.244)" fill="none" stroke="#6a63ff" stroke-linecap="round" stroke-linejoin="round" stroke-width="2"/>
          <path id="Path_41037" data-name="Path 41037" d="M226.36,306.31a26.611,26.611,0,0,0,.871,6.9,32.072,32.072,0,0,0,9.4.137,26.349,26.349,0,0,0,.91-6.951,35.155,35.155,0,0,1-11.181-.081Z" transform="translate(-218.929 -293.335)" fill="none" stroke="#6a63ff" stroke-linecap="round" stroke-linejoin="round" stroke-width="2"/>
        </g>
      </g>
    </g>
  </g>
</svg>
