<svg xmlns="http://www.w3.org/2000/svg" width="104.354" height="102" viewBox="0 0 104.354 102">
  <g id="Layer_1" data-name="Layer 1" transform="translate(-11.823 -13)">
    <g id="Group_5597" data-name="Group 5597">
      <rect id="Rectangle_2130" data-name="Rectangle 2130" width="102" height="102" transform="translate(13 13)" fill="none"/>
      <g id="Group_5596" data-name="Group 5596" transform="translate(12.823 38.802)">
        <g id="Group_5593" data-name="Group 5593">
          <g id="Group_5590" data-name="Group 5590">
            <circle id="Ellipse_2932-2-2" data-name="Ellipse 2932-2-2" cx="1.408" cy="1.408" r="1.408" transform="translate(24.896 4.227)" fill="none" stroke="#000" stroke-linecap="round" stroke-linejoin="round" stroke-width="2"/>
            <circle id="Ellipse_2933-2-2" data-name="Ellipse 2933-2-2" cx="1.408" cy="1.408" r="1.408" transform="translate(46.292 4.227)" fill="none" stroke="#000" stroke-linecap="round" stroke-linejoin="round" stroke-width="2"/>
            <circle id="Ellipse_2934-2-2" data-name="Ellipse 2934-2-2" cx="1.408" cy="1.408" r="1.408" transform="translate(67.686 4.227)" fill="none" stroke="#000" stroke-linecap="round" stroke-linejoin="round" stroke-width="2"/>
            <path id="Rectangle_1130-2-2" data-name="Rectangle 1130-2-2" d="M144.649,162.066v-9.114a1.383,1.383,0,0,0-1.382-1.382H51.472a1.383,1.383,0,0,0-1.382,1.382v9.114a1.383,1.383,0,0,0,1.382,1.382h91.794a1.383,1.383,0,0,0,1.382-1.382Z" transform="translate(-50.09 -151.57)" fill="none" stroke="#000" stroke-linecap="round" stroke-linejoin="round" stroke-width="2"/>
          </g>
          <g id="Group_5591" data-name="Group 5591" transform="translate(0 14.945)">
            <circle id="Ellipse_2932-2-2-2" data-name="Ellipse 2932-2-2" cx="1.408" cy="1.408" r="1.408" transform="translate(24.896 4.224)" fill="none" stroke="#000" stroke-linecap="round" stroke-linejoin="round" stroke-width="2"/>
            <circle id="Ellipse_2933-2-2-2" data-name="Ellipse 2933-2-2" cx="1.408" cy="1.408" r="1.408" transform="translate(46.292 4.224)" fill="none" stroke="#000" stroke-linecap="round" stroke-linejoin="round" stroke-width="2"/>
            <path id="Rectangle_1130-2-2-2" data-name="Rectangle 1130-2-2" d="M144.649,211.332a1.383,1.383,0,0,0-1.382-1.382H51.472a1.383,1.383,0,0,0-1.382,1.382v9.114a1.383,1.383,0,0,0,1.382,1.382h51.016" transform="translate(-50.09 -209.95)" fill="none" stroke="#000" stroke-linecap="round" stroke-linejoin="round" stroke-width="2"/>
          </g>
          <g id="Group_5592" data-name="Group 5592" transform="translate(0 29.891)">
            <circle id="Ellipse_2932-2-2-3" data-name="Ellipse 2932-2-2" cx="1.408" cy="1.408" r="1.408" transform="translate(24.896 4.224)" fill="none" stroke="#000" stroke-linecap="round" stroke-linejoin="round" stroke-width="2"/>
            <circle id="Ellipse_2933-2-2-3" data-name="Ellipse 2933-2-2" cx="1.408" cy="1.408" r="1.408" transform="translate(46.292 4.224)" fill="none" stroke="#000" stroke-linecap="round" stroke-linejoin="round" stroke-width="2"/>
            <path id="Rectangle_1130-2-2-3" data-name="Rectangle 1130-2-2" d="M102.69,268.33H51.472a1.383,1.383,0,0,0-1.382,1.382v9.114a1.383,1.383,0,0,0,1.382,1.382h50.066" transform="translate(-50.09 -268.33)" fill="none" stroke="#000" stroke-linecap="round" stroke-linejoin="round" stroke-width="2"/>
          </g>
        </g>
        <g id="Group_5595" data-name="Group 5595" transform="translate(52.6 17.833)">
          <rect id="Rectangle_2131" data-name="Rectangle 2131" width="49.754" height="32.561" rx="5" fill="none" stroke="#000" stroke-linecap="round" stroke-miterlimit="10" stroke-width="2"/>
          <path id="Path_41007" data-name="Path 41007" d="M312.516,324.82H291.24" transform="translate(-282.106 -298.301)" fill="none" stroke="#000" stroke-linecap="round" stroke-linejoin="round" stroke-width="2"/>
          <line id="Line_266" data-name="Line 266" x1="8.266" transform="translate(35.948 26.519)" fill="none" stroke="#000" stroke-linecap="round" stroke-linejoin="round" stroke-width="2"/>
          <circle id="Ellipse_3580" data-name="Ellipse 3580" cx="1.958" cy="1.958" r="1.958" transform="translate(31.222 24.561)" fill="none" stroke="#000" stroke-linecap="round" stroke-linejoin="round" stroke-width="2"/>
          <line id="Line_267" data-name="Line 267" x1="4.756" transform="translate(20.936 16.899)" fill="none" stroke="#000" stroke-linecap="round" stroke-linejoin="round" stroke-width="2"/>
          <line id="Line_268" data-name="Line 268" x1="13.192" transform="translate(31.022 16.899)" fill="none" stroke="#000" stroke-linecap="round" stroke-linejoin="round" stroke-width="2"/>
          <circle id="Ellipse_3581" data-name="Ellipse 3581" cx="1.958" cy="1.958" r="1.958" transform="translate(26.483 14.94)" fill="none" stroke="#000" stroke-linecap="round" stroke-linejoin="round" stroke-width="2"/>
          <g id="Group_5594" data-name="Group 5594" transform="translate(3.715 3.922)">
            <path id="Path_41008" data-name="Path 41008" d="M283.848,256.9a6.889,6.889,0,1,1-6.889-6.886V256.9Z" transform="translate(-270.07 -246.564)" fill="none" stroke="#000" stroke-linecap="round" stroke-linejoin="round" stroke-width="2"/>
            <path id="Path_41009" data-name="Path 41009" d="M310.44,243.439V236.55a7.374,7.374,0,0,1,5.409,2.657c.074.1.148.2.218.3a7.945,7.945,0,0,1,1.262,3.927H310.44Z" transform="translate(-300.105 -236.55)" fill="none" stroke="#6a63ff" stroke-linecap="round" stroke-linejoin="round" stroke-width="2"/>
          </g>
        </g>
      </g>
    </g>
  </g>
</svg>
