<svg width="20" height="20" viewBox="0 0 20 20" fill="none" xmlns="http://www.w3.org/2000/svg">
<path fill-rule="evenodd" clip-rule="evenodd" d="M0.119456 0.170705C0.185168 0.264581 1.707 2.48238 3.50131 5.09912C5.29562 7.71586 6.95519 10.1358 7.18926 10.4768C7.42331 10.8177 7.61481 11.1035 7.61481 11.1119C7.61481 11.1203 7.52765 11.2279 7.42113 11.351C7.31461 11.4741 7.01456 11.8227 6.7544 12.1256C6.49421 12.4284 6.05561 12.9389 5.77972 13.2599C5.50384 13.5809 5.01849 14.1459 4.70115 14.5154C4.38383 14.8849 3.81319 15.5492 3.43307 15.9916C2.2574 17.36 2.08774 17.5577 1.19278 18.6013C0.714913 19.1586 0.256667 19.6914 0.174477 19.7854C0.0922873 19.8793 0.0250353 19.9661 0.0250353 19.9781C0.0250353 19.9922 0.325195 20 0.870713 20H1.71637L2.64608 18.9152C3.15744 18.3185 3.66186 17.7313 3.76702 17.6101C3.99442 17.3482 5.72863 15.3279 5.8744 15.1551C5.93021 15.0889 6.01128 14.9948 6.05455 14.9458C6.09785 14.8969 6.43904 14.5 6.81276 14.0639C7.18646 13.6278 7.50251 13.2602 7.51502 13.2472C7.52756 13.2341 7.7254 13.0037 7.95468 12.7351C8.18396 12.4665 8.37863 12.2467 8.38728 12.2467C8.39594 12.2467 9.5737 13.954 11.0046 16.0407C12.4354 18.1275 13.6316 19.8718 13.6629 19.9169L13.7196 19.9991L16.6204 19.9995C19.0059 19.9999 19.5192 19.9949 19.5101 19.9711C19.5004 19.9458 18.1106 17.9161 14.5452 12.7203C11.9784 8.97982 11.6371 8.47718 11.6469 8.45167C11.6564 8.42687 12.006 8.01747 14.3045 5.33958C14.6988 4.88024 15.2423 4.2467 15.5123 3.93172C15.7823 3.61674 16.0549 3.29956 16.118 3.22687C16.1812 3.15418 16.5135 2.76762 16.8563 2.36784C17.1992 1.96806 17.7821 1.28877 18.1516 0.858304C18.5211 0.427842 18.8371 0.0586346 18.8537 0.0378196C18.8821 0.00220287 18.8338 0 18.0249 0H17.1659L16.7839 0.446035C16.2754 1.03965 15.3563 2.11011 15.0953 2.4126C14.98 2.54626 14.8361 2.71423 14.7756 2.78586C14.7151 2.85749 14.5957 2.99593 14.5104 3.0935C14.425 3.19108 13.9947 3.69218 13.5542 4.20705C13.1136 4.72192 12.7472 5.14813 12.7398 5.15418C12.7324 5.16024 12.638 5.26987 12.53 5.39782C12.3411 5.62161 12.1489 5.84562 11.2673 6.86927C10.8803 7.31861 10.8605 7.33791 10.8279 7.29661C10.8091 7.27282 9.67505 5.62143 8.30779 3.62689L5.82187 0.000462469L2.91093 0.000220479L0 0L0.119456 0.170705ZM2.3914 1.35996C2.41326 1.39337 2.95713 2.17401 3.60002 3.09471C4.81929 4.84088 9.61053 11.7067 12.6918 16.1233C13.6765 17.5347 14.4941 18.7019 14.5088 18.7171C14.5298 18.7389 14.8165 18.7436 15.8484 18.7392L17.1614 18.7335L13.7257 13.8106C11.8361 11.103 9.10021 7.18282 7.64601 5.09912L5.00199 1.31057L3.67684 1.30489L2.35169 1.29921L2.3914 1.35996Z" fill="#FAFAFA"/>
</svg>
