<svg xmlns="http://www.w3.org/2000/svg" width="280.454" height="243.404" viewBox="0 0 280.454 243.404">
  <g id="Group_5526" data-name="Group 5526" transform="translate(0.04)">
    <path id="Path_40826" data-name="Path 40826" d="M837.182,654.74l7.554-2.4a25.569,25.569,0,0,0-.182-12.3c-3.035,6.748-11.939,8.4-17.012,13.787a15.381,15.381,0,0,0-3.935,12.738l-1.589,5.391a25.773,25.773,0,0,0,18.757-10.67,24.9,24.9,0,0,0,2.917-5.522C840.471,655.444,837.182,654.74,837.182,654.74Z" transform="translate(-577.554 -429.155)" fill="#f2f2f2"/>
    <path id="Path_40827" data-name="Path 40827" d="M826.2,631.489l5.693-5.514a25.57,25.57,0,0,0-5.649-10.929c.293,7.393-6.939,12.844-9.078,19.927a15.381,15.381,0,0,0,2.159,13.156l.982,5.534a25.773,25.773,0,0,0,12.03-17.916,24.893,24.893,0,0,0,.148-6.244C829.459,630.652,826.2,631.489,826.2,631.489Z" transform="translate(-574.646 -415.874)" fill="#f2f2f2"/>
    <path id="Path_40828" data-name="Path 40828" d="M514.059,222.624H301.152a.847.847,0,1,1,0-1.694H514.059a.847.847,0,1,1,0,1.694Z" transform="translate(-300.345 -206.462)" fill="#3f3d56"/>
    <ellipse id="Ellipse_3551" data-name="Ellipse 3551" cx="4.962" cy="5.072" rx="4.962" ry="5.072" transform="translate(10.338 0)" fill="#3f3d56"/>
    <ellipse id="Ellipse_3552" data-name="Ellipse 3552" cx="4.962" cy="5.072" rx="4.962" ry="5.072" transform="translate(27.479 0)" fill="#3f3d56"/>
    <ellipse id="Ellipse_3553" data-name="Ellipse 3553" cx="4.962" cy="5.072" rx="4.962" ry="5.072" transform="translate(44.62 0)" fill="#3f3d56"/>
    <path id="Path_40829" data-name="Path 40829" d="M719.533,192.742H707.357a.922.922,0,1,0,0,1.844h12.176a.922.922,0,1,0,0-1.844Z" transform="translate(-516.14 -191.485)" fill="#3f3d56"/>
    <path id="Path_40830" data-name="Path 40830" d="M719.533,200.126H707.357a.922.922,0,1,0,0,1.844h12.176a.922.922,0,1,0,0-1.844Z" transform="translate(-516.14 -195.408)" fill="#3f3d56"/>
    <path id="Path_40831" data-name="Path 40831" d="M719.533,207.5H707.357a.922.922,0,1,0,0,1.844h12.176a.922.922,0,1,0,0-1.844Z" transform="translate(-516.14 -199.327)" fill="#3f3d56"/>
    <circle id="Ellipse_3554" data-name="Ellipse 3554" cx="6.134" cy="6.134" r="6.134" transform="translate(10.338 38.292)" fill="#e6e7e8"/>
    <path id="Path_40832" data-name="Path 40832" d="M484.8,309.7H324.276a1.827,1.827,0,0,1,0-3.653H484.8a1.827,1.827,0,0,1,0,3.653Z" transform="translate(-312.111 -251.687)" fill="#e6e7e8"/>
    <path id="Path_40833" data-name="Path 40833" d="M442.7,325.1H324.276a1.827,1.827,0,0,1,0-3.654H442.7a1.827,1.827,0,0,1,0,3.654Z" transform="translate(-312.111 -259.87)" fill="#e6e7e8"/>
    <circle id="Ellipse_3555" data-name="Ellipse 3555" cx="6.134" cy="6.134" r="6.134" transform="translate(10.338 134.04)" fill="#e6e7e8"/>
    <path id="Path_40834" data-name="Path 40834" d="M484.8,514H324.276a1.827,1.827,0,1,1,0-3.653H484.8a2.043,2.043,0,0,1,1.928,1.968A1.8,1.8,0,0,1,484.8,514Z" transform="translate(-312.111 -360.243)" fill="#e6e7e8"/>
    <path id="Path_40835" data-name="Path 40835" d="M442.7,529.4H324.276a1.827,1.827,0,0,1,0-3.654H442.7a1.827,1.827,0,0,1,0,3.654Z" transform="translate(-312.111 -368.427)" fill="#e6e7e8"/>
    <circle id="Ellipse_3556" data-name="Ellipse 3556" cx="6.134" cy="6.134" r="6.134" transform="translate(10.338 82.557)" fill="#e6e7e8"/>
    <path id="Path_40836" data-name="Path 40836" d="M484.8,404.148H324.276a1.827,1.827,0,1,1,0-3.653H484.8a1.827,1.827,0,1,1,0,3.653Z" transform="translate(-312.111 -301.873)" fill="#e6e7e8"/>
    <path id="Path_40837" data-name="Path 40837" d="M462.443,419.55H324.276a1.827,1.827,0,1,1,0-3.654H462.443a1.827,1.827,0,0,1,0,3.654Z" transform="translate(-312.111 -310.057)" fill="#e6e7e8"/>
    <path id="Path_40838" data-name="Path 40838" d="M453.065,434.952H324.276a1.827,1.827,0,0,1,0-3.654h128.79a1.827,1.827,0,0,1,0,3.654Z" transform="translate(-312.111 -318.24)" fill="#e6e7e8"/>
    <circle id="Ellipse_3557" data-name="Ellipse 3557" cx="45.428" cy="45.428" r="45.428" transform="translate(98.191 106.613)" fill="#6c63ff"/>
    <circle id="Ellipse_3558" data-name="Ellipse 3558" cx="6.49" cy="6.49" r="6.49" transform="translate(137.067 154.912)" fill="#3f3d56"/>
    <circle id="Ellipse_3559" data-name="Ellipse 3559" cx="2.995" cy="2.995" r="2.995" transform="translate(140.562 158.407)" fill="#6c63ff"/>
    <path id="Path_40839" data-name="Path 40839" d="M595.087,532.52H571.118a8.962,8.962,0,0,1-8.952-8.952v-10.99a8.962,8.962,0,0,1,8.952-8.952h23.969a8.962,8.962,0,0,1,8.952,8.952v10.99A8.962,8.962,0,0,1,595.087,532.52Zm-23.969-27.956a8.024,8.024,0,0,0-8.015,8.015v10.99a8.024,8.024,0,0,0,8.015,8.014h23.969a8.023,8.023,0,0,0,8.015-8.014v-10.99a8.024,8.024,0,0,0-8.015-8.015Z" transform="translate(-439.483 -356.672)" fill="#fff"/>
    <path id="Path_40840" data-name="Path 40840" d="M572.494,529.207h21.275a8.409,8.409,0,0,0,8.409-8.409v-9.2a8.371,8.371,0,0,0-.555-2.983,8.387,8.387,0,0,1,3.342,6.7v9.2a8.409,8.409,0,0,1-8.409,8.409H575.281a8.4,8.4,0,0,1-7.854-5.426A8.361,8.361,0,0,0,572.494,529.207Z" transform="translate(-442.279 -359.324)" fill="#3f3d56"/>
    <path id="Path_40841" data-name="Path 40841" d="M408.163,483.679h-5.227l-2.487-20.165h7.716Z" transform="translate(-212.797 -246.286)" fill="#a0616a"/>
    <path id="Path_40842" data-name="Path 40842" d="M699.421,698.387H683.344v-.2a6.258,6.258,0,0,1,6.257-6.257h0l2.937-2.228,5.479,2.228h1.4Z" transform="translate(-503.871 -455.54)" fill="#2f2e41"/>
    <path id="Path_40843" data-name="Path 40843" d="M495.837,483.679h5.228l2.487-20.165h-7.716Z" transform="translate(-263.481 -246.286)" fill="#a0616a"/>
    <path id="Path_40844" data-name="Path 40844" d="M795.79,698.387h16.076v-.2a6.258,6.258,0,0,0-6.257-6.257h0l-2.937-2.228-5.479,2.228h-1.4Z" transform="translate(-563.618 -455.54)" fill="#2f2e41"/>
    <path id="Path_40845" data-name="Path 40845" d="M700.291,546.927c.077-1.151.691-7.514.691-7.514l1.47-13.495,2.592-35.772.169-2.342,13.576-2.606,9.278-4.448,11.028,3.525,8.587,3.22s.015,1.379.081,3.044c.088,2.18.243,4.852.61,5.547.614,1.228.46,7.819.46,7.819s.61,13.41,1.378,14.881a10.214,10.214,0,0,1,.691,5.146c-.232.614.768,16.719.768,16.719s2.566,28.5.956,32.8-7.694,1.482-7.694,1.482.294-1.147-1.47-1.687-7.139-40.951-7.139-40.951-1-8.286-1.919-10.661-1.765-9.047-1.765-9.047-5.676-11.043-5.749-13.5c0,0-.743-2.3-1.445.232s-2.772,8.587-2.772,8.587l-2.018,7.44-2.375,11.116-1.537,9.359s-2.3,12.421-2.669,12.958,0,11.885,0,11.885-1.779,9.664-4.294,11.352-9.176.027-9.176.027S700.213,548.078,700.291,546.927Z" transform="translate(-512.87 -344.517)" fill="#2f2e41"/>
    <path id="Path_40846" data-name="Path 40846" d="M408.427,195.444l3.018,9.091-3.724,4.433,1.64,1.688-1.21,2.385-3.154,25,17.292,6.558,5.823-7.3,4.591,7.3,20.009-4.889-5.1-31.886v-2.085l-1.441-4.025V193.2l3.8-25.365-11.356-3.977-5.429-4.3-1.757,6.043-7.481-1.331-.195-4.54-5.724,5.408-4.82,1.375-5.771,1.32-.735,1.838,1.47-.367-.239,23.913Z" transform="translate(-215.214 -84.781)" fill="#2f2e41"/>
    <path id="Path_40847" data-name="Path 40847" d="M694.155,450.509l2.9-28.111.767-11.569-8.129-1.47s.322,8.273-.743,12.94c-1.051,4.606-.139,27.593-.075,28.208a3.955,3.955,0,1,0,5.275,0Z" transform="translate(-506.111 -306.583)" fill="#a0616a"/>
    <path id="Path_40848" data-name="Path 40848" d="M684.019,404.366l2.261.467,7.756,1.606.43.088.915-3.639,1.062-1.132,2.022-10.594.107-.551,3.055-6.529,2.113-19.623-7.859,1.412c-.04.04-.077.085-.114.129-1.129,1.279-1.934,3.058-3.25,4.849-4.283,5.827-7.569,19.983-7.44,27.739,0,.125-.125.261-.279.4a4.3,4.3,0,0,0-.779,5.378Z" transform="translate(-503.904 -282.725)" fill="#2f2e41"/>
    <path id="Path_40849" data-name="Path 40849" d="M805.291,450.509l-2.9-28.111-.767-11.569,8.129-1.47s-.322,8.273.743,12.94c1.051,4.606.139,27.593.074,28.208a3.955,3.955,0,1,1-5.275,0Z" transform="translate(-566.716 -306.583)" fill="#a0616a"/>
    <path id="Path_40850" data-name="Path 40850" d="M806.408,404.366l-2.261.467-7.756,1.606-.43.088-.915-3.639-1.062-1.132-2.022-10.594-.107-.551-3.055-6.529.7-19.623,5.047,1.412c.04.04.077.085.114.129,1.129,1.279,1.934,3.058,3.25,4.849,4.283,5.827,7.569,19.983,7.44,27.739,0,.125.125.261.279.4A4.3,4.3,0,0,1,806.408,404.366Z" transform="translate(-559.904 -282.725)" fill="#2f2e41"/>
    <path id="Path_40851" data-name="Path 40851" d="M729.991,359.477l3.693-9.686,9.433-.173,3.13,9.858,11.25,62.848s-34.467,9.6-34.117-1.939c.368-12.131,2.026-28.245,2.026-28.245Z" transform="translate(-525.142 -274.84)" fill="#6c63ff"/>
    <circle id="Ellipse_3560" data-name="Ellipse 3560" cx="11.112" cy="11.112" r="11.112" transform="translate(201.935 50.018)" fill="#a0616a"/>
    <path id="Path_40852" data-name="Path 40852" d="M729.062,294.928c1.809-1.969,4.072-5.573,10.925-7.087,8.469-1.87,12.47,5.78,10.335,5.906,6.245,1.891,2.233,14.814.443,13.731a.534.534,0,0,1-.044-.034,8.8,8.8,0,0,1-3.514-6l-.34-3.058c-.049,2.488-2.592,2.817-5.19,1.9a3.26,3.26,0,0,1,2.3-2.267,11.147,11.147,0,0,1-6.548,2.849,4.458,4.458,0,0,1,2.168-2.983l-.1-.1a10.71,10.71,0,0,1-3.435,1.945,4.047,4.047,0,0,1-4.13-.933,3.046,3.046,0,0,1-.587-1.056c.212,1.971-1.109,4.22-2.136,3.834C728.355,301.406,727.858,296.238,729.062,294.928Z" transform="translate(-527.782 -241.859)" fill="#2f2e41"/>
    <path id="Path_40853" data-name="Path 40853" d="M748.532,707.6a.556.556,0,0,1-.558.558H616.615a.558.558,0,0,1,0-1.115H747.974a.556.556,0,0,1,.558.558Z" transform="translate(-468.118 -464.757)" fill="#ccc"/>
    <path id="Path_40854" data-name="Path 40854" d="M595.654,461.922a13.042,13.042,0,0,0-10.56,5.031,13.648,13.648,0,0,1,8.142-2.612c6.881,0,12.478,4.82,12.478,10.744v4.925h2.418v-7.343C608.132,466.742,602.534,461.922,595.654,461.922Z" transform="translate(-451.666 -334.512)" fill="#3f3d56"/>
    <path id="Path_40855" data-name="Path 40855" d="M604.9,482.05H575.88v-8.538c0-6.888,6.509-12.493,14.509-12.493s14.509,5.6,14.509,12.493Zm-28.081-.937h27.144v-7.6c0-6.372-6.088-11.555-13.572-11.555s-13.572,5.184-13.572,11.555Z" transform="translate(-446.77 -334.032)" fill="#fff"/>
    <path id="Path_40856" data-name="Path 40856" d="M602.986,482.486H588.122a2.525,2.525,0,0,1-2.522-2.522v-3.4c0-4.737,4.465-8.591,9.954-8.591s9.954,3.854,9.954,8.591v3.4A2.525,2.525,0,0,1,602.986,482.486Zm-7.432-13.574c-4.972,0-9.016,3.433-9.016,7.654v3.4a1.587,1.587,0,0,0,1.585,1.585h14.863a1.587,1.587,0,0,0,1.585-1.585v-3.4C604.571,472.345,600.526,468.912,595.554,468.912Z" transform="translate(-451.935 -337.728)" fill="#fff"/>
  </g>
</svg>
