<svg xmlns="http://www.w3.org/2000/svg" width="68" height="70.417" viewBox="0 0 68 70.417">
  <g id="Layer_1" data-name="Layer 1" transform="translate(-31 -29.596)">
    <g id="Group_5608" data-name="Group 5608">
      <g id="Group_5607" data-name="Group 5607" transform="translate(34.008 30.596)">
        <g id="Group_5606" data-name="Group 5606">
          <g id="Group_5605" data-name="Group 5605">
            <path id="Path_41018" data-name="Path 41018" d="M192.784,328.3c0,7.531-13.882,13.635-31.007,13.635S130.77,335.829,130.77,328.3" transform="translate(-130.77 -273.518)" fill="none" stroke="#000" stroke-miterlimit="10" stroke-width="2"/>
            <path id="Path_41019" data-name="Path 41019" d="M193.26,287.564a64.3,64.3,0,0,0,14.756,1.641c17.125,0,31.007-6.106,31.007-13.635" transform="translate(-177.009 -234.501)" fill="none" stroke="#6a63ff" stroke-linecap="round" stroke-linejoin="round" stroke-width="2"/>
            <path id="Path_41020" data-name="Path 41020" d="M130.77,275.56c0,3.963,3.846,7.531,9.984,10.023" transform="translate(-130.77 -234.494)" fill="none" stroke="#6a63ff" stroke-linecap="round" stroke-linejoin="round" stroke-width="2"/>
            <path id="Path_41021" data-name="Path 41021" d="M192.784,222.82c0,7.531-13.882,13.635-31.007,13.635s-31.007-6.106-31.007-13.635" transform="translate(-130.77 -195.469)" fill="none" stroke="#000" stroke-miterlimit="10" stroke-width="2"/>
            <path id="Path_41022" data-name="Path 41022" d="M185.7,122.609c4.424,2.356,7.084,5.381,7.084,8.676,0,7.531-13.882,13.635-31.007,13.635s-31.007-6.106-31.007-13.635,13.882-13.635,31.007-13.635a65.562,65.562,0,0,1,15.5,1.787" transform="translate(-130.77 -117.65)" fill="none" stroke="#000" stroke-linecap="round" stroke-linejoin="round" stroke-width="2"/>
          </g>
          <ellipse id="Ellipse_3586" data-name="Ellipse 3586" cx="1.737" cy="2.047" rx="1.737" ry="2.047" transform="translate(55.055 25.304)"/>
          <ellipse id="Ellipse_3587" data-name="Ellipse 3587" cx="1.737" cy="2.047" rx="1.737" ry="2.047" transform="translate(55.055 39.818)"/>
          <ellipse id="Ellipse_3588" data-name="Ellipse 3588" cx="1.737" cy="2.047" rx="1.737" ry="2.047" transform="translate(55.055 53.443)"/>
        </g>
        <line id="Line_282" data-name="Line 282" y1="41.423" transform="translate(62.015 13.635)" fill="none" stroke="#000" stroke-miterlimit="10" stroke-width="2"/>
        <line id="Line_283" data-name="Line 283" y1="41.423" transform="translate(0 13.635)" fill="none" stroke="#000" stroke-miterlimit="10" stroke-width="2"/>
      </g>
      <rect id="Rectangle_2139" data-name="Rectangle 2139" width="68" height="68" transform="translate(31 31.031)" fill="none"/>
    </g>
  </g>
</svg>
