<svg xmlns="http://www.w3.org/2000/svg" width="88.95" height="48.424" viewBox="0 0 88.95 48.424">
  <g id="Group_2553" data-name="Group 2553" opacity="0.513">
    <path id="Path_11655" data-name="Path 11655" d="M19.464,44.706a5.5,5.5,0,0,1-4.71,0,4.8,4.8,0,0,1-1.585-1.233,5.371,5.371,0,0,1-1.145-1.453,5.5,5.5,0,0,1-.44-2.245,6.3,6.3,0,0,1,.22-2.157,4.93,4.93,0,0,1,1.189-1.893,5.062,5.062,0,0,1,6.3-1.012,12.59,12.59,0,0,1,1.893,1.541l1.453-1.541a8.8,8.8,0,0,0-1.057-1.145,7.572,7.572,0,0,0-2.861-1.409,6.911,6.911,0,0,0-1.893,0,6.867,6.867,0,0,0-2.993.572A7.88,7.88,0,0,0,9.868,42.813a7.528,7.528,0,0,0,10.741,3.61,10.477,10.477,0,0,0,2.509-2.113l-1.541-1.321a9.333,9.333,0,0,1-1.937,1.541m17.388-5.106a6.339,6.339,0,0,1-.4,2.245,7.615,7.615,0,0,1-1.1,1.8,5.855,5.855,0,0,1-1.717,1.233,5.767,5.767,0,0,1-4.4,0A5.327,5.327,0,0,1,27.7,43.473,6.207,6.207,0,0,1,26.42,42.02a6.515,6.515,0,0,1-.4-2.245,6.3,6.3,0,0,1,.4-2.2,5.723,5.723,0,0,1,1.057-1.8,5.459,5.459,0,0,1,1.717-1.277,5.371,5.371,0,0,1,4.4,0,5.855,5.855,0,0,1,2.861,3.082,6.823,6.823,0,0,1,.44,2.289Zm0-5.371a7.88,7.88,0,0,0-2.465-1.673,7.792,7.792,0,0,0-6.119,0,7.528,7.528,0,0,0-4.006,4.05,7.748,7.748,0,0,0,1.585,8.364,8.5,8.5,0,0,0,2.421,1.673,7.968,7.968,0,0,0,3.037.616A7.66,7.66,0,0,0,36.9,44.794a8.364,8.364,0,0,0,1.321-2.333,8.144,8.144,0,0,0,0-5.943,7.352,7.352,0,0,0-1.453-2.377ZM5.245,42.328a1.472,1.472,0,1,0,.088-.088m39.179,0a5.241,5.241,0,1,0-.088-.176m31.168,4.842L71.63,40.656,70.089,42.24v4.666h-4.4V26.129h4.4V37.222l5.195-5.547h5.15l-5.811,5.943,5.987,9.333ZM69.032,4.47A24.124,24.124,0,0,0,50.147,43.341a8.276,8.276,0,0,1-.528-2.905v-8.8h4.4V39.2c0,2.465.4,3.654,2.421,3.654s2.465-1.233,2.465-3.61V31.719h4.4v8.8a6.075,6.075,0,0,1-5.371,6.691,3.786,3.786,0,0,1-1.409,0,8.012,8.012,0,0,1-3.522-.7,23.86,23.86,0,0,0,16.024,6.383,24.212,24.212,0,1,0,0-48.424Z" transform="translate(-4.294 -4.47)" fill="#fff" fill-rule="evenodd"/>
  </g>
</svg>
