<svg xmlns="http://www.w3.org/2000/svg" width="79.163" height="79.164" viewBox="0 0 79.163 79.164">
  <g id="Group_5892" data-name="Group 5892" transform="translate(10577.171 4812.218)">
    <g id="Group_5643" data-name="Group 5643" transform="translate(-10726 -11405)">
      <g id="Path_41074" data-name="Path 41074" transform="translate(180.516 6634) rotate(-45)" fill="none">
        <path d="M4.744-1.607,11.087.18l1.642,6.2L7.748,11.361,1.331,9.936-.238,3.375Z" stroke="none"/>
        <path d="M 5.037173271179199 -0.4851713180541992 L 0.8650970458984375 3.686903953552246 L 2.157879829406738 9.09538745880127 L 7.428741455078125 10.26550006866455 L 11.61561870574951 6.078621864318848 L 10.26674652099609 0.987401008605957 L 5.037173271179199 -0.4851713180541992 M 4.744312286376953 -1.606531143188477 L 11.08721256256104 0.1795387268066406 L 12.72965240478516 6.378808975219727 L 7.74779224395752 11.36066913604736 L 1.330662727355957 9.936088562011719 L -0.2375478744506836 3.37532901763916 L 4.744312286376953 -1.606531143188477 Z" stroke="none" fill="#fff"/>
      </g>
      <g id="Path_41075" data-name="Path 41075" transform="translate(169.834 6634) rotate(-45)" fill="none">
        <path d="M10.548-1.607,24.281,2.26l3.556,13.421L17.051,26.467,3.158,23.383l-3.4-14.2Z" stroke="none"/>
        <path d="M 10.84105110168457 -0.48516845703125 L 0.8651008605957031 9.490779876708984 L 3.984836578369141 22.54257202148438 L 16.73167610168457 25.37230491638184 L 26.72242546081543 15.38155746459961 L 23.46011161804199 3.068164825439453 L 10.84105110168457 -0.48516845703125 M 10.54818725585938 -1.606525421142578 L 24.28057861328125 2.260303497314453 L 27.83645820617676 15.68174457550049 L 17.05072784423828 26.46747398376465 L 3.157617568969727 23.38327407836914 L -0.2375431060791016 9.179203987121582 L 10.54818725585938 -1.606525421142578 Z" stroke="none" fill="#fff"/>
      </g>
      <g id="Path_41076" data-name="Path 41076" transform="translate(159.193 6634) rotate(-45)" fill="none">
        <path d="M16.329-1.607,37.421,4.333l5.462,20.615L26.316,41.514,4.977,36.776-.238,14.96Z" stroke="none"/>
        <path d="M 16.62158584594727 -0.4851722717285156 L 0.8650970458984375 15.27131843566895 L 5.804450988769531 35.9356689453125 L 25.9971923828125 40.41836547851562 L 41.76847839355469 24.64707565307617 L 36.60042572021484 5.140571594238281 L 16.62158584594727 -0.4851722717285156 M 16.3287239074707 -1.606529235839844 L 37.42089462280273 4.332714080810547 L 42.88251495361328 24.94726181030273 L 26.31624221801758 41.51353454589844 L 4.97723388671875 36.77637100219727 L -0.237548828125 14.95974349975586 L 16.3287239074707 -1.606529235839844 Z" stroke="none" fill="#fff"/>
      </g>
      <g id="Path_41077" data-name="Path 41077" transform="translate(150.133 6633.246) rotate(-45)" fill="none">
        <path d="M21.222-1.607,48.544,6.12l7.075,26.819L34.159,54.491,6.517,48.328-.238,19.946Z" stroke="none"/>
        <path d="M 21.51555633544922 -0.4842453002929688 L 0.8643226623535156 20.25621795654297 L 7.345523834228516 47.48825836181641 L 33.83934783935547 53.39517211914062 L 54.50555419921875 32.63966369628906 L 47.72257995605469 6.927146911621094 L 21.51555633544922 -0.4842453002929688 M 21.22183609008789 -1.606529235839844 L 48.54391479492188 6.120201110839844 L 55.61871719360352 32.93896484375 L 34.15933609008789 54.49107360839844 L 6.517494201660156 48.32820129394531 L -0.2375450134277344 19.94557189941406 L 21.22183609008789 -1.606529235839844 Z" stroke="none" fill="#fff"/>
      </g>
      <path id="Path_41079" data-name="Path 41079" d="M212.23,6617.546l-18.523,12.548" fill="none" stroke="#fff" stroke-width="1"/>
      <path id="Path_41080" data-name="Path 41080" d="M212.385,6647.454l-19.012-11.136" fill="none" stroke="#fff" stroke-width="1"/>
      <path id="Path_41081" data-name="Path 41081" d="M188.5,6639.4l.357,22.988" fill="none" stroke="#fff" stroke-width="1"/>
      <path id="Path_41082" data-name="Path 41082" d="M183.445,6636.182l-18.963,11.172" fill="none" stroke="#fff" stroke-width="1"/>
      <path id="Path_41083" data-name="Path 41083" d="M164.535,6617.394l18.771,12.761" fill="none" stroke="#fff" stroke-width="1"/>
    </g>
    <path id="Path_41084" data-name="Path 41084" d="M188.766,6603.935l-.232,23.3" transform="translate(-10726 -11405)" fill="none" stroke="#fff" stroke-width="1"/>
  </g>
</svg>
