<svg xmlns="http://www.w3.org/2000/svg" width="70" height="71.646" viewBox="0 0 70 71.646">
  <g id="Layer_1" data-name="Layer 1" transform="translate(-20 -19.21)">
    <g id="Group_5604" data-name="Group 5604" transform="translate(20 20.074)">
      <rect id="Rectangle_2136" data-name="Rectangle 2136" width="70" height="70" fill="none"/>
      <g id="Group_5603" data-name="Group 5603" transform="translate(12.181 0.136)">
        <rect id="Rectangle_2137" data-name="Rectangle 2137" width="40.954" height="55.039" rx="4" transform="translate(0 14.607)" fill="none" stroke="#000" stroke-linecap="round" stroke-linejoin="round" stroke-width="2"/>
        <path id="Path_41015" data-name="Path 41015" d="M201.4,97.04h14.768a1.682,1.682,0,0,1,1.68,1.68v12.927H199.72V98.72A1.682,1.682,0,0,1,201.4,97.04Z" transform="translate(-188.307 -97.04)" fill="none" stroke="#000" stroke-linecap="round" stroke-linejoin="round" stroke-width="2"/>
        <path id="Path_41016" data-name="Path 41016" d="M214.849,143.44h10.436a.523.523,0,0,1,.521.521v3.522H214.33v-3.522a.523.523,0,0,1,.521-.521Z" transform="translate(-199.591 -132.876)" fill="none" stroke="#000" stroke-linecap="round" stroke-linejoin="round" stroke-width="2"/>
        <rect id="Rectangle_2138" data-name="Rectangle 2138" width="4.767" height="12.69" rx="2.384" transform="translate(40.954 36.041)" fill="none" stroke="#000" stroke-linecap="round" stroke-linejoin="round" stroke-width="2"/>
        <line id="Line_273" data-name="Line 273" x2="15.369" transform="translate(25.585 25.535)" fill="none" stroke="#000" stroke-linecap="round" stroke-linejoin="round" stroke-width="2"/>
        <line id="Line_274" data-name="Line 274" x2="4.956" transform="translate(14.263 25.535)" fill="none" stroke="#000" stroke-linecap="round" stroke-linejoin="round" stroke-width="2"/>
        <line id="Line_275" data-name="Line 275" x2="5.639" transform="translate(0 25.535)" fill="none" stroke="#000" stroke-linecap="round" stroke-linejoin="round" stroke-width="2"/>
        <line id="Line_276" data-name="Line 276" x2="17.193" transform="translate(23.761 30.265)" fill="none" stroke="#000" stroke-linecap="round" stroke-linejoin="round" stroke-width="2"/>
        <line id="Line_277" data-name="Line 277" x2="19.219" transform="translate(0 30.265)" fill="none" stroke="#000" stroke-linecap="round" stroke-linejoin="round" stroke-width="2"/>
        <line id="Line_278" data-name="Line 278" x2="9.632" transform="translate(31.322 53.817)" fill="none" stroke="#000" stroke-linecap="round" stroke-linejoin="round" stroke-width="2"/>
        <line id="Line_279" data-name="Line 279" x2="23.354" transform="translate(0 53.817)" fill="none" stroke="#000" stroke-linecap="round" stroke-linejoin="round" stroke-width="2"/>
        <line id="Line_280" data-name="Line 280" x2="40.954" transform="translate(0 58.548)" fill="none" stroke="#000" stroke-linecap="round" stroke-linejoin="round" stroke-width="2"/>
        <path id="Path_41017" data-name="Path 41017" d="M2.035,0H3.6A1.843,1.843,0,0,1,5.439,1.842v8.583H0V2.035A2.036,2.036,0,0,1,2.035,0Z" transform="matrix(0.901, 0.433, -0.433, 0.901, 22.179, 19.889)" fill="none" stroke="#6a63ff" stroke-linecap="round" stroke-linejoin="round" stroke-width="2"/>
        <line id="Line_281" data-name="Line 281" x2="0.055" y2="6.516" transform="translate(24.701 14.607)" fill="none" stroke="#6a63ff" stroke-linecap="round" stroke-linejoin="round" stroke-width="2"/>
      </g>
    </g>
  </g>
</svg>
