<svg xmlns="http://www.w3.org/2000/svg" width="57.897" height="54.683" viewBox="0 0 57.897 54.683">
  <g id="Group_2558" data-name="Group 2558" opacity="0.513">
    <path id="Path_11670" data-name="Path 11670" d="M51.1,65.391A2.855,2.855,0,1,0,53.8,68.367v-.281a2.734,2.734,0,0,0-2.573-2.694m35.1,5.428-4.5-7.077-1.729,1.649v5.428H75.108V47.1h4.785V59.682l5.75-6.313h5.911L85,60.2l6.956,10.615Zm-7.4-48.249a27.382,27.382,0,0,0-21.27,43.907,9.086,9.086,0,0,1-.6-3.458v-9.61H61.8v8.685c0,2.694.482,4.021,2.694,4.021s2.694-1.407,2.694-4.021V53.409h4.664v9.73a6.835,6.835,0,0,1-5.911,7.639H64.292a9.65,9.65,0,0,1-4.021-.844,26.859,26.859,0,0,0,18.415,7.318,27.3,27.3,0,1,0,0-54.6Z" transform="translate(-48.091 -22.57)" fill="#fff" fill-rule="evenodd"/>
  </g>
</svg>
