<svg xmlns="http://www.w3.org/2000/svg" width="407.032" height="340.86" viewBox="0 0 407.032 340.86">
  <g id="Group_5640" data-name="Group 5640" transform="translate(0.022)">
    <path id="Path_41038" data-name="Path 41038" d="M620.779,199.742h-358.2a.575.575,0,1,1,0-1.15h358.2a.575.575,0,1,1,0,1.15Z" transform="translate(-262.029 -179.036)" fill="#cacaca"/>
    <ellipse id="Ellipse_3590" data-name="Ellipse 3590" cx="6.189" cy="6.327" rx="6.189" ry="6.327" transform="translate(7.028 0)" fill="#3f3d56"/>
    <ellipse id="Ellipse_3591" data-name="Ellipse 3591" cx="6.189" cy="6.327" rx="6.189" ry="6.327" transform="translate(28.408 0)" fill="#3f3d56"/>
    <ellipse id="Ellipse_3592" data-name="Ellipse 3592" cx="6.189" cy="6.327" rx="6.189" ry="6.327" transform="translate(49.788 0)" fill="#3f3d56"/>
    <path id="Path_41039" data-name="Path 41039" d="M860.226,166.838H845.038a1.15,1.15,0,1,0,0,2.3h15.187a1.15,1.15,0,1,0,0-2.3Z" transform="translate(-514.287 -165.27)" fill="#3f3d56"/>
    <path id="Path_41040" data-name="Path 41040" d="M860.226,174.458H845.038a1.15,1.15,0,1,0,0,2.3h15.187a1.15,1.15,0,1,0,0-2.3Z" transform="translate(-514.287 -168.573)" fill="#3f3d56"/>
    <path id="Path_41041" data-name="Path 41041" d="M860.226,182.068H845.038a1.15,1.15,0,1,0,0,2.3h15.187a1.15,1.15,0,1,0,0-2.3Z" transform="translate(-514.287 -171.873)" fill="#3f3d56"/>
    <path id="Path_41042" data-name="Path 41042" d="M607.819,234.906H281.562a6.825,6.825,0,0,0-6.815,6.815v1.1a6.825,6.825,0,0,0,6.815,6.815H607.819a6.825,6.825,0,0,0,6.815-6.815v-1.1a6.825,6.825,0,0,0-6.815-6.815Z" transform="translate(-267.552 -194.779)" fill="#f0f0f0"/>
    <path id="Path_41043" data-name="Path 41043" d="M330.508,248.692H299.452a2.622,2.622,0,0,1,0-5.245h31.056C333.89,243.4,333.924,248.74,330.508,248.692Z" transform="translate(-277.126 -198.482)" fill="#fff"/>
    <path id="Path_41044" data-name="Path 41044" d="M494.508,248.692H463.452a2.622,2.622,0,1,1,0-5.245h31.056C497.89,243.4,497.924,248.74,494.508,248.692Z" transform="translate(-348.223 -198.482)" fill="#fff"/>
    <path id="Path_41045" data-name="Path 41045" d="M658.508,248.692H627.453a2.622,2.622,0,0,1,0-5.245h31.056C661.89,243.4,661.924,248.74,658.508,248.692Z" transform="translate(-419.321 -198.482)" fill="#fff"/>
    <path id="Path_41046" data-name="Path 41046" d="M814.008,249.192H782.953a2.622,2.622,0,1,1,0-5.245h31.056C817.39,243.9,817.424,249.24,814.008,249.192Z" transform="translate(-486.734 -198.698)" fill="#6c63ff"/>
    <rect id="Rectangle_2143" data-name="Rectangle 2143" width="1.133" height="14.728" transform="translate(277.688 40.127)" fill="#fff"/>
    <path id="Path_41047" data-name="Path 41047" d="M441.967,597.945H308.814a4.48,4.48,0,0,1-4.475-4.475v-19.5a4.48,4.48,0,0,1,4.475-4.475H441.967a4.48,4.48,0,0,1,4.475,4.475v19.5a4.48,4.48,0,0,1-4.475,4.475Z" transform="translate(-280.381 -339.83)" fill="#f0f0f0"/>
    <path id="Path_41048" data-name="Path 41048" d="M431.34,597.238h-117.2a4.48,4.48,0,0,1-4.475-4.475V579.3a4.48,4.48,0,0,1,4.475-4.475H441.259a4.48,4.48,0,0,1,4.475,4.475v3.543A14.41,14.41,0,0,1,431.34,597.238Z" transform="translate(-282.692 -342.142)" fill="#fff"/>
    <path id="Path_41049" data-name="Path 41049" d="M411.251,590.391H357.734a1.154,1.154,0,0,1,0-2.308h53.517a1.154,1.154,0,0,1,0,2.308Z" transform="translate(-303.029 -347.889)" fill="#e6e6e6"/>
    <path id="Path_41050" data-name="Path 41050" d="M438.342,598.723H357.734a1.154,1.154,0,0,1,0-2.308h80.608a1.154,1.154,0,1,1,0,2.308Z" transform="translate(-303.028 -351.501)" fill="#e6e6e6"/>
    <path id="Path_41051" data-name="Path 41051" d="M442.622,434.3H290.8a4.575,4.575,0,0,1-4.569-4.569V313.675a4.574,4.574,0,0,1,4.569-4.569H442.622a4.575,4.575,0,0,1,4.569,4.569V429.728a4.575,4.575,0,0,1-4.569,4.569Z" transform="translate(-272.531 -226.946)" fill="#fff"/>
    <path id="Path_41052" data-name="Path 41052" d="M442.188,434.431H290.367a5.142,5.142,0,0,1-5.136-5.136V313.242a5.142,5.142,0,0,1,5.136-5.136H442.188a5.142,5.142,0,0,1,5.136,5.136V429.295a5.142,5.142,0,0,1-5.136,5.136ZM290.367,309.239a4.007,4.007,0,0,0-4,4V429.295a4.007,4.007,0,0,0,4,4H442.188a4.007,4.007,0,0,0,4-4V313.242a4.007,4.007,0,0,0-4-4Z" transform="translate(-272.097 -226.513)" fill="#f0f0f0"/>
    <path id="Path_41053" data-name="Path 41053" d="M286.85,491.106v17.523a4.225,4.225,0,0,0,4.219,4.219H442.89a4.225,4.225,0,0,0,4.219-4.219V491.106Z" transform="translate(-272.799 -305.847)" fill="#f0f0f0"/>
    <rect id="Rectangle_2144" data-name="Rectangle 2144" width="1.133" height="188.954" transform="translate(14.87 83.853) rotate(-57.371)" fill="#f0f0f0"/>
    <rect id="Rectangle_2145" data-name="Rectangle 2145" width="188.954" height="1.133" transform="translate(15.319 184.781) rotate(-32.629)" fill="#f0f0f0"/>
    <path id="Path_41054" data-name="Path 41054" d="M537.437,567.07h-7.019L527.079,540h10.359Z" transform="translate(-228.51 -234.101)" fill="#a0616a"/>
    <path id="Path_41055" data-name="Path 41055" d="M791.256,745.412l-7.489-3.042-.221-.091-4.135,3.133a8.8,8.8,0,0,0-8.8,8.425c-.011.123-.011.254-.011.384v.289h22.631v-9.1Z" transform="translate(-482.517 -414.736)" fill="#2f2e41"/>
    <path id="Path_41056" data-name="Path 41056" d="M501.994,556.714l-6.621,2.329-12.135-24.429,9.772-3.437Z" transform="translate(-209.504 -230.277)" fill="#a0616a"/>
    <path id="Path_41057" data-name="Path 41057" d="M763.667,736.116l-8.074-.384-.238-.012-2.861,4.328a8.8,8.8,0,0,0-5.5,10.866c.031.121.074.244.117.367l.1.272,21.348-7.511-3.02-8.582Z" transform="translate(-472.114 -411.78)" fill="#2f2e41"/>
    <path id="Path_41058" data-name="Path 41058" d="M769.87,537.737c6.421-.249-1.533,50.921-1.533,50.921s2.327,44.925,1.834,47.282-.062,8.716-.062,8.716c-1.258-2.29-14.237-.562-14.237-.562l-1.766-45.531-9.015-36.481-12.5,24.454,11.979,37.535s4.851,4.489,4.335,6.263-13.222,5.774-15.557,5.865-1.281-2.873-1.394-5.792-11.1-29.969-14.965-39.173-.86-22.182,1.113-31.612,12.351-27.128,12.351-27.128C743.338,517.963,763.449,537.985,769.87,537.737Z" transform="translate(-458.463 -321.495)" fill="#2f2e41"/>
    <path id="Path_41059" data-name="Path 41059" d="M673.166,466.936a5.188,5.188,0,0,0,7.772,1.7l15.441,10.074-.047-9.581-14.656-8.1a5.216,5.216,0,0,0-8.51,5.907Z" transform="translate(-440.011 -292.046)" fill="#a0616a"/>
    <path id="Path_41060" data-name="Path 41060" d="M778.271,494.73c-15.924,0-24.7-3.187-29.359-6.033-5.7-3.48-6.673-7.15-6.712-7.3l-.011-.044.555-6.979.243-.543a11.049,11.049,0,0,0,.416-7.935l-.017-.054,0-.056,3.723-48.289,13.176-4.316,3.833-3.851,17.067-.248,2.378,4.821,13.454,5.065-6.61,39.346-3.169,5.462,1.275,5.95-.009.054-4.157,24.812-.229.01Q781.047,494.733,778.271,494.73Z" transform="translate(-470.199 -270.286)" fill="#3f3d56"/>
    <path id="Path_41061" data-name="Path 41061" d="M716.042,470.621l-6.247-3.7-.391-.565a8.913,8.913,0,0,0-7.055-3.823l-.073,0-8.6-5.059,3.566-10.448,13.488,3.985,9.4-23.364a7.477,7.477,0,0,1,13.3-1.137,7.718,7.718,0,0,1,1.114,4.082v15.288l-.056.076Z" transform="translate(-449.166 -276.303)" fill="#3f3d56"/>
    <path id="Path_41062" data-name="Path 41062" d="M806.822,530.488a5.188,5.188,0,0,1,6.9-3.954l11.7-14.248,2.833,9.152-11.546,12.127a5.216,5.216,0,0,1-9.892-3.078Z" transform="translate(-498.18 -315.03)" fill="#a0616a"/>
    <path id="Path_41063" data-name="Path 41063" d="M827.649,490.193l-7.77-7.771,4.946-12.052,7.168-9.788c-7.638-3.719-13.372-12.528-17.526-19.82l-.047-.082,1.035-8.1a10.406,10.406,0,0,1,19.137-4.211l13.931,30.968-.157.234-11.205,19.1-3.058,1.983Z" transform="translate(-501.513 -276.535)" fill="#3f3d56"/>
    <path id="Path_41064" data-name="Path 41064" d="M795.933,367.973a14.221,14.221,0,0,1-28.183-3.836l.028-.2a14.22,14.22,0,1,1,28.153,4.037Z" transform="translate(-481.223 -245.425)" fill="#a0616a"/>
    <path id="Path_41065" data-name="Path 41065" d="M791.545,372.4a8.605,8.605,0,0,0,1.275-4.717c-.205-1.641-1.814-3.209-3.394-2.721-.945.292-1.659,1.225-2.647,1.272-1.359.066-2.138-1.49-2.561-2.783l-1.723-5.266a14.249,14.249,0,0,1-11.834,2.674,6.755,6.755,0,0,1-4.154-2.425,3.382,3.382,0,0,1,.354-4.452c.631-.5,1.471-.689,2.074-1.221a2.324,2.324,0,0,0-1.856-4.044l4.338-.542-1.292-2.337a4.269,4.269,0,0,0,3.394.623c1.167-.21,2.266-.691,3.408-1.011a13.115,13.115,0,0,1,14.589,6.126,5.553,5.553,0,0,1,6.054,1.748,8.832,8.832,0,0,1,1.522,5.316,23.063,23.063,0,0,1-2.351,10.684,8.753,8.753,0,0,1-1.975,2.8,3.953,3.953,0,0,1-3.173,1.038" transform="translate(-480.454 -242.523)" fill="#2f2e41"/>
    <path id="Path_41066" data-name="Path 41066" d="M404.377,336.613a22.088,22.088,0,0,0,2.855,9.413c3.471,6.1,9.423,10.509,15.834,13.133,8.009,3.277,16.938,3.378,25.438,2.648,7.895-.679,15.709-2.252,23.633-2.576a164.675,164.675,0,0,1,18.374.438c11.857.842,23.665,2.4,35.4,4.3q4.766.76,9.512,1.632a4.706,4.706,0,0,1,.883.164c.057.024.15.005.2.038.1.06-.386-.152-.094.089a8.765,8.765,0,0,1,1.083,1.394l4.333,5.576c1.243,1.6,2.4,3.542,4,4.8a7.246,7.246,0,0,0,8.021.559,8.016,8.016,0,0,0,2.983-3.388,29.245,29.245,0,0,1,3.547-5.12c5.155-6.014,12.319-9.712,18.311-14.772a32.616,32.616,0,0,0,7.323-8.371,23.674,23.674,0,0,0,3.026-9.4c.718-6.725-1.346-13.583-4.817-19.3a38.561,38.561,0,0,0-15.654-14.328c-7.252-3.695-15.277-5.494-23.321-6.391a211.3,211.3,0,0,0-25.762-.853q-14.447.161-28.842,1.271-14.415,1.116-28.715,3.172a250.56,250.56,0,0,0-27.363,5.013c-7.911,2.056-15.8,5.27-21.707,11.092C407.606,322.016,403.953,329.1,404.377,336.613Z" transform="translate(-323.735 -221.373)" fill="#6c63ff"/>
    <path id="Path_41067" data-name="Path 41067" d="M478.444,358.284a2.836,2.836,0,0,1-2.687-3.186l.2-1.6a1.911,1.911,0,0,0-.622-1.664l-1.2-1.074a2.828,2.828,0,0,1,1.357-4.888l1.585-.3a1.907,1.907,0,0,0,1.39-1.1l.65-1.477a2.829,2.829,0,0,1,5.068-.22l.775,1.414a1.908,1.908,0,0,0,1.481.982l1.6.162a2.828,2.828,0,0,1,1.775,4.752l-1.1,1.175a1.9,1.9,0,0,0-.475,1.71l.341,1.577a2.828,2.828,0,0,1-3.97,3.156l-1.459-.687a1.9,1.9,0,0,0-1.774.076l-1.394.812A2.832,2.832,0,0,1,478.444,358.284Z" transform="translate(-353.583 -240.904)" fill="#fff"/>
    <path id="Path_41068" data-name="Path 41068" d="M518.537,357.119a2.857,2.857,0,0,1-1.905-.851,2.931,2.931,0,0,1-.767-2.449l.187-1.468a1.944,1.944,0,0,0-.633-1.695l-1.115-1a2.908,2.908,0,0,1-1.019-2.282,2.827,2.827,0,0,1,2.3-2.671l1.566-.3a1.944,1.944,0,0,0,1.416-1.126l.584-1.325a2.96,2.96,0,0,1,2.5-1.816,2.814,2.814,0,0,1,2.631,1.464l.766,1.4a1.945,1.945,0,0,0,1.51,1l1.487.15a2.907,2.907,0,0,1,2.167,1.248,2.828,2.828,0,0,1-.294,3.513l-1.092,1.161a1.943,1.943,0,0,0-.484,1.742l.315,1.456a2.92,2.92,0,0,1-.513,2.446,2.821,2.821,0,0,1-3.435.813l-1.444-.68a1.943,1.943,0,0,0-1.805.079l-1.378.8A2.832,2.832,0,0,1,518.537,357.119Z" transform="translate(-370.963 -240.399)" fill="#fff"/>
    <path id="Path_41069" data-name="Path 41069" d="M558.738,356.95a2.836,2.836,0,0,1-2.687-3.186l.2-1.6a1.911,1.911,0,0,0-.622-1.664l-1.2-1.074a2.828,2.828,0,0,1,1.357-4.888l1.585-.3a1.907,1.907,0,0,0,1.39-1.1l.65-1.477a2.829,2.829,0,0,1,5.068-.22l.775,1.414a1.908,1.908,0,0,0,1.481.982l1.6.162a2.828,2.828,0,0,1,1.775,4.752l-1.1,1.175a1.9,1.9,0,0,0-.475,1.71l.341,1.577a2.828,2.828,0,0,1-3.97,3.156l-1.459-.687a1.9,1.9,0,0,0-1.774.076l-1.394.812a2.832,2.832,0,0,1-1.542.386Z" transform="translate(-388.392 -240.326)" fill="#fff"/>
    <path id="Path_41070" data-name="Path 41070" d="M597.839,355.889a2.836,2.836,0,0,1-2.687-3.186l.2-1.6a1.911,1.911,0,0,0-.622-1.664l-1.2-1.074a2.828,2.828,0,0,1,1.357-4.888l1.585-.3a1.908,1.908,0,0,0,1.39-1.1l.65-1.477a2.829,2.829,0,0,1,5.068-.22l.775,1.414a1.908,1.908,0,0,0,1.481.981l1.6.162a2.828,2.828,0,0,1,1.775,4.752l-1.1,1.175a1.9,1.9,0,0,0-.475,1.71l.341,1.577a2.828,2.828,0,0,1-3.97,3.156l-1.459-.687a1.9,1.9,0,0,0-1.774.076l-1.394.812A2.832,2.832,0,0,1,597.839,355.889Z" transform="translate(-405.343 -239.866)" fill="#fff"/>
    <path id="Path_41071" data-name="Path 41071" d="M636.94,354.828a2.836,2.836,0,0,1-2.687-3.186l.2-1.6a1.911,1.911,0,0,0-.622-1.664l-1.2-1.074a2.828,2.828,0,0,1,1.357-4.888l1.585-.3a1.907,1.907,0,0,0,1.39-1.1l.65-1.477a2.829,2.829,0,0,1,5.068-.22l.775,1.414a1.908,1.908,0,0,0,1.481.982l1.6.162a2.828,2.828,0,0,1,1.775,4.752l-1.1,1.175a1.9,1.9,0,0,0-.475,1.71l.341,1.577a2.828,2.828,0,0,1-3.97,3.156l-1.459-.687a1.9,1.9,0,0,0-1.774.076l-1.394.812A2.832,2.832,0,0,1,636.94,354.828Z" transform="translate(-422.294 -239.406)" fill="#fff"/>
    <path id="Path_41072" data-name="Path 41072" d="M871.63,686.038l.648-14.57a47.054,47.054,0,0,1,21.948-5.556c-10.541,8.618-9.224,25.231-16.371,36.821A28.3,28.3,0,0,1,857.1,715.812l-8.821,5.4a47.428,47.428,0,0,1,10-38.433,45.814,45.814,0,0,1,8.42-7.823C868.807,680.528,871.63,686.038,871.63,686.038Z" transform="translate(-515.867 -381.63)" fill="#f2f2f2"/>
    <path id="Path_41073" data-name="Path 41073" d="M797.887,764.756H561.449a.674.674,0,1,1,0-1.349H797.887a.674.674,0,1,1,0,1.349Z" transform="translate(-391.552 -423.896)" fill="#cacaca"/>
  </g>
</svg>
