<svg xmlns="http://www.w3.org/2000/svg" width="76" height="76" viewBox="0 0 76 76">
  <g id="Layer_1" data-name="Layer 1" transform="translate(-38.986 -38.825)">
    <g id="Group_5584" data-name="Group 5584" transform="translate(-0.014 -0.014)">
      <g id="Logotype" transform="translate(42.853 42.853)">
        <g id="W_Mark" data-name="W Mark">
          <path id="Path_40999" data-name="Path 40999" d="M173.327,141.3a31.855,31.855,0,0,1,17.9,5.47,32.143,32.143,0,0,1,11.607,14.092,32,32,0,0,1-6.866,35.11,32.434,32.434,0,0,1-4.741,3.913,32,32,0,0,1-40.549-3.913,32.435,32.435,0,0,1-3.913-4.741,32,32,0,0,1,3.913-40.549,32.434,32.434,0,0,1,4.741-3.913,31.855,31.855,0,0,1,17.9-5.47m0-2.043a34.067,34.067,0,1,0,34.067,34.067,34.067,34.067,0,0,0-34.067-34.067h0Z" transform="translate(-139.26 -139.26)" fill="#6a63ff"/>
          <path id="Path_41000" data-name="Path 41000" d="M157.71,186.108a28.389,28.389,0,0,0,16,25.549l-13.542-37.1A28.29,28.29,0,0,0,157.71,186.108Zm47.556-1.43a14.944,14.944,0,0,0-2.341-7.829c-1.44-2.341-2.79-4.319-2.79-6.657a4.916,4.916,0,0,1,4.768-5.039c.126,0,.246.015.366.022a28.385,28.385,0,0,0-42.893,5.34c.668.022,1.3.034,1.827.034,2.969,0,7.568-.36,7.568-.36a1.174,1.174,0,0,1,.182,2.341s-1.538.182-3.249.271l10.336,30.751,6.214-18.633L180.831,172.8c-1.529-.089-2.978-.271-2.978-.271a1.174,1.174,0,0,1,.181-2.341s4.688.36,7.475.36c2.969,0,7.568-.36,7.568-.36a1.174,1.174,0,0,1,.181,2.341s-1.541.182-3.249.271l10.259,30.517,2.929-9.281c1.3-4.055,2.064-6.928,2.064-9.358ZM186.6,188.594l-8.518,24.752a28.409,28.409,0,0,0,17.449-.452,2.46,2.46,0,0,1-.2-.391L186.6,188.6Zm24.413-16.1a21.612,21.612,0,0,1,.191,2.919,26.767,26.767,0,0,1-2.16,10.167l-8.672,25.072a28.4,28.4,0,0,0,10.641-38.158Z" transform="translate(-152.034 -152.041)"/>
        </g>
      </g>
      <rect id="Rectangle_2127" data-name="Rectangle 2127" width="76" height="76" transform="translate(39 38.839)" fill="none"/>
    </g>
  </g>
</svg>
