<svg id="Group_5531" data-name="Group 5531" xmlns="http://www.w3.org/2000/svg" width="273.165" height="234.081" viewBox="0 0 273.165 234.081">
  <path id="Path_40927" data-name="Path 40927" d="M68.348,169.893H195.514v41.746H190.7v10.918l-10.918-10.918H68.348Z" transform="translate(-45.869 -114.017)" fill="#e6e6e6"/>
  <rect id="Rectangle_2094" data-name="Rectangle 2094" width="120.101" height="33.397" transform="translate(26.011 59.941)" fill="#fff"/>
  <rect id="Rectangle_2095" data-name="Rectangle 2095" width="57.826" height="1.755" transform="translate(35.669 69.692)" fill="#6c63ff"/>
  <rect id="Rectangle_2096" data-name="Rectangle 2096" width="100.785" height="1.755" transform="translate(35.669 75.763)" fill="#e6e6e6"/>
  <rect id="Rectangle_2097" data-name="Rectangle 2097" width="100.687" height="1.755" transform="translate(35.669 81.833)" fill="#e6e6e6"/>
  <path id="Path_40928" data-name="Path 40928" d="M127.166,339.785H0v41.747H4.817V392.45l10.918-10.918H127.166Z" transform="translate(0 -228.033)" fill="#e6e6e6"/>
  <rect id="Rectangle_2098" data-name="Rectangle 2098" width="120.101" height="33.397" transform="translate(3.532 115.818)" fill="#fff"/>
  <rect id="Rectangle_2099" data-name="Rectangle 2099" width="57.826" height="1.755" transform="translate(14.154 125.889)" fill="#6c63ff"/>
  <rect id="Rectangle_2100" data-name="Rectangle 2100" width="100.785" height="1.755" transform="translate(14.154 131.96)" fill="#e6e6e6"/>
  <rect id="Rectangle_2101" data-name="Rectangle 2101" width="100.687" height="1.755" transform="translate(14.154 138.03)" fill="#e6e6e6"/>
  <path id="Path_40929" data-name="Path 40929" d="M127.166,0H0V41.746H4.817V52.665L15.735,41.746H127.166Z" fill="#e6e6e6"/>
  <rect id="Rectangle_2102" data-name="Rectangle 2102" width="120.101" height="33.397" transform="translate(3.532 4.065)" fill="#fff"/>
  <rect id="Rectangle_2103" data-name="Rectangle 2103" width="57.826" height="1.755" transform="translate(14.154 14.137)" fill="#6c63ff"/>
  <rect id="Rectangle_2104" data-name="Rectangle 2104" width="100.785" height="1.755" transform="translate(14.154 20.208)" fill="#e6e6e6"/>
  <rect id="Rectangle_2105" data-name="Rectangle 2105" width="100.687" height="1.755" transform="translate(14.154 26.278)" fill="#e6e6e6"/>
  <path id="Path_40930" data-name="Path 40930" d="M663.554,654.315H658.32l-2.49-20.188h7.725Z" transform="translate(-440.134 -425.568)" fill="#ffb8b8"/>
  <path id="Path_40931" data-name="Path 40931" d="M833.653,791.232H816.776v-.213a6.569,6.569,0,0,1,6.568-6.569h10.308Z" transform="translate(-608.898 -557.412)" fill="#2f2e41"/>
  <path id="Path_40932" data-name="Path 40932" d="M627.188,611.026l-4.87,1.917-9.71-17.874,7.188-2.828Z" transform="translate(-411.127 -397.458)" fill="#ffb8b8"/>
  <path id="Path_40933" data-name="Path 40933" d="M817.942,743.485l-15.7,6.18-.078-.2a6.569,6.569,0,0,1,3.707-8.518h0l9.592-3.774Z" transform="translate(-598.781 -525.685)" fill="#2f2e41"/>
  <path id="Path_40934" data-name="Path 40934" d="M799.345,592.006l1.667-61.247L793.6,557.015l5.358,18.218-8.89,7.556L781,553.878l-.016-.051,9.007-47.606,26.637-1.289.191-.01.031.188c.026.158,2.543,15.965.426,27.4-2.109,11.387-7.2,59.692-7.255,60.179l-.022.208Z" transform="translate(-584.879 -369.819)" fill="#2f2e41"/>
  <path id="Path_40935" data-name="Path 40935" d="M812.26,425.553l-.15-.06,4.943-45.349.144-.036c5.024-1.256,11.793-1.146,15.381-.969a2.369,2.369,0,0,1,2.219,2l5.943,39.142-.049.07c-4.109,5.869-10.387,7.465-16,7.465A37.888,37.888,0,0,1,812.26,425.553Z" transform="translate(-605.766 -285.333)" fill="#6c63ff"/>
  <path id="Path_40936" data-name="Path 40936" d="M877.336,438.781l-.179-.016L874,379l9.594,2.167a4.333,4.333,0,0,1,3.33,4.77l-1.244,9.934.426,17.477c.3,1.074,5.155,18.857,2.456,23.491a2.153,2.153,0,0,1-1.336,1.083,33.473,33.473,0,0,1-7.912.926C878.1,438.847,877.354,438.782,877.336,438.781Z" transform="translate(-647.301 -285.311)" fill="#3f3d56"/>
  <path id="Path_40937" data-name="Path 40937" d="M794.125,440.477a3.394,3.394,0,0,1-1.9-2.258c-.625-2.517,1.485-5.682,1.79-6.122l2.553-24.25-3.8-22.4a2.855,2.855,0,0,1,2.5-3.315l10.815-1.206-.549,23.046c4.642,15.69-5.467,38.312-5.57,38.539l-.057.125h-.138C799.716,442.634,798.391,442.609,794.125,440.477Z" transform="translate(-592.344 -286.602)" fill="#3f3d56"/>
  <circle id="Ellipse_3576" data-name="Ellipse 3576" cx="10.486" cy="10.486" r="10.486" transform="translate(204.745 75.062) rotate(-28.663)" fill="#ffb8b8"/>
  <path id="Path_40938" data-name="Path 40938" d="M886.918,501.26a4,4,0,0,1,4.01-4.648l3.629-8.4,5.641.961-5.292,11.787a4.025,4.025,0,0,1-7.988.3Z" transform="translate(-655.935 -358.606)" fill="#ffb8b8"/>
  <path id="Path_40939" data-name="Path 40939" d="M898.232,425.131l3-17.983-5.119-8.533,1.3-12.173.29-.073a4.358,4.358,0,0,1,4.97,2.337l8.363,17.453.034.07L905,430.091Z" transform="translate(-662.139 -290.171)" fill="#3f3d56"/>
  <path id="Path_40940" data-name="Path 40940" d="M830.622,316.535c.24.069,1.246-1.067,2.348-2.43a12.654,12.654,0,0,0,2.638-10.278c-.015-.081-.031-.158-.046-.23-.365-1.737-2.021-3.336-3.758-2.969a4.3,4.3,0,0,0-2.218-3.8,12.66,12.66,0,0,0-4.387-1.4,21.192,21.192,0,0,0-5.242-.543,10.231,10.231,0,0,0-4.78,1.527,10.091,10.091,0,0,0-4.238,10.9c2.209-2.509,4.827-5.238,8.611-4.15A6.944,6.944,0,0,1,821.9,304.4c2.3,1.806,3.456,4.466,4.575,7.066a2.548,2.548,0,0,1,3.809-.983,3.292,3.292,0,0,1,1.038,2.645,9.738,9.738,0,0,1-.672,2.853" transform="translate(-604.774 -228.846)" fill="#2f2e41"/>
  <path id="Path_40941" data-name="Path 40941" d="M844.821,471.475h-.493v-1.941a2.173,2.173,0,0,0-2.17-2.17h-6.184a2.173,2.173,0,0,0-2.17,2.17v13.42a2.172,2.172,0,0,0,2.17,2.17h6.184a2.173,2.173,0,0,0,2.17-2.17v-9.177h.493Z" transform="translate(-620.325 -344.613)" fill="#2f2e41"/>
  <circle id="Ellipse_3577" data-name="Ellipse 3577" cx="1.316" cy="1.316" r="1.316" transform="translate(217.59 127.849)" fill="#fff"/>
  <path id="Path_40942" data-name="Path 40942" d="M817.261,489.736a4,4,0,0,0-5.939-1.55l-7.755-4.853-4.1,3.993,11.047,6.7a4.025,4.025,0,0,0,6.745-4.29Z" transform="translate(-597.282 -355.33)" fill="#ffb8b8"/>
  <path id="Path_40943" data-name="Path 40943" d="M769.235,415.662l7.1-26.806a2.869,2.869,0,0,1,3.271-2.079l2.44.443,2.6,14.3-5.287,12.052,9.564,5.742-1.345,10.758Z" transform="translate(-576.993 -290.501)" fill="#3f3d56"/>
  <path id="Path_40944" data-name="Path 40944" d="M757.92,804.522H632.612a.329.329,0,0,1,0-.658H757.92a.329.329,0,0,1,0,.658Z" transform="translate(-485.083 -570.441)" fill="#3f3d56"/>
</svg>
