<svg id="Group_5529" data-name="Group 5529" xmlns="http://www.w3.org/2000/svg" width="344.416" height="235.618" viewBox="0 0 344.416 235.618">
  <circle id="Ellipse_3563" data-name="Ellipse 3563" cx="86.426" cy="86.426" r="86.426" transform="translate(116.252)" fill="#f2f2f2"/>
  <path id="Path_40883" data-name="Path 40883" d="M264.556,630.973a14.49,14.49,0,0,0,13.992-2.465c4.9-4.113,6.437-10.89,7.687-17.165l3.7-18.56-7.742,5.331c-5.568,3.834-11.26,7.79-15.115,13.343s-5.538,13.133-2.44,19.141" transform="translate(-215.812 -422.012)" fill="#e6e6e6"/>
  <path id="Path_40884" data-name="Path 40884" d="M266.862,693.432c-.784-5.708-1.589-11.489-1.04-17.257a27.142,27.142,0,0,1,5.233-14.23,23.672,23.672,0,0,1,6.074-5.5c.607-.383,1.166.579.562.961a22.5,22.5,0,0,0-8.9,10.741c-1.938,4.929-2.249,10.3-1.915,15.539.2,3.167.63,6.313,1.061,9.455a.577.577,0,0,1-.389.684.56.56,0,0,1-.684-.389Z" transform="translate(-217.457 -462.002)" fill="#f2f2f2"/>
  <path id="Path_40885" data-name="Path 40885" d="M408.733,715.686a8.258,8.258,0,0,0,7.59,2.821c3.6-.61,6.3-3.5,8.728-6.224l7.168-8.059-5.343.389c-3.842.28-7.782.584-11.278,2.2s-6.508,4.861-6.717,8.708" transform="translate(-307.471 -492.117)" fill="#e6e6e6"/>
  <path id="Path_40886" data-name="Path 40886" d="M392.131,739.6a42.7,42.7,0,0,1,4.463-8.785,15.47,15.47,0,0,1,6.675-5.488,13.492,13.492,0,0,1,4.573-.955c.409-.013.407.621,0,.634a12.826,12.826,0,0,0-7.473,2.715,20.56,20.56,0,0,0-5.421,7.088c-.814,1.615-1.51,3.285-2.2,4.955a.329.329,0,0,1-.388.224.319.319,0,0,1-.224-.388Z" transform="translate(-297.021 -504.789)" fill="#f2f2f2"/>
  <path id="Path_40887" data-name="Path 40887" d="M289.28,709.5a10.666,10.666,0,0,0,9.293,4.8c4.7-.223,8.627-3.507,12.157-6.624l10.443-9.22-6.911-.331c-4.97-.238-10.069-.46-14.8,1.073s-9.1,5.222-9.966,10.122" transform="translate(-232.326 -488.174)" fill="#e6e6e6"/>
  <path id="Path_40888" data-name="Path 40888" d="M262.838,735.955c3.771-6.673,8.146-14.09,15.963-16.461a17.813,17.813,0,0,1,6.714-.693c.713.062.535,1.16-.177,1.1a16.549,16.549,0,0,0-10.715,2.835,27.85,27.85,0,0,0-7.364,7.947c-1.22,1.857-2.312,3.793-3.4,5.726C263.506,737.026,262.485,736.58,262.838,735.955Z" transform="translate(-215.647 -501.243)" fill="#f2f2f2"/>
  <path id="Path_40889" data-name="Path 40889" d="M699.127,453.255c7.5-4.122,16.832-3.294,24.912-.477s15.4,7.435,23.248,10.849a85.1,85.1,0,0,0,75.479-4.395c2.138,4.973-.156,10.661-2.675,15.451s-5.39,9.983-4.353,15.3c1.327,6.8,8.455,10.874,11.343,17.169,2.741,5.976,1.27,12.995-.833,19.224s-4.832,12.506-4.475,19.071,5.127,13.508,11.7,13.513c-9.744,1.514-19.68,3.029-29.418,1.477s-19.425-6.7-23.946-15.465c-2.26-4.38-3.131-9.416-5.727-13.606-4.421-7.137-12.905-10.493-20.91-13.022s-16.572-4.966-22.208-11.188c-5.37-5.928-7.071-14.187-9.916-21.662a69.191,69.191,0,0,0-23.958-31.243" transform="translate(-489.058 -332.451)" fill="#6c63ff"/>
  <path id="Path_40890" data-name="Path 40890" d="M695.628,372.018a10.778,10.778,0,0,0-8.543-.488c-2.679,1.138-4.5,4.055-3.639,6.636.393,1.17,1.287,2.321.939,3.5a3.607,3.607,0,0,1-2.123,1.938,7.909,7.909,0,0,0-2.589,1.507,1.693,1.693,0,0,0,.027,2.519c.273.184.615.271.881.465a1.4,1.4,0,0,1,.432,1.566,3.3,3.3,0,0,1-1.057,1.391c-.942.813-2.188,1.743-1.9,2.9a2.032,2.032,0,0,0,1.371,1.283,6.812,6.812,0,0,0,2.013.266l27.807.876a10.544,10.544,0,0,0,2.745-.153,3.25,3.25,0,0,0,2.156-1.448,3.019,3.019,0,0,0-.475-3.12,29.591,29.591,0,0,0-2.357-2.492,3.954,3.954,0,0,1-1.263-2.992,7.648,7.648,0,0,1,1.1-2.425,2.415,2.415,0,0,0,.118-2.518c-.755-1.03-2.569-.937-3.428-1.9-.648-.724-.523-1.767-.588-2.7a6.552,6.552,0,0,0-3.924-5.353,7.727,7.727,0,0,0-7.03.479Z" transform="translate(-476.87 -282.274)" fill="#2f2e41"/>
  <path id="Path_40891" data-name="Path 40891" d="M535,590.334l-4.355-1.309,2.974-17.421,6.428,1.931Z" transform="translate(-333.813 -359.58)" fill="#a0616a"/>
  <path id="Path_40892" data-name="Path 40892" d="M653.882,752.42,639.839,748.2l.053-.178A5.707,5.707,0,0,1,647,744.2h0l8.577,2.577Z" transform="translate(-452.853 -517.111)" fill="#2f2e41"/>
  <path id="Path_40893" data-name="Path 40893" d="M641.8,592.748h-4.548l-2.163-17.54H641.8Z" transform="translate(-399.518 -361.847)" fill="#a0616a"/>
  <path id="Path_40894" data-name="Path 40894" d="M767.178,756.779H752.515v-.185a5.707,5.707,0,0,1,5.707-5.707h8.956Z" transform="translate(-523.735 -521.47)" fill="#2f2e41"/>
  <path id="Path_40895" data-name="Path 40895" d="M707.617,593.592a1.669,1.669,0,0,1-1.647-1.405l-6.752-42.121a1.3,1.3,0,0,0-2.481-.293l-17.493,42.114a1.675,1.675,0,0,1-2.069.944l-6.318-2.106a1.664,1.664,0,0,1-1.1-1.951l14.336-63.437a1.679,1.679,0,0,1,1.251-1.258l19.226-4.463a1.692,1.692,0,0,1,1.375.285c12.66,9.2,11.59,39.252,9.231,71.885a1.67,1.67,0,0,1-1.593,1.548l-5.891.256Z" transform="translate(-471.646 -375.958)" fill="#2f2e41"/>
  <circle id="Ellipse_3564" data-name="Ellipse 3564" cx="9.11" cy="9.11" r="9.11" transform="translate(210.676 95.666)" fill="#a0616a"/>
  <path id="Path_40896" data-name="Path 40896" d="M704.324,481.784a14.8,14.8,0,0,1-6.315-1.459l-.068-.032-.027-.07-8.171-21.171-.155-3.678a8.818,8.818,0,0,1,9.307-9.177l8.675.489a8.823,8.823,0,0,1,8.322,8.758,5.956,5.956,0,0,1-1.31,7c-.117.724-1.214,8.252,2.925,12.392l.116.116-.1.129C717.456,475.162,712.14,481.783,704.324,481.784Z" transform="translate(-484.145 -329.789)" fill="#3f3d56"/>
  <path id="Path_40897" data-name="Path 40897" d="M753.6,518.833a3.73,3.73,0,0,0,1.957-5.374l8.664-10.031-6.83-.889-7.181,9.662a3.75,3.75,0,0,0,3.389,6.632Z" transform="translate(-521.242 -365.242)" fill="#a0616a"/>
  <path id="Path_40898" data-name="Path 40898" d="M750.158,478.179a1.665,1.665,0,0,1-.916-.274l-4.286-2.811a1.666,1.666,0,0,1-.519-2.249l3.1-5.212a2.327,2.327,0,0,0-1.047-3.313l-8.913-4a5.313,5.313,0,0,1-3.009-5.9h0a5.282,5.282,0,0,1,7.579-3.618l13.521,6.928a7.113,7.113,0,0,1,2.524,10.493l-6.684,9.262A1.665,1.665,0,0,1,750.158,478.179Z" transform="translate(-512.379 -332.33)" fill="#3f3d56"/>
  <path id="Path_40899" data-name="Path 40899" d="M699.289,392.012a5.648,5.648,0,0,0,4.967-5.976,4.825,4.825,0,0,0,4.133,4.913c1.32.145,2.766-.254,3.915.412,1.272.737,1.679,2.528,3,3.165a2.845,2.845,0,0,0,3.54-1.5,5.671,5.671,0,0,0,.058-4.158,11.741,11.741,0,0,0-19.544-4.813,7.517,7.517,0,0,0-2.326,4.476,4.409,4.409,0,0,0,2.171,4.331Z" transform="translate(-488.823 -288.531)" fill="#2f2e41"/>
  <path id="Path_40900" data-name="Path 40900" d="M636.587,342.556a3.73,3.73,0,0,1,1.152,5.6l7.107,11.189-6.887-.118-5.693-10.607a3.75,3.75,0,0,1,4.322-6.066Z" transform="translate(-447.316 -264.311)" fill="#a0616a"/>
  <path id="Path_40901" data-name="Path 40901" d="M645.836,363.088l9.152,21.626,9.6,16.27a5.263,5.263,0,0,1-3.012,7.712h0a5.291,5.291,0,0,1-6.288-2.808l-18.493-39.516a1.669,1.669,0,0,1,1-2.3l6-1.926a1.706,1.706,0,0,1,.35-.073A1.66,1.66,0,0,1,645.836,363.088Z" transform="translate(-450.837 -276.875)" fill="#3f3d56"/>
  <path id="Path_40902" data-name="Path 40902" d="M416.529,766.348H136.108a.371.371,0,0,1,0-.742H416.529a.371.371,0,0,1,0,.742Z" transform="translate(-135.737 -530.73)" fill="#ccc"/>
  <path id="Path_40903" data-name="Path 40903" d="M732.337,239.977v30.416a.371.371,0,1,1-.742,0V239.977a.371.371,0,1,1,.742,0Z" transform="translate(-510.575 -199.838)" fill="#ccc"/>
  <path id="Path_40904" data-name="Path 40904" d="M801.554,309.1l-10.491,10.491a.371.371,0,0,1-.525-.525l10.491-10.491a.371.371,0,0,1,.525.525Z" transform="translate(-547.586 -243.155)" fill="#ccc"/>
  <path id="Path_40905" data-name="Path 40905" d="M644.586,309.1l10.491,10.491a.371.371,0,0,0,.525-.525L645.11,308.573a.371.371,0,0,0-.525.525Z" transform="translate(-455.771 -243.155)" fill="#ccc"/>
</svg>
