<svg xmlns="http://www.w3.org/2000/svg" width="103.164" height="102" viewBox="0 0 103.164 102">
  <g id="Layer_1" data-name="Layer 1" transform="translate(-17.436 -18.058)">
    <g id="Group_5600" data-name="Group 5600" transform="translate(18 17.662)">
      <g id="Group_5599" data-name="Group 5599" transform="translate(0.436 21.184)">
        <g id="Group_5598" data-name="Group 5598" transform="translate(0 22.415)">
          <line id="Line_269" data-name="Line 269" x2="16.612" transform="translate(42.276 6.578)" fill="none" stroke="#000" stroke-linecap="round" stroke-linejoin="round" stroke-width="2"/>
          <line id="Line_270" data-name="Line 270" x1="16.612" transform="translate(42.276 30.378)" fill="none" stroke="#000" stroke-linecap="round" stroke-linejoin="round" stroke-width="2"/>
          <line id="Line_271" data-name="Line 271" y2="10.33" transform="translate(21.139 13.153)" fill="none" stroke="#000" stroke-linecap="round" stroke-linejoin="round" stroke-width="2"/>
          <line id="Line_272" data-name="Line 272" y2="10.333" transform="translate(81.353 13.153)" fill="none" stroke="#000" stroke-linecap="round" stroke-linejoin="round" stroke-width="2"/>
          <rect id="Rectangle_2132" data-name="Rectangle 2132" width="42.276" height="13.153" rx="4" transform="translate(0 23.483)" fill="none" stroke="#000" stroke-linecap="round" stroke-linejoin="round" stroke-width="2"/>
          <rect id="Rectangle_2133" data-name="Rectangle 2133" width="42.276" height="13.153" rx="3" transform="translate(58.888 0)" fill="none" stroke="#6a63ff" stroke-linecap="round" stroke-linejoin="round" stroke-width="2"/>
          <path id="Path_41010" data-name="Path 41010" d="M291.19,303.07h25.6a3.561,3.561,0,0,1,3.551,3.551v6.051a3.561,3.561,0,0,1-3.551,3.551H281.621a3.561,3.561,0,0,1-3.551-3.551v-6.051a3.561,3.561,0,0,1,3.551-3.551h1.4" transform="translate(-219.182 -279.587)" fill="none" stroke="#000" stroke-linecap="round" stroke-linejoin="round" stroke-width="2"/>
          <circle id="Ellipse_3582" data-name="Ellipse 3582" cx="1.731" cy="1.731" r="1.731" transform="translate(7.143 28.235)" fill="none" stroke="#000" stroke-linecap="round" stroke-linejoin="round" stroke-width="2"/>
          <path id="Path_41011" data-name="Path 41011" d="M116.658,223.71a4.7,4.7,0,0,1,4.681,4.681v3.791a4.7,4.7,0,0,1-4.681,4.681H83.741a4.7,4.7,0,0,1-4.681-4.681v-3.791a4.7,4.7,0,0,1,4.681-4.681h26.2" transform="translate(-79.06 -223.71)" fill="none" stroke="#000" stroke-linecap="round" stroke-linejoin="round" stroke-width="2"/>
          <circle id="Ellipse_3583" data-name="Ellipse 3583" cx="1.731" cy="1.731" r="1.731" transform="translate(7.143 4.752)" fill="none" stroke="#000" stroke-linecap="round" stroke-linejoin="round" stroke-width="2"/>
          <circle id="Ellipse_3584" data-name="Ellipse 3584" cx="1.731" cy="1.731" r="1.731" transform="translate(66.031 4.847)" fill="none" stroke="#6a63ff" stroke-linecap="round" stroke-linejoin="round" stroke-width="2"/>
          <circle id="Ellipse_3585" data-name="Ellipse 3585" cx="1.731" cy="1.731" r="1.731" transform="translate(66.031 28.422)" fill="none" stroke="#000" stroke-linecap="round" stroke-linejoin="round" stroke-width="2"/>
        </g>
        <text id="VPS" transform="translate(69.493 13)" font-size="14" font-family="HossRound-Black, Hoss Round" font-weight="800"><tspan x="0" y="0">VPS</tspan></text>
      </g>
      <rect id="Rectangle_2134" data-name="Rectangle 2134" width="102" height="102" transform="translate(0 0.396)" fill="none"/>
    </g>
  </g>
</svg>
