<svg id="Group_5528" data-name="Group 5528" xmlns="http://www.w3.org/2000/svg" width="221.926" height="220.73" viewBox="0 0 221.926 220.73">
  <path id="Path_40860" data-name="Path 40860" d="M486.258,410.785H350.76a12.127,12.127,0,0,1-12.113-12.113v-196.5a12.127,12.127,0,0,1,12.113-12.113h135.5a12.127,12.127,0,0,1,12.113,12.113v196.5a12.127,12.127,0,0,1-12.113,12.113Z" transform="translate(-338.646 -190.055)" fill="#3f3d56"/>
  <path id="Path_40861" data-name="Path 40861" d="M497.53,413.531H361.555a3.738,3.738,0,0,1-3.734-3.734v-197.8a3.738,3.738,0,0,1,3.734-3.734H497.53a3.738,3.738,0,0,1,3.734,3.734V409.8a3.738,3.738,0,0,1-3.734,3.734Z" transform="translate(-349.68 -200.529)" fill="#fff"/>
  <circle id="Ellipse_3562" data-name="Ellipse 3562" cx="1.03" cy="1.03" r="1.03" transform="translate(78.317 2.679)" fill="#fff"/>
  <path id="Path_40862" data-name="Path 40862" d="M605.973,370.468l-4.5-13.482-.076-.234,18.957-11.974,1.008,1.358,5.279,7.109-1.93,5.75-4.988,14.856-.219.653,9.237,6.868c.366.675.67,1.291.918,1.857,2.758,6.284-1.324,6-1.324,6l-18.787-8.053Z" transform="translate(-489.84 -279.087)" fill="#ffb7b7"/>
  <path id="Path_40863" data-name="Path 40863" d="M626.859,368.771l-.828-2.482-4.065-12.183-.847-2.54-.711-2.125,9.269-5.857,9.688-6.117,6.287,8.467-1.906,5.678-.926,2.759-1.432,4.267-2.873,8.556,9.237,6.868a17.921,17.921,0,0,1,1.644,3.885,5.975,5.975,0,0,1,.226,1.739,2.13,2.13,0,0,1-2.277,2.231l-18.787-8.053Z" transform="translate(-500.78 -274.88)" fill="#ffb7b7"/>
  <path id="Path_40864" data-name="Path 40864" d="M293.4,202.87l-1.09-11.493,5.433-2.946.355.656-5,2.71,1.011,10.654,11.107,7.607-.421.615Z" transform="translate(-168.205 -108.429)" opacity="0.15" style="isolation: isolate"/>
  <rect id="Rectangle_2093" data-name="Rectangle 2093" width="0.746" height="13.937" transform="matrix(0.594, -0.804, 0.804, 0.594, 136.605, 94.657)" opacity="0.15" style="isolation: isolate"/>
  <path id="Path_40865" data-name="Path 40865" d="M167.586,194.339,111.2,154.7,54.232,193.97l56.116,23.7Z" transform="translate(-31.207 -89.018)" fill="#fff"/>
  <path id="Path_40866" data-name="Path 40866" d="M562.413,330.6,581.4,312.033l33.96-2.294,42.214,40.311,30.757,16.832-8.665,25.481L642.544,374.74c-7.558-.555-12.421-3.063-15.5-5.7a18.722,18.722,0,0,1-2.842-3.044,13.686,13.686,0,0,1-2.1-3.924l-15.089-19.389-3.111-4-2.015-2.589-6.586-8.462-.474-.608-11.188-.3-5.823,7.644-4.09,5.365a9.093,9.093,0,0,1-1.952,5.185c-3.668,4.461-11.1,3.59-11.1,3.59Z" transform="translate(-466.406 -258.924)" fill="#ffb7b7"/>
  <path id="Path_40867" data-name="Path 40867" d="M391.465,437.164h.041l23.289,9.945,31.864,13.606a1.028,1.028,0,0,0,.787,0l32.875-13.639,23.861-9.9.036-.016h.041a1.422,1.422,0,0,1,1.42,1.42v61.672a1.422,1.422,0,0,1-1.42,1.42H391.465a1.422,1.422,0,0,1-1.42-1.42V438.584A1.422,1.422,0,0,1,391.465,437.164Z" transform="translate(-368.223 -332.249)" fill="#fff"/>
  <path id="Path_40868" data-name="Path 40868" d="M392.876,384.319a.2.2,0,0,0,.116-.036l56.1-39.073a1.017,1.017,0,0,1,1.162,0l55.7,39.071a.2.2,0,1,0,.233-.332l-55.7-39.071a1.425,1.425,0,0,0-1.627,0l-56.1,39.073a.2.2,0,0,0,.116.369Z" transform="translate(-369.735 -278.998)" fill="#3f3d56"/>
  <path id="Path_40869" data-name="Path 40869" d="M168.729,197.936l-53.154-39.393-53.557,42.2,50.818,30.126,27.59-6.289Z" transform="translate(-35.688 -91.23)" fill="#e6e6e6"/>
  <path id="Path_40870" data-name="Path 40870" d="M578.191,559.441H604.45a1.227,1.227,0,0,0,0-2.454H578.191a1.227,1.227,0,0,0,0,2.454Z" transform="translate(-475.78 -401.198)" fill="#6c63ff"/>
  <path id="Path_40871" data-name="Path 40871" d="M617.849,547.017h9.421a1.227,1.227,0,1,0,0-2.454h-9.425a1.227,1.227,0,0,0,0,2.454Z" transform="translate(-498.601 -394.05)" fill="#6c63ff"/>
  <path id="Path_40872" data-name="Path 40872" d="M481.182,414.842a1.533,1.533,0,0,0,.582-.114l32.781-13.6V358.55a1.422,1.422,0,0,0-1.42-1.42H450.237a1.422,1.422,0,0,0-1.42,1.42v42.606l.062.026,31.7,13.539a1.545,1.545,0,0,0,.6.121Z" transform="translate(-402.042 -286.194)" fill="#fff"/>
  <path id="Path_40873" data-name="Path 40873" d="M480.405,414.677l-31.827-13.592V358.412a1.523,1.523,0,0,1,1.521-1.522h62.889a1.523,1.523,0,0,1,1.521,1.521v42.644l-32.844,13.628A1.65,1.65,0,0,1,480.405,414.677Zm33.7-56.265a1.117,1.117,0,0,0-1.116-1.116H450.1a1.117,1.117,0,0,0-1.116,1.116v42.405l31.58,13.486a1.241,1.241,0,0,0,.947.006L514.1,400.785Z" transform="translate(-401.904 -286.057)" fill="#3f3d56"/>
  <path id="Path_40874" data-name="Path 40874" d="M390.762,438.584v61.672a1.422,1.422,0,0,0,1.42,1.42H504.976a1.422,1.422,0,0,0,1.42-1.42V438.584a1.422,1.422,0,0,0-1.42-1.42h-.041l-.036.016-23.861,9.9-32.875,13.639a1.028,1.028,0,0,1-.787,0l-31.864-13.606-23.289-9.945h-.041A1.422,1.422,0,0,0,390.762,438.584Zm.406,0a1.018,1.018,0,0,1,.974-1.014l23.37,9.979,31.7,13.539a1.445,1.445,0,0,0,1.1.006l32.718-13.576,23.977-9.949a1.017,1.017,0,0,1,.976,1.014v61.672a1.015,1.015,0,0,1-1.014,1.014H392.182a1.015,1.015,0,0,1-1.014-1.014Z" transform="translate(-368.635 -332.249)" fill="#3f3d56"/>
  <path id="Path_40875" data-name="Path 40875" d="M462.929,390.216h22.315a1.623,1.623,0,0,0,0-3.246H462.929a1.623,1.623,0,0,0,0,3.246Z" transform="translate(-409.228 -303.365)" fill="#6c63ff"/>
  <path id="Path_40876" data-name="Path 40876" d="M462.961,373.97h10.752a1.623,1.623,0,0,0,0-3.246H462.961a1.623,1.623,0,0,0,0,3.246Z" transform="translate(-409.246 -294.017)" fill="#6c63ff"/>
  <path id="Path_40877" data-name="Path 40877" d="M484.713,428.441h34.082a1.623,1.623,0,1,0,0-3.246H484.713a1.623,1.623,0,1,0,0,3.246Z" transform="translate(-421.763 -325.362)" fill="#ccc"/>
  <path id="Path_40878" data-name="Path 40878" d="M484.713,446.12h34.082a1.623,1.623,0,0,0,0-3.246H484.713a1.623,1.623,0,0,0,0,3.246Z" transform="translate(-421.763 -335.535)" fill="#ccc"/>
  <path id="Path_40879" data-name="Path 40879" d="M673.2,376.75l6.769-.391,27.047,33.332-9.555-1.462-5.659-.855a18.719,18.719,0,0,1-2.842-3.044l-6.289-1.867-2.894-2.138C679.954,401.02,673.2,376.75,673.2,376.75Z" transform="translate(-531.156 -297.259)" opacity="0.1" style="isolation: isolate"/>
  <path id="Path_40880" data-name="Path 40880" d="M571.215,369.3a4.776,4.776,0,0,1,5.425-3.989l7.216,1,8.927,1.242,6.9.959,8.245-.479,7.484-.435,4.421-.255,29.4,36.231-25.275-7.5-2.894-2.138-12.67-9.358s-4.151-.765-10.7-2.3c-.974-.231-11.99-3-17.166-4.5-1-.292-1.9-.6-2.715-.916C572.045,374.6,570.89,371.685,571.215,369.3Z" transform="translate(-472.444 -290.874)" fill="#ffb7b7"/>
  <path id="Path_40881" data-name="Path 40881" d="M581.017,375.162a5.427,5.427,0,0,0,3.7-2.21c.741-1.271.666-2.982-.221-5.086l.687-.29c.985,2.334,1.044,4.271.175,5.756a6.091,6.091,0,0,1-4.257,2.57Z" transform="translate(-478.113 -292.206)" opacity="0.15" style="isolation: isolate"/>
  <path id="Path_40882" data-name="Path 40882" d="M302.733,169.783l0-.746,13.26-.021-13.979-8.74.4-.633,16.177,10.114Z" transform="translate(-173.787 -91.863)" opacity="0.15" style="isolation: isolate"/>
</svg>
