<svg xmlns="http://www.w3.org/2000/svg" width="751.155" height="558.146" viewBox="0 0 751.155 558.146">
  <g id="Group_5671" data-name="Group 5671" transform="translate(0)">
    <path id="Path_41132" data-name="Path 41132" d="M865.657,724.884c7.97-18.67,13.59-38.99,10.93-59.1a65.243,65.243,0,0,0-5.88-19.65,59.556,59.556,0,0,0-9.22-13.93,8.35,8.35,0,0,0-10.57-1.7c-.26.15-.52.31-.76.48a8.75,8.75,0,0,0-2.97,3.63,6.279,6.279,0,0,0-.31.86,8.938,8.938,0,0,0-.29,3.79,95.571,95.571,0,0,1-.9,31.11q-.765,3.915-1.87,7.76a77.508,77.508,0,0,0-5.27-5.93,65.322,65.322,0,0,0-16.45-12.12h-.01c-.03-.02-.05-.03-.08-.05-7.38-3.76-17.22-2.2-22.97.36-.38.16-.74.34-1.09.51-3,1.54-4.49,3.31-3.21,4.47.29.25.58.51.85.77a95.7,95.7,0,0,1,21.06,28.34v.01a93.311,93.311,0,0,1,5.21,13.16c1.93,6.23,3.53,13.14,7.3,18.22a16.387,16.387,0,0,0,1.25,1.53l33.68-.27c.08-.04.15-.07.23-.11l1.34.05c-.05-.24-.11-.48-.17-.72v-.02c-.03-.13-.07-.27-.1-.39-.03-.1-.05-.19-.07-.27.06-.15.12-.29.19-.44C865.557,725.114,865.607,725,865.657,724.884Z" transform="translate(-224.423 -170.927)" fill="#f0f0f0"/>
    <path id="Path_41133" data-name="Path 41133" d="M865.487,726.334a.44.44,0,0,1-.69.3,18.268,18.268,0,0,0-4.51-2.39c-.01-.01-.01,0-.01,0a37.987,37.987,0,0,0-6.24-1.66c-.02,0-.03-.01-.05-.01-.86-.17-1.72-.32-2.58-.48-4.18-.77-8.43-1.7-12.05-4.08a12.277,12.277,0,0,1-5.63-8.33c-.53-3.35.14-6.72.42-10.06.02-.24.04-.49.05-.73.02-.31.03-.61.03-.91a19.4,19.4,0,0,0-1.78-8.8,34.9,34.9,0,0,0-6.36-8.94q-2-2.145-4.16-4.13h-.01c-.06-.06-.11-.11-.17-.16,0-.01-.01-.02-.02-.03a81.073,81.073,0,0,0-20.75-13.7c-.27-.12-.55-.25-.83-.37-.73-.33-1.46-.64-2.2-.95.35-.17.71-.35,1.09-.51a82.99,82.99,0,0,1,23.09,14.66c.23.2.46.41.68.62q2.6,2.4,4.94,5.03a32.509,32.509,0,0,1,5.99,9.16,20.412,20.412,0,0,1,1.39,8.58c-.02.56-.06,1.12-.11,1.69-.31,3.37-1,6.85-.23,10.22.88,3.84,3.86,6.52,7.32,8.16a31.641,31.641,0,0,0,7.16,2.22c5.1,1.07,10.37,1.59,14.83,4.33h.01c.07.05.14.09.2.13.01,0,.01,0,.01.01a9.473,9.473,0,0,1,.93.63c.02.01.04.03.06.04a.581.581,0,0,1,.08.07.444.444,0,0,1,.1.39Z" transform="translate(-224.423 -170.927)" fill="#fff"/>
    <path id="Path_41134" data-name="Path 41134" d="M822.545,676.017a12.2,12.2,0,0,0-.4-15.8c-.392-.435-1.087.154-.694.589a11.3,11.3,0,0,1,.346,14.7C821.422,675.958,822.177,676.468,822.545,676.017Z" transform="translate(-224.423 -170.927)" fill="#fff"/>
    <path id="Path_41135" data-name="Path 41135" d="M834.517,697.953a23.525,23.525,0,0,1-16.58-4.362c-.473-.346-.985.407-.512.753a24.469,24.469,0,0,0,17.262,4.5c.583-.069.41-.964-.17-.894Z" transform="translate(-224.423 -170.927)" fill="#fff"/>
    <path id="Path_41136" data-name="Path 41136" d="M801.037,662.114c-.02.04-.04.07-.06.11a7.763,7.763,0,0,1-5.39,3.92c-.27-.26-.56-.52-.85-.77a.334.334,0,0,1,.15-.05,6.909,6.909,0,0,0,5.26-3.47c.05-.08.1-.17.14-.25a.451.451,0,0,1,.63-.12A.47.47,0,0,1,801.037,662.114Z" transform="translate(-224.423 -170.927)" fill="#fff"/>
    <path id="Path_41137" data-name="Path 41137" d="M297.684,176.37a67.894,67.894,0,0,0-67.818,67.818v259.9a67.894,67.894,0,0,0,67.818,67.818H902.316a67.9,67.9,0,0,0,67.818-67.818v-259.9a67.894,67.894,0,0,0-67.818-67.818Z" transform="translate(-224.423 -170.927)" fill="#fff" style="isolation: isolate"/>
    <path id="Path_41138" data-name="Path 41138" d="M902.316,577.348H297.684a73.344,73.344,0,0,1-73.261-73.261v-259.9a73.344,73.344,0,0,1,73.261-73.261H902.316a73.344,73.344,0,0,1,73.261,73.261v259.9A73.344,73.344,0,0,1,902.316,577.348ZM297.684,181.813a62.445,62.445,0,0,0-62.375,62.375v259.9a62.445,62.445,0,0,0,62.375,62.375H902.316a62.445,62.445,0,0,0,62.375-62.375v-259.9a62.445,62.445,0,0,0-62.375-62.375Z" transform="translate(-224.423 -170.927)" fill="#e6e6e6" style="isolation: isolate"/>
    <path id="Path_41139" data-name="Path 41139" d="M601.623,230.179H314.08a23.191,23.191,0,0,0-23.152,23.152V383.023a21.818,21.818,0,0,0,.381,4.1c.091.617.236,1.216.381,1.814a23.226,23.226,0,0,0,22.39,17.237H601.623c.472,0,.943-.018,1.4-.054h.327V406.1a1.38,1.38,0,0,0,.272-.018c.091,0,.2-.018.29-.018a.163.163,0,0,0,.091-.018c.2-.018.4-.036.581-.054.327-.054.653-.091.962-.145a.308.308,0,0,1,.127-.018.359.359,0,0,1,.182-.036.067.067,0,0,1,.054-.018c.2-.036.4-.073.6-.127a2.093,2.093,0,0,0,.327-.073c.4-.091.8-.181,1.179-.308.181-.054.345-.091.526-.145.236-.073.49-.163.726-.254a2.851,2.851,0,0,0,.363-.127.094.094,0,0,0,.072-.036,16.214,16.214,0,0,0,1.542-.635c.436-.2.853-.417,1.27-.635.163-.073.308-.163.472-.254a.38.38,0,0,0,.109-.072c.417-.254.835-.508,1.234-.744.018-.018.018-.036.036-.036a.018.018,0,0,0,.013-.005.018.018,0,0,0,.005-.013,13.881,13.881,0,0,0,1.234-.871h.018c.109-.091.2-.163.29-.236.127-.091.254-.2.363-.29.218-.181.435-.363.635-.544a2.781,2.781,0,0,0,.345-.308c.309-.272.6-.562.889-.853a5.129,5.129,0,0,0,.436-.472,7.532,7.532,0,0,0,.635-.689c.181-.236.381-.472.562-.708a8.129,8.129,0,0,0,.6-.78c.327-.436.617-.871.907-1.343.236-.381.472-.78.689-1.179.109-.2.218-.417.327-.635.018,0,.018-.018.018-.036.2-.381.381-.762.544-1.161.073-.163.145-.308.2-.472.145-.308.254-.635.381-.962.2-.6.4-1.216.562-1.833.145-.6.29-1.2.381-1.814a21.815,21.815,0,0,0,.381-4.1V253.331A23.191,23.191,0,0,0,601.623,230.179Z" transform="translate(-224.423 -170.927)" fill="#6c63ff"/>
    <rect id="Rectangle_2148" data-name="Rectangle 2148" width="333.847" height="1.814" transform="translate(66.506 96.448)" fill="#fff" opacity="0.3"/>
    <rect id="Rectangle_2149" data-name="Rectangle 2149" width="333.847" height="1.814" transform="translate(66.506 116.406)" fill="#fff" opacity="0.3"/>
    <rect id="Rectangle_2150" data-name="Rectangle 2150" width="333.847" height="1.814" transform="translate(66.506 136.364)" fill="#fff" opacity="0.3"/>
    <rect id="Rectangle_2151" data-name="Rectangle 2151" width="333.847" height="1.814" transform="translate(66.506 156.322)" fill="#fff" opacity="0.3"/>
    <rect id="Rectangle_2152" data-name="Rectangle 2152" width="333.847" height="1.814" transform="translate(66.506 176.28)" fill="#fff" opacity="0.3"/>
    <rect id="Rectangle_2153" data-name="Rectangle 2153" width="333.847" height="1.814" transform="translate(66.506 196.239)" fill="#fff" opacity="0.3"/>
    <path id="Path_41140" data-name="Path 41140" d="M624.394,387.123c-.091.617-.236,1.216-.381,1.814H291.182a14.992,14.992,0,0,1-.218-1.814Z" transform="translate(-224.423 -170.927)" fill="#fff" opacity="0.3"/>
    <g id="Group_5668" data-name="Group 5668" opacity="0.1">
      <path id="Path_41141" data-name="Path 41141" d="M624.775,354.936v28.087a21.815,21.815,0,0,1-.381,4.1c-.091.617-.236,1.216-.381,1.814-.163.617-.363,1.234-.562,1.833-.127.327-.236.653-.381.962-.054.163-.127.308-.2.472-.163.4-.345.78-.544,1.161,0,.018,0,.036-.018.036-.109.218-.218.436-.327.635-.218.4-.454.8-.689,1.179-.29.472-.581.907-.907,1.343a8.128,8.128,0,0,1-.6.78c-.181.236-.381.472-.562.708a7.532,7.532,0,0,1-.635.689,5.116,5.116,0,0,1-.435.472c-.29.29-.581.581-.889.853a2.781,2.781,0,0,1-.345.308c-.2.181-.417.363-.635.544-.109.091-.236.2-.363.29-.091.073-.181.145-.29.236h-.018a13.874,13.874,0,0,1-1.234.871.018.018,0,0,1-.018.018c-.018,0-.018.018-.036.036-.254.182-.526.345-.8.508-.145.091-.29.163-.435.236a.379.379,0,0,1-.109.073c-.163.091-.308.181-.472.254-.417.218-.835.435-1.27.635a16.221,16.221,0,0,1-1.542.635.094.094,0,0,1-.073.036,2.868,2.868,0,0,1-.363.127c-.236.091-.49.181-.726.254-.181.054-.345.091-.526.145-.381.127-.78.218-1.179.308a2.088,2.088,0,0,1-.327.073c-.2.055-.4.091-.6.127a.067.067,0,0,0-.054.018.359.359,0,0,0-.181.036.308.308,0,0,0-.127.018c-.309.054-.635.091-.962.145-.181.018-.381.036-.581.054a.163.163,0,0,1-.091.018c-.2.018-.381.036-.562.054h-.036c-.2.018-.4.018-.6.036-.363.018-.726.018-1.089.018H314.08a23.226,23.226,0,0,1-22.389-17.237h-.508a15,15,0,0,1-.218-1.814c-.018-.345-.036-.708-.036-1.052V354.428a43.146,43.146,0,0,1,11.231,1.833c9.87,3.012,19.468,8.11,29.774,8.11.816,0,1.669-.036,2.5-.109,10.85-.907,19.287-7.638,26.309-15.241.562-.6,1.125-1.2,1.651-1.814,1.324-1.47,2.595-2.976,3.828-4.463a97.675,97.675,0,0,1,13.191-13.68c.78-.635,1.56-1.234,2.359-1.814a33.511,33.511,0,0,1,16-6.4c.744-.073,1.488-.127,2.232-.145,7.766-.236,15.059,2.558,21.7,6.55.962.581,1.923,1.179,2.849,1.814a108.35,108.35,0,0,1,9.163,6.949,175.177,175.177,0,0,0,14.152,11.195c.363.254.726.508,1.089.726.562.381,1.143.744,1.724,1.089a41.931,41.931,0,0,0,16.4,6.187c.2.036.417.073.635.091,9.453,1.107,18.253-1.687,26.29-6.278,1-.581,2.014-1.179,2.994-1.814a123.97,123.97,0,0,0,17.581-14.152c1.415-1.325,2.849-2.667,4.336-3.992.671-.6,1.343-1.216,2.032-1.814,10.777-9.471,23.206-18.144,37.884-18.144.617,0,1.252.018,1.887.054,10.56.508,19.831,5.625,27.615,12.12a84.705,84.705,0,0,1,6.477,5.969l.254.254c.508.508,1.016,1.034,1.488,1.56,5.806,6.078,11.158,12.574,17.473,18.144.689.635,1.4,1.234,2.123,1.814a59.253,59.253,0,0,0,6.895,4.935C623.614,354.3,624.194,354.628,624.775,354.936Z" transform="translate(-224.423 -170.927)"/>
    </g>
    <g id="Group_5669" data-name="Group 5669" opacity="0.1">
      <path id="Path_41142" data-name="Path 41142" d="M624.775,327.521v55.5a21.815,21.815,0,0,1-.381,4.1c-.091.617-.236,1.216-.381,1.814-.163.617-.363,1.234-.562,1.833-.127.327-.236.653-.381.962-.054.163-.127.308-.2.472-.163.4-.345.78-.544,1.161,0,.018,0,.036-.018.036-.109.218-.218.436-.327.635-.218.4-.454.8-.689,1.179-.29.472-.581.907-.907,1.343a8.128,8.128,0,0,1-.6.78c-.181.236-.381.472-.562.708a7.532,7.532,0,0,1-.635.689,5.116,5.116,0,0,1-.435.472c-.29.29-.581.581-.889.853a2.781,2.781,0,0,1-.345.308c-.2.181-.417.363-.635.544-.109.091-.236.2-.363.29-.091.073-.181.145-.29.236h-.018a13.874,13.874,0,0,1-1.234.871.018.018,0,0,1-.018.018c-.018,0-.018.018-.036.036-.254.182-.526.345-.8.508-.145.091-.29.163-.435.236a.379.379,0,0,1-.109.073c-.163.091-.308.181-.472.254-.417.218-.835.435-1.27.635a16.221,16.221,0,0,1-1.542.635.094.094,0,0,1-.073.036,2.868,2.868,0,0,1-.363.127c-.236.091-.49.181-.726.254-.181.054-.345.091-.526.145-.381.127-.78.218-1.179.308a2.088,2.088,0,0,1-.327.073c-.2.055-.4.091-.6.127a.067.067,0,0,0-.054.018.359.359,0,0,0-.181.036.308.308,0,0,0-.127.018c-.309.054-.635.091-.962.145-.181.018-.381.036-.581.054a.163.163,0,0,1-.091.018c-.091,0-.2.018-.29.018a1.379,1.379,0,0,1-.272.018.959.959,0,0,1-.236.018h-.091c-.091.018-.2.018-.308.036-.363.018-.726.018-1.089.018H314.08a23.226,23.226,0,0,1-22.389-17.237c-.145-.6-.29-1.2-.381-1.814a21.815,21.815,0,0,1-.381-4.1V350.709c.635-.544,1.252-1.107,1.869-1.687.635-.6,1.252-1.2,1.869-1.814a139.229,139.229,0,0,0,14.715-18.144c.145-.2.29-.381.417-.581.29-.417.581-.816.889-1.234A142.589,142.589,0,0,1,325.4,309.1c.617-.617,1.234-1.216,1.869-1.814,6.749-6.35,14.442-11.086,23.514-12.211,12.5-1.56,24.131,4.228,34.419,12.211.762.6,1.506,1.2,2.25,1.814,3.52,2.867,6.858,5.987,10.015,9.09.835.835,1.687,1.669,2.54,2.5,2.2,2.2,4.445,4.391,6.713,6.55.653.617,1.288,1.216,1.941,1.814,9.072,8.4,18.888,15.785,30.554,18.144.8.163,1.615.308,2.431.417a40.617,40.617,0,0,0,13.245-.417c.726-.127,1.433-.29,2.159-.472,10.923-2.7,21.047-9.507,30.21-17.672.653-.6,1.324-1.2,1.978-1.814,4.681-4.336,9.126-8.981,13.281-13.553,1.379-1.524,2.794-3.066,4.209-4.59.581-.6,1.143-1.2,1.706-1.814a153.325,153.325,0,0,1,19.849-18.144c.853-.635,1.705-1.234,2.558-1.814,9.6-6.55,20.085-10.759,31.607-10.088,9.507.544,18.2,4.463,26.018,10.088.8.581,1.6,1.179,2.4,1.814a108.7,108.7,0,0,1,16.2,16.094c.562.671,1.125,1.361,1.687,2.05.29.345.562.708.853,1.052l.6.762c4.808,6.006,9.435,12.247,14.352,18.144Z" transform="translate(-224.423 -170.927)"/>
    </g>
    <g id="Group_5670" data-name="Group 5670" opacity="0.1">
      <path id="Path_41143" data-name="Path 41143" d="M624.775,304.605v78.418a21.815,21.815,0,0,1-.381,4.1c-.091.617-.236,1.216-.381,1.814-.163.617-.363,1.234-.562,1.833-.127.327-.236.653-.381.962-.054.163-.127.308-.2.472-.163.4-.345.78-.544,1.161,0,.018,0,.036-.018.036-.109.218-.218.436-.327.635-.218.4-.454.8-.689,1.179-.29.472-.581.907-.907,1.343a8.128,8.128,0,0,1-.6.78c-.181.236-.381.472-.562.708a7.532,7.532,0,0,1-.635.689,5.116,5.116,0,0,1-.435.472c-.29.29-.581.581-.889.853a2.781,2.781,0,0,1-.345.308c-.2.181-.417.363-.635.544-.109.091-.236.2-.363.29-.091.073-.181.145-.29.236h-.018a13.874,13.874,0,0,1-1.234.871.018.018,0,0,1-.018.018c-.018,0-.018.018-.036.036-.254.182-.526.345-.8.508-.145.091-.29.163-.435.236a.379.379,0,0,1-.109.073c-.163.091-.308.181-.472.254-.417.218-.835.435-1.27.635a16.221,16.221,0,0,1-1.542.635.094.094,0,0,1-.073.036,2.868,2.868,0,0,1-.363.127c-.236.091-.49.181-.726.254-.181.054-.345.091-.526.145-.381.127-.78.218-1.179.308a2.088,2.088,0,0,1-.327.073c-.2.055-.4.091-.6.127a.067.067,0,0,0-.054.018.359.359,0,0,0-.181.036.308.308,0,0,0-.127.018c-.309.054-.635.091-.962.145-.181.018-.381.036-.581.054a.163.163,0,0,1-.091.018c-.091,0-.2.018-.29.018a1.379,1.379,0,0,1-.272.018.064.064,0,0,1-.036.018h-.29c-.454.036-.925.054-1.4.054H314.08a23.226,23.226,0,0,1-22.389-17.237c-.145-.6-.29-1.2-.381-1.814a21.815,21.815,0,0,1-.381-4.1V336.176q2.749-3.565,5.516-7.112c.472-.617.944-1.216,1.415-1.814,2.486-3.193,4.99-6.35,7.566-9.435,2.468-2.957,5.062-5.879,7.766-8.709.581-.6,1.161-1.216,1.76-1.814a100.851,100.851,0,0,1,23.46-18.144c1.179-.653,2.377-1.252,3.593-1.814a56.062,56.062,0,0,1,20.521-5.352,56.99,56.99,0,0,1,27.107,5.352c1.27.544,2.522,1.161,3.756,1.814,8.872,4.572,17.2,10.977,25,18.144.671.581,1.306,1.2,1.96,1.814,6.187,5.806,12.047,12.029,17.636,18.144.417.454.835.925,1.252,1.379.127.145.272.29.4.435,5.443,5.987,11.249,12.048,17.418,17.672.163.163.345.308.526.472.671.617,1.343,1.216,2.032,1.814,2.431,2.159,4.935,4.227,7.475,6.187a97.279,97.279,0,0,0,19.541,11.957c1.47.671,2.957,1.27,4.463,1.814a53.658,53.658,0,0,0,26.055,3.084,51.911,51.911,0,0,0,11.812-3.084c1.451-.544,2.867-1.161,4.264-1.814,9.2-4.355,17.509-10.941,25.383-18.144.653-.6,1.306-1.2,1.959-1.814,4.482-4.209,8.836-8.582,13.136-12.81,1.814-1.778,3.665-3.574,5.57-5.334.653-.6,1.325-1.2,2-1.814,2.286-2.05,4.645-4.064,7.076-5.969a90.9,90.9,0,0,1,19.45-12.174c.6-.272,1.216-.526,1.814-.762.925-.381,1.851-.726,2.776-1.052a48.655,48.655,0,0,1,12.392-2.685Z" transform="translate(-224.423 -170.927)"/>
    </g>
    <circle id="Ellipse_3595" data-name="Ellipse 3595" cx="5.443" cy="5.443" r="5.443" transform="translate(132.731 110.963)" fill="#fff"/>
    <circle id="Ellipse_3596" data-name="Ellipse 3596" cx="5.443" cy="5.443" r="5.443" transform="translate(216.192 170.837)" fill="#fff"/>
    <circle id="Ellipse_3597" data-name="Ellipse 3597" cx="5.443" cy="5.443" r="5.443" transform="translate(328.684 130.921)" fill="#fff"/>
    <path id="Path_41144" data-name="Path 41144" d="M806.141,353.732H677.793a4.631,4.631,0,1,0,0,9.262H806.141a4.631,4.631,0,0,0,0-9.262Z" transform="translate(-224.423 -170.927)" fill="#e6e6e6"/>
    <path id="Path_41145" data-name="Path 41145" d="M806.141,423.86H677.793a4.631,4.631,0,1,0,0,9.262H806.141a4.631,4.631,0,0,0,0-9.262Z" transform="translate(-224.423 -170.927)" fill="#e6e6e6"/>
    <path id="Path_41146" data-name="Path 41146" d="M806.141,493.989H677.793a4.631,4.631,0,1,0,0,9.262H806.141a4.631,4.631,0,0,0,0-9.262Z" transform="translate(-224.423 -170.927)" fill="#e6e6e6"/>
    <circle id="Ellipse_3598" data-name="Ellipse 3598" cx="11.565" cy="11.565" r="11.565" transform="translate(647.923 176.218)" fill="#f2f2f2" style="isolation: isolate"/>
    <path id="Path_41147" data-name="Path 41147" d="M882.333,364.729a1.286,1.286,0,0,1-1.029-.515l-3.155-4.207a1.286,1.286,0,1,1,2.058-1.544l2.064,2.752,5.3-7.952a1.287,1.287,0,1,1,2.141,1.427l-6.31,9.466a1.287,1.287,0,0,1-1.035.572Z" transform="translate(-224.423 -170.927)" fill="#fff"/>
    <circle id="Ellipse_3599" data-name="Ellipse 3599" cx="11.565" cy="11.565" r="11.565" transform="translate(647.923 246.346)" fill="#f2f2f2" style="isolation: isolate"/>
    <path id="Path_41148" data-name="Path 41148" d="M882.333,434.857a1.286,1.286,0,0,1-1.029-.515l-3.155-4.207a1.286,1.286,0,1,1,2.058-1.544l2.064,2.752,5.3-7.952a1.287,1.287,0,0,1,2.141,1.427l-6.31,9.466a1.287,1.287,0,0,1-1.035.573Z" transform="translate(-224.423 -170.927)" fill="#fff"/>
    <circle id="Ellipse_3600" data-name="Ellipse 3600" cx="11.565" cy="11.565" r="11.565" transform="translate(647.923 316.474)" fill="#f2f2f2" style="isolation: isolate"/>
    <path id="Path_41149" data-name="Path 41149" d="M806.141,283.6H677.793a4.631,4.631,0,1,0,0,9.262H806.141a4.631,4.631,0,0,0,0-9.262Z" transform="translate(-224.423 -170.927)" fill="#e6e6e6"/>
    <circle id="Ellipse_3601" data-name="Ellipse 3601" cx="11.565" cy="11.565" r="11.565" transform="translate(647.923 106.09)" fill="#6c63ff"/>
    <path id="Path_41150" data-name="Path 41150" d="M882.333,294.6a1.286,1.286,0,0,1-1.029-.515l-3.155-4.207a1.286,1.286,0,1,1,2.058-1.544l2.064,2.752,5.3-7.952a1.286,1.286,0,0,1,2.141,1.427l-6.31,9.466a1.287,1.287,0,0,1-1.035.572Z" transform="translate(-224.423 -170.927)" fill="#fff"/>
    <circle id="Ellipse_3602" data-name="Ellipse 3602" cx="11.565" cy="11.565" r="11.565" transform="translate(609.551 106.09)" fill="#f2f2f2" style="isolation: isolate"/>
    <circle id="Ellipse_3603" data-name="Ellipse 3603" cx="11.565" cy="11.565" r="11.565" transform="translate(609.551 176.218)" fill="#f2f2f2" style="isolation: isolate"/>
    <circle id="Ellipse_3604" data-name="Ellipse 3604" cx="11.565" cy="11.565" r="11.565" transform="translate(609.551 246.346)" fill="#f2f2f2" style="isolation: isolate"/>
    <circle id="Ellipse_3605" data-name="Ellipse 3605" cx="11.565" cy="11.565" r="11.565" transform="translate(609.551 316.474)" fill="#f2f2f2" style="isolation: isolate"/>
    <path id="Path_41151" data-name="Path 41151" d="M882.333,504.985a1.286,1.286,0,0,1-1.029-.515l-3.155-4.207a1.286,1.286,0,1,1,2.058-1.544l2.064,2.752,5.3-7.952a1.287,1.287,0,0,1,2.141,1.427l-6.31,9.466a1.287,1.287,0,0,1-1.035.572Z" transform="translate(-224.423 -170.927)" fill="#fff"/>
    <path id="Path_41152" data-name="Path 41152" d="M865.657,724.884a.426.426,0,0,1-.15.35.575.575,0,0,1-.27.11.391.391,0,0,1-.46-.29c-1.38-4.64-4.76-8.2-7.96-11.69-2.88-3.13-5.71-6.43-7.16-10.5a12.279,12.279,0,0,1,.52-10.05,17.722,17.722,0,0,1,1.73-2.62c1.43-1.82,3.13-3.44,4.66-5.16.16-.18.32-.37.47-.55.21-.23.4-.47.58-.71a19.345,19.345,0,0,0,3.87-8.1,34.793,34.793,0,0,0,.31-10.97q-.3-2.91-.83-5.78c-.02-.09-.03-.17-.05-.25a80.769,80.769,0,0,0-8.32-23.47c-.15-.27-.29-.54-.44-.8-.64-1.16-1.3-2.3-2-3.42.24-.17.5-.33.76-.48a82.824,82.824,0,0,1,5.97,11.63,81.254,81.254,0,0,1,4.87,16.05c.07.3.12.61.17.91.42,2.31.73,4.65.92,6.98a32.339,32.339,0,0,1-.74,10.92,20.377,20.377,0,0,1-4.07,7.71q-.51.645-1.08,1.26c-1.52,1.66-3.2,3.27-4.57,5.08a15.109,15.109,0,0,0-1.77,2.94c-1.61,3.6-.85,7.54.93,10.92,3.22,6.15,9.36,10.34,12.63,16.37a18.6,18.6,0,0,1,1.46,3.49A.5.5,0,0,1,865.657,724.884Z" transform="translate(-224.423 -170.927)" fill="#fff"/>
    <path id="Path_41153" data-name="Path 41153" d="M861.514,659.2a12.205,12.205,0,0,0,9.189-12.858c-.051-.584-.96-.532-.909.053a11.3,11.3,0,0,1-8.572,11.944c-.569.14-.273,1,.292.862Z" transform="translate(-224.423 -170.927)" fill="#fff"/>
    <path id="Path_41154" data-name="Path 41154" d="M857.866,683.922a23.524,23.524,0,0,1-10.612-13.465c-.17-.561-1.032-.268-.862.292a24.468,24.468,0,0,0,11.071,13.989c.507.3.908-.523.4-.816Z" transform="translate(-224.423 -170.927)" fill="#fff"/>
    <path id="Path_41155" data-name="Path 41155" d="M852.707,635.154c-.04.02-.07.03-.11.05a7.7,7.7,0,0,1-5.72.27,6.288,6.288,0,0,1,.31-.86,6.832,6.832,0,0,0,4.97-.21c.09-.03.17-.07.26-.11a.457.457,0,0,1,.58.28A.481.481,0,0,1,852.707,635.154Z" transform="translate(-224.423 -170.927)" fill="#fff"/>
    <path id="Path_41156" data-name="Path 41156" d="M802.861,481.92a9.362,9.362,0,0,0-2.579-14.122l6.039-32.718L790.4,441.82l-3.294,30.036a9.413,9.413,0,0,0,15.755,10.064Z" transform="translate(-224.423 -170.927)" fill="#ffb6b6"/>
    <path id="Path_41157" data-name="Path 41157" d="M812.577,385.084l-5.06-17.01-35.68-55.67a26.569,26.569,0,0,0-41.69,32.88,24.722,24.722,0,0,0,2.43,2.9l46.21,47.66,2.63,2.72,4.16,10.52,1.64,47.97,1.47.35,12.95,3.05,1.81.43,3.03-15.67,1.9-7.49a79.542,79.542,0,0,0,2.43-19.54c0-2.03-.07-4.07-.23-6.1Z" transform="translate(-224.423 -170.927)" fill="#3f3d56"/>
    <path id="Path_41158" data-name="Path 41158" d="M539.1,544.946h-12.39l-5.894-47.79h18.286Z" fill="#ffb6b6"/>
    <path id="Path_41159" data-name="Path 41159" d="M763.2,711.824l-13.22-5.37-.39-.16-7.3,5.53a15.543,15.543,0,0,0-15.53,14.872c-.02.218-.02.448-.02.678v.51h39.95v-16.06Z" transform="translate(-224.423 -170.927)" fill="#2f2e41"/>
    <path id="Path_41160" data-name="Path 41160" d="M515.51,520.231l-10.679,6.283-29.317-38.2,15.76-9.273Z" fill="#ffb6b6"/>
    <path id="Path_41161" data-name="Path 41161" d="M747.307,697.454l-1.45-2.47-5.25-8.92-2.73,1.61-.28.16-14.12,2.08-.42.06-3.48,8.47a15.55,15.55,0,0,0-5.52,21.29l.26.43,34.43-20.26Z" transform="translate(-224.423 -170.927)" fill="#2f2e41"/>
    <path id="Path_41162" data-name="Path 41162" d="M779.22,423.712c5.809,17.52,5.195,36.537-1.4,56.948l-1.72,70.165-5.526,44.259a75.783,75.783,0,0,1,5.043,27.174c-.023,24.352-1.661,58.948-9.962,75.2H746.012l-4.435-72.373L736.285,588.7l-.652-38.993-.569-34.008L713.7,546.93l-20.757,30.353,20.631,34.8,18,56-19,16L691.023,643.22l-10.446-12.137-28.516-61.731,2.563-8.595a203.329,203.329,0,0,1,22.783-50.23h0l28.364-65.83Z" transform="translate(-224.423 -170.927)" fill="#2f2e41"/>
    <path id="Path_41163" data-name="Path 41163" d="M781.737,417.864l-3.24-6.48.29-15.54.97-52.54a50.4,50.4,0,0,0-14.93-36.68,49.358,49.358,0,0,0-9.56-7.43l-6.96-4.16-3.52-8.94-32.46.79-.07,8.67-.03,3.05-11.63,18.54.01.08.24,33.74.48,67.16,3.21,10.41-4.85,12.12,2.58,7.72,2.06-.33,69.38-11.09a13.622,13.622,0,0,0,7.53-5.98,12.393,12.393,0,0,0,.89-1.74,13.648,13.648,0,0,0-.39-11.37Z" transform="translate(-224.423 -170.927)" fill="#3f3d56"/>
    <circle id="Ellipse_3606" data-name="Ellipse 3606" cx="29.496" cy="29.496" r="29.496" transform="translate(471.663 45.055)" fill="#ffb6b6"/>
    <path id="Path_41164" data-name="Path 41164" d="M743.93,269.918c3.115-2.192,6.27-6.365,8.371-9.488a35.418,35.418,0,0,0,5.077-28.351,10.8,10.8,0,0,0-2.611-5.166,4.644,4.644,0,0,0-5.368-.98,9.679,9.679,0,0,0-.5-7.674,17.058,17.058,0,0,0-5.126-5.937A28.409,28.409,0,0,0,714.8,209.3c-1.83.879,1.1-5.756-.815-5.093a7.862,7.862,0,0,1-5.935-.022c-1.826-.888-7.763,4.619-7.094,2.7a8.958,8.958,0,0,0-1.867,15.029c1.54,1.264,3.451,1.977,5.132,3.045a14.613,14.613,0,0,1,4.73,18.795,19.36,19.36,0,0,1,5.663-2.555,6.553,6.553,0,0,1,5.851,1.322,7.362,7.362,0,0,1,1.86,5.531c-.038,2-.487,3.981-.513,5.983-.076,5.876-3.067,17.087,1.53,20.146C726.971,276.594,739.676,272.911,743.93,269.918Z" transform="translate(-224.423 -170.927)" fill="#2f2e41"/>
    <path id="Path_41165" data-name="Path 41165" d="M561.721,317.221a9.362,9.362,0,0,0,14.168,2.317l28.786,16.682-1-17.26-27.183-13.2a9.413,9.413,0,0,0-14.773,11.457Z" transform="translate(-224.423 -170.927)" fill="#ffb6b6"/>
    <path id="Path_41166" data-name="Path 41166" d="M747.617,312.054a26.571,26.571,0,0,0-35.36-16.5c-.32.13-.64.27-.96.41l-63.86,29.07-24.86-2.95-32.18-11.24-.82,1.27-7.23,11.17-1.01,1.56,34.52,20.41,3.66.76a24.733,24.733,0,0,1,15.68,10.67l13.38,4.4,52.27-10.12,29.3-5.68,1.66-.32a26.638,26.638,0,0,0,17.07-24.84,26.372,26.372,0,0,0-1.26-8.07Z" transform="translate(-224.423 -170.927)" fill="#3f3d56"/>
    <path id="Path_41167" data-name="Path 41167" d="M896.215,729.073H548.227a1.191,1.191,0,0,1,0-2.381H896.215a1.191,1.191,0,0,1,0,2.381Z" transform="translate(-224.423 -170.927)" fill="#ccc"/>
    <path id="Path_41168" data-name="Path 41168" d="M521.674,450.862H310.326a4.631,4.631,0,1,0,0,9.262H521.674a4.631,4.631,0,0,0,0-9.262Z" transform="translate(-224.423 -170.927)" fill="#e6e6e6"/>
    <circle id="Ellipse_3607" data-name="Ellipse 3607" cx="11.565" cy="11.565" r="11.565" transform="translate(363.455 273.348)" fill="#6c63ff"/>
    <path id="Path_41169" data-name="Path 41169" d="M597.866,461.859a1.286,1.286,0,0,1-1.029-.515l-3.155-4.207a1.286,1.286,0,0,1,2.058-1.544l2.064,2.752,5.3-7.952a1.287,1.287,0,0,1,2.141,1.427l-6.31,9.466a1.287,1.287,0,0,1-1.035.572Z" transform="translate(-224.423 -170.927)" fill="#fff"/>
    <circle id="Ellipse_3608" data-name="Ellipse 3608" cx="11.565" cy="11.565" r="11.565" transform="translate(325.083 273.348)" fill="#f2f2f2" style="isolation: isolate"/>
    <path id="Path_41170" data-name="Path 41170" d="M520.674,506.862H309.326a4.631,4.631,0,1,0,0,9.262H520.674a4.631,4.631,0,0,0,0-9.262Z" transform="translate(-224.423 -170.927)" fill="#e6e6e6"/>
    <circle id="Ellipse_3609" data-name="Ellipse 3609" cx="11.565" cy="11.565" r="11.565" transform="translate(362.455 329.348)" fill="#f2f2f2" style="isolation: isolate"/>
    <path id="Path_41171" data-name="Path 41171" d="M596.866,517.859a1.286,1.286,0,0,1-1.029-.515l-3.155-4.207a1.286,1.286,0,0,1,2.058-1.544l2.064,2.752,5.3-7.952a1.287,1.287,0,0,1,2.141,1.427l-6.31,9.466a1.287,1.287,0,0,1-1.035.572Z" transform="translate(-224.423 -170.927)" fill="#fff"/>
    <circle id="Ellipse_3610" data-name="Ellipse 3610" cx="11.565" cy="11.565" r="11.565" transform="translate(324.083 329.348)" fill="#f2f2f2" style="isolation: isolate"/>
  </g>
</svg>
