<svg xmlns="http://www.w3.org/2000/svg" width="70" height="70" viewBox="0 0 80.801 80.82">
  <path id="FontAwsome_joomla_" data-name="FontAwsome (joomla)" d="M.108,42.758a10.8,10.8,0,0,1,21.463-1.786c5.88-1.371,12.1.108,17.4,5.411l-7.99,7.99c-3.7-3.7-7.683-2.94-9.992-.631a6.7,6.7,0,0,0,0,9.415L38.94,81.1,31,89.092C15.186,73.365,22.04,80.128,13,71.11A17.837,17.837,0,0,1,8.531,53.273,10.708,10.708,0,0,1,.108,42.758ZM23.465,63.752l7.99,7.99c1.8-1.8,16.178-16.178,17.982-18a6.629,6.629,0,0,1,9.361,0c2.309,2.309,3.066,6.313-.631,9.992l7.936,7.99c5.627-5.627,6.944-12.192,5.212-18.252A10.833,10.833,0,1,0,59.158,41.207a17.912,17.912,0,0,0-17.729,4.527C38.128,49.179,28.605,58.629,23.465,63.752ZM71.495,91.2a17.813,17.813,0,0,0-4.743-16.936c-2.128-2.2.9.848-17.946-17.982l-7.99,7.99L58.8,82.257a6.629,6.629,0,0,1,0,9.361c-2.309,2.309-6.313,3.066-9.992-.631l-7.936,7.99a17.836,17.836,0,0,0,18.523,5.05A10.809,10.809,0,1,0,71.495,91.2Zm-15.2-9.577-7.936-7.99c-15.691,15.583-9.09,9.09-17.982,18a6.629,6.629,0,0,1-9.361,0c-2.363-2.417-3.048-6.367.577-9.992l-7.936-7.99C8.206,79.1,6.8,85.413,8.333,91.383A10.812,10.812,0,1,0,21.355,104.3a17.916,17.916,0,0,0,16.99-4.689C44.134,93.836,40.545,97.371,56.29,81.625Z" transform="translate(0 -31.9)" fill="#6b63ff"/>
</svg>
