<svg xmlns="http://www.w3.org/2000/svg" width="669.812" height="429.322" viewBox="0 0 669.812 429.322">
  <g id="Group_5724" data-name="Group 5724" transform="translate(0 0)">
    <path id="Path_41301" data-name="Path 41301" d="M939.989,692.723c-8.678-5.805-13.047-16.85-13.22-27.289-.058-3.5.826-7.559,3.962-9.116a5.444,5.444,0,0,1,7.792,5.763,52.694,52.694,0,0,1,4.5-9.781c1.55-2.623,3.727-5.353,6.764-5.6,3.523-.289,6.466,3.133,6.965,6.632s-.774,6.982-2.025,10.288a9.2,9.2,0,0,1,14.574-5.168c3.445,2.66,4.58,7.554,3.714,11.819s-3.412,8-6.227,11.316a37.591,37.591,0,0,1-11.7,9.709c-4.576,2.26-9.987,3.124-14.855,1.592Z" transform="translate(-314.318 -264.966)" fill="#f2f2f2"/>
    <path id="Path_41302" data-name="Path 41302" d="M800.23,515.523a9.124,9.124,0,0,0,3.263-13.605l21.262-103.231-19.841-.261L790.149,500.346a9.174,9.174,0,0,0,10.082,15.177Z" transform="translate(-293.251 -227.57)" fill="#ffb8b8"/>
    <path id="Path_41303" data-name="Path 41303" d="M911.236,508.879a9.124,9.124,0,0,0-.762-13.97l-9.132-105-19.088,5.421,14.984,101.89a9.174,9.174,0,0,0,14,11.662Z" transform="translate(-307.612 -226.287)" fill="#ffb8b8"/>
    <path id="Path_41304" data-name="Path 41304" d="M635.866,485.033H625.452L620.5,444.868h15.368Z" transform="translate(-93.471 -67.014)" fill="#ffb8b8"/>
    <path id="Path_41305" data-name="Path 41305" d="M615.332,488.653h20.082V501.3H602.687a12.644,12.644,0,0,1,12.644-12.644Z" transform="translate(-90.788 -73.61)" fill="#2f2e41"/>
    <path id="Path_41306" data-name="Path 41306" d="M690.866,485.033H680.453L675.5,444.868h15.368Z" transform="translate(-101.756 -67.014)" fill="#ffb8b8"/>
    <path id="Path_41307" data-name="Path 41307" d="M670.332,488.653h20.082V501.3H657.687a12.644,12.644,0,0,1,12.644-12.644Z" transform="translate(-99.073 -73.61)" fill="#2f2e41"/>
    <circle id="Ellipse_3627" data-name="Ellipse 3627" cx="20.861" cy="20.861" r="20.861" transform="translate(524.232 89.328)" fill="#ffb8b8"/>
    <path id="Path_41308" data-name="Path 41308" d="M872.257,638.272a3.681,3.681,0,0,1-3.594-2.964l-14.1-72.966a2.845,2.845,0,0,0-5.621.226l-7.9,71.073a3.64,3.64,0,0,1-3.469,3.249l-11.844.538a3.6,3.6,0,0,1-2.638-.957,3.633,3.633,0,0,1-1.183-2.545l-4.541-109.788a3.635,3.635,0,0,1,1.281-2.934l2.626-2.241a3.662,3.662,0,0,1,2.374-.875h61.391a3.662,3.662,0,0,1,3.658,3.658V634.057a3.651,3.651,0,0,1-3.5,3.655l-12.784.557C872.361,638.27,872.309,638.272,872.257,638.272Z" transform="translate(-297.837 -245.596)" fill="#2f2e41"/>
    <path id="Path_41309" data-name="Path 41309" d="M838.779,510.358c-9.925,0-18.674-2.644-23.091-10.357a3.725,3.725,0,0,1-.5-2.1l5.55-84.831a2.845,2.845,0,0,0-.577-1.911l-15.572-20.417a3.657,3.657,0,0,1,.7-5.133l23.359-17.7a2.859,2.859,0,0,0,1.018-1.486l.681-2.381a3.65,3.65,0,0,1,3.376-2.65l17.141-.66a3.693,3.693,0,0,1,3,1.371l1.824,2.28a2.84,2.84,0,0,0,.846.714L885.2,380.939a3.665,3.665,0,0,1,1.888,3.162v.051l-.012.048c-6.682,27.861-6.306,63.077,1.183,110.829a3.656,3.656,0,0,1-2.192,3.451C879.861,501.169,857.279,510.358,838.779,510.358Z" transform="translate(-295.8 -221.892)" fill="#6c63ff"/>
    <path id="Path_41310" data-name="Path 41310" d="M820.332,426.473H800.917a3.653,3.653,0,0,1-3.652-3.865c.289-4.946.859-14.353,1.43-21.771.821-10.675,11.281-15.929,11.386-15.981l.2-.1,7.062,4.483,6.572,32.86a3.658,3.658,0,0,1-3.587,4.375Z" transform="translate(-294.809 -225.511)" fill="#6c63ff"/>
    <path id="Path_41311" data-name="Path 41311" d="M886.415,424.273a3.663,3.663,0,0,1-3.619-4.056l3.583-32.964,6.922-5.07.158.017a14.317,14.317,0,0,1,10.752,9.188c2.352,5.881,5.946,16.751,7.878,22.707a3.654,3.654,0,0,1-2.617,4.677L887.3,424.166A3.7,3.7,0,0,1,886.415,424.273Z" transform="translate(-307.691 -225.123)" fill="#6c63ff"/>
    <path id="Path_41312" data-name="Path 41312" d="M844.73,342.639c4.462-7.059-1.109-26.491-13.246-27-2.8-.117-3.879-4.195-4.831-6.833a10.523,10.523,0,0,1,1.368-9.155,17.273,17.273,0,0,1,7.369-5.953,25.572,25.572,0,1,1,14.321,48.547Z" transform="translate(-299.162 -211.442)" fill="#2f2e41"/>
    <path id="Path_41313" data-name="Path 41313" d="M625.282,197.268H211.642a5.952,5.952,0,0,0-5.946,5.946V483.5a5.952,5.952,0,0,0,5.946,5.946H625.282a5.952,5.952,0,0,0,5.945-5.946V203.213a5.952,5.952,0,0,0-5.945-5.946ZM629.528,483.5a4.248,4.248,0,0,1-4.247,4.247H211.642A4.248,4.248,0,0,1,207.4,483.5V203.213a4.249,4.249,0,0,1,4.247-4.247H625.282a4.249,4.249,0,0,1,4.247,4.247Z" transform="translate(-205.697 -197.268)" fill="#3f3d56"/>
    <rect id="Rectangle_2163" data-name="Rectangle 2163" width="423.832" height="1.699" transform="translate(0.849 23.816)" fill="#3f3d56"/>
    <circle id="Ellipse_3628" data-name="Ellipse 3628" cx="5" cy="5" r="5" transform="translate(10 8)" fill="#3f3d56"/>
    <circle id="Ellipse_3629" data-name="Ellipse 3629" cx="5.096" cy="5.096" r="5.096" transform="translate(24.844 7.644)" fill="#3f3d56"/>
    <circle id="Ellipse_3630" data-name="Ellipse 3630" cx="5.096" cy="5.096" r="5.096" transform="translate(39.495 7.644)" fill="#3f3d56"/>
    <path id="Path_41314" data-name="Path 41314" d="M560.491,289.062h-263.3a13.165,13.165,0,1,1,0-26.33h263.3a13.165,13.165,0,0,1,0,26.33Zm-263.3-24.631a11.466,11.466,0,0,0,0,22.933h263.3a11.466,11.466,0,0,0,0-22.933Z" transform="translate(-217.496 -207.129)" fill="#3f3d56"/>
    <path id="Path_41315" data-name="Path 41315" d="M368.15,368.063H317.189a13.165,13.165,0,0,1,0-26.33H368.15a13.165,13.165,0,0,1,0,26.33Zm-50.962-24.632a11.466,11.466,0,0,0,0,22.933H368.15a11.466,11.466,0,0,0,0-22.933Z" transform="translate(-220.509 -219.03)" fill="#3f3d56"/>
    <path id="Path_41316" data-name="Path 41316" d="M368.15,420.063H317.189a13.165,13.165,0,0,1,0-26.33H368.15a13.165,13.165,0,0,1,0,26.33Zm-50.962-24.632a11.466,11.466,0,0,0,0,22.933H368.15a11.466,11.466,0,0,0,0-22.933Z" transform="translate(-220.509 -226.863)" fill="#3f3d56"/>
    <path id="Path_41317" data-name="Path 41317" d="M368.15,472.063H317.189a13.165,13.165,0,0,1,0-26.33H368.15a13.165,13.165,0,0,1,0,26.33Zm-50.962-24.632a11.466,11.466,0,1,0,0,22.933H368.15a11.466,11.466,0,0,0,0-22.933Z" transform="translate(-220.509 -234.696)" fill="#3f3d56"/>
    <path id="Path_41318" data-name="Path 41318" d="M374.816,283.123H303.469a5.946,5.946,0,1,1,0-11.891h71.346a5.946,5.946,0,1,1,0,11.891Z" transform="translate(-219.529 -208.41)" fill="#6c63ff"/>
    <path id="Path_41319" data-name="Path 41319" d="M597.969,279.623a5.946,5.946,0,1,1,5.946-5.946A5.946,5.946,0,0,1,597.969,279.623Zm0-10.192a4.247,4.247,0,1,0,4.247,4.247,4.247,4.247,0,0,0-4.247-4.247Z" transform="translate(-263.892 -207.882)" fill="#3f3d56"/>
    <path id="Path_41320" data-name="Path 41320" d="M608.643,286.705a.847.847,0,0,1-.6-.249l-5.968-5.968a.849.849,0,0,1,1.2-1.2l5.968,5.968a.849.849,0,0,1-.6,1.45Z" transform="translate(-265.369 -209.586)" fill="#3f3d56"/>
    <path id="Path_41321" data-name="Path 41321" d="M588.471,363.87H559.593a8.069,8.069,0,1,1,0-16.138h28.878a8.069,8.069,0,0,1,0,16.138Z" transform="translate(-257.792 -219.933)" fill="#6c63ff"/>
    <path id="Path_41322" data-name="Path 41322" d="M588.471,415.87H559.593a8.069,8.069,0,1,1,0-16.138h28.878a8.069,8.069,0,0,1,0,16.138Z" transform="translate(-257.792 -227.767)" fill="#6c63ff"/>
    <path id="Path_41323" data-name="Path 41323" d="M588.471,467.87H559.593a8.069,8.069,0,1,1,0-16.138h28.878a8.069,8.069,0,0,1,0,16.138Z" transform="translate(-257.792 -235.6)" fill="#6c63ff"/>
    <path id="Path_41324" data-name="Path 41324" d="M955.794,702.431H745.153a.849.849,0,0,1,0-1.7H955.794a.849.849,0,0,1,0,1.7Z" transform="translate(-286.832 -273.109)" fill="#3f3d56"/>
  </g>
</svg>
