<svg xmlns="http://www.w3.org/2000/svg" width="622.074" height="483.706" viewBox="0 0 622.074 483.706">
  <g id="Group_5662" data-name="Group 5662" transform="translate(0 0.03)">
    <path id="Path_41085" data-name="Path 41085" d="M904.883,426.415c-5.847-6.221-19.376-11.55-37.5-15.077V331.164h-.829v-.829H851.6v.829H828.087c2.106-12.131,9.133-54.427,7.717-71.415,0,0,18.265-49.818,3.32-91.337,0,0,14.962,3.32,16.608-13.287,1.341-13.408,16.734-43.033-.944-60.078-4.149-4.35-10.318-7.947-19.226-10.358L831.241,72.6A32.346,32.346,0,0,0,835.8,55.489c0-8.937-3.142-16.769-7.849-21.165a13.261,13.261,0,0,0-9.593-4.6,12.3,12.3,0,0,0-7.481,2.682c.311.236.61.489.909.754-5.461,4.08-9.207,12.534-9.207,22.3,0,7.395,2.158,14.018,5.57,18.582L805.9,88.676s-46.5-11.607-26.563,66.449c0,0,4.983,13.287,13.287,13.287,0,0-4.983,59.785,3.32,81.376,0,0-3.32,53.144,3.326,64.768v16.608H757.749V413.4c-21.258,4.868-34.879,12.344-34.879,20.717,0,14.68,41.64,26.575,93.006,26.575s93-11.872,93-26.558C908.877,431.45,907.472,428.86,904.883,426.415Z" transform="translate(-341.126 -29.75)" fill="#f2f2f2"/>
    <path id="Path_41086" data-name="Path 41086" d="M345.466,461.886c-5.427-5.789-18.029-10.744-34.919-14.03V373.247h-.771v-.771H295.867v.771H274c1.962-11.285,8.5-50.641,7.182-66.454,0,0,17-46.365,3.09-85,0,0,13.909,3.09,15.457-12.361,1.249-12.476,15.572-40.046-.88-55.906-3.861-4.028-9.6-7.395-17.885-9.627l-4.028-11.268a30.053,30.053,0,0,0,4.247-15.929c0-8.315-2.918-15.6-7.3-19.692a12.288,12.288,0,0,0-8.925-4.258,11.429,11.429,0,0,0-6.952,2.5c.288.219.576.455.846.7-5.081,3.8-8.574,11.665-8.574,20.757,0,6.906,2.014,13.046,5.179,17.264l-2.095,13.615s-43.269-10.819-24.745,61.822c0,0,4.638,12.361,12.367,12.361,0,0-4.638,55.636,3.09,75.731,0,0-3.09,49.455,3.09,60.274v15.451H208.546v76.536c-19.779,4.529-32.456,11.509-32.456,19.3,0,13.656,38.752,24.745,86.549,24.745s86.544-11.072,86.544-24.745C349.183,466.57,347.877,464.159,345.466,461.886Z" transform="translate(-108.997 -56.509)" fill="#f2f2f2"/>
    <path id="Path_41087" data-name="Path 41087" d="M598.635,524.608c-4.028-4.316-13.431-8-26.011-10.45V458.591h-.576v-.575H561.691v.575H545.405c1.462-8.408,6.33-37.727,5.352-49.49,0,0,12.66-34.528,2.3-63.3,0,0,10.358,2.3,11.509-9.207.932-9.294,11.6-29.826-.656-41.64-2.877-3.015-7.147-5.507-13.322-7.17l-2.992-8.408a22.443,22.443,0,0,0,3.165-11.866c0-6.192-2.175-11.619-5.444-14.669a9.141,9.141,0,0,0-6.641-3.171,8.517,8.517,0,0,0-5.179,1.864c.219.161.426.334.633.518-3.787,2.826-6.388,8.684-6.388,15.457a21.728,21.728,0,0,0,3.867,12.879l-1.565,10.145s-32.226-8.056-18.415,46.037c0,0,3.453,9.207,9.207,9.207,0,0-3.453,41.433,2.3,56.4,0,0-2.3,36.83,2.3,44.886v11.509H496.669v56.971c-14.732,3.372-24.169,8.557-24.169,14.387,0,10.174,28.859,18.415,64.452,18.415s64.452-8.246,64.452-18.415C601.4,528.1,600.431,526.3,598.635,524.608Z" transform="translate(-234.834 -123.127)" fill="#f2f2f2"/>
    <path id="Path_41088" data-name="Path 41088" d="M1044.814,624.291c-2.382-2.544-7.913-4.719-15.325-6.163V585.384h-.339v-.34h-6.106v.34h-9.6c.863-4.955,3.735-22.236,3.154-29.17,0,0,7.481-20.354,1.358-37.313,0,0,6.106,1.358,6.785-5.427.575-5.473,6.836-17.575-.386-24.538a16.445,16.445,0,0,0-7.855-4.224l-1.767-4.949a13.178,13.178,0,0,0,1.865-6.992c0-3.648-1.283-6.848-3.205-8.632a5.38,5.38,0,0,0-3.919-1.87,5.03,5.03,0,0,0-3.05,1.1,4.511,4.511,0,0,1,.368.305c-2.227,1.663-3.758,5.116-3.758,9.11a12.822,12.822,0,0,0,2.3,7.59l-.921,5.979s-18.99-4.748-10.853,27.133c0,0,2.037,5.427,5.427,5.427,0,0-2.031,24.423,1.358,33.239,0,0-1.358,21.712,1.358,26.471v6.785H984.718V619c-8.684,1.985-14.248,5.041-14.248,8.465,0,6,17.011,10.859,37.98,10.859s37.98-4.863,37.98-10.859A4.332,4.332,0,0,0,1044.814,624.291Z" transform="translate(-446.242 -213.384)" fill="#f2f2f2"/>
    <path id="Path_41089" data-name="Path 41089" d="M184.814,624.291c-2.382-2.544-7.913-4.719-15.325-6.163V585.384h-.34v-.34h-6.106v.34h-9.6c.863-4.955,3.735-22.236,3.154-29.17,0,0,7.481-20.354,1.358-37.313,0,0,6.106,1.358,6.785-5.427.547-5.473,6.836-17.575-.386-24.538a16.586,16.586,0,0,0-7.855-4.224l-1.767-4.949a13.178,13.178,0,0,0,1.865-6.992c0-3.648-1.283-6.848-3.205-8.632a5.38,5.38,0,0,0-3.919-1.87,5.03,5.03,0,0,0-3.05,1.1,4.482,4.482,0,0,1,.368.3c-2.227,1.663-3.758,5.116-3.758,9.11a12.821,12.821,0,0,0,2.267,7.579l-.921,5.979s-18.99-4.748-10.853,27.133c0,0,2.037,5.427,5.427,5.427,0,0-2.031,24.423,1.358,33.239,0,0-1.358,21.712,1.358,26.471V585.4H124.718v33.59c-8.684,1.985-14.248,5.041-14.248,8.465,0,6,17.011,10.859,37.98,10.859s37.98-4.863,37.98-10.859A4.329,4.329,0,0,0,184.814,624.291Z" transform="translate(-81.139 -213.384)" fill="#f2f2f2"/>
    <path id="Path_41090" data-name="Path 41090" d="M59.5,748.13H681.574s-23.018,62.564-81.986,40.282-94.209,4.316-126.573,16.539-97.086,21.58-113.625,2.877S327.74,780.5,269.5,787.687s-96.373,22.293-103.583,2.158-8.632-26.609-49.622-23.018S59.5,748.13,59.5,748.13Z" transform="translate(-59.5 -334.742)" fill="#2f2e41"/>
    <path id="Path_41091" data-name="Path 41091" d="M650.088,396.674c-6.986,11.878-8.057,26.172-10.41,39.741-3.694,21.027-10.934,41.307-14.582,62.346-1.272,7.36-2.095,14.824-4.115,22.011-2.774,9.875-7.723,18.99-12.367,28.111-7.907,15.583-15.083,31.789-18.035,49.012-.921,5.369-.2,12.66,5.116,13.811,1.519.34,3.228.069,4.523.932a10.863,10.863,0,0,1,1.853,1.985c2.336,2.578,6.359,2.877,9.7,1.939s6.25-3,9.346-4.6c12.292-6.33,26.863-5.576,40.651-4.678,2.538.161,5.386.478,6.992,2.457a20.063,20.063,0,0,1,1.755,3.453,9.524,9.524,0,0,0,12.039,4.132c1.588-.742,2.952-1.934,4.6-2.544,5.047-1.882,10.358,2.2,15.762,2.227,7.769.035,13.615-8.195,21.378-8.477,5.294-.19,10.134,3.418,15.428,3.453,3.971,0,7.631-2,11.083-3.953L774.4,594.7a98.2,98.2,0,0,0-22.863-22.834c-6.5-4.6-8.252-13.811-12.217-20.717-2.618-4.569-5.265-9.207-6.543-14.312-.921-3.683-1.1-7.516-2.014-11.2-1.26-5.087-3.856-9.72-5.916-14.536-8.172-19.082-7.9-40.858-15.382-60.222-2.106-5.455-4.817-10.675-6.687-16.216-2.463-7.3-3.424-15.031-5.91-22.316s-6.906-14.438-13.955-17.575a28.053,28.053,0,0,0-9.622-2.089A50.835,50.835,0,0,0,650.088,396.674Z" transform="translate(-284.82 -183.794)" fill="#3f3d56"/>
    <rect id="Rectangle_2147" data-name="Rectangle 2147" width="32.824" height="43.77" transform="translate(363.151 116.104)" fill="#fbc661"/>
    <path id="Path_41092" data-name="Path 41092" d="M710.361,290.445a32.982,32.982,0,0,0-5.058,0c-4.149-.052-5.329,4.961-9.466,5.369-5.047.495-12.044-2.7-16.263.121a16.339,16.339,0,0,1-2.44,1.4c-3.453,1.519-7.671.955-10.83,3.021s-4.316,6.146-4.316,9.921a10,10,0,0,0,.576,3.976c.443,1.076,1.18,2.008,1.623,3.084.311.76.472,1.571.731,2.354a19.264,19.264,0,0,0,2.877,4.972l7.308,10.168c1.916,2.67,1.151,5.973,1.462,9.248.23,2.515.817,5,.811,7.521a9.28,9.28,0,0,1-2.578,6.906q6.491-.4,12.942-1.191c3.545-.437,7.078-.961,10.64-1.214,7.481-.529,15,.155,22.443.84a12,12,0,0,1-2.095-5.605c-1.013-6.434-1.652-13.172.466-19.33a45.627,45.627,0,0,1,2.388-5.375l2.273-4.575c3.217-6.468,6.221-13.1,6.906-20.291a10.933,10.933,0,0,0-.639-5.467,8.913,8.913,0,0,0-5.467-4.552,19.214,19.214,0,0,0-7.251-.633A36.96,36.96,0,0,1,710.361,290.445Z" transform="translate(-315.272 -140.389)" fill="#3f3d56"/>
    <path id="Path_41093" data-name="Path 41093" d="M700.641,275.109c.524,1.37,1.151,2.837.742,4.253-.76,2.808-4.638,3.378-6.33,5.755a1.226,1.226,0,0,0-.259,1.214,1.336,1.336,0,0,0,.311.363c3.159,2.751,7.728,2.987,11.918,2.941,6.106-.058,12.626-.575,17.465-4.276,1.352-1.036,2.624-2.762,1.934-4.322-.535-1.191-1.945-1.64-3.113-2.227a11.945,11.945,0,0,1-5.53-6.572,25.491,25.491,0,0,1-1.347-8.632,2.446,2.446,0,0,0-.311-1.439,2.3,2.3,0,0,0-1.859-.708,55.572,55.572,0,0,0-11.814.472c-1.1.161-3.211.311-3.988,1.214s-.328,1.974-.178,2.958A44.187,44.187,0,0,0,700.641,275.109Z" transform="translate(-329.18 -128.08)" fill="#fbb3b2"/>
    <path id="Path_41094" data-name="Path 41094" d="M700.641,275.109c.524,1.37,1.151,2.837.742,4.253-.76,2.808-4.638,3.378-6.33,5.755a1.226,1.226,0,0,0-.259,1.214,1.336,1.336,0,0,0,.311.363c3.159,2.751,7.728,2.987,11.918,2.941,6.106-.058,12.626-.575,17.465-4.276,1.352-1.036,2.624-2.762,1.934-4.322-.535-1.191-1.945-1.64-3.113-2.227a11.945,11.945,0,0,1-5.53-6.572,25.491,25.491,0,0,1-1.347-8.632,2.446,2.446,0,0,0-.311-1.439,2.3,2.3,0,0,0-1.859-.708,55.572,55.572,0,0,0-11.814.472c-1.1.161-3.211.311-3.988,1.214s-.328,1.974-.178,2.958A44.187,44.187,0,0,0,700.641,275.109Z" transform="translate(-329.18 -128.08)" opacity="0.05"/>
    <circle id="Ellipse_3593" data-name="Ellipse 3593" cx="14.738" cy="14.738" r="14.738" transform="translate(364.152 111.972)" fill="#fbb3b2"/>
    <path id="Path_41095" data-name="Path 41095" d="M739.872,778.384a20.348,20.348,0,0,0-3.332,1.853,9.467,9.467,0,0,0,8.793.691c1.116-.524,2.118-1.266,3.188-1.87C745.575,778.137,742.68,777.337,739.872,778.384Z" transform="translate(-346.929 -347.376)" opacity="0.1"/>
    <path id="Path_41096" data-name="Path 41096" d="M622.1,769.956c-2.492,1.277-4.868,2.837-7.441,3.9a10.58,10.58,0,0,0,8.149.679c3.338-.973,6.249-3,9.34-4.6,6.744-3.453,14.179-4.805,21.787-5.179C642.909,764.386,631.8,764.973,622.1,769.956Z" transform="translate(-295.187 -341.762)" opacity="0.1"/>
    <path id="Path_41097" data-name="Path 41097" d="M807.808,571.857c-6.5-4.6-8.246-13.811-12.217-20.717-2.618-4.569-5.265-9.207-6.543-14.312-.921-3.683-1.1-7.516-2.014-11.2-1.255-5.087-3.85-9.72-5.91-14.536-8.172-19.082-7.9-40.858-15.382-60.222-2.112-5.455-4.822-10.675-6.693-16.216-2.457-7.3-3.453-15.031-5.91-22.316s-6.906-14.438-13.955-17.575a28.025,28.025,0,0,0-9.622-2.089,50.071,50.071,0,0,0-8.333.144,25.829,25.829,0,0,1,7.924,1.957c7.032,3.136,11.469,10.289,13.955,17.575s3.453,15.02,5.91,22.316c1.87,5.542,4.6,10.761,6.687,16.216,7.481,19.364,7.211,41.14,15.382,60.222,2.066,4.817,4.661,9.449,5.916,14.536.909,3.689,1.093,7.521,2.014,11.2,1.277,5.1,3.925,9.743,6.543,14.312,3.965,6.906,5.72,16.078,12.217,20.717a98.2,98.2,0,0,1,22.875,22.823l-23.594,13.328a40.739,40.739,0,0,1-6.186,3.027,17.437,17.437,0,0,0,5.179.926c3.965,0,7.625-2,11.078-3.953l23.594-13.328A98.087,98.087,0,0,0,807.808,571.857Z" transform="translate(-340.43 -183.79)" opacity="0.1"/>
    <path id="Path_41098" data-name="Path 41098" d="M794.643,767.89c-6.083.219-10.991,5.323-16.573,7.481a18.8,18.8,0,0,0,5.242.973c6.249,0,11.256-5.289,17.016-7.516A16.906,16.906,0,0,0,794.643,767.89Z" transform="translate(-364.56 -343.131)" opacity="0.1"/>
    <path id="Path_41099" data-name="Path 41099" d="M702.028,358.667V347.8h-5.277c.282-1.629,1.226-7.32,1.036-9.6,0,0,2.457-6.7.449-12.28a1.807,1.807,0,0,0,2.233-1.784c.219-2.233,3.349-7.815-2.682-9.38l-.616-1.726a4.328,4.328,0,0,0,.616-2.3c0-1.847-1-3.349-2.233-3.349s-2.233,1.5-2.233,3.349a4.224,4.224,0,0,0,.748,2.5l-.305,1.991s-6.25-1.565-3.568,8.931c0,0,.668,1.784,1.784,1.784,0,0-.667,8.056.449,10.934,0,0-.449,7.141.443,8.707V347.8H687.29v11.055c-2.877.656-4.69,1.663-4.69,2.791,0,1.974,5.6,3.574,12.5,3.574s12.5-1.6,12.5-3.574C707.61,360.4,705.394,359.305,702.028,358.667Z" transform="translate(-324.03 -147.623)" fill="#6c63ff"/>
    <path id="Path_41100" data-name="Path 41100" d="M704.4,310.529a4.345,4.345,0,0,1-.61,2.3l.61,1.726c6.031,1.559,2.906,7.141,2.682,9.374a1.813,1.813,0,0,1-2.233,1.79C706.857,331.3,704.4,338,704.4,338c.19,2.3-.754,7.97-1.036,9.6h2.014c.282-1.634,1.231-7.32,1.042-9.6,0,0,2.452-6.7.443-12.28a1.813,1.813,0,0,0,2.233-1.79c.224-2.233,3.349-7.815-2.676-9.374l-.616-1.726a4.345,4.345,0,0,0,.616-2.3c0-1.847-1-3.349-2.233-3.349a1.651,1.651,0,0,0-1.007.363,3.781,3.781,0,0,1,1.22,2.987Z" transform="translate(-332.767 -147.542)" opacity="0.1"/>
    <path id="Path_41101" data-name="Path 41101" d="M710.316,388.295V377.43h-2.008v10.865c3.361.645,5.582,1.726,5.582,2.975,0,1.882-5.064,3.418-11.509,3.562h1.007c6.906,0,12.5-1.6,12.5-3.574C715.9,390.033,713.671,388.939,710.316,388.295Z" transform="translate(-332.427 -177.366)" opacity="0.1"/>
    <path id="Path_41102" data-name="Path 41102" d="M703.15,213.066c-4.6-1.151-9.553-2.031-13.938-.265a19.928,19.928,0,0,0-5.478,3.608,13.455,13.455,0,0,0-3.735,4.54c-.949,2.187-.84,4.661-.9,7.044s-.374,4.937-1.957,6.716a9.764,9.764,0,0,0-1.813,2.095,4.369,4.369,0,0,0,.368,3.74,15.631,15.631,0,0,1,1.577,3.551,7.167,7.167,0,0,1-1.306,5.116c-.973,1.519-2.239,2.831-3.246,4.333s-1.79,3.654-.875,5.306c.575,1.065,1.761,1.726,2.359,2.774.288.5.432,1.082.737,1.571.846,1.341,2.624,1.669,4.2,1.83,2.515.265,5.317.345,7.268-1.266a7.6,7.6,0,0,0,2.348-4.535c.328-1.709.339-3.453.644-5.179a14.544,14.544,0,0,0,.472-3.706c-.144-1.657-1.1-3.113-1.859-4.6a12.579,12.579,0,0,1-1.531-6.773A7.286,7.286,0,0,1,690,233.207c1.45-.8,3.24-1,4.471-2.106,1.951-1.726,1.657-4.788,2.008-7.372a3.517,3.517,0,0,1,.547-1.617,3.715,3.715,0,0,1,2.762-1.151,10.923,10.923,0,0,1,6.992,1.393,9.041,9.041,0,0,1,3.625,5.57,15.953,15.953,0,0,1-.121,6.762c.081-.973,1.577-1.237,2.267-.575a3.008,3.008,0,0,1,.529,2.756c-.806,4.028-4.454,6.906-5.68,10.819a9.783,9.783,0,0,0,2.106,9.38,2.665,2.665,0,0,0,1.151.817,4.926,4.926,0,0,0,1.4.069c1.836,0,3.412,1.26,4.811,2.457s2.877,2.48,4.742,2.624,3.873-1.536,3.32-3.292a3.556,3.556,0,0,0-.938-1.37c-1.151-1.185-2.659-2.118-3.453-3.568-1.387-2.434-.541-5.478.334-8.143s1.726-5.714.3-8.137c-.667-1.151-1.784-2.014-2.3-3.234a6.088,6.088,0,0,1-.443-2.221c-.121-2.785.575-5.622,0-8.338a10.186,10.186,0,0,0-4.794-6.261,13.852,13.852,0,0,0-3.844-1.606c-.524-.132-1.318-.1-1.686-.495s-.495-1.088-.961-1.525A9.6,9.6,0,0,0,703.15,213.066Z" transform="translate(-319.294 -107.049)" fill="#fbc661"/>
    <path id="Path_41103" data-name="Path 41103" d="M741.233,244.909a1.554,1.554,0,0,0-1.836-.15,18.86,18.86,0,0,1-.4,3.637,1.423,1.423,0,0,1,2.233-.363,1.945,1.945,0,0,1,.328.432,7.755,7.755,0,0,0,.2-.8A3.005,3.005,0,0,0,741.233,244.909Z" transform="translate(-347.974 -120.944)" opacity="0.05"/>
    <path id="Path_41104" data-name="Path 41104" d="M753,240.391a6.71,6.71,0,0,0,.052.685,28.393,28.393,0,0,0,.109-4.736,36.658,36.658,0,0,0-.161,4.051Z" transform="translate(-353.914 -117.468)" opacity="0.05"/>
    <path id="Path_41105" data-name="Path 41105" d="M738.975,251.25a1.1,1.1,0,0,0-.034.19Z" transform="translate(-347.948 -123.798)" opacity="0.05"/>
    <path id="Path_41106" data-name="Path 41106" d="M755.561,271.077a24.429,24.429,0,0,1,.921-3.453c.7-2.106,1.364-4.46.909-6.555a22.959,22.959,0,0,1-.909,3.453C755.786,266.606,755.107,268.971,755.561,271.077Z" transform="translate(-354.942 -127.967)" opacity="0.05"/>
    <path id="Path_41107" data-name="Path 41107" d="M721.474,232.337a12.5,12.5,0,0,1,.23,1.364,13.993,13.993,0,0,0-.23-4.489,9.035,9.035,0,0,0-3.625-5.576,10.989,10.989,0,0,0-6.992-1.393,3.69,3.69,0,0,0-2.762,1.151,3.493,3.493,0,0,0-.547,1.611c-.351,2.59-.057,5.634-2.008,7.372-1.232,1.111-3.021,1.312-4.471,2.112a7.4,7.4,0,0,0-3.516,5.755,10.028,10.028,0,0,0,.092,2.492,7.21,7.21,0,0,1,3.453-5.145c1.45-.8,3.24-1,4.471-2.106,1.951-1.726,1.657-4.788,2.008-7.372a3.516,3.516,0,0,1,.547-1.617,3.715,3.715,0,0,1,2.762-1.151,10.923,10.923,0,0,1,6.992,1.393A9.041,9.041,0,0,1,721.474,232.337Z" transform="translate(-330.361 -111.457)" opacity="0.05"/>
    <path id="Path_41108" data-name="Path 41108" d="M750.555,286.229a3.493,3.493,0,0,1-2.751,1.151c-1.836-.144-3.349-1.427-4.742-2.624s-2.975-2.434-4.811-2.457a5.144,5.144,0,0,1-1.4-.069,2.716,2.716,0,0,1-1.151-.817A9.645,9.645,0,0,1,733.3,276.4a9.783,9.783,0,0,0,2.405,8.137,2.664,2.664,0,0,0,1.151.817,4.927,4.927,0,0,0,1.4.069c1.836,0,3.413,1.26,4.811,2.457s2.877,2.48,4.742,2.624,3.873-1.536,3.32-3.292A2.845,2.845,0,0,0,750.555,286.229Z" transform="translate(-345.498 -134.475)" opacity="0.05"/>
    <path id="Path_41109" data-name="Path 41109" d="M679.8,261.935a5.577,5.577,0,0,0,.138-2.6,15.963,15.963,0,0,0-1.577-3.545q-.173-.357-.311-.725c0,.035-.04.069-.058.109a4.369,4.369,0,0,0,.368,3.741A24.047,24.047,0,0,1,679.8,261.935Z" transform="translate(-321.951 -125.42)" opacity="0.05"/>
    <path id="Path_41110" data-name="Path 41110" d="M689.7,277.14c-.1.512-.213,1.019-.3,1.531-.3,1.726-.322,3.453-.644,5.179a7.462,7.462,0,0,1-2.348,4.535c-1.951,1.606-4.753,1.531-7.268,1.266-1.571-.161-3.349-.495-4.2-1.83-.3-.495-.449-1.07-.737-1.577-.575-1.059-1.767-1.726-2.359-2.774-.04-.069-.075-.15-.109-.224a4.1,4.1,0,0,0,.109,3.355c.575,1.065,1.761,1.726,2.359,2.774.288.5.432,1.082.737,1.571.846,1.341,2.624,1.669,4.2,1.83,2.515.265,5.317.345,7.268-1.266a7.6,7.6,0,0,0,2.348-4.535c.328-1.709.339-3.453.644-5.179a14.544,14.544,0,0,0,.472-3.706,5.75,5.75,0,0,0-.167-.949Z" transform="translate(-319.286 -134.789)" opacity="0.05"/>
    <path id="Path_41111" data-name="Path 41111" d="M660.482,315.14s-2.877,1.565-4.69,16.078-2.682,29.924-2.682,29.924,0,12.954,12.28,13.4c0,0,4.914.9,6.48,2.014s26.126-6.48,14.513-8.056-15.854-.9-15.854-.9-6.255-4.028-6.255-7.815,6.255-26.31,6.255-26.31Z" transform="translate(-311.51 -150.922)" fill="#fbb3b2"/>
    <path id="Path_41112" data-name="Path 41112" d="M664.193,325.538c.311.76.472,1.571.731,2.354a19.167,19.167,0,0,0,2.877,4.972c1.462,2.037,3.81,6.836,5.266,8.874a34.03,34.03,0,0,1,3.8-8.488L664.25,312.82s-.99.529-2.169,3.856c-.063.6-.1,1.208-.1,1.8a10,10,0,0,0,.575,3.976C663.013,323.529,663.75,324.462,664.193,325.538Z" transform="translate(-315.267 -149.937)" fill="#3f3d56"/>
    <path id="Path_41113" data-name="Path 41113" d="M740.007,261.015a.668.668,0,0,0-.443-.627v-.754a.662.662,0,0,0,.443-.627.673.673,0,1,0-.892.627v.754a.668.668,0,0,0,0,1.26v.748a.668.668,0,0,0,0,1.26v.754a.668.668,0,1,0,.449,0v-.754a.668.668,0,0,0,0-1.26v-.748a.668.668,0,0,0,.443-.633Z" transform="translate(-347.829 -126.801)" fill="#eeeff3"/>
    <path id="Path_41114" data-name="Path 41114" d="M742.873,299.62a62.431,62.431,0,0,1,7.366,18.536c2.233,10.5,3.8,12.729,3.8,12.729s9.829,25.01-1.116,26.575-30.143,0-30.143,0-38.855,6.7-25.234-2.233,24.354-7.82,24.354-7.82,16.3-.443,18.536-2.008l4.241-.443-10.048-28.583Z" transform="translate(-329.145 -144.333)" fill="#fbb3b2"/>
    <path id="Path_41115" data-name="Path 41115" d="M760.41,315.451l4.684,10.934c3.165-6.382,6.808-14.2,7.481-21.292a28.078,28.078,0,0,0-.086-3.936,11.364,11.364,0,0,0-2.008-2.906Z" transform="translate(-357.063 -143.751)" fill="#3f3d56"/>
    <path id="Path_41116" data-name="Path 41116" d="M489.878,546.321s-11.3,23.513-3.453,31.812S499.569,545.4,499.569,545.4Z" transform="translate(-239.569 -248.676)" fill="#a0616a"/>
    <path id="Path_41117" data-name="Path 41117" d="M381.316,737.391,368.656,753.3s-25.591,10.145-2.077,11.509c0,0,11.509-.921,13.811-2.538s3.689-4.84,8.3-2.992,9.915-1.847,9.915-1.847.691-17.983-3.919-20.055S381.316,737.391,381.316,737.391Z" transform="translate(-185.648 -329.787)" fill="#36344a"/>
    <path id="Path_41118" data-name="Path 41118" d="M477.779,748.015l-3,13.144s-6.687,15.676,3,13.368,14.525-4.84,15.445-9.449a45.982,45.982,0,0,1,3.453-9.685s-2.768-7.147-5.3-7.377S477.779,748.015,477.779,748.015Z" transform="translate(-234.848 -334.65)" fill="#36344a"/>
    <path id="Path_41119" data-name="Path 41119" d="M370.908,458.971s-8.3,56.971-2.532,88.046,12.66,62.938,12.66,62.938-8.056,18.415,19.566,6.227c0,0-1.841-45.651-7.377-63.4s2.843-41.709,5.145-42.4c0,0,9.207,46.342,18.213,61.574s14.012,50.7,14.012,50.7,19.37,2.532,19.14-2.538-3.689-47.953-14.962-63.168c0,0-9.685-25.361-3.453-51.642s-6.687-35.276-6.687-35.276l-20.509-24.2-20.515-4.6Z" transform="translate(-189.764 -204.452)" fill="#3f3d56"/>
    <path id="Path_41120" data-name="Path 41120" d="M473.153,295.853a6.531,6.531,0,0,1-1.03,2.083,5.961,5.961,0,0,1-1.68,1.26,32.222,32.222,0,0,1-6.393,2.745c-.575,1.151.357,2.446,1.243,3.378l2.6,2.751c1.519,1.6,3.038,3.2,4.678,4.673a40.722,40.722,0,0,0,10.663,6.906c2.037.9,4.667,1.548,6.3.035s1.226-4.172,2.216-6.146a1.111,1.111,0,0,0-.19-1.761,6.077,6.077,0,0,1-1.324-5.254c.282-1.853,1.036-3.6,1.467-5.427a7.342,7.342,0,0,0-.46-5.467,7.561,7.561,0,0,0-2.175-2.141,20.141,20.141,0,0,0-6.227-2.969c-1.151-.316-2.3-.529-3.453-.869-.714-.219-2.647-1.554-3.257-1.444C474.879,288.412,473.6,294.512,473.153,295.853Z" transform="translate(-231.171 -139.484)" fill="#a0616a"/>
    <path id="Path_41121" data-name="Path 41121" d="M473.153,295.853a6.531,6.531,0,0,1-1.03,2.083,5.961,5.961,0,0,1-1.68,1.26,32.222,32.222,0,0,1-6.393,2.745c-.575,1.151.357,2.446,1.243,3.378l2.6,2.751c1.519,1.6,3.038,3.2,4.678,4.673a40.722,40.722,0,0,0,10.663,6.906c2.037.9,4.667,1.548,6.3.035s1.226-4.172,2.216-6.146a1.111,1.111,0,0,0-.19-1.761,6.077,6.077,0,0,1-1.324-5.254c.282-1.853,1.036-3.6,1.467-5.427a7.342,7.342,0,0,0-.46-5.467,7.561,7.561,0,0,0-2.175-2.141,20.141,20.141,0,0,0-6.227-2.969c-1.151-.316-2.3-.529-3.453-.869-.714-.219-2.647-1.554-3.257-1.444C474.879,288.412,473.6,294.512,473.153,295.853Z" transform="translate(-231.171 -139.484)" opacity="0.1"/>
    <path id="Path_41122" data-name="Path 41122" d="M448.314,307.663c-.029-.455-.081-.984-.466-1.232a1.3,1.3,0,0,0-.737-.155c-5.444,0-9.858,4.281-13.282,8.505-7.216,8.891-12.908,18.927-17.839,29.268-3.033,6.37-5.847,13.535-3.9,20.32a20.861,20.861,0,0,0,2.722,5.657,30.967,30.967,0,0,0,5.893,6.635,6.612,6.612,0,0,0,3.061,1.669c1.726.276,3.366-.673,4.84-1.588q4.437-2.762,8.833-5.582a103.264,103.264,0,0,0,13.713-9.938,36.829,36.829,0,0,0,9.9-13.569c.88-2.233,1.467-4.6,2.457-6.767,1.508-3.332,3.942-6.273,4.805-9.829.409-1.7.443-3.453.88-5.15.345-1.352.944-2.63,1.231-3.994a4.841,4.841,0,0,0-.65-3.994c-1.462-1.853-4.3-1.577-6.618-1.1-3.015.621-8.39,2.152-11.262.328C449.447,315.576,448.486,310.333,448.314,307.663Z" transform="translate(-208.916 -147.157)" fill="#eeeff3"/>
    <path id="Path_41123" data-name="Path 41123" d="M468.76,323.246l-3.228.23-2.3-.927,1.847-5.53s6.5.737,7.17,2.785c0,0,.483,1.41,1.266,1.617s4.028-.253,4.7,1.358.46,10.358-3.919,9.207l-2.072-5.536-.927-1.381S468.53,324.628,468.76,323.246Z" transform="translate(-230.899 -151.72)" fill="#3f3d56"/>
    <path id="Path_41124" data-name="Path 41124" d="M401.419,365.123s7.147-47.032,29.51-63.876c0,0,.23-4.379-3.689-3.919s-20.285-2.768-20.285-2.768L391.51,324.536s-3.453,27.893-6,32.5S367.07,398.31,367.07,398.31s8.994,30.2,22.362-10.358c0,0-10.358,32.968,18.9,36.2s25.821-1.847,25.821-1.847l3.453-23.974V380.338l6.457-12.66,26.281-33.429s-17.839-24.7-21.246-22.495C449.108,311.732,427.01,346.68,401.419,365.123Z" transform="translate(-190.075 -142.185)" fill="#3f3d56"/>
    <path id="Path_41125" data-name="Path 41125" d="M400.238,296.427l-3.453-1.847s-10.606,3.919-14.294,19.14c0,0-8.989,6.451-14.962,11.3,0,0-8.056-14.962-8.056-20.061,0,0-13.374,8.994-16.372,6.687,0,0,8.056,37.117,23.289,34.349s20.964-11.757,20.964-11.757Z" transform="translate(-179.899 -142.193)" fill="#3f3d56"/>
    <path id="Path_41126" data-name="Path 41126" d="M513.13,364.877l8.758-1.387s5.536,7.377-4.379,18.213l-6,36.657s.691,12.217-1.381,21.442-5.306,37.578-5.306,37.578-10.6-3.919-16.366-3.228l8.759-85.047Z" transform="translate(-241.61 -171.448)" fill="#3f3d56"/>
    <path id="Path_41127" data-name="Path 41127" d="M358.428,301.777s-4.845-29.049-13.144-18.213.921,25.821.921,25.821Z" transform="translate(-179.356 -136.489)" fill="#a0616a"/>
    <circle id="Ellipse_3594" data-name="Ellipse 3594" cx="18.674" cy="18.674" r="18.674" transform="translate(240.975 129.455)" fill="#a0616a"/>
    <path id="Path_41128" data-name="Path 41128" d="M511.364,246.185a13.191,13.191,0,0,1-1.151-1.686,12.949,12.949,0,0,0-4.6-3.689c-3.159-1.726-6.762-3.349-10.278-2.509-2.434.575-4.5,2.3-6.952,2.8s-5.363-.052-7.015,1.79-.921,4.742-2.342,6.647c-.788,1.053-2.25,2.02-1.853,3.274.167.529.656.9.88,1.416.4.9-.092,1.928-.115,2.912-.029,1.456.967,2.7,1.669,3.982s1.082,3.061,0,4.063a56.394,56.394,0,0,1,11.947-7.326,3.534,3.534,0,0,1-.449,1.686,55.6,55.6,0,0,0,6.854-1.456l-1.185,2.273,5.087-2.221c1.375-.6,3.1-1.151,4.276-.23a3.867,3.867,0,0,1,1.093,1.9,25.287,25.287,0,0,1,1.185,6.416c.127,2.463,0,5.179,1.594,7.061a4.794,4.794,0,0,0,7-.046c.449-1.726-.224-3.51-.259-5.283-.052-2.584,1.249-5.012,1.485-7.585.3-3.251-1.617-5.179-2.492-8.056-.34-1.1-.132-2.411-.783-3.453C514.121,247.578,512.406,247.29,511.364,246.185Z" transform="translate(-236.789 -118.204)" fill="#3f3d56"/>
    <path id="Path_41129" data-name="Path 41129" d="M331.818,301.641l6.658-11.181-5.432-3.234c1.289-1.508,5.755-6.779,6.946-9.242,0,0,6.629-5.386,7.982-12.361a2.17,2.17,0,0,0,3.4-.472c1.6-2.164,8.229-5.985,2.987-11.285l.42-2.146a5.18,5.18,0,0,0,2.043-1.991c1.151-1.9,1.019-4.028-.247-4.811s-3.217.173-4.35,2.077a5.07,5.07,0,0,0-.76,3.027l-1.513,1.841s-5.478-5.438-9.15,7c0,0-.4,2.25.748,2.935,0,0-5.617,7.855-6.244,11.509,0,0-4.834,7.078-4.874,9.207l-1.37,2.3L323.3,281.4l-6.767,11.377c-3.343-1.076-5.841-1.151-6.531,0-1.208,2.031,3.568,7.107,10.675,11.337s13.84,6.008,15.048,3.982C336.5,306.843,334.885,304.357,331.818,301.641Z" transform="translate(-165.768 -120.993)" fill="#6c63ff"/>
    <path id="Path_41130" data-name="Path 41130" d="M370.277,248.164a5.225,5.225,0,0,1-2.037,2l-.426,2.141c5.248,5.3-1.387,9.127-2.987,11.291a2.164,2.164,0,0,1-3.389.466c-1.352,6.975-7.982,12.361-7.982,12.361-1.2,2.469-5.657,7.74-6.946,9.242l2.066,1.232c1.289-1.5,5.755-6.779,6.946-9.242,0,0,6.629-5.386,7.982-12.361a2.17,2.17,0,0,0,3.4-.472c1.6-2.164,8.229-5.985,2.987-11.285l.42-2.146a5.179,5.179,0,0,0,2.037-1.991c1.151-1.9,1.024-4.028-.242-4.811a2,2,0,0,0-1.255-.247,4.523,4.523,0,0,1-.57,3.827Z" transform="translate(-181.347 -120.856)" opacity="0.1"/>
    <path id="Path_41131" data-name="Path 41131" d="M339.038,334.213l6.658-11.181-2.054-1.232-6.658,11.181c3.067,2.722,4.679,5.179,3.919,6.48-1.151,1.928-7.3.409-14.012-3.378.34.207.679.42,1.03.627,7.1,4.23,13.84,6.014,15.048,3.982C343.7,339.415,342.088,336.929,339.038,334.213Z" transform="translate(-173.017 -153.749)" opacity="0.1"/>
  </g>
</svg>
