<svg xmlns="http://www.w3.org/2000/svg" width="70" height="70" viewBox="0 0 112 112">
  <path id="FontAwsome_wordpress_" data-name="FontAwsome (wordpress)" d="M20.126,44.445l22.919,62.774A48.049,48.049,0,0,1,20.126,44.445Zm76.3,17.139a25.333,25.333,0,0,0-3.952-13.255c-2.439-3.952-4.719-7.316-4.719-11.268,0-4.426,3.342-8.535,8.061-8.535.2,0,.406.023.632.045a48.034,48.034,0,0,0-72.6,9.032c1.129.045,2.19.068,3.094.068,5.013,0,12.8-.61,12.8-.61a1.982,1.982,0,0,1,.316,3.952s-2.6.294-5.487.452l17.5,52.026L62.6,61.968l-7.474-20.5c-2.6-.158-5.035-.452-5.035-.452-2.6-.158-2.281-4.11.294-3.952,0,0,7.926.61,12.645.61,5.013,0,12.8-.61,12.8-.61a1.982,1.982,0,0,1,.316,3.952s-2.6.294-5.487.452L88.026,93.106,92.813,77.1c2.032-6.639,3.613-11.4,3.613-15.513ZM64.835,68.2,50.429,110.087a47.866,47.866,0,0,0,29.513-.768,3.6,3.6,0,0,1-.339-.655Zm41.323-27.255a37.425,37.425,0,0,1,.316,4.945A45.13,45.13,0,0,1,102.816,63.1L88.139,105.526a48.086,48.086,0,0,0,18.019-64.581ZM120,64A56,56,0,1,1,64,8,56.063,56.063,0,0,1,120,64Zm-2.574,0A53.426,53.426,0,1,0,64,117.426,53.49,53.49,0,0,0,117.426,64Z" transform="translate(-8 -8)" fill="#6b63ff"/>
</svg>
