<svg xmlns="http://www.w3.org/2000/svg" id="Layer_1" data-name="Layer 1" viewBox="0 0 516.78 143.42"><title>01_Cpanel</title><path d="M11,78.29c4-17.36,15.37-28.61,32.53-31.63a60.44,60.44,0,0,1,9.9-.49c8-.06,16,0,24.14,0-3.07,23.07-4,24.19-25.73,24.76-10,.26-16.24,4.42-17.52,14.43C33.23,94,39.28,100.53,49.42,102.4c4.22.78,8.51,1.28,13.45,2-.56,2.68-.8,4.4-1.27,6-5.08,17.78-9.47,20.1-26.85,13.36-12-4.67-19.56-13.63-23.51-26C9.12,91.24,10.46,80.72,11,78.29Z"></path><path d="M506.42,23.33c-5.32,17.81-10.69,35.6-15.93,53.42-2.27,7.73-4.42,15.5-6.37,23.31-3.95,15.85-14.89,23.39-31.59,26.74C458,106,463.13,86.19,468.28,66.42c2.68-10.28,5.31-20.58,8.05-30.84,4.45-16.66,5.22-17.21,22.67-16a52.14,52.14,0,0,1,7.42,1.57Z"></path><path d="M67.45,125.69C72.62,105.78,77.69,86,82.91,66.29c3.19-12.05,6.93-24,9.84-36.08C94.6,22.47,98.64,19,106.69,19.38c9.19.41,18.42-.05,27.63.16,18.75.42,34.59,15.34,37,34.58C173.51,72.44,161,93.37,144,97.22c-10.87,2.45-22.32,2.32-33.85,3.37,1.73-22.34,2.83-23.55,21.77-25.67,7.89-.88,12.94-5.08,14.18-13s-1.77-13.68-9-17.15c-12.69-6.08-22.2-1.81-26,11.69-4.72,17-9.58,33.88-14.11,50.89C91.59,127.55,90.42,128.43,67.45,125.69Z"></path><path d="M399.27,95.77c.45-13.16,6.67-17.39,17.39-16.36,2.56.24,5.42.67,7.67-.2,2.64-1,4.76-3.39,7.1-5.17-2.26-1.74-4.32-4-6.86-5.06-1.86-.82-4.35-.21-6.56-.22-21.93-.1-28.58,5.9-29,27.66-.05,2.51,4.86,7.16,7.68,7.34,12.85.81,25.78.33,38.67.41,3.93,0,7.86.37,11.8.57-1.29,19.15-4.19,22-21.52,22-13.26,0-26.53.15-39.8,0-17.07-.23-26.3-11.63-22.63-28.39,2.27-10.37,5.12-20.64,8.34-30.75,4.21-13.19,14.14-20.8,27.78-21.27,12.15-.43,24.33-.41,36.48,0,13.78.43,21.68,9,21.51,22.5-.22,17.48-7.73,26.73-22.25,27C423.3,95.93,411.56,95.77,399.27,95.77Z"></path><path d="M226.53,79.34c-1,12.8-7,17-17.08,16.42a40.45,40.45,0,0,0-9.91.25c-1.7.33-3,2.44-4.55,3.75,1.18,1.26,2.34,3.58,3.56,3.61,9.55.27,19.13.38,28.67-.19,1.7-.1,4-3.31,4.65-5.49,2.6-8.75,4.66-17.66,7.29-27.94-4.83-.83-8.95-2-13.1-2.16-11.42-.32-22.85-.22-34.27-.21-7.35,0-10.69-3.38-10.45-10.89.21-7.11,2.53-10.72,10.5-10.5,16.57.47,33.16-.07,49.74.21,16.75.28,25.81,12.89,21.41,29.17-3.26,12-6.47,24.1-9.71,36.15-2.77,10.3-9.68,15.21-20.17,15.24-13.27,0-26.55.3-39.8-.13-14.64-.47-24.8-10.19-24.78-22.87,0-14.4,10.18-24.22,25.44-24.4C204.56,79.24,215.14,79.34,226.53,79.34Z"></path><path d="M304.14,46.57c6.26,0,12.66-.85,18.75.15,23.22,3.81,36.36,23.67,32,48.22a123.35,123.35,0,0,1-6.72,24.33c-1.3,3.2-5.82,6.71-9.26,7.16-15.94,2.06-17.44-.1-13.16-15.82,1.93-7.08,4.1-14.12,5.58-21.3,1.74-8.5-3.77-16.19-12.26-17.94-15.78-3.27-19.58-.89-23.8,14.7-2.77,10.26-5.55,20.53-8.55,30.72-2.5,8.49-15.94,14.12-22.82,9.24-1.76-1.25-2.83-5.39-2.25-7.71,5.63-22.42,11.53-44.76,17.86-67,.62-2.2,4.43-4.6,7-4.93,5.81-.73,11.77-.23,17.66-.23Z"></path></svg>