<svg xmlns="http://www.w3.org/2000/svg" xmlns:xlink="http://www.w3.org/1999/xlink" id="Layer_1" x="0px" y="0px" viewBox="0 0 398.481 110.592" style="enable-background:new 0 0 398.481 110.592;" xml:space="preserve"><g>	<path d="M19.868,60.555c2.887-12.585,11.141-20.741,23.587-22.932c2.341-0.412,4.78-0.333,7.175-0.352  c5.801-0.045,11.603-0.015,17.503-0.015c-2.228,16.722-2.94,17.536-18.659,17.947c-7.229,0.189-11.769,3.208-12.702,10.462  c-0.804,6.255,3.586,11.015,10.933,12.372c3.066,0.566,6.169,0.928,9.75,1.456c-0.4,1.939-0.574,3.187-0.917,4.386  c-3.683,12.89-6.868,14.572-19.466,9.688c-8.738-3.388-14.178-9.884-17.045-18.837C18.496,69.947,19.463,62.322,19.868,60.555z"></path>	<path d="M379.014,20.715c-3.855,12.908-7.748,25.805-11.547,38.729c-1.647,5.602-3.207,11.234-4.618,16.899  c-2.862,11.485-10.793,16.955-22.899,19.379c3.941-15.111,7.679-29.439,11.415-43.767c1.944-7.455,3.85-14.92,5.838-22.363  c3.225-12.075,3.781-12.478,16.431-11.616c1.811,0.123,3.588,0.743,5.381,1.133C379.014,19.644,379.014,20.179,379.014,20.715z"></path>	<path d="M60.776,94.918c3.751-14.43,7.426-28.762,11.213-43.064c2.313-8.735,5.023-17.371,7.129-26.154  c1.347-5.613,4.273-8.113,10.108-7.851c6.665,0.299,13.356-0.037,20.031,0.113c13.593,0.306,25.076,11.124,26.784,25.069  c1.627,13.285-7.444,28.453-19.794,31.244c-7.88,1.78-16.184,1.682-24.539,2.448c1.255-16.198,2.05-17.073,15.777-18.607  c5.723-0.64,9.386-3.686,10.285-9.417c0.884-5.633-1.285-9.912-6.548-12.433c-9.203-4.408-16.093-1.309-18.82,8.479  c-3.425,12.294-6.942,24.563-10.227,36.895C78.278,96.272,77.431,96.909,60.776,94.918z"></path>	<path d="M301.337,73.229c0.327-9.538,4.83-12.604,12.607-11.86c1.851,0.177,3.928,0.489,5.557-0.146  c1.913-0.746,3.45-2.456,5.15-3.749c-1.642-1.26-3.135-2.86-4.976-3.666c-1.35-0.592-3.156-0.15-4.759-0.158  c-15.895-0.072-20.716,4.275-21.041,20.051c-0.037,1.818,3.52,5.187,5.569,5.317c9.313,0.588,18.684,0.241,28.033,0.302  c2.849,0.019,5.696,0.267,8.552,0.41c-0.932,13.886-3.037,15.936-15.6,15.939c-9.617,0.003-19.235,0.103-28.85-0.026  c-12.377-0.166-19.069-8.428-16.408-20.58c1.645-7.515,3.709-14.963,6.048-22.294c3.05-9.561,10.248-15.075,20.14-15.42  c8.805-0.307,17.635-0.293,26.442-0.02c9.993,0.309,15.719,6.519,15.595,16.309c-0.16,12.674-5.603,19.382-16.128,19.561  C318.758,73.345,310.243,73.229,301.337,73.229z"></path>	<path d="M176.109,61.317c-0.701,9.282-5.055,12.3-12.388,11.906c-2.396-0.129-4.867-0.279-7.186,0.179  c-1.23,0.243-2.206,1.771-3.297,2.718c0.859,0.914,1.696,2.594,2.58,2.619c6.927,0.196,13.874,0.275,20.785-0.135  c1.232-0.073,2.901-2.402,3.372-3.986c1.888-6.343,3.383-12.802,5.288-20.253c-3.5-0.603-6.49-1.481-9.501-1.566  c-8.276-0.233-16.561-0.161-24.843-0.153c-5.325,0.005-7.746-2.451-7.578-7.897c0.159-5.153,1.84-7.771,7.614-7.608  c12.013,0.34,24.045-0.055,36.063,0.148c12.142,0.206,18.707,9.345,15.517,21.146c-2.361,8.732-4.686,17.473-7.036,26.207  c-2.01,7.472-7.016,11.028-14.627,11.047c-9.618,0.025-19.243,0.217-28.851-0.091c-10.609-0.34-17.98-7.386-17.964-16.578  c0.017-10.44,7.38-17.56,18.444-17.69C160.175,61.244,167.852,61.317,176.109,61.317z"></path>	<path d="M232.373,37.56c4.535,0,9.172-0.616,13.588,0.109c16.833,2.765,26.359,17.162,23.17,34.955  c-1.075,5.997-2.601,12.018-4.873,17.644c-0.937,2.321-4.221,4.864-6.711,5.187c-11.553,1.497-12.642-0.069-9.54-11.468  c1.397-5.135,2.973-10.237,4.042-15.441c1.267-6.164-2.732-11.737-8.881-13.008c-11.446-2.365-14.196-0.642-17.255,10.662  c-2.013,7.438-4.027,14.878-6.201,22.271c-1.809,6.151-11.555,10.236-16.54,6.698c-1.277-0.906-2.058-3.912-1.635-5.594  c4.083-16.247,8.361-32.449,12.946-48.561c0.455-1.598,3.215-3.334,5.088-3.572c4.207-0.535,8.528-0.168,12.802-0.168  C232.373,37.369,232.373,37.465,232.373,37.56z"></path></g></svg>