<svg xmlns="http://www.w3.org/2000/svg" id="Layer_1" data-name="Layer 1" viewBox="0 0 216.12 92.11"><title>Cpanel-02</title><path d="M6.44,49.81c1.64-7.12,6.31-11.74,13.36-13a23.82,23.82,0,0,1,4.06-.2c3.29,0,6.57,0,9.91,0-1.26,9.47-1.66,9.93-10.56,10.16-4.1.11-6.67,1.82-7.19,5.92-.46,3.55,2,6.24,6.18,7,1.74.32,3.5.53,5.53.82-.23,1.1-.33,1.81-.52,2.49-2.09,7.3-3.89,8.25-11,5.48-4.94-1.92-8-5.59-9.65-10.66C5.67,55.13,6.21,50.81,6.44,49.81Z"></path><path d="M209.79,27.25c-2.19,7.31-4.39,14.61-6.54,21.93-.93,3.17-1.82,6.36-2.62,9.57-1.62,6.5-6.11,9.6-13,11,2.23-8.55,4.35-16.67,6.46-24.78,1.1-4.22,2.18-8.45,3.31-12.66,1.82-6.84,2.14-7.06,9.3-6.58a21.78,21.78,0,0,1,3,.64Z"></path><path d="M29.61,69.27C31.73,61.1,33.81,53,36,44.89c1.31-5,2.85-9.84,4-14.81.76-3.18,2.42-4.6,5.72-4.45,3.78.17,7.57,0,11.35.07A16,16,0,0,1,72.22,39.89C73.14,47.41,68,56,61,57.58c-4.46,1-9.16,1-13.89,1.39.71-9.17,1.16-9.67,8.93-10.54,3.24-.36,5.32-2.09,5.82-5.33a6.14,6.14,0,0,0-3.7-7c-5.21-2.5-9.11-.74-10.66,4.8-1.94,7-3.93,13.91-5.79,20.89C39.52,70,39,70.39,29.61,69.27Z"></path><path d="M165.81,57c.18-5.4,2.73-7.14,7.14-6.72a7.19,7.19,0,0,0,3.14-.08A13.56,13.56,0,0,0,179,48.07,15,15,0,0,0,176.19,46a7.49,7.49,0,0,0-2.69-.09c-9,0-11.73,2.42-11.92,11.35,0,1,2,2.94,3.16,3,5.27.34,10.58.14,15.87.18,1.61,0,3.22.15,4.84.23-.53,7.86-1.72,9-8.83,9-5.45,0-10.89.06-16.34,0-7-.1-10.79-4.77-9.29-11.65.93-4.26,2.1-8.48,3.43-12.63a11.8,11.8,0,0,1,11.4-8.73c5-.17,10-.16,15,0,5.66.18,8.9,3.69,8.83,9.24-.09,7.17-3.17,11-9.13,11.07C175.67,57.05,170.85,57,165.81,57Z"></path><path d="M94.91,50.24c-.4,5.26-2.87,7-7,6.74a17.29,17.29,0,0,0-4.07.1c-.69.14-1.25,1-1.86,1.54.48.52,1,1.47,1.46,1.49,3.92.11,7.85.15,11.77-.08.69,0,1.64-1.36,1.9-2.26,1.07-3.59,1.92-7.24,3-11.46a41.19,41.19,0,0,0-5.38-.89c-4.69-.13-9.38-.09-14.07-.09-3,0-4.38-1.38-4.29-4.47.09-2.91,1-4.4,4.31-4.3,6.81.19,13.62,0,20.42.08s10.59,5.29,8.79,12q-2,7.43-4,14.84c-1.13,4.23-4,6.24-8.28,6.26-5.44,0-10.89.12-16.33-.06-6-.19-10.18-4.18-10.17-9.38,0-5.91,4.17-9.94,10.44-10C85.88,50.2,90.23,50.24,94.91,50.24Z"></path><path d="M126.76,36.79c2.57,0,5.19-.35,7.69.06,9.54,1.57,14.93,9.72,13.12,19.79a50.28,50.28,0,0,1-2.76,10,5.61,5.61,0,0,1-3.8,2.94c-6.54.85-7.15,0-5.4-6.49.79-2.91,1.69-5.8,2.29-8.74a6.22,6.22,0,0,0-5-7.37c-6.48-1.34-8-.36-9.77,6-1.14,4.21-2.28,8.42-3.51,12.61-1,3.48-6.54,5.79-9.36,3.79a3.64,3.64,0,0,1-.93-3.17q3.47-13.8,7.33-27.49a4,4,0,0,1,2.88-2,58.38,58.38,0,0,1,7.25-.09Z"></path></svg>