<svg xmlns="http://www.w3.org/2000/svg" id="Layer_1" data-name="Layer 1" viewBox="0 0 159.67 37.43"><title>Cpanel</title><path d="M7.61,23.92a14.49,14.49,0,0,0,.8-2c1.15-5,4.42-8.24,9.37-9.11a16.79,16.79,0,0,1,2.84-.14c2.31,0,4.61,0,7,0-.89,6.64-1.17,7-7.41,7.13-2.88.08-4.68,1.27-5.05,4.15-.32,2.49,1.43,4.38,4.34,4.92,1.22.22,2.45.37,3.88.58-.16.77-.23,1.26-.37,1.74-1.46,5.12-2.73,5.79-7.73,3.85a11,11,0,0,1-6.77-7.49c-.23-.78-.57-1.54-.86-2.32Z"></path><path d="M151,6.06c-1.53,5.13-3.07,10.25-4.58,15.38-.65,2.23-1.27,4.47-1.83,6.71-1.14,4.57-4.29,6.74-9.1,7.7,1.57-6,3-11.69,4.53-17.38.78-3,1.53-5.93,2.32-8.88,1.28-4.8,1.5-5,6.53-4.61a13.24,13.24,0,0,1,2.13.45Z"></path><path d="M24.65,35.53c1.49-5.73,3-11.42,4.46-17.1C30,15,31.1,11.53,31.94,8c.53-2.23,1.7-3.22,4-3.11,2.65.11,5.31,0,8,0a11.19,11.19,0,0,1,10.63,10c.65,5.27-2.95,11.3-7.86,12.4-3.13.71-6.42.67-9.74,1,.5-6.44.81-6.78,6.26-7.39a4.21,4.21,0,0,0,4.09-3.74,4.31,4.31,0,0,0-2.6-4.94c-3.66-1.75-6.39-.52-7.48,3.37-1.36,4.88-2.75,9.75-4.06,14.65C31.6,36.07,31.27,36.32,24.65,35.53Z"></path><path d="M120.19,26.92c.13-3.79,1.92-5,5-4.71a5.11,5.11,0,0,0,2.21-.06,9.55,9.55,0,0,0,2-1.49,10.79,10.79,0,0,0-2-1.45,5.14,5.14,0,0,0-1.89-.07c-6.31,0-8.23,1.7-8.36,8,0,.72,1.4,2.06,2.22,2.11,3.69.23,7.42.09,11.13.12,1.13,0,2.26.1,3.4.16-.37,5.52-1.21,6.33-6.2,6.33-3.82,0-7.64,0-11.46,0-4.91-.07-7.57-3.35-6.51-8.17.65-3,1.47-5.95,2.4-8.86a8.28,8.28,0,0,1,8-6.12c3.49-.12,7-.12,10.5,0,4,.12,6.24,2.59,6.19,6.48-.06,5-2.22,7.7-6.4,7.77C127.11,27,123.72,26.92,120.19,26.92Z"></path><path d="M70.46,22.19c-.28,3.68-2,4.88-4.92,4.73a10.93,10.93,0,0,0-2.86.07c-.49.09-.87.7-1.31,1.08.34.36.68,1,1,1,2.75.07,5.51.11,8.25-.06.49,0,1.15-.95,1.34-1.58.75-2.52,1.34-5.08,2.1-8a27.82,27.82,0,0,0-3.77-.62c-3.29-.1-6.58-.07-9.87-.07-2.11,0-3.07-1-3-3.13s.73-3.09,3-3c4.77.13,9.55,0,14.32.06S82.22,16.36,81,21C80,24.51,79.09,28,78.16,31.45a5.47,5.47,0,0,1-5.81,4.39c-3.82,0-7.64.09-11.46,0-4.21-.13-7.14-2.93-7.13-6.58,0-4.15,2.93-7,7.32-7C64.13,22.16,67.18,22.19,70.46,22.19Z"></path><path d="M92.8,12.75a33.53,33.53,0,0,1,5.4.05c6.68,1.09,10.46,6.81,9.2,13.88a35.77,35.77,0,0,1-1.94,7,3.89,3.89,0,0,1-2.66,2.06c-4.59.6-5,0-3.79-4.55.55-2,1.18-4.06,1.6-6.13a4.36,4.36,0,0,0-3.52-5.17c-4.55-.94-5.64-.25-6.86,4.24-.8,2.95-1.6,5.91-2.46,8.84-.72,2.44-4.59,4.07-6.57,2.66a2.61,2.61,0,0,1-.65-2.22c1.63-6.45,3.32-12.89,5.14-19.29a2.81,2.81,0,0,1,2-1.41,39.08,39.08,0,0,1,5.08-.07Z"></path></svg>