<svg xmlns="http://www.w3.org/2000/svg" viewBox="0 0 1024 1024"><defs><style>.cls-1{isolation:isolate;}.cls-11,.cls-12,.cls-2{fill:#fff;}.cls-3,.cls-9{fill:none;}.cls-11,.cls-12,.cls-3{stroke:#d8dcdf;}.cls-3{stroke-linecap:round;stroke-linejoin:round;stroke-width:2px;}.cls-4{fill:#d8dcdf;}.cls-5{fill:#101229;}.cls-13,.cls-6{mix-blend-mode:multiply;}.cls-13,.cls-7{fill:#e6e6e5;}.cls-8{fill:#1d4483;}.cls-9{stroke:#fff;stroke-width:0.97px;}.cls-11,.cls-12,.cls-9{stroke-miterlimit:10;}.cls-10{fill:#3464af;}.cls-11{stroke-width:2.88px;}.cls-12{stroke-width:2px;}.cls-14{fill:#6c94cd;}.cls-15{fill:#3a66af;}.cls-16{fill:#e8ebf4;}.cls-17{fill:#3b67b0;}.cls-18{fill:#f8f9fc;}.cls-19{fill:#f6f7fb;}</style></defs><title>Domain Checker_Image 1</title><g class="cls-1"><g id="Layer_1" data-name="Layer 1"><rect class="cls-2" width="1024" height="1024"></rect><line class="cls-3" x1="-8.98" y1="816.61" x2="1041.22" y2="816.61"></line><path class="cls-4" d="M807.9,527.16H789.44a6.29,6.29,0,0,1-5.87-3.95c-.25-.61-.5-1.22-.76-1.83a6.3,6.3,0,0,1,1.38-6.91l13.59-13.59a6.36,6.36,0,0,0,0-9l-26-26a6.36,6.36,0,0,0-9,0L749.4,479.24a6.44,6.44,0,0,1-7.14,1.27l-1.13-.47a6.43,6.43,0,0,1-4.1-5.92V454.45a6.36,6.36,0,0,0-6.36-6.36h-36.8a6.35,6.35,0,0,0-6.35,6.36v19.66a6.48,6.48,0,0,1-4.11,5.94l-.62.25a6.45,6.45,0,0,1-7.11-1.29l-14.44-14.44a6.34,6.34,0,0,0-9,0l-26,26a6.34,6.34,0,0,0,0,9l14.36,14.36a6.47,6.47,0,0,1,1.29,7.14l-.08.17a6.45,6.45,0,0,1-5.92,4.06H614.8a6.36,6.36,0,0,0-6.36,6.36v36.8a6.36,6.36,0,0,0,6.36,6.36h20.45a6.47,6.47,0,0,1,6,4.16l0,.08a6.45,6.45,0,0,1-1.33,7l-15,15a6.36,6.36,0,0,0,0,9l26,26a6.36,6.36,0,0,0,9,0l14.18-14.18a6.49,6.49,0,0,1,7.22-1.25l.35.16a6.44,6.44,0,0,1,4,5.89v20.8A6.36,6.36,0,0,0,692,653.9h36.8a6.35,6.35,0,0,0,6.35-6.36V628.28a6.33,6.33,0,0,1,4-5.9c.43-.16.86-.33,1.28-.51a6.32,6.32,0,0,1,6.84,1.4l14.15,14.15a6.34,6.34,0,0,0,9,0l26-26a6.34,6.34,0,0,0,0-9l-13.18-13.18a6.29,6.29,0,0,1-1.33-7c.25-.56.49-1.13.73-1.7a6.31,6.31,0,0,1,5.83-3.85H807.9a6.35,6.35,0,0,0,6.36-6.35v-36.8A6.36,6.36,0,0,0,807.9,527.16Zm-96.55,60.6A36.77,36.77,0,1,1,748.11,551,36.77,36.77,0,0,1,711.35,587.76Z"></path><rect class="cls-5" x="173.76" y="389.29" width="539.68" height="377.86" rx="12.39"></rect><g class="cls-6"><path class="cls-7" d="M174,746.45a23.52,23.52,0,0,0,23.35,20.7H689.9a23.53,23.53,0,0,0,23.35-20.7Z"></path></g><rect class="cls-8" x="192.99" y="408.51" width="501.22" height="331.5" rx="12.39"></rect><circle class="cls-2" cx="232.6" cy="437.43" r="8.32"></circle><circle class="cls-2" cx="260.33" cy="437.43" r="8.32"></circle><circle class="cls-2" cx="288.06" cy="437.43" r="8.32"></circle><line class="cls-9" x1="208.1" y1="455.91" x2="673.16" y2="455.91"></line><path class="cls-4" d="M736.59,808.36h-586a32.33,32.33,0,0,1-30.31-21.1l-10.67-28.81h668l-10.67,28.81A32.33,32.33,0,0,1,736.59,808.36Z"></path><g class="cls-6"><path class="cls-7" d="M119.51,785.16l.78,2.1a32.33,32.33,0,0,0,30.31,21.1h586a32.33,32.33,0,0,0,30.32-21.1l.77-2.1Z"></path></g><rect class="cls-4" x="54.38" y="279.37" width="14.27" height="279.52" transform="translate(30.12 -3.33) rotate(4.1)"></rect><rect class="cls-4" x="222.61" y="101.71" width="59.63" height="8.67"></rect><polygon class="cls-4" points="80.59 279.46 240.54 90.58 230.09 82.62 63.41 279.46 80.59 279.46"></polygon><rect class="cls-5" x="37.46" y="551" width="29.95" height="38.88"></rect><g class="cls-6"><rect class="cls-7" x="37.46" y="569.91" width="29.95" height="19.97"></rect></g><rect class="cls-5" x="23.27" y="580.68" width="130.3" height="36.78" rx="6.46"></rect><g class="cls-6"><path class="cls-7" d="M23.27,601.44v4.07a12,12,0,0,0,12,12h106.4a12,12,0,0,0,11.95-12v-4.07Z"></path></g><path class="cls-10" d="M260.56,78.07h40.23a9.31,9.31,0,0,1,9.31,9.31v53.74a0,0,0,0,1,0,0H251.25a0,0,0,0,1,0,0V87.38A9.31,9.31,0,0,1,260.56,78.07Z"></path><g class="cls-6"><rect class="cls-7" x="251.25" y="115.89" width="58.85" height="25.22"></rect></g><path class="cls-10" d="M240.25,123.25h85.56A23.16,23.16,0,0,1,349,146.41v68.26a0,0,0,0,1,0,0H217.1a0,0,0,0,1,0,0V146.41a23.16,23.16,0,0,1,23.16-23.16Z"></path><g class="cls-6"><rect class="cls-7" x="217.1" y="193.65" width="131.88" height="21.02"></rect></g><rect class="cls-5" x="207.38" y="200.48" width="151.32" height="21.54"></rect><circle class="cls-5" cx="73.31" cy="276.1" r="18.47"></circle><path class="cls-10" d="M233.2,842.14c6.32,1.92,9.21,5.91,9.21,15.39v22c0,6.47,3.3,10.18,10,10.18h2.47v16.77h-8c-17.19,0-26-8.8-26-24.61V857c0-4.4-2.34-6.46-6.05-6.46h-4.54V833.75h4.54c3.71,0,6.05-2.07,6.05-6.47V802.4c0-15.81,8.8-24.61,26-24.61h8v16.77h-2.47c-6.74,0-10,3.71-10,10.18v22C242.41,836.22,239.52,840.21,233.2,842.14Z"></path><path class="cls-10" d="M253.41,867.43c0-8,5.91-13.19,13.34-13.19s13.34,5.22,13.34,13.19a13.34,13.34,0,1,1-26.68,0Zm36.71,0c0-8,5.92-13.19,13.34-13.19s13.34,5.22,13.34,13.19a13.34,13.34,0,1,1-26.68,0Zm36.85,0c0-8,5.92-13.19,13.34-13.19s13.34,5.22,13.34,13.19a13.34,13.34,0,1,1-26.68,0Z"></path><path class="cls-10" d="M396.83,833.75v16.77h-4.54c-3.71,0-6.05,2.06-6.05,6.46v24.89c0,15.81-8.8,24.61-26,24.61h-8V889.71h2.47c6.74,0,10-3.71,10-10.18v-22c0-9.48,2.89-13.47,9.21-15.39-6.32-1.93-9.21-5.92-9.21-15.4v-22c0-6.47-3.3-10.18-10-10.18h-2.47V777.79h8c17.19,0,26,8.8,26,24.61v24.88c0,4.4,2.34,6.47,6.05,6.47Z"></path><rect class="cls-11" x="603.22" y="683.67" width="152.43" height="214.96"></rect><rect class="cls-10" x="622.48" y="711.28" width="113.53" height="5.56"></rect><rect class="cls-10" x="622.48" y="721.7" width="75.42" height="5.56"></rect><rect class="cls-10" x="622.48" y="732.22" width="98.65" height="5.56"></rect><rect class="cls-10" x="622.48" y="742.54" width="91.7" height="5.56"></rect><rect class="cls-10" x="622.48" y="832.45" width="91.7" height="5.56"></rect><rect class="cls-10" x="622.48" y="843.22" width="66.62" height="5.56"></rect><rect class="cls-10" x="622.48" y="854.3" width="75.64" height="5.56"></rect><rect class="cls-12" x="355.56" y="194.39" width="326.18" height="53.82" rx="7.95"></rect><path class="cls-10" d="M666.65,194.39h-81a16.49,16.49,0,0,0-16.49,16.49v20.84a16.48,16.48,0,0,0,16.49,16.48h81a15.09,15.09,0,0,0,15.09-15.09V209.48A15.1,15.1,0,0,0,666.65,194.39Z"></path><rect class="cls-12" x="355.56" y="261.5" width="326.18" height="53.82" rx="7.95"></rect><path class="cls-5" d="M666.65,261.5h-81A16.49,16.49,0,0,0,569.19,278v20.84a16.49,16.49,0,0,0,16.49,16.49h81a15.1,15.1,0,0,0,15.09-15.1V276.6A15.1,15.1,0,0,0,666.65,261.5Z"></path><circle class="cls-11" cx="729.16" cy="345.41" r="127.81" transform="translate(-30.68 616.76) rotate(-45)"></circle><path class="cls-10" d="M654.86,347.85l23.31-32.41h23.15l-22.65,32.41,22.65,32.24H678.17Z"></path><path class="cls-10" d="M746.29,265.17h23L714.71,420.93h-23Z"></path><path class="cls-10" d="M757.2,380.09l22.66-32.24L757.2,315.44h23.15l23.32,32.41-23.32,32.24Z"></path><path class="cls-10" d="M960,454.15H857.44a33.24,33.24,0,0,0-33.24,33.24v13.3a33.25,33.25,0,0,0,33.24,33.24H902.8l23.66,42.42,26-42.42H960a33.25,33.25,0,0,0,33.24-33.24v-13.3A33.24,33.24,0,0,0,960,454.15Z"></path><path class="cls-2" d="M860.34,494.46c0-8,5.91-13.2,13.34-13.2S887,486.49,887,494.46a13.34,13.34,0,1,1-26.67,0Z"></path><path class="cls-2" d="M896.37,494.46c0-8,5.91-13.2,13.33-13.2S923,486.49,923,494.46a13.34,13.34,0,1,1-26.67,0Z"></path><path class="cls-2" d="M932.39,494.46c0-8,5.92-13.2,13.34-13.2s13.34,5.23,13.34,13.2a13.34,13.34,0,1,1-26.68,0Z"></path><rect class="cls-4" x="856.04" y="605.33" width="105.39" height="34.51"></rect><rect class="cls-13" x="856.04" y="616.56" width="105.39" height="23.27"></rect><polygon class="cls-10" points="948.05 808.36 866.2 808.36 851.76 640.65 965.7 640.65 948.05 808.36"></polygon><g class="cls-6"><polygon class="cls-7" points="965.7 640.65 851.76 640.65 855.48 667.53 961.15 667.53 965.7 640.65"></polygon></g><rect class="cls-5" x="835.31" y="620.99" width="146.85" height="34.5"></rect><circle class="cls-2" cx="908.73" cy="726.56" r="32.13" transform="translate(-237.01 928.94) rotate(-48.66)"></circle><rect class="cls-11" x="51.57" y="553.24" width="188.14" height="139.33" rx="21.45"></rect><polygon class="cls-10" points="190.98 624.39 114.96 584.43 114.96 665.33 190.98 624.39"></polygon><rect class="cls-14" x="349.22" y="483.07" width="219.61" height="7.36"></rect><rect class="cls-14" x="576.71" y="483.07" width="43.28" height="7.36"></rect><rect class="cls-2" x="625.05" y="483.07" width="43.28" height="7.36"></rect><rect class="cls-14" x="576.71" y="511.09" width="43.28" height="7.36"></rect><rect class="cls-14" x="480.3" y="525.45" width="139.69" height="7.36"></rect><rect class="cls-2" x="625.05" y="511.09" width="43.28" height="7.36"></rect><rect class="cls-2" x="400.38" y="497.08" width="219.61" height="7.36"></rect><rect class="cls-14" x="624.7" y="497.08" width="43.28" height="7.36"></rect><rect class="cls-14" x="624.7" y="525.45" width="43.28" height="7.36"></rect><path class="cls-15" d="M374.38,726.56c-12.54-1.06-26.85-5-39.41-13.87-17.69-12.48-33.85-26.73-47.66-43.46-10.92-13.23-18.66-27.92-17.39-45.72a73.45,73.45,0,0,1,12.42-36.68c13.43-19.65,29.13-37.32,47.87-52.1,8.85-7,18.7-12.09,29.91-14.15,17.46-3.21,33.47,1.87,47.74,10.9A208.33,208.33,0,0,1,463.51,583a63.31,63.31,0,0,1,12.32,28.24c2.6,16.4-1.82,31.56-10.2,45.11a203.83,203.83,0,0,1-53.78,58.1C400.44,722.7,388.6,726.4,374.38,726.56ZM373,561c-35.19,0-64.4,28.59-64.3,63.48,0,17.43,6.26,32.54,18.32,45.35,11.67,12.37,26.88,20.27,42.64,20.09,38.94-.46,66.74-26.55,67.5-64.75C437.85,589.83,408.4,561.08,373,561Z"></path><path class="cls-16" d="M373,561c35.42.06,64.87,28.81,64.16,64.17-.76,38.2-28.56,64.29-67.5,64.75-15.76.18-31-7.72-42.64-20.09-12.06-12.81-18.28-27.92-18.32-45.35C308.58,589.61,337.79,561,373,561Zm-8.22,3.75c-35.27,6.1-57.41,36.2-52,70.69,5.29,33.67,38.47,56,73.18,49.32,32.26-6.23,54.34-40.63,46.31-73C425.75,585.46,408.6,570,382,564.85l-3.4-.16a54.38,54.38,0,0,0-12.75,0A1.47,1.47,0,0,0,364.76,564.77Z"></path><path class="cls-17" d="M382,564.85c26.58,5.1,43.73,20.61,50.25,46.91,8,32.39-14,66.79-46.31,73-34.71,6.7-67.89-15.65-73.18-49.32-5.43-34.49,16.71-64.59,52-70.69.39.6.76.56,1.11,0a54.38,54.38,0,0,1,12.75,0C379.69,566.07,380.83,566.07,382,564.85Zm-22,105c-.57,1.81-1.06,3.65-1.72,5.43-.55,1.49-.55,2.86,1.26,3,4.37.37,8,3.07,12.54,3.25,5.57.24,10.16-2.82,15.39-3.37,3.37-.36,3.93-1.69,2.67-4.93-4-10.31-7.63-20.76-11.41-31.16,1.58-3.14.75-5.44-2.43-6.91a.6.6,0,0,1-.19-.73c3.08-4.21,1.61-7.24-4.75-9.77l.2-3.34c1.2-.16,2.49-.49,2.21-2a4.49,4.49,0,0,0-4.41-3.81c-.42-.85-.89-1.69-1.27-2.56-2.65-6.1-2.74-14.11-11.61-15.62-.19,0-.23-.87-.37-1.43,8.53-.86,16.8-2.22,25.12-.15,2.47.62,7.19-1,7.18.48,0,4-5,1.69-7.48,3.86q9.56,28.33,19.2,56.9c2.84-6.18,4.2-12.2,6.38-17.9,4.85-12.68,4.6-24.39-3.34-36.11-6-8.91-3.73-14.62,5.93-19.11-24.82-23.23-66.85-15.26-80.85,10.69l19.05,1.4c-1.09,1-1.69,2.07-2.39,2.13-6.74.57-4.32,4.56-3.13,8.12L359.05,658C360,661.87,355,666.23,360,669.81ZM348.85,674l-26.06-71.21C310.82,630.38,323.24,664.05,348.85,674ZM422,600.39c-1.76,25.18-14.59,46.73-20.5,70.11C417.55,666,438.48,631.6,422,600.39Z"></path><path class="cls-15" d="M382,564.85c-1.19,1.22-2.33,1.22-3.4-.16Z"></path><path class="cls-15" d="M365.87,564.73c-.35.6-.72.64-1.11,0A1.47,1.47,0,0,1,365.87,564.73Z"></path><path class="cls-18" d="M371.55,621.3c-.07,1.11-.13,2.23-.2,3.34-1.05,2.83-2,5.67-3.15,8.47-3.24,8.22-4.64,17.12-9.15,24.87l-17.28-51.79c-1.19-3.56-3.61-7.55,3.13-8.12.7-.06,1.3-1.12,2.39-2.13l-19.05-1.4c14-25.95,56-33.92,80.85-10.69-9.66,4.49-12,10.2-5.93,19.11,7.94,11.72,8.19,23.43,3.34,36.11-2.18,5.7-3.54,11.72-6.38,17.9q-9.62-28.51-19.2-56.9c2.43-2.17,7.44.17,7.48-3.86,0-1.51-4.71.14-7.18-.48-8.32-2.07-16.59-.71-25.12.15.14.56.18,1.4.37,1.43,8.87,1.51,9,9.52,11.61,15.62.38.87.85,1.71,1.27,2.56A11.57,11.57,0,0,0,371.55,621.3Z"></path><path class="cls-19" d="M376.1,634.41a.6.6,0,0,0,.19.73l2.43,6.91c3.78,10.4,7.42,20.85,11.41,31.16,1.26,3.24.7,4.57-2.67,4.93-5.23.55-9.82,3.61-15.39,3.37-4.54-.18-8.17-2.88-12.54-3.25-1.81-.16-1.81-1.53-1.26-3,.66-1.78,1.15-3.62,1.72-5.43,4.52-12.89,9.05-25.77,13.78-39.25Z"></path><path class="cls-19" d="M348.85,674c-25.61-10-38-43.64-26.06-71.21Z"></path><path class="cls-19" d="M422,600.39c16.47,31.21-4.46,65.6-20.5,70.11C407.42,647.12,420.25,625.57,422,600.39Z"></path><path class="cls-15" d="M376.1,634.41l-2.33-3.85C369,644,364.51,656.92,360,669.81c-5-3.58,0-7.94-.94-11.83,4.51-7.75,5.91-16.65,9.15-24.87,1.11-2.8,2.1-5.64,3.15-8.47C377.71,627.17,379.18,630.2,376.1,634.41Z"></path><path class="cls-15" d="M371.55,621.3a11.57,11.57,0,0,1-2.2-5.81,4.49,4.49,0,0,1,4.41,3.81C374,620.81,372.75,621.14,371.55,621.3Z"></path><path class="cls-15" d="M378.72,642.05l-2.43-6.91C379.47,636.61,380.3,638.91,378.72,642.05Z"></path><path class="cls-15" d="M535.64,713.31a42.89,42.89,0,0,1-21.08-7.41,129.39,129.39,0,0,1-25.48-23.25c-5.84-7.07-10-14.93-9.3-24.45a39.25,39.25,0,0,1,6.64-19.61A124.44,124.44,0,0,1,512,610.73a36.32,36.32,0,0,1,16-7.57c9.34-1.72,17.9,1,25.53,5.83a111.2,111.2,0,0,1,29.76,27.54,33.83,33.83,0,0,1,6.59,15.1c1.39,8.77-1,16.87-5.46,24.12a108.84,108.84,0,0,1-28.76,31.07A33,33,0,0,1,535.64,713.31Zm-.75-88.52c-18.82,0-34.44,15.29-34.39,33.94A34.44,34.44,0,0,0,510.3,683c6.24,6.62,14.38,10.84,22.8,10.75,20.83-.25,35.69-14.2,36.1-34.63C569.58,640.19,553.83,624.82,534.89,624.79Z"></path><path class="cls-16" d="M534.89,624.79c18.94,0,34.69,15.4,34.31,34.31-.41,20.43-15.27,34.38-36.1,34.63-8.42.09-16.56-4.13-22.8-10.75a34.44,34.44,0,0,1-9.8-24.25C500.45,640.08,516.07,624.76,534.89,624.79Zm-4.4,2c-18.86,3.26-30.7,19.36-27.79,37.81,2.83,18,20.57,29.95,39.13,26.37,17.25-3.34,29.06-21.73,24.76-39.05-3.48-14.06-12.65-22.36-26.86-25.09l-1.82-.08a28.81,28.81,0,0,0-6.82,0A.83.83,0,0,0,530.49,626.79Z"></path><path class="cls-17" d="M539.73,626.83c14.21,2.73,23.38,11,26.86,25.09,4.3,17.32-7.51,35.71-24.76,39.05-18.56,3.58-36.3-8.37-39.13-26.37-2.91-18.45,8.93-34.55,27.79-37.81.21.32.41.3.6,0a28.81,28.81,0,0,1,6.82,0A1.05,1.05,0,0,0,539.73,626.83ZM527.94,683c-.3,1-.56,1.95-.92,2.9-.29.8-.29,1.54.68,1.62,2.33.2,4.27,1.64,6.7,1.74,3,.13,5.43-1.51,8.23-1.8,1.81-.2,2.1-.91,1.43-2.64-2.14-5.51-4.08-11.1-6.1-16.66.85-1.68.4-2.91-1.3-3.7a.32.32,0,0,1-.11-.39c1.66-2.25.87-3.87-2.53-5.22l.1-1.79c.65-.08,1.34-.26,1.19-1.07a2.41,2.41,0,0,0-2.36-2c-.23-.45-.48-.9-.68-1.36-1.42-3.27-1.47-7.55-6.21-8.36-.1,0-.12-.46-.2-.76,4.56-.46,9-1.19,13.44-.08,1.31.33,3.84-.55,3.83.25,0,2.16-2.69.91-4,2.07L549.4,676.1c1.52-3.31,2.25-6.53,3.42-9.58,2.59-6.78,2.45-13-1.79-19.3-3.23-4.77-2-7.82,3.17-10.23-13.28-12.42-35.75-8.16-43.24,5.72l10.19.75c-.58.54-.91,1.11-1.28,1.14-3.6.31-2.3,2.44-1.67,4.34l9.24,27.7C527.93,678.72,525.28,681.05,527.94,683Zm-6,2.25-13.94-38.08C501.65,661.88,508.29,679.88,522,685.21Zm39.12-39.37c-.94,13.46-7.81,25-11,37.49C558.72,680.92,569.92,662.53,561.11,645.84Z"></path><path class="cls-15" d="M539.73,626.83a1.05,1.05,0,0,1-1.82-.08Z"></path><path class="cls-15" d="M531.09,626.77c-.19.32-.39.34-.6,0A.83.83,0,0,1,531.09,626.77Z"></path><path class="cls-18" d="M534.12,657c0,.6-.07,1.19-.1,1.79-.56,1.51-1.09,3-1.69,4.53-1.73,4.39-2.48,9.15-4.89,13.3l-9.24-27.7c-.63-1.9-1.93-4,1.67-4.34.37,0,.7-.6,1.28-1.14L511,642.71c7.49-13.88,30-18.14,43.24-5.72-5.17,2.41-6.4,5.46-3.17,10.23,4.24,6.26,4.38,12.52,1.79,19.3-1.17,3.05-1.9,6.27-3.42,9.58l-10.27-30.43c1.31-1.16,4,.09,4-2.07,0-.8-2.52.08-3.83-.25-4.46-1.11-8.88-.38-13.44.08.08.3.1.75.2.76,4.74.81,4.79,5.09,6.21,8.36.2.46.45.91.68,1.36A6.14,6.14,0,0,0,534.12,657Z"></path><path class="cls-19" d="M536.55,664a.32.32,0,0,0,.11.39l1.3,3.7c2,5.56,4,11.15,6.1,16.66.67,1.73.38,2.44-1.43,2.64-2.8.29-5.25,1.93-8.23,1.8-2.43-.1-4.37-1.54-6.7-1.74-1-.08-1-.82-.68-1.62.36-1,.62-1.93.92-2.9l7.37-21Z"></path><path class="cls-19" d="M522,685.21c-13.7-5.33-20.34-23.33-13.94-38.08Z"></path><path class="cls-19" d="M561.11,645.84c8.81,16.69-2.39,35.08-11,37.49C553.3,670.83,560.17,659.3,561.11,645.84Z"></path><path class="cls-15" d="M536.55,664l-1.24-2-7.37,21c-2.66-1.91,0-4.24-.5-6.32,2.41-4.15,3.16-8.91,4.89-13.3.6-1.5,1.13-3,1.69-4.53C537.42,660.16,538.21,661.78,536.55,664Z"></path><path class="cls-15" d="M534.12,657a6.14,6.14,0,0,1-1.17-3.11,2.41,2.41,0,0,1,2.36,2C535.46,656.76,534.77,656.94,534.12,657Z"></path><path class="cls-15" d="M538,668.12l-1.3-3.7C538.36,665.21,538.81,666.44,538,668.12Z"></path></g></g></svg>