<svg xmlns="http://www.w3.org/2000/svg" id="Layer_1" data-name="Layer 1" viewBox="0 0 484.97 382.44"><defs><style>.cls-1,.cls-2{fill:#3a66af;}.cls-1,.cls-3,.cls-4{stroke:#3a66af;stroke-miterlimit:10;}.cls-1,.cls-4{stroke-width:3px;}.cls-3,.cls-4{fill:none;}.cls-3{stroke-width:6px;}</style></defs><title>Domain Checker_Custom_05</title><path class="cls-1" d="M249.54,68.55H252l2.72,0h2.41l87.24.25c2.72,2,.4,3.5-.54,5.14q-116.64,0-233.29,0c-8.54,0-9.69,1.13-9.72,9.53,0,9.83.51,19.69-.16,29.47-.46,6.65,1.74,7.94,8,7.92,68.58-.21,137.15-.11,205.73-.09a1.68,1.68,0,0,0,2.43,0l25.39-.07c1.65.87,4.17,1.7,3,4s-3.87,1.06-5.88,1.06q-114.36.07-228.72.06c-2.75,0-5.5.29-8.25.44-3,1.75-1.45,4.64-1.46,6.91q-.15,85.26-.08,170.52c0,10.19,1,11.24,11.46,11.24H382.77c1.49,0,3,.07,4.49,0,3.3-.17,5.72-1.51,6.35-5.07,1.41-10.61.55-21.27.61-31.9.16-28.41,0-56.82.06-85.23,0-3-1.24-8.26,5-4.24q0,58.56,0,117.1c0,9.29-2.35,12.34-11.2,15-1.48-.11-3-.31-4.45-.31q-139,0-277.93,0a10.32,10.32,0,0,1-10-10.05c-.21-10.66-.23-21.33-.33-32,.07-15.55.23-31.11.21-46.67q0-76.11-.2-152.22l.15-2.57c-.22-2.22,1.5-3.3,2.74-4.66,1.72-2.81,4.62-3,7.46-3.44l1.44-.07h12.68a13.48,13.48,0,0,0,6.56,0h10.12c5.95.12,11.9.35,17.85.33q44.4-.1,88.8-.33l5,0Z"></path><path class="cls-1" d="M344.6,67.92a5.91,5.91,0,0,1-.28.84l-87.24-.25a7.53,7.53,0,0,1,2.35-.83Q302,67.76,344.6,67.92Z"></path><path class="cls-1" d="M254.67,68.52l-2.72,0C252.85,67.45,253.75,67.45,254.67,68.52Z"></path><path class="cls-1" d="M249.54,68.55l-1.45,0C248.59,67.63,249.07,67.68,249.54,68.55Z"></path><path class="cls-1" d="M314.32,120.73a2,2,0,0,1,2.44,0A1.69,1.69,0,0,1,314.32,120.73Z"></path><path class="cls-1" d="M244.59,255.09h-109c-1.71,0-3.42,0-5.13-.06a2.5,2.5,0,0,1-2.56-2.36c-.12-1.75,1.06-2.68,2.78-2.77,1.49-.08,3-.06,4.49-.06l219.38,0H359c1.8,0,2.88,1,2.81,2.69s-1.25,2.57-3,2.51c-1.49,0-3,0-4.48,0Z"></path><path class="cls-1" d="M244.32,279.29q55.19,0,110.35,0c1.71,0,3.42,0,5.13.13a2.2,2.2,0,0,1,2,2.1,2.42,2.42,0,0,1-2,2.83,38,38,0,0,1-5.12.18H136a15.36,15.36,0,0,1-1.92,0c-2.33-.28-6.07,1.12-6.1-2.6s3.73-2.58,6-2.58Q189.15,279.24,244.32,279.29Z"></path><path class="cls-1" d="M203.3,161.42H135.39c-1.5,0-3-.05-4.49,0-1.75,0-3-.81-3.11-2.49s1.2-2.58,2.86-2.68c1.28-.09,2.56-.06,3.84-.06l136.47,0a3.39,3.39,0,0,1,.64,0c2.27.43,6-1.34,6.17,2.46s-3.65,2.68-5.91,2.69c-14.1.11-28.2,0-42.29,0Z"></path><path class="cls-1" d="M215.91,91a10.64,10.64,0,0,1,10.41,10.75,10.39,10.39,0,0,1-10.56,10.5A10.63,10.63,0,0,1,215.91,91Z"></path><path class="cls-1" d="M185.22,101.59c-.05,5.77-4.95,10.75-10.48,10.65a10.61,10.61,0,1,1,10.48-10.65Z"></path><path class="cls-1" d="M144,102.74c-.49,5.48-6.06,10-11.61,9.49s-10.13-6.12-9.52-11.61c.63-5.64,6.15-10.17,11.6-9.52A11.18,11.18,0,0,1,144,102.74Z"></path><path class="cls-2" d="M153.09,205.18a6.05,6.05,0,0,1-4.36,1.7c-4.25,0-6.06-2.93-6.07-5.91a5.77,5.77,0,0,1,6.07-6,5.92,5.92,0,0,1,4.21,1.75l-1.44,1.39a4,4,0,0,0-2.77-1.08,3.76,3.76,0,0,0-3.94,4,3.67,3.67,0,0,0,3.94,3.88,4.26,4.26,0,0,0,2.89-1.16Z"></path><path class="cls-2" d="M164.2,195.18v6.56c0,3.39-2.08,5.13-5,5.13a4.78,4.78,0,0,1-5.09-5.13v-6.56h2.15v6.56c0,2.07,1.18,3.16,3,3.16s2.8-1.19,2.8-3.16v-6.56Z"></path><path class="cls-2" d="M173.39,197.93a3.29,3.29,0,0,0-2.72-1.28c-1.61,0-2.38.67-2.38,1.52,0,1,1.18,1.28,2.56,1.44,2.39.3,4.62.92,4.62,3.65,0,2.56-2.26,3.66-4.82,3.66-2.34,0-4.14-.72-5-2.82l1.8-.93a3.26,3.26,0,0,0,3.22,1.81c1.36,0,2.64-.47,2.64-1.72,0-1.08-1.13-1.52-2.65-1.68-2.35-.28-4.51-.9-4.51-3.47,0-2.36,2.33-3.33,4.44-3.34,1.79,0,3.64.5,4.51,2.27Z"></path><path class="cls-2" d="M180.1,197.12h-3.63v-2h9.43v2h-3.64v9.5H180.1Z"></path><path class="cls-2" d="M198.48,201c0,3-1.85,5.92-5.88,5.92a5.58,5.58,0,0,1-5.9-5.91,5.89,5.89,0,1,1,11.78,0Zm-9.65,0c0,1.88,1.07,3.89,3.77,3.89s3.72-2,3.75-3.91-1-4.09-3.75-4.09A3.73,3.73,0,0,0,188.83,201Z"></path><path class="cls-2" d="M210.06,198.32l-3.73,5h-.43l-3.65-5v8.34h-2.16V195.18h2.49l3.58,4.92,3.59-4.92h2.47v11.46h-2.16Z"></path><path class="cls-2" d="M214.27,206.62V195.16h2.15v11.46Z"></path><path class="cls-2" d="M218.27,195.16h8.81v1l-5.94,8.41h5.94v2h-9v-1.24l5.82-8.19h-5.67Z"></path><path class="cls-2" d="M236.94,206.62h-8.58V195.16h8.58v2.09H230.5v2.64h6.21v2H230.5v2.58h6.44Z"></path><path class="cls-2" d="M248.7,200.79a5.43,5.43,0,0,1-5.73,5.83h-4.5V195.16H243A5.41,5.41,0,0,1,248.7,200.79Zm-8.09,3.75H243a3.67,3.67,0,0,0,0-7.33h-2.36Z"></path><path class="cls-2" d="M263.52,200.79a5.42,5.42,0,0,1-5.73,5.83h-4.5V195.16h4.5A5.41,5.41,0,0,1,263.52,200.79Zm-8.08,3.75h2.35a3.67,3.67,0,0,0,0-7.33h-2.35Z"></path><path class="cls-2" d="M276.38,201c0,3-1.85,5.92-5.88,5.92a5.58,5.58,0,0,1-5.89-5.91,5.89,5.89,0,1,1,11.77,0Zm-9.64,0c.05,1.88,1.06,3.89,3.76,3.89s3.72-2,3.75-3.91-1-4.09-3.75-4.09A3.72,3.72,0,0,0,266.74,201Z"></path><path class="cls-2" d="M288,198.32l-3.73,5h-.43l-3.65-5v8.34H278V195.18h2.49l3.59,4.92,3.58-4.92h2.48v11.46H288Z"></path><path class="cls-2" d="M300.3,204.46h-6l-1,2.16H291l5.14-11.46h2.36l5.14,11.46h-2.36Zm-3-6.89-2.13,4.88h4.26Z"></path><path class="cls-2" d="M304.44,206.62V195.16h2.15v11.46Z"></path><path class="cls-2" d="M316.15,195.14h2.17v11.48H317v0l-6-7.75v7.73h-2.16V195.16h1.75l5.61,7.11Z"></path><rect class="cls-3" x="124.07" y="176.15" width="237.73" height="50.69" rx="23.72"></rect><circle class="cls-4" cx="336.1" cy="197.46" r="7.79"></circle><line class="cls-4" x1="340.42" y1="203.95" x2="345.99" y2="213.64"></line><rect class="cls-1" x="340.57" y="67.68" width="58.71" height="6.18"></rect><rect class="cls-1" x="340.57" y="120.59" width="58.71" height="5.05"></rect><rect class="cls-1" x="325.29" y="136.81" width="142.93" height="5.05" transform="translate(536.1 -257.42) rotate(90)"></rect></svg>