<svg xmlns="http://www.w3.org/2000/svg" id="Layer_1" data-name="Layer 1" viewBox="0 0 484.97 382.44"><defs><style>.cls-1{fill:#3a66af;stroke-width:3px;}.cls-1,.cls-2,.cls-3,.cls-4{stroke:#3a66af;stroke-miterlimit:10;}.cls-2,.cls-3{fill:none;}.cls-2,.cls-4{stroke-width:2px;}.cls-4{fill:#fff;}</style></defs><title>Domain Transfer_02</title><path class="cls-1" d="M49.27,278.16v-3.39q0-46.54,0-93.1c0-8.82,3.46-12.38,12.36-12.39q74.78-.06,149.55,0c6.63,0,11,3.86,11,10.18q.12,48.66,0,97.32a10.5,10.5,0,0,1-.2,1.41Zm13.79-4.58H208.34v-92H63.06Z"></path><path class="cls-1" d="M135.88,283h100.6c5.05,0,5.75.72,5.76,5.85,0,8.36-3.36,11.75-11.81,11.75q-94.92,0-189.85.05c-10,0-12.34-7.18-11.1-14.9.17-1.05,2-2,3.23-2.65.78-.4,1.91-.1,2.88-.1Zm-21.39,4.68c-.39,4.47,1.65,7.47,5.37,7.52,10.57.13,21.15.15,31.73,0,4-.07,6.12-3.43,5.12-7.51Z"></path><path class="cls-1" d="M269.94,191v-3.33q0-46.89,0-93.8c0-8,3.73-11.85,11.6-11.85q75,0,150,0c7.24,0,11.37,3.84,11.38,10.77q.06,48.21,0,96.4c0,.53-.09,1.06-.15,1.81ZM429.06,94.23H283.8v92.31H429.06Z"></path><path class="cls-1" d="M356.54,195.88H457.09c5.11,0,5.81.7,5.81,5.78,0,8.09-3.55,11.7-11.6,11.7q-94.87,0-189.75.08c-9,0-12.8-5.74-11.45-14.64.17-1.09,1.84-2.1,3-2.82.64-.39,1.69-.1,2.56-.1Zm-21.34,4.78c-.39,4.31,1.62,7.22,5.5,7.29q15.71.26,31.4,0c4-.07,6.24-3.44,5.34-7.3Z"></path><path class="cls-2" d="M134.57,186.54A112.65,112.65,0,0,0,163,202.12a36.28,36.28,0,0,1,4.77,1.92,28.38,28.38,0,0,1,3,1.47c2.49,1.85,6.44,7.16,6.44,7.16l-24.43,54.2C138.41,248.66,116,257,107.45,246.72Z"></path><path class="cls-2" d="M164.5,216.31c4.81-3.91,9.81-5.75,12.39-2.9-3.13-4-7.24-9.42-9.62-9.12C167.77,207.19,166.73,214.18,164.5,216.31Z"></path><path class="cls-3" d="M132.15,209.91c12.49,3.3,22.46,12.51,32.35,14.58"></path><path class="cls-3" d="M129.66,215.44C142.15,218.74,152.11,228,162,230"></path><path class="cls-3" d="M127.17,221c12.49,3.3,22.45,12.51,32.35,14.58"></path><path class="cls-3" d="M124.67,226.5c12.5,3.3,22.46,12.51,32.36,14.58"></path><path class="cls-3" d="M122.18,232c12.5,3.3,22.46,12.51,32.36,14.58"></path><path class="cls-3" d="M119.69,237.56c12.5,3.3,22.46,12.51,32.35,14.58"></path><path class="cls-2" d="M347.54,99.09A112.71,112.71,0,0,0,376,114.68a35.68,35.68,0,0,1,4.77,1.91,29.53,29.53,0,0,1,3,1.48c2.48,1.85,6.43,7.16,6.43,7.16l-24.42,54.19c-14.38-18.2-36.77-9.9-45.35-20.15Z"></path><path class="cls-2" d="M377.48,128.86c4.81-3.9,9.81-5.75,12.38-2.9-3.13-4-7.23-9.41-9.62-9.11C380.75,119.75,379.71,126.73,377.48,128.86Z"></path><path class="cls-3" d="M345.12,122.47c12.5,3.3,22.46,12.5,32.36,14.58"></path><path class="cls-3" d="M342.63,128c12.5,3.31,22.46,12.51,32.36,14.59"></path><path class="cls-3" d="M340.14,133.52c12.49,3.31,22.46,12.51,32.35,14.59"></path><path class="cls-3" d="M337.65,139.05c12.49,3.31,22.45,12.51,32.35,14.59"></path><path class="cls-3" d="M335.16,144.58c12.49,3.31,22.45,12.51,32.35,14.58"></path><path class="cls-3" d="M332.66,150.11c12.5,3.31,22.46,12.51,32.36,14.58"></path><path class="cls-4" d="M226.84,183.13a112.87,112.87,0,0,0,31.84-6.31,34.47,34.47,0,0,1,4.89-1.59,28.36,28.36,0,0,1,3.23-.78c3.09-.18,9.52,1.36,9.52,1.36l16,57.24c-22.71-4.74-34.56,16-47.72,13.64Z"></path><path class="cls-2" d="M268.91,186.76c1.18-6.08,3.83-10.71,7.63-10.17-4.94-1-11.58-2.58-13.22-.82C265.57,177.67,269.25,183.69,268.91,186.76Z"></path><path class="cls-3" d="M240,202.61c11.71-5.49,25.25-4.82,34.18-9.58"></path><path class="cls-3" d="M241.62,208.45c11.7-5.49,25.25-4.82,34.17-9.57"></path><path class="cls-3" d="M243.25,214.29c11.71-5.48,25.25-4.82,34.18-9.57"></path><path class="cls-3" d="M244.89,220.13c11.7-5.48,25.25-4.81,34.17-9.57"></path><path class="cls-3" d="M246.53,226c11.7-5.48,25.25-4.81,34.17-9.57"></path><path class="cls-3" d="M248.16,231.81c11.71-5.48,25.25-4.81,34.18-9.57"></path></svg>