<svg xmlns="http://www.w3.org/2000/svg" id="Layer_1" data-name="Layer 1" viewBox="0 0 224.26 176.85"><defs><style>.cls-1,.cls-2{fill:#3a66af;}.cls-1,.cls-3{stroke:#3a66af;stroke-miterlimit:10;}.cls-1{stroke-width:3px;}.cls-3{fill:none;stroke-width:2px;}</style></defs><title>Domain Checker_Custom</title><path class="cls-1" d="M115,38.72h3.23l37.08.1c1.16.85.17,1.49-.23,2.19H55.92c-3.63,0-4.11.48-4.13,4.05,0,4.18.22,8.37-.07,12.52-.19,2.83.74,3.38,3.4,3.37,29.15-.09,58.3-.05,87.45,0a.71.71,0,0,0,1,0l0,0,10.79,0c.7.37,1.77.73,1.28,1.7s-1.65.45-2.5.45q-48.61,0-97.22,0c-1.17,0-2.33.12-3.5.19-1.28.74-.62,2-.62,2.93q-.07,36.24,0,72.48c0,4.33.43,4.78,4.87,4.78h115c.63,0,1.28,0,1.91,0a2.51,2.51,0,0,0,2.7-2.16c.6-4.51.23-9,.26-13.56.07-12.07,0-24.15,0-36.22,0-1.28-.52-3.51,2.13-1.8v49.77c0,3.95-1,5.24-4.76,6.37-.63,0-1.28-.13-1.89-.13H53.87a4.38,4.38,0,0,1-4.25-4.27c-.09-4.53-.1-9.07-.14-13.6,0-6.61.09-13.22.09-19.84q0-32.34-.09-64.7l.06-1.09c-.09-.94.64-1.4,1.17-2,.73-1.19,2-1.27,3.17-1.46l.61,0h5.39a5.73,5.73,0,0,0,2.79,0H67c2.53,0,5.06.15,7.59.14q18.87,0,37.74-.14h2.13Z"></path><path class="cls-1" d="M155.41,38.45a2.53,2.53,0,0,1-.12.36l-37.08-.11a3.22,3.22,0,0,1,1-.35Q137.3,38.38,155.41,38.45Z"></path><path class="cls-1" d="M117.18,38.7H116A.66.66,0,0,1,117.18,38.7Z"></path><path class="cls-1" d="M115,38.72h-.61C114.6,38.33,114.8,38.35,115,38.72Z"></path><path class="cls-1" d="M142.54,60.9a.83.83,0,0,1,1,0,.72.72,0,0,1-1,0Z"></path><path class="cls-1" d="M112.9,118H66.57c-.73,0-1.45,0-2.18,0a1.07,1.07,0,0,1-1.09-1c0-.75.45-1.14,1.18-1.18s1.28,0,1.91,0h95.14a1.06,1.06,0,0,1,1.19,1.15,1.08,1.08,0,0,1-1.27,1.06h-1.91Z"></path><path class="cls-1" d="M112.78,128.29h46.91c.72,0,1.45,0,2.18.05a1,1,0,0,1,.85.9,1,1,0,0,1-.83,1.2h0a17.58,17.58,0,0,1-2.18.08H65.93c-1-.12-2.58.47-2.59-1.11s1.58-1.09,2.55-1.09Q89.34,128.26,112.78,128.29Z"></path><path class="cls-1" d="M95.35,78.19H66.49c-.64,0-1.28,0-1.91,0s-1.28-.34-1.32-1.06S63.77,76,64.47,76s1.09,0,1.63,0h58a1.22,1.22,0,0,1,.27,0c1,.18,2.55-.57,2.62,1s-1.55,1.14-2.51,1.15c-6,0-12,0-18,0Z"></path><path class="cls-1" d="M100.71,48.26a4.51,4.51,0,0,1,4.42,4.57,4.4,4.4,0,0,1-4.36,4.46h-.12a4.52,4.52,0,0,1,.06-9Z"></path><path class="cls-1" d="M87.67,52.76a4.6,4.6,0,0,1-4.46,4.53,4.51,4.51,0,1,1,4.46-4.57Z"></path><path class="cls-1" d="M70.15,53.25a4.52,4.52,0,1,1-4.06-5A4.76,4.76,0,0,1,70.15,53.25Z"></path><path class="cls-2" d="M74,96.79a2.56,2.56,0,0,1-1.85.72A2.39,2.39,0,0,1,69.58,95a2.45,2.45,0,0,1,2.35-2.55h.23a2.56,2.56,0,0,1,1.79.74l-.62.6a1.66,1.66,0,0,0-1.17-.46,1.59,1.59,0,0,0-1.68,1.51V95a1.56,1.56,0,0,0,1.46,1.65h.22a1.81,1.81,0,0,0,1.22-.5Z"></path><path class="cls-2" d="M78.73,92.54v2.79a2,2,0,0,1-2.12,2.18,2,2,0,0,1-2.17-1.89,2.8,2.8,0,0,1,0-.29V92.54h.92v2.79a1.19,1.19,0,0,0,1.27,1.34c.77,0,1.19-.5,1.19-1.34V92.54Z"></path><path class="cls-2" d="M82.64,93.71a1.43,1.43,0,0,0-1.16-.55c-.68,0-1,.29-1,.65s.5.54,1.09.61c1,.13,2,.39,2,1.55s-1,1.56-2,1.56a2,2,0,0,1-2.12-1.2l.76-.39a1.41,1.41,0,0,0,1.37.77c.58,0,1.12-.2,1.12-.74s-.48-.64-1.12-.71c-1-.12-1.92-.38-1.92-1.47s1-1.42,1.89-1.42a2,2,0,0,1,1.91,1Z"></path><path class="cls-2" d="M85.49,93.36H84v-.85h4v.85H86.41v4h-.92Z"></path><path class="cls-2" d="M93.3,95a2.51,2.51,0,0,1-5,.29V95a2.51,2.51,0,1,1,5,0h0Zm-4.1,0a1.6,1.6,0,1,0,3.2,0,1.57,1.57,0,0,0-1.6-1.73,1.59,1.59,0,0,0-1.61,1.56A1.09,1.09,0,0,0,89.2,95Z"></path><path class="cls-2" d="M98.22,93.87,96.64,96h-.18L94.9,93.87v3.55H94V92.54H95l1.53,2.09,1.52-2.09h1v4.87h-.92Z"></path><path class="cls-2" d="M100,97.4V92.53h.92V97.4Z"></path><path class="cls-2" d="M101.71,92.53h3.75V93l-2.53,3.57h2.53v.85h-3.83v-.53l2.48-3.48H101.7Z"></path><path class="cls-2" d="M109.65,97.4H106V92.53h3.65v.89h-2.74v1.12h2.64v.85h-2.64v1.1h2.74Z"></path><path class="cls-2" d="M114.65,94.92a2.32,2.32,0,0,1-2.13,2.48H110.3V92.53h1.92a2.3,2.3,0,0,1,2.43,2.17Zm-3.44,1.6h1a1.56,1.56,0,0,0,0-3.12h-1Z"></path><path class="cls-2" d="M121,94.92a2.31,2.31,0,0,1-2.12,2.48H116.6V92.53h1.91a2.29,2.29,0,0,1,2.43,2.16A1.85,1.85,0,0,1,121,94.92Zm-3.44,1.6h1a1.56,1.56,0,0,0,0-3.12h-1Z"></path><path class="cls-2" d="M126.41,95a2.51,2.51,0,0,1-5,.29,1.31,1.31,0,0,1,0-.28,2.5,2.5,0,1,1,5-.21V95Zm-4.1,0a1.6,1.6,0,1,0,3.2,0,1.6,1.6,0,1,0-3.2-.18A1.2,1.2,0,0,0,122.31,95Z"></path><path class="cls-2" d="M131.35,93.87,129.77,96h-.19L128,93.87v3.55h-.93V92.54h1.06l1.52,2.09,1.53-2.09h1v4.87h-.91Z"></path><path class="cls-2" d="M136.58,96.48H134l-.43.92h-1l2.18-4.87h1L138,97.4h-1Zm-1.28-2.92-.9,2.07h1.81Z"></path><path class="cls-2" d="M138.34,97.4V92.53h.91V97.4Z"></path><path class="cls-2" d="M143.32,92.52h.92V97.4h-.56l-2.55-3.29v3.28h-.92V92.53H141l2.39,3Z"></path><rect class="cls-3" x="61.67" y="84.45" width="101.04" height="21.55" rx="10.08"></rect><circle class="cls-3" cx="151.79" cy="93.51" r="3.31"></circle><line class="cls-3" x1="153.63" y1="96.27" x2="156" y2="100.39"></line><rect class="cls-1" x="153.69" y="38.35" width="24.95" height="2.63"></rect><rect class="cls-1" x="153.69" y="60.84" width="24.95" height="2.15"></rect><rect class="cls-1" x="176.51" y="38.43" width="2.15" height="60.75"></rect></svg>