<svg xmlns="http://www.w3.org/2000/svg" id="Layer_1" data-name="Layer 1" viewBox="0 0 1024 1024"><defs><style>.cls-1{fill:#1d4483;}</style></defs><title>Domain Checker_Image-03</title><path class="cls-1" d="M144.62,893.51H128.45v16.82H117.67V853.16c9,0,18-.08,27-.08C172.55,853.08,172.63,893.51,144.62,893.51Zm-16.17-9.88h16.17c13.8,0,13.72-20.26,0-20.26H128.45Z"></path><path class="cls-1" d="M223.6,910.33H210.78l-16.66-19.11H183.75v19.11H173V853.08c9.07,0,18.14.08,27.2.08,13.48.08,20.58,9.07,20.58,19,0,7.84-3.59,15.76-14.45,18L223.6,909.6Zm-39.85-47.12V881.5h16.41c6.86,0,9.8-4.57,9.8-9.14s-3-9.15-9.8-9.15Z"></path><path class="cls-1" d="M284.21,882.07c-.16,14.79-9.23,29.57-29.32,29.57s-29.4-14.46-29.4-29.48S235.12,852,254.89,852,284.37,867.13,284.21,882.07Zm-48.11.25c.25,9.39,5.31,19.44,18.79,19.44s18.54-10.13,18.7-19.52c.17-9.64-5.23-20.42-18.7-20.42S235.86,872.68,236.1,882.32Z"></path><path class="cls-1" d="M303.57,863H285.44v-9.8h47V863H314.35v47.37H303.57Z"></path><path class="cls-1" d="M381.66,910.33h-42.8V853.16h42.8v10.46h-32.1v13.15h30.95v10H349.56v12.91h32.1Z"></path><path class="cls-1" d="M440.39,903.15c-5.88,5.8-13.48,8.49-21.73,8.49-21.23,0-30.22-14.62-30.3-29.48S398,852,418.66,852a29.49,29.49,0,0,1,21,8.74l-7.19,6.94a19.6,19.6,0,0,0-13.8-5.39c-13.8,0-19.76,10.29-19.68,19.85s5.55,19.35,19.68,19.35a21.06,21.06,0,0,0,14.38-5.8Z"></path><path class="cls-1" d="M460.4,863H442.27v-9.8h47V863H471.18v47.37H460.4Z"></path><path class="cls-1" d="M495.94,910.33V853.16h10.69v57.17Z"></path><path class="cls-1" d="M574.67,882.07c-.16,14.79-9.23,29.57-29.32,29.57S516,897.18,516,882.16,525.58,852,545.35,852,574.83,867.13,574.67,882.07Zm-48.11.25c.25,9.39,5.31,19.44,18.79,19.44s18.54-10.13,18.7-19.52c.17-9.64-5.22-20.42-18.7-20.42S526.32,872.68,526.56,882.32Z"></path><path class="cls-1" d="M620.17,853.08H631v57.25h-6.7v.08l-30-38.63v38.55H583.42V853.16h8.73l28,35.45Z"></path><path class="cls-1" d="M68.32,463.83q0-134.83,0-269.65c0-17.88,3.42-35.05,13-50.33,16.71-26.53,40.45-42.77,72.26-43.24C338.42,97.9,523.2,99.7,708,99.38c51.23-.09,90.78,40.87,90.91,93.15q.24,98.78,0,197.56a34.54,34.54,0,0,0,5.78,20.07c18.09,27.59,39.23,51.95,68.66,68.07,27.17,14.87,56.36,21.45,87.16,21.6,20.2.1,22.05,1.53,24.28,21.35,7.72,68.54-.5,135.08-26.12,199.2-30.19,75.56-81.47,133.39-149.7,176.83-11.51,7.33-23.51,13.79-35.41,20.43-5.35,3-10.31,2.89-15.76.1a400.1,400.1,0,0,1-89.51-62.45,278.58,278.58,0,0,1-21.05-21c-4.9-5.64-10.33-7.31-17.56-7.29q-118.87.3-237.76.1c-71.86,0-143.72.15-215.58-.18-14-.06-28.22.35-42-3.68-39.84-11.71-66-46.45-66-88.34q-.17-135.51,0-271Zm22.09,33.33h.06q0,118.55,0,237.09a78.56,78.56,0,0,0,.93,14.48c6.18,32.95,34,56,67.87,56q109.55.15,219.07,0,117.51,0,235-.05c2,0,4.69,1,5.85-.87,1.32-2.11-1.2-3.68-2.37-5.25a385.6,385.6,0,0,1-43.37-74c-3.56-8-3.62-7.84-11-3.13-55.26,35.25-115.13,46.48-179.2,33-48.49-10.22-89.55-34.29-122.74-71-47.2-52.26-67.63-113.92-60.09-183.84,6.54-60.64,33.44-111.52,79.8-151.4,52-44.71,112.67-63.8,180.58-55.72C558.54,304,635.38,371.8,660.67,466.18c2,7.61,2.42,7.76,8.83,3.43,1-.64,1.87-1.34,2.82-2,27.95-19.74,47.86-46.51,65.82-75,4.42-7,8.78-14.12,14.43-20.31,4.65-5.09,10.59-7.49,16.88-5.18,7.63,2.8,7.25-1.23,7.24-6.38q-.11-51,0-101.91c0-12.64,0-12.65-12.94-12.65l-614.91-.08c-16.58,0-33.13-.78-49.73-.52-8,.13-8.81,3-8.8,9.66Q90.56,376.19,90.41,497.16ZM433.65,224v-.1H739.38c10.17,0,20.34-.19,30.5,0,5.15.12,7-2,6.85-7-.22-9.7,0-19.41-.1-29.11-.49-35.77-30.93-66.25-66.8-66.27q-276.27-.21-552.53-.1c-29.07,0-54,18.64-63.58,46.12C88.54,182.5,90.93,197.8,90.47,213c-.33,11,0,11,11.11,11ZM563.52,576.64c-.63,11.3.49,23,1.79,34.74a348.28,348.28,0,0,0,46.29,139c35.87,61.3,85.37,108.56,147.46,142.84,4.54,2.51,8.21,2.67,12.81,0,14.36-8.39,28.71-16.77,42.33-26.36C876.2,823.18,920.26,766,944.73,694c12.14-35.69,18.32-72.48,20.19-110A325.85,325.85,0,0,0,963,528.69c-.54-4.42-2.23-6.54-7-6.53-5.29,0-10.59-.66-15.88-1.16-44.25-4.17-83-20.6-115.47-51.37-20.85-19.77-36.35-43.53-51.19-67.81-7.36-12-7.55-12.18-15.05-.09-14.29,23-29.89,45.08-49.5,63.94-37.43,36-82.53,54.21-134.2,56.36-5.76.24-7.66,2.75-8.21,7.83C564.84,545.24,562.93,560.6,563.52,576.64Zm-66.67-51.35c-.41-13.56.2-26.73-.93-39.88-.45-5.22-2.42-7.33-8-7.89-12-1.22-24-.64-36-1.51-25-1.8-49.82.24-74.7,1.73-4.34.25-6.1,2.38-6.32,6.53a772.53,772.53,0,0,0,0,81.67c.27,5.18,2.62,7.07,7.8,7.36a966.57,966.57,0,0,0,109.39-.07c4.76-.27,7-1.86,7.54-6.81C497.26,552.59,496.3,538.72,496.85,525.29Zm-148-35.44c1.4-8.72-1.95-9.68-6.58-9.06-29.09,3.95-58,8.71-85.7,18.89-11.05,4.06-22,8.61-30.73,16.93-6.54,6.23-6.4,11.52.18,17.71a61.85,61.85,0,0,0,17.49,11.07c32.24,14.35,66.56,20.18,101.22,24.59,3.92.49,4.9-1.5,4.63-4.88C347.29,539.05,348,513,348.84,489.85ZM433,380.69c-13.32,1-26.66,2.09-40,3.07-4.64.35-6.93,3-7.95,7.3q-6.57,28-10.56,56.49c-1,7.18,1.53,8.35,7.63,7.94,10.82-.72,21.67-1.31,32.52-1.41,23.55-.23,47.13-.75,70.63,1.41,6.51.6,8-1.79,7.15-7.83a558.49,558.49,0,0,0-10.61-56.49c-1.17-4.8-4-7-8.69-7.36Zm1,288.19c13.1.48,26.61-1,40.13-2.61,3.24-.39,5.78-1.12,6.75-4.69a400.17,400.17,0,0,0,11.53-61.11c.44-4-1-5.83-5.51-5.5-35.91,2.58-71.85,2.87-107.76-.17-4-.34-5.37.77-4.87,5a446.08,446.08,0,0,0,11.15,59.79c1.18,4.52,3.43,6.33,8,6.85C406.76,667.94,420.05,669.24,434,668.88ZM228.59,486.82c2,1,3.15-.07,4.33-.64,14.46-6.87,29.62-11.67,45.09-15.65,22.2-5.7,44.78-9.13,67.47-12,4-.5,6.34-1.93,6.78-6.26a477.15,477.15,0,0,1,9.07-55.33c1.39-6.27-1.37-6.75-6.33-5.39-39.46,10.86-75.15,28.35-103.29,59C241.87,461.19,233.76,473.09,228.59,486.82Zm.71,76.82c6.44,18.12,17.53,32.74,31.18,45.36,27,25,59.35,40.31,94.6,49.88,6.88,1.86,7.63,1,6-6.3a383.07,383.07,0,0,1-8.5-51.87c-.56-6.5-3.26-8.55-9.37-9.19A436.63,436.63,0,0,1,270.46,578,381.86,381.86,0,0,1,229.3,563.64Zm407.59-77.46c-6.2-17.36-16.71-31.53-29.77-43.74-27.65-25.85-60.87-41.4-97-51.39-5.21-1.44-5.89.05-4.74,4.86a435.54,435.54,0,0,1,9.29,54.61c.59,5.44,2.56,7.53,7.89,8.15,22.72,2.64,45.31,6.21,67.5,11.89A378.87,378.87,0,0,1,636.89,486.18Zm-389.4-63c2.55-1.7,3.76-2.34,4.78-3.22,30-25.58,64.76-41.89,102.85-50.54,11.64-2.64,17.15-7.84,20.27-18.64,3.38-11.67,9.89-22.14,16-33C349.75,315.49,268.65,374.56,247.49,423.2ZM246.91,626C262.78,671,346,732.3,391.47,732.67c-8-12.82-14.68-26-19-40.16-1.79-5.94-5.26-8.41-11.1-9.58a252.81,252.81,0,0,1-46.87-14.69A232.66,232.66,0,0,1,246.91,626Zm228.5-308.19c8,13.3,14.6,26.27,19,40.15,1.83,5.77,4.9,8.4,10.85,9.76,40.62,9.25,78.14,25.15,110,52.72.67.58,1.53,1.17,2.39.14C601.52,377.82,520.34,318.67,475.41,317.76ZM598.59,497c-.64-.74-.86-1.26-1.21-1.37-24.08-7.7-48.93-11.56-73.89-14.82-4.22-.55-6,1.48-5.73,5.59.42,7.37,1.07,14.74,1.14,22.12.17,18,.66,36-1,54-.24,2.53-1.32,6.82,2.17,7.09,6.39.49,13.14-.16,19-2.81,3.9-1.78,2.9-7,3-10.75.55-15.27,2.85-30.31,5.55-45.31,1.27-7,5.47-10.41,12.37-10.72,3.46-.15,6.93-.1,10.39-.12C579.79,499.86,589.15,499.53,598.59,497ZM481,732.47c1-.23,2.33-.52,3.67-.85a210.52,210.52,0,0,0,67.94-30.17c9.22-6.21,9.15-6.28,5.71-17.1-1.12-3.51-2.32-7-3.12-10.61-1-4.55-3.22-5.34-7.47-3.66a266,266,0,0,1-45,13.6c-2.73.55-5.36,1.28-6.45,4.45-4.83,14-10.34,27.65-18.15,40.28C476.38,731.25,477.08,732.75,481,732.47ZM465,361.13c6.77.27,7.28-.43,4.23-8C464.7,342,459,331.38,451.08,322.3c-11.08-12.66-22.57-12.88-34.28-.88-9,9.25-14.24,20.86-19.32,32.47-3.11,7.1-2.64,7.88,5.41,7.15A332.75,332.75,0,0,1,465,361.13ZM399.78,689.25c-4.43-.33-5.08.27-3.36,4.54,5.35,13.31,11.41,26.22,22,36.43s19.59,10.4,30.06.26,16.45-23.21,21.88-36.5c1.54-3.77.42-5-3.64-4.58A302.32,302.32,0,0,1,399.78,689.25Zm136.35-99c-5.49.64-11,1.2-16.47,1.94-2.48.34-4.25,1.67-4.54,4.44A543.76,543.76,0,0,1,505.3,656c-.81,3.65.36,4.59,3.94,3.58A324.22,324.22,0,0,0,544,647.88c3.13-1.27,3.9-3.42,3.38-6.61-2.44-15-4.77-30.06-5.21-45.31C542,592,540.29,589.9,536.13,590.28Z"></path><path class="cls-1" d="M572.3,183.75q-62.38,0-124.77,0c-10.9,0-17-4-17-11s6.12-11,17-11q124.44,0,248.86,0a36.61,36.61,0,0,1,8.26.5c5.62,1.3,8.76,5,8.63,10.91-.13,5.66-3.31,9-8.6,10.24a38.57,38.57,0,0,1-8.27.51q-62,0-124.08,0Z"></path><path class="cls-1" d="M281.5,136.69c19.28-.18,35.94,16.14,36.3,35.59.36,19.21-16.79,36.49-36.17,36.43-19.09-.06-35.68-16.36-35.87-35.23C245.57,153.57,261.78,136.88,281.5,136.69Zm-.68,49.88c8.35.41,14.41-4.86,14.82-12.9.44-8.39-5.22-14.77-13.48-15.18-7.32-.37-14.38,6-14.81,13.49A14,14,0,0,0,280.82,186.57Z"></path><path class="cls-1" d="M409.63,172.59c0,19.76-16.07,36.25-35.26,36.13a36,36,0,0,1-.17-72C393.69,136.49,409.6,152.6,409.63,172.59Zm-35.39,14a13.84,13.84,0,0,0,14.12-13.93c0-7.84-6.15-13.82-14.19-13.87-8.48,0-14.63,6-14.42,14.23C360,180.9,366.08,186.64,374.24,186.59Z"></path><path class="cls-1" d="M225.07,173.12c-.09,19.42-16.75,35.9-35.94,35.54-20.27-.37-35.24-16-35.1-36.71A35.45,35.45,0,0,1,190,136.74C209.42,137.08,225.17,153.39,225.07,173.12Zm-35.65,13.5c8.16,0,14.44-5.93,14.39-13.61s-6.84-14.72-14.51-14.8-14,6.41-14.13,14.12C175,180.86,180.76,186.6,189.42,186.62Z"></path><path class="cls-1" d="M951.62,569c-1,72.53-18,140.36-59.37,201C861,815.75,820,850.55,772.07,877.75c-5.08,2.89-9.6,2.29-14.36-.44-85.51-49-143.38-119.33-167.43-216-8.77-35.21-12-71-11.67-107.15a56.76,56.76,0,0,1,.67-7.58c1.24-8.39,4.21-11.33,12.45-12.13,34.17-3.34,65.94-13.75,94.78-32.52,27.38-17.81,48.72-41.57,66.66-68.61,8.42-12.7,15.69-12.8,24-.24,21.94,33.08,48.83,60.75,84.59,79.09,24,12.29,49.48,19,76.1,22.08,10,1.15,13.37,4.62,13.7,14.64C951.8,555.61,951.62,562.32,951.62,569Zm-22.28,7.78c0-4.16-.37-8.36.08-12.46.77-6.9-2.44-9.29-8.87-10.14a201.63,201.63,0,0,1-39-9.48c-45.66-15.6-81.75-44-110.52-82.27-5.93-7.88-5.87-7.82-11.88.36a231.85,231.85,0,0,1-26.85,30.74c-35,33.29-76.29,53.91-124.2,60.86-5.3.76-7.41,3.06-7.41,8.59a419.5,419.5,0,0,0,2.83,47.66C608.13,651,619,689.45,637.69,725.54c28.3,54.64,70.44,96,122.78,127.61,3.45,2.08,6.19,2.08,9.56,0,34.28-20.75,64.68-46,89.85-77.31C906.61,717.78,926.76,650.35,929.34,576.8Z"></path><path class="cls-1" d="M678.36,702.51c0-15.48-.07-31,0-46.44.1-16.94,6.78-26.35,22.84-31.2,4.71-1.43,4.63-4.35,4.63-7.87,0-18-.05-36,0-54.06.08-17.12,8.56-25.62,25.6-25.67q33.27-.1,66.54,0c18.23,0,26.82,8.21,27.14,26.55.31,17.32.25,34.66,0,52-.08,5.4,1.35,8.12,7,9.81,12.54,3.78,19.73,14,19.78,27.07q.2,49.9,0,99.81c0,14.41-9.78,25.63-24,27.88-12.39,2-24.94,1.31-37.36.76-27-1.2-54-.32-81.07-.63-19.87-.22-31-11.05-31.12-30.83-.06-7.85,0-15.71,0-23.56V702.51Zm87.24-56.59c-17.79,0-35.58,0-53.37,0-9.43,0-11.47,2.06-11.48,11.38q-.06,45,0,90.1c0,9.28,2.06,11.36,11.5,11.37q53.37.08,106.74,0c8.67,0,10.44-1.84,10.46-10.75q.12-45.75,0-91.49c0-8.94-1.6-10.54-10.54-10.57C801.18,645.89,783.39,645.94,765.6,645.92Zm-.43-21.59v0c10.15,0,20.31-.18,30.46.07,5.41.13,7.35-2,7.29-7.36q-.3-25.26,0-50.54c.05-5-1.75-7-6.85-6.95q-30.46.24-60.93,0c-5.06,0-7,2-6.94,7,.16,16.85.19,33.7,0,50.54-.06,5.3,1.73,7.5,7.23,7.33C745.31,624.11,755.24,624.33,765.17,624.33Z"></path><path class="cls-1" d="M794.93,689.24c-.58,8.36-3.86,16.81-12.21,22.29-4.61,3-6.44,6.72-6.06,12.1a65.22,65.22,0,0,1-.24,12.42c-.8,6.4-6.09,10.81-11.75,10.36-6.23-.49-10-4.69-10.32-11.6a40.83,40.83,0,0,1,0-5.53c.71-7.93-.8-13.94-8.22-19.34-11.2-8.15-13.36-23.71-7-35.59,6.55-12.31,20.1-18.51,33.18-15.19C785.5,662.52,794.91,674.47,794.93,689.24Zm-22.5-1.5c-.53-3.77-2.52-6.8-6.8-7-4.52-.15-7.49,2.57-7.47,7.14,0,4.23,2.85,6.81,7,7C769.55,695,771.69,692.2,772.43,687.74Z"></path></svg>