<svg xmlns="http://www.w3.org/2000/svg" xmlns:xlink="http://www.w3.org/1999/xlink" id="Layer_1" x="0px" y="0px" viewBox="0 0 1024 1024" style="enable-background:new 0 0 1024 1024;" xml:space="preserve"><style type="text/css">	.st0{fill:#FFFFFF;stroke:#000000;stroke-miterlimit:10;}	.st1{fill:none;stroke:#D8DCDF;stroke-width:1.9964;stroke-linecap:round;stroke-linejoin:round;stroke-miterlimit:10;}	.st2{fill:#D8DCDF;}	.st3{fill:#101229;}	.st4{fill:#E6E6E5;}	.st5{fill:#1D4483;}	.st6{fill:#FFFFFF;}	.st7{fill:none;stroke:#FFFFFF;stroke-width:0.9732;stroke-miterlimit:10;}	.st8{fill:#3464AF;}	.st9{fill:#FFFFFF;stroke:#D8DCDF;stroke-width:2.8805;stroke-miterlimit:10;}	.st10{fill:#FFFFFF;stroke:#D8DCDF;stroke-width:2;stroke-miterlimit:10;}	.st11{fill:#6C94CD;}	.st12{fill:#3A66AF;}	.st13{fill:#E8EBF4;}	.st14{fill:#3B67B0;}	.st15{fill:#F8F9FC;}	.st16{fill:#F6F7FB;}</style><rect class="st0" width="1024" height="1024"></rect><line class="st1" x1="-8.98" y1="816.61" x2="1041.22" y2="816.61"></line><g>	<path class="st2" d="M807.9,527.16h-18.46c-2.58,0-4.92-1.55-5.87-3.95c-0.24-0.62-0.49-1.23-0.75-1.84c-1-2.36-0.44-5.09,1.37-6.9  l13.59-13.59c2.48-2.48,2.48-6.51,0-8.99l-26.02-26.02c-2.48-2.48-6.51-2.48-8.99,0l-13.37,13.37c-1.88,1.88-4.69,2.32-7.14,1.27  c-0.37-0.16-0.75-0.32-1.13-0.47c-2.44-1-4.1-3.29-4.1-5.92v-19.67c0-3.51-2.85-6.36-6.36-6.36h-36.8c-3.51,0-6.36,2.85-6.36,6.36  v19.66c0,2.64-1.66,4.93-4.11,5.93c-0.21,0.08-0.41,0.17-0.61,0.26c-2.44,1.03-5.24,0.58-7.11-1.29l-14.45-14.45  c-2.48-2.48-6.51-2.48-8.99,0l-26.02,26.02c-2.48,2.48-2.48,6.51,0,8.99l14.36,14.36c1.88,1.88,2.32,4.69,1.28,7.14  c-0.02,0.06-0.05,0.12-0.07,0.18c-1.02,2.42-3.3,4.06-5.92,4.06H614.8c-3.51,0-6.36,2.85-6.36,6.36v36.8  c0,3.51,2.85,6.36,6.36,6.36h20.45c2.67,0,4.97,1.69,5.97,4.17c0.01,0.03,0.02,0.05,0.03,0.08c0.98,2.42,0.51,5.18-1.33,7.03  l-15,15c-2.48,2.48-2.48,6.51,0,8.99l26.02,26.02c2.48,2.48,6.51,2.48,8.99,0l14.18-14.18c1.9-1.9,4.76-2.32,7.22-1.25  c0.12,0.05,0.24,0.1,0.36,0.15c2.38,1.03,3.99,3.3,3.99,5.89v20.81c0,3.51,2.85,6.36,6.36,6.36h36.8c3.51,0,6.36-2.85,6.36-6.36  v-19.27c0-2.6,1.59-4.95,4.01-5.89c0.43-0.17,0.85-0.34,1.28-0.51c2.35-0.96,5.04-0.4,6.84,1.4l14.15,14.15  c2.48,2.48,6.51,2.48,8.99,0l26.02-26.02c2.48-2.48,2.48-6.51,0-8.99l-13.19-13.19c-1.84-1.84-2.39-4.63-1.33-7.01  c0.25-0.56,0.49-1.13,0.73-1.7c0.97-2.34,3.29-3.84,5.83-3.84h19.38c3.51,0,6.36-2.85,6.36-6.36v-36.8  C814.26,530.01,811.41,527.16,807.9,527.16z M711.35,587.76c-20.3,0-36.76-16.46-36.76-36.77c0-20.3,16.46-36.76,36.76-36.76  s36.76,16.46,36.76,36.76C748.11,571.3,731.65,587.76,711.35,587.76z"></path></g><g>	<path class="st3" d="M701.05,767.15H186.15c-6.84,0-12.39-5.55-12.39-12.39V401.68c0-6.84,5.55-12.39,12.39-12.39h514.89  c6.84,0,12.39,5.55,12.39,12.39v353.08C713.44,761.6,707.89,767.15,701.05,767.15z"></path>	<g>		<path class="st4" d="M173.95,746.45c1.41,11.66,11.31,20.7,23.35,20.7h492.6c12.04,0,21.94-9.04,23.35-20.7H173.95z"></path>	</g></g><path class="st5" d="M681.82,740.01H205.38c-6.84,0-12.39-5.55-12.39-12.39V420.9c0-6.84,5.55-12.39,12.39-12.39h476.44 c6.84,0,12.39,5.55,12.39,12.39v306.71C694.21,734.46,688.66,740.01,681.82,740.01z"></path><g>	<circle class="st6" cx="232.6" cy="437.43" r="8.32"></circle>	<circle class="st6" cx="260.33" cy="437.43" r="8.32"></circle>	<circle class="st6" cx="288.06" cy="437.43" r="8.32"></circle>	<line class="st7" x1="208.1" y1="455.91" x2="673.16" y2="455.91"></line></g><g>	<path class="st2" d="M736.59,808.36H150.6c-13.52,0-25.62-8.42-30.31-21.1l-10.67-28.81h667.96l-10.67,28.81  C762.21,799.94,750.12,808.36,736.59,808.36z"></path>	<g>		<g>			<path class="st4" d="M119.51,785.16l0.78,2.1c4.7,12.68,16.79,21.1,30.31,21.1h585.99c13.52,0,25.62-8.42,30.31-21.1l0.78-2.1    H119.51z"></path>		</g>	</g></g><g>			<rect x="54.38" y="279.37" transform="matrix(0.9974 0.0715 -0.0715 0.9974 30.1194 -3.3252)" class="st2" width="14.27" height="279.52"></rect>	<rect x="222.61" y="101.71" class="st2" width="59.63" height="8.67"></rect>	<g>		<polygon class="st2" points="80.59,279.46 240.54,90.58 230.09,82.62 63.4,279.46   "></polygon>	</g>	<g>		<rect x="37.46" y="551" class="st3" width="29.95" height="38.88"></rect>		<g>			<rect x="37.46" y="569.91" class="st4" width="29.95" height="19.97"></rect>		</g>	</g>	<path class="st3" d="M147.11,617.46H29.73c-3.57,0-6.46-2.89-6.46-6.46v-23.86c0-3.57,2.89-6.46,6.46-6.46h117.38  c3.57,0,6.46,2.89,6.46,6.46V611C153.57,614.57,150.68,617.46,147.11,617.46z"></path>	<g>		<path class="st4" d="M23.27,601.44v4.07c0,6.6,5.35,11.95,11.95,11.95h106.39c6.6,0,11.95-5.35,11.95-11.95v-4.07H23.27z"></path>	</g>	<g>		<g>			<path class="st8" d="M310.09,141.11h-58.85V87.38c0-5.14,4.17-9.31,9.31-9.31h40.23c5.14,0,9.31,4.17,9.31,9.31V141.11z"></path>			<g>				<rect x="251.25" y="115.89" class="st4" width="58.85" height="25.22"></rect>			</g>		</g>		<path class="st8" d="M348.97,214.67H217.1v-68.26c0-12.79,10.37-23.16,23.16-23.16h85.56c12.79,0,23.16,10.37,23.16,23.16V214.67z   "></path>		<g>			<rect x="217.1" y="193.65" class="st4" width="131.88" height="21.02"></rect>		</g>		<rect x="207.38" y="200.48" class="st3" width="151.32" height="21.54"></rect>	</g>	<circle class="st3" cx="73.31" cy="276.1" r="18.47"></circle></g><g>	<g>		<path class="st8" d="M233.2,842.14c6.33,1.92,9.21,5.91,9.21,15.4v22c0,6.46,3.3,10.17,10.04,10.17h2.47v16.77h-7.97   c-17.19,0-25.99-8.8-25.99-24.61v-24.89c0-4.4-2.34-6.46-6.05-6.46h-4.54v-16.77h4.54c3.71,0,6.05-2.06,6.05-6.46V802.4   c0-15.81,8.8-24.61,25.99-24.61h7.97v16.78h-2.47c-6.74,0-10.04,3.71-10.04,10.17v22C242.41,836.22,239.52,840.21,233.2,842.14z"></path>		<path class="st8" d="M253.41,867.43c0-7.98,5.91-13.2,13.34-13.2c7.43,0,13.34,5.22,13.34,13.2c0,7.84-5.91,13.47-13.34,13.47   C259.32,880.91,253.41,875.27,253.41,867.43z M290.12,867.43c0-7.98,5.91-13.2,13.34-13.2c7.43,0,13.34,5.22,13.34,13.2   c0,7.84-5.91,13.47-13.34,13.47C296.04,880.91,290.12,875.27,290.12,867.43z M326.97,867.43c0-7.98,5.91-13.2,13.34-13.2   c7.43,0,13.34,5.22,13.34,13.2c0,7.84-5.91,13.47-13.34,13.47C332.89,880.91,326.97,875.27,326.97,867.43z"></path>		<path class="st8" d="M396.83,833.75v16.77h-4.54c-3.71,0-6.05,2.06-6.05,6.46v24.89c0,15.81-8.8,24.61-25.99,24.61h-7.97v-16.77   h2.47c6.74,0,10.04-3.71,10.04-10.17v-22c0-9.49,2.89-13.48,9.21-15.4c-6.33-1.93-9.21-5.91-9.21-15.4v-22   c0-6.46-3.3-10.17-10.04-10.17h-2.47v-16.78h7.97c17.19,0,25.99,8.8,25.99,24.61v24.89c0,4.4,2.34,6.46,6.05,6.46H396.83z"></path>	</g>	<g>		<rect x="603.22" y="683.67" class="st9" width="152.43" height="214.96"></rect>		<rect x="622.48" y="711.28" class="st8" width="113.53" height="5.56"></rect>		<rect x="622.48" y="721.7" class="st8" width="75.42" height="5.56"></rect>		<rect x="622.48" y="732.22" class="st8" width="98.65" height="5.56"></rect>		<rect x="622.48" y="742.54" class="st8" width="91.7" height="5.56"></rect>		<rect x="622.48" y="832.45" class="st8" width="91.7" height="5.56"></rect>		<rect x="622.48" y="843.22" class="st8" width="66.62" height="5.56"></rect>		<rect x="622.48" y="854.3" class="st8" width="75.64" height="5.56"></rect>	</g></g><g>	<g>		<path class="st10" d="M673.8,248.2H363.51c-4.39,0-7.95-3.56-7.95-7.95v-37.92c0-4.39,3.56-7.95,7.95-7.95H673.8   c4.39,0,7.95,3.56,7.95,7.95v37.92C681.74,244.65,678.18,248.2,673.8,248.2z"></path>		<g>			<path class="st8" d="M666.65,194.39h-80.97c-9.11,0-16.49,7.38-16.49,16.49v20.84c0,9.11,7.38,16.49,16.49,16.49h80.97    c8.34,0,15.09-6.76,15.09-15.1v-23.63C681.74,201.15,674.98,194.39,666.65,194.39z"></path>		</g>	</g>	<g>		<path class="st10" d="M673.8,315.32H363.51c-4.39,0-7.95-3.56-7.95-7.95v-37.92c0-4.39,3.56-7.95,7.95-7.95H673.8   c4.39,0,7.95,3.56,7.95,7.95v37.92C681.74,311.76,678.18,315.32,673.8,315.32z"></path>		<g>			<path class="st3" d="M666.65,261.5h-80.97c-9.11,0-16.49,7.38-16.49,16.49v20.84c0,9.11,7.38,16.49,16.49,16.49h80.97    c8.34,0,15.09-6.76,15.09-15.09V276.6C681.74,268.26,674.98,261.5,666.65,261.5z"></path>		</g>	</g>	<g>					<ellipse transform="matrix(0.7071 -0.7071 0.7071 0.7071 -30.6772 616.7591)" class="st9" cx="729.16" cy="345.41" rx="127.81" ry="127.81"></ellipse>		<g>			<path class="st8" d="M654.86,347.85l23.31-32.41h23.15l-22.65,32.41l22.65,32.24h-23.15L654.86,347.85z"></path>			<path class="st8" d="M746.29,265.17h22.98l-54.56,155.76h-22.98L746.29,265.17z"></path>			<path class="st8" d="M757.2,380.09l22.65-32.24l-22.65-32.41h23.15l23.31,32.41l-23.31,32.24H757.2z"></path>		</g>	</g></g><g>	<g>		<path class="st8" d="M960.02,454.15H857.44c-18.36,0-33.24,14.88-33.24,33.24v13.3c0,18.36,14.88,33.24,33.24,33.24h45.36   l23.66,42.42l26.05-42.42h7.51c18.36,0,33.24-14.88,33.24-33.24v-13.3C993.26,469.03,978.37,454.15,960.02,454.15z"></path>		<g>			<path class="st6" d="M860.34,494.46c0-7.97,5.91-13.2,13.34-13.2c7.43,0,13.34,5.23,13.34,13.2c0,7.84-5.91,13.48-13.34,13.48    C866.25,507.94,860.34,502.3,860.34,494.46z"></path>			<path class="st6" d="M896.37,494.46c0-7.97,5.91-13.2,13.34-13.2c7.43,0,13.34,5.23,13.34,13.2c0,7.84-5.91,13.48-13.34,13.48    C902.28,507.94,896.37,502.3,896.37,494.46z"></path>			<path class="st6" d="M932.39,494.46c0-7.97,5.91-13.2,13.34-13.2c7.43,0,13.34,5.23,13.34,13.2c0,7.84-5.91,13.48-13.34,13.48    C938.31,507.94,932.39,502.3,932.39,494.46z"></path>		</g>	</g>	<g>		<g>			<g>				<rect x="856.04" y="605.33" class="st2" width="105.39" height="34.51"></rect>				<rect x="856.04" y="616.56" class="st4" width="105.39" height="23.27"></rect>			</g>			<polygon class="st8" points="948.05,808.36 866.2,808.36 851.76,640.65 965.7,640.65    "></polygon>			<g>				<g>					<g>						<polygon class="st4" points="965.7,640.65 851.76,640.65 855.48,667.53 961.15,667.53       "></polygon>					</g>				</g>			</g>			<rect x="835.31" y="620.99" class="st3" width="146.85" height="34.51"></rect>		</g>					<ellipse transform="matrix(0.6605 -0.7508 0.7508 0.6605 -237.0132 928.9386)" class="st6" cx="908.73" cy="726.56" rx="32.13" ry="32.13"></ellipse>	</g></g><g>	<path class="st9" d="M218.27,692.57H73.02c-11.84,0-21.45-9.6-21.45-21.45v-96.44c0-11.84,9.6-21.45,21.45-21.45h145.25  c11.84,0,21.45,9.6,21.45,21.45v96.44C239.72,682.97,230.12,692.57,218.27,692.57z"></path>	<polygon class="st8" points="190.98,624.39 114.96,584.43 114.96,665.33  "></polygon></g><g>	<rect x="349.22" y="483.07" class="st11" width="219.61" height="7.36"></rect>	<rect x="576.71" y="483.07" class="st11" width="43.28" height="7.36"></rect>	<rect x="625.05" y="483.07" class="st6" width="43.28" height="7.36"></rect>	<rect x="576.71" y="511.09" class="st11" width="43.28" height="7.36"></rect>	<rect x="480.3" y="525.45" class="st11" width="139.69" height="7.36"></rect>	<rect x="625.05" y="511.09" class="st6" width="43.28" height="7.36"></rect>	<rect x="400.38" y="497.08" class="st6" width="219.61" height="7.36"></rect>	<rect x="624.7" y="497.08" class="st11" width="43.28" height="7.36"></rect>	<rect x="624.7" y="525.45" class="st11" width="43.28" height="7.36"></rect></g><g>	<path class="st12" d="M374.38,726.56c-12.54-1.06-26.84-4.99-39.41-13.87c-17.69-12.49-33.84-26.73-47.65-43.46  c-10.92-13.23-18.67-27.92-17.39-45.72c0.94-13.21,4.92-25.7,12.42-36.68c13.43-19.65,29.13-37.32,47.87-52.1  c8.85-6.97,18.69-12.1,29.91-14.16c17.46-3.21,33.47,1.88,47.74,10.9c21.59,13.66,40.27,30.93,55.65,51.49  c6.27,8.39,10.65,17.75,12.32,28.24c2.6,16.4-1.82,31.56-10.2,45.11c-14.08,22.76-32.05,42.33-53.78,58.11  C400.44,722.7,388.6,726.4,374.38,726.56z M372.98,561.02c-35.2-0.05-64.4,28.59-64.31,63.48c0.05,17.43,6.26,32.54,18.33,45.34  c11.66,12.37,26.88,20.28,42.63,20.09c38.95-0.46,66.75-26.55,67.51-64.75C437.85,589.83,408.4,561.08,372.98,561.02z"></path>	<path class="st13" d="M372.98,561.02c35.42,0.05,64.87,28.81,64.16,64.16c-0.76,38.2-28.56,64.29-67.51,64.75  c-15.75,0.18-30.97-7.72-42.63-20.09c-12.07-12.8-18.28-27.91-18.33-45.34C308.58,589.61,337.79,560.97,372.98,561.02z   M364.76,564.77c-35.27,6.09-57.4,36.2-51.98,70.69c5.3,33.66,38.47,56.02,73.19,49.31c32.25-6.23,54.33-40.63,46.3-73.02  c-6.52-26.29-23.66-41.81-50.24-46.91c-1.13-0.05-2.27-0.11-3.4-0.16c-4.25-0.53-8.5-0.42-12.75,0.04  C365.5,564.6,365.12,564.61,364.76,564.77z"></path>	<path class="st14" d="M382.02,564.85c26.58,5.1,43.72,20.62,50.24,46.91c8.03,32.39-14.05,66.79-46.3,73.02  c-34.72,6.71-67.89-15.65-73.19-49.31c-5.43-34.49,16.71-64.6,51.98-70.69c0.4,0.59,0.77,0.55,1.12-0.04  c4.25-0.47,8.5-0.58,12.75-0.04C379.69,566.07,380.83,566.07,382.02,564.85z M359.99,669.81c-0.56,1.81-1.06,3.65-1.72,5.43  c-0.55,1.49-0.55,2.87,1.26,3.02c4.36,0.38,7.99,3.07,12.54,3.26c5.57,0.23,10.16-2.82,15.39-3.38c3.37-0.36,3.93-1.69,2.67-4.93  c-4-10.31-7.63-20.76-11.41-31.16c1.58-3.14,0.75-5.44-2.43-6.91c-0.24-0.2-0.3-0.44-0.2-0.73c3.09-4.22,1.62-7.24-4.75-9.77  c0.07-1.11,0.13-2.23,0.2-3.34c1.21-0.16,2.49-0.5,2.22-2c-0.43-2.33-2.04-3.58-4.42-3.81c-0.42-0.85-0.89-1.68-1.27-2.55  c-2.66-6.1-2.75-14.11-11.61-15.62c-0.18-0.03-0.23-0.87-0.37-1.43c8.52-0.87,16.79-2.22,25.12-0.15c2.46,0.61,7.19-1.03,7.17,0.48  c-0.04,4.03-5.04,1.69-7.48,3.86c6.37,18.88,12.79,37.89,19.2,56.89c2.83-6.17,4.2-12.19,6.38-17.9  c4.85-12.68,4.59-24.39-3.34-36.1c-6.04-8.91-3.73-14.62,5.93-19.12c-24.82-23.23-66.85-15.25-80.85,10.69  c6.18,0.46,12.32,0.91,19.05,1.41c-1.09,1-1.69,2.07-2.38,2.13c-6.74,0.57-4.32,4.56-3.13,8.11c5.76,17.26,11.52,34.53,17.28,51.79  C359.97,661.87,355,666.23,359.99,669.81z M348.85,674.02c-8.71-23.8-17.25-47.14-26.06-71.21  C310.82,630.38,323.24,664.05,348.85,674.02z M422.01,600.39c-1.76,25.18-14.6,46.72-20.5,70.1  C417.55,665.99,438.48,631.6,422.01,600.39z"></path>	<path class="st12" d="M382.02,564.85c-1.2,1.22-2.33,1.23-3.4-0.16C379.76,564.74,380.89,564.79,382.02,564.85z"></path>	<path class="st12" d="M365.87,564.73c-0.35,0.6-0.72,0.64-1.12,0.04C365.12,564.61,365.5,564.6,365.87,564.73z"></path>	<path class="st15" d="M371.55,621.3c-0.07,1.11-0.13,2.23-0.2,3.34c-1.05,2.83-2.04,5.67-3.15,8.47  c-3.25,8.22-4.64,17.11-9.15,24.86c-5.76-17.26-11.52-34.53-17.28-51.79c-1.19-3.55-3.61-7.54,3.13-8.11  c0.69-0.06,1.3-1.12,2.38-2.13c-6.73-0.5-12.87-0.95-19.05-1.41c14.01-25.95,56.03-33.92,80.85-10.69  c-9.66,4.5-11.96,10.21-5.93,19.12c7.93,11.71,8.19,23.43,3.34,36.1c-2.18,5.71-3.55,11.73-6.38,17.9  c-6.42-19.01-12.83-38.01-19.2-56.89c2.44-2.17,7.44,0.16,7.48-3.86c0.01-1.51-4.71,0.14-7.17-0.48  c-8.33-2.08-16.6-0.72-25.12,0.15c0.13,0.56,0.18,1.4,0.37,1.43c8.87,1.52,8.96,9.52,11.61,15.62c0.38,0.87,0.84,1.7,1.27,2.55  C369.55,617.63,370.29,619.56,371.55,621.3z"></path>	<path class="st16" d="M376.1,634.41c-0.1,0.29-0.04,0.53,0.2,0.73c0.81,2.3,1.62,4.61,2.43,6.91c3.78,10.4,7.41,20.85,11.41,31.16  c1.26,3.24,0.7,4.57-2.67,4.93c-5.23,0.55-9.82,3.61-15.39,3.38c-4.54-0.19-8.17-2.88-12.54-3.26c-1.81-0.16-1.81-1.53-1.26-3.02  c0.66-1.78,1.15-3.62,1.72-5.43c4.52-12.88,9.05-25.77,13.78-39.24C374.79,632.26,375.44,633.34,376.1,634.41z"></path>	<path class="st16" d="M348.85,674.02c-25.61-9.96-38.03-43.63-26.06-71.21C331.6,626.88,340.14,650.22,348.85,674.02z"></path>	<path class="st16" d="M422.01,600.39c16.47,31.21-4.46,65.59-20.5,70.1C407.42,647.12,420.25,625.57,422.01,600.39z"></path>	<path class="st12" d="M376.1,634.41c-0.65-1.08-1.3-2.15-2.33-3.85c-4.73,13.48-9.25,26.36-13.78,39.24  c-4.99-3.57-0.02-7.93-0.94-11.83c4.51-7.75,5.9-16.65,9.15-24.86c1.11-2.8,2.1-5.65,3.15-8.47  C377.71,627.17,379.18,630.2,376.1,634.41z"></path>	<path class="st12" d="M371.55,621.3c-1.26-1.74-2-3.68-2.2-5.82c2.37,0.23,3.99,1.48,4.42,3.81  C374.04,620.81,372.75,621.14,371.55,621.3z"></path>	<path class="st12" d="M378.72,642.05c-0.81-2.3-1.62-4.61-2.43-6.91C379.47,636.61,380.3,638.91,378.72,642.05z"></path></g><g>	<path class="st12" d="M535.64,713.31c-6.7-0.57-14.35-2.67-21.08-7.42c-9.46-6.68-18.1-14.3-25.48-23.24  c-5.84-7.07-9.98-14.93-9.3-24.45c0.5-7.07,2.63-13.74,6.64-19.62c7.18-10.51,15.58-19.96,25.6-27.86c4.73-3.73,10-6.47,15.99-7.57  c9.34-1.71,17.9,1,25.53,5.83c11.54,7.3,21.54,16.54,29.76,27.53c3.36,4.48,5.7,9.49,6.59,15.1c1.39,8.77-0.97,16.88-5.45,24.12  c-7.53,12.17-17.14,22.63-28.76,31.07C549.58,711.25,543.24,713.23,535.64,713.31z M534.89,624.79  c-18.82-0.03-34.44,15.29-34.39,33.95c0.02,9.32,3.35,17.4,9.8,24.25c6.24,6.62,14.37,10.84,22.8,10.74  c20.83-0.24,35.69-14.2,36.1-34.63C569.58,640.19,553.83,624.82,534.89,624.79z"></path>	<path class="st13" d="M534.89,624.79c18.94,0.03,34.69,15.41,34.31,34.31c-0.41,20.43-15.27,34.38-36.1,34.63  c-8.42,0.1-16.56-4.13-22.8-10.74c-6.45-6.85-9.78-14.93-9.8-24.25C500.45,640.08,516.07,624.76,534.89,624.79z M530.49,626.79  c-18.86,3.26-30.7,19.36-27.8,37.8c2.83,18,20.57,29.96,39.14,26.37c17.25-3.33,29.05-21.73,24.76-39.05  c-3.49-14.06-12.65-22.36-26.87-25.09c-0.61-0.03-1.21-0.06-1.82-0.09c-2.27-0.28-4.55-0.22-6.82,0.02  C530.89,626.7,530.69,626.71,530.49,626.79z"></path>	<path class="st14" d="M539.73,626.83c14.21,2.73,23.38,11.03,26.87,25.09c4.29,17.32-7.51,35.71-24.76,39.05  c-18.56,3.59-36.31-8.37-39.14-26.37c-2.9-18.44,8.94-34.54,27.8-37.8c0.21,0.32,0.41,0.3,0.6-0.02c2.27-0.25,4.54-0.31,6.82-0.02  C538.48,627.49,539.09,627.49,539.73,626.83z M527.94,682.96c-0.3,0.97-0.57,1.95-0.92,2.9c-0.29,0.8-0.3,1.53,0.67,1.62  c2.33,0.2,4.27,1.64,6.7,1.74c2.98,0.12,5.43-1.51,8.23-1.81c1.8-0.19,2.1-0.9,1.43-2.63c-2.14-5.51-4.08-11.1-6.1-16.66  c0.85-1.68,0.4-2.91-1.3-3.7c-0.13-0.1-0.16-0.23-0.11-0.39c1.65-2.25,0.87-3.87-2.54-5.23c0.04-0.6,0.07-1.19,0.11-1.79  c0.65-0.09,1.33-0.26,1.19-1.07c-0.23-1.25-1.09-1.92-2.36-2.04c-0.23-0.45-0.47-0.9-0.68-1.37c-1.42-3.26-1.47-7.54-6.21-8.35  c-0.1-0.02-0.12-0.46-0.2-0.76c4.56-0.46,8.98-1.19,13.43-0.08c1.32,0.33,3.84-0.55,3.84,0.25c-0.02,2.15-2.7,0.91-4,2.07  c3.41,10.1,6.84,20.26,10.27,30.42c1.52-3.3,2.25-6.52,3.41-9.57c2.59-6.78,2.45-13.04-1.79-19.31c-3.23-4.77-1.99-7.82,3.17-10.22  c-13.27-12.42-35.75-8.16-43.24,5.72c3.31,0.24,6.59,0.49,10.19,0.75c-0.58,0.54-0.9,1.11-1.27,1.14  c-3.61,0.31-2.31,2.44-1.68,4.34c3.08,9.23,6.16,18.46,9.24,27.7C527.93,678.72,525.28,681.05,527.94,682.96z M521.99,685.21  c-4.66-12.73-9.23-25.21-13.94-38.08C501.65,661.88,508.29,679.88,521.99,685.21z M561.11,645.84  c-0.94,13.46-7.8,24.99-10.96,37.49C558.72,680.92,569.92,662.53,561.11,645.84z"></path>	<path class="st12" d="M539.73,626.83c-0.64,0.65-1.25,0.66-1.82-0.09C538.51,626.78,539.12,626.8,539.73,626.83z"></path>	<path class="st12" d="M531.09,626.77c-0.19,0.32-0.39,0.34-0.6,0.02C530.69,626.71,530.89,626.7,531.09,626.77z"></path>	<path class="st15" d="M534.12,657.02c-0.04,0.6-0.07,1.19-0.11,1.79c-0.56,1.51-1.09,3.03-1.68,4.53  c-1.74,4.39-2.48,9.15-4.89,13.3c-3.08-9.23-6.16-18.46-9.24-27.7c-0.63-1.9-1.93-4.03,1.68-4.34c0.37-0.03,0.69-0.6,1.27-1.14  c-3.6-0.27-6.88-0.51-10.19-0.75c7.49-13.88,29.96-18.14,43.24-5.72c-5.16,2.4-6.4,5.46-3.17,10.22  c4.24,6.26,4.38,12.53,1.79,19.31c-1.17,3.05-1.9,6.27-3.41,9.57c-3.43-10.16-6.86-20.33-10.27-30.42c1.3-1.16,3.98,0.09,4-2.07  c0.01-0.81-2.52,0.07-3.84-0.25c-4.45-1.11-8.88-0.38-13.43,0.08c0.07,0.3,0.1,0.75,0.2,0.76c4.74,0.81,4.79,5.09,6.21,8.35  c0.2,0.47,0.45,0.91,0.68,1.37C533.05,655.06,533.45,656.09,534.12,657.02z"></path>	<path class="st16" d="M536.55,664.03c-0.06,0.15-0.02,0.28,0.11,0.39c0.43,1.23,0.87,2.46,1.3,3.7c2.02,5.56,3.96,11.15,6.1,16.66  c0.67,1.73,0.37,2.44-1.43,2.63c-2.8,0.3-5.25,1.93-8.23,1.81c-2.43-0.1-4.37-1.54-6.7-1.74c-0.97-0.08-0.97-0.82-0.67-1.62  c0.35-0.95,0.62-1.93,0.92-2.9c2.42-6.89,4.84-13.78,7.37-20.99C535.86,662.88,536.21,663.46,536.55,664.03z"></path>	<path class="st16" d="M521.99,685.21c-13.69-5.33-20.34-23.33-13.94-38.08C512.76,660,517.33,672.49,521.99,685.21z"></path>	<path class="st16" d="M561.11,645.84c8.81,16.69-2.38,35.08-10.96,37.49C553.3,670.83,560.17,659.3,561.11,645.84z"></path>	<path class="st12" d="M536.55,664.03c-0.35-0.58-0.7-1.15-1.25-2.06c-2.53,7.21-4.95,14.1-7.37,20.99  c-2.67-1.91-0.01-4.24-0.5-6.33c2.41-4.14,3.16-8.9,4.89-13.3c0.59-1.5,1.12-3.02,1.68-4.53  C537.42,660.16,538.21,661.78,536.55,664.03z"></path>	<path class="st12" d="M534.12,657.02c-0.67-0.93-1.07-1.97-1.18-3.11c1.27,0.12,2.13,0.79,2.36,2.04  C535.46,656.76,534.77,656.94,534.12,657.02z"></path>	<path class="st12" d="M537.96,668.12c-0.43-1.23-0.87-2.46-1.3-3.7C538.36,665.21,538.81,666.44,537.96,668.12z"></path></g></svg>