<svg xmlns="http://www.w3.org/2000/svg" id="Layer_1" data-name="Layer 1" viewBox="0 0 279.9 184.9"><defs><style>.cls-1{fill:none;}.cls-2{fill:#3a66af;}</style></defs><title>Domain Name_Transfer_Email</title><rect class="cls-1" width="279.9" height="184.9"></rect><path class="cls-2" d="M155.12,84.16h9.06c2.23,0,2.83.6,2.83,2.84,0,9.25,0,18.5,0,27.75a1.91,1.91,0,0,0,1.09,1.92q12.25,7.2,24.46,14.45c.43.26.88.5,1.28.79a3.7,3.7,0,0,1,1.48,4,3.27,3.27,0,0,1-3.23,2.44l-4.49.4-4.54.37c.23.4.36.71.55,1l5.32,7.61c2.35,3.37,1.74,7.49-1.42,9.65s-7.1,1.32-9.45-2l-5.73-8.16c-.05-.07-.15-.09-.33-.2q-1.8,3.83-3.57,7.64c-.94,2-2.08,2.86-3.65,2.7-1.76-.18-3-1.41-3.39-3.57-.6-3-1.15-6.07-1.74-9.21H84.25c-2.73,0-3.19-.46-3.19-3.14V87.26c0-2.62.48-3.1,3.09-3.1h11.6V82.4q0-9.3,0-18.59c0-2.31.6-2.9,2.93-2.9q26.79,0,53.59,0a4.69,4.69,0,0,0,2.39-.68,19.42,19.42,0,0,1,23.52,2.25c.78.73,1.36,1.51.85,2.63-.6,1.34-2.12,1.5-3.39.32a15.19,15.19,0,0,0-11.46-4.24,14.61,14.61,0,0,0-8.24,2.92,1.82,1.82,0,0,0-.78,1.16C155.11,71.47,155.12,77.71,155.12,84.16ZM151,65.07H99.8v1.57c0,9.57,0,19.13,0,28.7a2.33,2.33,0,0,0,1.06,2.14Q112,105.76,123,114.1c.65.49,1.3,1,2,1.43,8.11-6.37,16.1-12.71,24.17-19a4.27,4.27,0,0,0,2-3.94c-.17-8.65-.07-17.3-.08-26C151.05,66.15,151,65.62,151,65.07ZM87.43,140.38h71.4c-.38-2.13-.66-4.11-2-5.92-4.86-6.65-9.57-13.41-14.34-20.13-1.1-1.55-2.21-3.09-3.35-4.69-.44.32-.77.54-1.08.79L126.9,119.2c-1.64,1.29-2.14,1.29-3.84,0L110.82,110c-.38-.28-.79-.54-1.25-.85ZM165,153.21c.34-.66.53-1,.7-1.34,1.44-3.1,2.86-6.2,4.34-9.28.77-1.6,2.25-1.71,3.33-.3.36.47.69,1,1,1.45,2.25,3.2,4.47,6.42,6.74,9.61,1.53,2.14,4.27,2,5.32-.22a3.11,3.11,0,0,0-.48-3.33c-2.57-3.64-5.14-7.29-7.67-11-1.06-1.55-.45-2.9,1.41-3.11s4-.34,6-.51l5.78-.51-33.69-19.93C160.19,127.7,162.54,140.26,165,153.21ZM85.2,90.82v45.67l21.15-29.8Zm77.68.09c-7,5.51-13.76,10.83-20.54,16.16l13.51,19a2.39,2.39,0,0,0,.08-1.36c-.58-3.13-1.18-6.26-1.77-9.39-.29-1.52-.14-2.93,1.26-3.89a3.56,3.56,0,0,1,4.21.16c1,.64,2.07,1.22,3.25,1.9ZM95.67,88.32h-7l7,5.25Zm59.6,0v3.44l4.35-3.44Z"></path><path class="cls-2" d="M166.13,29.49a46.22,46.22,0,0,1,31.36,13,8,8,0,0,1,.87.88,1.85,1.85,0,0,1-.1,2.6,1.77,1.77,0,0,1-2.58.14c-.71-.57-1.33-1.24-2-1.85a43.18,43.18,0,0,0-58.59,1.12,8,8,0,0,1-.8.74,1.92,1.92,0,0,1-2.66-2.74,19.4,19.4,0,0,1,2.06-2C142.42,33.65,153.4,29.49,166.13,29.49Z"></path><path class="cls-2" d="M165,47.27a30.64,30.64,0,0,0-19.87,8.19c-.2.18-.39.38-.6.56a1.9,1.9,0,0,1-2.8,0,1.86,1.86,0,0,1,.12-2.79,47.88,47.88,0,0,1,4.95-4.06,32.83,32.83,0,0,1,40.59,3.33l.59.57c1,1,1.08,2,.29,2.9s-2,.88-3-.12A26.94,26.94,0,0,0,173.81,49C170.94,48.2,168,47.83,165,47.27Z"></path><path class="cls-2" d="M162.55,72.87a2.7,2.7,0,0,1,2.73-2.79,2.75,2.75,0,0,1,2.81,2.73,2.81,2.81,0,0,1-2.75,2.81A2.75,2.75,0,0,1,162.55,72.87Z"></path><path class="cls-2" d="M125,91.49h16.53c1.7,0,2.67.76,2.65,2.06s-1,2-2.58,2H108.16c-1.62,0-2.5-.78-2.48-2.08s.89-2,2.54-2Z"></path><path class="cls-2" d="M124.84,81.7H108c-1.52,0-2.39-.77-2.36-2a1.86,1.86,0,0,1,1.58-1.94,6.87,6.87,0,0,1,1.36-.1H141c.32,0,.64,0,.95,0a2.13,2.13,0,0,1,2.26,2.07,2.05,2.05,0,0,1-2.29,2Z"></path></svg>