<svg xmlns="http://www.w3.org/2000/svg" xmlns:xlink="http://www.w3.org/1999/xlink" id="Layer_1" x="0px" y="0px" viewBox="0 0 279.94 184.9" style="enable-background:new 0 0 279.94 184.9;" xml:space="preserve"><style type="text/css">	.st0{fill:none;}	.st1{fill:none;stroke:#D9DBDB;stroke-width:5;stroke-miterlimit:10;}	.st2{fill:#FFFFFF;}	.st3{fill:#1D262D;}	.st4{fill:#F9FBFC;}	.st5{font-family:'Nacelle-Heavy';}	.st6{font-size:15.8756px;}	.st7{fill:#4E4E4E;}	.st8{opacity:0.5;}	.st9{opacity:0.5;fill:#FFFFFF;}	.st10{fill:#363636;}</style><rect class="st0" width="279.94" height="184.9"></rect><g>	<g>		<path class="st1" d="M237.19,78.51H54.48c-7.04,0-12.79-5.76-12.79-12.79l0,0c0-7.04,5.76-12.79,12.79-12.79h182.71   c7.04,0,12.79,5.76,12.79,12.79l0,0C249.98,72.75,244.23,78.51,237.19,78.51z"></path>		<path class="st2" d="M237.19,78.51H54.48c-7.04,0-12.79-5.76-12.79-12.79l0,0c0-7.04,5.76-12.79,12.79-12.79h182.71   c7.04,0,12.79,5.76,12.79,12.79l0,0C249.98,72.75,244.23,78.51,237.19,78.51z"></path>		<path class="st3" d="M237.19,78.51h-36.38V52.92h36.38c7.04,0,12.79,5.76,12.79,12.79l0,0C249.98,72.75,244.23,78.51,237.19,78.51   z"></path>		<g>			<path class="st4" d="M225.19,65.52c-1.66,1.66-4.37,1.66-6.03,0c-1.66-1.66-1.66-4.37,0-6.03c1.66-1.66,4.37-1.66,6.03,0    C226.85,61.16,226.85,63.86,225.19,65.52z M220.05,60.39c-1.17,1.17-1.17,3.07,0,4.25c1.17,1.17,3.07,1.17,4.25,0    c1.17-1.17,1.17-3.07,0-4.25C223.12,59.22,221.22,59.22,220.05,60.39z"></path>							<rect x="224.85" y="64.77" transform="matrix(0.7071 -0.7071 0.7071 0.7071 19.4953 178.7137)" class="st4" width="1.26" height="2.11"></rect>			<path class="st4" d="M230.92,71.26c-0.37,0.37-0.97,0.37-1.34,0l-3.8-3.8c-0.37-0.37-0.37-0.97,0-1.34    c0.37-0.37,0.97-0.37,1.34,0l3.8,3.8C231.29,70.29,231.29,70.89,230.92,71.26z"></path>		</g>	</g>	<g>		<g>			<rect x="65.58" y="42.83" class="st1" width="74.81" height="41.97"></rect>			<rect x="65.58" y="42.83" class="st2" width="74.81" height="41.97"></rect>		</g>		<text transform="matrix(1 0 0 1 74.1853 69.3629)" class="st3 st5 st6">WWW</text>	</g>	<g>		<g>							<rect x="121.69" y="95.37" transform="matrix(0.8773 -0.4799 0.4799 0.8773 -35.4613 73.0763)" class="st7" width="7.06" height="21.07"></rect>			<path class="st3" d="M127.84,103.35l-3.8-6.95c-0.97,0.66-1.97,1.27-3.01,1.85s-2.11,1.08-3.18,1.54l3.8,6.95    c1.07-0.48,2.13-0.99,3.17-1.56C125.86,104.6,126.86,103.99,127.84,103.35z"></path>			<g class="st8">				<defs>											<ellipse id="SVGID_1_" transform="matrix(0.999 -0.0454 0.0454 0.999 -2.7858 4.7036)" class="st8" cx="102.1" cy="63.65" rx="36.27" ry="36.27"></ellipse>				</defs>				<use xlink:href="#SVGID_1_" style="overflow:visible;fill:#DADADA;"></use>				<clipPath id="SVGID_2_">					<use xlink:href="#SVGID_1_" style="overflow:visible;"></use>				</clipPath>			</g>			<path class="st9" d="M72.67,60.9c-0.4,0.22-0.88,0.32-1.37,0.24c-1.19-0.18-2-1.29-1.82-2.48c0.35-2.3,0.95-4.57,1.78-6.75    c0.43-1.12,1.68-1.69,2.8-1.26c1.12,0.43,1.69,1.68,1.26,2.8c-0.72,1.89-1.24,3.87-1.55,5.87C73.67,60.01,73.24,60.58,72.67,60.9    z"></path>			<path class="st9" d="M88.99,92.94c-0.61,0.33-1.37,0.37-2.04,0.03c-5.86-3.02-10.64-7.68-13.81-13.48    c-1.6-2.93-2.75-6.06-3.4-9.31c-0.24-1.18,0.52-2.32,1.7-2.56c1.18-0.24,2.32,0.52,2.56,1.7c0.57,2.82,1.56,5.54,2.95,8.08    c2.75,5.03,6.9,9.08,11.99,11.7c1.07,0.55,1.49,1.86,0.94,2.93C89.67,92.43,89.35,92.74,88.99,92.94z"></path>			<path class="st10" d="M80.91,24.9C59.51,36.6,51.65,63.44,63.35,84.85c11.71,21.4,38.54,29.26,59.95,17.56    c21.4-11.71,29.26-38.54,17.56-59.95C129.15,21.05,102.31,13.19,80.91,24.9z M119.51,95.47c-17.57,9.61-39.61,3.16-49.23-14.42    c-9.61-17.57-3.16-39.61,14.42-49.23c17.57-9.61,39.61-3.16,49.23,14.42C143.54,63.82,137.08,85.86,119.51,95.47z"></path>							<rect x="138.99" y="111.32" transform="matrix(0.8773 -0.4799 0.4799 0.8773 -50.5736 87.1771)" class="st3" width="12.49" height="62.39"></rect>							<rect x="141.19" y="112.86" transform="matrix(0.8773 -0.4799 0.4799 0.8773 -51.6579 86.0135)" class="st10" width="2.47" height="62.39"></rect>							<rect x="146.86" y="109.31" transform="matrix(0.8773 -0.4799 0.4799 0.8773 -49.1572 88.6976)" class="st3" width="4.11" height="62.39"></rect>		</g>	</g></g></svg>