<svg xmlns="http://www.w3.org/2000/svg" xmlns:xlink="http://www.w3.org/1999/xlink" id="Layer_1" x="0px" y="0px" viewBox="0 0 278.4 174.7" style="enable-background:new 0 0 278.4 174.7;" xml:space="preserve"><style type="text/css">	.st0{fill:#3A66AF;stroke:#3A66AF;stroke-width:3;stroke-miterlimit:10;}	.st1{fill:#3A66AF;}	.st2{fill:none;stroke:#3A66AF;stroke-width:2;stroke-miterlimit:10;}	.st3{fill:none;stroke:#000000;stroke-width:2;stroke-miterlimit:10;}	.st4{fill:none;stroke:#000000;stroke-miterlimit:10;}	.st5{fill:none;stroke:#3A66AF;stroke-width:4;stroke-miterlimit:10;}	.st6{fill:none;stroke:#3A66AF;stroke-miterlimit:10;}	.st7{fill:#FFFFFF;stroke:#3A66AF;stroke-width:2;stroke-miterlimit:10;}	.st8{fill:none;stroke:#3A66AF;stroke-width:3;stroke-miterlimit:10;}	.st9{fill:#1F558C;stroke:#20568C;stroke-width:0.75;stroke-miterlimit:10;}	.st10{fill:#1F558C;}	.st11{fill:#231F20;}	.st12{fill:none;stroke:#20568C;stroke-width:0.75;stroke-miterlimit:10;}	.st13{fill:none;stroke:#20568C;stroke-miterlimit:10;}	.st14{fill:#FFFFFF;}</style><g>	<g>		<path class="st5" d="M24.9,138.6c0-0.7,0-1.4,0-2c0-18.1,0-36.2,0-54.3c0-5.1,2-7.2,7.2-7.2c29.1,0,58.2,0,87.3,0   c3.9,0,6.4,2.3,6.4,5.9c0,18.9,0,37.9,0,56.8c0,0.2-0.1,0.5-0.1,0.8C92.2,138.6,58.7,138.6,24.9,138.6z M32.9,135.9   c28.4,0,56.6,0,84.8,0c0-18,0-35.8,0-53.7c-28.3,0-56.5,0-84.8,0C32.9,100.2,32.9,118,32.9,135.9z"></path>		<path class="st5" d="M75.4,141.4c19.6,0,39.1,0,58.7,0c2.9,0,3.4,0.4,3.4,3.4c0,4.9-2,6.9-6.9,6.9c-36.9,0-73.9,0-110.8,0   c-5.9,0-7.2-4.2-6.5-8.7c0.1-0.6,1.2-1.2,1.9-1.5c0.5-0.2,1.1-0.1,1.7-0.1C36.4,141.4,55.9,141.4,75.4,141.4z M63,144.1   c-0.2,2.6,1,4.4,3.1,4.4c6.2,0.1,12.3,0.1,18.5,0c2.3,0,3.6-2,3-4.4C79.4,144.1,71.3,144.1,63,144.1z"></path>	</g>	<g>		<path class="st5" d="M153.7,87.8c0-0.7,0-1.3,0-1.9c0-18.2,0-36.5,0-54.7c0-4.7,2.2-6.9,6.8-6.9c29.2,0,58.3,0,87.5,0   c4.2,0,6.6,2.2,6.6,6.3c0,18.8,0,37.5,0,56.3c0,0.3,0,0.6-0.1,1.1C221,87.8,187.5,87.8,153.7,87.8z M246.6,31.3   c-28.3,0-56.5,0-84.8,0c0,18,0,35.9,0,53.9c28.3,0,56.5,0,84.8,0C246.6,67.2,246.6,49.4,246.6,31.3z"></path>		<path class="st5" d="M204.2,90.6c19.6,0,39.1,0,58.7,0c3,0,3.4,0.4,3.4,3.4c0,4.7-2.1,6.8-6.8,6.8c-36.9,0-73.8,0-110.7,0   c-5.2,0-7.5-3.4-6.7-8.5c0.1-0.6,1.1-1.2,1.8-1.6c0.4-0.2,1-0.1,1.5-0.1C165,90.6,184.6,90.6,204.2,90.6z M191.8,93.4   c-0.2,2.5,0.9,4.2,3.2,4.3c6.1,0.1,12.2,0.1,18.3,0c2.3,0,3.6-2,3.1-4.3C208.2,93.4,200,93.4,191.8,93.4z"></path>	</g>	<g>		<path class="st2" d="M74.7,85.1c5.2,3.9,10.7,6.9,16.6,9.1c0.9,0.3,2,0.7,2.8,1.1c0.7,0.4,1.2,0.5,1.7,0.9   c1.5,1.1,3.8,4.2,3.8,4.2L85.3,132c-8.4-10.6-21.5-5.8-26.5-11.8L74.7,85.1z"></path>		<path class="st2" d="M92.1,102.5c2.8-2.3,5.7-3.4,7.2-1.7c-1.8-2.3-4.2-5.5-5.6-5.3C94.1,97.2,93.4,101.3,92.1,102.5z"></path>		<g>			<path class="st6" d="M73.3,98.8c7.3,1.9,13.1,7.3,18.9,8.5"></path>			<path class="st6" d="M71.8,102c7.3,1.9,13.1,7.3,18.9,8.5"></path>			<path class="st6" d="M70.4,105.2c7.3,1.9,13.1,7.3,18.9,8.5"></path>			<path class="st6" d="M68.9,108.5c7.3,1.9,13.1,7.3,18.9,8.5"></path>			<path class="st6" d="M67.4,111.7c7.3,1.9,13.1,7.3,18.9,8.5"></path>			<path class="st6" d="M66,114.9c7.3,1.9,13.1,7.3,18.9,8.5"></path>		</g>	</g>	<g>		<path class="st2" d="M199,34.1c5.2,3.9,10.7,6.9,16.6,9.1c0.9,0.3,2,0.7,2.8,1.1c0.7,0.4,1.2,0.5,1.7,0.9c1.5,1.1,3.8,4.2,3.8,4.2   L209.6,81c-8.4-10.6-21.5-5.8-26.5-11.8L199,34.1z"></path>		<path class="st2" d="M216.5,51.5c2.8-2.3,5.7-3.4,7.2-1.7c-1.8-2.3-4.2-5.5-5.6-5.3C218.4,46.2,217.8,50.2,216.5,51.5z"></path>		<g>			<path class="st6" d="M197.6,47.7c7.3,1.9,13.1,7.3,18.9,8.5"></path>			<path class="st6" d="M196.1,51c7.3,1.9,13.1,7.3,18.9,8.5"></path>			<path class="st6" d="M194.7,54.2c7.3,1.9,13.1,7.3,18.9,8.5"></path>			<path class="st6" d="M193.2,57.4c7.3,1.9,13.1,7.3,18.9,8.5"></path>			<path class="st6" d="M191.7,60.7c7.3,1.9,13.1,7.3,18.9,8.5"></path>			<path class="st6" d="M190.3,63.9c7.3,1.9,13.1,7.3,18.9,8.5"></path>		</g>	</g>	<g>		<path class="st7" d="M128.5,83.2c6.4-0.3,12.6-1.6,18.6-3.7c0.9-0.3,1.9-0.8,2.9-0.9c0.8-0.2,1.2-0.4,1.9-0.5   c1.8-0.1,5.6,0.8,5.6,0.8l9.4,33.4c-13.3-2.8-20.2,9.3-27.8,8L128.5,83.2z"></path>		<path class="st2" d="M153.1,85.3c0.7-3.5,2.2-6.2,4.5-5.9c-2.9-0.6-6.8-1.5-7.7-0.5C151.1,80,153.3,83.5,153.1,85.3z"></path>		<g>			<path class="st6" d="M136.2,94.5c6.8-3.2,14.7-2.8,19.9-5.6"></path>			<path class="st6" d="M137.2,97.9c6.8-3.2,14.7-2.8,19.9-5.6"></path>			<path class="st6" d="M138.1,101.3c6.8-3.2,14.7-2.8,19.9-5.6"></path>			<path class="st6" d="M139.1,104.8c6.8-3.2,14.7-2.8,19.9-5.6"></path>			<path class="st6" d="M140,108.2c6.8-3.2,14.7-2.8,19.9-5.6"></path>			<path class="st6" d="M141,111.6c6.8-3.2,14.7-2.8,19.9-5.6"></path>		</g>	</g></g></svg>