<svg xmlns="http://www.w3.org/2000/svg" id="Layer_1" data-name="Layer 1" viewBox="0 0 484.97 382.44"><defs><style>.cls-1,.cls-2{fill:#3a66af;}.cls-1,.cls-3,.cls-4{stroke:#3a66af;stroke-miterlimit:10;}.cls-1,.cls-4{stroke-width:3px;}.cls-3,.cls-4{fill:none;}.cls-3{stroke-width:6px;}</style></defs><title>Domain Checker_Custom_04-04</title><path class="cls-1" d="M245.52,29.72h3.11l3.49,0h3.11L367.49,30c3.49,2.59.51,4.5-.7,6.6H66.6c-11,0-12.47,1.47-12.5,12.27,0,12.65.65,25.34-.22,37.92C53.29,95.35,56.12,97,64.16,97c88.24-.26,176.48-.13,264.73-.11a2.15,2.15,0,0,0,3.12,0l32.67-.09c2.12,1.13,5.37,2.19,3.89,5.09s-5,1.36-7.57,1.37q-147.15.11-294.31.08c-3.54,0-7.08.37-10.61.57-3.86,2.25-1.87,6-1.88,8.88q-.2,109.71-.11,219.42c0,13.12,1.33,14.46,14.75,14.46H417c1.92,0,3.85.09,5.77,0,4.26-.22,7.37-2,8.18-6.53,1.82-13.65.71-27.37.79-41.05.2-36.56,0-73.12.07-109.68,0-3.82-1.59-10.63,6.44-5.44q0,75.33,0,150.67c0,11.95-3,15.88-14.4,19.26-1.91-.14-3.82-.4-5.73-.4q-178.81,0-357.63.05a13.28,13.28,0,0,1-12.92-12.93c-.27-13.73-.3-27.45-.43-41.18.1-20,.3-40,.28-60.06q-.06-97.93-.26-195.86c.06-1.11.13-2.21.19-3.31-.29-2.86,1.94-4.25,3.52-6,2.22-3.61,6-3.92,9.6-4.43l1.85-.08H78.55a17.34,17.34,0,0,0,8.44,0h13c7.66.15,15.32.44,23,.43q57.14-.15,114.27-.43l6.41,0Z"></path><path class="cls-1" d="M367.84,28.91a8.63,8.63,0,0,1-.35,1.09l-112.26-.32c1-.38,2-1.08,3-1.08Q313,28.71,367.84,28.91Z"></path><path class="cls-1" d="M252.12,29.69l-3.49,0C249.78,28.31,251,28.3,252.12,29.69Z"></path><path class="cls-1" d="M245.52,29.72l-1.85,0C244.31,28.54,244.93,28.6,245.52,29.72Z"></path><path class="cls-1" d="M328.89,96.87a2.52,2.52,0,0,1,3.13,0A2.16,2.16,0,0,1,328.89,96.87Z"></path><path class="cls-1" d="M239.15,269.75H98.83c-2.2,0-4.4,0-6.6-.08a3.21,3.21,0,0,1-3.29-3c-.16-2.25,1.36-3.45,3.58-3.57,1.92-.09,3.85-.07,5.77-.07l282.29,0h5.78c2.32,0,3.71,1.25,3.61,3.47s-1.61,3.3-3.9,3.23c-1.92-.06-3.85,0-5.78,0Z"></path><path class="cls-1" d="M238.82,300.89h142c2.2,0,4.41,0,6.6.16a2.84,2.84,0,0,1,2.6,2.71c.14,1.65-.62,3.37-2.54,3.64a49.67,49.67,0,0,1-6.58.23H99.38a20.34,20.34,0,0,1-2.47,0c-3-.36-7.81,1.44-7.85-3.34s4.8-3.32,7.77-3.33Q167.83,300.84,238.82,300.89Z"></path><path class="cls-1" d="M186,149.23H98.64c-1.92,0-3.85-.07-5.77,0-2.26,0-3.84-1-4-3.2s1.54-3.32,3.68-3.46c1.64-.1,3.29-.07,4.94-.07l175.6,0a4.59,4.59,0,0,1,.83,0c2.91.55,7.75-1.73,7.92,3.17s-4.69,3.44-7.6,3.46c-18.14.14-36.27.07-54.41.07Z"></path><path class="cls-1" d="M202.26,58.65a13.71,13.71,0,0,1,13.39,13.84A13.35,13.35,0,0,1,202.06,86c-7.56,0-13.92-6.85-13.47-14.6C189,64.43,195.37,58.48,202.26,58.65Z"></path><path class="cls-1" d="M162.76,72.24c-.07,7.42-6.37,13.82-13.48,13.71-7.46-.13-13.74-6.31-13.8-13.58S142,58.61,149.11,58.65C156.42,58.68,162.82,65.06,162.76,72.24Z"></path><path class="cls-1" d="M109.77,73.72c-.63,7-7.8,12.92-14.93,12.21s-13-7.88-12.25-15c.8-7.25,7.9-13.08,14.92-12.24S110.4,66.61,109.77,73.72Z"></path><path class="cls-2" d="M121.42,205.53a7.78,7.78,0,0,1-5.61,2.2c-5.48,0-7.79-3.78-7.81-7.61a7.42,7.42,0,0,1,7.81-7.78,7.62,7.62,0,0,1,5.42,2.26l-1.86,1.79a5,5,0,0,0-3.56-1.39,4.84,4.84,0,0,0-5.08,5.12,4.74,4.74,0,0,0,5.08,5,5.42,5.42,0,0,0,3.71-1.49Z"></path><path class="cls-2" d="M135.71,192.66v8.45c0,4.36-2.68,6.6-6.39,6.6-3.54,0-6.55-2.15-6.55-6.6v-8.45h2.76v8.45c0,2.65,1.52,4.07,3.82,4.07s3.6-1.54,3.6-4.07v-8.45Z"></path><path class="cls-2" d="M147.53,196.2a4.21,4.21,0,0,0-3.49-1.64c-2.07,0-3.06.86-3.06,2,0,1.28,1.52,1.64,3.29,1.85,3.07.38,5.94,1.18,5.94,4.7,0,3.29-2.91,4.7-6.2,4.7-3,0-5.33-.93-6.42-3.63l2.32-1.2a4.19,4.19,0,0,0,4.15,2.34c1.75,0,3.39-.61,3.39-2.21,0-1.39-1.45-2-3.41-2.17-3-.36-5.8-1.16-5.8-4.47,0-3,3-4.28,5.71-4.3,2.3,0,4.68.66,5.8,2.93Z"></path><path class="cls-2" d="M156.18,195.17H151.5v-2.53h12.14v2.53H159v12.22h-2.78Z"></path><path class="cls-2" d="M179.82,200.1c0,3.81-2.38,7.63-7.56,7.63s-7.59-3.73-7.59-7.61,2.49-7.78,7.59-7.78S179.86,196.24,179.82,200.1Zm-12.41.06c.06,2.42,1.37,5,4.85,5s4.78-2.62,4.82-5-1.35-5.27-4.82-5.27S167.35,197.67,167.41,200.16Z"></path><path class="cls-2" d="M194.72,196.71l-4.8,6.4h-.55l-4.7-6.43v10.73h-2.78V192.66h3.21l4.61,6.34,4.61-6.34h3.19v14.75h-2.79Z"></path><path class="cls-2" d="M200.14,207.39V192.64h2.77v14.75Z"></path><path class="cls-2" d="M205.29,192.64h11.34v1.3L209,204.75h7.65v2.64H205.1v-1.6l7.48-10.54h-7.29Z"></path><path class="cls-2" d="M229.31,207.39h-11V192.64h11v2.69H221v3.4h8v2.59h-8v3.33h8.28Z"></path><path class="cls-2" d="M244.45,199.89c.06,3.73-2.22,7.5-7.38,7.5h-5.79V192.64h5.79C242.13,192.64,244.38,196.24,244.45,199.89ZM234,204.71h3c3.35,0,4.68-2.44,4.62-4.84a4.4,4.4,0,0,0-4.62-4.6h-3Z"></path><path class="cls-2" d="M263.52,199.89c.06,3.73-2.21,7.5-7.37,7.5h-5.8V192.64h5.8C261.2,192.64,263.46,196.24,263.52,199.89Zm-10.41,4.82h3c3.35,0,4.67-2.44,4.61-4.84a4.39,4.39,0,0,0-4.61-4.6h-3Z"></path><path class="cls-2" d="M280.07,200.1c-.05,3.81-2.38,7.63-7.57,7.63s-7.58-3.73-7.58-7.61,2.48-7.78,7.58-7.78S280.11,196.24,280.07,200.1Zm-12.41.06c.06,2.42,1.36,5,4.84,5s4.79-2.62,4.83-5-1.35-5.27-4.83-5.27S267.59,197.67,267.66,200.16Z"></path><path class="cls-2" d="M295,196.71l-4.81,6.4h-.54l-4.7-6.43v10.73h-2.78V192.66h3.2L290,199l4.62-6.34h3.18v14.75H295Z"></path><path class="cls-2" d="M310.84,204.61h-7.71l-1.27,2.78h-3l6.62-14.75h3l6.62,14.75h-3ZM307,195.74,304.24,202h5.48Z"></path><path class="cls-2" d="M316.18,207.39V192.64h2.76v14.75Z"></path><path class="cls-2" d="M331.24,192.62H334v14.77H332.3v0l-7.76-10v9.95h-2.78V192.64H324l7.23,9.14Z"></path><rect class="cls-3" x="84.08" y="168.17" width="305.9" height="65.22" rx="23.72"></rect><circle class="cls-4" cx="356.91" cy="195.6" r="10.02"></circle><line class="cls-4" x1="362.47" y1="203.95" x2="369.63" y2="216.42"></line><rect class="cls-1" x="362.66" y="28.6" width="75.55" height="7.96"></rect><rect class="cls-1" x="362.66" y="96.69" width="75.55" height="6.5"></rect><rect class="cls-1" x="343" y="117.56" width="183.92" height="6.5" transform="translate(555.77 -314.15) rotate(90)"></rect></svg>