<svg xmlns="http://www.w3.org/2000/svg" id="Layer_1" data-name="Layer 1" viewBox="0 0 580.61 459.71"><defs><style>.cls-1{fill:#3a66af;}.cls-10,.cls-2,.cls-3,.cls-7,.cls-8{fill:none;}.cls-2,.cls-3{stroke:#3a66af;}.cls-10,.cls-2,.cls-3,.cls-4,.cls-7,.cls-8{stroke-miterlimit:10;}.cls-2{stroke-width:8px;}.cls-3{stroke-width:6px;}.cls-4,.cls-5{fill:#1f558c;}.cls-10,.cls-4,.cls-7,.cls-8{stroke:#20568c;}.cls-6{fill:#231f20;}.cls-7{stroke-width:2px;}.cls-9{fill:#fff;}.cls-10{stroke-width:0.75px;}</style></defs><title>Domain Checker_Image_03</title><path class="cls-1" d="M47.68,182q0-48.16,0-96.32c0-6.39,1.26-12.52,4.81-18,6.17-9.48,14.94-15.28,26.68-15.45,68.2-1,136.41-.32,204.61-.44A33,33,0,0,1,317.35,85.1q.09,35.28,0,70.57a12,12,0,0,0,2.13,7.17c6.68,9.86,14.48,18.56,25.35,24.32A68.23,68.23,0,0,0,377,194.87c7.46,0,8.14.55,9,7.63a140.84,140.84,0,0,1-9.64,71.16c-11.14,27-30.07,47.65-55.26,63.17-4.25,2.61-8.67,4.92-13.07,7.29a5.82,5.82,0,0,1-5.81,0,147.87,147.87,0,0,1-33.05-22.31,102.22,102.22,0,0,1-7.77-7.52c-1.81-2-3.81-2.6-6.48-2.6q-43.87.11-87.76,0c-26.53,0-53,.05-79.58-.07-5.17,0-10.41.13-15.49-1.31-14.7-4.19-24.36-16.59-24.37-31.56q-.06-48.4,0-96.82Zm8.15,11.91h0q0,42.35,0,84.69a28,28,0,0,0,.34,5.18c2.29,11.77,12.55,20,25.06,20q40.42,0,80.86,0,43.38,0,86.75,0c.74,0,1.73.36,2.16-.31s-.45-1.31-.88-1.87a136.15,136.15,0,0,1-16-26.44c-1.32-2.85-1.34-2.8-4.07-1.11-20.39,12.59-42.49,16.6-66.14,11.78a83.62,83.62,0,0,1-45.31-25.38c-17.42-18.67-25-40.7-22.18-65.67,2.41-21.66,12.34-39.84,29.45-54.09,19.19-16,41.59-22.79,66.66-19.9,36.06,4.15,64.43,28.36,73.76,62.07.75,2.72.89,2.78,3.26,1.23.35-.23.69-.48,1-.72,10.32-7.05,17.67-16.61,24.3-26.8a50,50,0,0,1,5.32-7.25c1.72-1.82,3.91-2.68,6.23-1.85,2.82,1,2.68-.44,2.68-2.28,0-12.14,0-24.27,0-36.41,0-4.51,0-4.52-4.77-4.52l-227,0c-6.12,0-12.23-.28-18.36-.19-2.95,0-3.25,1.09-3.25,3.45Q55.9,150.71,55.83,193.92Zm126.7-97.58v0H295.38c3.76,0,7.51-.07,11.26,0,1.9,0,2.57-.7,2.53-2.49-.08-3.46,0-6.93,0-10.4-.18-12.78-11.41-23.66-24.65-23.67q-102-.07-204,0A24.81,24.81,0,0,0,57.05,76.19c-1.91,5.33-1,10.79-1.19,16.2-.13,3.94,0,4,4.09,4Zm47.94,126a73.5,73.5,0,0,0,.66,12.41,121.7,121.7,0,0,0,17.09,49.64c13.24,21.9,31.51,38.78,54.43,51a4.36,4.36,0,0,0,4.73,0c5.3-3,10.59-6,15.62-9.41,22.89-15.59,39.15-36,48.19-61.72a139.79,139.79,0,0,0,7.45-39.3,112.65,112.65,0,0,0-.72-19.77c-.2-1.58-.82-2.33-2.58-2.33-1.95,0-3.91-.24-5.86-.41-16.33-1.49-30.64-7.36-42.62-18.35-7.7-7.07-13.42-15.56-18.89-24.23-2.72-4.3-2.79-4.35-5.56,0-5.28,8.23-11,16.1-18.27,22.84C270.32,195.53,253.67,202,234.6,202.8c-2.12.09-2.83,1-3,2.8A111,111,0,0,0,230.47,222.31ZM205.86,204c-.15-4.85.08-9.55-.34-14.25-.17-1.86-.9-2.61-3-2.82-4.42-.43-8.86-.23-13.28-.53-9.21-.65-18.39.08-27.57.61a2.15,2.15,0,0,0-2.33,2.34,267.77,267.77,0,0,0,0,29.17c.1,1.85,1,2.52,2.88,2.63a370,370,0,0,0,40.38,0c1.75-.09,2.56-.66,2.78-2.43C206,213.72,205.66,208.77,205.86,204Zm-54.64-12.66c.52-3.12-.72-3.46-2.42-3.24-10.74,1.41-21.42,3.11-31.64,6.75-4.08,1.45-8.12,3.07-11.34,6.05-2.41,2.22-2.36,4.11.07,6.33a23.08,23.08,0,0,0,6.45,4c11.9,5.12,24.57,7.21,37.37,8.78,1.44.18,1.8-.53,1.7-1.74A231,231,0,0,1,151.22,191.31Zm31.08-39c-4.91.37-9.84.75-14.77,1.1A3,3,0,0,0,164.6,156q-2.43,10-3.9,20.18c-.37,2.56.57,3,2.82,2.83,4-.25,8-.46,12-.5,8.69-.08,17.4-.27,26.07.5,2.41.22,2.94-.63,2.64-2.79a189.65,189.65,0,0,0-3.92-20.18,3.17,3.17,0,0,0-3.2-2.63Zm.37,103a98.2,98.2,0,0,0,14.81-.93c1.19-.14,2.13-.4,2.49-1.68a138.71,138.71,0,0,0,4.25-21.83c.17-1.43-.35-2.08-2-2a264,264,0,0,1-39.77-.06c-1.47-.12-2,.27-1.8,1.78a155.42,155.42,0,0,0,4.11,21.36,3,3,0,0,0,3,2.45A109.8,109.8,0,0,0,182.67,255.26Zm-75.83-65c.75.36,1.16,0,1.6-.23a93,93,0,0,1,16.64-5.59A207.44,207.44,0,0,1,150,180.12c1.46-.18,2.34-.69,2.5-2.24a165.33,165.33,0,0,1,3.34-19.76c.52-2.24-.5-2.42-2.33-1.93-14.56,3.88-27.74,10.13-38.13,21.06A39.88,39.88,0,0,0,106.84,190.23Zm.26,27.44a40.47,40.47,0,0,0,11.51,16.2c10,8.93,21.91,14.4,34.92,17.82,2.54.66,2.82.37,2.2-2.25a132.8,132.8,0,0,1-3.14-18.53c-.2-2.32-1.2-3-3.45-3.28a166.27,166.27,0,0,1-26.85-4.83A143.54,143.54,0,0,1,107.1,217.67ZM257.55,190a39.47,39.47,0,0,0-11-15.63c-10.21-9.23-22.47-14.78-35.81-18.35-1.93-.52-2.18,0-1.75,1.73a152.29,152.29,0,0,1,3.42,19.51c.22,1.94.95,2.69,2.92,2.91a194.32,194.32,0,0,1,24.91,4.25A140.8,140.8,0,0,1,257.55,190ZM113.82,167.5c.94-.61,1.38-.84,1.76-1.15a88.43,88.43,0,0,1,38-18c4.3-1,6.33-2.81,7.49-6.66,1.24-4.17,3.65-7.91,5.91-11.78C151.56,129,121.62,150.12,113.82,167.5Zm-.22,72.43c5.86,16.07,36.57,38,53.36,38.12a59,59,0,0,1-7-14.35c-.66-2.12-1.94-3-4.1-3.42a94.61,94.61,0,0,1-17.3-5.25A86.3,86.3,0,0,1,113.6,239.93ZM198,129.84a64.8,64.8,0,0,1,7,14.34,4.7,4.7,0,0,0,4,3.48c15,3.31,28.84,9,40.61,18.84.25.2.57.42.88.05C244.5,151.29,214.53,130.16,198,129.84Zm45.47,64c-.24-.26-.32-.45-.45-.49-8.89-2.75-18.06-4.13-27.28-5.29-1.56-.2-2.2.52-2.11,2,.16,2.64.39,5.27.42,7.9a185.3,185.3,0,0,1-.37,19.29c-.09.9-.49,2.44.8,2.53a14.73,14.73,0,0,0,7-1c1.45-.64,1.07-2.49,1.12-3.84a111.63,111.63,0,0,1,2-16.19c.47-2.5,2-3.71,4.57-3.82,1.27-.06,2.55,0,3.83,0A41.52,41.52,0,0,0,243.42,193.87ZM200,278l1.36-.31a79,79,0,0,0,25.07-10.77c3.41-2.22,3.38-2.25,2.11-6.11-.41-1.26-.85-2.51-1.15-3.79-.37-1.63-1.19-1.91-2.75-1.31A101.4,101.4,0,0,1,208,260.55c-1,.2-2,.46-2.38,1.59a69.94,69.94,0,0,1-6.7,14.39C198.31,277.54,198.56,278.08,200,278Zm-5.91-132.65c2.5.09,2.69-.16,1.57-2.86a38.19,38.19,0,0,0-6.69-11c-4.09-4.52-8.34-4.6-12.66-.31-3.33,3.31-5.26,7.45-7.13,11.6-1.15,2.54-1,2.82,2,2.56A125.26,125.26,0,0,1,194.09,145.33ZM170,262.54c-1.64-.12-1.87.09-1.24,1.62,2,4.75,4.21,9.36,8.1,13s7.23,3.71,11.1.09,6.07-8.29,8.08-13c.57-1.35.15-1.8-1.34-1.64A115.23,115.23,0,0,1,170,262.54Zm50.33-35.36c-2,.23-4.06.43-6.08.7a1.7,1.7,0,0,0-1.67,1.58,190.42,190.42,0,0,1-3.63,21.2c-.3,1.31.13,1.64,1.45,1.28a121.42,121.42,0,0,0,12.82-4.18,1.86,1.86,0,0,0,1.25-2.36,119.18,119.18,0,0,1-1.92-16.19C222.53,227.8,221.89,227.05,220.36,227.18Z"></path><path class="cls-1" d="M233.71,82q-23,0-46.06,0c-4,0-6.25-1.42-6.27-3.94s2.26-4,6.27-4q45.91,0,91.85,0a14.15,14.15,0,0,1,3.06.18,3.83,3.83,0,0,1,0,7.55,14.06,14.06,0,0,1-3.05.18h-45.8Z"></path><path class="cls-1" d="M126.37,65.15a13.36,13.36,0,0,1,13.4,12.72c.13,6.86-6.2,13-13.35,13S113.24,85,113.18,78.29A13.26,13.26,0,0,1,126.37,65.15ZM126.12,83c3.08.15,5.32-1.74,5.47-4.61a5,5,0,0,0-5-5.42,5.41,5.41,0,0,0-5.47,4.82A5.09,5.09,0,0,0,126.12,83Z"></path><path class="cls-1" d="M173.66,78a13.12,13.12,0,1,1-13.07-12.82A12.88,12.88,0,0,1,173.66,78ZM160.6,83a5,5,0,1,0,0-9.93,5,5,0,0,0-5.32,5.08A5,5,0,0,0,160.6,83Z"></path><path class="cls-1" d="M105.54,78.17A13.13,13.13,0,0,1,92.27,90.86a12.85,12.85,0,1,1,.31-25.69A13.1,13.1,0,0,1,105.54,78.17ZM92.38,83a5,5,0,0,0,5.31-4.86,5.53,5.53,0,0,0-5.36-5.29,5.24,5.24,0,0,0-5.21,5C87.07,80.93,89.18,83,92.38,83Z"></path><path class="cls-1" d="M373.73,219.59c-.37,25.91-6.65,50.14-21.92,71.79-11.52,16.35-26.68,28.78-44.36,38.5a5.06,5.06,0,0,1-5.3-.16c-31.56-17.5-52.92-42.63-61.8-77.15A146.68,146.68,0,0,1,236,214.29a19.1,19.1,0,0,1,.25-2.71c.45-3,1.55-4,4.59-4.33a78.54,78.54,0,0,0,35-11.61c10.11-6.37,18-14.86,24.6-24.51,3.11-4.54,5.8-4.58,8.87-.09,8.1,11.82,18,21.7,31.23,28.25a83.1,83.1,0,0,0,28.08,7.89c3.71.41,4.94,1.65,5.06,5.23C373.79,214.8,373.73,217.2,373.73,219.59Zm-8.23,2.78a41.23,41.23,0,0,1,0-4.45c.29-2.47-.9-3.32-3.27-3.62a77.38,77.38,0,0,1-14.39-3.39c-16.85-5.57-30.17-15.72-40.79-29.39-2.19-2.81-2.17-2.79-4.39.13a84.25,84.25,0,0,1-55.75,32.72c-2,.27-2.74,1.09-2.74,3.07a144.54,144.54,0,0,0,1.05,17,114.23,114.23,0,0,0,12.6,41c10.44,19.52,26,34.31,45.32,45.59a3.1,3.1,0,0,0,3.53,0,124,124,0,0,0,33.16-27.62C357.11,272.73,364.55,248.64,365.5,222.37Z"></path><path class="cls-1" d="M272.86,267.27c0-5.53,0-11.06,0-16.58,0-6.05,2.5-9.42,8.43-11.15C283,239,283,238,283,236.73c0-6.44,0-12.88,0-19.31,0-6.12,3.15-9.15,9.45-9.17q12.27,0,24.56,0c6.73,0,9.9,2.93,10,9.48.11,6.19.09,12.38,0,18.57,0,1.93.5,2.9,2.58,3.5a9.68,9.68,0,0,1,7.3,9.67q.07,17.84,0,35.66a10,10,0,0,1-8.86,10,70.63,70.63,0,0,1-13.79.27c-10-.43-19.95-.12-29.92-.23-7.34-.08-11.43-3.94-11.49-11,0-2.8,0-5.61,0-8.42v-8.42Zm32.2-20.21c-6.56,0-13.13,0-19.7,0-3.48,0-4.23.74-4.24,4.06q0,16.1,0,32.19c0,3.32.76,4.06,4.24,4.06q19.71,0,39.4,0c3.2,0,3.86-.66,3.87-3.84q0-16.35,0-32.69c0-3.19-.59-3.76-3.89-3.77C318.2,247.05,311.63,247.07,305.06,247.06Zm-.16-7.71h0c3.75,0,7.5-.06,11.25,0,2,.05,2.71-.73,2.69-2.63q-.1-9,0-18.05c0-1.81-.64-2.5-2.53-2.49q-11.24.09-22.49,0c-1.86,0-2.58.7-2.56,2.49q.09,9,0,18.06c0,1.89.64,2.68,2.66,2.62C297.57,239.27,301.24,239.35,304.9,239.35Z"></path><path class="cls-1" d="M315.89,262.53a9.88,9.88,0,0,1-4.51,8,4.29,4.29,0,0,0-2.24,4.32,22.72,22.72,0,0,1-.08,4.44,4.16,4.16,0,0,1-4.34,3.7c-2.3-.18-3.69-1.68-3.81-4.15a14.4,14.4,0,0,1,0-2c.27-2.84-.29-5-3-6.91a9.74,9.74,0,0,1-2.6-12.71,11,11,0,0,1,20.62,5.31Zm-8.31-.53a2.54,2.54,0,0,0-2.5-2.48,2.52,2.52,0,1,0-.17,5C306.52,264.61,307.31,263.59,307.58,262Z"></path><polyline class="cls-2" points="239.06 380.98 239.06 362.31 178.44 342.72 178.44 308.82"></polyline><polyline class="cls-2" points="471.99 351.28 471.99 321.28 411.37 301.69 411.37 267.78 373.75 267.78"></polyline><polyline class="cls-2" points="406.79 116.67 388.91 166.65 349.39 156.6 332.44 184.13"></polyline><rect class="cls-3" x="332.22" y="63.73" width="165.19" height="53.07" rx="26.53"></rect><path class="cls-1" d="M350.27,89.05V75H360.7v2.55H353v3.83h7.27v2.45H353v5.19Z"></path><path class="cls-1" d="M375.31,75v8c0,4.16-2.63,6.28-6.28,6.28-3.48,0-6.45-2-6.45-6.28V75h2.72v8c0,2.53,1.49,3.88,3.75,3.88s3.55-1.47,3.55-3.88V75Z"></path><path class="cls-1" d="M380.72,75V86.6h7.47v2.45H378V75Z"></path><path class="cls-1" d="M392.85,75V86.6h7.46v2.45h-10.2V75Z"></path><path class="cls-1" d="M357.11,102.57H353v4.13h-2.74v-14l6.84,0A5,5,0,1,1,357.11,102.57Zm-4.1-2.43h4.1a2.49,2.49,0,1,0,0-5H353Z"></path><path class="cls-1" d="M377.16,106.7H373.9L369.67,102H367v4.69H364.3V92.64l6.91,0c3.42,0,5.22,2.23,5.22,4.65a4.2,4.2,0,0,1-3.67,4.42l4.4,4.79ZM367,95.13v4.49h4.17a2.26,2.26,0,1,0,0-4.49Z"></path><path class="cls-1" d="M392.54,99.76A7,7,0,0,1,385.1,107c-5.1,0-7.47-3.55-7.47-7.24a7.46,7.46,0,0,1,14.91,0Zm-12.21.06c.06,2.31,1.35,4.78,4.77,4.78s4.7-2.49,4.74-4.8-1.32-5-4.74-5A4.62,4.62,0,0,0,380.33,99.82Z"></path><path class="cls-1" d="M397.45,95.07h-4.6V92.66h11.94v2.41h-4.6V106.7h-2.74Z"></path><path class="cls-1" d="M417.27,106.7H406.41v-14h10.86v2.57h-8.15v3.23H417v2.46h-7.86v3.17h8.15Z"></path><path class="cls-1" d="M432.18,104.94a7.8,7.8,0,0,1-5.52,2.08c-5.39,0-7.67-3.59-7.69-7.24s2.45-7.4,7.69-7.4A7.63,7.63,0,0,1,432,94.52l-1.82,1.71a5.1,5.1,0,0,0-3.51-1.32,4.67,4.67,0,0,0-5,4.87c0,2.33,1.41,4.76,5,4.76a5.45,5.45,0,0,0,3.65-1.43Z"></path><path class="cls-1" d="M437.26,95.07h-4.61V92.66h12v2.41H440V106.7h-2.73Z"></path><path class="cls-1" d="M446.27,106.7v-14H449v14Z"></path><path class="cls-1" d="M466.26,99.76a7,7,0,0,1-7.44,7.26c-5.1,0-7.47-3.55-7.47-7.24a7.46,7.46,0,0,1,14.91,0Zm-12.21.06c.06,2.31,1.35,4.78,4.77,4.78s4.7-2.49,4.74-4.8-1.32-5-4.74-5A4.62,4.62,0,0,0,454.05,99.82Z"></path><path class="cls-1" d="M477.81,92.64h2.73V106.7h-1.7v0l-7.63-9.49v9.47h-2.73v-14h2.22l7.11,8.71Z"></path><rect class="cls-3" x="386.88" y="351.38" width="165.19" height="53.07" rx="26.53"></rect><path class="cls-1" d="M204.65,404.89c.08,4.15-2.54,8.35-8.48,8.35H189.5V396.82h6.67C202,396.82,204.58,400.83,204.65,404.89Zm-12,5.37h3.49a5.26,5.26,0,1,0,0-10.51h-3.49Z"></path><path class="cls-1" d="M223.68,405.12c-.05,4.25-2.74,8.5-8.7,8.5s-8.73-4.16-8.73-8.47a8.72,8.72,0,0,1,17.43,0Zm-14.28.07c.08,2.7,1.58,5.59,5.58,5.59s5.5-2.91,5.55-5.61S219,399.3,215,399.3,209.33,402.42,209.4,405.19Z"></path><path class="cls-1" d="M240.82,401.35l-5.53,7.13h-.63l-5.4-7.16v11.94h-3.2V396.84h3.68l5.31,7.06,5.31-7.06H244v16.42h-3.2Z"></path><path class="cls-1" d="M259.07,410.14H250.2l-1.45,3.1h-3.47l7.61-16.42h3.49L264,413.24H260.5Zm-4.43-9.87-3.15,7h6.3Z"></path><path class="cls-1" d="M265.21,413.24V396.82h3.17v16.42Z"></path><path class="cls-1" d="M282.54,396.79h3.2v16.45h-2v0l-8.92-11.09v11.07h-3.2V396.82h2.59L282.54,407Z"></path><rect class="cls-3" x="174.3" y="383.25" width="126.64" height="43.6" rx="21.8"></rect><path class="cls-4" d="M430.81,367l-6.56,23.26h-3.2l-4.79-17a10.69,10.69,0,0,1-.37-2.37h-.06a12.22,12.22,0,0,1-.43,2.34l-4.81,17h-3.17L400.61,367h3l4.95,17.84a12.7,12.7,0,0,1,.39,2.34H409a13.65,13.65,0,0,1,.5-2.34L414.67,367h2.62l4.93,18a13.87,13.87,0,0,1,.39,2.18h.06a13.49,13.49,0,0,1,.44-2.24L427.86,367Z"></path><path class="cls-4" d="M445.64,382.59H433.91a6.19,6.19,0,0,0,1.49,4.28,5.13,5.13,0,0,0,3.93,1.51,8.13,8.13,0,0,0,5.16-1.85V389a9.64,9.64,0,0,1-5.79,1.59,7,7,0,0,1-5.54-2.26,9.27,9.27,0,0,1-2-6.37,9.13,9.13,0,0,1,2.2-6.32,7.05,7.05,0,0,1,5.46-2.44,6.23,6.23,0,0,1,5,2.11,8.81,8.81,0,0,1,1.79,5.86Zm-2.73-2.25a5.42,5.42,0,0,0-1.11-3.59,3.79,3.79,0,0,0-3-1.28,4.31,4.31,0,0,0-3.2,1.35,6.15,6.15,0,0,0-1.62,3.52Z"></path><path class="cls-5" d="M457,368a3.47,3.47,0,0,0-1.77-.44q-2.79,0-2.79,3.52v2.56h3.89v2.27h-3.89v14.34h-2.64V375.89H447v-2.27h2.84v-2.69a5.58,5.58,0,0,1,1.51-4.13,5.09,5.09,0,0,1,3.76-1.52,5.33,5.33,0,0,1,1.93.29Z"></path><path class="cls-5" d="M459.76,369.4a1.71,1.71,0,0,1-1.22-.48,1.73,1.73,0,0,1,1.22-3,1.7,1.7,0,0,1,1.24.49,1.67,1.67,0,0,1,.51,1.24,1.64,1.64,0,0,1-.51,1.22A1.71,1.71,0,0,1,459.76,369.4Zm1.3,20.83H458.4V373.62h2.66Z"></path><path class="cls-5" d="M473.32,390.07a5.22,5.22,0,0,1-2.48.52q-4.36,0-4.37-4.87v-9.83h-2.85v-2.27h2.85v-4.05l2.66-.86v4.91h4.19v2.27h-4.19v9.36a3.9,3.9,0,0,0,.57,2.39,2.29,2.29,0,0,0,1.88.71,2.8,2.8,0,0,0,1.74-.55Z"></path><path class="cls-6" d="M489.83,390.23h-2.66v-9.57q0-5.19-3.86-5.19A4.22,4.22,0,0,0,480,377a5.57,5.57,0,0,0-1.33,3.85v9.41H476V365.64h2.66v10.74h.07a6,6,0,0,1,5.45-3.15q5.61,0,5.61,6.77Z"></path><path class="cls-6" d="M517.81,389.63v-2.85a7.89,7.89,0,0,0,4.79,1.6c2.34,0,3.5-.78,3.5-2.33a2,2,0,0,0-.3-1.13,3,3,0,0,0-.81-.82,6.14,6.14,0,0,0-1.2-.64c-.46-.19-.95-.39-1.48-.59a20.18,20.18,0,0,1-1.94-.89,5.83,5.83,0,0,1-1.4-1,3.84,3.84,0,0,1-.84-1.28,4.46,4.46,0,0,1-.28-1.67,3.94,3.94,0,0,1,.53-2.07,4.65,4.65,0,0,1,1.43-1.5,6.38,6.38,0,0,1,2-.92,8.89,8.89,0,0,1,2.36-.31,9.46,9.46,0,0,1,3.86.75v2.69a7.5,7.5,0,0,0-4.21-1.2,5.09,5.09,0,0,0-1.35.17,3.16,3.16,0,0,0-1,.48,2.12,2.12,0,0,0-.66.74,1.89,1.89,0,0,0-.24.95,2.21,2.21,0,0,0,.24,1.08,2.29,2.29,0,0,0,.69.78,5.39,5.39,0,0,0,1.1.62l1.47.6a18.83,18.83,0,0,1,2,.87,6.53,6.53,0,0,1,1.5,1,4,4,0,0,1,1,1.29,4.22,4.22,0,0,1,.33,1.74,4,4,0,0,1-.55,2.14,4.64,4.64,0,0,1-1.45,1.51,6.7,6.7,0,0,1-2.09.89,10.59,10.59,0,0,1-2.48.29A9.45,9.45,0,0,1,517.81,389.63Z"></path><path class="cls-6" d="M539.79,390.07a5.19,5.19,0,0,1-2.48.52q-4.37,0-4.37-4.87v-9.83h-2.85v-2.27h2.85v-4.05l2.67-.86v4.91h4.18v2.27h-4.18v9.36a3.91,3.91,0,0,0,.56,2.39,2.29,2.29,0,0,0,1.88.71,2.78,2.78,0,0,0,1.74-.55Z"></path><path class="cls-7" d="M505.39,369.34h0a13.55,13.55,0,0,0-11.55,7h0a8.25,8.25,0,0,0,.2,8.25l1.58,2.6a8.26,8.26,0,0,0,7.24,3.95l3-.07a8.26,8.26,0,0,0,7.05-4.29l1.46-2.68a8.23,8.23,0,0,0-.2-8.24l-1.58-2.6A8.26,8.26,0,0,0,505.39,369.34Z"></path><path class="cls-8" d="M509.88,383.51c-3,3.23-7,3.54-10.24.83-.18-.15,0-.3.19-.4,2.65,2.07,6.74,1.82,10.05-.43"></path><path class="cls-9" d="M509.88,383.51c-2.8,3.07-8,3.15-10.25.59-.16-.18-.12,0,0-.06,2.66,2.34,6.91,2,10.21-.53"></path><line class="cls-10" x1="499.89" y1="382.77" x2="498.87" y2="384.98"></line><line class="cls-10" x1="509.41" y1="382.72" x2="510.37" y2="384.68"></line><path class="cls-5" d="M507,379.82h-.39l-.06-2.3-.93-.94-.17-7.34a1.54,1.54,0,0,1,.37,0l.17,7.14.95.93Z"></path><polygon class="cls-5" points="503.65 369.29 503.83 376.92 502.93 377.9 502.98 380.03 502.98 380.18 502.61 380.19 502.6 380 502.55 377.74 503.43 376.74 503.26 369.36 503.65 369.29"></polygon><path class="cls-5" d="M504.93,378.19h-.39l-.22-9a.82.82,0,0,1,.22,0,.5.5,0,0,1,.17,0Z"></path><path class="cls-5" d="M508.26,378.49l-1.2-1.22-.18-7.77a.83.83,0,0,1,.37.08l.18,7.52,1,1,.12.13Z"></path><path class="cls-5" d="M501.11,378.45l-.34-.19.31-.33.9-1-.17-7.21a2.48,2.48,0,0,1,.39-.1l.17,7.48-1,1.13Z"></path><path class="cls-5" d="M503.46,380.72A.72.72,0,0,0,503,380a.64.64,0,0,0-.23,0,.39.39,0,0,0-.15,0,.76.76,0,0,0-.55.75.74.74,0,0,0,.73.74A.73.73,0,0,0,503.46,380.72Zm-1.09,0a.4.4,0,1,1,.79,0,.4.4,0,1,1-.79,0Z"></path><path class="cls-5" d="M505.46,378.78a.73.73,0,0,0-.53-.7.75.75,0,0,0-.2,0,.71.71,0,0,0-.2,0,.73.73,0,0,0-.5.73.75.75,0,0,0,.74.74A.74.74,0,0,0,505.46,378.78Zm-1.1,0a.41.41,0,0,1,.38-.44.44.44,0,0,1,.42.42.44.44,0,0,1-.4.43A.4.4,0,0,1,504.36,378.81Z"></path><path class="cls-5" d="M500.94,376h-.34l-.14-6.15a1.35,1.35,0,0,1,.33-.18Z"></path><path class="cls-5" d="M501.27,376.45a.47.47,0,0,0-.33-.48l0,0-.15,0-.12,0s0,0,0,0a.5.5,0,0,0-.32.49.5.5,0,1,0,1,0Zm-.76,0a.28.28,0,0,1,.26-.31.29.29,0,0,1,.29.3.28.28,0,0,1-.28.3A.27.27,0,0,1,500.51,376.47Z"></path><path class="cls-5" d="M508.3,369.13l.16,6.71h.33l-.15-6.39Z"></path><path class="cls-5" d="M509.14,376.26a.52.52,0,0,0-.35-.48l0,0h-.12a.25.25,0,0,0-.13,0,0,0,0,0,0,0,0,.53.53,0,0,0-.33.5.5.5,0,0,0,.51.51A.52.52,0,0,0,509.14,376.26Zm-.79,0a.3.3,0,0,1,.28-.31.29.29,0,0,1,.29.3.29.29,0,0,1-.27.31A.31.31,0,0,1,508.35,376.28Z"></path><path class="cls-5" d="M507.52,380.32a.69.69,0,0,0-.56-.72l-.17,0a.64.64,0,0,0-.23.05.75.75,0,0,0-.44.72.7.7,0,1,0,1.4,0Zm-1.1,0a.44.44,0,0,1,.38-.45.42.42,0,0,1,.42.43.41.41,0,0,1-.4.42A.42.42,0,0,1,506.42,380.35Z"></path><path class="cls-5" d="M510.3,379.06a1.13,1.13,0,0,0-1.14-1.12,1,1,0,0,0-.58.19,1.18,1.18,0,0,0-.38.48,1.08,1.08,0,0,0-.1.51,1.13,1.13,0,0,0,1.11,1.15A1.15,1.15,0,0,0,510.3,379.06Zm-1.73.05a.63.63,0,1,1,.63.66A.65.65,0,0,1,508.57,379.11Z"></path><path class="cls-5" d="M501.53,379.27a1.13,1.13,0,0,0-1.14-1.12,1,1,0,0,0-.58.19,1.27,1.27,0,0,0-.38.48,1.08,1.08,0,0,0-.1.51,1.14,1.14,0,0,0,1.12,1.15A1.15,1.15,0,0,0,501.53,379.27Zm-1.72,0a.63.63,0,0,1,.59-.66.67.67,0,0,1,0,1.33A.64.64,0,0,1,499.81,379.31Z"></path></svg>