<svg xmlns="http://www.w3.org/2000/svg" xmlns:xlink="http://www.w3.org/1999/xlink" id="Layer_1" x="0px" y="0px" viewBox="0 0 279.9 184.9" style="enable-background:new 0 0 279.9 184.9;" xml:space="preserve"><style type="text/css">	.st0{fill:none;}	.st1{fill:none;stroke:#3A66AF;stroke-width:8;stroke-miterlimit:10;}	.st2{fill:#3A66AF;}	.st3{fill:#F9FBFC;}	.st4{fill:none;stroke:#D9DBDB;stroke-width:5;stroke-miterlimit:10;}	.st5{fill:#FFFFFF;}	.st6{fill:#6394DB;}	.st7{opacity:0.5;fill:#FFFFFF;enable-background:new    ;}	.st8{opacity:0.5;fill:#DADADA;enable-background:new    ;}</style><rect y="0" class="st0" width="279.9" height="184.9"></rect><g>	<path class="st1" d="M237.2,78.5H54.5c-7,0-12.8-5.8-12.8-12.8l0,0c0-7,5.8-12.8,12.8-12.8h182.7c7,0,12.8,5.8,12.8,12.8l0,0  C250,72.8,244.2,78.5,237.2,78.5z"></path>	<path class="st2" d="M237.2,78.5h-36.4V52.9h36.4c7,0,12.8,5.8,12.8,12.8l0,0C250,72.8,244.2,78.5,237.2,78.5z"></path>	<g>		<path class="st3" d="M225.2,65.5c-1.7,1.7-4.4,1.7-6,0c-1.7-1.7-1.7-4.4,0-6s4.4-1.7,6,0C226.9,61.2,226.9,63.9,225.2,65.5z    M220.1,60.4c-1.2,1.2-1.2,3.1,0,4.3c1.2,1.2,3.1,1.2,4.3,0c1.2-1.2,1.2-3.1,0-4.3C223.1,59.2,221.2,59.2,220.1,60.4z"></path>					<rect x="224.8" y="64.8" transform="matrix(0.7071 -0.7071 0.7071 0.7071 19.4978 178.7151)" class="st3" width="1.3" height="2.1"></rect>		<path class="st3" d="M230.9,71.3c-0.4,0.4-1,0.4-1.3,0l-3.8-3.8c-0.4-0.4-0.4-1,0-1.3c0.4-0.4,1-0.4,1.3,0l3.8,3.8   C231.3,70.3,231.3,70.9,230.9,71.3z"></path>	</g>	<g>		<g>			<rect x="65.6" y="42.8" class="st4" width="74.8" height="42"></rect>			<rect x="65.6" y="42.8" class="st5" width="74.8" height="42"></rect>		</g>	</g>			<rect x="121.7" y="95.4" transform="matrix(0.8773 -0.4799 0.4799 0.8773 -35.4574 73.0846)" class="st2" width="7.1" height="21.1"></rect>	<path class="st6" d="M127.8,103.3l-3.8-6.9c-1,0.7-2,1.3-3,1.8s-2.1,1.1-3.2,1.5l3.8,6.9c1.1-0.5,2.1-1,3.2-1.6  C125.9,104.6,126.9,104,127.8,103.3z"></path>	<path class="st7" d="M72.7,60.9c-0.4,0.2-0.9,0.3-1.4,0.2c-1.2-0.2-2-1.3-1.8-2.5c0.3-2.3,0.9-4.6,1.8-6.8c0.4-1.1,1.7-1.7,2.8-1.3  s1.7,1.7,1.3,2.8c-0.7,1.9-1.2,3.9-1.6,5.9C73.7,60,73.2,60.6,72.7,60.9z"></path>	<path class="st7" d="M89,92.9c-0.6,0.3-1.4,0.4-2,0c-5.9-3-10.6-7.7-13.8-13.5c-1.6-2.9-2.8-6.1-3.4-9.3c-0.2-1.2,0.5-2.3,1.7-2.6  s2.3,0.5,2.6,1.7c0.6,2.8,1.6,5.5,2.9,8.1c2.8,5,6.9,9.1,12,11.7c1.1,0.6,1.5,1.9,0.9,2.9C89.7,92.4,89.3,92.7,89,92.9z"></path>	<path class="st2" d="M80.9,24.9c-21.4,11.7-29.3,38.5-17.6,60c11.7,21.4,38.5,29.3,60,17.6c21.4-11.7,29.3-38.5,17.6-60  C129.1,21,102.3,13.2,80.9,24.9z M119.5,95.5c-17.6,9.6-39.6,3.2-49.2-14.4c-9.6-17.6-3.2-39.6,14.4-49.2  c17.6-9.6,39.6-3.2,49.2,14.4C143.5,63.8,137.1,85.9,119.5,95.5z"></path>			<rect x="139" y="111.3" transform="matrix(0.8773 -0.4799 0.4799 0.8773 -50.573 87.1823)" class="st2" width="12.5" height="62.4"></rect>			<rect x="141.2" y="112.8" transform="matrix(0.8773 -0.4799 0.4799 0.8773 -51.6549 86.022)" class="st6" width="2.5" height="62.4"></rect>			<rect x="146.9" y="109.3" transform="matrix(0.8773 -0.4799 0.4799 0.8773 -49.1574 88.7021)" class="st6" width="4.1" height="62.4"></rect>	<ellipse id="SVGID_1_" class="st8" cx="101.9" cy="63.7" rx="36.3" ry="36.3"></ellipse>	<g>		<path class="st2" d="M87.4,69.4h-3.7l-1-5c-0.2-1-0.3-2-0.5-3c-0.1,1-0.3,2-0.5,3l-1.1,5.1h-3.7l-2.6-11.6h3.1l0.9,5.2   c0.2,1.2,0.4,2.4,0.5,3.6c0.2-1.2,0.4-2.4,0.7-3.6l1.2-5h3l1.1,5c0.3,1.2,0.5,2.4,0.7,3.5c0.1-1.2,0.3-2.3,0.5-3.5l1.1-5.2H90   L87.4,69.4z"></path>		<path class="st2" d="M104.9,69.4h-3.7l-1-5c-0.2-1-0.3-2-0.5-3c-0.1,1-0.3,2-0.5,3l-1.1,5.1h-3.7l-2.6-11.6H95l0.9,5.2   c0.2,1.2,0.4,2.4,0.5,3.6c0.2-1.2,0.4-2.4,0.7-3.6l1.2-5h3l1.1,5c0.3,1.2,0.5,2.4,0.7,3.5c0.1-1.2,0.3-2.3,0.5-3.5l1.1-5.2h2.8   L104.9,69.4z"></path>		<path class="st2" d="M122.4,69.4h-3.7l-1-5c-0.2-1-0.3-2-0.5-3c-0.1,1-0.3,2-0.5,3l-1.1,5.1h-3.7l-2.6-11.6h3.1l0.9,5.2   c0.2,1.2,0.4,2.4,0.5,3.6c0.2-1.2,0.4-2.4,0.7-3.6l1.2-5h3l1.1,5c0.3,1.2,0.5,2.4,0.7,3.5c0.1-1.2,0.3-2.3,0.5-3.5l1.1-5.2h2.8   L122.4,69.4z"></path>	</g></g></svg>