<svg xmlns="http://www.w3.org/2000/svg" id="Layer_1" data-name="Layer 1" viewBox="0 0 279.9 184.9"><defs><style>.cls-1{fill:none;}.cls-2,.cls-3,.cls-4{fill:#fff;stroke:#3a66af;stroke-miterlimit:10;}.cls-2{stroke-width:1.5px;}.cls-3{stroke-width:2px;}.cls-5{fill:#3a66af;}</style></defs><title>Domain Name_Payment-02</title><rect class="cls-1" width="279.9" height="184.9"></rect><path class="cls-2" d="M123.53,106.42l5.22-7.07L125.57,99A19.2,19.2,0,0,0,94.76,85.56a1.22,1.22,0,0,0-.22,1.72,1.29,1.29,0,0,0,.16.17,1.22,1.22,0,0,0,1.55,0,16.78,16.78,0,0,1,21.23.68,16.54,16.54,0,0,1,5.59,10.53l-3-.35Z"></path><path class="cls-2" d="M65.68,116.41l-5.22,7.07,3.18.36a19.2,19.2,0,0,0,30.81,13.43,1.23,1.23,0,0,0,.23-1.72l-.17-.17a1.22,1.22,0,0,0-1.55,0,16.78,16.78,0,0,1-21.23-.68,16.54,16.54,0,0,1-5.59-10.53l3,.35Z"></path><path class="cls-2" d="M60.32,86.53a20.89,20.89,0,1,1-4,12.27,20.63,20.63,0,0,1,1-6.56"></path><circle class="cls-2" cx="77.22" cy="98.8" r="17.22" transform="translate(-47.24 83.54) rotate(-45)"></circle><path class="cls-2" d="M77.37,113.53V110.6a6.08,6.08,0,0,1-4.58-2c-1-1.21-1.56-3.09-1.64-5.62l4.53-.68a11.35,11.35,0,0,0,.27,2.49,2.63,2.63,0,0,0,.7,1.36,1.57,1.57,0,0,0,1.11.42,1.07,1.07,0,0,0,1.08-.56,2.86,2.86,0,0,0,.25-1.19,4.35,4.35,0,0,0-.69-2.5,10.93,10.93,0,0,0-1.92-2.06l-2.1-1.81a17.7,17.7,0,0,1-1.61-1.64,7,7,0,0,1-1.18-2,7.28,7.28,0,0,1-.44-2.65,5.94,5.94,0,0,1,1.62-4.42A6.67,6.67,0,0,1,77.11,86V83.19h1.51V86a5.42,5.42,0,0,1,2.75.79,4.49,4.49,0,0,1,1.56,1.72,7.72,7.72,0,0,1,.71,2.16,15.43,15.43,0,0,1,.22,2.12l-4.59.56a18.48,18.48,0,0,0-.13-1.86,2.61,2.61,0,0,0-.42-1.23,1.07,1.07,0,0,0-1-.4,1.17,1.17,0,0,0-1.1.62,2.54,2.54,0,0,0-.35,1.24A3.5,3.5,0,0,0,77,94a17.65,17.65,0,0,0,1.59,1.65l2,1.74a20.18,20.18,0,0,1,1.86,2,8.57,8.57,0,0,1,1.34,2.31,7.87,7.87,0,0,1,.51,2.94,6.4,6.4,0,0,1-.65,2.87,5.54,5.54,0,0,1-1.87,2.12,6.37,6.37,0,0,1-2.91,1v3Z"></path><circle class="cls-2" cx="111.61" cy="124.25" r="20.89" transform="translate(-34.76 204.68) rotate(-76.86)"></circle><path class="cls-2" d="M127.5,130.9a17.23,17.23,0,1,1,1.33-6.65"></path><path class="cls-2" d="M111.76,139v-2.93a6.08,6.08,0,0,1-4.58-2q-1.52-1.83-1.64-5.62l4.53-.68a11.35,11.35,0,0,0,.27,2.49,2.63,2.63,0,0,0,.7,1.36,1.57,1.57,0,0,0,1.11.42,1.06,1.06,0,0,0,1.08-.57,2.81,2.81,0,0,0,.25-1.18,4.28,4.28,0,0,0-.7-2.5,10.26,10.26,0,0,0-1.91-2.06l-2.1-1.81a18,18,0,0,1-1.62-1.65,7,7,0,0,1-1.17-2,7.28,7.28,0,0,1-.44-2.65,6,6,0,0,1,1.61-4.42,6.67,6.67,0,0,1,4.35-1.81v-2.81H113v2.78a5.33,5.33,0,0,1,2.75.79,4.57,4.57,0,0,1,1.56,1.72,7.72,7.72,0,0,1,.71,2.16,15.43,15.43,0,0,1,.22,2.12l-4.59.56c0-.71-.07-1.33-.13-1.87a2.61,2.61,0,0,0-.42-1.22,1.07,1.07,0,0,0-1-.4,1.17,1.17,0,0,0-1.1.62,2.44,2.44,0,0,0-.35,1.24,3.5,3.5,0,0,0,.72,2.3,15.37,15.37,0,0,0,1.59,1.64l2,1.75a18,18,0,0,1,1.85,2,8.34,8.34,0,0,1,1.35,2.31,7.86,7.86,0,0,1,.51,2.93,6.29,6.29,0,0,1-.66,2.88,5.43,5.43,0,0,1-1.86,2.12,6.37,6.37,0,0,1-2.91,1v3Z"></path><path class="cls-3" d="M200.07,151.88l22.81-21.32-4.3-6.14c-4.3-6.14-7.38-14.87-13.15-26.64S199.21,80,195.19,76.4,169.43,64.82,167.4,64s-5.88,2-5.88,2-8.26,18.61-8.47,18.89-2.38,4.93-2.26,6.91A32.41,32.41,0,0,0,152.42,98a15.91,15.91,0,0,0-.91,3c-.16,1.19,1,3.94,1,3.94s-1.19,5.09,1,6.87,12.4,3.31,12.4,3.31a111.15,111.15,0,0,0,8.71,16.6c4.77,7.07,9.81,10.09,14.44,14.44a43.38,43.38,0,0,1,5.69,6.63Z"></path><path class="cls-3" d="M156.19,99.72c3,1.39,7.75,3.42,11.2,3.84"></path><path class="cls-3" d="M153.47,98.38l1.13.57"></path><path class="cls-3" d="M154.11,106.3l8,2.94c5.72,2.1,7.19,1.3,7.51.67"></path><path class="cls-3" d="M173.6,81.25a15.38,15.38,0,0,0-1,2.62"></path><path class="cls-3" d="M180.78,73a22.11,22.11,0,0,0-6.16,6.35"></path><path class="cls-3" d="M187.86,77.61s-8,5.24-8.94,9.21"></path><path class="cls-3" d="M169.82,111.22s-1.73,3.66-3.94,3.9"></path><path class="cls-3" d="M168.11,69.19a12.42,12.42,0,0,1-1,4.55"></path><path class="cls-3" d="M168,67.11a10,10,0,0,1,.1,1.25"></path><rect class="cls-4" x="112.6" y="44.31" width="57.26" height="37.3" rx="4.91" transform="translate(136.56 -91.6) rotate(64.24)"></rect><rect class="cls-5" x="129.97" y="39.53" width="8.04" height="8.16" rx="2.73" transform="translate(115.03 -96.01) rotate(64.24)"></rect><line class="cls-5" x1="129.88" y1="44.2" x2="137" y2="40.76"></line><polyline class="cls-5" points="130.96 46.45 136.5 43.77 137.71 46.28"></polyline><line class="cls-5" x1="134.01" y1="39.23" x2="135.14" y2="41.58"></line><line class="cls-5" x1="132.45" y1="39.99" x2="133.58" y2="42.33"></line><line class="cls-5" x1="130.83" y1="40.76" x2="131.97" y2="43.11"></line><line class="cls-5" x1="134.83" y1="44.8" x2="135.96" y2="47.15"></line><line class="cls-5" x1="133.17" y1="45.6" x2="134.21" y2="47.75"></line><path class="cls-5" d="M122.55,45.06a2.59,2.59,0,0,1,1.35-.33,1,1,0,0,1,.78.58,1,1,0,0,1,0,1,2.7,2.7,0,0,1-1.1.85,2.58,2.58,0,0,1-1.34.33,1,1,0,0,1-.79-.59,1,1,0,0,1,0-1A2.59,2.59,0,0,1,122.55,45.06Zm1.6.51a.36.36,0,0,0-.41-.19,2.85,2.85,0,0,0-.89.31l-.32.16L124,46h0A.38.38,0,0,0,124.15,45.57Zm-2.09.62a.36.36,0,0,0,.3.63,2.77,2.77,0,0,0,.89-.31l.38-.2-1.52-.17Z"></path><path class="cls-5" d="M122.85,48.28l.33.69,2-1-.48-.57.56-.27.47.58.29.6-2.59,1.25.34.69-.55.26-1-2Z"></path><path class="cls-5" d="M125.05,50.24a2.58,2.58,0,0,1,1.34-.33.94.94,0,0,1,.78.58,1,1,0,0,1,0,1,2.61,2.61,0,0,1-1.1.84,2.41,2.41,0,0,1-1.35.33,1,1,0,0,1-.78-.58,1,1,0,0,1,0-1A2.54,2.54,0,0,1,125.05,50.24Zm1.6.5a.37.37,0,0,0-.41-.18,3,3,0,0,0-.89.3L125,51l1.5.17h0A.39.39,0,0,0,126.65,50.74Zm-2.09.63a.37.37,0,0,0-.11.44.39.39,0,0,0,.41.19,2.85,2.85,0,0,0,.89-.31l.38-.2-1.52-.17S124.57,51.35,124.56,51.37Z"></path><path class="cls-5" d="M125.35,53.46l.33.69,2-1-.47-.57.56-.27.47.58.29.59L126,54.75l.33.7-.54.26-1-2Z"></path><path class="cls-5" d="M127.55,55.42a2.58,2.58,0,0,1,1.34-.33.92.92,0,0,1,.78.58.94.94,0,0,1,0,1,2.45,2.45,0,0,1-1.09.85,2.61,2.61,0,0,1-1.35.33,1,1,0,0,1-.78-.58.94.94,0,0,1,0-1A2.48,2.48,0,0,1,127.55,55.42Zm1.6.5a.37.37,0,0,0-.41-.18,2.69,2.69,0,0,0-.89.3l-.32.17,1.5.16h0A.37.37,0,0,0,129.15,55.92Zm-2.09.63A.35.35,0,0,0,127,57a.36.36,0,0,0,.41.19,3,3,0,0,0,.89-.3l.38-.21-1.52-.16A.12.12,0,0,0,127.06,56.55Z"></path><path class="cls-5" d="M127.84,58.64l.34.69,2-1-.47-.57.56-.27.47.57.29.6-2.59,1.25.33.69-.54.27-1-2Z"></path><path class="cls-5" d="M130.05,60.6a2.4,2.4,0,0,1,1.34-.33,1,1,0,0,1,.78.58.94.94,0,0,1,0,1,2.52,2.52,0,0,1-1.09.85,2.63,2.63,0,0,1-1.35.33,1,1,0,0,1-.78-.58,1,1,0,0,1,0-1A2.55,2.55,0,0,1,130.05,60.6Zm1.6.5a.38.38,0,0,0-.42-.19,2.81,2.81,0,0,0-.88.31l-.33.17,1.51.16h0A.38.38,0,0,0,131.65,61.1Zm-2.09.62a.38.38,0,0,0-.12.44.37.37,0,0,0,.42.19,2.91,2.91,0,0,0,.88-.3c.15-.08.28-.14.39-.21l-1.52-.17Z"></path><path class="cls-5" d="M130.34,63.81l.34.7,2-1-.47-.56.56-.27.47.57.29.6L131,65.11l.33.69-.54.26-1-2Z"></path><path class="cls-5" d="M132.54,65.77a2.63,2.63,0,0,1,1.35-.33,1,1,0,0,1,.78.58,1,1,0,0,1,0,1,2.63,2.63,0,0,1-1.1.85,2.58,2.58,0,0,1-1.34.33,1,1,0,0,1-.78-.59.94.94,0,0,1,0-1A2.66,2.66,0,0,1,132.54,65.77Zm1.61.51a.37.37,0,0,0-.42-.19,2.93,2.93,0,0,0-.89.31l-.32.16,1.5.17h0A.38.38,0,0,0,134.15,66.28Zm-2.1.62a.38.38,0,0,0-.11.44.38.38,0,0,0,.42.19,2.81,2.81,0,0,0,.88-.31l.39-.2-1.52-.17Z"></path><path class="cls-5" d="M132.84,69l.33.69,2-1-.47-.57.56-.27.47.58.28.6-2.58,1.25.33.69-.55.26-1-2Z"></path><path class="cls-5" d="M135,71a2.59,2.59,0,0,1,1.35-.33,1,1,0,0,1,.78.58,1,1,0,0,1,0,1A2.55,2.55,0,0,1,136,73a2.4,2.4,0,0,1-1.34.33.92.92,0,0,1-.78-.58.94.94,0,0,1,0-1A2.58,2.58,0,0,1,135,71Zm1.6.5a.36.36,0,0,0-.41-.18,2.85,2.85,0,0,0-.89.31c-.12,0-.22.11-.32.16l1.5.17h0A.37.37,0,0,0,136.64,71.45Zm-2.09.63a.37.37,0,0,0-.11.44.4.4,0,0,0,.42.19,2.81,2.81,0,0,0,.88-.31l.38-.2L134.6,72Z"></path><path class="cls-5" d="M135.34,74.17l.33.69,2-1-.47-.57.56-.27.46.58.29.59L136,75.46l.34.7-.55.26-1-2Z"></path><path class="cls-5" d="M137.54,76.13a2.59,2.59,0,0,1,1.35-.33,1,1,0,0,1,.78.58,1,1,0,0,1,0,1,2.54,2.54,0,0,1-1.1.85,2.58,2.58,0,0,1-1.34.33,1,1,0,0,1-.75-1.55A2.45,2.45,0,0,1,137.54,76.13Zm1.6.5a.36.36,0,0,0-.41-.18,2.77,2.77,0,0,0-.89.3l-.32.17,1.5.16h0A.37.37,0,0,0,139.14,76.63Zm-2.09.63a.35.35,0,0,0,.3.62,3,3,0,0,0,.89-.3l.38-.21-1.52-.16Z"></path><path class="cls-5" d="M137.84,79.35l.33.69,2-1-.47-.57.55-.27.47.57.29.6-2.59,1.25.34.69-.55.27-1-2Z"></path><path class="cls-5" d="M140,81.31a2.4,2.4,0,0,1,1.34-.33,1,1,0,0,1,.79.58,1,1,0,0,1,0,1,2.62,2.62,0,0,1-1.1.85,2.59,2.59,0,0,1-1.35.33,1,1,0,0,1-.78-.58,1,1,0,0,1,0-1A2.61,2.61,0,0,1,140,81.31Zm1.6.5a.39.39,0,0,0-.41-.19,2.77,2.77,0,0,0-.89.31,3.1,3.1,0,0,0-.32.17l1.5.16h0A.38.38,0,0,0,141.64,81.81Zm-2.09.62a.38.38,0,0,0-.11.44.36.36,0,0,0,.41.19,3,3,0,0,0,.89-.3l.38-.21-1.52-.17Z"></path><path class="cls-5" d="M140.34,84.52l.33.7,2-1-.47-.56.56-.27.47.57.29.6L141,85.82l.33.69-.54.27-1-2Z"></path><path class="cls-5" d="M141.58,87.11l.34.69,2-1-.47-.56L144,86l.47.57.29.6-2.59,1.25.33.69-.54.26-1-2Z"></path><path class="cls-4" d="M159.11,72.74l-1.55-3.21a1.78,1.78,0,0,1,.83-2.38h0a1.79,1.79,0,0,1,2.39.83l1.54,3.21a1.78,1.78,0,0,1-.83,2.38h0A1.79,1.79,0,0,1,159.11,72.74Z"></path><path class="cls-4" d="M161.33,77.33l-1.55-3.21a1.78,1.78,0,0,1,.83-2.38h0a1.78,1.78,0,0,1,2.38.83l1.55,3.21a1.78,1.78,0,0,1-.83,2.38h0A1.77,1.77,0,0,1,161.33,77.33Z"></path><path class="cls-3" d="M187,90.1s-10.25-2.84-13.82-5.51-14.28-14.24-18.4-16.9c-4.94-3.21-8.94,1.43-10,4.44s-.4,5.09,5.32,12.06,14.3,8.11,17.35,15.77,4.59,17.33,11.14,23.68,9.4,8.88,9.89,8.7"></path><path class="cls-3" d="M146.81,77.34c3,2.63,4.2,2.85,4.68,2.21S157.58,73,157.58,73s-2.93-4.42-4.7-5.54-4.82.11-6.5,3.28-.91,5.26-.49,5.77"></path><polygon class="cls-5" points="231.5 138.59 222.55 128.08 193.51 152.63 194.38 153.62 232.63 148.04 231.5 138.59"></polygon></svg>