<svg xmlns="http://www.w3.org/2000/svg" id="Layer_1" data-name="Layer 1" viewBox="0 0 484.97 382.44"><defs><style>.cls-1{fill:#3a66af;}.cls-10,.cls-2,.cls-3,.cls-7,.cls-8{fill:none;}.cls-2,.cls-3{stroke:#3a66af;}.cls-10,.cls-2,.cls-3,.cls-4,.cls-7,.cls-8{stroke-miterlimit:10;}.cls-2{stroke-width:8px;}.cls-3{stroke-width:6px;}.cls-4,.cls-5{fill:#1f558c;}.cls-10,.cls-4,.cls-7,.cls-8{stroke:#20568c;}.cls-6{fill:#231f20;}.cls-7{stroke-width:2px;}.cls-9{fill:#fff;}.cls-10{stroke-width:0.75px;}</style></defs><title>Domain Checker_Protection-03</title><path class="cls-1" d="M21.36,137.71q0-43.05,0-86.11c0-5.71,1.13-11.19,4.3-16.07C31.19,27.06,39,21.87,49.52,21.72c61-.86,121.94-.29,182.91-.39a29.5,29.5,0,0,1,30,29.75q.09,31.53,0,63.08a10.76,10.76,0,0,0,1.91,6.41c6,8.81,12.94,16.59,22.65,21.74a61.05,61.05,0,0,0,28.76,6.9c6.67,0,7.28.48,8,6.81a125.81,125.81,0,0,1-8.62,63.61c-10,24.13-26.88,42.6-49.39,56.47-3.8,2.34-7.76,4.4-11.69,6.52a5.19,5.19,0,0,1-5.2,0,131.67,131.67,0,0,1-29.53-19.94,88.25,88.25,0,0,1-6.95-6.72,7,7,0,0,0-5.79-2.32q-39.23.09-78.46,0c-23.71,0-47.42.05-71.13-.06-4.62,0-9.31.11-13.85-1.18-13.14-3.73-21.77-14.83-21.79-28.2q0-43.27,0-86.55Zm7.29,10.64h0q0,37.86,0,75.71a24.69,24.69,0,0,0,.31,4.63c2,10.52,11.21,17.87,22.4,17.88q36.14.06,72.28,0,38.78,0,77.55,0c.66,0,1.54.32,1.93-.28s-.4-1.17-.78-1.67A121.59,121.59,0,0,1,188.06,221c-1.18-2.55-1.2-2.5-3.64-1-18.23,11.26-38,14.84-59.12,10.53a74.76,74.76,0,0,1-40.51-22.68C69.22,191.13,62.48,171.44,65,149.11c2.16-19.36,11-35.61,26.33-48.35C108.45,86.49,128.47,80.39,150.89,83c32.23,3.71,57.58,25.35,65.93,55.49.67,2.43.8,2.48,2.91,1.1.32-.21.62-.43.93-.65,9.22-6.3,15.8-14.85,21.72-24a44.87,44.87,0,0,1,4.76-6.49,5.11,5.11,0,0,1,5.57-1.65c2.52.89,2.4-.39,2.39-2,0-10.85,0-21.69,0-32.54,0-4,0-4-4.27-4l-202.9,0c-5.47,0-10.94-.25-16.41-.16-2.64,0-2.91,1-2.91,3.08Q28.7,109.73,28.65,148.35ZM141.91,61.12v0H242.79c3.35,0,6.71-.06,10.06,0,1.7,0,2.3-.63,2.27-2.23-.08-3.1,0-6.2,0-9.3-.16-11.42-10.2-21.15-22-21.16q-91.15-.06-182.32,0a22.18,22.18,0,0,0-21,14.73c-1.71,4.76-.92,9.65-1.07,14.49-.11,3.52,0,3.52,3.67,3.52Zm42.85,112.61a65.26,65.26,0,0,0,.59,11.1,108.81,108.81,0,0,0,15.28,44.37c11.83,19.58,28.17,34.67,48.65,45.62a3.9,3.9,0,0,0,4.23,0c4.74-2.68,9.47-5.36,14-8.42,20.46-13.93,35-32.18,43.07-55.17a124.93,124.93,0,0,0,6.66-35.13,100.36,100.36,0,0,0-.64-17.67c-.18-1.41-.74-2.09-2.3-2.09-1.75,0-3.5-.21-5.24-.37-14.6-1.32-27.39-6.57-38.1-16.4-6.88-6.31-12-13.9-16.89-21.65-2.43-3.85-2.5-3.89-5,0-4.71,7.36-9.86,14.4-16.33,20.42-12.36,11.49-27.23,17.31-44.29,18-1.89.08-2.52.88-2.7,2.5A99.56,99.56,0,0,0,184.76,173.73Zm-22-16.4c-.13-4.33.07-8.53-.3-12.73-.15-1.67-.8-2.34-2.65-2.52-4-.39-7.92-.2-11.88-.48-8.23-.58-16.43.08-24.64.55a1.92,1.92,0,0,0-2.09,2.09,241.37,241.37,0,0,0,0,26.08c.09,1.65.87,2.25,2.58,2.35a329.16,329.16,0,0,0,36.09,0c1.57-.08,2.3-.59,2.49-2.17C162.9,166.05,162.58,161.62,162.76,157.33ZM113.92,146c.47-2.79-.64-3.09-2.17-2.89-9.59,1.26-19.14,2.78-28.28,6-3.64,1.29-7.26,2.75-10.14,5.4-2.15,2-2.11,3.68.07,5.66a20.44,20.44,0,0,0,5.77,3.53c10.63,4.59,22,6.45,33.4,7.85,1.29.16,1.61-.47,1.52-1.55A206.22,206.22,0,0,1,113.92,146Zm27.78-34.86c-4.39.33-8.79.67-13.2,1a2.68,2.68,0,0,0-2.62,2.33q-2.17,8.94-3.49,18c-.33,2.29.51,2.67,2.52,2.54,3.57-.23,7.15-.42,10.73-.46,7.77-.07,15.55-.23,23.31.46,2.15.19,2.63-.57,2.36-2.5a175.12,175.12,0,0,0-3.5-18,2.85,2.85,0,0,0-2.87-2.35Zm.33,92a87.71,87.71,0,0,0,13.24-.84c1.07-.12,1.91-.35,2.23-1.49a123.75,123.75,0,0,0,3.8-19.52c.15-1.28-.32-1.86-1.82-1.75a235.68,235.68,0,0,1-35.55-.06c-1.32-.11-1.78.25-1.61,1.6A138.3,138.3,0,0,0,126,200.22a2.64,2.64,0,0,0,2.65,2.19A99.6,99.6,0,0,0,142,203.19ZM74.25,145.05c.67.33,1,0,1.42-.2a83.7,83.7,0,0,1,14.88-5A186.4,186.4,0,0,1,112.82,136c1.31-.16,2.09-.61,2.23-2a148.81,148.81,0,0,1,3-17.67c.47-2-.44-2.16-2.08-1.72-13,3.46-24.8,9.05-34.09,18.82A35.73,35.73,0,0,0,74.25,145.05Zm.23,24.53a36,36,0,0,0,10.29,14.48c8.92,8,19.58,12.88,31.21,15.93,2.27.6,2.52.33,2-2a119.56,119.56,0,0,1-2.8-16.56c-.19-2.08-1.08-2.73-3.09-2.94a149.07,149.07,0,0,1-24-4.31A127.57,127.57,0,0,1,74.48,169.58ZM209,144.85a35.17,35.17,0,0,0-9.82-14c-9.12-8.26-20.09-13.22-32-16.41-1.72-.46-1.95,0-1.56,1.55a135.68,135.68,0,0,1,3.06,17.44c.19,1.74.85,2.4,2.6,2.6a174.84,174.84,0,0,1,22.28,3.8A127.39,127.39,0,0,1,209,144.85ZM80.48,124.74c.84-.55,1.24-.75,1.58-1A79.18,79.18,0,0,1,116,107.57c3.84-.85,5.65-2.51,6.69-5.95,1.11-3.73,3.26-7.07,5.28-10.53C114.22,90.34,87.46,109.2,80.48,124.74Zm-.19,64.74c5.24,14.37,32.69,34,47.7,34.08a53.07,53.07,0,0,1-6.25-12.83,4.15,4.15,0,0,0-3.67-3.06A85.08,85.08,0,0,1,102.61,203,77,77,0,0,1,80.29,189.48Zm75.4-98.41A57.94,57.94,0,0,1,162,103.89a4.2,4.2,0,0,0,3.58,3.11c13.4,3,25.79,8,36.31,16.84.22.18.5.37.79,0C197.3,110.24,170.52,91.36,155.69,91.07Zm40.65,57.24c-.22-.24-.29-.4-.41-.44-7.94-2.46-16.14-3.69-24.38-4.73-1.39-.18-2,.47-1.89,1.78.14,2.36.36,4.71.38,7.07a165.38,165.38,0,0,1-.33,17.24c-.08.8-.44,2.18.72,2.26a13.21,13.21,0,0,0,6.26-.9c1.28-.57.95-2.22,1-3.43a99.21,99.21,0,0,1,1.83-14.47,3.86,3.86,0,0,1,4.08-3.42c1.14-.05,2.28,0,3.43,0A37.35,37.35,0,0,0,196.34,148.31Zm-38.81,75.18,1.21-.27a70.68,70.68,0,0,0,22.41-9.63c3-2,3-2,1.89-5.46-.37-1.12-.76-2.24-1-3.39-.34-1.45-1.06-1.71-2.46-1.17a89.82,89.82,0,0,1-14.84,4.34c-.91.18-1.77.41-2.13,1.42a62.46,62.46,0,0,1-6,12.87C156,223.1,156.24,223.58,157.53,223.49Zm-5.29-118.58c2.24.09,2.4-.13,1.4-2.55a33.64,33.64,0,0,0-6-9.85c-3.65-4-7.45-4.11-11.31-.28-3,3-4.7,6.66-6.38,10.37-1,2.27-.87,2.52,1.79,2.29A113,113,0,0,1,152.24,104.91ZM130.73,209.69c-1.46-.1-1.67.09-1.11,1.45,1.77,4.25,3.77,8.37,7.25,11.64s6.46,3.31,9.92.08,5.43-7.41,7.22-11.66c.51-1.2.14-1.6-1.2-1.46A103.15,103.15,0,0,1,130.73,209.69Zm45-31.6c-1.81.2-3.62.38-5.43.62a1.54,1.54,0,0,0-1.5,1.42,166.88,166.88,0,0,1-3.24,18.94c-.26,1.17.12,1.47,1.3,1.15a111.1,111.1,0,0,0,11.46-3.74,1.67,1.67,0,0,0,1.12-2.11,105,105,0,0,1-1.72-14.47C177.67,178.64,177.1,178,175.72,178.09Z"></path><path class="cls-1" d="M187.66,48.27H146.49c-3.6,0-5.6-1.27-5.61-3.52s2-3.53,5.6-3.53l82.11,0a13,13,0,0,1,2.73.16,3.26,3.26,0,0,1,2.85,3.49,3.22,3.22,0,0,1-2.84,3.27,13.06,13.06,0,0,1-2.73.16H187.66Z"></path><path class="cls-1" d="M91.7,33.25a11.92,11.92,0,0,1,12,11.36c.12,6.14-5.54,11.65-11.93,11.63S80,51,79.91,45A11.85,11.85,0,0,1,91.7,33.25Zm-.22,15.92a4.33,4.33,0,0,0,4.89-4.12,4.47,4.47,0,0,0-4.45-4.84A4.83,4.83,0,0,0,87,44.51,4.55,4.55,0,0,0,91.48,49.17Z"></path><path class="cls-1" d="M134,44.71a11.73,11.73,0,1,1-11.69-11.46A11.52,11.52,0,0,1,134,44.71ZM122.3,49.18a4.45,4.45,0,1,0-4.78-4.33A4.49,4.49,0,0,0,122.3,49.18Z"></path><path class="cls-1" d="M73.09,44.88A11.75,11.75,0,0,1,61.23,56.23a11.49,11.49,0,1,1,.27-23A11.72,11.72,0,0,1,73.09,44.88ZM61.32,49.19a4.47,4.47,0,0,0,4.75-4.35,4.94,4.94,0,0,0-4.79-4.72,4.67,4.67,0,0,0-4.66,4.51C56.57,47.35,58.46,49.18,61.32,49.19Z"></path><path class="cls-1" d="M312.82,171.3c-.32,23.16-5.94,44.82-19.59,64.17-10.3,14.62-23.85,25.73-39.65,34.42a4.52,4.52,0,0,1-4.74-.14c-28.22-15.64-47.31-38.11-55.25-69a131.16,131.16,0,0,1-3.85-34.22,18,18,0,0,1,.22-2.42c.41-2.68,1.39-3.61,4.11-3.87a70.21,70.21,0,0,0,31.27-10.38c9-5.69,16.08-13.28,22-21.91,2.78-4.06,5.18-4.09,7.93-.08,7.23,10.56,16.11,19.4,27.91,25.25a74.08,74.08,0,0,0,25.11,7c3.31.37,4.41,1.48,4.52,4.68C312.88,167,312.82,169.16,312.82,171.3Zm-7.35,2.48a35.21,35.21,0,0,1,0-4c.25-2.2-.81-3-2.93-3.23a68.5,68.5,0,0,1-12.86-3c-15.06-5-27-14-36.47-26.27-2-2.52-1.93-2.5-3.92.11a73.6,73.6,0,0,1-8.86,9.82,74.49,74.49,0,0,1-41,19.43c-1.75.25-2.44,1-2.44,2.75A129.13,129.13,0,0,0,198,184.6a102.15,102.15,0,0,0,11.27,36.68c9.33,17.45,23.24,30.67,40.51,40.75a2.77,2.77,0,0,0,3.15,0,110.7,110.7,0,0,0,29.65-24.68C298,218.8,304.62,197.27,305.47,173.78Z"></path><path class="cls-1" d="M222.66,213.93c0-5,0-9.89,0-14.83,0-5.41,2.24-8.42,7.54-10,1.55-.45,1.53-1.38,1.53-2.51,0-5.75,0-11.51,0-17.26,0-5.47,2.83-8.18,8.45-8.2,7.32,0,14.64,0,22,0,6,0,8.85,2.62,8.95,8.48.1,5.53.09,11.07,0,16.6,0,1.72.45,2.59,2.3,3.13a8.65,8.65,0,0,1,6.53,8.65q.06,15.93,0,31.87a8.93,8.93,0,0,1-7.92,8.9,62.74,62.74,0,0,1-12.33.24c-8.92-.38-17.83-.1-26.75-.2-6.55-.07-10.21-3.53-10.27-9.84,0-2.51,0-5,0-7.53v-7.52Zm28.78-18.07c-5.87,0-11.74,0-17.61,0-3.11,0-3.78.66-3.79,3.64q0,14.38,0,28.77c0,3,.68,3.63,3.79,3.63q17.61,0,35.22,0c2.86,0,3.45-.58,3.46-3.43q0-14.61,0-29.21c0-2.86-.53-3.37-3.48-3.38C263.18,195.85,257.31,195.86,251.44,195.86Zm-.14-6.9h0c3.35,0,6.7-.06,10.05,0,1.79,0,2.43-.65,2.41-2.35q-.11-8.07,0-16.14c0-1.61-.58-2.23-2.26-2.22q-10.05.08-20.1,0c-1.67,0-2.31.63-2.3,2.23.06,5.38.07,10.76,0,16.14,0,1.69.57,2.39,2.39,2.34C244.75,188.89,248,189,251.3,189Z"></path><path class="cls-1" d="M261.12,209.69a8.79,8.79,0,0,1-4,7.12,3.83,3.83,0,0,0-2,3.86,19.51,19.51,0,0,1-.08,4,3.71,3.71,0,0,1-3.87,3.31,3.53,3.53,0,0,1-3.41-3.71,13.07,13.07,0,0,1,0-1.77c.24-2.53-.26-4.45-2.71-6.17a8.71,8.71,0,0,1-2.32-11.37,9.81,9.81,0,0,1,18.43,4.76Zm-7.43-.48a2.27,2.27,0,0,0-2.24-2.22,2.26,2.26,0,1,0-.14,4.5C252.75,211.54,253.45,210.63,253.69,209.21Z"></path><polyline class="cls-2" points="192.44 315.57 192.44 298.88 138.25 281.37 138.25 251.06"></polyline><polyline class="cls-2" points="400.66 289.02 400.66 262.2 346.47 244.69 346.47 214.38 312.85 214.38"></polyline><polyline class="cls-2" points="342.38 79.3 326.39 123.97 291.07 115 275.92 139.6"></polyline><rect class="cls-3" x="275.72" y="31.98" width="147.66" height="47.44" rx="23.72"></rect><path class="cls-1" d="M291.85,54.61V42.07h9.32v2.28H294.3v3.43h6.5V50h-6.5v4.65Z"></path><path class="cls-1" d="M314.24,42.07v7.19c0,3.72-2.35,5.62-5.62,5.62-3.11,0-5.76-1.83-5.76-5.62V42.07h2.43v7.19a3.13,3.13,0,0,0,3.35,3.47c2,0,3.17-1.31,3.17-3.47V42.07Z"></path><path class="cls-1" d="M319.08,42.05V52.42h6.67v2.19h-9.12V42.05Z"></path><path class="cls-1" d="M329.92,42.05V52.42h6.67v2.19h-9.12V42.05Z"></path><path class="cls-1" d="M298,66.69H294.3v3.7h-2.45V57.83H298A4.45,4.45,0,1,1,298,66.69Zm-3.67-2.17H298a2.23,2.23,0,1,0,0-4.45H294.3Z"></path><path class="cls-1" d="M315.89,70.39H313l-3.78-4.2h-2.35v4.2H304.4V57.82h6.17c3.06,0,4.67,2,4.67,4.16A3.74,3.74,0,0,1,312,65.94l3.93,4.29Zm-9-10.35v4h3.72a2,2,0,1,0,0-4Z"></path><path class="cls-1" d="M329.64,64.18A6.26,6.26,0,0,1,323,70.67c-4.56,0-6.68-3.17-6.68-6.47a6.67,6.67,0,0,1,13.33,0Zm-10.92.06a4.26,4.26,0,1,0,8.51,0,4.26,4.26,0,1,0-8.51,0Z"></path><path class="cls-1" d="M334,60h-4.11V57.83h10.67V60h-4.11v10.4H334Z"></path><path class="cls-1" d="M351.75,70.39H342V57.83h9.71v2.3h-7.28V63h7v2.2h-7v2.84h7.28Z"></path><path class="cls-1" d="M365.07,68.81a7,7,0,0,1-4.93,1.86c-4.82,0-6.85-3.21-6.87-6.47s2.18-6.62,6.87-6.62a6.85,6.85,0,0,1,4.77,1.92L363.28,61a4.57,4.57,0,0,0-3.14-1.19,4.17,4.17,0,0,0-4.46,4.36,4.09,4.09,0,0,0,4.46,4.25,4.92,4.92,0,0,0,3.27-1.27Z"></path><path class="cls-1" d="M369.61,60H365.5V57.83h10.67V60h-4.11v10.4h-2.45Z"></path><path class="cls-1" d="M377.67,70.39V57.83h2.43V70.39Z"></path><path class="cls-1" d="M395.54,64.18a6.26,6.26,0,0,1-6.65,6.49c-4.56,0-6.68-3.17-6.68-6.47a6.67,6.67,0,0,1,13.33,0Zm-10.92.06a4.26,4.26,0,1,0,8.51,0,4.26,4.26,0,1,0-8.51,0Z"></path><path class="cls-1" d="M405.86,57.82h2.45V70.39h-1.52v0L400,61.92v8.47h-2.45V57.83h2l6.36,7.79Z"></path><rect class="cls-3" x="324.58" y="289.11" width="147.66" height="47.44" rx="23.72"></rect><path class="cls-1" d="M161.68,336.94c.07,3.71-2.27,7.47-7.58,7.47h-6V329.73h6C159.3,329.73,161.62,333.31,161.68,336.94Zm-10.7,4.8h3.12a4.7,4.7,0,1,0,0-9.39H151Z"></path><path class="cls-1" d="M178.69,337.15c0,3.8-2.44,7.59-7.78,7.59s-7.8-3.71-7.8-7.57a7.79,7.79,0,0,1,15.58,0Zm-12.76.06c.07,2.42,1.41,5,5,5s4.92-2.6,5-5-1.39-5.24-5-5.24S165.87,334.74,165.93,337.21Z"></path><path class="cls-1" d="M194,333.78l-4.94,6.37h-.56l-4.83-6.4v10.68h-2.86V329.75h3.29l4.75,6.31,4.74-6.31h3.27v14.68H194Z"></path><path class="cls-1" d="M210.33,341.64H202.4l-1.3,2.77H198l6.81-14.68h3.12l6.8,14.68h-3.12Zm-4-8.83-2.82,6.25h5.63Z"></path><path class="cls-1" d="M215.81,344.41V329.73h2.84v14.68Z"></path><path class="cls-1" d="M231.31,329.71h2.86v14.7h-1.78v0l-8-9.92v9.9h-2.86V329.73h2.31l7.44,9.1Z"></path><rect class="cls-3" x="134.55" y="317.6" width="113.21" height="38.98" rx="19.49"></rect><path class="cls-4" d="M363.85,303.05,358,323.84h-2.85l-4.28-15.2a9.13,9.13,0,0,1-.34-2.11h-.05a11.06,11.06,0,0,1-.38,2.08l-4.31,15.23H343l-6.1-20.79h2.69L344,319a10.76,10.76,0,0,1,.35,2.08h.07a12.64,12.64,0,0,1,.45-2.08l4.6-15.95h2.33l4.41,16.06a12.51,12.51,0,0,1,.35,1.95h.06a10.31,10.31,0,0,1,.39-2l4.25-16Z"></path><path class="cls-4" d="M377.11,317H366.62a5.58,5.58,0,0,0,1.34,3.83,4.59,4.59,0,0,0,3.5,1.35,7.28,7.28,0,0,0,4.62-1.66v2.24a8.68,8.68,0,0,1-5.18,1.42,6.25,6.25,0,0,1-4.94-2,8.25,8.25,0,0,1-1.8-5.69,8.09,8.09,0,0,1,2-5.64,6.3,6.3,0,0,1,4.88-2.19,5.58,5.58,0,0,1,4.51,1.89,7.88,7.88,0,0,1,1.6,5.23Zm-2.44-2a4.84,4.84,0,0,0-1-3.2,3.41,3.41,0,0,0-2.72-1.15,3.86,3.86,0,0,0-2.86,1.21,5.45,5.45,0,0,0-1.45,3.14Z"></path><path class="cls-5" d="M387.3,304a3.09,3.09,0,0,0-1.58-.4c-1.67,0-2.5,1.05-2.5,3.15V309h3.48v2h-3.48v12.82h-2.36V311h-2.54v-2h2.54v-2.41a5,5,0,0,1,1.35-3.69,5.14,5.14,0,0,1,5.09-1.09Z"></path><path class="cls-5" d="M389.73,305.22a1.5,1.5,0,0,1-1.09-.43,1.48,1.48,0,0,1-.45-1.11,1.52,1.52,0,0,1,1.54-1.55,1.56,1.56,0,0,1,1.11.44,1.52,1.52,0,0,1,.46,1.11,1.49,1.49,0,0,1-.46,1.09A1.52,1.52,0,0,1,389.73,305.22Zm1.16,18.62h-2.38V309h2.38Z"></path><path class="cls-5" d="M401.85,323.7a4.7,4.7,0,0,1-2.22.46q-3.9,0-3.9-4.35V311h-2.55v-2h2.55v-3.62l2.38-.77V309h3.74v2h-3.74v8.37a3.47,3.47,0,0,0,.51,2.13,2,2,0,0,0,1.68.64,2.48,2.48,0,0,0,1.55-.5Z"></path><path class="cls-6" d="M416.61,323.84h-2.38v-8.56q0-4.63-3.45-4.64a3.75,3.75,0,0,0-2.93,1.35,5,5,0,0,0-1.19,3.44v8.41h-2.38v-22h2.38v9.6h.06a5.39,5.39,0,0,1,4.87-2.82q5,0,5,6.05Z"></path><path class="cls-6" d="M441.62,323.3v-2.55a7.05,7.05,0,0,0,4.28,1.44c2.09,0,3.13-.7,3.13-2.09a1.9,1.9,0,0,0-.26-1,2.67,2.67,0,0,0-.73-.73,5.63,5.63,0,0,0-1.07-.57l-1.33-.53a18.09,18.09,0,0,1-1.73-.79,5.36,5.36,0,0,1-1.25-.9,3.53,3.53,0,0,1-.75-1.14,4,4,0,0,1-.26-1.49,3.52,3.52,0,0,1,.48-1.85,4.23,4.23,0,0,1,1.28-1.35,5.7,5.7,0,0,1,1.82-.82,8.2,8.2,0,0,1,2.11-.28,8.63,8.63,0,0,1,3.45.67v2.41a6.69,6.69,0,0,0-3.77-1.08,4.36,4.36,0,0,0-1.2.16,3.06,3.06,0,0,0-.93.42,2.16,2.16,0,0,0-.59.66,1.76,1.76,0,0,0-.21.85,2,2,0,0,0,.21,1,2.15,2.15,0,0,0,.62.7,4.75,4.75,0,0,0,1,.55c.39.17.83.34,1.32.54a19.07,19.07,0,0,1,1.77.77,6.18,6.18,0,0,1,1.33.9,3.55,3.55,0,0,1,.85,1.16,3.66,3.66,0,0,1,.3,1.55,3.6,3.6,0,0,1-.49,1.91,4.15,4.15,0,0,1-1.29,1.35,6.07,6.07,0,0,1-1.87.8,9.5,9.5,0,0,1-2.22.26A8.47,8.47,0,0,1,441.62,323.3Z"></path><path class="cls-6" d="M461.27,323.7a4.7,4.7,0,0,1-2.22.46q-3.9,0-3.9-4.35V311H452.6v-2h2.55v-3.62l2.38-.77V309h3.74v2h-3.74v8.37a3.47,3.47,0,0,0,.51,2.13,2,2,0,0,0,1.68.64,2.48,2.48,0,0,0,1.55-.5Z"></path><path class="cls-7" d="M430.52,305.17h0a12.09,12.09,0,0,0-10.33,6.29h0a7.38,7.38,0,0,0,.18,7.37l1.42,2.32a7.38,7.38,0,0,0,6.47,3.54l2.72-.07a7.38,7.38,0,0,0,6.3-3.83l1.3-2.39a7.4,7.4,0,0,0-.17-7.38L437,308.7A7.35,7.35,0,0,0,430.52,305.17Z"></path><path class="cls-8" d="M434.53,317.83c-2.72,2.89-6.23,3.16-9.15.74-.16-.13,0-.27.17-.35,2.37,1.85,6,1.62,9-.39"></path><path class="cls-9" d="M434.53,317.83c-2.5,2.75-7.12,2.81-9.16.53-.14-.16-.11,0,0-.06,2.37,2.09,6.17,1.8,9.12-.47"></path><line class="cls-10" x1="425.6" y1="317.17" x2="424.69" y2="319.15"></line><line class="cls-10" x1="434.11" y1="317.12" x2="434.97" y2="318.88"></line><path class="cls-5" d="M431.92,314.54h-.35l-.05-2.05-.83-.84-.15-6.57a1.84,1.84,0,0,1,.33,0l.15,6.38.85.84Z"></path><polygon class="cls-5" points="428.96 305.12 429.12 311.94 428.32 312.82 428.36 314.72 428.37 314.86 428.03 314.87 428.03 314.7 427.98 312.67 428.77 311.78 428.61 305.18 428.96 305.12"></polygon><path class="cls-5" d="M430.11,313.08h-.35l-.19-8a.58.58,0,0,1,.19,0h.16Z"></path><path class="cls-5" d="M433.09,313.35,432,312.26l-.16-7a.8.8,0,0,1,.33.08l.16,6.72.87.87.11.12Z"></path><path class="cls-5" d="M426.69,313.31l-.3-.17.27-.3.81-.9-.15-6.44a2.19,2.19,0,0,1,.34-.1l.16,6.69-.91,1Z"></path><path class="cls-5" d="M428.79,315.34a.64.64,0,0,0-.43-.62.48.48,0,0,0-.2,0,.3.3,0,0,0-.13,0,.66.66,0,0,0-.49.67.64.64,0,0,0,.65.65A.63.63,0,0,0,428.79,315.34Zm-1,0a.39.39,0,0,1,.34-.4.38.38,0,0,1,.36.38.36.36,0,0,1-.34.38A.36.36,0,0,1,427.82,315.36Z"></path><path class="cls-5" d="M430.58,313.61a.64.64,0,0,0-.48-.63.51.51,0,0,0-.17,0,.58.58,0,0,0-.18,0,.63.63,0,0,0-.44.65.64.64,0,1,0,1.27,0Zm-1,0a.36.36,0,1,1,.72,0,.38.38,0,0,1-.36.38A.36.36,0,0,1,429.59,313.63Z"></path><path class="cls-5" d="M426.54,311.12h-.3l-.13-5.5a1.24,1.24,0,0,1,.3-.16Z"></path><path class="cls-5" d="M426.84,311.52a.45.45,0,0,0-.3-.43s0,0,0,0h-.13l-.11,0,0,0a.44.44,0,0,0-.29.44.45.45,0,0,0,.45.46A.44.44,0,0,0,426.84,311.52Zm-.69,0a.25.25,0,1,1,.5,0,.26.26,0,0,1-.25.27A.26.26,0,0,1,426.15,311.54Z"></path><path class="cls-5" d="M433.12,305l.15,6h.29l-.14-5.71A2.61,2.61,0,0,0,433.12,305Z"></path><path class="cls-5" d="M433.87,311.35a.46.46,0,0,0-.31-.43h0a.31.31,0,0,0-.22,0,0,0,0,0,0,0,0,.46.46,0,0,0-.29.45.45.45,0,0,0,.45.46A.48.48,0,0,0,433.87,311.35Zm-.7,0a.27.27,0,0,1,.25-.28.27.27,0,0,1,.26.27.26.26,0,0,1-.25.27A.25.25,0,0,1,433.17,311.37Z"></path><path class="cls-5" d="M432.43,315a.64.64,0,0,0-.51-.65h-.15a.71.71,0,0,0-.2,0,.68.68,0,0,0-.4.65.63.63,0,1,0,1.26,0Zm-1,0a.36.36,0,1,1,.36.37A.38.38,0,0,1,431.44,315Z"></path><path class="cls-5" d="M434.91,313.86a1,1,0,0,0-1-1,.92.92,0,0,0-.52.17,1.09,1.09,0,0,0-.34.43,1,1,0,0,0-.09.45,1,1,0,0,0,1,1A1,1,0,0,0,434.91,313.86Zm-1.54,0a.56.56,0,1,1,1.11,0,.56.56,0,1,1-1.11,0Z"></path><path class="cls-5" d="M427.07,314a1,1,0,0,0-1-1,.92.92,0,0,0-.52.17,1.09,1.09,0,0,0-.34.43,1,1,0,0,0-.09.45,1,1,0,0,0,1,1A1,1,0,0,0,427.07,314Zm-1.54,0a.56.56,0,0,1,.53-.59.59.59,0,0,1,0,1.18A.57.57,0,0,1,425.53,314.08Z"></path></svg>