<svg xmlns="http://www.w3.org/2000/svg" xmlns:xlink="http://www.w3.org/1999/xlink" id="Layer_1" x="0px" y="0px" viewBox="0 0 279.94 184.9" style="enable-background:new 0 0 279.94 184.9;" xml:space="preserve"><style type="text/css">	.st0{fill:none;}	.st1{fill:none;stroke:#D9DBDB;stroke-width:5;stroke-miterlimit:10;}	.st2{fill:#FFFFFF;}	.st3{fill:#1D262D;}	.st4{fill:#F9FBFC;}	.st5{fill:#4E4E4E;}	.st6{opacity:0.5;}	.st7{opacity:0.5;fill:#FFFFFF;}	.st8{fill:#363636;}	.st9{fill:#81BCDE;}	.st10{fill:#282325;}	.st11{fill:#2F3944;}	.st12{fill:#1E1716;}	.st13{fill:#D3EBF7;}	.st14{fill:#D2EAF7;}	.st15{fill:#F9FDFC;}	.st16{fill:#292E30;}	.st17{fill:#7AAAD3;}	.st18{fill:#F3E4E3;}	.st19{fill:#D67B7B;}	.st20{fill:#E7CACA;}	.st21{fill:#D48B8A;}	.st22{fill:#6797BB;}	.st23{fill:#C0C1D3;}</style><rect class="st0" width="279.94" height="184.9"></rect><g>	<path class="st9" d="M113.07,59.14c1.17-4.89,3.37-9.4,5.76-13.81c3.65-6.73,8.39-12.76,14.03-18.09  c11.38-10.76,24.99-17.66,40.92-19.66c21.05-2.64,39.93,2.6,56.19,15.7c14.99,12.07,23.98,27.56,26.94,45.89  c3.76,23.27-1.76,44.48-17.78,62.79c-11.09,12.68-25.14,20.86-42.25,23.96c-15.24,2.77-29.88,0.88-43.88-5.53  c-11.89-5.44-21.45-13.44-29.01-23.63c-5.83-7.86-9.8-16.54-12.24-25.86c0.26-0.04,0.52-0.08,0.78-0.12  c0.65-0.01,1.3-0.01,1.96-0.02c0.4,0,0.79,0,1.19,0.01c0.13,0,0.26,0,0.39,0c0.27,0.04,0.54,0.07,0.8,0.11  c0.28,2.62,1.46,4.98,2.35,7.42c0.09,0.09,0.17,0.25,0.26,0.25c4.23,0.04,8.45,0.08,12.68,0.08c0.93,0,0.7-0.61,0.56-1.2  c-0.49-2.16-1.28-4.27-1.32-6.52l-0.08-0.07l0.05-0.09c0.53,0.01,1.06,0.01,1.59,0.02c1.05,0.04,2.11,0.09,3.16,0.13  c0.48,2.17,0.98,4.35,1.44,6.52c0.18,0.86,0.63,1.25,1.61,1.25c13.58-0.02,27.16-0.02,40.74,0c1.16,0,1.44-0.45,1.42-1.45  c-0.05-2.11-0.02-4.22-0.02-6.33l-0.08-0.06l0.05-0.09c1.58,0.18,3.16,0.18,4.74,0l0.06,0.1c0,0-0.08,0.08-0.08,0.08  c0.01,1.99,0.09,3.98,0,5.96c-0.06,1.41,0.54,1.85,1.96,1.8c2.54-0.08,5.09-0.02,7.64-0.02c10.71,0,21.42,0,32.13-0.01  c0.79,0,1.74,0.3,2.04-0.88c0.57-2.28,1.38-4.51,1.44-6.89c0.13-0.04,0.26-0.08,0.39-0.12c1.44,0.15,2.89,0.17,4.33,0l0.05,0.1  l-0.07,0.08c0.23,2.08-0.6,4.01-1.05,5.98c-0.3,1.33,0.04,1.8,1.5,1.76c2.47-0.07,4.94,0.06,7.41-0.03  c1.46-0.05,2.97,0.42,4.37-0.32c1.73-3.54,2.69-7.31,3.48-11.1c0.29-1.39,1.12-2.77,0.49-4.27c0.83-1.33,1.81-2.58,2.26-4.1  c0.15-0.27,0.34-0.53,0.44-0.82c2.92-8.1,1.67-15.55-3.87-22.33c0.49-0.32,0.35-0.79,0.24-1.19c-1.11-4.15-2.49-8.21-4.29-12.14  c-0.37-0.81-0.98-0.87-1.73-0.86c-2.15,0.02-4.31,0.02-6.46,0.04c-1.23-0.01-2.47,0.01-3.69-0.05c-1.23-0.06-1.6,0.31-1.26,1.53  c0.56,2.01,1.33,3.99,1.44,6.1c-1.59,0.26-3.18,0.15-4.77,0.06c-0.24-2.37-1.08-4.58-1.82-6.83c-0.26-0.79-0.79-0.86-1.49-0.86  c-13.15,0.01-26.29,0.02-39.44-0.01c-1.34,0-1.68,0.58-1.64,1.72c0.06,1.99,0.03,3.98,0.04,5.97c-1.59,0.01-3.19,0.02-4.78,0.03  c0.01-2.05-0.01-4.11,0.06-6.16c0.04-1.07-0.24-1.57-1.51-1.56c-13.08,0.03-26.17,0.03-39.25,0c-1.14,0-1.64,0.43-1.9,1.42  c-0.54,2.11-1.16,4.19-1.74,6.29c-1.59-0.01-3.19-0.02-4.78-0.02c0.25-1.08,0.57-2.15,0.75-3.24c0.23-1.44,1.65-3.27,0.81-4.12  c-0.92-0.93-3.07-0.27-4.69-0.25c-2.27-0.01-4.54-0.02-6.8-0.04c-0.68-0.01-1.3,0.01-1.58,0.75c-0.88,2.3-2.13,4.48-2.56,6.94  C116.4,59.29,114.74,59.36,113.07,59.14z M215.86,144.53c0,0,0.01-0.01,0.01-0.01c0.16-0.1,0.31-0.21,0.47-0.31  c3.06-1.46,5.85-3.28,8.77-5.62c-2.2-0.34-4.18-1.16-5.61,0.07c-2.15,1.85-3.91,4.11-5.84,6.2c-0.67,0.29-1.2,0.71-1.3,1.59  c0.92-0.51,1.83-1.01,2.75-1.52c0.12-0.02,0.24-0.05,0.36-0.1C215.6,144.73,215.73,144.63,215.86,144.53z M154.98,146.02  c0.12,0.1,0.25,0.2,0.37,0.29c0.04-0.04,0.08-0.09,0.11-0.13c-0.17-0.05-0.33-0.09-0.5-0.14c-0.11-0.35-0.38-0.45-0.74-0.42  c-1.29-2.16-3.33-3.72-4.98-5.59c-1.88-2.15-3.54-2.38-6.41-0.87c3.7,2.41,7.14,5.04,11.33,6.53  C154.34,145.99,154.64,146.05,154.98,146.02z M213.14,18.24c-0.31-0.39-0.63-0.75-1.26-0.55c0.19,0.59,0.7,0.6,1.18,0.63  c1.04,1.96,2.97,3.21,4.39,4.87c1.47,1.72,3.4,1.9,5.81,0.67C219.89,21.83,216.84,19.53,213.14,18.24z M154.98,17.89  c-3.84,1.41-7.15,3.66-10.68,5.97c2.68,1,4.81,1.08,6.33-1.33c1.14-1.8,3.41-2.67,4.33-4.66c0.17-0.05,0.51,0.19,0.44-0.24  C155.26,17.72,155.12,17.8,154.98,17.89z M185.98,152.37c0.15,0,0.29-0.01,0.44-0.01c0.65-0.02,1.31,0.02,1.95-0.07  c8.01-1.14,14.8-4.66,20.75-9.76c1.5-1.28,2.84-2.73,4.51-4.34c-1.3,0-2.08,0-2.86,0c-7.44-0.02-14.87,0.04-22.31-0.1  c-2.01-0.04-2.75,0.53-2.49,2.36c-0.75,1.54-0.35,3.17-0.31,4.75C185.71,147.59,185.2,150.01,185.98,152.37z M211.58,23.83  c-1.73-2.04-3.9-3.63-6.1-5.16c-5.22-3.62-10.89-6.26-17.44-6.82c-1.32-0.64-2.07-0.49-2.05,1.15c0.05,3.35,0.05,6.71,0.02,10.06  c-0.01,1.12,0.45,1.55,1.62,1.54c7.32-0.04,14.63-0.05,21.95-0.07c0.64,0,1.29,0,1.93,0C212.15,24.35,211.94,24.1,211.58,23.83z   M181.29,19c0.01-2.05-0.02-4.1,0.05-6.15c0.04-1.13-0.48-1.42-1.55-1.23c-2.24,0.4-4.49,0.76-6.67,1.45  c-6.79,2.15-12.43,5.97-17.35,10.82c-0.37,0.23-0.57,0.45,0.03,0.64c0.38,0,0.76,0,1.14,0.01c7.62,0.02,15.24,0.02,22.86,0.07  c1.22,0.01,1.6-0.42,1.54-1.53C181.25,21.73,181.3,20.36,181.29,19z M156.54,138.19c-0.73,0.03-1.51-0.23-2.36,0.28  c3.47,3.96,7.54,7,12.04,9.53c3.97,2.23,8.29,3.59,12.83,4.31c1.32,0.21,2.47,0.29,2.3-1.62c-0.17-1.91-0.07-3.84-0.09-5.77  c0.02-1.74-0.03-3.48,0.07-5.21c0.07-1.23-0.42-1.6-1.69-1.59C171.95,138.18,164.24,138.17,156.54,138.19z M235.53,46.99  c2.77,0,5.53,0,8.54,0c-3.44-6.19-7.72-11.38-12.51-16.25c-1.94-1.97-3.84-3.56-6.88-2.08c-0.27,0.13-0.64,0.07-0.97,0.07  c-1.12,0.01-1.41,0.33-0.77,1.34c1.75,2.76,3.43,5.56,5.13,8.34c0.77,1.76,1.56,3.5,2.29,5.27  C231.78,47.1,231.77,47.11,235.53,46.99z M132.54,46.95c1.16-0.06,2.73,0.72,3.38-0.54c1.28-2.46,2.2-5.08,3.28-7.63  c0.41-0.23,0.43-0.63,0.51-1.01c0.11-0.15,0.22-0.3,0.33-0.45c1.04-1.72,2.03-3.48,3.12-5.17c2.1-3.24,2.13-3.25-1.75-4.11  c-0.89-0.2-1.73-0.68-2.71,0.19C132.9,33.4,128,39.25,124.02,45.81c-0.47,0.78-0.5,1.25,0.68,1.22  C127.31,46.98,129.93,46.97,132.54,46.95z M227.27,126.97c-1.14,1.88-2.25,3.78-3.44,5.63c-0.49,0.76-0.44,1.03,0.52,1.2  c1.22,0.21,2.5,0.38,3.58,0.89c1.2,0.57,1.84,0.21,2.68-0.57c4.41-4.11,8.22-8.67,11.42-13.67c1.46-2.29,2.97-4.58,3.91-7.25  c-0.48-0.03-0.74-0.07-0.99-0.07c-2.48,0.01-4.97,0.03-7.45,0.05c-1.11-0.01-2.22-0.03-3.32-0.04c-0.64-0.01-1.16,0.14-1.36,0.81  c-1.19,3.99-3.16,7.7-4.7,11.57c-0.4,0.24-0.42,0.64-0.51,1.02C227.49,126.68,227.38,126.82,227.27,126.97z M129.82,113.17  c-2.28-0.01-4.57,0-6.85-0.05c-1.18-0.03-1.53,0.23-0.95,1.37c3.8,7.44,8.83,14.03,15.03,19.82c0.5,0.47,1.03,1.03,1.85,0.84  c1.8-0.41,3.58-0.86,5.47-1.32c-1.77-2.91-3.42-5.64-5.08-8.36c-1.21-2.91-2.41-5.83-3.63-8.74  C134.11,113.03,134.11,113.04,129.82,113.17z M200.99,133.66c4.32,0,8.64,0.09,12.95-0.05c1.5-0.05,3.24,0.31,4.4-1.29  c3.98-5.45,6.84-11.42,9.27-17.6c0.46-1.18,0.3-1.62-1.18-1.62c-12.89,0.05-25.77,0.05-38.66,0.01c-1.36,0-1.8,0.37-1.79,1.69  c0.07,5.66,0.07,11.32,0,16.98c-0.02,1.48,0.52,1.95,2.04,1.92C192.36,133.62,196.68,133.67,200.99,133.66z M139.4,113.13  c2.37,7.01,5.53,13.31,9.69,19.16c0.69,0.97,1.49,1.4,2.75,1.4c9.22-0.04,18.45-0.06,27.67,0.01c1.53,0.01,1.85-0.5,1.83-1.84  c-0.07-5.66-0.07-11.32,0-16.98c0.02-1.41-0.45-1.78-1.9-1.78c-11.91,0.05-23.81,0.03-35.72,0.03  C142.37,113.13,141,113.13,139.4,113.13z M206.31,47.04c0,0,0-0.01,0-0.01c6.21,0,12.42-0.03,18.64,0.02  c1.29,0.01,1.64-0.3,1.14-1.47c-2.34-5.42-5.2-10.57-8.78-15.34c-0.61-0.82-1.3-1.2-2.43-1.19c-9.02,0.05-18.05,0.05-27.07,0  c-1.34-0.01-1.83,0.34-1.81,1.67c0.07,4.85,0.08,9.7,0,14.55c-0.02,1.38,0.39,1.82,1.87,1.8C194.02,47,200.16,47.04,206.31,47.04z   M161.07,47.03c6.15,0,12.3-0.03,18.45,0.02c1.31,0.01,1.85-0.28,1.83-1.65c-0.08-4.91-0.06-9.83-0.01-14.74  c0.01-1.2-0.35-1.62-1.66-1.62c-9.09,0.04-18.19,0.03-27.28,0c-0.95,0-1.57,0.32-2.12,1.05c-3.57,4.77-6.51,9.87-8.83,15.3  c-0.56,1.31-0.38,1.68,1.18,1.66C148.77,46.99,154.92,47.03,161.07,47.03z"></path>	<path class="st10" d="M230.4,59.19c1.59,0.09,3.18,0.2,4.77-0.06c2.08,0.19,4.17,0.39,6.25,0.58c3.69,1.25,6.95,3.12,9.5,5.99  c5.54,6.78,6.78,14.23,3.87,22.33c-0.1,0.29-0.29,0.55-0.44,0.82c-0.78-0.7-0.09-1.37,0.03-2.06c0.22-1.29,1.08-2.52,0.49-3.9  c0.08-0.62,0.16-1.24,0.24-1.87c0.9-2.37,0.35-4.59-0.8-6.74c-0.01-0.17-0.02-0.34-0.03-0.5c0.07-0.38,0.09-0.75-0.39-0.92  l0.01,0.01c0.09-0.51,0.18-1.03-0.57-1.18c-0.6-1.03-1.13-2.1-1.81-3.08c-2.09-2.98-4.58-5.53-8.31-6.66  c-0.5-0.47-1.11-0.68-1.8-0.72c-0.26-0.09-0.53-0.18-0.79-0.27c-0.76-0.18-1.51-0.41-2.31-0.23c0,0-0.01,0.09-0.01,0.09  c-0.59-0.6-1.35-0.32-2.03-0.32c-5.82-0.03-11.64-0.02-17.47-0.01c-10.14,0.02-20.28,0.04-30.41,0.06  c-0.27-0.01-0.53-0.02-0.8-0.03c-0.26-0.02-0.52-0.05-0.78-0.05c-47.76,0-95.52-0.02-143.27,0.01c-9.4,0.01-17.58,7.67-18.17,16.83  c-0.47,1.98-0.35,3.97-0.05,5.94c1.46,9.43,9.19,16.67,19.48,16.49c15.71-0.26,31.42-0.08,47.13-0.07c6.35,0,12.69,0.05,19.04,0.08  c0,0.34,0,0.68,0,1.01c-6.42,0.03-12.83,0.07-19.25,0.07c-15.65,0.01-31.31-0.22-46.95,0.08c-10.94,0.21-19.02-7.57-20.59-16.96  c-1.34-8.05,0.93-15.07,7.48-20.55c3.41-2.86,7.49-4.16,12.08-4.15c22.33,0.03,44.66,0.02,66.99,0.01c0.78,0,1.56-0.08,2.34-0.12  c1.66,0.22,3.33,0.15,5,0.07c2.73-0.01,5.47-0.03,8.2-0.04c1.96,0.16,3.92,0.15,5.88,0c1.59,0.01,3.19,0.02,4.78,0.02  c14.78,0,29.56,0.01,44.35,0.01c1.59-0.01,3.19-0.02,4.78-0.03C200.84,59.18,215.62,59.19,230.4,59.19z"></path>	<path class="st11" d="M55.17,173.68c-2.76-0.84-4.95-2.7-7.53-3.86c-2.64-1.18-4.58-2.93-5.86-5.46c-0.52-1.02-0.63-1.66,0.08-2.64  c3.96-5.4,7.81-10.89,11.77-16.3c0.72-0.99,0.75-1.46-0.46-2.05c-1.8-0.88-3.42-2.11-5.25-2.9c-2.75-1.19-4.26-3.31-5.62-5.69  c-0.53-0.93-0.25-1.27,0.56-1.71c15.48-8.56,30.95-17.12,46.41-25.71c0.81-0.45,1.23-0.53,1.84,0.36c1.68,2.41,2.38,4.84,2.13,7.84  c-1.18,13.64-2.09,27.3-3.1,40.95c-0.16,2.17-0.36,4.34-0.44,6.52c-0.05,1.49-0.56,1.51-1.73,0.78c-3.61-2.25-7.29-4.39-10.87-6.67  c-1.06-0.68-1.42-0.46-2,0.5c-3.81,6.3-7.74,12.54-11.52,18.86c-0.84,1.4-1.52,1.55-2.81,0.62c-1.79-1.28-4.06-1.86-5.66-3.44  c2.23,0.08,3.79,1.54,5.59,2.49c1.13,0.6,1.72,0.56,2.43-0.63c3.76-6.26,7.67-12.45,11.45-18.7c0.74-1.23,1.38-1.37,2.6-0.6  c3.27,2.06,6.66,3.96,9.92,6.03c1.55,0.99,1.78,0.48,1.85-0.98c0.24-4.59,0.56-9.18,0.9-13.77c0.85-11.41,1.7-22.82,2.61-34.22  c0.14-1.69-0.58-2.88-1.84-4.18c-0.26,3.29-0.48,6.32-0.74,9.35c-0.71,8.22-1.18,16.46-1.99,24.68c-0.5,5.05-0.62,10.17-0.92,15.25  c-0.1,1.76-0.27,1.84-1.94,0.83c-3.53-2.13-7.07-4.26-10.56-6.46c-1-0.63-1.45-0.59-2.08,0.45c-3.64,6.04-7.37,12.03-11.05,18.06  c-1.44,2.36-1.41,2.38-3.9,1.2c-0.52-0.72,0.14-0.83,0.5-0.62c1.76,1.01,2.21-0.29,2.86-1.34c3.65-5.97,7.35-11.91,10.96-17.9  c0.77-1.28,1.34-1.69,2.81-0.73c3.23,2.11,6.62,4.01,9.91,6.04c1.1,0.68,1.63,0.85,1.74-0.74c0.76-11.17,1.53-22.34,2.42-33.5  c0.38-4.73,0.19-9.5,1.01-14.21c0.16-0.89-0.22-1.17-1.09-0.73c-0.4,0.2-0.81,0.4-1.21,0.62c-14.07,7.8-28.14,15.6-42.21,23.41  c-1.77,0.98-1.76,1.27,0.07,2.31c3.43,1.94,6.84,3.91,10.3,5.79c1.26,0.69,1.6,1.19,0.63,2.51c-4.4,5.96-8.64,12.02-12.98,18.01  c-0.72,0.99-0.97,1.57,0.4,2.29c4.12,2.16,8.17,4.46,12.24,6.7c0.14,0.64-0.2,0.84-0.75,0.61c-0.71-0.3-1.37-0.71-2.05-1.09  c-3.12-1.73-6.24-3.47-9.36-5.21c0.24,1.38,0.67,2.41,1.97,3.06c2.65,1.34,5.18,2.89,7.78,4.32  C54.16,172.47,54.78,172.95,55.17,173.68z M44.18,135.8c0.23,1.1,0.52,1.76,1.13,2.12c2.99,1.77,6.03,3.48,9.04,5.22  c0.53,0.31,0.85,0.11,1.13-0.31c0.27-0.4,0.43-0.77-0.15-1.08C51.72,139.8,48.34,137.49,44.18,135.8z"></path>	<path class="st12" d="M110.97,100.76c0-0.34,0-0.68,0-1.01c0.59-0.02,1.17-0.06,1.76-0.06c18.68,0,37.37,0,56.05-0.01  c6.27,0,12.54-0.04,18.81-0.06c5.89,0.04,11.78,0.09,17.67,0.13c-0.44,0.71-1.77-0.17-1.96,0.99c-4.45,0.01-8.9,0.02-13.35,0.03  c-0.78-0.48-1.57-0.47-2.36,0c-0.53,0.05-1.06,0.1-1.58,0.15l0.08-0.08l-0.06-0.1c-1.58-0.47-3.16-0.46-4.74,0l-0.05,0.09  c0,0,0.08,0.06,0.08,0.06c-4.96-0.02-9.91-0.07-14.87-0.06c-10.11,0.01-20.22,0.04-30.33,0.07c-1.05-0.04-2.11-0.09-3.16-0.13  c-0.52-0.87-1.06-0.4-1.59-0.02l-0.05,0.09c0,0,0.08,0.07,0.08,0.07c-2.23,0-4.47-0.01-6.7-0.01c-2.61-0.01-5.22-0.02-7.83-0.03  c-0.27-0.04-0.54-0.07-0.8-0.11c-0.13-0.19-0.26-0.19-0.39,0c-0.4,0-0.79,0-1.19-0.01c-0.65-0.27-1.31-0.94-1.96,0.02  c-0.26,0.04-0.52,0.08-0.78,0.12C111.49,100.84,111.23,100.8,110.97,100.76z"></path>	<path class="st13" d="M200.99,133.66c-4.32,0-8.63-0.05-12.95,0.03c-1.53,0.03-2.06-0.44-2.04-1.92c0.07-5.66,0.07-11.32,0-16.98  c-0.02-1.31,0.43-1.69,1.79-1.69c12.89,0.04,25.77,0.04,38.66-0.01c1.48-0.01,1.64,0.44,1.18,1.62c-2.44,6.18-5.3,12.15-9.27,17.6  c-1.17,1.6-2.9,1.24-4.4,1.29C209.63,133.75,205.31,133.66,200.99,133.66z"></path>	<path class="st13" d="M139.4,113.13c1.6,0,2.96,0,4.33,0c11.91,0,23.81,0.02,35.72-0.03c1.45-0.01,1.92,0.37,1.9,1.78  c-0.08,5.66-0.07,11.32,0,16.98c0.02,1.34-0.3,1.85-1.83,1.84c-9.22-0.06-18.45-0.05-27.67-0.01c-1.26,0.01-2.06-0.43-2.75-1.4  C144.93,126.44,141.77,120.15,139.4,113.13z"></path>	<path class="st13" d="M206.31,47.04c-6.15,0-12.29-0.04-18.44,0.03c-1.48,0.02-1.89-0.42-1.87-1.8c0.08-4.85,0.07-9.7,0-14.55  c-0.02-1.33,0.47-1.68,1.81-1.67c9.02,0.05,18.05,0.05,27.07,0c1.13-0.01,1.82,0.38,2.43,1.19c3.58,4.78,6.44,9.93,8.78,15.34  c0.51,1.17,0.16,1.48-1.14,1.47c-6.21-0.05-12.42-0.02-18.64-0.02C206.31,47.03,206.31,47.04,206.31,47.04z"></path>	<path class="st13" d="M161.07,47.03c-6.15,0-12.3-0.04-18.45,0.03c-1.55,0.02-1.74-0.35-1.18-1.66c2.32-5.43,5.26-10.52,8.83-15.3  c0.55-0.73,1.17-1.05,2.12-1.05c9.09,0.03,18.19,0.04,27.28,0c1.31-0.01,1.67,0.42,1.66,1.62c-0.06,4.91-0.07,9.83,0.01,14.74  c0.02,1.37-0.52,1.66-1.83,1.65C173.37,47,167.22,47.03,161.07,47.03z"></path>	<path class="st14" d="M189.94,100.76c4.45-0.01,8.9-0.02,13.35-0.03c0.92,0.01,1.85,0.02,2.77,0.03c6.94,0,13.88,0,20.82,0  c0.91,0,1.83,0,2.74,0c0.53,0.04,1.05,0.07,1.58,0.11c-0.05,2.38-0.87,4.61-1.44,6.89c-0.29,1.18-1.25,0.88-2.04,0.88  c-10.71,0.01-21.42,0.01-32.13,0.01c-2.55,0-5.09-0.06-7.64,0.02c-1.42,0.04-2.02-0.39-1.96-1.8c0.09-1.98,0.01-3.97,0-5.96  c0.53-0.05,1.06-0.1,1.58-0.15C188.37,100.76,189.16,100.76,189.94,100.76z"></path>	<path class="st14" d="M136.13,100.89c10.11-0.02,20.22-0.06,30.33-0.07c4.96,0,9.91,0.04,14.87,0.06c0,2.11-0.04,4.22,0.02,6.33  c0.03,1-0.26,1.45-1.42,1.45c-13.58-0.03-27.16-0.02-40.74,0c-0.97,0-1.42-0.39-1.61-1.25  C137.1,105.24,136.61,103.07,136.13,100.89z"></path>	<path class="st13" d="M230.4,59.19c-14.78,0-29.56-0.01-44.35-0.01c-0.01-1.99,0.02-3.98-0.04-5.97c-0.03-1.13,0.3-1.72,1.64-1.72  c13.15,0.03,26.29,0.02,39.44,0.01c0.7,0,1.23,0.07,1.49,0.86C229.32,54.61,230.16,56.83,230.4,59.19z"></path>	<path class="st13" d="M181.27,59.21c-14.78,0-29.56-0.01-44.35-0.01c0.59-2.1,1.2-4.18,1.74-6.29c0.26-0.99,0.76-1.42,1.9-1.42  c13.08,0.03,26.17,0.03,39.25,0c1.27,0,1.55,0.5,1.51,1.56C181.26,55.1,181.29,57.15,181.27,59.21z"></path>	<path class="st15" d="M139.28,125.46c1.66,2.73,3.31,5.46,5.08,8.36c-1.89,0.46-3.68,0.91-5.47,1.32  c-0.82,0.19-1.35-0.38-1.85-0.84c-6.2-5.79-11.23-12.38-15.03-19.82c-0.58-1.13-0.23-1.39,0.95-1.37c2.28,0.06,4.57,0.04,6.85,0.05  c2.2,4.5,5.54,8.25,8.74,12.1C138.68,125.42,139.03,125.4,139.28,125.46z"></path>	<path class="st15" d="M227.61,126.53c0.09-0.37,0.11-0.78,0.51-1.02c0.73-0.05,1.15-0.56,1.56-1.02c3.08-3.47,5.86-7.14,7.83-11.31  c2.48-0.02,4.97-0.03,7.45-0.05c0.26,0,0.52,0.03,0.99,0.07c-0.94,2.67-2.45,4.96-3.91,7.25c-3.2,5-7.02,9.56-11.42,13.67  c-0.84,0.78-1.48,1.14-2.68,0.57c-1.08-0.51-2.37-0.68-3.58-0.89c-0.97-0.16-1.01-0.44-0.52-1.2c1.2-1.85,2.3-3.75,3.44-5.63  C227.38,126.82,227.49,126.68,227.61,126.53z"></path>	<path class="st15" d="M139.71,37.77c-0.08,0.38-0.1,0.78-0.51,1.01c-2.48,1.07-3.31,3.56-5.03,5.29c-0.78,0.78-1.66,1.63-1.63,2.88  c-2.61,0.02-5.23,0.03-7.84,0.08c-1.18,0.02-1.15-0.45-0.68-1.22c3.98-6.55,8.88-12.41,14.69-17.59c0.98-0.87,1.82-0.39,2.71-0.19  c3.88,0.87,3.85,0.87,1.75,4.11c-1.1,1.69-2.08,3.44-3.12,5.17C139.93,37.46,139.82,37.62,139.71,37.77z"></path>	<path class="st15" d="M228.08,38.42c-1.71-2.78-3.38-5.58-5.13-8.34c-0.64-1.01-0.35-1.33,0.77-1.34c0.33,0,0.7,0.06,0.97-0.07  c3.03-1.48,4.94,0.11,6.88,2.08c4.79,4.86,9.07,10.05,12.51,16.25c-3.01,0-5.78,0-8.54,0c-0.93-1.26-1.75-2.61-2.82-3.75  C231.18,41.62,230.26,39.48,228.08,38.42z"></path>	<path class="st15" d="M181.27,144.92c0.02,1.92-0.08,3.86,0.09,5.77c0.17,1.91-0.98,1.83-2.3,1.62c-4.54-0.72-8.86-2.08-12.83-4.31  c-4.5-2.53-8.57-5.57-12.04-9.53c0.85-0.51,1.63-0.25,2.36-0.28c0.02,0.72,0.65,0.87,1.16,1.1  C165.18,142.58,173.01,144.59,181.27,144.92z"></path>	<path class="st15" d="M210.77,138.19c0.78,0,1.56,0,2.86,0c-1.67,1.62-3.02,3.06-4.51,4.34c-5.95,5.1-12.74,8.61-20.75,9.76  c-0.64,0.09-1.3,0.05-1.95,0.07c0-2.05,0.02-4.09-0.03-6.14c-0.02-0.94,0.33-1.27,1.35-1.34c6.93-0.45,13.53-2.23,19.93-4.71  C208.82,139.73,210.06,139.31,210.77,138.19z"></path>	<path class="st15" d="M156.93,24.54c-0.38,0-0.76,0-1.14-0.01c-0.01-0.21-0.02-0.43-0.03-0.64c4.93-4.85,10.57-8.66,17.35-10.82  c2.17-0.69,4.42-1.05,6.67-1.45c1.07-0.19,1.58,0.1,1.55,1.23c-0.07,2.05-0.04,4.1-0.05,6.15c-0.88,0.21-1.75,0.36-2.67,0.4  c-3.3,0.12-6.52,0.71-9.73,1.45C164.8,21.8,161.08,23.8,156.93,24.54z"></path>	<path class="st15" d="M211.52,24.54c-0.64,0-1.29,0-1.93,0c-6.71-2.58-13.48-4.94-20.83-5.19c-1.6-0.05-2.69-0.63-2.39-2.51  c0.18-1.09,0.11-2.24,0.01-3.35c-0.11-1.23,0.42-1.73,1.66-1.64c6.55,0.57,12.22,3.2,17.44,6.82c2.2,1.53,4.37,3.12,6.1,5.16  C211.56,24.07,211.54,24.3,211.52,24.54z"></path>	<path class="st13" d="M210.77,138.19c-0.71,1.11-1.96,1.54-3.1,1.98c-6.4,2.48-13,4.26-19.93,4.71c-1.02,0.07-1.37,0.4-1.35,1.34  c0.05,2.04,0.02,4.09,0.03,6.14c-0.15,0-0.29,0.01-0.44,0.01c0-3.97,0-7.95,0-11.92c-0.26-1.83,0.48-2.4,2.49-2.36  C195.9,138.24,203.34,138.18,210.77,138.19z"></path>	<path class="st13" d="M181.27,144.92c-8.26-0.33-16.09-2.34-23.57-5.64c-0.51-0.22-1.15-0.38-1.16-1.1  c7.7-0.02,15.41-0.01,23.11-0.07c1.27-0.01,1.76,0.36,1.69,1.59C181.24,141.44,181.29,143.18,181.27,144.92z"></path>	<path class="st15" d="M252.1,92.95c0.63,1.5-0.2,2.87-0.49,4.27c-0.79,3.8-1.75,7.56-3.48,11.1c-2.09-0.01-4.18-0.07-6.26-0.01  c-1.44,0.05-1.55-0.27-1.09-1.57c0.78-2.26,2.36-4.32,2.11-6.87C246.63,98.38,249.73,96.11,252.1,92.95z"></path>	<path class="st15" d="M250.93,65.71c-2.56-2.87-5.82-4.74-9.5-5.99c-0.16-1.1-0.58-2.11-0.98-3.16c-0.62-1.65-1.96-3.1-1.76-5.01  c2.15-0.01,4.31-0.02,6.46-0.04c0.75-0.01,1.36,0.05,1.73,0.86c1.8,3.93,3.17,7.99,4.29,12.14  C251.28,64.92,251.41,65.39,250.93,65.71z"></path>	<path class="st13" d="M188.04,11.85c-1.25-0.09-1.77,0.41-1.66,1.64c0.1,1.11,0.16,2.26-0.01,3.35c-0.3,1.87,0.78,2.45,2.39,2.51  c7.36,0.25,14.12,2.61,20.83,5.19c-7.32,0.02-14.63,0.02-21.95,0.07c-1.17,0.01-1.64-0.42-1.62-1.54  c0.03-3.35,0.03-6.71-0.02-10.06C185.97,11.36,186.73,11.21,188.04,11.85z"></path>	<path class="st13" d="M156.93,24.54c4.15-0.74,7.86-2.74,11.95-3.69c3.21-0.74,6.43-1.33,9.73-1.45c0.92-0.03,1.8-0.19,2.67-0.4  c0.01,1.36-0.03,2.73,0.05,4.09c0.06,1.1-0.31,1.53-1.54,1.53C172.18,24.55,164.56,24.56,156.93,24.54z"></path>	<path class="st15" d="M126.27,59.17c-2.73,0.01-5.47,0.03-8.2,0.04c0.43-2.46,1.68-4.64,2.56-6.94c0.28-0.74,0.9-0.76,1.58-0.75  c2.27,0.02,4.54,0.03,6.8,0.04c-0.27,0.81-0.32,1.68-0.82,2.45C127.17,55.58,126.51,57.31,126.27,59.17z"></path>	<path class="st15" d="M116.87,100.87c2.61,0.01,5.22,0.02,7.83,0.03c-0.04,1.93,1.05,3.53,1.67,5.28c0.75,2.12,0.76,2.12-1.48,2.12  c-1.89,0-3.78-0.01-5.67-0.01C118.33,105.85,117.16,103.48,116.87,100.87z"></path>	<path class="st14" d="M242.88,99.88c0.25,2.55-1.32,4.61-2.11,6.87c-0.45,1.3-0.34,1.62,1.09,1.57c2.08-0.07,4.17,0,6.26,0.01  c-1.4,0.75-2.92,0.27-4.37,0.32c-2.47,0.08-4.94-0.05-7.41,0.03c-1.46,0.04-1.8-0.43-1.5-1.76c0.45-1.97,1.28-3.9,1.05-5.98  c0.78-0.07,1.57-0.15,2.35-0.22C239.87,100.8,241.34,100.13,242.88,99.88z"></path>	<path class="st14" d="M119.23,108.29c1.89,0,3.78,0.01,5.67,0.01c2.24,0,2.23,0,1.48-2.12c-0.61-1.74-1.71-3.35-1.67-5.28  c2.23,0,4.47,0.01,6.7,0.01c0.04,2.25,0.83,4.36,1.32,6.52c0.13,0.58,0.37,1.2-0.56,1.2c-4.23,0-8.45-0.04-12.68-0.08  C119.4,108.54,119.31,108.38,119.23,108.29z"></path>	<path class="st14" d="M238.69,51.55c-0.2,1.91,1.13,3.36,1.76,5.01c0.4,1.05,0.82,2.06,0.98,3.16c-2.08-0.19-4.17-0.39-6.25-0.58  c-0.11-2.11-0.88-4.09-1.44-6.1c-0.34-1.22,0.03-1.58,1.26-1.53C236.22,51.56,237.46,51.54,238.69,51.55z"></path>	<path class="st13" d="M126.27,59.17c0.24-1.86,0.9-3.59,1.93-5.17c0.5-0.77,0.55-1.63,0.82-2.45c1.62-0.01,3.76-0.68,4.69,0.25  c0.84,0.85-0.58,2.68-0.81,4.12c-0.17,1.09-0.49,2.16-0.75,3.24C130.19,59.32,128.23,59.33,126.27,59.17z"></path>	<path class="st13" d="M237.5,113.18c-1.97,4.17-4.75,7.84-7.83,11.31c-0.41,0.46-0.82,0.98-1.56,1.02  c1.55-3.86,3.51-7.57,4.7-11.57c0.2-0.66,0.72-0.82,1.36-0.81C235.28,113.15,236.39,113.16,237.5,113.18z"></path>	<path class="st14" d="M139.28,125.46c-0.25-0.06-0.6-0.05-0.72-0.2c-3.2-3.84-6.54-7.6-8.74-12.1c4.29-0.13,4.29-0.14,5.83,3.56  C136.87,119.64,138.07,122.55,139.28,125.46z"></path>	<path class="st12" d="M238.26,100.71c-0.78,0.07-1.57,0.15-2.35,0.22c0,0,0.07-0.08,0.07-0.08l-0.05-0.1  c-1.44-0.51-2.89-1.2-4.33,0c-0.13,0.04-0.26,0.08-0.39,0.12c-0.53-0.04-1.05-0.07-1.58-0.11c-0.91-0.48-1.83-0.47-2.74,0  c-6.94,0-13.88,0-20.82,0c0-0.34-0.01-0.67-0.01-1.01c10.75-0.03,21.49-0.05,32.24-0.08C238.28,100.02,238.27,100.36,238.26,100.71  z"></path>	<path class="st16" d="M238.26,100.71c0.01-0.35,0.02-0.69,0.03-1.04c0.38,0,0.75-0.01,1.13-0.01c0.68,0.76,0.91,0.08,1.21-0.35  c0.47-0.2,0.92-0.43,1.4-0.58c5.09-1.62,8.51-4.96,10.77-9.48c0.08-0.05,0.1-0.11,0.05-0.19c0.31-0.24,0.38-0.57,0.39-0.92  l-0.02,0.03c0.45-0.56,0.62-1.21,0.73-1.88c0.3-1.13,0.61-2.25,0.91-3.38c0.59,1.39-0.27,2.61-0.49,3.9  c-0.12,0.69-0.81,1.36-0.03,2.06c-0.44,1.52-1.43,2.77-2.26,4.1c-2.36,3.16-5.47,5.43-9.21,6.92  C241.34,100.13,239.87,100.8,238.26,100.71z"></path>	<path class="st15" d="M154.17,145.67c-4.19-1.49-7.64-4.12-11.33-6.53c2.87-1.51,4.52-1.28,6.41,0.87c1.64,1.88,3.68,3.44,4.98,5.6  C154.22,145.62,154.17,145.67,154.17,145.67z"></path>	<path class="st15" d="M215.47,144.82c-0.12,0.05-0.24,0.08-0.36,0.1c-0.48-0.02-0.96-0.04-1.45-0.07c1.93-2.09,3.68-4.35,5.84-6.2  c1.43-1.23,3.41-0.41,5.61-0.07c-2.92,2.35-5.71,4.17-8.77,5.62c-0.16,0.1-0.31,0.21-0.47,0.31c0,0-0.01,0.01-0.01,0.01  C215.73,144.63,215.6,144.73,215.47,144.82z"></path>	<path class="st15" d="M154.96,17.87c-0.91,2-3.19,2.86-4.33,4.66c-1.52,2.41-3.65,2.33-6.33,1.33c3.53-2.3,6.83-4.55,10.68-5.97  L154.96,17.87z"></path>	<path class="st15" d="M213.14,18.24c3.7,1.29,6.74,3.6,10.12,5.62c-2.4,1.23-4.34,1.06-5.81-0.67c-1.42-1.66-3.35-2.91-4.39-4.87  L213.14,18.24z"></path>	<path class="st13" d="M228.08,38.42c2.18,1.05,3.1,3.2,4.63,4.83c1.07,1.14,1.89,2.49,2.82,3.75c-3.76,0.11-3.75,0.11-5.16-3.3  C229.64,41.92,228.85,40.18,228.08,38.42z"></path>	<path class="st13" d="M132.54,46.95c-0.04-1.25,0.84-2.1,1.63-2.88c1.72-1.73,2.55-4.22,5.03-5.29c-1.07,2.55-2,5.18-3.28,7.63  C135.27,47.67,133.71,46.89,132.54,46.95z"></path>	<path class="st17" d="M185.98,140.45c0,3.97,0,7.95,0,11.92c-0.77-2.36-0.27-4.78-0.31-7.17  C185.63,143.63,185.23,141.99,185.98,140.45z"></path>	<path class="st16" d="M231.6,100.75c1.45-1.2,2.89-0.51,4.33,0C234.49,100.92,233.04,100.9,231.6,100.75z"></path>	<path class="st13" d="M213.66,144.86c0.48,0.02,0.96,0.04,1.45,0.07c-0.92,0.51-1.83,1.01-2.75,1.52  C212.46,145.57,212.99,145.14,213.66,144.86z"></path>	<path class="st16" d="M181.28,100.73c1.58-0.46,3.16-0.47,4.74,0C184.45,100.92,182.86,100.92,181.28,100.73z"></path>	<path class="st15" d="M213.07,18.32c-0.48-0.04-0.99-0.04-1.18-0.63c0.63-0.2,0.95,0.16,1.26,0.55  C213.14,18.24,213.07,18.32,213.07,18.32z"></path>	<path class="st16" d="M112.53,100.77c0.64-0.95,1.3-0.29,1.96-0.02C113.84,100.76,113.19,100.76,112.53,100.77z"></path>	<path class="st16" d="M131.38,100.74c0.53-0.39,1.07-0.86,1.59,0.02C132.44,100.75,131.91,100.75,131.38,100.74z"></path>	<path class="st13" d="M211.52,24.54c0.02-0.24,0.04-0.47,0.06-0.71C211.94,24.1,212.15,24.35,211.52,24.54z"></path>	<path class="st13" d="M155.77,23.89c0.01,0.22,0.02,0.43,0.03,0.64C155.2,24.34,155.4,24.11,155.77,23.89z"></path>	<path class="st15" d="M154.98,17.89c0.14-0.09,0.28-0.18,0.42-0.27c0.06,0.43-0.28,0.19-0.44,0.24  C154.96,17.87,154.98,17.89,154.98,17.89z"></path>	<path class="st15" d="M154.98,146.02c-0.34,0.03-0.64-0.03-0.81-0.35c0,0,0.05-0.06,0.05-0.06c0.36-0.03,0.63,0.07,0.74,0.42  L154.98,146.02z"></path>	<path class="st15" d="M154.96,146.04c0.17,0.05,0.33,0.09,0.5,0.14c-0.04,0.04-0.08,0.09-0.11,0.13c-0.12-0.1-0.25-0.2-0.37-0.29  C154.98,146.02,154.96,146.04,154.96,146.04z"></path>	<path class="st13" d="M215.87,144.52c0.16-0.1,0.31-0.21,0.47-0.31C216.18,144.31,216.03,144.42,215.87,144.52z"></path>	<path class="st13" d="M215.47,144.82c0.13-0.1,0.26-0.2,0.39-0.29C215.73,144.63,215.6,144.73,215.47,144.82z"></path>	<path class="st13" d="M227.61,126.53c-0.11,0.15-0.23,0.3-0.34,0.45C227.38,126.82,227.49,126.68,227.61,126.53z"></path>	<path class="st13" d="M139.71,37.77c0.11-0.15,0.22-0.3,0.33-0.45C139.93,37.46,139.82,37.62,139.71,37.77z"></path>	<path class="st16" d="M115.68,100.76c0.13-0.19,0.27-0.19,0.39,0C115.94,100.76,115.81,100.76,115.68,100.76z"></path>	<path class="st18" d="M187.58,99.62c-6.27,0.02-12.54,0.05-18.81,0.06c-18.68,0.01-37.37,0-56.05,0.01c-0.59,0-1.17,0.04-1.76,0.06  c-6.35-0.03-12.69-0.08-19.04-0.08c-15.71-0.01-31.43-0.2-47.13,0.07c-10.28,0.17-18.01-7.06-19.48-16.49  c-0.31-1.97-0.42-3.96,0.05-5.94c0.61-0.02,0.86-0.42,1.19-0.84c1.75-2.24,3.52-4.46,5.72-6.34c4.13-3.54,8.86-6.13,14.47-6.21  c24.51-0.35,49.03,0.1,73.55-0.34c22.43-0.4,44.87-0.09,67.31-0.1C187.59,75.51,187.59,87.56,187.58,99.62z M117.03,80.29  c-0.53,1.03-0.32,2.31-1.16,3.33c-0.53-1.9-0.99-3.71-1.56-5.48c-0.2-0.61,0.07-1.59-1.18-1.62c-1.37-0.02-1.05,1.07-1.3,1.71  c-0.62,1.63-0.78,3.41-1.73,5.3c-0.62-2.3-1.17-4.26-1.67-6.22c-0.18-0.7-0.61-0.91-1.27-0.77c-0.94,0.2-0.35,0.76-0.24,1.15  c0.62,2.22,1.29,4.42,1.9,6.64c0.2,0.71,0.39,1.22,1.37,1.19c0.93-0.03,1.02-0.56,1.19-1.18c0.5-1.84,1.02-3.68,1.65-5.95  c0.67,2.34,1.24,4.22,1.72,6.12c0.19,0.73,0.51,1.02,1.32,1c0.72-0.02,1.04-0.26,1.2-0.92c0.33-1.45,0.74-2.88,1.12-4.32  c0.28-0.88,0.6-1.75,0.82-2.65c0.08-0.36,0.68-0.97-0.31-1.1c-0.6-0.08-1,0.11-1.14,0.71C117.53,78.26,117.27,79.27,117.03,80.29z   M130.08,83.11c-0.15,0.01-0.3,0.02-0.46,0.03c-0.46-1.58-0.85-3.18-1.4-4.73c-0.25-0.7,0.14-1.92-1.34-1.88  c-1.45,0.04-1.02,1.27-1.27,1.96c-0.59,1.63-0.97,3.33-1.56,5.42c-0.24-0.86-0.37-1.27-0.48-1.68c-0.43-1.62-0.87-3.25-1.26-4.88  c-0.17-0.7-0.6-0.92-1.27-0.81c-1.01,0.16-0.36,0.78-0.26,1.13c0.6,2.22,1.28,4.43,1.89,6.65c0.2,0.72,0.38,1.22,1.37,1.19  c0.95-0.02,1-0.55,1.17-1.17c0.5-1.85,1.04-3.69,1.67-5.91c0.64,2.22,1.21,4.06,1.68,5.92c0.19,0.77,0.45,1.17,1.4,1.17  c0.92,0,1.03-0.52,1.2-1.14c0.58-2.1,1.24-4.18,1.75-6.3c0.11-0.45,0.97-1.19-0.08-1.52c-1.16-0.36-1.19,0.66-1.38,1.33  C130.97,79.63,130.54,81.38,130.08,83.11z M96.51,83.3c-0.11-0.01-0.22-0.02-0.33-0.03c-0.55-2-1.14-4-1.63-6.02  c-0.19-0.8-0.74-0.81-1.32-0.69c-0.73,0.15-0.33,0.7-0.23,1.05c0.62,2.22,1.27,4.43,1.93,6.64c0.19,0.63,0.23,1.29,1.3,1.28  c1.05-0.01,1.13-0.64,1.31-1.28c0.5-1.76,0.98-3.52,1.47-5.28c0.83,1.77,1.3,3.53,1.8,5.28c0.18,0.62,0.24,1.29,1.31,1.28  c1-0.01,1.18-0.51,1.37-1.21c0.57-2.1,1.2-4.19,1.74-6.3c0.12-0.47,0.84-1.19-0.24-1.46c-0.9-0.22-1.02,0.44-1.18,1.09  c-0.49,1.98-1.05,3.95-1.68,6.3c-0.66-2.29-1.21-4.2-1.76-6.11c-0.18-0.64-0.17-1.36-1.25-1.33c-1,0.03-0.9,0.78-1.06,1.3  C97.51,79.64,97.02,81.47,96.51,83.3z M66.45,84.9c0.56,0.26,0.83,0.41,1.12,0.51c2.36,0.8,4.53-0.37,5.24-2.79  c0.84-2.89-0.34-5.68-2.63-6.21c-0.59-0.14-1.15-0.11-1.74,0.03c-0.93,0.22-1.74,1.22-2.9,0.16c-0.48-0.43-0.76,0.37-0.76,0.88  c0,3.6,0,7.2,0,10.8c0,0.51-0.01,0.96,0.79,0.98c0.93,0.02,0.87-0.51,0.87-1.09C66.45,87.18,66.45,86.2,66.45,84.9z M43.3,77.49  c0-1.52,0-2.76,0-3.99c0-0.57,0.07-1.13-0.85-1.11c-0.96,0.01-0.79,0.64-0.79,1.17c-0.01,3.6,0,7.2,0,10.8  c0,0.54-0.15,1.14,0.8,1.16c0.93,0.01,0.84-0.56,0.84-1.12c0-1.49,0.02-2.98-0.01-4.47c-0.03-1.55,1.1-2.05,2.37-2.21  c1.52-0.19,1.85,0.93,1.89,2.05c0.06,1.61,0.04,3.23,0.03,4.84c0,0.58,0.11,0.94,0.85,0.91c0.61-0.02,0.8-0.28,0.79-0.8  c-0.04-1.99,0.09-3.99-0.14-5.95c-0.25-2.12-2.13-3-4.19-2.15C44.43,76.8,44.01,77.09,43.3,77.49z M61.36,85.73  c0.45-0.23,1.33,0.15,1.52-0.69c0.08-0.37-0.19-0.74-0.7-0.67c-1.91,0.29-1.99-0.89-1.97-2.18c0.02-0.93,0.05-1.87-0.01-2.8  c-0.07-1.06,0.03-1.88,1.51-1.63c0.42,0.07,0.95,0.09,0.99-0.58c0.04-0.65-0.41-0.71-0.89-0.64c-1.25,0.17-1.82-0.25-1.62-1.5  c0.08-0.49,0.09-1.04-0.72-1.03c-0.62,0.01-0.73,0.4-0.74,0.88c0,0.86,0.1,1.72-1.29,1.8c-0.41,0.02-0.47,0.93,0.01,0.98  c1.66,0.17,1.04,1.31,1.1,2.11c0.09,1.24,0,2.49,0.09,3.73C58.74,85.03,59.78,85.65,61.36,85.73z M52.45,80.93  c0,0.86-0.08,1.67,0.02,2.47c0.21,1.82,1.67,2.7,3.5,2.2c0.37-0.1,0.8-0.1,0.77-0.63c-0.03-0.46-0.3-0.66-0.77-0.6  c-1.73,0.24-1.96-0.79-1.94-2.04c0.01-0.87,0.05-1.74,0-2.6c-0.07-1.2-0.1-2.29,1.74-1.96c0.4,0.07,0.79-0.02,0.84-0.52  c0.05-0.45-0.17-0.77-0.65-0.69c-1.69,0.27-2.2-0.46-1.95-1.94c0.05-0.31-0.12-0.58-0.55-0.59c-0.46-0.01-0.72,0.16-0.81,0.6  c-0.18,0.87,0.21,2.08-1.42,2.12c-0.25,0.01-0.34,0.7-0.08,0.77C53.41,78.09,51.98,79.84,52.45,80.93z M91.85,72.95  c0.17-0.36-0.1-0.52-0.47-0.52c-0.72-0.01-0.74,0.56-0.89,1.03c-1.45,4.5-2.91,9-4.33,13.5c-0.14,0.46-0.83,1.15-0.03,1.44  c0.92,0.34,0.96-0.62,1.14-1.15c1.48-4.49,2.92-9,4.38-13.5C91.72,73.5,91.77,73.26,91.85,72.95z M79.44,88.44  c0.7,0.03,0.8-0.39,0.94-0.82c1.53-4.73,3.07-9.46,4.59-14.19c0.1-0.32,0.37-0.78-0.13-0.97c-0.49-0.18-0.83,0.07-1,0.59  c-1.55,4.85-3.13,9.7-4.69,14.55C79.05,87.95,78.92,88.36,79.44,88.44z M136.58,84.47c-0.06-0.68-0.48-1.13-1.23-1.1  c-0.65,0.03-1.06,0.49-1.1,1.1c-0.04,0.72,0.43,1.2,1.15,1.22C136.15,85.72,136.55,85.23,136.58,84.47z M77.54,84.44  c-0.14-0.57-0.49-1.11-1.24-1.06c-0.72,0.05-1.12,0.53-1.08,1.26c0.04,0.66,0.48,1.02,1.11,1.04  C77.07,85.69,77.47,85.23,77.54,84.44z M77.53,77.99c-0.05-0.71-0.41-1.2-1.2-1.2c-0.68,0-1.09,0.4-1.12,1.05  c-0.03,0.74,0.4,1.21,1.16,1.22C77.04,79.08,77.41,78.63,77.53,77.99z"></path>	<path class="st19" d="M252.86,89.05c0.05,0.08,0.03,0.14-0.05,0.19c-1.03-0.06-1.84,0.42-2.26,1.2c-1.18,2.17-4.08,3.03-4.71,5.61  c-0.02,0.1-0.16,0.21-0.28,0.25c-2.73,1.03-5.09,2.79-8.34,2.71c-7.39-0.18-14.8-0.06-22.2-0.06c-1.7,0-3.41-0.01-5.11,0  c-0.69,0-1.47-0.55-0.99-0.91c1.73-1.3-0.31-1.54-0.37-2.46c-1.41,1.6-2.6,3.26-4.69,3.32c-4.71,0.13-9.43,0.03-14.14,0.06  c-1.03,0.01-1.37-0.39-1.36-1.33c0.03-4.92,0.01-9.84,0.02-14.76c0-1.3,0.43-2.25,2.01-2.48c0.49-0.07,1.67,0.13,1.34-0.83  c-0.19-0.56-1.36-1.23-1.89-0.92c-1.95,1.16-1.44-0.37-1.45-1.12c-0.04-4.23-0.01-8.47-0.03-12.7c0-0.62,0.35-1.43-0.63-1.76  c-0.04-0.86-0.09-1.72-0.13-2.57c0.27,0.01,0.53,0.02,0.8,0.03c0.55,0.5,1.24,0.3,1.86,0.3c5.48,0.01,10.95,0,16.43,0.02  c0.54,0,1.35-0.29,1.55,0.4c0.27,0.92-0.72,0.63-1.17,0.82c-1.53,0.67-2.01,2.26-3.21,3.26c-0.6,0.5,1.01,0.92,1.15,1.68  c-0.17,0.26-0.33,0.53-0.51,0.79c-3.39,4.76-3.04,10.38,0.88,14.19c4.18,4.06,10.02,4.6,15.17,1.38c2.24,1.15,4.16,2.66,5.7,4.6  c1.42,0.55,0.17,2.03,1.05,2.77l-0.02-0.03c-0.02,0.46,0.23,0.81,0.5,1.16c1.32,0.74,2.56,1.56,3.63,2.62  c1.11,1.11,2.48,2.01,4.11,1.1c1.04-0.58,1.88-1.51,2.71-2.37c0.98-1.03,1.06-2.06-0.36-2.86c-1.66-1.93-3.76-3.38-5.87-4.82  c-0.29,0.01-0.59,0.01-0.88,0.02c-1.44,0.69-2.13-0.87-3.29-1c-1.39-1.35-3.29-2.19-4.26-3.94c1.75-2.87,2.39-5.94,1.43-9.15  c-1.93-6.44-8.11-9.4-15.36-7.45c0-0.68-1.05-0.73-0.97-1.59c0.86,0.04,1.86,0.44,2.4-0.56c0.54-1,1.47-1.03,2.5-1.03  c8.25,0.01,16.5-0.01,24.75-0.03c0,0,0.01-0.09,0.01-0.08c0.73,0.45,1.42,1.28,2.31,0.23c0.26,0.09,0.53,0.18,0.79,0.27  c0.22,1.1,1.13,0.63,1.8,0.72c3.74,1.13,6.22,3.69,8.31,6.66c0.68,0.97,1.21,2.05,1.81,3.08c0.03,0.46,0.2,0.86,0.57,1.18  c0,0-0.01-0.01-0.01-0.01c0,0.35,0.04,0.7,0.39,0.92c0.01,0.17,0.02,0.34,0.03,0.5c0.27,2.25,0.53,4.49,0.8,6.74  c-0.08,0.62-0.16,1.24-0.24,1.87c-0.3,1.13-0.61,2.25-0.91,3.38c-0.9,0.4-0.74,1.16-0.73,1.88c0,0,0.02-0.03,0.02-0.03  C252.83,88.32,252.83,88.68,252.86,89.05z"></path>	<path class="st20" d="M187.59,60.5c0.04,0.86,0.09,1.72,0.13,2.57c-0.04,0.13-0.09,0.26-0.13,0.38c-22.44,0-44.88-0.31-67.31,0.1  C95.77,64,71.25,63.55,46.74,63.9c-5.61,0.08-10.34,2.67-14.47,6.21c-2.19,1.88-3.97,4.11-5.72,6.34  c-0.33,0.42-0.58,0.82-1.19,0.84c0.59-9.16,8.77-16.82,18.17-16.83c47.76-0.03,95.52-0.01,143.27-0.01  C187.07,60.46,187.33,60.49,187.59,60.5z"></path>	<path class="st21" d="M205.01,67.01c-0.14-0.75-1.75-1.18-1.15-1.68c1.2-1,1.68-2.59,3.21-3.26c0.45-0.19,1.44,0.1,1.17-0.82  c-0.2-0.68-1.01-0.4-1.55-0.4c-5.48-0.02-10.95-0.01-16.43-0.02c-0.63,0-1.32,0.2-1.86-0.3c10.14-0.02,20.28-0.05,30.41-0.06  c5.82-0.01,11.64-0.01,17.47,0.01c0.68,0,1.44-0.28,2.03,0.32c-8.25,0.01-16.5,0.04-24.75,0.03c-1.03,0-1.95,0.03-2.5,1.03  c-0.54,0.99-1.54,0.6-2.4,0.56c-0.07,0.86,0.98,0.92,0.97,1.59C208.01,64.9,206.43,65.84,205.01,67.01z"></path>	<path class="st16" d="M255.1,81.02c-0.27-2.25-0.53-4.49-0.8-6.74C255.46,76.43,256,78.65,255.1,81.02z"></path>	<path class="st21" d="M240.63,60.95c-0.89,1.05-1.58,0.22-2.31-0.23C239.11,60.55,239.87,60.77,240.63,60.95z"></path>	<path class="st21" d="M243.22,61.94c-0.67-0.09-1.58,0.39-1.8-0.72C242.11,61.26,242.72,61.47,243.22,61.94z"></path>	<path class="st16" d="M253.91,72.86c-0.37-0.32-0.53-0.72-0.57-1.18C254.09,71.83,254,72.35,253.91,72.86z"></path>	<path class="st16" d="M254.28,73.78c-0.34-0.23-0.38-0.57-0.39-0.92C254.37,73.03,254.35,73.4,254.28,73.78z"></path>	<path class="st17" d="M55.82,170.37c-4.07-2.24-8.12-4.54-12.24-6.7c-1.37-0.72-1.11-1.3-0.4-2.29  c4.34-5.99,8.58-12.05,12.98-18.01c0.97-1.32,0.63-1.82-0.63-2.51c-3.46-1.89-6.87-3.86-10.3-5.79c-1.83-1.04-1.85-1.33-0.07-2.31  c14.07-7.8,28.14-15.61,42.21-23.41c0.4-0.22,0.8-0.42,1.21-0.62c0.87-0.44,1.24-0.16,1.09,0.73c-0.82,4.7-0.64,9.47-1.01,14.21  c-0.89,11.16-1.66,22.33-2.42,33.5c-0.11,1.59-0.64,1.42-1.74,0.74c-3.29-2.04-6.68-3.93-9.91-6.04c-1.47-0.96-2.04-0.56-2.81,0.73  c-3.6,5.99-7.3,11.93-10.96,17.9c-0.65,1.06-1.09,2.35-2.86,1.34c-0.37-0.21-1.02-0.09-0.51,0.62c-0.41,0.06-0.82,0.11-1.1-0.28  l0,0C57.04,171.36,56.9,170.74,55.82,170.37z"></path>	<path class="st22" d="M56.35,172.18c0.28,0.4,0.69,0.35,1.1,0.28c2.5,1.17,2.47,1.16,3.9-1.2c3.68-6.02,7.41-12.01,11.05-18.06  c0.63-1.04,1.08-1.09,2.08-0.45c3.48,2.2,7.03,4.32,10.56,6.46c1.67,1.01,1.84,0.93,1.94-0.83c0.3-5.09,0.43-10.21,0.92-15.25  c0.81-8.22,1.28-16.46,1.99-24.68c0.26-3.03,0.48-6.06,0.74-9.35c1.26,1.3,1.98,2.49,1.84,4.18c-0.91,11.4-1.76,22.81-2.61,34.22  c-0.34,4.59-0.66,9.18-0.9,13.77c-0.08,1.47-0.3,1.97-1.85,0.98c-3.26-2.07-6.64-3.97-9.92-6.03c-1.22-0.77-1.86-0.63-2.6,0.6  c-3.78,6.25-7.69,12.44-11.45,18.7c-0.72,1.19-1.3,1.23-2.43,0.63c-1.8-0.95-3.36-2.4-5.59-2.49c0,0,0.05,0.01,0.05,0.01  c-0.39-0.73-1.01-1.2-1.75-1.61c-2.6-1.42-5.13-2.98-7.78-4.32c-1.3-0.66-1.73-1.68-1.97-3.06c3.12,1.74,6.24,3.48,9.36,5.21  c0.68,0.38,1.34,0.79,2.05,1.09c0.54,0.23,0.89,0.02,0.75-0.61C56.9,170.74,57.04,171.36,56.35,172.18  c-0.11-0.12,0.18-0.51-0.3-0.39C56.15,171.92,56.25,172.05,56.35,172.18z"></path>	<path class="st22" d="M44.18,135.8c4.16,1.69,7.55,4,11.14,5.95c0.58,0.32,0.42,0.68,0.15,1.08c-0.28,0.42-0.6,0.62-1.13,0.31  c-3.01-1.74-6.04-3.45-9.04-5.22C44.7,137.56,44.4,136.9,44.18,135.8z"></path>	<path class="st21" d="M187.59,63.46c0.04-0.13,0.08-0.26,0.13-0.38c0.99,0.33,0.63,1.14,0.63,1.76c0.03,4.23-0.01,8.47,0.03,12.7  c0.01,0.75-0.5,2.28,1.45,1.12c0.53-0.32,1.7,0.36,1.89,0.92c0.33,0.96-0.86,0.76-1.34,0.83c-1.58,0.24-2,1.18-2.01,2.48  c-0.01,4.92,0.01,9.84-0.02,14.76c-0.01,0.95,0.33,1.34,1.36,1.33c4.71-0.03,9.43,0.08,14.14-0.06c2.09-0.06,3.28-1.72,4.69-3.32  c0.05,0.92,2.09,1.16,0.37,2.46c-0.47,0.35,0.3,0.91,0.99,0.91c1.7,0,3.41,0,5.11,0c7.4,0,14.8-0.12,22.2,0.06  c3.25,0.08,5.61-1.68,8.34-2.71c0.11-0.04,0.25-0.15,0.28-0.25c0.63-2.58,3.52-3.43,4.71-5.61c0.42-0.78,1.24-1.26,2.26-1.2  c-2.26,4.52-5.68,7.86-10.77,9.48c-0.48,0.15-0.94,0.39-1.4,0.58c-0.43,0.04-0.93-0.13-1.21,0.35c-0.38,0-0.75,0.01-1.13,0.01  c-10.74,0.03-21.49,0.05-32.23,0.08c-0.27,0-0.53,0-0.8,0c-5.89-0.04-11.78-0.09-17.67-0.13  C187.59,87.56,187.59,75.51,187.59,63.46z"></path>	<path class="st16" d="M205.25,99.75c0.27,0,0.53,0,0.8,0c0,0.34,0.01,0.67,0.01,1.01c-0.92-0.01-1.85-0.02-2.77-0.03  C203.49,99.58,204.81,100.45,205.25,99.75z"></path>	<path class="st16" d="M189.94,100.76c-0.79,0-1.57,0-2.36,0C188.37,100.29,189.16,100.28,189.94,100.76z"></path>	<path class="st16" d="M226.88,100.76c0.92-0.47,1.83-0.48,2.74,0C228.71,100.76,227.79,100.76,226.88,100.76z"></path>	<path class="st21" d="M253.23,88.15c-0.02-0.72-0.18-1.49,0.73-1.88C253.85,86.95,253.68,87.6,253.23,88.15z"></path>	<path class="st12" d="M239.42,99.66c0.29-0.48,0.78-0.31,1.21-0.35C240.33,99.74,240.1,100.42,239.42,99.66z"></path>	<path class="st21" d="M252.86,89.05c-0.02-0.37-0.03-0.73,0.39-0.92C253.23,88.48,253.17,88.81,252.86,89.05z"></path>	<path class="st12" d="M130.08,83.11c0.45-1.74,0.89-3.48,1.37-5.21c0.19-0.67,0.21-1.68,1.38-1.33c1.06,0.32,0.19,1.07,0.08,1.52  c-0.51,2.11-1.17,4.2-1.75,6.3c-0.17,0.63-0.28,1.14-1.2,1.14c-0.94,0-1.2-0.4-1.4-1.17c-0.47-1.86-1.04-3.69-1.68-5.92  c-0.63,2.23-1.18,4.06-1.67,5.91c-0.17,0.62-0.22,1.14-1.17,1.17c-1,0.02-1.18-0.47-1.37-1.19c-0.61-2.22-1.29-4.42-1.89-6.65  c-0.1-0.35-0.74-0.97,0.26-1.13c0.67-0.11,1.1,0.11,1.27,0.81c0.39,1.63,0.84,3.25,1.26,4.88c0.11,0.41,0.23,0.82,0.48,1.68  c0.58-2.1,0.96-3.79,1.56-5.42c0.25-0.69-0.18-1.92,1.27-1.96c1.48-0.04,1.09,1.18,1.34,1.88c0.55,1.55,0.94,3.15,1.4,4.73  C129.78,83.13,129.93,83.12,130.08,83.11z"></path>	<path class="st12" d="M96.51,83.3c0.51-1.83,1-3.67,1.56-5.48c0.16-0.52,0.06-1.27,1.06-1.3c1.07-0.03,1.06,0.69,1.25,1.33  c0.55,1.91,1.1,3.82,1.76,6.11c0.63-2.35,1.19-4.32,1.68-6.3c0.16-0.65,0.28-1.31,1.18-1.09c1.08,0.27,0.36,0.98,0.24,1.46  c-0.55,2.11-1.17,4.2-1.74,6.3c-0.19,0.7-0.37,1.2-1.37,1.21c-1.07,0.01-1.12-0.66-1.31-1.28c-0.51-1.75-0.98-3.51-1.8-5.28  c-0.49,1.76-0.97,3.52-1.47,5.28c-0.18,0.64-0.26,1.27-1.31,1.28c-1.07,0.01-1.12-0.65-1.3-1.28c-0.66-2.21-1.31-4.42-1.93-6.64  c-0.1-0.35-0.5-0.9,0.23-1.05c0.58-0.12,1.12-0.11,1.32,0.69c0.49,2.02,1.08,4.01,1.63,6.02C96.29,83.28,96.4,83.29,96.51,83.3z"></path>	<path class="st12" d="M66.45,84.9c0,1.3,0,2.29,0,3.27c0,0.58,0.06,1.11-0.87,1.09c-0.79-0.02-0.79-0.47-0.79-0.98  c0-3.6-0.01-7.2,0-10.8c0-0.51,0.28-1.32,0.76-0.88c1.16,1.06,1.97,0.06,2.9-0.16c0.59-0.14,1.15-0.16,1.74-0.03  c2.29,0.53,3.47,3.32,2.63,6.21c-0.71,2.42-2.88,3.58-5.24,2.79C67.28,85.31,67.01,85.15,66.45,84.9z M66.46,80.84  c0,0.47,0.05,0.85-0.01,1.21c-0.21,1.26,0.34,2.03,1.64,2.28c1.34,0.26,2.27-0.29,2.85-1.43c0.54-1.06,0.47-2.18,0.29-3.28  c-0.14-0.9-0.62-1.65-1.62-1.9c-1.04-0.26-1.93,0.11-2.69,0.75C66.08,79.17,66.62,80.11,66.46,80.84z"></path>	<path class="st12" d="M43.3,77.49c0.71-0.4,1.13-0.68,1.59-0.87c2.06-0.85,3.95,0.03,4.19,2.15c0.23,1.96,0.1,3.97,0.14,5.95  c0.01,0.52-0.18,0.78-0.79,0.8c-0.75,0.03-0.86-0.33-0.85-0.91c0.01-1.61,0.04-3.23-0.03-4.84c-0.04-1.12-0.37-2.24-1.89-2.05  c-1.27,0.16-2.4,0.66-2.37,2.21c0.03,1.49,0.01,2.98,0.01,4.47c0,0.56,0.09,1.13-0.84,1.12c-0.95-0.01-0.8-0.62-0.8-1.16  c-0.01-3.6-0.01-7.2,0-10.8c0-0.52-0.18-1.15,0.79-1.17c0.92-0.01,0.85,0.55,0.85,1.11C43.3,74.73,43.3,75.97,43.3,77.49z"></path>	<path class="st12" d="M118.39,80.27c-0.38,1.44-0.78,2.88-1.12,4.32c-0.15,0.66-0.48,0.9-1.2,0.92c-0.81,0.02-1.13-0.26-1.32-1  c-0.48-1.9-1.06-3.78-1.72-6.12c-0.63,2.26-1.15,4.1-1.65,5.95c-0.17,0.62-0.26,1.15-1.19,1.18c-0.99,0.03-1.18-0.48-1.37-1.19  c-0.61-2.22-1.28-4.42-1.9-6.64c-0.11-0.39-0.7-0.95,0.24-1.15c0.67-0.14,1.1,0.07,1.27,0.77c0.5,1.96,1.05,3.92,1.67,6.22  c0.95-1.89,1.11-3.67,1.73-5.3c0.25-0.65-0.07-1.74,1.3-1.71c1.25,0.02,0.98,1.01,1.18,1.62c0.58,1.77,1.03,3.58,1.56,5.48  c0.84-1.02,0.64-2.3,1.16-3.33C117.48,80.29,117.94,80.28,118.39,80.27z"></path>	<path class="st12" d="M61.36,85.73c-1.57-0.08-2.61-0.7-2.72-2.22c-0.08-1.24,0-2.49-0.09-3.73c-0.06-0.8,0.57-1.94-1.1-2.11  c-0.48-0.05-0.42-0.96-0.01-0.98c1.39-0.07,1.28-0.93,1.29-1.8c0-0.48,0.11-0.87,0.74-0.88c0.81-0.02,0.8,0.54,0.72,1.03  c-0.2,1.25,0.37,1.67,1.62,1.5c0.48-0.07,0.93-0.01,0.89,0.64c-0.04,0.67-0.57,0.65-0.99,0.58c-1.49-0.24-1.58,0.57-1.51,1.63  c0.06,0.93,0.02,1.86,0.01,2.8c-0.02,1.29,0.06,2.47,1.97,2.18c0.51-0.08,0.78,0.3,0.7,0.67C62.69,85.88,61.81,85.51,61.36,85.73z"></path>	<path class="st12" d="M52.45,80.93c-0.47-1.09,0.96-2.84-1.31-3.42c-0.25-0.07-0.17-0.76,0.08-0.77c1.64-0.04,1.24-1.25,1.42-2.12  c0.09-0.45,0.35-0.61,0.81-0.6c0.43,0.01,0.61,0.28,0.55,0.59c-0.25,1.48,0.25,2.21,1.95,1.94c0.48-0.08,0.69,0.24,0.65,0.69  c-0.05,0.5-0.44,0.6-0.84,0.52c-1.84-0.33-1.81,0.76-1.74,1.96c0.05,0.86,0.01,1.74,0,2.6c-0.02,1.25,0.22,2.28,1.94,2.04  c0.47-0.07,0.74,0.13,0.77,0.6c0.03,0.53-0.4,0.53-0.77,0.63c-1.83,0.5-3.29-0.38-3.5-2.2C52.37,82.61,52.45,81.79,52.45,80.93z"></path>	<path class="st10" d="M91.85,72.95c-0.08,0.31-0.13,0.56-0.21,0.79c-1.45,4.5-2.9,9-4.38,13.5c-0.17,0.53-0.22,1.49-1.14,1.15  c-0.8-0.29-0.11-0.98,0.03-1.44c1.42-4.51,2.88-9,4.33-13.5c0.15-0.47,0.18-1.04,0.89-1.03C91.75,72.43,92.03,72.59,91.85,72.95z"></path>	<path class="st10" d="M79.44,88.44c-0.52-0.08-0.39-0.49-0.28-0.83c1.56-4.85,3.13-9.7,4.69-14.55c0.17-0.52,0.51-0.77,1-0.59  c0.5,0.18,0.24,0.64,0.13,0.97c-1.52,4.73-3.07,9.46-4.59,14.19C80.24,88.06,80.14,88.47,79.44,88.44z"></path>	<path class="st16" d="M118.39,80.27c-0.45,0.01-0.91,0.02-1.36,0.02c0.25-1.02,0.5-2.04,0.73-3.06c0.14-0.61,0.54-0.79,1.14-0.71  c0.99,0.13,0.39,0.75,0.31,1.1C119,78.52,118.67,79.39,118.39,80.27z"></path>	<path class="st10" d="M136.58,84.47c-0.03,0.76-0.42,1.25-1.17,1.22c-0.73-0.02-1.19-0.5-1.15-1.22c0.03-0.61,0.44-1.07,1.1-1.1  C136.1,83.34,136.51,83.79,136.58,84.47z"></path>	<path class="st10" d="M77.54,84.44c-0.07,0.79-0.47,1.26-1.21,1.24c-0.63-0.01-1.07-0.38-1.11-1.04c-0.04-0.72,0.36-1.21,1.08-1.26  C77.05,83.33,77.4,83.87,77.54,84.44z"></path>	<path class="st12" d="M77.53,77.99c-0.12,0.63-0.49,1.09-1.16,1.08c-0.77-0.01-1.19-0.49-1.16-1.22c0.03-0.65,0.44-1.06,1.12-1.05  C77.12,76.8,77.47,77.29,77.53,77.99z"></path>	<path class="st18" d="M205.01,67.01c1.42-1.17,3-2.11,4.61-3c7.25-1.94,13.43,1.01,15.36,7.45c0.96,3.21,0.33,6.28-1.43,9.15  c-1,0.92-2.01,1.84-3.01,2.76c-5.15,3.21-10.99,2.68-15.17-1.38c-3.92-3.81-4.27-9.43-0.88-14.19  C204.68,67.55,204.84,67.27,205.01,67.01z M213.89,83.27c5.18,0,9.68-4.08,9.38-8.98c-0.35-5.7-3.96-8.75-9.56-8.85  c-4.96-0.09-9.26,3.72-9.24,8.93C204.48,79.49,208.47,83.27,213.89,83.27z"></path>	<path class="st20" d="M220.55,83.38c1.01-0.92,2.01-1.84,3.01-2.76c0.97,1.75,2.87,2.6,4.26,3.94c0.34,0.85,1.81,1.01,1.52,2.3  c0.61-0.45,1.19-0.87,1.77-1.3c0.29-0.01,0.59-0.01,0.88-0.02c-0.04,0.38-0.15,0.75-0.53,0.94c-0.82,0.42-1.46,1.02-2.02,1.7  c-0.74,0.89-0.86,1.98-0.49,2.98c0.39,1.07,1.53,0.64,2.39,0.7c2.34,0.16,4.37-0.88,6.52-1.5c1.42,0.8,1.35,1.84,0.36,2.86  c-0.83,0.86-1.68,1.79-2.71,2.37c-1.63,0.91-3,0-4.11-1.1c-1.07-1.07-2.31-1.88-3.63-2.62c0.07-0.48-0.15-0.85-0.5-1.16  c0,0,0.02,0.03,0.02,0.03c-0.49-1.06,0.65-1.74,0.7-2.67c0.33,0.08,0.45-0.06,0.41-0.36c0.1-0.01,0.2-0.02,0.29-0.03  c-0.03-0.06-0.06-0.12-0.09-0.19c-0.06,0.08-0.12,0.17-0.18,0.25c-0.14,0.12-0.27,0.24-0.41,0.36c-0.63,0.42-1.2,0-1.78-0.13  C224.71,86.03,222.79,84.53,220.55,83.38z"></path>	<path class="st18" d="M237.87,90.36c-2.14,0.62-4.18,1.66-6.52,1.5c-0.85-0.06-1.99,0.37-2.39-0.7c-0.37-1-0.25-2.09,0.49-2.98  c0.56-0.68,1.2-1.29,2.02-1.7c0.38-0.19,0.49-0.55,0.53-0.94C234.11,86.98,236.21,88.43,237.87,90.36z"></path>	<path class="st11" d="M231.12,85.56c-0.58,0.42-1.16,0.85-1.77,1.3c0.28-1.28-1.19-1.44-1.52-2.3  C228.99,84.68,229.68,86.25,231.12,85.56z"></path>	<path class="st11" d="M228,88.07c-0.06,0.93-1.19,1.61-0.7,2.67c-0.88-0.74,0.37-2.21-1.05-2.77c0.59,0.13,1.15,0.55,1.79,0.13  C228.03,88.1,228,88.07,228,88.07z"></path>	<path class="st11" d="M227.28,90.71c0.35,0.32,0.57,0.69,0.5,1.16C227.51,91.53,227.26,91.17,227.28,90.71z"></path>	<path class="st17" d="M56.35,172.18c-0.1-0.13-0.2-0.26-0.3-0.39C56.52,171.67,56.24,172.06,56.35,172.18  C56.34,172.18,56.35,172.18,56.35,172.18z"></path>	<path class="st18" d="M66.46,80.84c0.16-0.73-0.38-1.67,0.45-2.37c0.77-0.64,1.65-1.02,2.69-0.75c1.01,0.25,1.48,1,1.62,1.9  c0.18,1.1,0.25,2.22-0.29,3.28c-0.58,1.14-1.51,1.69-2.85,1.43c-1.3-0.25-1.85-1.02-1.64-2.28C66.51,81.68,66.46,81.3,66.46,80.84z  "></path>	<path class="st23" d="M213.89,83.27c-5.42,0-9.41-3.79-9.42-8.9c-0.01-5.21,4.28-9.03,9.24-8.93c5.6,0.1,9.21,3.15,9.56,8.85  C223.57,79.19,219.07,83.27,213.89,83.27z M222.15,76.67c0-1.04,0.06-1.97-0.01-2.89c-0.24-2.96-3.92-6.89-6.88-7.44  c-0.32-0.06-0.65-0.26-0.85,0.11c-0.18,0.33,0.04,0.58,0.34,0.76c0.5,0.3,0.98,0.61,1.48,0.92c2.9,1.79,4.62,4.31,5.16,7.55  C221.45,76.04,221.38,76.45,222.15,76.67z"></path>	<path class="st11" d="M228.41,87.71c0.04,0.3-0.08,0.44-0.41,0.36c0,0,0.03,0.03,0.03,0.03c0.14-0.12,0.27-0.24,0.41-0.36  L228.41,87.71z"></path>	<path class="st11" d="M228.44,87.74c0.06-0.08,0.12-0.17,0.18-0.25c0.03,0.06,0.06,0.12,0.09,0.19c-0.1,0.01-0.2,0.02-0.29,0.03  C228.41,87.71,228.44,87.74,228.44,87.74z"></path>	<path class="st13" d="M222.15,76.67c-0.77-0.22-0.7-0.64-0.76-0.99c-0.55-3.24-2.27-5.76-5.16-7.55c-0.49-0.3-0.98-0.62-1.48-0.92  c-0.3-0.18-0.52-0.43-0.34-0.76c0.2-0.37,0.53-0.17,0.85-0.11c2.96,0.55,6.63,4.48,6.88,7.44  C222.22,74.7,222.15,75.63,222.15,76.67z"></path></g></svg>