<svg xmlns="http://www.w3.org/2000/svg" id="Layer_1" data-name="Layer 1" viewBox="0 0 1024 1024"><defs><style>.cls-1,.cls-23,.cls-7{fill:#fff;}.cls-1{stroke:#d8dcdf;stroke-width:4px;}.cls-1,.cls-16,.cls-20{stroke-miterlimit:10;}.cls-2{fill:#1d2c52;}.cls-3{fill:#263954;}.cls-4{fill:#3a66af;}.cls-21,.cls-5{fill:#1d4483;}.cls-6{fill:#dae0e6;}.cls-8{fill:#ba1f38;}.cls-9{fill:#f7b85f;}.cls-10{fill:#3ca5b3;}.cls-11{fill:#314c6f;}.cls-12{fill:#223461;}.cls-13{fill:#36919d;}.cls-14{fill:#acc6e7;}.cls-15{fill:#3c5d87;}.cls-16,.cls-20{fill:none;}.cls-16{stroke:#dfe1e8;stroke-width:0.65px;stroke-dasharray:0.65;}.cls-17{fill:#dfe1e8;}.cls-18{fill:#101728;}.cls-19{fill:#b9c4d4;}.cls-20{stroke:#dae0e6;stroke-width:0.98px;}.cls-21{font-size:26.41px;letter-spacing:0.02em;}.cls-21,.cls-23{font-family:NexaBold, Nexa Bold;}.cls-22{letter-spacing:-0.08em;}.cls-23{font-size:34.22px;letter-spacing:0.06em;}.cls-24{letter-spacing:0.02em;}.cls-25{letter-spacing:0.03em;}</style></defs><title>Domain Checker_Image Woocommerce</title><rect class="cls-1" x="302.51" y="904.35" width="445.82" height="46.62" rx="10.12"></rect><path class="cls-2" d="M740.8,196.43V803a69.59,69.59,0,0,1-69.64,69.64H384a71.5,71.5,0,0,1-8.06-.46A69.63,69.63,0,0,1,314.33,803V196.43A69.63,69.63,0,0,1,384,126.8h287.2A69.64,69.64,0,0,1,740.8,196.43Z"></path><rect class="cls-3" x="673.31" y="274.38" width="47.79" height="96.53"></rect><path class="cls-4" d="M695.56,259.37v240a38,38,0,0,1-38,38H390a38,38,0,0,1-38-38v-240a38,38,0,0,1,38-38H657.57A38,38,0,0,1,695.56,259.37Z"></path><path class="cls-5" d="M689.47,259.37V471.78a38,38,0,0,1-38,38H383.93a38,38,0,0,1-38-38V259.37a38,38,0,0,1,38-38H651.48A38,38,0,0,1,689.47,259.37Z"></path><path class="cls-6" d="M695.56,259.37V282.2H352V259.37a38,38,0,0,1,38-38H657.57A38,38,0,0,1,695.56,259.37Z"></path><rect class="cls-7" x="679.2" y="672.41" width="37.12" height="67.1"></rect><circle class="cls-8" cx="387.25" cy="250.3" r="10.46"></circle><circle class="cls-9" cx="421.52" cy="250.3" r="10.46"></circle><circle class="cls-10" cx="455.78" cy="250.3" r="10.46"></circle><path class="cls-11" d="M695.56,614.58V863.4a69.25,69.25,0,0,1-24.4,4.4H384A69.32,69.32,0,0,1,352,860.06V614.58a42.53,42.53,0,0,1,42.53-42.53H653A42.53,42.53,0,0,1,695.56,614.58Z"></path><path class="cls-12" d="M695.56,645.32V868.25a69.25,69.25,0,0,1-24.4,4.4H384A69.32,69.32,0,0,1,352,864.91V645.32a42.53,42.53,0,0,1,42.53-42.53H653A42.53,42.53,0,0,1,695.56,645.32Z"></path><rect class="cls-7" x="375.9" y="656.72" width="294.12" height="51.72" rx="5.79"></rect><rect class="cls-11" x="375.9" y="718.34" width="294.12" height="119.9" rx="5.75"></rect><path class="cls-11" d="M670,860v12.64H384a71.5,71.5,0,0,1-8.06-.46V860a13.24,13.24,0,0,1,13.24-13.24H656.78A13.24,13.24,0,0,1,670,860Z"></path><circle class="cls-8" cx="387.25" cy="631.71" r="10.46"></circle><circle class="cls-9" cx="421.52" cy="631.71" r="10.46"></circle><circle class="cls-13" cx="455.78" cy="631.71" r="10.46"></circle><path class="cls-7" d="M636,545.78a45.94,45.94,0,0,0-65,0l-5.27-5.27a53.4,53.4,0,0,1,75.52,0Z"></path><path class="cls-7" d="M580.64,555.38l-5.27-5.27a39.82,39.82,0,0,1,56.31,0l-5.27,5.27a32.36,32.36,0,0,0-45.77,0Z"></path><path class="cls-7" d="M616.53,565.26a18.4,18.4,0,0,0-26,0L585.24,560a25.86,25.86,0,0,1,36.56,0Z"></path><path class="cls-7" d="M614.52,578.11a11,11,0,1,1-11-11A11,11,0,0,1,614.52,578.11Z"></path><path class="cls-14" d="M477.63,568.2a45.93,45.93,0,0,1-65,0l-5.27,5.27a53.39,53.39,0,0,0,75.51,0Z"></path><path class="cls-14" d="M422.26,558.6,417,563.87a39.82,39.82,0,0,0,56.31,0L468,558.6a32.36,32.36,0,0,1-45.77,0Z"></path><path class="cls-14" d="M458.15,548.72a18.38,18.38,0,0,1-26,0L426.87,554a25.84,25.84,0,0,0,36.55,0Z"></path><circle class="cls-14" cx="445.15" cy="535.87" r="11"></circle><rect class="cls-2" x="399.45" y="732.47" width="52.28" height="95.08" rx="2.66"></rect><rect class="cls-2" x="464.37" y="732.47" width="52.28" height="95.08" rx="2.66"></rect><rect class="cls-15" x="529.29" y="732.47" width="52.28" height="95.08" rx="2.66"></rect><rect class="cls-2" x="594.2" y="732.47" width="52.28" height="95.08" rx="2.66"></rect><path class="cls-2" d="M394,779.4a5.48,5.48,0,1,1-5.48-5.48A5.47,5.47,0,0,1,394,779.4Z"></path><path class="cls-2" d="M663.24,779.4a5.48,5.48,0,1,1-5.48-5.48A5.47,5.47,0,0,1,663.24,779.4Z"></path><rect class="cls-11" x="408.28" y="797.5" width="35.23" height="3.91"></rect><rect class="cls-11" x="408.28" y="805.5" width="35.23" height="3.91"></rect><rect class="cls-11" x="408.28" y="813.5" width="22.23" height="3.91"></rect><rect class="cls-11" x="472.54" y="797.5" width="35.23" height="3.91"></rect><rect class="cls-11" x="472.54" y="805.5" width="35.23" height="3.91"></rect><rect class="cls-11" x="472.54" y="813.5" width="22.23" height="3.91"></rect><rect class="cls-6" x="536.79" y="797.5" width="35.23" height="3.91"></rect><rect class="cls-6" x="536.79" y="805.5" width="35.23" height="3.91"></rect><rect class="cls-6" x="536.79" y="813.5" width="22.23" height="3.91"></rect><rect class="cls-11" x="601.05" y="797.5" width="35.23" height="3.91"></rect><rect class="cls-11" x="601.05" y="805.5" width="35.23" height="3.91"></rect><rect class="cls-11" x="601.05" y="813.5" width="22.23" height="3.91"></rect><rect class="cls-11" x="406.98" y="740.13" width="38.43" height="49.72"></rect><rect class="cls-11" x="471.7" y="740.13" width="38.43" height="49.72"></rect><rect class="cls-2" x="536.43" y="740.13" width="38.43" height="49.72"></rect><rect class="cls-11" x="601.16" y="740.13" width="38.43" height="49.72"></rect><rect class="cls-16" x="525.1" y="725.8" width="61.41" height="108.13"></rect><rect class="cls-17" x="522.32" y="723.32" width="5.14" height="5.14"></rect><rect class="cls-17" x="552.98" y="723.32" width="5.14" height="5.14"></rect><rect class="cls-17" x="583.64" y="723.32" width="5.14" height="5.14"></rect><rect class="cls-17" x="522.32" y="776.57" width="5.14" height="5.14"></rect><rect class="cls-17" x="583.64" y="776.57" width="5.14" height="5.14"></rect><rect class="cls-17" x="522.32" y="831.21" width="5.14" height="5.14"></rect><rect class="cls-17" x="552.98" y="831.21" width="5.14" height="5.14"></rect><rect class="cls-17" x="583.64" y="831.21" width="5.14" height="5.14"></rect><path class="cls-18" d="M394.61,126.8H655.7v7.85h-7.25a60.62,60.62,0,0,0-43.22,18.11h0A60.58,60.58,0,0,1,562,170.87H487.25a60.58,60.58,0,0,1-42.51-17.4l-1.45-1.42a60.62,60.62,0,0,0-42.5-17.4h-6.18Z"></path><path class="cls-1" d="M762.88,361.05H891.55A85.05,85.05,0,0,0,976.6,276V245.46a85.05,85.05,0,0,0-85.05-85.05h0a85.05,85.05,0,0,0-85,85.05v10a149.72,149.72,0,0,1-43.62,105.62Z"></path><path class="cls-5" d="M762.88,615.77H891.55a85.05,85.05,0,0,1,85.05,85.05v30.53a85.05,85.05,0,0,1-85.05,85.06h0a85.05,85.05,0,0,1-85-85.06v-10a149.7,149.7,0,0,0-43.62-105.62Z"></path><path class="cls-5" d="M916.06,287.09a9,9,0,0,1,8.28-9c-.25-1.44-.54-2.85-.89-4.24q-.6-2.42-1.42-4.73a9,9,0,0,1-8.71-15.75,54.39,54.39,0,0,0-7.22-7.49,9,9,0,0,1-15.42-9.28,53.89,53.89,0,0,0-10-2.85,9,9,0,0,1-18-.3A53.85,53.85,0,0,0,852.6,236a9,9,0,0,1-15.71,8.79,54.31,54.31,0,0,0-7.44,7.26,9,9,0,0,1-9.2,15.46,52.51,52.51,0,0,0-2,6.34c-.31,1.21-.57,2.44-.79,3.68a9,9,0,0,1-.2,18,53.82,53.82,0,0,0,2.59,10.08,9,9,0,0,1,8.87,15.65,55,55,0,0,0,7.3,7.41,9,9,0,0,1,15.52,9.12,54.42,54.42,0,0,0,10,2.75,9,9,0,0,1,18,.1A53.62,53.62,0,0,0,889.63,338a9,9,0,0,1,15.61-9,55,55,0,0,0,7.38-7.34,9,9,0,0,1,9-15.56,53.72,53.72,0,0,0,2.69-10.05A9,9,0,0,1,916.06,287.09ZM870.79,307.5A20.45,20.45,0,1,1,891.25,287,20.45,20.45,0,0,1,870.79,307.5Z"></path><path class="cls-4" d="M944.56,217.84a5.38,5.38,0,0,1,4.93-5.36c-.15-.85-.32-1.7-.53-2.52s-.52-1.9-.84-2.82a5.38,5.38,0,0,1-5.19-9.38,33,33,0,0,0-4.3-4.46,5.38,5.38,0,0,1-9.18-5.53,32.33,32.33,0,0,0-6-1.7,5.38,5.38,0,0,1-10.72-.17,31.57,31.57,0,0,0-6,1.51,5.38,5.38,0,0,1-9.36,5.24A31.74,31.74,0,0,0,893,197a5.38,5.38,0,0,1-5.48,9.21,29.7,29.7,0,0,0-1.2,3.78c-.18.72-.34,1.45-.47,2.19a5.38,5.38,0,0,1-.12,10.72,32.6,32.6,0,0,0,1.54,6,5.38,5.38,0,0,1,5.29,9.32,33,33,0,0,0,4.34,4.42,5.38,5.38,0,0,1,9.25,5.43,33.08,33.08,0,0,0,6,1.63,5.38,5.38,0,0,1,10.72.06,31.69,31.69,0,0,0,6-1.57,5.38,5.38,0,0,1,9.3-5.34,33.49,33.49,0,0,0,4.39-4.36,5.38,5.38,0,0,1,5.38-9.28,32.1,32.1,0,0,0,1.6-6A5.38,5.38,0,0,1,944.56,217.84ZM917.6,230a12.18,12.18,0,1,1,12.18-12.18A12.18,12.18,0,0,1,917.6,230Z"></path><path class="cls-1" d="M291.15,615.77H162.48a85.05,85.05,0,0,0-85,85.05v30.53a85.05,85.05,0,0,0,85,85.06h0a85.05,85.05,0,0,0,85.05-85.06v-10a149.7,149.7,0,0,1,43.62-105.62Z"></path><path class="cls-1" d="M291.15,361.05H162.48a85.05,85.05,0,0,1-85-85.06V245.46a85.05,85.05,0,0,1,85-85.05h0a85.05,85.05,0,0,1,85.05,85.05v10a149.72,149.72,0,0,0,43.62,105.62Z"></path><circle class="cls-5" cx="149.33" cy="488.41" r="98.41"></circle><path class="cls-2" d="M189.19,713.2h2.43a24.1,24.1,0,0,0,17-7l6.45-6.46a17,17,0,0,0,4.89-14h0a2.5,2.5,0,0,0-4.25-1.48L212,687.92a12.75,12.75,0,0,1-18-18l3.7-3.69a2.5,2.5,0,0,0-1.48-4.24h0a17,17,0,0,0-14,4.88l-6.46,6.46a24,24,0,0,0-7,17v2.43l-25.4,25.41H140.9a24.06,24.06,0,0,0-17,7l-6.45,6.45a17.08,17.08,0,0,0-4.89,14h0a2.5,2.5,0,0,0,4.25,1.48l3.69-3.69a12.75,12.75,0,0,1,18,18l-3.7,3.69a2.5,2.5,0,0,0,1.49,4.24h0a17,17,0,0,0,14-4.88l6.46-6.46a24,24,0,0,0,7-17V738.6Z"></path><path class="cls-19" d="M211,549.93h-80V451.7h69.77L211,461.92Z"></path><rect class="cls-2" x="141.46" y="480.78" width="59.19" height="5.72"></rect><rect class="cls-2" x="141.46" y="492.23" width="59.19" height="5.72"></rect><rect class="cls-2" x="141.46" y="503.68" width="59.19" height="5.72"></rect><rect class="cls-2" x="141.46" y="515.13" width="37.15" height="5.72"></rect><polygon class="cls-2" points="211.04 475.23 187.36 475.23 187.51 451.7 211.04 475.23"></polygon><path class="cls-7" d="M171.62,518.89h-80V420.66H161.4l10.22,10.21Z"></path><rect class="cls-2" x="102.03" y="449.74" width="59.19" height="5.72"></rect><rect class="cls-2" x="102.03" y="461.19" width="59.19" height="5.72"></rect><rect class="cls-2" x="102.03" y="472.64" width="59.19" height="5.72"></rect><rect class="cls-2" x="102.03" y="484.08" width="37.15" height="5.72"></rect><polygon class="cls-2" points="171.62 444.19 147.94 444.19 148.09 420.66 171.62 444.19"></polygon><path class="cls-5" d="M104.63,235.24h0a13.84,13.84,0,0,1,13.8-13.8h55.41a13.84,13.84,0,0,1,13.8,13.8h0a13.84,13.84,0,0,1-13.8,13.8H139.26c-7.1,10.78-21.08,15.11-32.94,12.12,4-1.48,11.05-5.19,12.11-12.12A13.84,13.84,0,0,1,104.63,235.24Z"></path><path class="cls-6" d="M162.14,235.3a2.93,2.93,0,1,0,2.93-2.93A2.93,2.93,0,0,0,162.14,235.3Z"></path><path class="cls-6" d="M149.52,235.3a2.93,2.93,0,1,0,2.93-2.93A2.93,2.93,0,0,0,149.52,235.3Z"></path><circle class="cls-6" cx="139.82" cy="235.3" r="2.93"></circle><circle class="cls-6" cx="127.2" cy="235.3" r="2.93"></circle><path class="cls-4" d="M229.21,276.32h0a13.83,13.83,0,0,0-13.79-13.8H160a13.84,13.84,0,0,0-13.8,13.8h0A13.83,13.83,0,0,0,160,290.11h34.58c7.1,10.78,21.09,15.11,32.95,12.13-4-1.49-11.06-5.2-12.11-12.13A13.82,13.82,0,0,0,229.21,276.32Z"></path><circle class="cls-6" cx="168.77" cy="276.37" r="2.93"></circle><circle class="cls-6" cx="181.4" cy="276.37" r="2.93"></circle><path class="cls-6" d="M197,276.37a2.93,2.93,0,1,1-2.93-2.93A2.93,2.93,0,0,1,197,276.37Z"></path><circle class="cls-6" cx="206.64" cy="276.37" r="2.93"></circle><path class="cls-7" d="M946.6,715.41a39.66,39.66,0,0,0-68.17-27.16c-1-.09-1.94-.14-2.92-.14a33.7,33.7,0,0,0-33,26.93l-.68,0a20.24,20.24,0,0,0,0,40.47H942.61a20.24,20.24,0,0,0,4-40.08Z"></path><path class="cls-1" d="M289.48,825.67l-62.61,62.61a8.14,8.14,0,0,1-11.48,0h0a8.15,8.15,0,0,1,0-11.49L278,814.18a8.14,8.14,0,0,1,11.48,0h0A8.15,8.15,0,0,1,289.48,825.67Z"></path><path class="cls-6" d="M887.58,483.63,825,546.24a8.15,8.15,0,0,1-11.49,0h0a8.15,8.15,0,0,1,0-11.48l62.61-62.61a8.15,8.15,0,0,1,11.49,0h0A8.14,8.14,0,0,1,887.58,483.63Z"></path><path class="cls-6" d="M948,423.24,910.17,461a8.14,8.14,0,0,1-11.48,0h0a8.15,8.15,0,0,1,0-11.49l37.8-37.8a8.15,8.15,0,0,1,11.49,0h0A8.17,8.17,0,0,1,948,423.24Z"></path><path class="cls-6" d="M284.71,107.89l-37.81,37.8a8.14,8.14,0,0,1-11.48,0h0a8.15,8.15,0,0,1,0-11.49l37.8-37.8a8.15,8.15,0,0,1,11.49,0h0A8.17,8.17,0,0,1,284.71,107.89Z"></path><path class="cls-6" d="M795,137.52h-3.09a2.49,2.49,0,0,1-2.49-2.48V132a4.72,4.72,0,0,0-3.89-4.71,4.64,4.64,0,0,0-5.36,4.57V135a2.48,2.48,0,0,1-2.48,2.48h-3.09a4.73,4.73,0,0,0-4.71,3.9,4.64,4.64,0,0,0,4.57,5.36h3.23a2.48,2.48,0,0,1,2.48,2.48v3.09a4.72,4.72,0,0,0,3.9,4.71,4.63,4.63,0,0,0,5.35-4.57v-3.23a2.49,2.49,0,0,1,2.49-2.48h3.23a4.64,4.64,0,0,0,4.57-5.36A4.73,4.73,0,0,0,795,137.52Z"></path><path class="cls-20" d="M640.91,75.72h-3.1a2.48,2.48,0,0,1-2.48-2.48v-3.1a4.73,4.73,0,0,0-3.89-4.71A4.64,4.64,0,0,0,626.08,70v3.24a2.48,2.48,0,0,1-2.48,2.48h-3.09a4.72,4.72,0,0,0-4.71,3.89A4.64,4.64,0,0,0,620.37,85h3.23a2.48,2.48,0,0,1,2.48,2.48v3.09a4.72,4.72,0,0,0,3.9,4.71,4.63,4.63,0,0,0,5.35-4.57V87.45A2.48,2.48,0,0,1,637.81,85h3.24a4.65,4.65,0,0,0,4.57-5.36A4.73,4.73,0,0,0,640.91,75.72Z"></path><path class="cls-2" d="M504.26,68.82a11,11,0,1,1-11-11A11,11,0,0,1,504.26,68.82Z"></path><path class="cls-2" d="M930.65,577.1a11,11,0,1,1-11-11A11,11,0,0,1,930.65,577.1Z"></path><text class="cls-21" transform="translate(857.21 736.32)">D<tspan class="cls-22" x="19.23" y="0">A</tspan><tspan x="36.92" y="0">TA</tspan></text><circle class="cls-6" cx="966.86" cy="477.25" r="10.27"></circle><path class="cls-6" d="M826,427.82a5.65,5.65,0,1,1-5.65-5.65A5.64,5.64,0,0,1,826,427.82Z"></path><path class="cls-20" d="M779.44,507.6a4.11,4.11,0,1,1-4.1-4.11A4.11,4.11,0,0,1,779.44,507.6Z"></path><circle class="cls-6" cx="829.73" cy="822.52" r="5.13"></circle><path class="cls-6" d="M828.35,873.87a4.11,4.11,0,1,1-4.11-4.11A4.11,4.11,0,0,1,828.35,873.87Z"></path><circle class="cls-6" cx="229.8" cy="388.26" r="4.11"></circle><circle class="cls-6" cx="292.94" cy="576.65" r="5.65"></circle><path class="cls-6" d="M66.57,585.38a6.16,6.16,0,1,1-6.16-6.16A6.16,6.16,0,0,1,66.57,585.38Z"></path><circle class="cls-6" cx="134.84" cy="182.41" r="5.65"></circle><path class="cls-6" d="M892.58,205.51a4.11,4.11,0,1,1-4.11-4.1A4.11,4.11,0,0,1,892.58,205.51Z"></path><polygon class="cls-13" points="916.98 493.56 920.29 500.27 927.7 501.35 922.34 506.57 923.61 513.95 916.98 510.47 910.35 513.95 911.62 506.57 906.25 501.35 913.66 500.27 916.98 493.56"></polygon><path class="cls-4" d="M474.63,304.66c10.94.48,21.47,3.08,30.63,9a177.1,177.1,0,0,1,47.39,44c13.57,18.44,13.17,38.1,2.55,57.21-10.93,19.69-26.36,35.92-44.37,49.49-20,15-40.94,13.89-61.28,1.53-17.39-10.57-32.19-24.49-44.84-40.55a70.52,70.52,0,0,1-7.93-12.92c-7.53-15.47-5.56-30.95,2.14-45.21a150.89,150.89,0,0,1,51-55.22A43.37,43.37,0,0,1,474.63,304.66ZM495,431.36c-.8-2.39-1.07-3.3-1.41-4.18-2.5-6.48-2.5-6.48,4.6-6.49,8.4,0,16.79.12,25.18-.06,8.69-.19,12.44-4.05,12.49-12.62.07-11.24.1-22.48,0-33.72-.07-7.7-3.73-11.35-11.42-11.37q-46.77-.07-93.56,0c-7.85,0-11.59,3.85-11.65,11.76-.08,10.61,0,21.21,0,31.82,0,10.08,4,14.13,14.05,14.17q19,.09,38,0a16.07,16.07,0,0,1,8.55,2.31C484.32,425.66,489.06,428.13,495,431.36Z"></path><path class="cls-7" d="M437.09,398.38,446.44,381c1.13-2.1,2.21-4.56,5.16-4s3.19,3.1,3.74,5.46c1,4.09,1.63,8.28,3.86,13.22A113.25,113.25,0,0,1,462.65,378a38.93,38.93,0,0,1,2-5.33c1.12-2.41,2.67-4.68,5.77-3.58,3.31,1.19,3.24,3.9,2.16,6.71a91.59,91.59,0,0,0-4.37,18c-.82,4.88-.75,9.78-.9,14.68-.08,2.54.07,5.45-2.8,6.51-3.16,1.15-4.83-1.48-6.59-3.51-4-4.63-5.95-10.36-8.31-15.9-2.19.35-2.27,2.23-3,3.49-2.31,4.15-4.41,8.41-6.79,12.51-1.11,1.9-2.58,3.94-5.16,3.56-2.37-.35-3-2.64-3.61-4.59a76.13,76.13,0,0,1-2.34-8.22c-1.64-8.06-3.09-16.16-4.67-24.23-.64-3.27-.48-6.4,3.38-7.13s4.43,2.55,5,5.43C433.84,383.23,434.31,390.34,437.09,398.38Z"></path><path class="cls-7" d="M530.39,388.51c-.14,6.83-1.75,12.17-5.5,16.79-3,3.74-6.91,5.51-11.7,4.7a11.75,11.75,0,0,1-9.74-8.68c-2.49-8.18-.79-15.7,4.37-22.37,3-3.87,7-6,12-4.95s8.32,4.37,9.66,9.38A44.11,44.11,0,0,1,530.39,388.51Zm-19.2,5c0,.79-.06,1.58,0,2.36.17,2.3.78,4.61,3.23,5.24s4-1.33,5.21-3.23c2.39-3.85,2.54-8.1,1.43-12.3-.93-3.51-3.88-4.14-6.45-1.54A12.24,12.24,0,0,0,511.19,393.54Z"></path><path class="cls-7" d="M472.14,394.27c.45-6,2.1-11.73,6.36-16.36,6.35-6.89,17.23-4.93,20.38,3.9,3.26,9.11,1.22,17.57-5.14,24.63-5.83,6.47-16,4.53-19.66-3.37A23.56,23.56,0,0,1,472.14,394.27Zm8.61-.5a25.83,25.83,0,0,0,.51,3.75c1.23,4.31,4.14,5,7.29,1.68s4.25-9.84,2.46-13.81c-1.58-3.52-4-4-6.53-1.15A13.84,13.84,0,0,0,480.75,393.77Z"></path><text class="cls-23" transform="translate(432.24 458.75)">C<tspan class="cls-24" x="24.5" y="0">OMMER</tspan><tspan x="159.34" y="0">C</tspan><tspan class="cls-25" x="183.84" y="0">E</tspan></text></svg>