<svg xmlns="http://www.w3.org/2000/svg" xmlns:xlink="http://www.w3.org/1999/xlink" id="Layer_1" x="0px" y="0px" viewBox="0 0 173.6 127.5" style="enable-background:new 0 0 173.6 127.5;" xml:space="preserve"><style type="text/css">	.st0{fill:none;stroke:#3A66AF;stroke-width:1.5;stroke-miterlimit:10;}	.st1{fill:#FFFFFF;stroke:#3A66AF;stroke-width:1.5;stroke-miterlimit:10;}	.st2{fill:none;}	.st3{fill:none;stroke:#3A66AF;stroke-width:4;stroke-miterlimit:10;}	.st4{fill:#3A66AF;}	.st5{fill:#F9FBFC;}	.st6{fill:none;stroke:#D9DBDB;stroke-width:5;stroke-miterlimit:10;}	.st7{fill:#FFFFFF;}	.st8{fill:#6394DB;}	.st9{opacity:0.5;fill:#FFFFFF;enable-background:new    ;}	.st10{opacity:0.5;fill:#DADADA;enable-background:new    ;}</style><g>	<g>		<path class="st0" d="M10.4,98.7c0-0.5,0-0.9,0-1.3c0-12,0-24,0-36c0-3.4,1.4-4.8,4.8-4.8c19.3,0,38.6,0,57.9,0   c2.6,0,4.3,1.5,4.3,3.9c0,12.5,0,25.1,0,37.7c0,0.2,0,0.3-0.1,0.5C55,98.7,32.8,98.7,10.4,98.7z M15.8,96.9c18.8,0,37.5,0,56.2,0   c0-11.9,0-23.7,0-35.6c-18.8,0-37.5,0-56.2,0C15.8,73.2,15.8,85,15.8,96.9z"></path>		<path class="st0" d="M44,100.5c13,0,26,0,38.9,0c2,0,2.2,0.3,2.2,2.2c0,3.3-1.3,4.5-4.6,4.5c-24.5,0-49,0-73.5,0   c-3.9,0-4.8-2.8-4.3-5.8c0.1-0.4,0.8-0.8,1.2-1c0.3-0.2,0.7,0,1.1,0C18.1,100.5,31,100.5,44,100.5z M35.7,102.3   c-0.2,1.7,0.6,2.9,2.1,2.9c4.1,0,8.2,0.1,12.3,0c1.5,0,2.4-1.3,2-2.9C46.6,102.3,41.2,102.3,35.7,102.3z"></path>	</g>	<g>		<path class="st0" d="M95.8,64.9c0-0.5,0-0.9,0-1.3c0-12.1,0-24.2,0-36.3c0-3.1,1.4-4.6,4.5-4.6c19.4,0,38.7,0,58.1,0   c2.8,0,4.4,1.5,4.4,4.2c0,12.4,0,24.9,0,37.3c0,0.2,0,0.4,0,0.7C140.5,64.9,118.3,64.9,95.8,64.9z M157.5,27.4   c-18.8,0-37.5,0-56.2,0c0,12,0,23.8,0,35.7c18.8,0,37.5,0,56.2,0C157.5,51.3,157.5,39.4,157.5,27.4z"></path>		<path class="st0" d="M129.3,66.8c13,0,25.9,0,38.9,0c2,0,2.2,0.3,2.2,2.2c0,3.1-1.4,4.5-4.5,4.5c-24.5,0-49,0-73.4,0   c-3.5,0-5-2.2-4.4-5.7c0.1-0.4,0.7-0.8,1.2-1.1c0.2-0.2,0.7,0,1,0C103.3,66.8,116.3,66.8,129.3,66.8z M121.1,68.7   c-0.2,1.7,0.6,2.8,2.1,2.8c4.1,0.1,8.1,0.1,12.2,0c1.5,0,2.4-1.3,2.1-2.8C132,68.7,126.6,68.7,121.1,68.7z"></path>	</g>	<g>		<path class="st0" d="M43.4,63.2c3.4,2.6,7.1,4.6,11,6c0.6,0.2,1.3,0.4,1.9,0.7c0.5,0.3,0.8,0.3,1.2,0.6c1,0.7,2.5,2.8,2.5,2.8   l-9.4,21c-5.6-7-14.2-3.8-17.5-7.8L43.4,63.2z"></path>		<path class="st0" d="M55,74.7c1.9-1.5,3.8-2.2,4.8-1.1c-1.2-1.5-2.8-3.6-3.7-3.5C56.3,71.2,55.9,73.9,55,74.7z"></path>		<g>			<path class="st0" d="M42.5,72.2c4.8,1.3,8.7,4.8,12.5,5.7"></path>			<path class="st0" d="M41.5,74.4c4.8,1.3,8.7,4.8,12.5,5.7"></path>			<path class="st0" d="M40.6,76.5c4.8,1.3,8.7,4.8,12.5,5.7"></path>			<path class="st0" d="M39.6,78.6c4.8,1.3,8.7,4.8,12.5,5.7"></path>			<path class="st0" d="M38.6,80.8c4.8,1.3,8.7,4.8,12.5,5.7"></path>			<path class="st0" d="M37.7,82.9c4.8,1.3,8.7,4.8,12.5,5.7"></path>		</g>	</g>	<g>		<path class="st0" d="M125.9,29.3c3.4,2.6,7.1,4.6,11,6c0.6,0.2,1.3,0.4,1.9,0.7c0.5,0.3,0.8,0.3,1.2,0.6c1,0.7,2.5,2.8,2.5,2.8   l-9.4,21c-5.6-7-14.2-3.8-17.5-7.8L125.9,29.3z"></path>		<path class="st0" d="M137.5,40.9c1.9-1.5,3.8-2.2,4.8-1.1c-1.2-1.5-2.8-3.6-3.7-3.5C138.7,37.3,138.3,40,137.5,40.9z"></path>		<g>			<path class="st0" d="M124.9,38.4c4.8,1.3,8.7,4.8,12.5,5.7"></path>			<path class="st0" d="M124,40.5c4.8,1.3,8.7,4.8,12.5,5.7"></path>			<path class="st0" d="M123,42.6c4.8,1.3,8.7,4.8,12.5,5.7"></path>			<path class="st0" d="M122,44.8c4.8,1.3,8.7,4.8,12.5,5.7"></path>			<path class="st0" d="M121.1,46.9c4.8,1.3,8.7,4.8,12.5,5.7"></path>			<path class="st0" d="M120.1,49.1c4.8,1.3,8.7,4.8,12.5,5.7"></path>		</g>	</g>	<g>		<path class="st1" d="M79.1,61.8c4.3-0.2,8.4-1,12.3-2.4c0.6-0.2,1.3-0.5,1.9-0.6c0.5-0.1,0.8-0.3,1.2-0.3c1.2-0.1,3.7,0.5,3.7,0.5   l6.2,22.1c-8.8-1.8-13.4,6.2-18.5,5.3L79.1,61.8z"></path>		<path class="st0" d="M95.4,63.3c0.5-2.4,1.5-4.1,2.9-3.9c-1.9-0.4-4.5-1-5.1-0.3C94.2,59.8,95.6,62.1,95.4,63.3z"></path>		<g>			<path class="st0" d="M84.2,69.4c4.5-2.1,9.8-1.9,13.2-3.7"></path>			<path class="st0" d="M84.9,71.6c4.5-2.1,9.8-1.9,13.2-3.7"></path>			<path class="st0" d="M85.5,73.9c4.5-2.1,9.8-1.9,13.2-3.7"></path>			<path class="st0" d="M86.1,76.2c4.5-2.1,9.8-1.9,13.2-3.7"></path>			<path class="st0" d="M86.8,78.5c4.5-2.1,9.8-1.9,13.2-3.7"></path>			<path class="st0" d="M87.4,80.7c4.5-2.1,9.8-1.9,13.2-3.7"></path>		</g>	</g></g><rect x="-58.7" y="-31.3" class="st2" width="279.9" height="184.9"></rect><rect x="-250.5" y="-31.3" class="st2" width="279.9" height="184.9"></rect></svg>