<svg xmlns="http://www.w3.org/2000/svg" id="Layer_1" data-name="Layer 1" viewBox="0 0 784.74 624.14"><defs><style>.cls-1{fill:#3a66af;}.cls-2,.cls-6,.cls-8{fill:none;}.cls-2{stroke:#3a66af;stroke-width:8px;}.cls-2,.cls-3,.cls-6,.cls-8{stroke-miterlimit:10;}.cls-3,.cls-4{fill:#1f558c;}.cls-3,.cls-6,.cls-8{stroke:#20568c;}.cls-5{fill:#231f20;}.cls-6{stroke-width:2px;}.cls-7{fill:#fff;}.cls-8{stroke-width:1.2px;}</style></defs><title>Domain Checker_Image-04-03</title><path class="cls-1" d="M61.84,245q0-64.32,0-128.63c0-8.52,1.69-16.71,6.43-24C76.52,79.73,88.22,72,103.9,71.76c91.08-1.3,182.16-.43,273.23-.59,25.26,0,44.75,19.5,44.81,44.44q.12,47.12,0,94.23a16.1,16.1,0,0,0,2.85,9.58c8.92,13.16,19.33,24.78,33.84,32.47,13.39,7.09,27.78,10.23,43,10.3,10,.05,10.87.73,12,10.18,3.81,32.7-.25,64.44-12.88,95-14.87,36-40.15,63.63-73.78,84.35-5.68,3.5-11.59,6.57-17.46,9.74a7.79,7.79,0,0,1-7.76.05,197.12,197.12,0,0,1-44.13-29.79,131.15,131.15,0,0,1-10.37-10c-2.42-2.69-5.09-3.48-8.66-3.47q-58.59.13-117.19,0c-35.42,0-70.84.08-106.26-.08-6.91,0-13.91.17-20.69-1.76-19.63-5.58-32.53-22.15-32.55-42.14q-.08-64.64,0-129.28Zm10.89,15.9h0q0,56.55,0,113.09a36.17,36.17,0,0,0,.46,6.91c3.05,15.72,16.75,26.7,33.45,26.72q54,.08,108,0,57.93,0,115.84,0c1,0,2.31.47,2.89-.42s-.6-1.75-1.17-2.5a182.72,182.72,0,0,1-21.38-35.29c-1.75-3.82-1.78-3.74-5.42-1.5-27.24,16.82-56.75,22.17-88.33,15.73a111.58,111.58,0,0,1-60.5-33.89c-23.27-24.92-33.34-54.34-29.62-87.69,3.23-28.92,16.48-53.2,39.33-72.22,25.62-21.33,55.54-30.43,89-26.58,48.15,5.55,86,37.87,98.49,82.89,1,3.63,1.19,3.7,4.35,1.64.47-.31.92-.64,1.39-1C373.33,237.4,383.15,224.63,392,211a66.22,66.22,0,0,1,7.12-9.68c2.29-2.43,5.22-3.58,8.32-2.48,3.76,1.34,3.57-.58,3.57-3,0-16.2,0-32.41,0-48.61,0-6,0-6-6.38-6l-303.09,0c-8.17,0-16.34-.38-24.52-.25-3.94.06-4.34,1.45-4.33,4.61Q72.8,203.21,72.73,260.92ZM241.92,130.61v-.05H392.61c5,0,10-.09,15,0,2.54.06,3.43-.94,3.38-3.33-.11-4.63,0-9.26,0-13.89-.25-17.06-15.25-31.6-32.93-31.61q-136.17-.09-272.35,0a33.1,33.1,0,0,0-31.34,22c-2.55,7.12-1.37,14.42-1.6,21.65-.16,5.26,0,5.26,5.48,5.26Zm64,168.22a98,98,0,0,0,.88,16.57,162.63,162.63,0,0,0,22.82,66.29c17.68,29.25,42.08,51.79,72.68,68.14a5.81,5.81,0,0,0,6.32,0c7.08-4,14.15-8,20.86-12.57,30.57-20.81,52.28-48.08,64.35-82.42a186.58,186.58,0,0,0,10-52.48,150.26,150.26,0,0,0-1-26.39c-.26-2.11-1.09-3.12-3.43-3.12-2.61,0-5.22-.31-7.83-.55-21.81-2-40.92-9.82-56.91-24.5-10.28-9.43-17.92-20.77-25.24-32.35-3.62-5.74-3.72-5.81-7.41,0-7.05,11-14.74,21.5-24.4,30.5-18.46,17.17-40.68,25.86-66.15,26.88-2.84.12-3.78,1.31-4.05,3.74C306.58,283.86,305.64,291.18,305.93,298.83Zm-32.86-24.49c-.2-6.47.1-12.75-.46-19-.22-2.49-1.19-3.49-4-3.76-5.91-.58-11.83-.31-17.73-.72-12.3-.86-24.56.12-36.82.82-2.14.13-3,1.14-3.12,3.12a356.58,356.58,0,0,0,0,39c.13,2.47,1.29,3.37,3.84,3.51a492.31,492.31,0,0,0,53.92,0c2.35-.13,3.43-.89,3.72-3.25C273.27,287.36,272.8,280.75,273.07,274.34Zm-73-16.91c.7-4.16-1-4.62-3.24-4.32-14.34,1.88-28.6,4.16-42.24,9-5.45,1.94-10.85,4.11-15.15,8.07-3.22,3-3.16,5.5.09,8.46a30.76,30.76,0,0,0,8.62,5.28c15.89,6.84,32.81,9.62,49.89,11.72,1.93.24,2.42-.71,2.29-2.32C199.35,280.9,199.72,268.47,200.11,257.43Zm41.5-52.07c-6.56.49-13.14,1-19.72,1.47a4,4,0,0,0-3.92,3.48q-3.24,13.35-5.21,26.95c-.49,3.42.76,4,3.77,3.78,5.33-.34,10.68-.62,16-.67,11.61-.11,23.23-.36,34.81.67,3.21.29,3.93-.85,3.52-3.73a255.33,255.33,0,0,0-5.23-26.95,4.23,4.23,0,0,0-4.28-3.51Zm.49,137.47a131.86,131.86,0,0,0,19.78-1.24c1.59-.19,2.85-.54,3.32-2.24a185.84,185.84,0,0,0,5.69-29.15c.21-1.92-.48-2.78-2.72-2.62a351.33,351.33,0,0,1-53.11-.09c-2-.16-2.65.37-2.41,2.38a207,207,0,0,0,5.5,28.53c.58,2.15,1.69,3,4,3.26A147.39,147.39,0,0,0,242.1,342.83ZM140.84,256c1,.48,1.55,0,2.14-.31a124,124,0,0,1,22.22-7.46,277.17,277.17,0,0,1,33.26-5.73c1.95-.24,3.12-.92,3.34-3a220.63,220.63,0,0,1,4.47-26.39c.69-3-.67-3.22-3.12-2.57-19.45,5.18-37,13.52-50.91,28.12A53.27,53.27,0,0,0,140.84,256Zm.35,36.64c3.18,8.65,8.64,15.62,15.37,21.64,13.33,11.92,29.25,19.23,46.63,23.79,3.39.89,3.76.49,2.94-3a177.93,177.93,0,0,1-4.19-24.75c-.27-3.1-1.6-4.07-4.61-4.38a222.1,222.1,0,0,1-35.85-6.44A192.89,192.89,0,0,1,141.19,292.63ZM342.1,255.68c-3.06-8.28-8.24-15-14.68-20.86-13.63-12.33-30-19.75-47.81-24.52-2.57-.68-2.91,0-2.34,2.32a202.3,202.3,0,0,1,4.58,26c.29,2.59,1.26,3.59,3.89,3.89A258,258,0,0,1,319,248.23,190.81,190.81,0,0,1,342.1,255.68Zm-191.94-30c1.25-.81,1.85-1.12,2.36-1.54,14.78-12.2,31.91-20,50.69-24.1,5.74-1.27,8.45-3.75,10-8.9,1.67-5.56,4.88-10.56,7.9-15.72C200.56,174.26,160.59,202.43,150.16,225.64Zm-.29,96.71c7.83,21.47,48.83,50.73,71.26,50.91a78.84,78.84,0,0,1-9.34-19.16c-.89-2.83-2.6-4-5.48-4.57a127.43,127.43,0,0,1-23.1-7A115.1,115.1,0,0,1,149.87,322.35Zm112.63-147a87.1,87.1,0,0,1,9.36,19.15c.9,2.76,2.41,4,5.34,4.66,20,4.41,38.52,12,54.24,25.15.33.28.76.56,1.18.06C324.66,204,284.65,175.78,262.5,175.34Zm60.72,85.51c-.32-.35-.43-.6-.6-.65-11.87-3.67-24.12-5.51-36.42-7.07-2.08-.26-2.94.7-2.83,2.67.22,3.51.53,7,.57,10.55.08,8.58.32,17.17-.5,25.75-.11,1.21-.65,3.26,1.08,3.38a19.7,19.7,0,0,0,9.35-1.34c1.92-.85,1.42-3.32,1.49-5.12a147.08,147.08,0,0,1,2.74-21.62c.62-3.35,2.69-5,6.09-5.11,1.71-.08,3.42-.05,5.12-.06A55.73,55.73,0,0,0,323.22,260.85Zm-58,112.31,1.81-.4a105.61,105.61,0,0,0,33.48-14.39c4.55-3,4.52-3,2.82-8.16-.55-1.67-1.14-3.35-1.54-5.06-.5-2.17-1.59-2.55-3.68-1.74A134.8,134.8,0,0,1,276,349.89c-1.34.27-2.64.61-3.18,2.12a93.26,93.26,0,0,1-9,19.22C263,372.58,263.33,373.3,265.25,373.16ZM257.36,196c3.33.13,3.58-.21,2.08-3.81a50.29,50.29,0,0,0-8.93-14.71c-5.46-6-11.13-6.15-16.9-.42-4.44,4.41-7,9.95-9.52,15.49-1.53,3.38-1.3,3.76,2.67,3.41A169.09,169.09,0,0,1,257.36,196ZM225.22,352.55c-2.18-.16-2.5.13-1.65,2.16,2.63,6.35,5.62,12.51,10.82,17.38s9.65,5,14.82.13,8.11-11.07,10.78-17.41c.76-1.8.21-2.4-1.79-2.19A154.07,154.07,0,0,1,225.22,352.55Zm67.21-47.21c-2.71.3-5.42.57-8.12.93a2.28,2.28,0,0,0-2.23,2.11,251.75,251.75,0,0,1-4.85,28.31c-.39,1.74.18,2.18,1.95,1.71a165.12,165.12,0,0,0,17.11-5.59,2.47,2.47,0,0,0,1.67-3.15,160.27,160.27,0,0,1-2.57-21.61C295.33,306.16,294.48,305.16,292.43,305.34Z"></path><path class="cls-1" d="M310.26,111.42h-61.5c-5.37,0-8.36-1.89-8.37-5.26s3-5.27,8.36-5.27l122.66,0a19,19,0,0,1,4.07.24c2.77.62,4.32,2.37,4.25,5.21-.06,2.69-1.62,4.31-4.23,4.88a19.13,19.13,0,0,1-4.08.24H310.26Z"></path><path class="cls-1" d="M166.92,89c9.51-.09,17.72,7.7,17.89,17s-8.27,17.4-17.83,17.37c-9.41,0-17.58-7.8-17.67-16.8C149.21,97,157.2,89.06,166.92,89Zm-.33,23.8c4.11.19,7.1-2.33,7.3-6.16a6.69,6.69,0,0,0-6.64-7.24,7.22,7.22,0,0,0-7.31,6.43A6.8,6.8,0,0,0,166.59,112.77Z"></path><path class="cls-1" d="M230.08,106.1a17.41,17.41,0,0,1-17.38,17.23c-9.9-.06-17.68-7.68-17.67-17.3,0-9.4,7.79-16.94,17.59-17A17.21,17.21,0,0,1,230.08,106.1Zm-17.45,6.67a6.64,6.64,0,1,0,0-13.26c-4.18,0-7.21,2.87-7.11,6.79C205.59,110.06,208.61,112.79,212.63,112.77Z"></path><path class="cls-1" d="M139.11,106.35c-.05,9.26-8.26,17.12-17.72,17-10-.18-17.37-7.65-17.3-17.51.06-9.39,8-17,17.71-16.8A17.51,17.51,0,0,1,139.11,106.35Zm-17.58,6.44c4,0,7.12-2.83,7.1-6.49a7.39,7.39,0,0,0-7.16-7.06,7,7,0,0,0-7,6.73C114.44,110,117.26,112.78,121.53,112.79Z"></path><path class="cls-1" d="M497.23,295.2c-.49,34.59-8.88,66.95-29.26,95.86-15.39,21.83-35.63,38.43-59.24,51.41a6.76,6.76,0,0,1-7.08-.21c-42.15-23.37-70.67-56.93-82.53-103a195.74,195.74,0,0,1-5.75-51.11,25.77,25.77,0,0,1,.33-3.61c.61-4,2.07-5.41,6.14-5.79a104.8,104.8,0,0,0,46.71-15.51c13.5-8.5,24-19.83,32.86-32.73,4.15-6.06,7.74-6.11,11.84-.11,10.81,15.77,24.07,29,41.7,37.72a110.69,110.69,0,0,0,37.51,10.53c5,.55,6.59,2.21,6.75,7C497.32,288.8,497.23,292,497.23,295.2Zm-11,3.71a53.64,53.64,0,0,1,0-6c.38-3.29-1.21-4.43-4.38-4.83a102.86,102.86,0,0,1-19.2-4.52c-22.51-7.44-40.3-21-54.48-39.25-2.92-3.76-2.89-3.73-5.86.17a112.39,112.39,0,0,1-74.45,43.7c-2.61.36-3.65,1.46-3.65,4.09a194.13,194.13,0,0,0,1.39,22.74,152.73,152.73,0,0,0,16.83,54.8c13.95,26.06,34.72,45.81,60.52,60.87a4.14,4.14,0,0,0,4.71,0c16.9-9.9,31.88-21.95,44.29-36.88C475,366.16,485,334,486.25,298.91Z"></path><path class="cls-1" d="M362.54,358.87c0-7.38,0-14.77,0-22.15.05-8.08,3.34-12.57,11.26-14.88,2.32-.68,2.28-2.07,2.28-3.76,0-8.59,0-17.19,0-25.78,0-8.17,4.22-12.22,12.62-12.25q16.39,0,32.8,0c9,0,13.22,3.92,13.37,12.66.15,8.26.13,16.53,0,24.8,0,2.57.67,3.87,3.44,4.68a12.92,12.92,0,0,1,9.75,12.91q.09,23.81,0,47.61c0,6.87-4.82,12.23-11.83,13.3-6.11.94-12.3.63-18.42.36-13.32-.57-26.64-.15-40-.3-9.79-.1-15.25-5.27-15.34-14.7,0-3.75,0-7.5,0-11.25V358.87Zm43-27c-8.77,0-17.54,0-26.31,0-4.65,0-5.65,1-5.66,5.43q0,21.49,0,43c0,4.43,1,5.42,5.66,5.43q26.31,0,52.62,0c4.27,0,5.15-.87,5.16-5.12q0-21.82,0-43.64c0-4.27-.79-5-5.19-5.05C423.08,331.86,414.31,331.89,405.54,331.88Zm-.22-10.3h0c5,0,10-.09,15,0,2.67.07,3.63-1,3.6-3.51q-.15-12,0-24.1c0-2.41-.86-3.34-3.37-3.32q-15,.12-30,0c-2.5,0-3.45.94-3.43,3.33.08,8,.1,16.08,0,24.11,0,2.53.85,3.58,3.56,3.5C395.54,321.48,400.43,321.58,405.32,321.58Z"></path><path class="cls-1" d="M420,352.54a13.15,13.15,0,0,1-6,10.64,5.7,5.7,0,0,0-3,5.77,30,30,0,0,1-.12,5.92,5.54,5.54,0,0,1-5.79,4.95c-3.07-.24-4.92-2.24-5.09-5.54a19.39,19.39,0,0,1,0-2.64c.35-3.78-.39-6.65-4.05-9.22-5.52-3.89-6.58-11.31-3.47-17a14.65,14.65,0,0,1,27.53,7.1Zm-11.09-.71c-.25-1.8-1.24-3.25-3.34-3.32s-3.7,1.23-3.69,3.41a3.25,3.25,0,0,0,3.46,3.32C407.49,355.31,408.54,354,408.9,351.83Z"></path><polyline class="cls-2" points="317.4 510.71 317.4 485.78 236.45 459.62 236.45 414.34"></polyline><polyline class="cls-2" points="628.45 471.04 628.45 430.99 547.49 404.83 547.49 359.55 497.26 359.55"></polyline><polyline class="cls-2" points="541.38 157.77 517.5 224.5 464.73 211.09 442.1 247.84"></polyline><rect class="cls-2" x="441.81" y="87.07" width="220.58" height="70.86" rx="27.14"></rect><path class="cls-1" d="M454.46,120.54V99.35h15.75v3.85H458.59V109h11v3.7h-11v7.85Z"></path><path class="cls-1" d="M492.3,99.35V111.5c0,6.28-4,9.49-9.49,9.49-5.27,0-9.75-3.09-9.75-9.49V99.35h4.11V111.5c0,3.82,2.25,5.86,5.67,5.86s5.36-2.22,5.36-5.86V99.35Z"></path><path class="cls-1" d="M500.48,99.32v17.52h11.27v3.7H496.34V99.32Z"></path><path class="cls-1" d="M518.8,99.32v17.52h11.28v3.7H514.67V99.32Z"></path><path class="cls-1" d="M464.79,141h-6.2v6.24h-4.13V126l10.33,0C475.51,126,475.54,141,464.79,141Zm-6.2-3.67h6.2a3.77,3.77,0,1,0,0-7.52h-6.2Z"></path><path class="cls-1" d="M495.09,147.21h-4.92l-6.39-7.09h-4v7.09h-4.14V126c3.48,0,7,0,10.44,0,5.17,0,7.89,3.36,7.89,7a6.34,6.34,0,0,1-5.54,6.67l6.64,7.25ZM479.8,129.72v6.79h6.3c2.63,0,3.76-1.7,3.76-3.4s-1.16-3.39-3.76-3.39Z"></path><path class="cls-1" d="M518.33,136.72c-.06,5.49-3.54,11-11.24,11s-11.28-5.37-11.28-10.95,3.69-11.19,11.28-11.19S518.39,131.17,518.33,136.72Zm-18.45.09c.09,3.49,2,7.22,7.21,7.22s7.11-3.76,7.17-7.25-2-7.58-7.17-7.58S499.79,133.23,499.88,136.81Z"></path><path class="cls-1" d="M525.76,129.63h-7V126h18.05v3.64h-7v17.58h-4.13Z"></path><path class="cls-1" d="M555.7,147.21H539.29V126H555.7v3.88H543.39v4.88h11.88v3.73H543.39v4.79H555.7Z"></path><path class="cls-1" d="M578.23,144.54a11.75,11.75,0,0,1-8.33,3.16c-8.15,0-11.6-5.43-11.63-10.95s3.7-11.19,11.63-11.19a11.54,11.54,0,0,1,8.05,3.25l-2.76,2.58a7.65,7.65,0,0,0-5.29-2c-5.3,0-7.59,3.82-7.55,7.37s2.13,7.19,7.55,7.19a8.19,8.19,0,0,0,5.51-2.16Z"></path><path class="cls-1" d="M585.9,129.63H579V126h18v3.64h-7v17.58H585.9Z"></path><path class="cls-1" d="M599.53,147.21V126h4.1v21.22Z"></path><path class="cls-1" d="M629.73,136.72c-.06,5.49-3.54,11-11.25,11s-11.28-5.37-11.28-10.95,3.7-11.19,11.28-11.19S629.79,131.17,629.73,136.72Zm-18.45.09c.09,3.49,2,7.22,7.2,7.22s7.11-3.76,7.18-7.25-2-7.58-7.18-7.58S611.18,133.23,611.28,136.81Z"></path><path class="cls-1" d="M647.18,126h4.13v21.25h-2.57v0L637.21,132.9v14.31h-4.13V126h3.35l10.75,13.16Z"></path><rect class="cls-2" x="514.79" y="471.18" width="220.58" height="70.86" rx="27.14"></rect><path class="cls-1" d="M266.42,542.61c.11,6.18-3.79,12.43-12.63,12.43h-9.92V530.6h9.92C262.45,530.6,266.31,536.57,266.42,542.61Zm-17.82,8h5.19c5.74,0,8-4.05,7.9-8-.11-3.8-2.41-7.61-7.9-7.61H248.6Z"></path><path class="cls-1" d="M294.74,543c-.07,6.32-4.08,12.64-12.95,12.64s-13-6.18-13-12.61,4.26-12.88,13-12.88S294.81,536.57,294.74,543Zm-21.25.1c.11,4,2.34,8.31,8.3,8.31S290,547,290.05,543s-2.31-8.73-8.26-8.73S273.38,538.94,273.49,543.06Z"></path><path class="cls-1" d="M320.24,537.34,312,548h-.94L303,537.3v17.77h-4.76V530.63h5.48l7.9,10.51,7.91-10.51H325v24.44h-4.76Z"></path><path class="cls-1" d="M347.41,550.43H334.2L332,555h-5.16l11.33-24.44h5.19L354.73,555h-5.2Zm-6.61-14.7-4.69,10.41h9.38Z"></path><path class="cls-1" d="M356.53,555V530.6h4.73V555Z"></path><path class="cls-1" d="M382.32,530.56h4.77V555h-3v0l-13.28-16.51V555h-4.76V530.6H370l12.37,15.15Z"></path><rect class="cls-2" x="230.92" y="513.74" width="169.11" height="58.22" rx="27.14"></rect><path class="cls-3" d="M570.91,491.14l-9.2,32.58h-4.47l-6.7-23.81a14.69,14.69,0,0,1-.53-3.32h-.09a17,17,0,0,1-.59,3.27l-6.75,23.86h-4.42l-9.55-32.58h4.21l6.93,25a17.31,17.31,0,0,1,.54,3.27h.11a19.32,19.32,0,0,1,.71-3.27l7.2-25H552l6.9,25.17a17.63,17.63,0,0,1,.55,3.05h.09a17.92,17.92,0,0,1,.61-3.14l6.66-25.08Z"></path><path class="cls-3" d="M591.67,513H575.25a8.63,8.63,0,0,0,2.09,6,7.19,7.19,0,0,0,5.49,2.12,11.49,11.49,0,0,0,7.23-2.59V522a13.55,13.55,0,0,1-8.11,2.22,9.81,9.81,0,0,1-7.75-3.17q-2.82-3.17-2.82-8.91a12.74,12.74,0,0,1,3.08-8.85,9.87,9.87,0,0,1,7.65-3.42,8.73,8.73,0,0,1,7.06,2.95c1.67,2,2.5,4.71,2.5,8.2Zm-3.82-3.16a7.57,7.57,0,0,0-1.55-5,5.28,5.28,0,0,0-4.26-1.79,6,6,0,0,0-4.48,1.88,8.62,8.62,0,0,0-2.27,4.93Z"></path><path class="cls-4" d="M607.64,492.55a5,5,0,0,0-2.48-.61c-2.6,0-3.91,1.64-3.91,4.93v3.59h5.46v3.18h-5.46v20.08h-3.7V503.64h-4v-3.18h4v-3.78a7.84,7.84,0,0,1,2.11-5.78,7.16,7.16,0,0,1,5.27-2.12,7.39,7.39,0,0,1,2.71.41Z"></path><path class="cls-4" d="M611.45,494.55a2.39,2.39,0,0,1-1.71-.68,2.31,2.31,0,0,1-.7-1.73,2.37,2.37,0,0,1,2.41-2.43,2.42,2.42,0,0,1,1.74.69,2.35,2.35,0,0,1,.71,1.74,2.29,2.29,0,0,1-.71,1.7A2.4,2.4,0,0,1,611.45,494.55Zm1.81,29.17h-3.72V500.46h3.72Z"></path><path class="cls-4" d="M630.43,523.49a7.18,7.18,0,0,1-3.47.73q-6.12,0-6.11-6.82V503.64h-4v-3.18h4v-5.68l3.72-1.21v6.89h5.86v3.18h-5.86v13.1a5.42,5.42,0,0,0,.8,3.34,3.16,3.16,0,0,0,2.63,1,3.94,3.94,0,0,0,2.43-.77Z"></path><path class="cls-5" d="M653.56,523.72h-3.73V510.31q0-7.26-5.41-7.26a5.92,5.92,0,0,0-4.59,2.1,7.83,7.83,0,0,0-1.86,5.39v13.18h-3.72V489.28H638v15h.09a8.46,8.46,0,0,1,7.64-4.41q7.86,0,7.86,9.47Z"></path><path class="cls-5" d="M692.75,522.88v-4a11,11,0,0,0,6.7,2.25q4.9,0,4.9-3.27a2.84,2.84,0,0,0-.42-1.58,4.11,4.11,0,0,0-1.13-1.15,9.43,9.43,0,0,0-1.68-.9L699,513.4a28.76,28.76,0,0,1-2.72-1.23,8.3,8.3,0,0,1-2-1.41,5.26,5.26,0,0,1-1.18-1.79,6.16,6.16,0,0,1-.4-2.34,5.53,5.53,0,0,1,.75-2.89,6.6,6.6,0,0,1,2-2.11,9.27,9.27,0,0,1,2.85-1.29,12.58,12.58,0,0,1,3.31-.43,13.27,13.27,0,0,1,5.4,1v3.77a10.53,10.53,0,0,0-5.9-1.68,6.89,6.89,0,0,0-1.89.23,4.79,4.79,0,0,0-1.44.67,3.16,3.16,0,0,0-.93,1,2.7,2.7,0,0,0-.33,1.33,3.19,3.19,0,0,0,.33,1.52,3.39,3.39,0,0,0,1,1.09,7.5,7.5,0,0,0,1.55.86c.6.26,1.29.54,2.06.84a29.87,29.87,0,0,1,2.78,1.22,9.32,9.32,0,0,1,2.09,1.41,5.69,5.69,0,0,1,1.33,1.8,5.82,5.82,0,0,1,.46,2.43,5.72,5.72,0,0,1-.76,3,6.59,6.59,0,0,1-2,2.11,9.33,9.33,0,0,1-2.93,1.25,14.18,14.18,0,0,1-3.48.41A13.21,13.21,0,0,1,692.75,522.88Z"></path><path class="cls-5" d="M723.52,523.49a7.21,7.21,0,0,1-3.47.73q-6.12,0-6.11-6.82V503.64h-4v-3.18h4v-5.68l3.72-1.21v6.89h5.86v3.18h-5.86v13.1a5.42,5.42,0,0,0,.8,3.34,3.16,3.16,0,0,0,2.63,1,3.94,3.94,0,0,0,2.43-.77Z"></path><path class="cls-6" d="M675.34,494.46h0a19,19,0,0,0-16.17,9.86h0a11.54,11.54,0,0,0,.28,11.55l2.22,3.64a11.55,11.55,0,0,0,10.14,5.54l4.26-.1a11.55,11.55,0,0,0,9.86-6l2.05-3.74a11.57,11.57,0,0,0-.28-11.55L685.48,500A11.58,11.58,0,0,0,675.34,494.46Z"></path><path class="cls-6" d="M681.64,514.3c-4.27,4.53-9.77,5-14.34,1.16-.25-.21,0-.41.26-.55,3.71,2.9,9.44,2.55,14.08-.61"></path><path class="cls-7" d="M681.64,514.3c-3.93,4.31-11.16,4.41-14.36.83-.22-.25-.17,0,.06-.08,3.72,3.27,9.67,2.8,14.3-.75"></path><line class="cls-8" x1="667.64" y1="513.27" x2="666.22" y2="516.37"></line><line class="cls-8" x1="680.97" y1="513.2" x2="682.31" y2="515.95"></line><path class="cls-4" d="M677.55,509.14l-.55,0-.08-3.22-1.3-1.32-.25-10.29a4.73,4.73,0,0,1,.53,0l.24,10,1.32,1.31Z"></path><polygon class="cls-4" points="672.91 494.39 673.16 505.07 671.9 506.45 671.97 509.43 671.97 509.64 671.45 509.66 671.44 509.39 671.37 506.22 672.61 504.82 672.36 494.48 672.91 494.39"></polygon><path class="cls-4" d="M674.7,506.86h-.55l-.3-12.56a1.54,1.54,0,0,1,.55,0Z"></path><path class="cls-4" d="M679.37,507.28l-1.68-1.71-.26-10.89a1.1,1.1,0,0,1,.52.12l.25,10.52,1.36,1.37.18.18Z"></path><path class="cls-4" d="M669.35,507.22l-.47-.26.43-.47,1.26-1.41-.24-10.1a3.63,3.63,0,0,1,.54-.15l.25,10.48-1.43,1.59Z"></path><path class="cls-4" d="M672.64,510.39a1,1,0,0,0-.67-1,.78.78,0,0,0-.33-.07.75.75,0,0,0-.2,0,1.07,1.07,0,0,0-.77,1.05,1,1,0,0,0,1,1A1,1,0,0,0,672.64,510.39Zm-1.52,0a.59.59,0,0,1,.53-.62.6.6,0,0,1,.57.6.58.58,0,0,1-.54.59A.57.57,0,0,1,671.12,510.43Z"></path><path class="cls-4" d="M675.44,507.69a1,1,0,0,0-.74-1,1.37,1.37,0,0,0-.28-.05,1.31,1.31,0,0,0-.27.06,1,1,0,1,0,1.29,1Zm-1.54,0a.6.6,0,0,1,.53-.62.63.63,0,0,1,.59.6.59.59,0,0,1-.56.59A.57.57,0,0,1,673.9,507.72Z"></path><path class="cls-4" d="M669.12,503.8h-.48l-.2-8.62a2.15,2.15,0,0,1,.47-.25Z"></path><path class="cls-4" d="M669.58,504.42a.71.71,0,0,0-.46-.68l0,0a1.5,1.5,0,0,0-.2,0c-.08,0-.13,0-.18,0l-.05,0a.74.74,0,0,0,.26,1.42A.7.7,0,0,0,669.58,504.42Zm-1.07,0a.4.4,0,0,1,.36-.43.43.43,0,0,1,0,.85A.4.4,0,0,1,668.51,504.44Z"></path><path class="cls-4" d="M679.43,494.17l.22,9.39h.46l-.21-8.95A6.29,6.29,0,0,0,679.43,494.17Z"></path><path class="cls-4" d="M680.59,504.16a.69.69,0,0,0-.49-.68.08.08,0,0,0-.05,0,.31.31,0,0,0-.17,0,.74.74,0,0,0-.18,0l0,0a.72.72,0,0,0-.46.7.7.7,0,0,0,.71.72A.71.71,0,0,0,680.59,504.16Zm-1.09,0a.4.4,0,1,1,.79,0,.4.4,0,1,1-.79,0Z"></path><path class="cls-4" d="M678.34,509.84a1,1,0,0,0-.8-1,1.79,1.79,0,0,1-.23,0,1.83,1.83,0,0,0-.32.07,1.05,1.05,0,0,0-.62,1,1,1,0,1,0,2,0Zm-1.55,0a.6.6,0,0,1,.53-.62.59.59,0,0,1,.59.6.57.57,0,0,1-.56.59A.59.59,0,0,1,676.79,509.87Z"></path><path class="cls-4" d="M682.22,508.08a1.57,1.57,0,0,0-1.59-1.57,1.34,1.34,0,0,0-.82.26,1.75,1.75,0,0,0-.53.68,1.49,1.49,0,0,0-.14.7,1.58,1.58,0,0,0,1.56,1.62A1.61,1.61,0,0,0,682.22,508.08Zm-2.41.06a.88.88,0,0,1,.83-.93.9.9,0,0,1,.92.88.92.92,0,0,1-.87,1A.91.91,0,0,1,679.81,508.14Z"></path><path class="cls-4" d="M669.94,508.37a1.57,1.57,0,0,0-1.59-1.57,1.4,1.4,0,0,0-.82.26,1.82,1.82,0,0,0-.53.68,1.51,1.51,0,0,0-.14.7,1.59,1.59,0,0,0,1.56,1.62A1.61,1.61,0,0,0,669.94,508.37Zm-2.41.06a.88.88,0,0,1,.83-.93.9.9,0,0,1,.92.89.91.91,0,0,1-.87,1A.9.9,0,0,1,667.53,508.43Z"></path></svg>