<svg xmlns="http://www.w3.org/2000/svg" xmlns:xlink="http://www.w3.org/1999/xlink" id="Layer_1" x="0px" y="0px" viewBox="0 0 224.3 176.8" style="enable-background:new 0 0 224.3 176.8;" xml:space="preserve"><style type="text/css">	.st0{fill:#3A66AF;stroke:#3A66AF;stroke-width:3;stroke-miterlimit:10;}	.st1{fill:#3A66AF;}	.st2{fill:none;stroke:#3A66AF;stroke-width:2;stroke-miterlimit:10;}	.st3{fill:none;stroke:#000000;stroke-width:2;stroke-miterlimit:10;}	.st4{fill:none;stroke:#000000;stroke-miterlimit:10;}	.st5{fill:none;stroke:#3A66AF;stroke-width:4;stroke-miterlimit:10;}	.st6{fill:none;stroke:#3A66AF;stroke-miterlimit:10;}	.st7{fill:#FFFFFF;stroke:#3A66AF;stroke-width:2;stroke-miterlimit:10;}	.st8{fill:none;stroke:#3A66AF;stroke-width:3;stroke-miterlimit:10;}	.st9{fill:#1F558C;stroke:#20568C;stroke-width:0.75;stroke-miterlimit:10;}	.st10{fill:#1F558C;}	.st11{fill:#231F20;}	.st12{fill:none;stroke:#20568C;stroke-width:0.75;stroke-miterlimit:10;}	.st13{fill:none;stroke:#20568C;stroke-miterlimit:10;}	.st14{fill:#FFFFFF;}</style><path class="st0" d="M115,38.7h1h1.2h1l37.1,0.1c1.2,0.9,0.2,1.5-0.2,2.2C122,41,89,41,55.9,41c-3.6,0-4.1,0.5-4.1,4.1 c0,4.2,0.2,8.4-0.1,12.5c-0.2,2.8,0.7,3.4,3.4,3.4c29.1-0.1,58.3,0,87.4,0c0.3,0.3,0.7,0.3,1,0c0,0,0,0,0,0l10.8,0 c0.7,0.4,1.8,0.7,1.3,1.7S154,63,153.2,63c-32.4,0-64.8,0-97.2,0c-1.2,0-2.3,0.1-3.5,0.2c-1.3,0.7-0.6,2-0.6,2.9 c0,24.2-0.1,48.3,0,72.5c0,4.3,0.4,4.8,4.9,4.8h115c0.6,0,1.3,0,1.9,0c1.4-0.1,2.4-0.6,2.7-2.2c0.6-4.5,0.2-9,0.3-13.6 c0.1-12.1,0-24.2,0-36.2c0-1.3-0.5-3.5,2.1-1.8c0,16.6,0,33.2,0,49.8c0,3.9-1,5.2-4.8,6.4c-0.6,0-1.3-0.1-1.9-0.1 c-39.4,0-78.8,0-118.1,0c-2.3-0.1-4.2-1.9-4.3-4.3c-0.1-4.5-0.1-9.1-0.1-13.6c0-6.6,0.1-13.2,0.1-19.8c0-21.6,0-43.1-0.1-64.7 l0.1-1.1c-0.1-0.9,0.6-1.4,1.2-2c0.7-1.2,2-1.3,3.2-1.5l0.6,0h5.4c0.9,0.2,1.9,0.2,2.8,0H67c2.5,0.1,5.1,0.1,7.6,0.1 c12.6,0,25.2-0.1,37.7-0.1h2.1L115,38.7z"></path><path class="st0" d="M155.4,38.4c0,0.1-0.1,0.2-0.1,0.4l-37.1-0.1c0.3-0.2,0.6-0.3,1-0.4C131.3,38.4,143.3,38.4,155.4,38.4z"></path><path class="st0" d="M117.2,38.7H116C116.4,38.2,116.8,38.2,117.2,38.7z"></path><path class="st0" d="M115,38.7h-0.6C114.6,38.3,114.8,38.3,115,38.7z"></path><path class="st0" d="M142.5,60.9c0.3-0.2,0.7-0.2,1,0C143.3,61.2,142.8,61.2,142.5,60.9C142.6,60.9,142.5,60.9,142.5,60.9z"></path><path class="st0" d="M112.9,118H66.6c-0.7,0-1.5,0-2.2,0c-0.6,0-1.1-0.4-1.1-1c-0.1-0.7,0.5-1.1,1.2-1.2c0.6,0,1.3,0,1.9,0h93.2h1.9 c0.8,0,1.2,0.4,1.2,1.1c0,0.7-0.5,1.1-1.3,1.1c-0.6,0-1.3,0-1.9,0L112.9,118z"></path><path class="st0" d="M112.8,128.3c15.6,0,31.3,0,46.9,0c0.7,0,1.5,0,2.2,0.1c0.5,0,0.8,0.4,0.9,0.9c0.1,0.6-0.3,1.1-0.8,1.2 c0,0,0,0,0,0c-0.7,0.1-1.4,0.1-2.2,0.1H66.7c-0.3,0-0.5,0-0.8,0c-1-0.1-2.6,0.5-2.6-1.1c0-1.6,1.6-1.1,2.6-1.1 C81.5,128.3,97.2,128.3,112.8,128.3z"></path><path class="st0" d="M95.4,78.2H66.5c-0.6,0-1.3,0-1.9,0c-0.7,0-1.3-0.3-1.3-1.1c0-0.7,0.5-1.1,1.2-1.1c0.5,0,1.1,0,1.6,0h58 c0.1,0,0.2,0,0.3,0c1,0.2,2.6-0.6,2.6,1c0.1,1.6-1.6,1.1-2.5,1.1c-6,0-12,0-18,0L95.4,78.2z"></path><path class="st0" d="M100.7,48.3c2.5,0.1,4.5,2.1,4.4,4.6c0,2.4-1.9,4.4-4.4,4.5c0,0-0.1,0-0.1,0c-2.5-0.1-4.4-2.2-4.3-4.7 C96.4,50.2,98.3,48.3,100.7,48.3z"></path><path class="st0" d="M87.7,52.8c0,2.5-2.1,4.6-4.5,4.5c-2.5,0-4.5-2-4.6-4.5c0-2.5,2-4.5,4.5-4.6C85.6,48.2,87.6,50.2,87.7,52.8 C87.7,52.7,87.7,52.7,87.7,52.8z"></path><path class="st0" d="M70.1,53.2c-0.2,2.3-2.6,4.3-4.9,4c-2.4-0.2-4.3-2.6-4-4.9c0.3-2.4,2.6-4.3,4.9-4 C68.5,48.7,70.3,50.8,70.1,53.2z"></path><path class="st1" d="M74,96.8c-0.5,0.5-1.2,0.7-1.9,0.7c-1.8,0-2.6-1.2-2.6-2.5c-0.1-1.4,1-2.5,2.3-2.6c0.1,0,0.2,0,0.2,0 c0.7,0,1.3,0.3,1.8,0.7l-0.6,0.6c-0.3-0.3-0.7-0.5-1.2-0.5c-0.9,0-1.6,0.6-1.7,1.5c0,0.1,0,0.1,0,0.2c-0.1,0.9,0.6,1.6,1.5,1.7 c0.1,0,0.1,0,0.2,0c0.5,0,0.9-0.2,1.2-0.5L74,96.8z"></path><path class="st1" d="M78.7,92.5v2.8c0,1.4-0.9,2.2-2.1,2.2c-1.1,0.1-2.1-0.8-2.2-1.9c0-0.1,0-0.2,0-0.3v-2.8h0.9v2.8 c0,0.9,0.5,1.3,1.3,1.3c0.8,0,1.2-0.5,1.2-1.3v-2.8H78.7z"></path><path class="st1" d="M82.6,93.7c-0.3-0.4-0.7-0.6-1.2-0.5c-0.7,0-1,0.3-1,0.6c0,0.4,0.5,0.5,1.1,0.6c1,0.1,2,0.4,2,1.6 c0,1.1-1,1.6-2,1.6c-1,0-1.8-0.3-2.1-1.2l0.8-0.4c0.3,0.5,0.8,0.8,1.4,0.8c0.6,0,1.1-0.2,1.1-0.7c0-0.5-0.5-0.6-1.1-0.7 c-1-0.1-1.9-0.4-1.9-1.5c0-1,1-1.4,1.9-1.4c0.8,0,1.5,0.2,1.9,1L82.6,93.7z"></path><path class="st1" d="M85.5,93.4h-1.5v-0.9h4v0.9h-1.5v4h-0.9V93.4z"></path><path class="st1" d="M93.3,95c0,1.3-0.8,2.5-2.5,2.5c-1.3,0.1-2.4-0.9-2.5-2.2c0-0.1,0-0.2,0-0.3c0-1.4,1.1-2.5,2.5-2.5 C92.2,92.5,93.3,93.6,93.3,95C93.3,95,93.3,95,93.3,95L93.3,95z M89.2,95c0,0.8,0.5,1.7,1.6,1.7s1.6-0.9,1.6-1.7 c0-0.8-0.4-1.7-1.6-1.7c-0.9,0-1.6,0.7-1.6,1.6C89.2,94.9,89.2,95,89.2,95z"></path><path class="st1" d="M98.2,93.9L96.6,96h-0.2l-1.6-2.1v3.5H94v-4.9H95l1.5,2.1l1.5-2.1h1v4.9h-0.9L98.2,93.9z"></path><path class="st1" d="M100,97.4v-4.9h0.9v4.9L100,97.4z"></path><path class="st1" d="M101.7,92.5h3.7V93l-2.5,3.6h2.5v0.9h-3.8v-0.5l2.5-3.5h-2.4L101.7,92.5z"></path><path class="st1" d="M109.6,97.4H106v-4.9h3.6v0.9h-2.7v1.1h2.6v0.9h-2.6v1.1h2.7V97.4z"></path><path class="st1" d="M114.6,94.9c0.1,1.3-0.9,2.4-2.1,2.5c-0.1,0-0.2,0-0.3,0h-1.9v-4.9h1.9c1.3-0.1,2.4,0.9,2.4,2.2 C114.6,94.8,114.6,94.9,114.6,94.9z M111.2,96.5h1c0.9,0,1.5-0.8,1.5-1.6c0-0.8-0.7-1.4-1.5-1.5h-1L111.2,96.5z"></path><path class="st1" d="M120.9,94.9c0.1,1.3-0.8,2.4-2.1,2.5c-0.1,0-0.2,0-0.3,0h-1.9v-4.9h1.9c1.3-0.1,2.4,0.9,2.4,2.2 C120.9,94.8,120.9,94.8,120.9,94.9z M117.5,96.5h1c0.9,0,1.5-0.8,1.5-1.6c0-0.8-0.7-1.4-1.5-1.5h-1L117.5,96.5z"></path><path class="st1" d="M126.4,95c0,1.3-0.8,2.5-2.5,2.5c-1.3,0.1-2.4-0.9-2.5-2.2c0-0.1,0-0.2,0-0.3c-0.1-1.4,1-2.5,2.4-2.6 c1.4-0.1,2.5,1,2.6,2.4C126.4,94.9,126.4,94.9,126.4,95L126.4,95z M122.3,95c0,0.8,0.5,1.7,1.6,1.7c1.1,0,1.6-0.9,1.6-1.7 c0-0.8-0.4-1.7-1.6-1.7c-0.9,0-1.6,0.7-1.6,1.6C122.3,94.9,122.3,94.9,122.3,95z"></path><path class="st1" d="M131.4,93.9l-1.6,2.1h-0.2l-1.6-2.1v3.5h-0.9v-4.9h1.1l1.5,2.1l1.5-2.1h1.1v4.9h-0.9V93.9z"></path><path class="st1" d="M136.6,96.5H134l-0.4,0.9h-1l2.2-4.9h1l2.2,4.9h-1L136.6,96.5z M135.3,93.6l-0.9,2.1h1.8L135.3,93.6z"></path><path class="st1" d="M138.3,97.4v-4.9h0.9v4.9L138.3,97.4z"></path><path class="st1" d="M143.3,92.5h0.9v4.9h-0.6l0,0l-2.6-3.3v3.3h-0.9v-4.9h0.7l2.4,3L143.3,92.5z"></path><path class="st2" d="M71.8,84.5h80.9c5.6,0,10.1,4.5,10.1,10.1v1.4c0,5.6-4.5,10.1-10.1,10.1H71.8c-5.6,0-10.1-4.5-10.1-10.1v-1.4 C61.7,89,66.2,84.5,71.8,84.5z"></path><circle class="st2" cx="151.8" cy="93.5" r="3.3"></circle><line class="st2" x1="153.6" y1="96.3" x2="156" y2="100.4"></line><rect x="153.7" y="38.3" class="st0" width="25" height="2.6"></rect><rect x="153.7" y="60.8" class="st0" width="25" height="2.1"></rect><rect x="176.5" y="38.4" class="st0" width="2.1" height="60.8"></rect></svg>