<svg xmlns="http://www.w3.org/2000/svg" xmlns:xlink="http://www.w3.org/1999/xlink" id="Layer_1" x="0px" y="0px" viewBox="0 0 279.9 184.9" style="enable-background:new 0 0 279.9 184.9;" xml:space="preserve"><style type="text/css">	.st0{fill:none;}	.st1{fill:#FFFFFF;stroke:#3A66AF;stroke-width:2;stroke-miterlimit:10;}	.st2{fill:#F9FBFC;}	.st3{fill:#3A66AF;}	.st4{fill:#FFFFFF;stroke:#3A66AF;stroke-miterlimit:10;}	.st5{fill:none;stroke:#FFFFFF;stroke-width:3;stroke-linecap:round;stroke-linejoin:round;stroke-miterlimit:10;}	.st6{fill:#757575;stroke:#1A2E35;stroke-linecap:round;stroke-linejoin:round;stroke-miterlimit:10;}	.st7{fill:#1A2E35;stroke:#1A2E35;stroke-linecap:round;stroke-linejoin:round;stroke-miterlimit:10;}	.st8{fill:#FFFFFF;stroke:#1A2E35;stroke-linecap:round;stroke-linejoin:round;stroke-miterlimit:10;}	.st9{fill:#919191;stroke:#1A2E35;stroke-linecap:round;stroke-linejoin:round;stroke-miterlimit:10;}	.st10{fill:none;stroke:#1A2E35;stroke-linecap:round;stroke-linejoin:round;stroke-miterlimit:10;}	.st11{fill:#1A2E35;}	.st12{fill:#666666;stroke:#1A2E35;stroke-linecap:round;stroke-linejoin:round;stroke-miterlimit:10;}	.st13{fill:#5AE4A7;stroke:#1A2E35;stroke-linecap:round;stroke-linejoin:round;stroke-miterlimit:10;}	.st14{fill:#BABABA;stroke:#1A2E35;stroke-linecap:round;stroke-linejoin:round;stroke-miterlimit:10;}	.st15{fill:#FFFFFF;}	.st16{fill:#FFFFFF;stroke:#3A66AF;stroke-width:1.5;stroke-miterlimit:10;}	.st17{fill:#FFFFFF;stroke:#3A66AF;stroke-width:0.75;stroke-miterlimit:10;}</style><rect y="0" class="st0" width="279.9" height="184.9"></rect><g>	<path class="st4" d="M155.1,82.4c2.5,0,4.9,0,7.2,0c1.8,0,2.2,0.5,2.3,2.3c0,7.4,0,14.7,0,22.1c0,0.7,0.2,1.2,0.9,1.5  c6.5,3.8,13,7.7,19.5,11.5c0.3,0.2,0.7,0.4,1,0.6c1,0.7,1.5,2,1.2,3.2c-0.3,1.2-1.2,1.8-2.6,1.9c-1.2,0.1-2.4,0.2-3.6,0.3  c-1.2,0.1-2.3,0.2-3.6,0.3c0.2,0.3,0.3,0.6,0.4,0.8c1.4,2,2.8,4,4.2,6.1c1.9,2.7,1.4,6-1.1,7.7c-2.5,1.7-5.7,1-7.5-1.6  c-1.5-2.2-3-4.3-4.6-6.5c0-0.1-0.1-0.1-0.3-0.2c-0.9,2-1.9,4.1-2.8,6.1c-0.7,1.6-1.7,2.3-2.9,2.1c-1.4-0.1-2.4-1.1-2.7-2.8  c-0.5-2.4-0.9-4.8-1.4-7.3c-0.5,0-0.8,0-1.2,0c-19.6,0-39.1,0-58.7,0c-2.2,0-2.5-0.4-2.5-2.5c0-14.4,0-28.7,0-43.1  c0-2.1,0.4-2.5,2.5-2.5c2.6,0,5.3,0,7.9,0c0.4,0,0.8,0,1.3,0c0-0.5,0-1,0-1.4c0-4.9,0-9.9,0-14.8c0-1.8,0.5-2.3,2.3-2.3  c14.2,0,28.4,0,42.6,0c0.6,0,1.4-0.2,1.9-0.5c6-3.7,13.6-3,18.7,1.8c0.6,0.6,1.1,1.2,0.7,2.1c-0.5,1.1-1.7,1.2-2.7,0.3  c-2.6-2.4-5.6-3.5-9.1-3.4c-2.4,0.1-4.6,0.9-6.6,2.3c-0.3,0.2-0.6,0.6-0.6,0.9C155.1,72.3,155.1,77.3,155.1,82.4z M151.8,67.2  c-13.6,0-27.1,0-40.7,0c0,0.5,0,0.9,0,1.2c0,7.6,0,15.2,0,22.8c0,0.8,0.2,1.2,0.8,1.7c5.9,4.4,11.8,8.8,17.7,13.2  c0.5,0.4,1,0.8,1.5,1.1c6.5-5.1,12.8-10.1,19.2-15.1c1.1-0.9,1.6-1.6,1.6-3.1c-0.1-6.9-0.1-13.8-0.1-20.6  C151.9,68.1,151.8,67.7,151.8,67.2z M101.3,127.1c19.1,0,37.9,0,56.8,0c-0.3-1.7-0.5-3.3-1.6-4.7c-3.9-5.3-7.6-10.7-11.4-16  c-0.9-1.2-1.8-2.5-2.7-3.7c-0.3,0.3-0.6,0.4-0.9,0.6c-3,2.3-5.9,4.7-8.9,7c-1.3,1-1.7,1-3.1,0c-3.2-2.4-6.5-4.9-9.7-7.3  c-0.3-0.2-0.6-0.4-1-0.7C113,110.6,107.2,118.8,101.3,127.1z M162.9,137.3c0.3-0.5,0.4-0.8,0.6-1.1c1.1-2.5,2.3-4.9,3.5-7.4  c0.6-1.3,1.8-1.4,2.7-0.2c0.3,0.4,0.5,0.8,0.8,1.2c1.8,2.6,3.6,5.1,5.4,7.6c1.2,1.7,3.4,1.6,4.2-0.2c0.5-1,0.2-1.8-0.4-2.6  c-2-2.9-4.1-5.8-6.1-8.7c-0.8-1.2-0.4-2.3,1.1-2.5c1.6-0.2,3.2-0.3,4.8-0.4c1.4-0.1,2.8-0.3,4.6-0.4c-9.1-5.4-17.8-10.5-26.8-15.9  C159.1,117,161,127,162.9,137.3z M99.5,87.7c0,12.1,0,24.1,0,36.3c5.7-8,11.2-15.8,16.8-23.7C110.7,96.1,105.1,92,99.5,87.7z   M161.3,87.8c-5.6,4.4-10.9,8.6-16.3,12.9c3.6,5.1,7.2,10.1,10.8,15.1c0.1-0.4,0.1-0.7,0.1-1.1c-0.5-2.5-0.9-5-1.4-7.5  c-0.2-1.2-0.1-2.3,1-3.1c1.1-0.8,2.2-0.6,3.3,0.1c0.8,0.5,1.6,1,2.6,1.5C161.3,99.7,161.3,93.9,161.3,87.8z M107.8,85.7  c-1.8,0-3.6,0-5.6,0c1.9,1.5,3.7,2.8,5.6,4.2C107.8,88.4,107.8,87.1,107.8,85.7z M155.2,85.7c0,0.9,0,1.8,0,2.7  c1.2-0.9,2.2-1.8,3.5-2.7C157.3,85.7,156.3,85.7,155.2,85.7z"></path>	<path class="st4" d="M163.8,38.9c9.1,0.2,17.7,3.6,24.9,10.4c0.2,0.2,0.5,0.4,0.7,0.7c0.5,0.7,0.5,1.4-0.1,2.1  c-0.6,0.6-1.4,0.7-2,0.1c-0.6-0.5-1.1-1-1.6-1.5c-13.3-11.9-33.8-11.5-46.6,0.9c-0.2,0.2-0.4,0.4-0.6,0.6c-0.7,0.5-1.4,0.5-2.1-0.1  c-0.6-0.6-0.6-1.4-0.1-2.1c0.5-0.6,1.1-1.1,1.6-1.6C145,42.2,153.7,38.9,163.8,38.9z"></path>	<path class="st4" d="M146.7,60c-0.8,0.7-1.6,0.7-2.2,0c-0.6-0.6-0.6-1.6,0.1-2.2c1.3-1.1,2.5-2.3,3.9-3.2c10-6.7,23.5-5.6,32.3,2.6  c0.2,0.1,0.3,0.3,0.5,0.5c0.8,0.8,0.9,1.6,0.2,2.3c-0.6,0.7-1.6,0.7-2.4-0.1C161.9,45.8,146.8,59.9,146.7,60z"></path>	<path class="st4" d="M161,73.4c0-1.2,0.9-2.2,2.2-2.2c1.2,0,2.2,0.9,2.2,2.2c0,1.2-1,2.2-2.2,2.2C162,75.6,161,74.7,161,73.4z"></path>	<path class="st4" d="M131.2,88.2c4.4,0,8.8,0,13.1,0c1.4,0,2.1,0.6,2.1,1.6c0,1-0.8,1.6-2,1.6c-8.9,0-17.7,0-26.6,0  c-1.3,0-2-0.6-2-1.7c0-1,0.7-1.6,2-1.6C122.3,88.2,126.7,88.2,131.2,88.2z"></path>	<path class="st4" d="M131,80.5c-4.5,0-8.9,0-13.4,0c-1.2,0-1.9-0.6-1.9-1.6c0-0.8,0.4-1.4,1.3-1.5c0.3-0.1,0.7-0.1,1.1-0.1  c8.6,0,17.2,0,25.8,0c0.3,0,0.5,0,0.8,0c1.1,0.1,1.8,0.7,1.8,1.7c0,0.9-0.7,1.6-1.8,1.6C140.1,80.5,135.5,80.5,131,80.5z"></path></g></svg>