<svg xmlns="http://www.w3.org/2000/svg" xmlns:xlink="http://www.w3.org/1999/xlink" id="Layer_1" x="0px" y="0px" viewBox="0 0 224.3 176.8" style="enable-background:new 0 0 224.3 176.8;" xml:space="preserve"><style type="text/css">	.st0{fill:#3A66AF;stroke:#3A66AF;stroke-width:3;stroke-miterlimit:10;}	.st1{fill:#3A66AF;}	.st2{fill:none;stroke:#3A66AF;stroke-width:2;stroke-miterlimit:10;}	.st3{fill:none;stroke:#000000;stroke-width:2;stroke-miterlimit:10;}	.st4{fill:none;stroke:#000000;stroke-miterlimit:10;}	.st5{fill:none;stroke:#3A66AF;stroke-width:4;stroke-miterlimit:10;}	.st6{fill:none;stroke:#3A66AF;stroke-miterlimit:10;}	.st7{fill:#FFFFFF;stroke:#3A66AF;stroke-width:2;stroke-miterlimit:10;}	.st8{fill:none;stroke:#3A66AF;stroke-width:3;stroke-miterlimit:10;}	.st9{fill:#1F558C;stroke:#20568C;stroke-width:0.75;stroke-miterlimit:10;}	.st10{fill:#1F558C;}	.st11{fill:#231F20;}	.st12{fill:none;stroke:#20568C;stroke-width:0.75;stroke-miterlimit:10;}	.st13{fill:none;stroke:#20568C;stroke-miterlimit:10;}	.st14{fill:#FFFFFF;}</style><g>	<path class="st1" d="M20.1,70.3c0-12.1,0-24.2,0-36.3c0-2.4,0.5-4.7,1.8-6.8c2.3-3.6,5.6-5.8,10.1-5.8c25.7-0.4,51.4-0.1,77.2-0.2  c6.9-0.1,12.5,5.4,12.7,12.2c0,0.1,0,0.2,0,0.3c0,8.9,0,17.7,0,26.6c0,1,0.3,1.9,0.8,2.7c2.5,3.7,5.5,7,9.6,9.2  c3.7,2,7.9,3,12.1,2.9c2.8,0,3.1,0.2,3.4,2.9c1.1,9.1-0.1,18.4-3.6,26.8c-4.2,10.2-11.3,18-20.8,23.8c-1.6,1-3.3,1.9-4.9,2.8  c-0.7,0.4-1.5,0.4-2.2,0c-4.5-2.2-8.7-5.1-12.5-8.4c-1-0.9-2-1.8-2.9-2.8c-0.6-0.7-1.5-1.1-2.4-1c-11,0-22.1,0-33.1,0  c-10,0-20,0-30,0c-1.9,0-3.9,0-5.8-0.5c-5.5-1.6-9.2-6.3-9.2-11.9C20.1,94.6,20.1,82.4,20.1,70.3L20.1,70.3z M23.2,74.8L23.2,74.8  c0,10.6,0,21.3,0,31.9c0,0.7,0,1.3,0.1,2c0.8,4.4,4.7,7.5,9.5,7.5c10.2,0,20.3,0,30.5,0c10.9,0,21.8,0,32.7,0  c0.3,0,0.6,0.1,0.8-0.1c0.2-0.3-0.2-0.5-0.3-0.7c-2.4-3.1-4.4-6.4-6-10c-0.5-1.1-0.5-1.1-1.5-0.4c-7.7,4.8-16,6.3-24.9,4.4  c-6.6-1.3-12.6-4.6-17.1-9.6c-6.6-7.1-9.4-15.4-8.3-24.8c0.9-8.2,4.6-15,11.1-20.4c7.2-6,15.7-8.6,25.1-7.5  c13.6,1.6,24.3,10.7,27.8,23.4c0.3,1,0.3,1,1.2,0.5c0.1-0.1,0.3-0.2,0.4-0.3c3.9-2.7,6.7-6.3,9.2-10.1c0.6-1,1.3-1.9,2-2.7  c0.6-0.7,1.5-1,2.4-0.7c1.1,0.4,1-0.2,1-0.8c0-4.6,0-9.2,0-13.7c0-1.7,0-1.7-1.8-1.7H31.3c-2.3,0-4.6-0.1-6.9-0.1  c-1.1,0-1.2,0.4-1.2,1.3C23.2,53.1,23.2,63.9,23.2,74.8z M71,38L71,38h42.6c1.4,0,2.8,0,4.2,0c0.7,0,1-0.3,1-0.9c0-1.3,0-2.6,0-3.9  c-0.1-4.8-4.3-8.9-9.3-8.9c-25.6,0-51.3,0-76.9,0c-4,0-7.5,2.5-8.9,6.2c-0.7,2-0.4,4.1-0.5,6.1c0,1.5,0,1.5,1.5,1.5L71,38z   M89.1,85.5c-0.1,1.6,0,3.1,0.2,4.7c0.8,6.6,3,13,6.4,18.7c5,8.3,11.9,14.6,20.5,19.2c0.5,0.4,1.2,0.4,1.8,0c2-1.1,4-2.3,5.9-3.6  c8.6-5.9,14.8-13.6,18.2-23.3c1.6-4.8,2.6-9.8,2.8-14.8c0.1-2.5,0-5-0.3-7.5c-0.1-0.6-0.3-0.9-1-0.9c-0.7,0-1.5-0.1-2.2-0.2  c-6.2-0.6-11.6-2.8-16.1-6.9c-2.9-2.7-5.1-5.9-7.1-9.1c-1-1.6-1.1-1.6-2.1,0c-2,3.1-4.2,6.1-6.9,8.6c-5.2,4.8-11.5,7.3-18.7,7.6  c-0.8,0-1.1,0.4-1.1,1.1C89.2,81.3,89.1,83.4,89.1,85.5L89.1,85.5z M79.8,78.6c-0.1-1.8,0-3.6-0.1-5.4c-0.1-0.7-0.3-1-1.1-1.1  c-1.7-0.2-3.3-0.1-5-0.2c-3.5-0.2-6.9,0-10.4,0.2c-0.4,0-0.8,0.3-0.9,0.7c0,0.1,0,0.1,0,0.2c-0.2,3.7-0.2,7.3,0,11  c0,0.7,0.4,0.9,1.1,1c5.1,0.3,10.2,0.3,15.2,0c0.7,0,1-0.2,1.1-0.9C79.9,82.2,79.7,80.4,79.8,78.6L79.8,78.6z M59.2,73.8  c0.2-1.2-0.3-1.3-0.9-1.2c-4,0.5-8.1,1.2-11.9,2.5c-1.5,0.5-3.1,1.2-4.3,2.3c-0.9,0.8-0.9,1.6,0,2.4c0.7,0.6,1.5,1.1,2.4,1.5  c4.5,1.9,9.3,2.7,14.1,3.3c0.5,0.1,0.7-0.2,0.6-0.7C59,80.5,59,77.2,59.2,73.8z M70.9,59.1c-1.9,0.1-3.7,0.3-5.6,0.4  c-0.6,0-1,0.4-1.1,1c-0.6,2.5-1.1,5-1.5,7.6c-0.1,1,0.2,1.1,1.1,1.1c1.5-0.1,3-0.2,4.5-0.2c3.3,0,6.6-0.1,9.8,0.2  c0.9,0.1,1.1-0.2,1-1.1c-0.4-2.6-0.9-5.1-1.5-7.6c-0.1-0.6-0.6-1-1.2-1L70.9,59.1z M71,97.9c1.9,0,3.7-0.1,5.6-0.4  c0.5-0.1,0.8-0.1,0.9-0.6c0.8-2.7,1.3-5.5,1.6-8.2c0.1-0.5-0.1-0.8-0.8-0.7c-5,0.4-10,0.4-15,0c-0.6,0-0.8,0.1-0.7,0.7  c0.3,2.7,0.8,5.4,1.6,8.1c0.1,0.5,0.6,0.9,1.1,0.9C67.3,97.8,69.2,97.9,71,97.9L71,97.9z M42.5,73.4c0.3,0.1,0.4,0,0.6-0.1  c2-0.9,4.1-1.6,6.3-2.1c3.1-0.7,6.2-1.3,9.4-1.6c0.6-0.1,0.9-0.3,0.9-0.8c0.3-2.5,0.7-5,1.3-7.5c0.2-0.8-0.2-0.9-0.9-0.7  c-5.5,1.5-10.5,3.8-14.4,7.9C44.3,69.9,43.2,71.5,42.5,73.4z M42.5,83.7c0.9,2.4,2.4,4.5,4.3,6.1c3.8,3.4,8.3,5.4,13.2,6.7  c1,0.3,1.1,0.1,0.8-0.8c-0.6-2.3-1-4.6-1.2-7c-0.1-0.9-0.5-1.2-1.3-1.2c-3.4-0.3-6.8-0.9-10.1-1.8C46.3,85.1,44.4,84.5,42.5,83.7z   M99.3,73.3C98.4,71,97,69,95.2,67.4c-3.8-3.5-8.5-5.6-13.5-6.9c-0.7-0.2-0.8,0-0.7,0.7c0.6,2.4,1,4.9,1.3,7.4  c0.1,0.7,0.4,1,1.1,1.1c3.2,0.3,6.3,0.9,9.4,1.6C95,71.7,97.2,72.4,99.3,73.3z M45.1,64.8c0.4-0.2,0.5-0.3,0.7-0.4  c4.2-3.4,9.1-5.7,14.3-6.8c1.6-0.4,2.4-1.1,2.8-2.5c0.5-1.6,1.4-3,2.2-4.4C59.3,50.3,48,58.3,45.1,64.8z M45,92.1  c2.2,6.1,13.8,14.3,20.1,14.4c-1.1-1.7-2-3.5-2.6-5.4c-0.2-0.7-0.8-1.2-1.5-1.3c-2.2-0.4-4.4-1.1-6.5-2C51,96.5,47.8,94.5,45,92.1z   M76.8,50.6c1.1,1.7,2,3.5,2.7,5.4c0.2,0.7,0.8,1.2,1.5,1.3c5.7,1.3,10.9,3.4,15.3,7.1c0.1,0.1,0.2,0.2,0.3,0  C94.4,58.7,83.1,50.7,76.8,50.6z M94,74.8c-0.1-0.1-0.1-0.2-0.2-0.2c-3.4-1-6.8-1.6-10.3-2c-0.6-0.1-0.8,0.2-0.8,0.8  c0.1,1,0.2,2,0.2,3c0.1,2.4,0,4.9-0.1,7.3c0,0.3-0.2,0.9,0.3,1c0.9,0.1,1.8,0,2.6-0.4c0.5-0.2,0.4-0.9,0.4-1.4  c0.1-2.1,0.4-4.1,0.8-6.1c0.1-0.9,0.9-1.5,1.7-1.4c0.5,0,1,0,1.4,0C91.4,75.2,92.7,75.1,94,74.8z M77.6,106.5l0.5-0.1  c3.4-0.8,6.6-2.2,9.5-4.1c1.3-0.8,1.3-0.8,0.8-2.3c-0.2-0.5-0.3-0.9-0.4-1.4c-0.1-0.6-0.4-0.7-1-0.5c-2,0.8-4.1,1.4-6.3,1.8  c-0.4,0.1-0.7,0.2-0.9,0.6c-0.6,1.9-1.5,3.7-2.5,5.4C76.9,106.3,77,106.5,77.6,106.5L77.6,106.5z M75.4,56.4c0.9,0,1-0.1,0.6-1.1  c-0.6-1.5-1.5-2.9-2.5-4.2c-1.5-1.7-3.1-1.7-4.8-0.1c-1.3,1.3-2,2.8-2.7,4.4c-0.4,1-0.4,1.1,0.8,1C69.6,56.2,72.5,56.2,75.4,56.4  L75.4,56.4z M66.3,100.7c-0.6,0-0.7,0-0.5,0.6c0.7,1.8,1.6,3.5,3.1,4.9c1.5,1.4,2.7,1.4,4.2,0s2.3-3.1,3-4.9  c0.2-0.5,0.1-0.7-0.5-0.6C72.5,101,69.4,101,66.3,100.7z M85.3,87.3c-0.8,0.1-1.5,0.2-2.3,0.3c-0.3,0-0.6,0.3-0.6,0.6  c-0.3,2.7-0.8,5.4-1.4,8c-0.1,0.5,0.1,0.6,0.5,0.5c1.6-0.4,3.3-1,4.8-1.6c0.4-0.1,0.6-0.5,0.5-0.9c0,0,0,0,0,0  c-0.4-2-0.6-4.1-0.7-6.1C86.1,87.5,85.8,87.3,85.3,87.3L85.3,87.3z"></path>	<path class="st1" d="M90.3,32.5H72.9c-1.5,0-2.4-0.5-2.4-1.5c0-0.9,0.8-1.5,2.4-1.5h34.6c0.4,0,0.8,0,1.2,0.1  c0.7,0.1,1.3,0.7,1.2,1.5c0,0.7-0.5,1.3-1.2,1.4c-0.4,0.1-0.8,0.1-1.2,0.1L90.3,32.5L90.3,32.5z"></path>	<path class="st1" d="M49.8,26.2c2.7,0,4.9,2.1,5.1,4.8c0.1,2.6-2.3,4.9-5,4.9s-5-2.2-5-4.7C44.9,28.4,47.1,26.2,49.8,26.2z   M49.7,32.9c1,0.1,1.9-0.6,2-1.6c0-0.1,0-0.1,0-0.2c0.1-1-0.7-1.9-1.7-2c-0.1,0-0.1,0-0.2,0c-1.1,0-2,0.8-2.1,1.8  C47.8,32,48.6,32.9,49.7,32.9C49.7,32.9,49.7,32.9,49.7,32.9z"></path>	<path class="st1" d="M67.7,31c0.1,2.7-2.1,5-4.8,5.1c-2.7,0.1-5-2.1-5.1-4.8c-0.1-2.7,2.1-5,4.8-5.1c0,0,0.1,0,0.1,0  C65.4,26.2,67.6,28.3,67.7,31C67.7,31,67.7,31,67.7,31z M62.7,32.9c1-0.1,1.8-1,1.7-2s-1-1.8-2-1.7c-1,0.1-1.8,0.9-1.7,1.9  C60.7,32.1,61.6,33,62.7,32.9C62.7,32.9,62.7,32.9,62.7,32.9z"></path>	<path class="st1" d="M42,31.1c-0.1,2.7-2.3,4.8-5,4.8c-2.7,0-4.8-2.2-4.8-4.9s2.2-4.8,4.9-4.8C39.8,26.2,41.9,28.4,42,31.1z   M37,32.9c1,0.1,1.9-0.7,2-1.8c0,0,0,0,0-0.1c0-1.1-0.9-2-2-2c-1.1,0-1.9,0.8-2,1.9C35,32.2,35.8,32.9,37,32.9z"></path>	<path class="st1" d="M143.1,84.5c-0.1,9.8-2.5,18.9-8.3,27.1c-4.3,6.2-10.1,10.9-16.7,14.5c-0.6,0.4-1.4,0.3-2-0.1  c-11.9-6.6-20-16.1-23.3-29.1c-1.2-4.7-1.7-9.6-1.6-14.4c0-0.3,0-0.7,0.1-1c0.2-1.1,0.6-1.5,1.7-1.6c4.7-0.4,9.2-1.9,13.2-4.4  c3.8-2.4,6.8-5.6,9.3-9.2c1.2-1.7,2.2-1.7,3.3,0c3.1,4.5,6.8,8.2,11.8,10.7c3.3,1.6,6.9,2.6,10.6,3c1.4,0.2,1.9,0.6,1.9,2  C143.1,82.6,143.1,83.5,143.1,84.5z M140,85.5c0-0.6,0-1.1,0-1.7c0.1-0.9-0.3-1.3-1.2-1.4c-1.8-0.2-3.7-0.7-5.4-1.3  C127,79.1,122,75.3,118,70.1c-0.8-1.1-0.8-1.1-1.7,0c-1.1,1.5-2.4,2.9-3.7,4.1c-4.8,4.5-10.8,7.3-17.3,8.2c-0.7,0.1-1,0.4-1,1.2  c0,2.1,0.2,4.3,0.4,6.4c0.6,5.4,2.2,10.7,4.8,15.5c3.9,7.4,9.8,12.9,17.1,17.2c0.4,0.3,0.9,0.3,1.3,0c4.7-2.7,9-6.2,12.5-10.4  C136.9,104.5,139.6,95.4,140,85.5z"></path>	<path class="st1" d="M105.1,102.4c0-2.1,0-4.2,0-6.3c0-2.3,0.9-3.6,3.2-4.2c0.7-0.2,0.6-0.6,0.6-1.1c0-2.4,0-4.9,0-7.3  c0-2.3,1.2-3.5,3.6-3.5c3.1,0,6.2,0,9.3,0c2.5,0,3.7,1.1,3.8,3.6c0,2.3,0,4.7,0,7c0,0.7,0.2,1.1,1,1.3c1.7,0.4,2.8,1.9,2.8,3.6  c0,4.5,0,9,0,13.4c0,1.9-1.4,3.5-3.3,3.8c-1.7,0.2-3.5,0.2-5.2,0.1c-3.8-0.2-7.5,0-11.3-0.1c-2.8,0-4.3-1.5-4.3-4.2  c0-1.1,0-2.1,0-3.2L105.1,102.4L105.1,102.4z M117.2,94.8c-2.5,0-5,0-7.4,0c-1.3,0-1.6,0.3-1.6,1.5c0,4,0,8.1,0,12.1  c0,1.3,0.3,1.5,1.6,1.5c5,0,9.9,0,14.9,0c1.2,0,1.5-0.2,1.5-1.4c0-4.1,0-8.2,0-12.3c0-1.2-0.2-1.4-1.5-1.4  C122.2,94.8,119.7,94.8,117.2,94.8L117.2,94.8z M117.2,91.9L117.2,91.9c1.4,0,2.8,0,4.2,0c0.8,0,1-0.3,1-1c0-2.3,0-4.5,0-6.8  c0-0.7-0.2-0.9-1-0.9c-2.8,0-5.7,0-8.5,0c-0.7,0-1,0.3-1,0.9c0,2.3,0,4.5,0,6.8c0,0.7,0.2,1,1,1C114.4,91.9,115.8,91.9,117.2,91.9  L117.2,91.9z"></path>	<path class="st1" d="M121.3,100.7c0,1.2-0.7,2.3-1.7,3c-0.6,0.3-0.9,1-0.8,1.6c0,0.6,0,1.1,0,1.7c-0.1,0.8-0.8,1.4-1.6,1.4  c-0.8,0-1.5-0.7-1.4-1.5c0,0,0,0,0,0c0-0.2,0-0.5,0-0.7c0.1-1.1-0.1-1.9-1.1-2.6c-1.5-1.1-1.9-3.2-1-4.8c1.1-2,3.6-2.8,5.6-1.7  C120.5,97.7,121.3,99.1,121.3,100.7L121.3,100.7z M118.2,100.4c0-0.5-0.4-0.9-0.9-0.9c-0.5-0.1-1,0.3-1.1,0.8  c-0.1,0.5,0.3,1,0.8,1.1c0.1,0,0.1,0,0.2,0C117.8,101.4,118.1,101,118.2,100.4z"></path>	<polyline class="st8" points="92.3,145.3 92.3,138.3 69.5,130.9 69.5,118.1  "></polyline>	<polyline class="st8" points="180.2,134.1 180.2,122.8 157.3,115.4 157.3,102.6 143.1,102.6  "></polyline>	<polyline class="st8" points="155.6,45.6 148.8,64.5 133.9,60.7 127.5,71.1  "></polyline>	<path class="st2" d="M137.5,25.7h42.3c5.5,0,10,4.5,10,10l0,0c0,5.5-4.5,10-10,10h-42.3c-5.5,0-10-4.5-10-10l0,0  C127.5,30.2,131.9,25.7,137.5,25.7z"></path>	<path class="st1" d="M134.3,35.2v-5.3h3.9v1h-2.9v1.4h2.7v0.9h-2.7v2L134.3,35.2z"></path>	<path class="st1" d="M143.7,29.9v3c0,1.6-1,2.4-2.4,2.4c-1.3,0-2.4-0.8-2.4-2.4v-3h1v3c-0.1,0.7,0.4,1.4,1.2,1.5c0.1,0,0.2,0,0.2,0  c0.8,0,1.3-0.6,1.3-1.5v-3H143.7z"></path>	<path class="st1" d="M145.8,29.9v4.4h2.8v0.9h-3.8v-5.3H145.8z"></path>	<path class="st1" d="M150.3,29.9v4.4h2.8v0.9h-3.8v-5.3H150.3z"></path>	<path class="st1" d="M136.9,40.3h-1.6v1.6h-1v-5.3h2.6c1-0.1,1.9,0.7,2,1.7c0.1,1-0.7,1.9-1.7,2C137.1,40.3,137,40.3,136.9,40.3z   M135.3,39.4h1.5c0.5,0,1-0.4,1-0.9c0-0.5-0.4-1-0.9-1c0,0-0.1,0-0.1,0h-1.6L135.3,39.4z"></path>	<path class="st1" d="M144.4,41.9h-1.2l-1.6-1.8h-1v1.8h-1v-5.3h2.6c1.3,0,2,0.8,2,1.8c0.1,0.8-0.5,1.6-1.4,1.7L144.4,41.9  L144.4,41.9z M140.6,37.5v1.7h1.6c0.5,0,0.8-0.4,0.8-0.8c0-0.5-0.4-0.8-0.8-0.8H140.6z"></path>	<path class="st1" d="M150.2,39.3c0.1,1.5-1.1,2.7-2.5,2.7c-0.1,0-0.2,0-0.3,0c-1.9,0-2.8-1.3-2.8-2.7c0.1-1.6,1.4-2.8,2.9-2.7  C149,36.6,150.2,37.8,150.2,39.3L150.2,39.3z M145.6,39.3c0,1,0.7,1.8,1.7,1.9s1.8-0.7,1.9-1.7c0-0.1,0-0.1,0-0.2  c0-1-0.7-1.8-1.7-1.9c-1,0-1.8,0.7-1.9,1.7C145.6,39.2,145.6,39.2,145.6,39.3z"></path>	<path class="st1" d="M152,37.5h-1.7v-0.9h4.5v0.9h-1.7v4.4h-1V37.5z"></path>	<path class="st1" d="M159.5,41.9h-4.1v-5.3h4.1v1h-3.1v1.2h3v0.9h-3v1.2h3.1L159.5,41.9z"></path>	<path class="st1" d="M165.2,41.2c-0.6,0.5-1.3,0.8-2.1,0.8c-2,0-2.9-1.4-2.9-2.7c0-1.4,0.9-2.8,2.9-2.8c0.8,0,1.5,0.3,2,0.8  l-0.7,0.6c-0.4-0.3-0.8-0.5-1.3-0.5c-1-0.1-1.8,0.7-1.9,1.6c0,0.1,0,0.1,0,0.2c0,1,0.7,1.8,1.6,1.8c0.1,0,0.2,0,0.2,0  c0.5,0,1-0.2,1.4-0.5L165.2,41.2z"></path>	<path class="st1" d="M167.1,37.5h-1.7v-0.9h4.5v0.9h-1.7v4.4h-1L167.1,37.5z"></path>	<path class="st1" d="M170.5,41.9v-5.3h1v5.3H170.5z"></path>	<path class="st1" d="M178,39.3c0.1,1.5-1.1,2.7-2.5,2.7c-0.1,0-0.2,0-0.3,0c-1.9,0-2.8-1.3-2.8-2.7c0.1-1.6,1.4-2.8,2.9-2.7  C176.8,36.6,178,37.8,178,39.3L178,39.3z M173.4,39.3c0,1,0.7,1.8,1.7,1.9c1,0,1.8-0.7,1.9-1.7c0-0.1,0-0.1,0-0.2  c0-1-0.7-1.8-1.7-1.9s-1.8,0.7-1.9,1.7C173.4,39.2,173.4,39.2,173.4,39.3z"></path>	<path class="st1" d="M182.4,36.6h1v5.3h-0.6l0,0l-2.9-3.6v3.6h-1v-5.3h0.8l2.7,3.3L182.4,36.6z"></path>	<path class="st2" d="M158.1,134.2h42.3c5.5,0,10,4.5,10,10l0,0c0,5.5-4.5,10-10,10h-42.3c-5.5,0-10-4.5-10-10l0,0  C148.1,138.6,152.6,134.2,158.1,134.2z"></path>	<path class="st1" d="M79.3,154.3c0,1.6-1,3.2-3.2,3.2h-2.5v-6.2h2.5C78.3,151.3,79.3,152.8,79.3,154.3z M74.8,156.4h1.3  c1.1,0.1,2-0.8,2.1-1.9c0.1-1.1-0.8-2-1.9-2.1c-0.1,0-0.1,0-0.2,0h-1.3L74.8,156.4z"></path>	<path class="st1" d="M86.5,154.4c0,1.6-1,3.2-3.3,3.2s-3.3-1.6-3.3-3.2c0-1.8,1.5-3.3,3.3-3.3S86.5,152.6,86.5,154.4L86.5,154.4z   M81.1,154.5c0,1,0.6,2.1,2.1,2.1c1.5,0,2.1-1.1,2.1-2.1s-0.6-2.2-2.1-2.2S81.1,153.4,81.1,154.5L81.1,154.5z"></path>	<path class="st1" d="M93,153l-2.1,2.7h-0.2l-2-2.7v4.5h-1.2v-6.2h1.4l2,2.7l2-2.7h1.4v6.2H93V153z"></path>	<path class="st1" d="M99.9,156.3h-3.3l-0.5,1.2h-1.3l2.9-6.2h1.3l2.9,6.2h-1.3L99.9,156.3z M98.2,152.6l-1.2,2.6h2.4L98.2,152.6z"></path>	<path class="st1" d="M102.2,157.5v-6.2h1.2v6.2H102.2z"></path>	<path class="st1" d="M108.7,151.3h1.2v6.2h-0.8l0,0l-3.4-4.2v4.2h-1.2v-6.2h1l3.1,3.8L108.7,151.3z"></path>	<path class="st2" d="M76.1,146.2h31.3c4.5,0,8.2,3.7,8.2,8.2v0c0,4.5-3.7,8.2-8.2,8.2H76.1c-4.5,0-8.2-3.7-8.2-8.2v0  C67.9,149.9,71.6,146.2,76.1,146.2z"></path>	<path class="st9" d="M164.6,140l-2.5,8.8H161l-1.8-6.4c-0.1-0.3-0.1-0.6-0.1-0.9h0c0,0.3-0.1,0.6-0.2,0.9l-1.8,6.4h-1.2l-2.6-8.8  h1.1l1.9,6.7c0.1,0.3,0.1,0.6,0.1,0.9h0c0-0.3,0.1-0.6,0.2-0.9l1.9-6.7h1l1.9,6.8c0.1,0.3,0.1,0.5,0.1,0.8h0c0-0.3,0.1-0.6,0.2-0.8  l1.8-6.8L164.6,140z"></path>	<path class="st9" d="M170.2,145.9h-4.4c0,0.6,0.2,1.2,0.6,1.6c0.4,0.4,0.9,0.6,1.5,0.6c0.7,0,1.4-0.2,1.9-0.7v0.9  c-0.6,0.4-1.4,0.6-2.2,0.6c-0.8,0-1.6-0.3-2.1-0.8c-0.5-0.7-0.8-1.5-0.8-2.4c0-0.9,0.3-1.7,0.8-2.4c0.5-0.6,1.3-0.9,2.1-0.9  c0.7,0,1.4,0.3,1.9,0.8c0.5,0.6,0.7,1.4,0.7,2.2L170.2,145.9z M169.2,145.1c0-0.5-0.1-1-0.4-1.4c-0.3-0.3-0.7-0.5-1.1-0.5  c-0.5,0-0.9,0.2-1.2,0.5c-0.3,0.4-0.6,0.8-0.6,1.3H169.2z"></path>	<path class="st10" d="M174.5,140.4c-0.2-0.1-0.4-0.2-0.7-0.2c-0.7,0-1.1,0.4-1.1,1.3v0.9h1.5v0.8h-1.5v5.4h-1v-5.4h-1.1v-0.8h1.1  v-1c0-0.6,0.2-1.1,0.6-1.6c0.6-0.5,1.4-0.7,2.1-0.5L174.5,140.4z"></path>	<path class="st10" d="M175.6,141c-0.2,0-0.3-0.1-0.5-0.2c-0.1-0.1-0.2-0.3-0.2-0.5c0-0.4,0.3-0.6,0.6-0.7c0,0,0,0,0,0  c0.2,0,0.3,0.1,0.5,0.2c0.1,0.1,0.2,0.3,0.2,0.5c0,0.2-0.1,0.3-0.2,0.5C175.9,140.9,175.7,141,175.6,141z M176,148.8h-1v-6.3h1  V148.8z"></path>	<path class="st10" d="M180.7,148.8c-0.3,0.1-0.6,0.2-0.9,0.2c-1.1,0-1.6-0.6-1.6-1.8v-3.7H177v-0.8h1.1V141l1-0.3v1.9h1.6v0.8h-1.6  v3.5c0,0.3,0,0.6,0.2,0.9c0.2,0.2,0.4,0.3,0.7,0.3c0.2,0,0.5-0.1,0.7-0.2V148.8z"></path>	<path class="st11" d="M186.9,148.8h-1v-3.6c0-1.3-0.5-2-1.5-2c-0.5,0-0.9,0.2-1.2,0.6c-0.3,0.4-0.5,0.9-0.5,1.5v3.5h-1v-9.3h1v4.1  h0c0.4-0.8,1.2-1.2,2.1-1.2c1.4,0,2.1,0.9,2.1,2.6L186.9,148.8z"></path>	<path class="st11" d="M197.5,148.6v-1.1c0.5,0.4,1.2,0.6,1.8,0.6c0.9,0,1.3-0.3,1.3-0.9c0-0.1,0-0.3-0.1-0.4  c-0.1-0.1-0.2-0.2-0.3-0.3c-0.1-0.1-0.3-0.2-0.5-0.2l-0.6-0.2c-0.2-0.1-0.5-0.2-0.7-0.3c-0.2-0.1-0.4-0.2-0.5-0.4  c-0.1-0.1-0.2-0.3-0.3-0.5c-0.1-0.2-0.1-0.4-0.1-0.6c0-0.3,0.1-0.5,0.2-0.8c0.1-0.2,0.3-0.4,0.5-0.6c0.2-0.2,0.5-0.3,0.8-0.3  c0.3-0.1,0.6-0.1,0.9-0.1c0.5,0,1,0.1,1.5,0.3v1c-0.5-0.3-1-0.5-1.6-0.5c-0.2,0-0.3,0-0.5,0.1c-0.1,0-0.3,0.1-0.4,0.2  c-0.1,0.1-0.2,0.2-0.2,0.3c-0.1,0.1-0.1,0.2-0.1,0.4c0,0.1,0,0.3,0.1,0.4c0.1,0.1,0.2,0.2,0.3,0.3c0.1,0.1,0.3,0.2,0.4,0.2  c0.2,0.1,0.4,0.1,0.6,0.2c0.3,0.1,0.5,0.2,0.7,0.3c0.2,0.1,0.4,0.2,0.6,0.4c0.2,0.1,0.3,0.3,0.4,0.5c0.1,0.2,0.1,0.4,0.1,0.7  c0,0.3-0.1,0.6-0.2,0.8c-0.1,0.2-0.3,0.4-0.5,0.6c-0.2,0.2-0.5,0.3-0.8,0.3c-0.3,0.1-0.6,0.1-0.9,0.1  C198.6,149,198,148.9,197.5,148.6z"></path>	<path class="st11" d="M205.7,148.8c-0.3,0.1-0.6,0.2-0.9,0.2c-1.1,0-1.6-0.6-1.6-1.8v-3.7h-1.1v-0.8h1.1V141l1-0.3v1.9h1.6v0.8  h-1.6v3.5c0,0.3,0,0.6,0.2,0.9c0.2,0.2,0.4,0.3,0.7,0.3c0.2,0,0.5-0.1,0.7-0.2V148.8z"></path>	<path class="st12" d="M192.8,140.9L192.8,140.9c-1.8,0-3.5,1.1-4.4,2.7l0,0c-0.5,1-0.5,2.2,0.1,3.1l0.6,1c0.6,0.9,1.6,1.5,2.7,1.5  l1.1,0c1.1,0,2.1-0.6,2.7-1.6l0.5-1c0.5-1,0.5-2.2-0.1-3.1l-0.6-1C194.9,141.5,193.9,140.9,192.8,140.9z"></path>	<path class="st13" d="M194.5,146.3c-1.1,1.2-2.6,1.3-3.9,0.3c-0.1-0.1,0-0.1,0.1-0.1C191.7,147.2,193.2,147.1,194.5,146.3"></path>	<path class="st14" d="M194.5,146.3c-1.1,1.2-3,1.2-3.9,0.2c-0.1-0.1,0,0,0,0C191.6,147.4,193.2,147.2,194.5,146.3"></path>	<line class="st12" x1="190.7" y1="146" x2="190.3" y2="146.8"></line>	<line class="st12" x1="194.3" y1="146" x2="194.6" y2="146.7"></line>	<path class="st10" d="M193.4,144.9h-0.1l0-0.9l-0.4-0.4l-0.1-2.8c0,0,0.1,0,0.1,0l0.1,2.7l0.4,0.4L193.4,144.9z"></path>	<polygon class="st10" points="192.1,140.9 192.2,143.8 191.8,144.2 191.9,145 191.9,145 191.7,145 191.7,145 191.7,144.1   192,143.7 192,140.9  "></polygon>	<path class="st10" d="M192.6,144.3h-0.1l-0.1-3.4c0,0,0.1,0,0.1,0h0.1L192.6,144.3z"></path>	<path class="st10" d="M193.9,144.4l-0.5-0.5l-0.1-3c0,0,0.1,0,0.1,0l0.1,2.8l0.4,0.4l0,0.1L193.9,144.4z"></path>	<path class="st10" d="M191.2,144.4l-0.1-0.1l0.1-0.1l0.3-0.4l-0.1-2.7c0,0,0.1,0,0.1,0l0.1,2.8L191.2,144.4L191.2,144.4z"></path>	<path class="st10" d="M192,145.2c0-0.1-0.1-0.2-0.2-0.3c0,0-0.1,0-0.1,0c0,0,0,0-0.1,0c-0.1,0-0.2,0.2-0.2,0.3  c0,0.1,0.1,0.3,0.3,0.3c0,0,0,0,0,0C191.9,145.5,192,145.4,192,145.2C192,145.2,192,145.2,192,145.2z M191.6,145.2  c0-0.1,0.1-0.2,0.1-0.2c0.1,0,0.2,0.1,0.2,0.2c0,0.1-0.1,0.2-0.1,0.2c0,0,0,0,0,0C191.7,145.4,191.6,145.3,191.6,145.2L191.6,145.2  z"></path>	<path class="st10" d="M192.8,144.5c0-0.1-0.1-0.2-0.2-0.3c0,0,0,0-0.1,0c0,0-0.1,0-0.1,0c-0.1,0-0.2,0.2-0.2,0.3  c0,0.1,0.1,0.3,0.2,0.3C192.6,144.8,192.8,144.7,192.8,144.5C192.8,144.6,192.8,144.5,192.8,144.5L192.8,144.5z M192.4,144.5  c0-0.1,0.1-0.2,0.2-0.2s0.2,0.1,0.2,0.2l0,0c0,0.1-0.1,0.2-0.2,0.2C192.4,144.7,192.4,144.6,192.4,144.5L192.4,144.5z"></path>	<path class="st10" d="M191.1,143.4H191l-0.1-2.3c0,0,0.1-0.1,0.1-0.1L191.1,143.4z"></path>	<path class="st10" d="M191.2,143.6c0-0.1,0-0.2-0.1-0.2l0,0H191h0l0,0c-0.1,0-0.1,0.1-0.1,0.2c0,0.1,0.1,0.2,0.2,0.2c0,0,0,0,0,0  C191.2,143.8,191.2,143.7,191.2,143.6z M190.9,143.6c0-0.1,0-0.1,0.1-0.1c0.1,0,0.1,0,0.1,0.1c0,0.1,0,0.1-0.1,0.1c0,0,0,0,0,0  C191,143.7,190.9,143.7,190.9,143.6L190.9,143.6z"></path>	<path class="st10" d="M193.9,140.9l0.1,2.5h0.1L194,141C194,140.9,193.9,140.9,193.9,140.9z"></path>	<path class="st10" d="M194.2,143.5c0-0.1-0.1-0.2-0.1-0.2l0,0c0,0-0.1,0-0.1,0l0,0c-0.1,0-0.1,0.1-0.1,0.2c0,0.1,0.1,0.2,0.2,0.2  c0,0,0,0,0,0C194.1,143.7,194.2,143.6,194.2,143.5z M193.9,143.5c0-0.1,0-0.1,0.1-0.1c0.1,0,0.1,0.1,0.1,0.1c0,0.1,0,0.1-0.1,0.1  c0,0,0,0,0,0C193.9,143.7,193.9,143.6,193.9,143.5C193.9,143.6,193.9,143.6,193.9,143.5L193.9,143.5z"></path>	<path class="st10" d="M193.6,145.1c0-0.1-0.1-0.2-0.2-0.3h-0.1c0,0-0.1,0-0.1,0c-0.1,0-0.2,0.2-0.2,0.3c0,0.1,0.1,0.3,0.3,0.3  C193.5,145.3,193.6,145.2,193.6,145.1L193.6,145.1z M193.2,145.1c0-0.1,0.1-0.1,0.2-0.1c0.1,0,0.1,0.1,0.1,0.2  c0,0.1-0.1,0.1-0.2,0.1C193.2,145.2,193.2,145.2,193.2,145.1L193.2,145.1z"></path>	<path class="st10" d="M194.6,144.6c0-0.2-0.2-0.4-0.4-0.4c-0.1,0-0.2,0-0.2,0.1c-0.1,0-0.1,0.1-0.1,0.2c0,0.1,0,0.1,0,0.2  c0,0.2,0.2,0.4,0.4,0.4C194.5,145,194.6,144.8,194.6,144.6C194.6,144.6,194.6,144.6,194.6,144.6z M194,144.6c0-0.1,0.1-0.2,0.2-0.3  c0.1,0,0.2,0.1,0.3,0.2c0,0,0,0,0,0.1c0,0.1-0.1,0.2-0.2,0.3S194,144.8,194,144.6C194,144.6,194,144.6,194,144.6z"></path>	<path class="st10" d="M191.3,144.7c0-0.2-0.2-0.4-0.4-0.4c-0.1,0-0.2,0-0.2,0.1c-0.1,0-0.1,0.1-0.1,0.2c0,0.1,0,0.1,0,0.2  c0,0.2,0.2,0.4,0.4,0.4C191.1,145.1,191.3,144.9,191.3,144.7C191.3,144.7,191.3,144.7,191.3,144.7z M190.7,144.7  c0-0.1,0.1-0.2,0.2-0.2c0,0,0,0,0,0c0.1,0,0.2,0.1,0.2,0.2c0,0.1-0.1,0.2-0.2,0.2C190.8,144.9,190.7,144.8,190.7,144.7L190.7,144.7  z"></path></g></svg>