<svg xmlns="http://www.w3.org/2000/svg" id="Layer_1" data-name="Layer 1" viewBox="0 0 279.9 184.9"><defs><style>.cls-1{fill:none;}.cls-2,.cls-3,.cls-4{fill:#fff;stroke:#3a66af;stroke-miterlimit:10;}.cls-2{stroke-width:1.5px;}.cls-3{stroke-width:2px;}.cls-5{fill:#3a66af;}</style></defs><title>Domain Name_Payment-01</title><rect class="cls-1" width="279.9" height="184.9"></rect><path class="cls-2" d="M142.05,126.67l5.22-7.07-3.19-.36a19.19,19.19,0,0,0-30.8-13.43,1.23,1.23,0,0,0-.23,1.72,1.37,1.37,0,0,0,.17.17,1.22,1.22,0,0,0,1.55,0,16.79,16.79,0,0,1,21.23.68A16.54,16.54,0,0,1,141.59,119l-3.06-.35Z"></path><path class="cls-2" d="M84.2,136.66,79,143.73l3.19.36A19.19,19.19,0,0,0,113,157.52a1.23,1.23,0,0,0,.22-1.72,1.29,1.29,0,0,0-.16-.17,1.23,1.23,0,0,0-1.56,0,16.76,16.76,0,0,1-21.22-.68,16.59,16.59,0,0,1-5.6-10.53l3.06.35Z"></path><path class="cls-2" d="M78.83,106.78a20.79,20.79,0,1,1-2.93,5.71"></path><circle class="cls-2" cx="95.74" cy="119.05" r="17.22" transform="translate(-56.14 102.57) rotate(-45)"></circle><path class="cls-2" d="M95.89,133.79v-2.94a6,6,0,0,1-4.58-2c-1-1.21-1.57-3.09-1.64-5.62l4.53-.68a11.35,11.35,0,0,0,.27,2.49,2.67,2.67,0,0,0,.69,1.37,1.64,1.64,0,0,0,1.11.41,1.07,1.07,0,0,0,1.09-.56,3,3,0,0,0,.25-1.19,4.28,4.28,0,0,0-.7-2.5A10.53,10.53,0,0,0,95,120.54l-2.1-1.81a17.84,17.84,0,0,1-1.62-1.64,7.23,7.23,0,0,1-1.17-2,7,7,0,0,1-.44-2.65,5.93,5.93,0,0,1,1.61-4.42,6.64,6.64,0,0,1,4.34-1.8v-2.82h1.51v2.78a5.43,5.43,0,0,1,2.76.79,4.65,4.65,0,0,1,1.56,1.72,7.72,7.72,0,0,1,.71,2.16,17.17,17.17,0,0,1,.22,2.12l-4.59.56a18.22,18.22,0,0,0-.14-1.86,2.73,2.73,0,0,0-.41-1.23,1.08,1.08,0,0,0-1-.4,1.17,1.17,0,0,0-1.09.62,2.45,2.45,0,0,0-.36,1.24,3.45,3.45,0,0,0,.73,2.3,16.35,16.35,0,0,0,1.58,1.65l2,1.74a18.93,18.93,0,0,1,1.85,2,8.87,8.87,0,0,1,1.35,2.31,7.88,7.88,0,0,1,.5,2.94,6.27,6.27,0,0,1-.65,2.87,5.39,5.39,0,0,1-1.87,2.12,6.33,6.33,0,0,1-2.9,1v3Z"></path><circle class="cls-2" cx="130.13" cy="144.5" r="20.89" transform="translate(-40.18 238.36) rotate(-76.86)"></circle><path class="cls-2" d="M146,151.15a17.23,17.23,0,1,1,1.33-6.65"></path><path class="cls-2" d="M130.28,159.23V156.3a6.06,6.06,0,0,1-4.58-2q-1.53-1.83-1.65-5.62l4.54-.68a11.35,11.35,0,0,0,.27,2.49,2.63,2.63,0,0,0,.69,1.36,1.6,1.6,0,0,0,1.11.42,1,1,0,0,0,1.08-.56,2.86,2.86,0,0,0,.26-1.19,4.36,4.36,0,0,0-.7-2.5,10.26,10.26,0,0,0-1.91-2.06l-2.11-1.81a16.62,16.62,0,0,1-1.61-1.65,6.71,6.71,0,0,1-1.62-4.6,5.94,5.94,0,0,1,1.62-4.42A6.65,6.65,0,0,1,130,131.7v-2.81h1.51v2.78a5.34,5.34,0,0,1,2.76.79,4.46,4.46,0,0,1,1.55,1.72,7.43,7.43,0,0,1,.72,2.16,17.17,17.17,0,0,1,.22,2.12l-4.6.56a18.48,18.48,0,0,0-.13-1.86,2.73,2.73,0,0,0-.41-1.23,1.08,1.08,0,0,0-1-.4,1.15,1.15,0,0,0-1.09.62,2.45,2.45,0,0,0-.36,1.24,3.45,3.45,0,0,0,.73,2.3,15.27,15.27,0,0,0,1.58,1.64l2,1.75a18.93,18.93,0,0,1,1.85,2,8.87,8.87,0,0,1,1.35,2.31,8.07,8.07,0,0,1,.5,2.93,6.41,6.41,0,0,1-.65,2.88,5.46,5.46,0,0,1-1.87,2.12,6.37,6.37,0,0,1-2.9,1v3Z"></path><path class="cls-3" d="M195.51,122.09,210.9,94.92,205,90.35c-5.94-4.57-11.49-12-20.52-21.49S173.2,53.74,168.3,51.51s-28-3.34-30.22-3.49-5,3.67-5,3.67-2.32,20.23-2.44,20.56-.8,5.42-.09,7.27A32.64,32.64,0,0,0,134,84.94a15,15,0,0,0,0,3.1c.21,1.19,2.12,3.47,2.12,3.47s.39,5.22,3,6.26,12.82-.54,12.82-.54a111.51,111.51,0,0,0,13.28,13.23c6.66,5.33,12.38,6.7,18.09,9.46a44.07,44.07,0,0,1,7.42,4.63Z"></path><path class="cls-3" d="M138.05,85.42c3.24.44,8.42,1,11.83.32"></path><path class="cls-3" d="M135.05,85s.47.09,1.25.21"></path><path class="cls-3" d="M138,92.32l8.53.42c6.08.29,7.25-.91,7.37-1.61"></path><path class="cls-3" d="M149.14,62.6a16,16,0,0,0-.15,2.79"></path><path class="cls-3" d="M153.54,52.61a22,22,0,0,0-4,7.91"></path><path class="cls-3" d="M161.66,54.86s-6.07,7.39-5.78,11.46"></path><path class="cls-3" d="M154.49,92.32s-.55,4-2.6,4.91"></path><path class="cls-3" d="M140.3,52.73a12.47,12.47,0,0,1,.42,4.64"></path><path class="cls-3" d="M139.58,50.77a10.44,10.44,0,0,1,.47,1.17"></path><rect class="cls-4" x="84.15" y="36.17" width="57.26" height="37.3" rx="4.91" transform="translate(75.64 -64.96) rotate(46.85)"></rect><rect class="cls-5" x="96.07" y="34.44" width="8.04" height="8.16" rx="2.73" transform="translate(59.74 -60.85) rotate(46.85)"></rect><line class="cls-5" x1="96.34" y1="40.31" x2="102.12" y2="34.9"></line><polyline class="cls-5" points="98.05 42.13 102.54 37.92 104.44 39.95"></polyline><line class="cls-5" x1="98.8" y1="34.33" x2="100.58" y2="36.23"></line><line class="cls-5" x1="97.54" y1="35.52" x2="99.32" y2="37.42"></line><line class="cls-5" x1="96.23" y1="36.74" x2="98.01" y2="38.64"></line><line class="cls-5" x1="101.25" y1="39.4" x2="103.03" y2="41.3"></line><line class="cls-5" x1="99.9" y1="40.66" x2="101.54" y2="42.4"></line><path class="cls-5" d="M89.61,43.32a2.61,2.61,0,0,1,1.18-.72,1,1,0,0,1,.92.33.93.93,0,0,1,.27.93,2.57,2.57,0,0,1-.8,1.14,2.61,2.61,0,0,1-1.18.72,1.06,1.06,0,0,1-1.18-1.26A2.53,2.53,0,0,1,89.61,43.32Zm1.68,0a.38.38,0,0,0-.45,0,3,3,0,0,0-.76.56l-.25.25,1.48-.29h0A.38.38,0,0,0,91.29,43.32Zm-1.81,1.22a.4.4,0,0,0,0,.46.39.39,0,0,0,.46,0,2.86,2.86,0,0,0,.75-.55,4.16,4.16,0,0,0,.3-.31l-1.5.29Z"></path><path class="cls-5" d="M90.85,46.3l.53.56L93,45.32l-.62-.4.45-.43.62.41.45.49-2.09,2,.52.56-.44.42-1.51-1.61Z"></path><path class="cls-5" d="M93.54,47.52a2.47,2.47,0,0,1,1.19-.72,1,1,0,0,1,1.18,1.26,2.59,2.59,0,0,1-.8,1.14,2.49,2.49,0,0,1-1.18.71,1,1,0,0,1-.92-.32,1,1,0,0,1-.26-.94A2.57,2.57,0,0,1,93.54,47.52Zm1.68,0a.37.37,0,0,0-.45-.06A3.14,3.14,0,0,0,94,48l-.25.26L95.24,48v0A.37.37,0,0,0,95.22,47.52Zm-1.81,1.22a.36.36,0,0,0,.48.51,3,3,0,0,0,.75-.56c.12-.11.22-.21.31-.31l-1.51.29Z"></path><path class="cls-5" d="M94.79,50.5l.52.56L97,49.51l-.62-.4.45-.42.62.41.46.48-2.1,2,.53.56-.45.41-1.51-1.61Z"></path><path class="cls-5" d="M97.47,51.71A2.64,2.64,0,0,1,98.66,51a1,1,0,0,1,.92.32,1,1,0,0,1,.26.94,2.53,2.53,0,0,1-.79,1.14,2.64,2.64,0,0,1-1.19.72,1,1,0,0,1-.92-.33,1,1,0,0,1-.26-.93A2.53,2.53,0,0,1,97.47,51.71Zm1.68,0a.38.38,0,0,0-.45-.05,2.72,2.72,0,0,0-.75.56,3.18,3.18,0,0,0-.26.25l1.48-.29h0A.38.38,0,0,0,99.15,51.71Zm-1.81,1.22a.36.36,0,0,0,.48.51,2.72,2.72,0,0,0,.75-.56l.31-.3-1.5.29Z"></path><path class="cls-5" d="M98.72,54.69l.52.56,1.65-1.54-.62-.4.46-.43.61.41.46.49-2.1,2,.53.56-.44.42-1.51-1.61Z"></path><path class="cls-5" d="M101.4,55.9a2.52,2.52,0,0,1,1.19-.71,1,1,0,0,1,.92.32,1,1,0,0,1,.26.94,2.57,2.57,0,0,1-.79,1.13,2.47,2.47,0,0,1-1.19.72,1,1,0,0,1-.92-.32,1,1,0,0,1-.26-.94A2.67,2.67,0,0,1,101.4,55.9Zm1.68,0a.36.36,0,0,0-.45-.06,3,3,0,0,0-.75.56l-.26.25,1.48-.29h0A.37.37,0,0,0,103.08,55.91Zm-1.81,1.22a.37.37,0,0,0,0,.45.37.37,0,0,0,.45.05,2.64,2.64,0,0,0,.75-.55c.12-.11.22-.21.31-.31l-1.5.29Z"></path><path class="cls-5" d="M102.65,58.89l.53.56,1.64-1.55-.62-.4.46-.42.62.4.45.49-2.1,2,.53.56-.44.41-1.51-1.61Z"></path><path class="cls-5" d="M105.34,60.1a2.61,2.61,0,0,1,1.18-.72,1,1,0,0,1,.92.32,1,1,0,0,1,.26.94,3.29,3.29,0,0,1-2,1.85,1,1,0,0,1-.92-.32.94.94,0,0,1-.26-.94A2.48,2.48,0,0,1,105.34,60.1Zm1.68,0a.37.37,0,0,0-.45-.05,2.72,2.72,0,0,0-.76.55c-.1.09-.18.18-.26.26l1.48-.29v0A.39.39,0,0,0,107,60.1Zm-1.81,1.22a.35.35,0,0,0,0,.45.37.37,0,0,0,.45.06,3,3,0,0,0,.76-.56,4.24,4.24,0,0,0,.3-.31l-1.5.3Z"></path><path class="cls-5" d="M106.58,63.08l.53.56,1.65-1.54-.62-.4.45-.43.62.41.45.48-2.1,2,.53.56-.44.42-1.51-1.62Z"></path><path class="cls-5" d="M109.27,64.29a2.49,2.49,0,0,1,1.18-.71,1.06,1.06,0,0,1,1.19,1.25,2.57,2.57,0,0,1-.8,1.14,2.61,2.61,0,0,1-1.18.72,1,1,0,0,1-.92-.32.94.94,0,0,1-.26-.94A2.53,2.53,0,0,1,109.27,64.29Zm1.68,0a.38.38,0,0,0-.45-.05,2.8,2.8,0,0,0-.76.56l-.26.25,1.49-.29h0A.37.37,0,0,0,111,64.29Zm-1.81,1.22a.35.35,0,0,0,.47.51,2.72,2.72,0,0,0,.76-.55,4.16,4.16,0,0,0,.3-.31l-1.5.29Z"></path><path class="cls-5" d="M110.51,67.27l.53.57,1.65-1.55-.62-.4.45-.42.62.4.45.49-2.09,2,.52.56-.44.42-1.51-1.61Z"></path><path class="cls-5" d="M113.2,68.49a2.61,2.61,0,0,1,1.18-.72A1.06,1.06,0,0,1,115.57,69a2.68,2.68,0,0,1-.8,1.14,2.49,2.49,0,0,1-1.18.71,1,1,0,0,1-.92-.32,1,1,0,0,1-.26-.94A2.57,2.57,0,0,1,113.2,68.49Zm1.68,0a.38.38,0,0,0-.45-.06,3,3,0,0,0-.76.56l-.25.26L114.9,69v0A.37.37,0,0,0,114.88,68.49Zm-1.81,1.22a.38.38,0,0,0,0,.45.38.38,0,0,0,.46.06,3,3,0,0,0,.75-.56,2.84,2.84,0,0,0,.3-.31l-1.5.3Z"></path><path class="cls-5" d="M114.44,71.47,115,72l1.65-1.55-.62-.4.45-.42.62.41.45.48-2.09,2,.52.56-.44.41L114,71.88Z"></path><path class="cls-5" d="M117.13,72.68a2.64,2.64,0,0,1,1.19-.72,1,1,0,0,1,1.18,1.26,2.49,2.49,0,0,1-.8,1.14,2.61,2.61,0,0,1-1.18.72,1.06,1.06,0,0,1-1.18-1.26A2.53,2.53,0,0,1,117.13,72.68Zm1.68,0a.38.38,0,0,0-.45-.05,2.89,2.89,0,0,0-.76.56l-.25.25,1.48-.29h0A.38.38,0,0,0,118.81,72.68ZM117,73.9a.36.36,0,0,0,.48.51,2.86,2.86,0,0,0,.75-.55l.31-.31-1.51.29Z"></path><path class="cls-5" d="M118.38,75.66l.52.56,1.65-1.54-.62-.4.45-.43.62.41.46.49-2.1,2,.53.56-.45.42-1.51-1.61Z"></path><path class="cls-5" d="M120.34,77.76l.53.56,1.65-1.54-.62-.41.45-.42.62.41.45.48-2.09,2,.52.56-.44.41-1.51-1.61Z"></path><path class="cls-4" d="M132.77,58.8l-2.44-2.6a1.78,1.78,0,0,1,.09-2.52h0a1.78,1.78,0,0,1,2.52.08l2.43,2.6a1.78,1.78,0,0,1-.08,2.52h0A1.78,1.78,0,0,1,132.77,58.8Z"></path><path class="cls-4" d="M136.26,62.52l-2.44-2.6a1.78,1.78,0,0,1,.08-2.52h0a1.78,1.78,0,0,1,2.52.08l2.44,2.6a1.78,1.78,0,0,1-.08,2.52h0A1.78,1.78,0,0,1,136.26,62.52Z"></path><path class="cls-3" d="M164.53,67.05s-10.63.35-14.83-1.13-17.88-9.32-22.61-10.63c-5.67-1.58-8.1,4-8.16,7.22s1.14,5,8.68,9.92,16.07,3.45,21.27,9.86,9.56,15.16,17.71,19.26,11.62,5.67,12,5.35"></path><path class="cls-3" d="M122.4,66.87c3.62,1.62,4.87,1.47,5.14.71s3.86-8,3.86-8-4.12-3.34-6.15-3.88-4.56,1.54-5.21,5.07.7,5.29,1.25,5.66"></path><polygon class="cls-5" points="221.53 100.02 209.85 92.66 189.48 124.76 190.6 125.45 225.44 108.69 221.53 100.02"></polygon></svg>