<svg xmlns="http://www.w3.org/2000/svg" xmlns:xlink="http://www.w3.org/1999/xlink" id="Layer_1" x="0px" y="0px" viewBox="0 0 173.6 127.5" style="enable-background:new 0 0 173.6 127.5;" xml:space="preserve"><style type="text/css">	.st0{fill:none;stroke:#3A66AF;stroke-width:1.5;stroke-miterlimit:10;}	.st1{fill:#FFFFFF;stroke:#3A66AF;stroke-width:1.5;stroke-miterlimit:10;}	.st2{fill:none;}	.st3{fill:none;stroke:#3A66AF;stroke-width:4;stroke-miterlimit:10;}	.st4{fill:#3A66AF;}	.st5{fill:#F9FBFC;}	.st6{fill:none;stroke:#D9DBDB;stroke-width:5;stroke-miterlimit:10;}	.st7{fill:#FFFFFF;}	.st8{fill:#6394DB;}	.st9{opacity:0.5;fill:#FFFFFF;enable-background:new    ;}	.st10{opacity:0.5;fill:#DADADA;enable-background:new    ;}</style><rect x="133.1" y="-31.3" class="st2" width="279.9" height="184.9"></rect><rect x="-58.7" y="-31.3" class="st2" width="279.9" height="184.9"></rect><g>	<path class="st3" d="M153.9,51.9H20.4c-5.1,0-9.3-4.2-9.3-9.3l0,0c0-5.1,4.2-9.3,9.3-9.3h133.4c5.1,0,9.3,4.2,9.3,9.3l0,0  C163.2,47.7,159,51.9,153.9,51.9z"></path>	<path class="st4" d="M153.9,51.9h-26.6V33.3h26.6c5.1,0,9.3,4.2,9.3,9.3l0,0C163.2,47.7,159,51.9,153.9,51.9z"></path>	<g>		<path class="st5" d="M145.1,42.5c-1.2,1.2-3.2,1.2-4.4,0s-1.2-3.2,0-4.4c1.2-1.2,3.2-1.2,4.4,0C146.3,39.3,146.3,41.2,145.1,42.5z    M141.3,38.7c-0.9,0.9-0.9,2.2,0,3.1c0.9,0.9,2.2,0.9,3.1,0c0.9-0.9,0.9-2.2,0-3.1C143.6,37.9,142.2,37.9,141.3,38.7z"></path>					<rect x="144.8" y="41.9" transform="matrix(0.7071 -0.7071 0.7071 0.7071 12.3772 115.2462)" class="st5" width="0.9" height="1.5"></rect>		<path class="st5" d="M149.3,46.7c-0.3,0.3-0.7,0.3-1,0l-2.8-2.8c-0.3-0.3-0.3-0.7,0-1c0.3-0.3,0.7-0.3,1,0l2.8,2.8   C149.5,45.9,149.5,46.4,149.3,46.7z"></path>	</g>	<g>		<g>			<rect x="28.5" y="25.9" class="st6" width="54.6" height="30.7"></rect>			<rect x="28.5" y="25.9" class="st7" width="54.6" height="30.7"></rect>		</g>	</g>			<rect x="69.5" y="64.3" transform="matrix(0.8773 -0.4799 0.4799 0.8773 -25.6853 43.4196)" class="st4" width="5.2" height="15.4"></rect>	<path class="st8" d="M74,70.1L71.2,65c-0.7,0.5-1.4,0.9-2.2,1.4c-0.8,0.4-1.5,0.8-2.3,1.1l2.8,5.1c0.8-0.4,1.6-0.7,2.3-1.1  C72.6,71,73.3,70.6,74,70.1z"></path>	<path class="st9" d="M33.7,39.1c-0.3,0.2-0.6,0.2-1,0.2c-0.9-0.1-1.5-0.9-1.3-1.8c0.3-1.7,0.7-3.3,1.3-4.9c0.3-0.8,1.2-1.2,2-0.9  s1.2,1.2,0.9,2c-0.5,1.4-0.9,2.8-1.1,4.3C34.4,38.4,34.1,38.9,33.7,39.1z"></path>	<path class="st9" d="M45.6,62.5c-0.4,0.2-1,0.3-1.5,0c-4.3-2.2-7.8-5.6-10.1-9.8c-1.2-2.1-2-4.4-2.5-6.8c-0.2-0.9,0.4-1.7,1.2-1.9  c0.9-0.2,1.7,0.4,1.9,1.2c0.4,2.1,1.1,4,2.2,5.9c2,3.7,5,6.6,8.8,8.5c0.8,0.4,1.1,1.4,0.7,2.1C46.1,62.1,45.9,62.3,45.6,62.5z"></path>	<path class="st4" d="M39.7,12.8c-15.6,8.5-21.4,28.1-12.8,43.8C35.5,72.2,55,77.9,70.7,69.4c15.6-8.6,21.4-28.1,12.8-43.8  C75,10,55.4,4.2,39.7,12.8z M67.9,64.3c-12.8,7-28.9,2.3-36-10.5c-7-12.8-2.3-28.9,10.5-36c12.8-7,28.9-2.3,36,10.5  C85.5,41.2,80.7,57.3,67.9,64.3z"></path>			<rect x="82.1" y="75.9" transform="matrix(0.8773 -0.4799 0.4799 0.8773 -36.7244 53.7154)" class="st4" width="9.1" height="45.6"></rect>	<rect x="83.7" y="77" transform="matrix(0.8773 -0.4799 0.4799 0.8773 -37.5146 52.868)" class="st8" width="1.8" height="45.6"></rect>	<rect x="87.9" y="74.4" transform="matrix(0.8773 -0.4799 0.4799 0.8773 -35.6906 54.8253)" class="st8" width="3" height="45.6"></rect>	<ellipse id="SVGID_1_" class="st10" cx="55" cy="41.1" rx="26.5" ry="26.5"></ellipse></g><g>	<path class="st4" d="M44.4,45.3h-2.7L41,41.6c-0.1-0.7-0.3-1.4-0.3-2.2c-0.1,0.7-0.2,1.4-0.4,2.2l-0.8,3.7h-2.7l-1.9-8.5h2.3  l0.7,3.8c0.2,0.9,0.3,1.8,0.4,2.7c0.1-0.9,0.3-1.8,0.5-2.7l0.9-3.7h2.2l0.8,3.7c0.2,0.9,0.4,1.7,0.5,2.6c0.1-0.9,0.2-1.7,0.4-2.6  l0.8-3.8h2.1L44.4,45.3z"></path>	<path class="st4" d="M57.2,45.3h-2.7l-0.7-3.7c-0.1-0.7-0.3-1.4-0.3-2.2c-0.1,0.7-0.2,1.4-0.4,2.2l-0.8,3.7h-2.7l-1.9-8.5H50  l0.7,3.8c0.2,0.9,0.3,1.8,0.4,2.7c0.1-0.9,0.3-1.8,0.5-2.7l0.9-3.7h2.2l0.8,3.7c0.2,0.9,0.4,1.7,0.5,2.6c0.1-0.9,0.2-1.7,0.4-2.6  l0.8-3.8h2.1L57.2,45.3z"></path>	<path class="st4" d="M70,45.3h-2.7l-0.7-3.7c-0.1-0.7-0.3-1.4-0.3-2.2c-0.1,0.7-0.2,1.4-0.4,2.2l-0.8,3.7h-2.7l-1.9-8.5h2.3  l0.7,3.8c0.2,0.9,0.3,1.8,0.4,2.7c0.1-0.9,0.3-1.8,0.5-2.7l0.9-3.7h2.2l0.8,3.7c0.2,0.9,0.4,1.7,0.5,2.6c0.1-0.9,0.2-1.7,0.4-2.6  l0.8-3.8H72L70,45.3z"></path></g></svg>