<svg xmlns="http://www.w3.org/2000/svg" id="Layer_1" data-name="Layer 1" viewBox="0 0 484.97 382.44"><defs><style>.cls-1,.cls-2{fill:#3a66af;}.cls-2{font-size:22.82px;font-family:NexaBold, Nexa Bold;}.cls-3{letter-spacing:0.01em;}.cls-4{letter-spacing:0em;}.cls-5,.cls-6{fill:none;stroke:#3a66af;stroke-miterlimit:10;}.cls-5{stroke-width:4px;}.cls-6{stroke-width:3px;}</style></defs><title>Domain Checker_Custom_04</title><path class="cls-1" d="M245.52,29.72h3.11l3.49,0h3.11L367.49,30c3.49,2.59.51,4.5-.7,6.6H66.6c-11,0-12.47,1.47-12.5,12.27,0,12.65.65,25.34-.22,37.92C53.29,95.35,56.12,97,64.16,97c88.24-.26,176.48-.13,264.73-.11a2.15,2.15,0,0,0,3.12,0l32.67-.09c2.12,1.13,5.37,2.19,3.89,5.09s-5,1.36-7.57,1.37q-147.15.11-294.31.08c-3.54,0-7.08.37-10.61.57-3.86,2.25-1.87,6-1.88,8.88q-.2,109.71-.11,219.42c0,13.12,1.33,14.46,14.75,14.46H417c1.92,0,3.85.09,5.77,0,4.26-.22,7.37-2,8.18-6.53,1.82-13.65.71-27.37.79-41.05.2-36.56,0-73.12.07-109.68,0-3.82-1.59-10.63,6.44-5.44q0,75.33,0,150.67c0,11.95-3,15.88-14.4,19.26-1.91-.14-3.82-.4-5.73-.4q-178.81,0-357.63.05a13.28,13.28,0,0,1-12.92-12.93c-.27-13.73-.3-27.45-.43-41.18.1-20,.3-40,.28-60.06q-.06-97.93-.26-195.86c.06-1.11.13-2.21.19-3.31-.29-2.86,1.94-4.25,3.52-6,2.22-3.61,6-3.92,9.6-4.43l1.85-.08H78.55a17.34,17.34,0,0,0,8.44,0h13c7.66.15,15.32.44,23,.43q57.14-.15,114.27-.43l6.41,0Z"></path><path class="cls-1" d="M367.84,28.91a8.63,8.63,0,0,1-.35,1.09l-112.26-.32c1-.38,2-1.08,3-1.08Q313,28.71,367.84,28.91Z"></path><path class="cls-1" d="M252.12,29.69l-3.49,0C249.78,28.31,251,28.3,252.12,29.69Z"></path><path class="cls-1" d="M245.52,29.72l-1.85,0C244.31,28.54,244.93,28.6,245.52,29.72Z"></path><path class="cls-1" d="M328.89,96.87a2.52,2.52,0,0,1,3.13,0A2.16,2.16,0,0,1,328.89,96.87Z"></path><path class="cls-1" d="M239.15,269.75H98.83c-2.2,0-4.4,0-6.6-.08a3.21,3.21,0,0,1-3.29-3c-.16-2.25,1.36-3.45,3.58-3.57,1.92-.09,3.85-.07,5.77-.07l282.29,0h5.78c2.32,0,3.71,1.25,3.61,3.47s-1.61,3.3-3.9,3.23c-1.92-.06-3.85,0-5.78,0Z"></path><path class="cls-1" d="M238.82,300.89h142c2.2,0,4.41,0,6.6.16a2.84,2.84,0,0,1,2.6,2.71c.14,1.65-.62,3.37-2.54,3.64a49.67,49.67,0,0,1-6.58.23H99.38a20.34,20.34,0,0,1-2.47,0c-3-.36-7.81,1.44-7.85-3.34s4.8-3.32,7.77-3.33Q167.83,300.84,238.82,300.89Z"></path><path class="cls-1" d="M186,149.23H98.64c-1.92,0-3.85-.07-5.77,0-2.26,0-3.84-1-4-3.2s1.54-3.32,3.68-3.46c1.64-.1,3.29-.07,4.94-.07l175.6,0a4.59,4.59,0,0,1,.83,0c2.91.55,7.75-1.73,7.92,3.17s-4.69,3.44-7.6,3.46c-18.14.14-36.27.07-54.41.07Z"></path><path class="cls-1" d="M202.26,58.65a13.71,13.71,0,0,1,13.39,13.84A13.35,13.35,0,0,1,202.06,86c-7.56,0-13.92-6.85-13.47-14.6C189,64.43,195.37,58.48,202.26,58.65Z"></path><path class="cls-1" d="M162.76,72.24c-.07,7.42-6.37,13.82-13.48,13.71-7.46-.13-13.74-6.31-13.8-13.58S142,58.61,149.11,58.65C156.42,58.68,162.82,65.06,162.76,72.24Z"></path><path class="cls-1" d="M109.77,73.72c-.63,7-7.8,12.92-14.93,12.21s-13-7.88-12.25-15c.8-7.25,7.9-13.08,14.92-12.24S110.4,66.61,109.77,73.72Z"></path><text class="cls-2" transform="translate(110.38 208.87)">Customized <tspan class="cls-3" x="130.33" y="0">D</tspan><tspan class="cls-4" x="146.6" y="0">omain</tspan></text><rect class="cls-5" x="84.08" y="168.17" width="305.9" height="65.22" rx="23.72"></rect><circle class="cls-6" cx="356.91" cy="195.6" r="10.02"></circle><line class="cls-6" x1="362.47" y1="203.95" x2="369.63" y2="216.42"></line><rect class="cls-1" x="362.66" y="28.6" width="75.55" height="7.96"></rect><rect class="cls-1" x="362.66" y="96.69" width="75.55" height="6.5"></rect><rect class="cls-1" x="343" y="117.56" width="183.92" height="6.5" transform="translate(555.77 -314.15) rotate(90)"></rect></svg>