<svg xmlns="http://www.w3.org/2000/svg" xmlns:xlink="http://www.w3.org/1999/xlink" id="Layer_1" x="0px" y="0px" viewBox="0 0 485 382.4" style="enable-background:new 0 0 485 382.4;" xml:space="preserve"><style type="text/css">	.st0{fill:#3A66AF;stroke:#3A66AF;stroke-width:3;stroke-miterlimit:10;}	.st1{fill:#3A66AF;}	.st2{fill:none;stroke:#3A66AF;stroke-width:6;stroke-miterlimit:10;}	.st3{fill:none;stroke:#3A66AF;stroke-width:3;stroke-miterlimit:10;}	.st4{fill:none;stroke:#3A66AF;stroke-width:2;stroke-miterlimit:10;}	.st5{fill:none;stroke:#000000;stroke-width:2;stroke-miterlimit:10;}	.st6{fill:none;stroke:#000000;stroke-miterlimit:10;}	.st7{fill:none;stroke:#3A66AF;stroke-width:4;stroke-miterlimit:10;}	.st8{fill:none;stroke:#3A66AF;stroke-miterlimit:10;}	.st9{fill:#FFFFFF;stroke:#3A66AF;stroke-width:2;stroke-miterlimit:10;}</style><g>	<g>		<path class="st7" d="M49.3,278.2c0-1.3,0-2.3,0-3.4c0-31,0-62.1,0-93.1c0-8.8,3.5-12.4,12.4-12.4c49.8,0,99.7,0,149.5,0   c6.6,0,11,3.9,11,10.2c0.1,32.4,0,64.9,0,97.3c0,0.4-0.1,0.8-0.2,1.4C164.5,278.2,107.2,278.2,49.3,278.2z M63.1,273.6   c48.6,0,96.9,0,145.3,0c0-30.8,0-61.3,0-92c-48.5,0-96.8,0-145.3,0C63.1,212.3,63.1,242.8,63.1,273.6z"></path>		<path class="st7" d="M135.9,283c33.5,0,67.1,0,100.6,0c5.1,0,5.8,0.7,5.8,5.8c0,8.4-3.4,11.7-11.8,11.7c-63.3,0-126.6,0-189.8,0.1   c-10,0-12.3-7.2-11.1-14.9c0.2-1.1,2-2,3.2-2.6c0.8-0.4,1.9-0.1,2.9-0.1C69,283,102.4,283,135.9,283z M114.5,287.6   c-0.4,4.5,1.6,7.5,5.4,7.5c10.6,0.1,21.2,0.2,31.7,0c4-0.1,6.1-3.4,5.1-7.5C142.7,287.6,128.7,287.6,114.5,287.6z"></path>	</g>	<g>		<path class="st7" d="M269.9,191c0-1.2,0-2.3,0-3.3c0-31.3,0-62.5,0-93.8c0-8,3.7-11.8,11.6-11.9c50,0,100,0,150,0   c7.2,0,11.4,3.8,11.4,10.8c0,32.1,0,64.3,0,96.4c0,0.5-0.1,1.1-0.1,1.8C385.3,191,327.9,191,269.9,191z M429.1,94.2   c-48.5,0-96.8,0-145.3,0c0,30.9,0,61.5,0,92.3c48.5,0,96.8,0,145.3,0C429.1,155.8,429.1,125.2,429.1,94.2z"></path>		<path class="st7" d="M356.5,195.9c33.5,0,67,0,100.5,0c5.1,0,5.8,0.7,5.8,5.8c0,8.1-3.6,11.7-11.6,11.7   c-63.2,0-126.5-0.1-189.7,0.1c-9,0-12.8-5.7-11.4-14.6c0.2-1.1,1.8-2.1,3-2.8c0.6-0.4,1.7-0.1,2.6-0.1   C289.3,195.9,322.9,195.9,356.5,195.9z M335.2,200.7c-0.4,4.3,1.6,7.2,5.5,7.3c10.5,0.2,20.9,0.2,31.4,0c4-0.1,6.2-3.4,5.3-7.3   C363.4,200.7,349.3,200.7,335.2,200.7z"></path>	</g>	<g>		<path class="st4" d="M134.6,186.5c8.8,6.6,18.3,11.8,28.5,15.6c1.5,0.6,3.4,1.1,4.8,1.9c1.3,0.7,2.1,0.8,3,1.5   c2.5,1.9,6.4,7.2,6.4,7.2l-24.4,54.2c-14.4-18.2-36.8-9.9-45.3-20.1L134.6,186.5z"></path>		<path class="st4" d="M164.5,216.3c4.8-3.9,9.8-5.8,12.4-2.9c-3.1-4-7.2-9.4-9.6-9.1C167.8,207.2,166.7,214.2,164.5,216.3z"></path>		<g>			<path class="st8" d="M132.1,209.9c12.5,3.3,22.5,12.5,32.4,14.6"></path>			<path class="st8" d="M129.7,215.4c12.5,3.3,22.5,12.5,32.4,14.6"></path>			<path class="st8" d="M127.2,221c12.5,3.3,22.5,12.5,32.4,14.6"></path>			<path class="st8" d="M124.7,226.5c12.5,3.3,22.5,12.5,32.4,14.6"></path>			<path class="st8" d="M122.2,232c12.5,3.3,22.5,12.5,32.4,14.6"></path>			<path class="st8" d="M119.7,237.6c12.5,3.3,22.5,12.5,32.4,14.6"></path>		</g>	</g>	<g>		<path class="st4" d="M347.5,99.1c8.8,6.6,18.3,11.8,28.5,15.6c1.5,0.6,3.4,1.1,4.8,1.9c1.3,0.7,2.1,0.8,3,1.5   c2.5,1.9,6.4,7.2,6.4,7.2l-24.4,54.2c-14.4-18.2-36.8-9.9-45.3-20.1L347.5,99.1z"></path>		<path class="st4" d="M377.5,128.9c4.8-3.9,9.8-5.8,12.4-2.9c-3.1-4-7.2-9.4-9.6-9.1C380.7,119.7,379.7,126.7,377.5,128.9z"></path>		<g>			<path class="st8" d="M345.1,122.5c12.5,3.3,22.5,12.5,32.4,14.6"></path>			<path class="st8" d="M342.6,128c12.5,3.3,22.5,12.5,32.4,14.6"></path>			<path class="st8" d="M340.1,133.5c12.5,3.3,22.5,12.5,32.4,14.6"></path>			<path class="st8" d="M337.6,139.1c12.5,3.3,22.5,12.5,32.4,14.6"></path>			<path class="st8" d="M335.2,144.6c12.5,3.3,22.5,12.5,32.4,14.6"></path>			<path class="st8" d="M332.7,150.1c12.5,3.3,22.5,12.5,32.4,14.6"></path>		</g>	</g>	<g>		<path class="st9" d="M226.8,183.1c11-0.6,21.7-2.7,31.8-6.3c1.5-0.5,3.3-1.3,4.9-1.6c1.4-0.3,2.1-0.7,3.2-0.8   c3.1-0.2,9.5,1.4,9.5,1.4l16,57.2c-22.7-4.7-34.6,16-47.7,13.6L226.8,183.1z"></path>		<path class="st4" d="M268.9,186.8c1.2-6.1,3.8-10.7,7.6-10.2c-4.9-1-11.6-2.6-13.2-0.8C265.6,177.7,269.2,183.7,268.9,186.8z"></path>		<g>			<path class="st8" d="M240,202.6c11.7-5.5,25.3-4.8,34.2-9.6"></path>			<path class="st8" d="M241.6,208.4c11.7-5.5,25.3-4.8,34.2-9.6"></path>			<path class="st8" d="M243.3,214.3c11.7-5.5,25.3-4.8,34.2-9.6"></path>			<path class="st8" d="M244.9,220.1c11.7-5.5,25.3-4.8,34.2-9.6"></path>			<path class="st8" d="M246.5,226c11.7-5.5,25.3-4.8,34.2-9.6"></path>			<path class="st8" d="M248.2,231.8c11.7-5.5,25.3-4.8,34.2-9.6"></path>		</g>	</g></g></svg>