<svg xmlns="http://www.w3.org/2000/svg" id="Layer_1" data-name="Layer 1" viewBox="0 0 278.41 174.74"><defs><style>.cls-1,.cls-2,.cls-3{fill:none;}.cls-1,.cls-2,.cls-3,.cls-4{stroke:#3a66af;stroke-miterlimit:10;}.cls-1{stroke-width:4px;}.cls-2,.cls-4{stroke-width:2px;}.cls-4{fill:#fff;}</style></defs><title>Domain Checker_Custom</title><path class="cls-1" d="M54.53,126.39V84.94c0-3.79,1.49-5.32,5.31-5.33h64.25c2.84,0,4.71,1.66,4.71,4.37,0,13.94,0,27.88,0,41.81a6.07,6.07,0,0,1-.08.61Zm5.93-2h62.4V84.89H60.46Z"></path><path class="cls-1" d="M91.74,128.45H135c2.17,0,2.47.31,2.47,2.51,0,3.59-1.44,5-5.07,5q-40.79,0-81.56,0c-4.31,0-5.31-3.08-4.77-6.4.07-.45.85-.87,1.39-1.14a3,3,0,0,1,1.23,0Zm-9.19,2c-.17,1.92.71,3.21,2.3,3.23q6.83.09,13.63,0c1.72,0,2.64-1.47,2.21-3.22Z"></path><path class="cls-1" d="M149.33,89V47.24c0-3.45,1.6-5.09,5-5.09h64.42c3.11,0,4.89,1.65,4.89,4.63q0,20.71,0,41.42c0,.22,0,.45-.06.77Zm68.36-41.59h-62.4V87h62.4Z"></path><path class="cls-1" d="M186.53,91h43.2c2.2,0,2.5.3,2.5,2.48,0,3.48-1.53,5-5,5q-40.76,0-81.51,0c-3.85,0-5.5-2.47-4.92-6.3.07-.46.79-.9,1.29-1.2.27-.17.73,0,1.1,0Zm-9.16,2.06c-.17,1.85.69,3.1,2.36,3.13q6.74.1,13.49,0a2.38,2.38,0,0,0,2.29-3.13Z"></path><path class="cls-2" d="M91.17,87a48.17,48.17,0,0,0,12.23,6.69,14.65,14.65,0,0,1,2,.83,11,11,0,0,1,1.28.63,20.77,20.77,0,0,1,2.77,3.08L99,121.54c-6.17-7.82-15.79-4.26-19.48-8.66Z"></path><path class="cls-2" d="M104,99.82c2.07-1.68,4.22-2.47,5.32-1.25-1.34-1.7-3.1-4-4.13-3.91C105.44,95.9,105,98.9,104,99.82Z"></path><path class="cls-3" d="M90.14,97.07c5.36,1.42,9.64,5.37,13.89,6.26"></path><path class="cls-3" d="M89.06,99.44c5.37,1.42,9.65,5.38,13.9,6.27"></path><path class="cls-3" d="M88,101.82c5.37,1.42,9.65,5.37,13.9,6.26"></path><path class="cls-3" d="M86.92,104.2c5.37,1.41,9.65,5.37,13.9,6.26"></path><path class="cls-3" d="M85.85,106.57c5.37,1.42,9.65,5.37,13.9,6.27"></path><path class="cls-3" d="M84.78,109c5.37,1.42,9.65,5.37,13.9,6.26"></path><path class="cls-2" d="M182.67,49.46a48.35,48.35,0,0,0,12.23,6.7,15.65,15.65,0,0,1,2,.82,12.8,12.8,0,0,1,1.28.63A21.12,21.12,0,0,1,201,60.69L190.5,84c-6.18-7.82-15.8-4.25-19.48-8.66Z"></path><path class="cls-2" d="M195.53,62.25c2.06-1.68,4.21-2.47,5.32-1.25-1.35-1.7-3.11-4-4.13-3.91C196.93,58.34,196.49,61.34,195.53,62.25Z"></path><path class="cls-3" d="M181.63,59.5c5.37,1.42,9.65,5.38,13.9,6.27"></path><path class="cls-3" d="M180.56,61.88c5.37,1.42,9.65,5.37,13.9,6.26"></path><path class="cls-3" d="M179.49,64.25c5.37,1.42,9.65,5.38,13.9,6.27"></path><path class="cls-3" d="M178.42,66.63c5.37,1.42,9.64,5.37,13.9,6.26"></path><path class="cls-3" d="M177.35,69c5.36,1.42,9.64,5.38,13.9,6.27"></path><path class="cls-3" d="M176.28,71.38c5.36,1.42,9.64,5.37,13.9,6.26"></path><path class="cls-4" d="M130.81,85.56a48,48,0,0,0,13.68-2.71,15.58,15.58,0,0,1,2.1-.68,12.53,12.53,0,0,1,1.39-.34,20.78,20.78,0,0,1,4.09.59L159,107c-9.76-2-14.85,6.87-20.5,5.86Z"></path><path class="cls-2" d="M148.89,87.12c.5-2.61,1.64-4.6,3.28-4.37-2.13-.44-5-1.1-5.68-.35C147.45,83.22,149,85.81,148.89,87.12Z"></path><path class="cls-3" d="M136.46,93.93c5-2.35,10.85-2.07,14.68-4.11"></path><path class="cls-3" d="M137.16,96.44c5-2.35,10.85-2.07,14.68-4.11"></path><path class="cls-3" d="M137.87,99c5-2.36,10.84-2.07,14.68-4.11"></path><path class="cls-3" d="M138.57,101.46c5-2.36,10.85-2.07,14.68-4.11"></path><path class="cls-3" d="M139.27,104c5-2.36,10.85-2.07,14.68-4.11"></path><path class="cls-3" d="M140,106.48c5-2.36,10.85-2.07,14.68-4.12"></path></svg>