<svg xmlns="http://www.w3.org/2000/svg" id="Layer_1" data-name="Layer 1" viewBox="0 0 224.26 176.85"><defs><style>.cls-1{fill:#3a66af;}.cls-10,.cls-2,.cls-3,.cls-7,.cls-8{fill:none;}.cls-2,.cls-3{stroke:#3a66af;}.cls-10,.cls-2,.cls-3,.cls-4,.cls-7,.cls-8{stroke-miterlimit:10;}.cls-2{stroke-width:3px;}.cls-3{stroke-width:2px;}.cls-4,.cls-5{fill:#1f558c;}.cls-10,.cls-4,.cls-7,.cls-8{stroke:#20568c;}.cls-4,.cls-7{stroke-width:0.5px;}.cls-6{fill:#231f20;}.cls-9{fill:#fff;}.cls-10{stroke-width:0.75px;}</style></defs><title>Domain Checker_Custom</title><path class="cls-1" d="M38.83,77.33V47.39a10,10,0,0,1,1.49-5.59,9.73,9.73,0,0,1,8.3-4.8c21.21-.3,42.4-.1,63.6-.14a10.27,10.27,0,0,1,10.43,10.08v.27q0,11,0,21.93a3.79,3.79,0,0,0,.66,2.23,22.31,22.31,0,0,0,7.88,7.56,21.32,21.32,0,0,0,10,2.4c2.31,0,2.53.16,2.78,2.36a43.81,43.81,0,0,1-3,22.12,41.41,41.41,0,0,1-17.17,19.63c-1.32.82-2.7,1.53-4.07,2.27a1.76,1.76,0,0,1-1.8,0,45.54,45.54,0,0,1-10.27-6.93,31.48,31.48,0,0,1-2.42-2.34,2.4,2.4,0,0,0-2-.8q-13.64,0-27.28,0c-8.25,0-16.49,0-24.73,0a17.38,17.38,0,0,1-4.82-.41,10.08,10.08,0,0,1-7.57-9.8V77.33ZM41.36,81h0v26.32a9.61,9.61,0,0,0,.11,1.61,7.75,7.75,0,0,0,7.79,6.22h52.09c.23,0,.54.11.68-.1s-.14-.41-.28-.58a42.61,42.61,0,0,1-5-8.21c-.41-.89-.42-.87-1.27-.35A27.42,27.42,0,0,1,75,109.6a26,26,0,0,1-14.09-7.89,25.42,25.42,0,0,1,2.28-37.23,26.45,26.45,0,0,1,20.71-6.17A26.49,26.49,0,0,1,106.79,77.6c.23.84.28.86,1,.38l.32-.22a28.29,28.29,0,0,0,7.56-8.35,15.74,15.74,0,0,1,1.65-2.26,1.79,1.79,0,0,1,1.94-.57c.87.31.83-.14.83-.69V54.57c0-1.39,0-1.39-1.49-1.39H48.07c-1.9,0-3.81-.09-5.71-.06-.92,0-1,.35-1,1.08Q41.38,67.6,41.36,81ZM80.74,50.7h35.08c1.16,0,2.33,0,3.5,0,.59,0,.8-.22.79-.78,0-1.08,0-2.15,0-3.23a7.7,7.7,0,0,0-7.65-7.36H49.07a7.73,7.73,0,0,0-7.31,5.12c-.59,1.66-.32,3.36-.37,5,0,1.23,0,1.23,1.28,1.23Zm14.9,39.15a22.66,22.66,0,0,0,.21,3.86,37.77,37.77,0,0,0,5.31,15.43A43,43,0,0,0,118.07,125a1.37,1.37,0,0,0,1.48,0c1.64-.93,3.29-1.86,4.86-2.93a38,38,0,0,0,15-19.18,43.46,43.46,0,0,0,2.31-12.21,34.14,34.14,0,0,0-.22-6.15c-.06-.49-.26-.73-.8-.73s-1.22-.07-1.82-.12A21.94,21.94,0,0,1,125.61,78a35.78,35.78,0,0,1-5.87-7.52c-.84-1.34-.87-1.36-1.74,0a36.23,36.23,0,0,1-5.68,7.1,23.2,23.2,0,0,1-15.4,6.25.83.83,0,0,0-.93.87,34.6,34.6,0,0,0-.35,5.18ZM88,84.15c0-1.51,0-3-.1-4.43,0-.58-.28-.81-.92-.87-1.39-.14-2.76-.07-4.13-.17a68,68,0,0,0-8.57.19.68.68,0,0,0-.73.6v.13a85.75,85.75,0,0,0,0,9.07c0,.57.3.78.9.81a114.22,114.22,0,0,0,12.55,0c.54,0,.8-.2.86-.75.19-1.55.08-3.09.14-4.58ZM71,80.21c.16-1-.22-1.07-.75-1a47.74,47.74,0,0,0-9.84,2.08,10,10,0,0,0-3.52,1.88c-.75.69-.74,1.28,0,2a7.26,7.26,0,0,0,2,1.22,41.37,41.37,0,0,0,11.61,2.73c.45.06.56-.16.53-.54A72.5,72.5,0,0,1,71,80.21Zm9.66-12.12-4.59.35a.93.93,0,0,0-.91.81c-.5,2.07-.91,4.16-1.21,6.26-.12.79.17.92.87.88,1.24-.08,2.49-.15,3.73-.16,2.7,0,5.41-.08,8.11.16.75.06.91-.2.82-.87a60.17,60.17,0,0,0-1.22-6.26,1,1,0,0,0-1-.82Zm.11,32a29.67,29.67,0,0,0,4.61-.3c.37,0,.66-.12.77-.51a41.56,41.56,0,0,0,1.32-6.79c.06-.45-.11-.65-.63-.61a81,81,0,0,1-12.36,0c-.46,0-.62.09-.56.56a48.47,48.47,0,0,0,1.28,6.65.91.91,0,0,0,.92.76,32.74,32.74,0,0,0,4.64.27ZM57.22,79.88c.23.11.35,0,.49-.07a29.48,29.48,0,0,1,5.18-1.74,65.21,65.21,0,0,1,7.74-1.34c.45,0,.73-.21.77-.69a53.37,53.37,0,0,1,1-6.15c.16-.69-.16-.75-.73-.59a24.43,24.43,0,0,0-11.85,6.54A12.37,12.37,0,0,0,57.22,79.88Zm.08,8.53a12.41,12.41,0,0,0,3.58,5A25.56,25.56,0,0,0,71.73,99c.79.21.87.12.69-.69a41.73,41.73,0,0,1-1-5.76c-.07-.72-.38-1-1.07-1A52.58,52.58,0,0,1,62,90,45.33,45.33,0,0,1,57.3,88.41Zm46.77-8.6a12.25,12.25,0,0,0-3.41-4.87,26.38,26.38,0,0,0-11.13-5.7c-.6-.16-.68,0-.54.54a47.71,47.71,0,0,1,1.06,6.06.86.86,0,0,0,.9.9,63.35,63.35,0,0,1,7.75,1.32A43.72,43.72,0,0,1,104.07,79.81Zm-44.69-7c.3-.19.44-.26.55-.35a27.65,27.65,0,0,1,11.8-5.62,2.69,2.69,0,0,0,2.33-2.07,17,17,0,0,1,1.84-3.66C71.12,60.86,61.81,67.41,59.38,72.82Zm-.06,22.51c1.82,5,11.36,11.82,16.58,11.85a18.79,18.79,0,0,1-2.17-4.46,1.45,1.45,0,0,0-1.28-1.07A29.9,29.9,0,0,1,67.08,100,27,27,0,0,1,59.32,95.33ZM85.53,61.11a20.11,20.11,0,0,1,2.2,4.46A1.45,1.45,0,0,0,89,66.65a28.87,28.87,0,0,1,12.63,5.86c.07.06.17.12.27,0C100,67.78,90.69,61.21,85.53,61.11ZM99.67,81c-.08-.08-.1-.14-.14-.15a49,49,0,0,0-8.48-1.64c-.48-.07-.7.16-.66.61,0,.82.13,1.64.13,2.46a57.21,57.21,0,0,1-.11,6c0,.27-.15.75.25.78a4.51,4.51,0,0,0,2.18-.31c.44-.2.33-.77.34-1.19a34.08,34.08,0,0,1,.64-5,1.33,1.33,0,0,1,1.42-1.19c.39,0,.79,0,1.19,0A13.07,13.07,0,0,0,99.67,81Zm-13.5,26.14.42-.09a24.67,24.67,0,0,0,7.8-3.35c1-.7,1-.7.65-1.9a12.21,12.21,0,0,1-.34-1.18c-.12-.5-.37-.59-.86-.4a31.79,31.79,0,0,1-5.16,1.51c-.32.06-.61.14-.74.49a20.93,20.93,0,0,1-2.09,4.47c-.21.32-.12.48.32.45ZM84.33,65.92c.78,0,.84,0,.49-.88a11.67,11.67,0,0,0-2.08-3.43c-1.27-1.39-2.59-1.43-3.94-.1a11.86,11.86,0,0,0-2.22,3.61c-.34.79-.3.88.63.8a38.49,38.49,0,0,1,7.12,0Zm-7.47,36.43c-.51,0-.58,0-.39.51a11.27,11.27,0,0,0,2.52,4c1.21,1.13,2.25,1.15,3.45,0A11.21,11.21,0,0,0,85,102.88c.18-.42,0-.56-.42-.51A35.76,35.76,0,0,1,76.86,102.35Zm15.64-11c-.63.07-1.26.13-1.89.21a.54.54,0,0,0-.52.5A58.71,58.71,0,0,1,89,98.66c-.09.41,0,.51.45.4a37,37,0,0,0,4-1.3.58.58,0,0,0,.4-.72h0a38.57,38.57,0,0,1-.6-5c0-.44-.21-.66-.69-.63Z"></path><path class="cls-1" d="M96.65,46.23H82.34c-1.26,0-2-.44-2-1.22s.69-1.23,1.94-1.23h28.55a4.3,4.3,0,0,1,1,0,1.14,1.14,0,0,1,1,1.22,1.11,1.11,0,0,1-1,1.13,3.77,3.77,0,0,1-1,.06H96.65Z"></path><path class="cls-1" d="M63.29,41a4,4,0,1,1-4.1,4.08A4.14,4.14,0,0,1,63.29,41Zm-.08,5.53a1.51,1.51,0,0,0,1.69-1.29s0-.09,0-.14a1.56,1.56,0,0,0-1.42-1.68h-.13a1.69,1.69,0,0,0-1.71,1.49,1.58,1.58,0,0,0,1.54,1.62Z"></path><path class="cls-1" d="M78,45a4.08,4.08,0,1,1-4.17-4h.11A4,4,0,0,1,78,45Zm-4.07,1.56A1.55,1.55,0,1,0,72.26,45a1.57,1.57,0,0,0,1.62,1.51Z"></path><path class="cls-1" d="M56.82,45.05a4.09,4.09,0,0,1-4.13,4,4,4,0,0,1,.1-8A4.09,4.09,0,0,1,56.82,45.05Zm-4.1,1.5a1.56,1.56,0,0,0,1.65-1.45V45a1.71,1.71,0,0,0-1.66-1.64A1.61,1.61,0,0,0,51.09,45,1.51,1.51,0,0,0,52.72,46.55Z"></path><path class="cls-1" d="M140.17,89c-.11,8-2.07,15.58-6.81,22.31a40.31,40.31,0,0,1-13.79,12,1.6,1.6,0,0,1-1.65-.05c-9.81-5.44-16.45-13.25-19.21-24a45.43,45.43,0,0,1-1.34-11.9,7.71,7.71,0,0,1,.08-.84c.14-.94.48-1.26,1.43-1.35a24.35,24.35,0,0,0,10.87-3.61,26.57,26.57,0,0,0,7.65-7.62c1-1.41,1.8-1.42,2.76,0a25.5,25.5,0,0,0,9.7,8.78,25.78,25.78,0,0,0,8.73,2.43c1.15.13,1.54.51,1.57,1.63C140.19,87.51,140.17,88.26,140.17,89Zm-2.56.86c0-.46,0-.93,0-1.39.09-.77-.28-1-1-1.13a23.59,23.59,0,0,1-4.47-1,26.2,26.2,0,0,1-12.68-9.13c-.69-.88-.67-.87-1.36,0a26.21,26.21,0,0,1-17.34,10.17c-.61.08-.85.34-.85,1a44.48,44.48,0,0,0,.36,5.29,35.29,35.29,0,0,0,3.91,12.75,36,36,0,0,0,14.09,14.17,1,1,0,0,0,1.09,0A38.19,38.19,0,0,0,129.65,112C135,105.52,137.32,98,137.61,89.87Z"></path><path class="cls-1" d="M108.82,103.83V98.67a3.2,3.2,0,0,1,2.62-3.47c.54-.16.53-.48.53-.88v-6c0-1.9,1-2.84,2.94-2.85h7.65c2.09,0,3.08.91,3.11,3s0,3.85,0,5.77a1,1,0,0,0,.8,1.09,3,3,0,0,1,2.27,3q0,5.53,0,11.08a3.1,3.1,0,0,1-2.75,3.09,22,22,0,0,1-4.29.09c-3.1-.14-6.2,0-9.3-.07-2.28,0-3.55-1.23-3.57-3.43v-5.23Zm10-6.28H112.7c-1.08,0-1.31.23-1.31,1.26v10c0,1,.23,1.27,1.31,1.27H125c1,0,1.2-.21,1.2-1.2V98.73c0-1-.18-1.17-1.21-1.18Zm0-2.4h0c1.16,0,2.33,0,3.49,0,.62,0,.85-.23.84-.82q0-2.81,0-5.61c0-.56-.2-.78-.79-.77h-7c-.58,0-.8.22-.79.77q0,2.81,0,5.61c0,.59.19.83.83.82,1.13,0,2.26,0,3.41,0Z"></path><path class="cls-1" d="M122.19,102.35a3.07,3.07,0,0,1-1.39,2.48,1.32,1.32,0,0,0-.69,1.34,8,8,0,0,1,0,1.39,1.29,1.29,0,0,1-1.35,1.15,1.21,1.21,0,0,1-1.18-1.26v0a3.11,3.11,0,0,1,0-.61,2.07,2.07,0,0,0-1-2.15,3,3,0,0,1-.8-4,3.41,3.41,0,0,1,6.41,1.65Zm-2.58-.16a.79.79,0,0,0-.78-.77.77.77,0,0,0-.87.68.79.79,0,0,0,.68.88h.14C119.28,103,119.52,102.68,119.61,102.19Z"></path><polyline class="cls-2" points="98.31 139.17 98.31 133.37 79.47 127.28 79.47 116.74"></polyline><polyline class="cls-2" points="170.71 129.94 170.71 120.61 151.87 114.52 151.87 103.98 140.18 103.98"></polyline><polyline class="cls-2" points="150.44 57.02 144.88 72.55 132.6 69.43 127.34 77.98"></polyline><path class="cls-3" d="M135.51,40.57h34.85a8.24,8.24,0,0,1,8.25,8.24h0a8.25,8.25,0,0,1-8.25,8.25H135.51a8.24,8.24,0,0,1-8.24-8.25h0A8.24,8.24,0,0,1,135.51,40.57Z"></path><path class="cls-1" d="M132.88,48.43V44.07h3.24v.8h-2.39v1.19H136v.77h-2.26v1.62Z"></path><path class="cls-1" d="M140.66,44.07v2.5a1.8,1.8,0,0,1-1.95,2,1.86,1.86,0,0,1-2-2v-2.5h.85v2.5a1.09,1.09,0,0,0,1,1.21h.2a1.07,1.07,0,0,0,1.11-1.21v-2.5Z"></path><path class="cls-1" d="M142.34,44.07v3.6h2.32v.76h-3.17V44.07Z"></path><path class="cls-1" d="M146.11,44.07v3.6h2.32v.76h-3.17V44.07Z"></path><path class="cls-1" d="M135,52.63h-1.28v1.29h-.85V49.55H135A1.56,1.56,0,0,1,136.7,51a1.54,1.54,0,0,1-1.39,1.68Zm-1.27-.75H135a.78.78,0,1,0,.11-1.55h-1.39Z"></path><path class="cls-1" d="M141.23,53.92h-1l-1.31-1.46h-.82v1.46h-.86V49.55h2.14A1.48,1.48,0,0,1,141,51a1.3,1.3,0,0,1-1.13,1.37l1.37,1.5Zm-3.12-3.6v1.39h1.29a.7.7,0,0,0,0-1.39Z"></path><path class="cls-1" d="M146,51.76a2.19,2.19,0,0,1-2.1,2.26h-.21a2.16,2.16,0,0,1-2.33-2.25,2.32,2.32,0,0,1,4.64,0Zm-3.8,0a1.48,1.48,0,0,0,3,.15v-.15a1.48,1.48,0,1,0-3-.14Z"></path><path class="cls-1" d="M147.53,50.31H146.1v-.76h3.71v.76h-1.43v3.61h-.85Z"></path><path class="cls-1" d="M153.7,53.92h-3.39V49.55h3.38v.8h-2.53v1h2.43v.77h-2.43v1h2.53Z"></path><path class="cls-1" d="M158.33,53.37a2.45,2.45,0,0,1-1.71.65,2.18,2.18,0,0,1-2.39-2.25,2.23,2.23,0,0,1,2.39-2.3,2.43,2.43,0,0,1,1.66.66l-.57.53a1.59,1.59,0,0,0-1.09-.42,1.46,1.46,0,0,0-1.55,1.35v.17a1.41,1.41,0,0,0,1.36,1.48h.19a1.74,1.74,0,0,0,1.14-.45Z"></path><path class="cls-1" d="M159.91,50.31h-1.43v-.76h3.71v.76h-1.43v3.61h-.85Z"></path><path class="cls-1" d="M162.71,53.92V49.55h.85v4.37Z"></path><path class="cls-1" d="M168.93,51.76A2.18,2.18,0,0,1,166.84,54h-.22a2.16,2.16,0,0,1-2.33-2.25,2.32,2.32,0,0,1,4.64,0Zm-3.8,0a1.48,1.48,0,0,0,3,.15v-.15a1.48,1.48,0,1,0-3-.14Z"></path><path class="cls-1" d="M172.52,49.55h.85v4.37h-.53L170.48,51v2.94h-.85V49.55h.69l2.21,2.71Z"></path><path class="cls-3" d="M152.5,130h34.85a8.25,8.25,0,0,1,8.25,8.25h0a8.25,8.25,0,0,1-8.25,8.24H152.5a8.24,8.24,0,0,1-8.24-8.24h0A8.24,8.24,0,0,1,152.5,130Z"></path><path class="cls-1" d="M87.62,146.6A2.46,2.46,0,0,1,85,149.2H82.9v-5.11H85A2.45,2.45,0,0,1,87.62,146.6Zm-3.72,1.67H85a1.64,1.64,0,1,0,.15-3.27H83.9Z"></path><path class="cls-1" d="M93.53,146.67a2.71,2.71,0,0,1-5.42,0,2.71,2.71,0,1,1,5.42,0Zm-4.44,0a1.74,1.74,0,0,0,3.48,0,1.74,1.74,0,1,0-3.48,0Z"></path><path class="cls-1" d="M98.85,145.5l-1.71,2.21h-.2l-1.68-2.22v3.71h-1v-5.1h1.14l1.65,2.19,1.65-2.19h1.14v5.1h-1Z"></path><path class="cls-1" d="M104.53,148.23h-2.76l-.45,1h-1.07l2.36-5.11h1.09l2.36,5.11H105Zm-1.39-3.07-1,2.18h2Z"></path><path class="cls-1" d="M106.44,149.2v-5.11h1v5.11Z"></path><path class="cls-1" d="M111.83,144.08h1v5.12h-.62l-2.78-3.45v3.44h-1v-5.1h.8l2.59,3.17Z"></path><rect class="cls-3" x="78.18" y="139.87" width="39.36" height="13.55" rx="6.78"></rect><path class="cls-4" d="M157.91,134.81l-2,7.23h-1l-1.48-5.28a3.09,3.09,0,0,1-.12-.74h0a3.6,3.6,0,0,1-.13.73l-1.5,5.29h-1l-2.12-7.23h.93l1.54,5.55a4.51,4.51,0,0,1,.12.72h0a6.2,6.2,0,0,1,.16-.72l1.6-5.55h.81l1.53,5.59a3.87,3.87,0,0,1,.12.68h0a3.32,3.32,0,0,1,.13-.7l1.48-5.56Z"></path><path class="cls-4" d="M162.52,139.66h-3.65a2,2,0,0,0,.47,1.34,1.62,1.62,0,0,0,1.22.47,2.54,2.54,0,0,0,1.6-.58v.78a3,3,0,0,1-1.8.49,2.18,2.18,0,0,1-1.72-.69,2.9,2.9,0,0,1-.62-2,2.81,2.81,0,0,1,.69-2,2.15,2.15,0,0,1,1.7-.76,1.92,1.92,0,0,1,1.57.65,2.77,2.77,0,0,1,.55,1.82Zm-.85-.69a1.64,1.64,0,0,0-.35-1.11,1.15,1.15,0,0,0-.94-.4,1.31,1.31,0,0,0-1,.42,1.87,1.87,0,0,0-.5,1.09Z"></path><path class="cls-5" d="M166.06,135.14a1,1,0,0,0-.55-.13c-.58,0-.87.36-.87,1.09v.78h1.21v.7h-1.21V142h-.82v-4.46h-.88v-.7h.88v-.83a1.65,1.65,0,0,1,2.24-1.67Z"></path><path class="cls-5" d="M166.91,135.57a.54.54,0,0,1-.38-.15.51.51,0,0,1-.16-.39.54.54,0,0,1,.52-.54h0a.55.55,0,0,1,.38.16.47.47,0,0,1,.16.38.49.49,0,0,1-.16.38A.51.51,0,0,1,166.91,135.57Zm.4,6.47h-.83v-5.16h.83Z"></path><path class="cls-5" d="M171.12,142a1.57,1.57,0,0,1-.77.16c-.9,0-1.36-.5-1.36-1.51v-3.06h-.88v-.7H169v-1.26l.83-.26v1.52h1.3v.7h-1.3v2.91a1.2,1.2,0,0,0,.18.74.7.7,0,0,0,.58.22.79.79,0,0,0,.54-.17Z"></path><path class="cls-6" d="M176.25,142h-.82v-3c0-1.08-.4-1.61-1.2-1.62a1.32,1.32,0,0,0-1,.47,1.76,1.76,0,0,0-.42,1.2V142H172v-7.65h.82v3.34h0a1.85,1.85,0,0,1,1.69-1q1.74,0,1.74,2.1Z"></path><path class="cls-6" d="M185,141.86V141a2.5,2.5,0,0,0,1.49.5c.72,0,1.09-.24,1.09-.73a.67.67,0,0,0-.09-.34.92.92,0,0,0-.26-.26,2.18,2.18,0,0,0-.37-.2l-.46-.18a4.11,4.11,0,0,1-.6-.28,1.67,1.67,0,0,1-.44-.31,1.2,1.2,0,0,1-.26-.4,1.48,1.48,0,0,1-.09-.51,1.24,1.24,0,0,1,.17-.65,1.64,1.64,0,0,1,.44-.47,2.09,2.09,0,0,1,.63-.28,2.64,2.64,0,0,1,.74-.1,3.28,3.28,0,0,1,1.2.23v.84a2.34,2.34,0,0,0-1.31-.37,1.51,1.51,0,0,0-.42,0,.94.94,0,0,0-.32.15.66.66,0,0,0-.21.23.59.59,0,0,0-.07.29.71.71,0,0,0,.07.35.64.64,0,0,0,.22.24,1.45,1.45,0,0,0,.34.2l.46.18c.21.08.42.17.62.27a2.47,2.47,0,0,1,.46.31,1.21,1.21,0,0,1,.3.41,1.24,1.24,0,0,1,.1.54,1.19,1.19,0,0,1-.17.66,1.35,1.35,0,0,1-.45.47,2.21,2.21,0,0,1-.65.28,3.31,3.31,0,0,1-.77.09A2.93,2.93,0,0,1,185,141.86Z"></path><path class="cls-6" d="M191.78,142a1.57,1.57,0,0,1-.77.16c-.9,0-1.36-.5-1.36-1.51v-3.06h-.88v-.7h.88v-1.26l.83-.26v1.52h1.3v.7h-1.3v2.91a1.2,1.2,0,0,0,.18.74.7.7,0,0,0,.58.22.79.79,0,0,0,.54-.17Z"></path><path class="cls-7" d="M181.09,135.55h0a4.21,4.21,0,0,0-3.59,2.19h0a2.55,2.55,0,0,0,.06,2.56l.49.81a2.58,2.58,0,0,0,2.25,1.23l.95,0a2.54,2.54,0,0,0,2.19-1.33l.45-.83a2.55,2.55,0,0,0-.06-2.56l-.49-.81A2.56,2.56,0,0,0,181.09,135.55Z"></path><path class="cls-8" d="M182.48,140a2.18,2.18,0,0,1-3.18.26c-.05,0,0-.09.06-.12a2.7,2.7,0,0,0,3.13-.14"></path><path class="cls-9" d="M182.48,140a2.27,2.27,0,0,1-3.18.19c-.05-.06,0,0,0,0a2.52,2.52,0,0,0,3.17-.17"></path><line class="cls-10" x1="179.38" y1="139.72" x2="179.06" y2="140.41"></line><line class="cls-10" x1="182.34" y1="139.71" x2="182.64" y2="140.32"></line><path class="cls-5" d="M181.58,138.81h-.12l0-.71-.29-.3-.05-2.28h.11l0,2.22.3.29Z"></path><polygon class="cls-5" points="180.55 135.53 180.6 137.91 180.32 138.21 180.34 138.87 180.34 138.92 180.22 138.92 180.22 138.87 180.21 138.16 180.48 137.85 180.43 135.56 180.55 135.53"></polygon><path class="cls-5" d="M181,138.3h-.12l-.07-2.78h.12Z"></path><path class="cls-5" d="M182,138.4l-.38-.38,0-2.44a.2.2,0,0,1,.11,0l.06,2.34.3.3,0,0Z"></path><path class="cls-5" d="M179.76,138.38l-.11-.06.1-.1.28-.31-.05-2.24.12,0,.05,2.33-.32.35Z"></path><path class="cls-5" d="M180.49,139.09a.23.23,0,0,0-.15-.22h-.12a.25.25,0,0,0-.17.24.22.22,0,0,0,.22.22h0a.22.22,0,0,0,.21-.23Zm-.35,0a.14.14,0,0,1,.12-.14.12.12,0,0,1,.12.13.11.11,0,0,1-.11.13h0a.12.12,0,0,1-.12-.12Z"></path><path class="cls-5" d="M181.11,138.49a.22.22,0,0,0-.17-.22.06.06,0,0,0-.06,0,.06.06,0,0,0-.06,0,.21.21,0,0,0-.15.22.21.21,0,0,0,.19.25.22.22,0,0,0,.25-.19v-.06Zm-.35,0a.13.13,0,0,1,.13-.13.12.12,0,0,1,.12.13h0a.13.13,0,0,1-.12.13.12.12,0,0,1-.12-.13Z"></path><path class="cls-5" d="M179.71,137.62h-.11l0-1.91.1-.06Z"></path><path class="cls-5" d="M179.81,137.76a.15.15,0,0,0-.1-.15h-.09a.16.16,0,0,0-.1.15.16.16,0,0,0,.16.16h0A.15.15,0,0,0,179.81,137.76Zm-.24,0a.09.09,0,0,1,.09-.09.08.08,0,0,1,.08.09.08.08,0,0,1-.08.09h0a.09.09,0,0,1-.09-.08Z"></path><path class="cls-5" d="M182,135.49l.06,2.09h.1l-.05-2Z"></path><path class="cls-5" d="M182.25,137.7a.15.15,0,0,0-.1-.15h0a.11.11,0,0,0-.08,0h0a.18.18,0,0,0-.1.16.16.16,0,0,0,.15.16h0A.16.16,0,0,0,182.25,137.7Zm-.24,0a.09.09,0,1,1,.18,0,.09.09,0,0,1-.09.09h0a.08.08,0,0,1-.09-.08h0Z"></path><path class="cls-5" d="M181.75,139a.23.23,0,0,0-.17-.23h-.12a.23.23,0,0,0-.14.23.22.22,0,1,0,.43,0Zm-.34,0a.12.12,0,0,1,.13-.12.13.13,0,0,1,.12.13.14.14,0,0,1-.13.12.13.13,0,0,1-.12-.13Z"></path><path class="cls-5" d="M182.62,138.57a.35.35,0,0,0-.53-.29.57.57,0,0,0-.12.15.45.45,0,0,0,0,.16.34.34,0,1,0,.68,0Zm-.54,0a.2.2,0,0,1,.39,0v0a.2.2,0,0,1-.39.06Z"></path><path class="cls-5" d="M179.89,138.62a.35.35,0,0,0-.35-.35.64.64,0,0,0-.18.06.44.44,0,0,0-.12.15.45.45,0,0,0,0,.16.34.34,0,1,0,.68,0Zm-.53,0a.18.18,0,0,1,.18-.2h0a.2.2,0,0,1,.2.2.2.2,0,0,1-.2.21.19.19,0,0,1-.18-.18Z"></path></svg>