<svg xmlns="http://www.w3.org/2000/svg" xmlns:xlink="http://www.w3.org/1999/xlink" id="Layer_1" x="0px" y="0px" viewBox="0 0 211.271 194.348" style="enable-background:new 0 0 211.271 194.348;" xml:space="preserve"><g>	<path d="M160.966,95.139c-28.073,24.782-99.242,24.297-126.769,0.005c0,4.062,0.362,7.446-0.063,10.727  c-1.73,13.326,5.574,20.574,16.603,25.567c16.162,7.316,33.251,9.229,50.739,8.88c3.468-0.069,6.933-0.293,10.399-0.464  c2.271-0.113,4.846-0.657,5.157,2.717c0.317,3.447-2.606,3.524-4.657,3.57c-9.725,0.221-19.488,0.669-29.178,0.071  c-12.695-0.784-25.045-3.682-36.472-9.525c-4.205-2.15-8.071-4.966-12.063-7.46c0,5.604-0.682,11.369,0.184,16.891  c0.948,6.044,5.902,9.604,10.951,12.574c11.619,6.834,24.408,9.633,37.655,10.974c13.101,1.326,26.107,0.814,39.063-1.422  c2.239-0.387,4.221,0.049,4.651,2.516c0.448,2.564-1.494,3.428-3.634,3.782c-25.598,4.236-50.782,3.464-74.928-7.057  c-4.795-2.089-9.248-5.292-13.311-8.646c-5.147-4.248-7.46-9.895-7.411-16.898c0.218-30.702,0.278-61.409-0.068-92.108  c-0.096-8.538,3.479-14.56,9.675-19.52c9.067-7.258,19.79-10.884,30.967-13.114c24.634-4.916,49.037-4.439,72.902,4.181  c3.856,1.393,7.578,3.272,11.164,5.279c9.836,5.507,15.215,13.406,14.856,25.307c-0.508,16.804-0.166,33.635-0.12,50.455  c0.007,2.393-0.336,4.538-3.196,4.425c-2.72-0.107-3.274-2.182-3.123-4.607C161.069,100.155,160.966,98.058,160.966,95.139z   M98.241,73.757c10.761,0.325,22.366-0.995,33.712-4.26c8.355-2.404,16.437-5.47,23.021-11.419  c7.621-6.886,7.999-14.603,0.093-21.116c-4.926-4.059-10.778-7.552-16.791-9.637c-25.817-8.953-51.974-8.843-78.133-1.228  c-7.474,2.176-14.492,5.383-20.273,10.75c-7.293,6.771-7.403,14.476,0.115,20.929c3.581,3.073,7.773,5.67,12.08,7.618  C66.379,71.87,81.601,73.987,98.241,73.757z M34.317,62.18c0,5.48,0.182,10.487-0.045,15.474  c-0.297,6.517,2.437,11.671,7.606,14.983c5.436,3.483,11.268,6.689,17.354,8.756c18.512,6.289,37.624,6.984,56.902,4.545  c11.447-1.448,22.539-4.251,32.582-10.107c5.444-3.175,10.968-6.958,11.7-13.831c0.681-6.395,0.145-12.92,0.145-19.708  c-18.616,14.653-40.426,17.988-62.944,18.025C75.085,80.355,53.281,76.994,34.317,62.18z"></path>	<path d="M184.124,122.635c0-1.74-0.393-4.212,0.134-6.468c0.369-1.582,1.993-2.871,3.057-4.29c1.102,1.364,3.086,2.685,3.155,4.1  c0.334,6.775,0.15,13.575,0.15,20.783c-7.641,0-15.172,0.086-22.694-0.123c-0.823-0.023-2.409-1.968-2.225-2.626  c0.354-1.268,1.627-3.086,2.684-3.205c3.547-0.4,7.167-0.152,11.757-0.152c-4.327-5.555-9.066-8.656-14.959-9.677  c-14.09-2.442-28.348,7.322-30.564,20.73c-2.492,15.078,6.931,28.951,21.437,31.558c14.464,2.6,28.191-7.1,30.794-21.776  c0.232-1.31-0.006-2.847,0.609-3.912c0.8-1.384,2.235-2.402,3.397-3.577c0.998,1.303,2.89,2.63,2.855,3.904  c-0.333,12.287-6.051,21.703-16.543,27.876c-12.736,7.493-28.799,5.42-39.19-4.562c-10.942-10.51-13.635-25.834-6.889-39.195  c6.538-12.949,20.927-20.549,35.348-17.398C172.55,115.962,178.11,119.826,184.124,122.635z"></path></g></svg>