<svg xmlns="http://www.w3.org/2000/svg" xmlns:xlink="http://www.w3.org/1999/xlink" id="Layer_1" x="0px" y="0px" viewBox="0 0 595.3 635.9" style="enable-background:new 0 0 595.3 635.9;" xml:space="preserve"><style type="text/css">	.st0{fill:#FFFFFF;}</style><g>	<path d="M49.6,448.8c0.2-80,63.7-142.6,144.3-142.1c79,0.4,141.1,64.1,140.8,144.2c-0.3,77.5-64.5,141.4-141.5,141  C112.4,591.4,49.4,528.6,49.6,448.8z M173.3,463.7c-6.6,19.9-13.7,38.4-18.6,57.5c-1.3,5.1,2.1,13.8,6.3,17.1  c2.7,2.1,13.5-0.6,16-4.3c22.5-34.3,44.2-69.2,65.5-104.2c5.7-9.3,0.2-18.2-10.9-19.8c-3.4-0.5-6.9-0.6-11.1-0.9  c3.7-11.4,7.4-21.8,10.3-32.5c2.9-11-2.4-18.3-13.7-18.9c-11-0.6-22.2,0.2-33.2-0.3c-9.9-0.4-15.5,4.3-18.4,13.3  c-5.9,18-11.8,35.9-17.8,53.8C135.7,460,135.7,460,173.3,463.7z"></path>	<path class="st0" d="M173.3,463.7c-37.6-3.7-37.6-3.7-25.8-39.1c6-17.9,11.9-35.8,17.8-53.8c2.9-9,8.5-13.7,18.4-13.3  c11.1,0.5,22.2-0.3,33.2,0.3c11.3,0.6,16.6,7.9,13.7,18.9c-2.9,10.6-6.6,21-10.3,32.5c4.1,0.3,7.6,0.4,11.1,0.9  c11.1,1.6,16.6,10.4,10.9,19.8c-21.3,35-43,69.9-65.5,104.2c-2.4,3.7-13.3,6.5-16,4.3c-4.2-3.3-7.6-12-6.3-17.1  C159.6,502.2,166.6,483.6,173.3,463.7z"></path>	<path d="M536.4,401.5c-0.5-10.1-6.9-15.9-17.1-16.6c-0.6,0-1.3-0.1-1.9-0.1c0-9.1,0-18.2,0-27.4c15.1-1.2,19.3-7.5,19.4-26  c0.1-6.9,0-13.8,0-20.7c0-20.5-5.2-29.7-19.4-30.6c0-9,0-17.9,0-26.9c12-0.8,18.1-6.3,18.9-17.2c1-14.2,0.7-28.6,0-42.9  c-0.5-10.2-7-15.8-17.1-16.6c-0.6,0-1.3-0.1-1.9-0.1c0-23.8-0.1-47.7-0.1-71.5c-0.1-33.9-25-58.7-58.9-58.8  c-90.6-0.3-181.3-0.3-271.9,0c-34.2,0.1-58.1,24.3-58.6,58.7c-0.3,26.8-0.1,53.6-0.1,80.5c0,34.6,0,69.2,0,105.8  c74.8-23.9,141.1-12.7,191.1,46.6c62.2,73.8,56,151.5-1.4,227.9c49.4,0,97,0.6,144.6-0.2c31-0.5,55.1-26.3,55.2-58.1  c0-15.3,0-30.5,0.1-45.8c12.2-0.7,18.2-6.2,19-17.2C537.4,430.2,537.1,415.8,536.4,401.5z M470.5,227.3  c-0.9,7.2-11.7,10.7-31.9,10.8c-38.8,0.1-77.6,0-116.4,0c-38.1,0-76.3,0.1-114.4,0c-23.1-0.1-33.9-3.9-34.4-12.2  c-0.4-5.8-0.5-11.5,0.1-17.3c0.7-7.3,10.7-11.5,30.4-11.5c78.9-0.2,157.8-0.2,236.7,0c18.3,0,29.5,3.9,30.1,10.8  C471.2,214.3,471.4,220.8,470.5,227.3z M470.5,176.7c-0.9,7.2-11.7,10.7-31.9,10.8c-38.8,0.1-77.6,0-116.4,0  c-38.1,0-76.3,0.1-114.4,0c-23.1-0.1-33.9-3.9-34.4-12.2c-0.4-5.8-0.5-11.5,0.1-17.3c0.7-7.3,10.7-11.5,30.4-11.5  c78.9-0.2,157.8-0.2,236.7,0c18.3,0,29.5,3.9,30.1,10.8C471.2,163.7,471.4,170.2,470.5,176.7z M470.5,126.1  c-0.9,7.2-11.7,10.7-31.9,10.8c-38.8,0.1-77.6,0-116.4,0c-38.1,0-76.3,0.1-114.4,0c-23.1-0.1-33.9-3.9-34.4-12.2  c-0.4-5.8-0.5-11.5,0.1-17.3c0.7-7.3,10.7-11.5,30.4-11.5c78.9-0.2,157.8-0.2,236.7,0c18.3,0,29.5,3.9,30.1,10.8  C471.2,113.1,471.4,119.6,470.5,126.1z"></path></g></svg>