<svg xmlns="http://www.w3.org/2000/svg" xmlns:xlink="http://www.w3.org/1999/xlink" id="Layer_1" x="0px" y="0px" viewBox="0 0 595.3 635.9" style="enable-background:new 0 0 595.3 635.9;" xml:space="preserve"><g>	<path d="M191.7,311.1c-86.3-0.5-154.3,66.4-154.5,152.1c-0.2,85.4,67.2,152.6,153.7,153.1c82.4,0.5,151.1-67.9,151.4-150.9  C342.7,379.7,276.2,311.6,191.7,311.1z M243.5,442.9c-22.8,37.5-46,74.8-70.1,111.5c-2.6,4-14.2,6.9-17.1,4.6  c-4.5-3.6-8.1-12.9-6.7-18.3c5.3-20.4,12.8-40.3,19.9-61.5c-40.2-4-40.2-4-27.6-41.9c6.4-19.2,12.8-38.4,19-57.6  c3.1-9.6,9.1-14.6,19.7-14.2c11.8,0.5,23.7-0.3,35.6,0.3c12.1,0.6,17.8,8.5,14.7,20.2c-3.1,11.4-7.1,22.5-11,34.7  c4.4,0.3,8.2,0.4,11.9,0.9C243.8,423.4,249.6,432.9,243.5,442.9z"></path>	<path d="M558.2,412.6c-0.5-10.8-7.4-17-18.3-17.7c-0.7,0-1.3-0.1-2-0.1c0-9.8,0-19.5,0-29.3c16.1-1.3,20.6-8.1,20.8-27.8  c0.1-7.4,0-14.8,0-22.2c0-21.9-5.6-31.8-20.8-32.7c0-9.6,0-19.2,0-28.7c12.9-0.8,19.4-6.8,20.3-18.4c1.1-15.2,0.8-30.6,0-45.9  c-0.5-10.9-7.5-16.9-18.3-17.7c-0.7-0.1-1.4-0.1-2-0.1c0-25.5-0.1-51-0.1-76.5c-0.1-36.3-26.8-62.8-63-62.9c-97-0.3-194-0.3-291,0  c-36.6,0.1-62.2,26-62.7,62.9c-0.4,28.7-0.1,57.4-0.1,86.1c0,37,0,74.1,0,113.3c80-25.6,151-13.6,204.5,49.8  c66.6,79,59.9,162.2-1.5,243.8c52.9,0,103.8,0.6,154.8-0.2c33.1-0.5,59-28.2,59-62.2c0-16.3,0-32.6,0.1-49  c13.1-0.8,19.5-6.6,20.4-18.4C559.3,443.3,559,427.9,558.2,412.6z M487.7,226.2c-1,7.7-12.6,11.5-34.2,11.5c-41.5,0.1-83,0-124.5,0  c-40.8,0-81.6,0.1-122.4,0c-24.7-0.1-36.2-4.2-36.8-13.1c-0.4-6.2-0.5-12.4,0.1-18.5c0.8-7.8,11.4-12.3,32.5-12.3  c84.4-0.2,168.8-0.2,253.3,0c19.6,0,31.5,4.2,32.2,11.6C488.4,212.3,488.6,219.2,487.7,226.2z M487.7,172  c-1,7.7-12.6,11.5-34.2,11.5c-41.5,0.1-83,0-124.5,0c-40.8,0-81.6,0.1-122.4,0c-24.7-0.1-36.2-4.2-36.8-13.1  c-0.4-6.2-0.5-12.4,0.1-18.5c0.8-7.8,11.4-12.3,32.5-12.3c84.4-0.2,168.8-0.2,253.3,0c19.6,0,31.5,4.2,32.2,11.6  C488.4,158.1,488.6,165.1,487.7,172z M487.7,117.8c-1,7.7-12.6,11.5-34.2,11.5c-41.5,0.1-83,0-124.5,0c-40.8,0-81.6,0.1-122.4,0  c-24.7-0.1-36.2-4.2-36.8-13.1c-0.4-6.2-0.5-12.4,0.1-18.5c0.8-7.8,11.4-12.3,32.5-12.3c84.4-0.2,168.8-0.2,253.3,0  c19.6,0,31.5,4.2,32.2,11.6C488.4,104,488.6,110.9,487.7,117.8z"></path></g></svg>