<svg xmlns="http://www.w3.org/2000/svg" xmlns:xlink="http://www.w3.org/1999/xlink" id="Layer_1" x="0px" y="0px" viewBox="0 0 595.3 635.9" style="enable-background:new 0 0 595.3 635.9;" xml:space="preserve"><style type="text/css">	.st0{fill:#FFFFFF;}</style><g>	<path d="M127.8,291.3c0-36.6,0-71.2,0-105.8c0-26.8-0.3-53.6,0.1-80.5c0.4-34.4,24.3-58.6,58.6-58.7c90.6-0.3,181.3-0.3,271.9,0  c33.9,0.1,58.8,24.8,58.9,58.8c0.3,134.1,0.2,268.2,0,402.3c-0.1,31.8-24.2,57.6-55.2,58.1c-47.6,0.8-95.2,0.2-144.6,0.2  c57.4-76.3,63.6-154,1.4-227.9C269,278.6,202.6,267.4,127.8,291.3z M322.5,215.4c27.3,0,54.5,0.2,81.8-0.1  c14.2-0.1,21.8-7,22.4-20.7c0.6-12.4,0.5-24.9,0.1-37.4c-0.5-13.3-8.3-20.8-21.1-20.8c-55.4-0.4-110.9-0.4-166.3,0  c-13.8,0.1-20.8,8.2-21.3,22.2c-0.4,11.1-0.3,22.2,0,33.3c0.4,16,8,23.4,24.2,23.5C268.9,215.5,295.7,215.4,322.5,215.4z"></path>	<path d="M49.6,448.8c0.2-80,63.7-142.6,144.3-142.1c79,0.4,141.1,64.1,140.8,144.2c-0.3,77.5-64.5,141.4-141.5,141  C112.4,591.4,49.4,528.6,49.6,448.8z M173.3,463.7c-6.6,19.9-13.7,38.4-18.6,57.5c-1.3,5.1,2.1,13.8,6.3,17.1  c2.7,2.1,13.5-0.6,16-4.3c22.5-34.3,44.2-69.2,65.5-104.2c5.7-9.3,0.2-18.2-10.9-19.8c-3.4-0.5-6.9-0.6-11.1-0.9  c3.7-11.4,7.4-21.8,10.3-32.5c2.9-11-2.4-18.3-13.7-18.9c-11-0.6-22.2,0.2-33.2-0.3c-9.9-0.4-15.5,4.3-18.4,13.3  c-5.9,18-11.8,35.9-17.8,53.8C135.7,460,135.7,460,173.3,463.7z"></path>	<g>		<path d="M499.7,357.7c0-26.3,0-51,0-75.5c27.8-6.1,37.2,1.2,37.2,28.6c0,6.9,0,13.8,0,20.7c-0.2,20.9-5.5,26.3-26,26.2   C507.7,357.7,504.5,357.7,499.7,357.7z"></path>		<path d="M499.9,384.8c7.5,0,13.5-0.3,19.4,0.1c10.2,0.7,16.6,6.5,17.1,16.6c0.7,14.3,1,28.7,0,42.9c-1.1,15.4-12.4,20-36.5,15.9   C499.9,435.7,499.9,411,499.9,384.8z"></path>		<path d="M499.9,252c0-24.5,0-49.2,0-75.4c6.8,0,13.1-0.4,19.4,0.1c10.1,0.8,16.6,6.4,17.1,16.6c0.7,14.3,1,28.7,0,42.9   C535.3,251.4,523.7,256.1,499.9,252z"></path>	</g>	<path d="M322.5,215.4c-26.8,0-53.6,0.1-80.4,0c-16.2-0.1-23.8-7.5-24.2-23.5c-0.3-11.1-0.4-22.2,0-33.3c0.5-14,7.5-22,21.3-22.2  c55.4-0.4,110.9-0.4,166.3,0c12.9,0.1,20.7,7.5,21.1,20.8c0.4,12.5,0.5,25-0.1,37.4c-0.7,13.7-8.2,20.6-22.4,20.7  C377,215.5,349.7,215.4,322.5,215.4z"></path>	<g>		<path class="st0" d="M322.2,136.9c-38.1,0-76.3,0.1-114.4,0c-23.1-0.1-33.9-3.9-34.4-12.2c-0.4-5.8-0.5-11.5,0.1-17.3   c0.7-7.3,10.7-11.5,30.4-11.5c78.9-0.2,157.8-0.2,236.7,0c18.3,0,29.5,3.9,30.1,10.8c0.6,6.5,0.8,13-0.1,19.5   c-0.9,7.2-11.7,10.7-31.9,10.8C399.8,137,361,136.9,322.2,136.9z"></path>		<path class="st0" d="M322.2,187.5c-38.1,0-76.3,0.1-114.4,0c-23.1-0.1-33.9-3.9-34.4-12.2c-0.4-5.8-0.5-11.5,0.1-17.3   c0.7-7.3,10.7-11.5,30.4-11.5c78.9-0.2,157.8-0.2,236.7,0c18.3,0,29.5,3.9,30.1,10.8c0.6,6.5,0.8,13-0.1,19.5   c-0.9,7.2-11.7,10.7-31.9,10.8C399.8,187.6,361,187.5,322.2,187.5z"></path>		<path class="st0" d="M322.2,238.1c-38.1,0-76.3,0.1-114.4,0c-23.1-0.1-33.9-3.9-34.4-12.2c-0.4-5.8-0.5-11.5,0.1-17.3   c0.7-7.3,10.7-11.5,30.4-11.5c78.9-0.2,157.8-0.2,236.7,0c18.3,0,29.5,3.9,30.1,10.8c0.6,6.5,0.8,13-0.1,19.5   c-0.9,7.2-11.7,10.7-31.9,10.8C399.8,238.2,361,238.1,322.2,238.1z"></path>	</g>	<path class="st0" d="M173.3,463.7c-37.6-3.7-37.6-3.7-25.8-39.1c6-17.9,11.9-35.8,17.8-53.8c2.9-9,8.5-13.7,18.4-13.3  c11.1,0.5,22.2-0.3,33.2,0.3c11.3,0.6,16.6,7.9,13.7,18.9c-2.9,10.6-6.6,21-10.3,32.5c4.1,0.3,7.6,0.4,11.1,0.9  c11.1,1.6,16.6,10.4,10.9,19.8c-21.3,35-43,69.9-65.5,104.2c-2.4,3.7-13.3,6.5-16,4.3c-4.2-3.3-7.6-12-6.3-17.1  C159.6,502.2,166.6,483.6,173.3,463.7z"></path></g></svg>