<svg xmlns="http://www.w3.org/2000/svg" id="Layer_1" data-name="Layer 1" viewBox="0 0 279.9 184.9"><defs><style>.cls-1{fill:none;}.cls-2{fill:#fff;stroke:#3a66af;stroke-miterlimit:10;stroke-width:2px;}.cls-3{fill:#f9fbfc;}.cls-4{fill:#3a66af;}</style></defs><title>New 01_Domain Name_Transfer_01</title><rect class="cls-1" width="279.9" height="184.9"></rect><path class="cls-2" d="M214,81.41H74.2a9.87,9.87,0,0,1-9.79-9.8h0a9.86,9.86,0,0,1,9.79-9.79H214a9.85,9.85,0,0,1,9.79,9.79h0A9.81,9.81,0,0,1,214,81.41Z"></path><path class="cls-2" d="M214,81.41H186.16V61.82H214a9.85,9.85,0,0,1,9.79,9.79h0A9.81,9.81,0,0,1,214,81.41Z"></path><rect class="cls-3" x="204.55" y="70.93" width="0.99" height="1.61" transform="translate(9.33 166) rotate(-45)"></rect><path class="cls-4" d="M204.84,71.46a3.25,3.25,0,0,1-4.6-4.59,3.25,3.25,0,0,1,4.6,0A3.19,3.19,0,0,1,204.84,71.46Zm-3.91-3.91a2.33,2.33,0,1,0,3.29,0A2.32,2.32,0,0,0,200.93,67.55Z"></path><path class="cls-4" d="M209.2,75.9a.67.67,0,0,1-1,0L205.3,73a.7.7,0,0,1,1-1l2.91,2.91A.67.67,0,0,1,209.2,75.9Z"></path><rect class="cls-2" x="82.7" y="54.09" width="57.24" height="32.14"></rect><rect class="cls-2" x="125.65" y="94.32" width="5.43" height="16.15" transform="translate(-33.39 74.16) rotate(-28.68)"></rect><path class="cls-4" d="M130.3,100.38l-2.91-5.28a17.4,17.4,0,0,1-2.29,1.38,26.24,26.24,0,0,1-2.45,1.15l2.9,5.28c.85-.38,1.61-.77,2.45-1.22A8.42,8.42,0,0,0,130.3,100.38Z"></path><path class="cls-2" d="M94.41,40.39a33.83,33.83,0,1,0,45.91,13.47A33.84,33.84,0,0,0,94.41,40.39Zm29.54,54a27.74,27.74,0,1,1,11-37.66A27.72,27.72,0,0,1,124,94.42Z"></path><rect class="cls-2" x="138.86" y="106.5" width="9.57" height="47.75" transform="translate(-44.95 84.93) rotate(-28.68)"></rect><path class="cls-4" d="M99.38,74.44H96.55l-.76-3.82c-.16-.77-.23-1.53-.39-2.3a23,23,0,0,1-.38,2.3l-.84,3.9H91.35l-2-8.88h2.37l.69,4c.15.92.3,1.84.38,2.76.15-.92.31-1.84.54-2.76l.91-3.83h2.3l.84,3.83c.23.92.39,1.84.54,2.68.07-.92.23-1.76.38-2.68l.84-4h2.22Z"></path><path class="cls-4" d="M112.77,74.44h-2.83l-.76-3.82c-.16-.77-.23-1.53-.38-2.3a23,23,0,0,1-.39,2.3l-.84,3.9h-2.83l-2-8.88h2.45l.69,4c.15.92.3,1.84.38,2.76.15-.92.31-1.84.54-2.76l.91-3.83H110l.84,3.83c.23.92.38,1.84.54,2.68.07-.92.23-1.76.38-2.68l.84-4h2.14Z"></path><path class="cls-4" d="M126.17,74.44h-2.83l-.77-3.82c-.15-.77-.23-1.53-.38-2.3a23,23,0,0,1-.39,2.3l-.84,3.9h-2.83l-2-8.88h2.37l.69,4c.16.92.31,1.84.39,2.76.15-.92.3-1.84.53-2.76l.92-3.83h2.3l.84,3.83c.23.92.38,1.84.53,2.68.08-.92.23-1.76.39-2.68l.84-4h2.14Z"></path></svg>