<svg xmlns="http://www.w3.org/2000/svg" id="Layer_1" data-name="Layer 1" viewBox="0 0 279.9 184.9"><defs><style>.cls-1{fill:none;}.cls-2{fill:#fff;stroke:#3a66af;stroke-miterlimit:10;stroke-width:2px;}.cls-3{fill:#f9fbfc;}.cls-4{fill:#3a66af;}</style></defs><title>NEW_Domain Name_Transfer</title><rect class="cls-1" width="279.9" height="184.9"></rect><path class="cls-2" d="M234.54,85.7H62.24A12.16,12.16,0,0,1,50.17,73.63h0A12.16,12.16,0,0,1,62.24,61.56h172.3a12.16,12.16,0,0,1,12.07,12.07h0A12.1,12.1,0,0,1,234.54,85.7Z"></path><path class="cls-2" d="M234.54,85.7H200.22V61.56h34.32a12.16,12.16,0,0,1,12.07,12.07h0A12.1,12.1,0,0,1,234.54,85.7Z"></path><rect class="cls-3" x="222.87" y="72.79" width="1.23" height="1.98" transform="translate(13.29 179.64) rotate(-45)"></rect><path class="cls-4" d="M223.23,73.44a4,4,0,1,1-5.66-5.66,4,4,0,0,1,5.66,0A3.94,3.94,0,0,1,223.23,73.44Zm-4.81-4.81a2.86,2.86,0,1,0,4.05,0A2.83,2.83,0,0,0,218.42,68.63Z"></path><path class="cls-4" d="M228.6,78.91a.79.79,0,0,1-1.22,0l-3.59-3.58A.87.87,0,0,1,225,74.1l3.58,3.58A.8.8,0,0,1,228.6,78.91Z"></path><rect class="cls-2" x="72.71" y="52.03" width="70.54" height="39.61"></rect><rect class="cls-2" x="125.64" y="101.62" width="6.7" height="19.9" transform="translate(-37.72 75.59) rotate(-28.68)"></rect><path class="cls-4" d="M131.37,109.09l-3.58-6.51a23,23,0,0,1-2.83,1.7,29.92,29.92,0,0,1-3,1.41l3.58,6.51c1-.47,2-.94,3-1.51A10.51,10.51,0,0,0,131.37,109.09Z"></path><path class="cls-2" d="M87.14,35.15a41.7,41.7,0,1,0,56.59,16.6A41.71,41.71,0,0,0,87.14,35.15Zm36.4,66.58a34.18,34.18,0,1,1,13.58-46.4A34.14,34.14,0,0,1,123.54,101.73Z"></path><rect class="cls-2" x="141.93" y="116.62" width="11.79" height="58.85" transform="translate(-51.95 88.86) rotate(-28.68)"></rect><path class="cls-4" d="M93.27,77.12H89.78l-.94-4.72c-.19-.94-.28-1.88-.47-2.83-.1,1-.29,1.89-.47,2.83l-1,4.81H83.37L80.92,66.27h2.92l.85,4.91c.19,1.13.38,2.26.47,3.39.19-1.13.38-2.26.66-3.39L87,66.46h2.83l1,4.72c.28,1.13.47,2.26.66,3.3.09-1.14.28-2.17.47-3.3l1-4.91h2.73Z"></path><path class="cls-4" d="M109.78,77.12h-3.49l-1-4.72c-.19-.94-.28-1.88-.47-2.83a27.37,27.37,0,0,1-.47,2.83l-1,4.81H99.87L97.42,66.27h3l.85,4.91c.19,1.13.37,2.26.47,3.39.19-1.13.38-2.26.66-3.39l1.13-4.72h2.83l1,4.72c.28,1.13.47,2.26.66,3.3.09-1.14.28-2.17.47-3.3l1-4.91h2.64Z"></path><path class="cls-4" d="M126.28,77.12h-3.49l-.94-4.72c-.19-.94-.29-1.88-.48-2.83a27.37,27.37,0,0,1-.47,2.83l-1,4.81h-3.49l-2.46-10.94h2.93l.85,4.91c.19,1.13.37,2.26.47,3.39.19-1.13.38-2.26.66-3.39L120,66.46h2.83l1,4.72c.28,1.13.47,2.26.66,3.3.09-1.14.28-2.17.47-3.3l1-4.91h2.64Z"></path></svg>