<svg xmlns="http://www.w3.org/2000/svg" id="Layer_1" data-name="Layer 1" viewBox="0 0 279.9 184.9"><defs><style>.cls-1{fill:none;}.cls-2{fill:#fff;stroke:#3a66af;stroke-miterlimit:10;stroke-width:2px;}.cls-3{fill:#f9fbfc;}.cls-4{fill:#3a66af;}</style></defs><title>NEW_Domain Name_Transfer</title><rect class="cls-1" width="279.9" height="184.9"></rect><path class="cls-2" d="M221.17,80H67.05A10.87,10.87,0,0,1,56.26,69.23h0a10.87,10.87,0,0,1,10.79-10.8H221.17A10.87,10.87,0,0,1,232,69.23h0A10.82,10.82,0,0,1,221.17,80Z"></path><path class="cls-2" d="M221.17,80h-30.7V58.43h30.7A10.87,10.87,0,0,1,232,69.23h0A10.82,10.82,0,0,1,221.17,80Z"></path><rect class="cls-3" x="210.73" y="68.48" width="1.1" height="1.77" transform="translate(12.84 169.71) rotate(-45)"></rect><path class="cls-4" d="M211.05,69.06A3.58,3.58,0,0,1,206,64a3.58,3.58,0,0,1,5.06,0A3.52,3.52,0,0,1,211.05,69.06Zm-4.3-4.31a2.56,2.56,0,1,0,3.62,0A2.54,2.54,0,0,0,206.75,64.75Z"></path><path class="cls-4" d="M215.86,74a.72.72,0,0,1-1.1,0l-3.21-3.21a.77.77,0,0,1,1.1-1.09l3.21,3.2A.73.73,0,0,1,215.86,74Z"></path><rect class="cls-2" x="76.42" y="49.91" width="63.1" height="35.43"></rect><rect class="cls-2" x="123.76" y="94.26" width="5.99" height="17.8" transform="translate(-33.96 73.49) rotate(-28.68)"></rect><path class="cls-4" d="M128.89,100.94l-3.21-5.82a19.94,19.94,0,0,1-2.53,1.52,26.83,26.83,0,0,1-2.7,1.27l3.21,5.82c.92-.42,1.77-.85,2.7-1.35A9.59,9.59,0,0,0,128.89,100.94Z"></path><path class="cls-2" d="M89.32,34.81a37.3,37.3,0,1,0,50.62,14.84A37.3,37.3,0,0,0,89.32,34.81Zm32.56,59.55A30.58,30.58,0,1,1,134,52.86,30.55,30.55,0,0,1,121.88,94.36Z"></path><rect class="cls-2" x="138.33" y="107.69" width="10.54" height="52.64" transform="translate(-46.69 85.35) rotate(-28.68)"></rect><path class="cls-4" d="M94.81,72.35H91.68l-.84-4.22c-.17-.84-.25-1.69-.42-2.53A24.71,24.71,0,0,1,90,68.13l-.93,4.3H86l-2.19-9.78h2.61L87.13,67c.17,1,.34,2,.42,3,.17-1,.34-2,.59-3l1-4.22h2.53L92.61,67c.26,1,.42,2,.59,3,.09-1,.26-1.94.43-3l.92-4.38H97Z"></path><path class="cls-4" d="M109.57,72.35h-3.12l-.85-4.22c-.17-.84-.25-1.69-.42-2.53a24.71,24.71,0,0,1-.42,2.53l-.93,4.3h-3.12l-2.19-9.78h2.7L102,67c.17,1,.33,2,.42,3,.17-1,.34-2,.59-3l1-4.22h2.53l.93,4.22c.25,1,.42,2,.59,3,.08-1,.25-1.94.42-3l.93-4.38h2.36Z"></path><path class="cls-4" d="M124.33,72.35h-3.12l-.84-4.22c-.17-.84-.26-1.69-.43-2.53a24.71,24.71,0,0,1-.42,2.53l-.93,4.3h-3.12l-2.19-9.78h2.62l.75,4.38c.17,1,.34,2,.43,3,.16-1,.33-2,.59-3l1-4.22h2.53l.93,4.22c.25,1,.42,2,.59,3,.08-1,.25-1.94.42-3l.93-4.38h2.36Z"></path></svg>