<svg xmlns="http://www.w3.org/2000/svg" id="Layer_1" data-name="Layer 1" viewBox="0 0 279.94 184.9"><defs><style>.cls-1{fill:#8c7f70;}.cls-2{fill:#b6c9df;}.cls-3{fill:#d4d4d2;}.cls-4{fill:#816d5a;}.cls-5{fill:#f4e9cb;}.cls-6{fill:#766b56;}.cls-7{fill:#dedede;}.cls-8{fill:#d6c29d;}.cls-9{fill:#675e50;}.cls-10{fill:#a8a7a5;}.cls-11{fill:#c4bfb8;}.cls-12{fill:#efefef;}.cls-13{fill:#888;}.cls-14{fill:#fbfbfa;}.cls-15{fill:#c77e5b;}</style></defs><title>search 01</title><path class="cls-1" d="M129.84,167c.31-3.64.67-7.28.91-10.93.41-6.1.6-12.2.87-18.3.24-5.48,1.87-10.73,3.4-16a3,3,0,0,1,1,.05c4.7,2.12,9.17.9,13.6-.92a.94.94,0,0,0,.75.5c.56,6.38.76,12.81,2.29,19,1.67,6.8,3.09,13.64,4.39,20.51.22,1.11.51,2.27-.26,3.32-1.66-.08-3.32.83-5-.05-.73-1.19-.73-2.61-1.21-3.88q-3.89-10.53-7.78-21.05c-.2-.55-.26-1.24-1-1.65-.52,2.05-1.13,4-1.48,6-1.37,7.71-2.81,15.41-4.63,23-.17.71-.29,1.4-1.08,1.69A10.56,10.56,0,0,1,129.84,167Z"></path><path class="cls-2" d="M149.66,121c-4.43,1.82-8.9,3-13.6.92a3,3,0,0,0-1-.05h0c0-.26-.16-.33-.36-.38-2.07-1.25.27-1.71.46-2.56.76-.07.85-.75,1.08-1.26a22.24,22.24,0,0,0,2-9.78L138.3,95a2.13,2.13,0,0,0,.28-.62c.35-2.93.35-2.94,3.13-2.36a.48.48,0,0,0,.17,0c2.48.09,5.06.55,7.34-2-1.61.46-2.53,1.4-3.81,1.42a20,20,0,0,1-6.82-.88c-2.24-.73-4.37-1.84-6.78-2h0a2.21,2.21,0,0,1-1.11-3.16,3.58,3.58,0,0,0,.4-2.22h0c.52,0,.68-.28.7-.73,0-.19.08-.39.11-.58l.65-.14a.94.94,0,0,0,1.42.1h.7c3.53.81,7,1.77,10.6,2.36,2.39.41,3.94,1.23,4.64,3.42,1.4,4.38,1.4,8.9,1.09,13.39-.36,5.2-1.09,10.38-.88,15.59A12.25,12.25,0,0,1,149.66,121Z"></path><path class="cls-3" d="M211.13,55.73a1.66,1.66,0,0,1-1.52,1.3c-2.18-.23-4.13.78-6.27.87-7.15.3-14.3.87-21.44,1.34a4.87,4.87,0,0,1-.54,0c-5.64-.24-11.28.23-16.92.39q-18.9.54-37.81.27c-4.69-.07-9.38-.27-14.07-.31a10.76,10.76,0,0,1-1.91-.38c.49-.84.51-1.95,1.52-2.47a.92.92,0,0,0,.75.4c5.25.66,10.54.5,15.81.61,8.43.18,16.87.27,25.31-.15,4.91-.25,9.84-.58,14.77-.49,1.14,0,2.41-.05,3.05-1.34Z"></path><path class="cls-4" d="M112.17,56.76c-1,.52-1,1.63-1.52,2.47-.23.31-.87.71-.5,1,.84.57,1.44,1.81,2.61,1.55a6,6,0,0,1,4.06.86l.06.57c-.14.15-.29.3-.44.44-1.39-.79-2.8-1.81-4.26-.15-.57.66-1,1.43-1.54,2.14a2.33,2.33,0,0,0,.55,3.45c2.37,1.84,4.89,3.49,7.36,5.19.56.39,1.12.53,1.17-.47.4,1,1.32,1.79.71,3-3-2.12-6-4.26-9-6.36A4.36,4.36,0,0,1,109.2,67c-.11-1.56-2.74-2.77-3.88-1.89C91.76,75.51,73.7,71.35,66,56c-.08-.16-.18-.3-.27-.45l-.39-1.29a26,26,0,0,1-1.57-11.36c.22-2.61,1.3-5,1.58-7.59l0,0c.35.11.33-.15.36-.35.41-.22.37-.62.4-1a31,31,0,0,1,8.35-9.59C87,15.53,105.12,20,111.8,33.66c.25.44.49.89.73,1.34a25.36,25.36,0,0,1,1.77,14.61c-.33,1.79-.9,3.54-1.36,5.3l-.06.79A1,1,0,0,0,112.17,56.76Zm1.46-11.55c.27-13.29-11.2-24.72-24.79-24.45A24.3,24.3,0,0,0,64.72,45.34c.07,14.47,11,24.25,24,24.52A24.2,24.2,0,0,0,113.63,45.21Zm-2.25,17.57c0-.48-1.21-1.62-1.73-1.66-.36,0-2.47,2.1-2.34,2.45a2.21,2.21,0,0,0,2.09,1.37C110.62,64.92,110.74,63.48,111.38,62.78Z"></path><path class="cls-5" d="M120.43,76.75c.61-1.19-.31-2-.71-3-1.68-2.71-2.17-5.86-3.29-8.78l1.41,1.15V64.68c.28.16.65.52.84.45.4-.17.13-.59.07-.92-.15-.87,0-1,.2-.9.87.73.58-.62,1.1-.54.81,1.07.3,2.81,1.72,3.6l.58.41.56.39,0,0c0,1-.09,1.92-.14,2.88-1.26.32-.91,1.1-.55,1.89a12.4,12.4,0,0,0,2.34,3.86l.48.35h0a.77.77,0,0,0,.39.71h0l.37.38,0,0c0,.21.13.37.38.37h0a.76.76,0,0,0,.39.72l0,0,.38.38h0a1.5,1.5,0,0,0,.72,1.07h0c.19.7.23,1.5,1.09,1.8l0,0c.67.91,1.85.4,2.65.95l-.07.73h0c-.79,2.77-2.24,4.27-5.27,2.76-.46-.31-.88-.75-1.52-.61h0c0-.26-.11-.38-.37-.37h0c0-.25-.1-.38-.37-.37h0c-.26-2.71-1.59-5.08-2.47-7.59,0-.14-.37-.18-.57-.27ZM118.17,66.6l-.09-.12s-.1.07-.1.11,0,.08.08.13Z"></path><path class="cls-6" d="M156.82,164.62a7,7,0,0,1,1.64,4.54,1.93,1.93,0,0,1-1.34,2.07c-1.27.48-2.55.92-3.83,1.37l-2.87.71c-.66-.23-1.18.26-1.79.31-1.82.13-3.69,1-5.4-.38-.39-1.21.53-1.65,1.29-2.2,2.51-1.79,5.51-2.95,7.31-5.66a6.37,6.37,0,0,0,1.64.63C154.79,166.12,156.27,166.42,156.82,164.62Z"></path><path class="cls-6" d="M119,172.44c-.81-1.64-.63-2.05,1.15-2.38s3.88-.61,5.8-1a7,7,0,0,0,3.69-1.64c1.06,2,2,2.45,4.47,2.1l.45.18a14.7,14.7,0,0,1-.26,3.56,2.58,2.58,0,0,1-3.12,1.84,8.21,8.21,0,0,0-1.56.06L123.21,174A14.89,14.89,0,0,1,119,172.44Z"></path><path class="cls-7" d="M119,172.44a14.89,14.89,0,0,0,4.18,1.58c-1.76.21-3.54-.06-5.28.45-.39.11-.89,0-1,.47s.45.75.94.79a106.54,106.54,0,0,0,15.36.69h1.05c.32.49.83.39,1.29.39h14.56c.46,0,1,.1,1.28-.39h1.06c2,0,4,0,5.95,0,.59,0,1.33-.26,1.64.59-10,.88-19.94.51-29.9.37-5.14-.07-10.29-.27-15.43-.63-3.12-.22-6.23-.54-9.34-.9-.45-.06-1.39.14-1.37-.76s.77-.73,1.35-.82a95.69,95.69,0,0,1,11.46-1.05C117.69,173.23,118.6,173.46,119,172.44Z"></path><path class="cls-8" d="M153.77,70c.31.38.92.51.94,1.14-.21,0-.61.12-.45.31,1.37,1.68.58,3.37.09,5.07h0a.64.64,0,0,0-.36.72h0l-1.12.32c-.2-1.22.47-2.56-.7-4.11a6.26,6.26,0,0,1,.09,3.65c-.15.36.37.34.61.46l-.32.76h0l-.92,0c-.42-.18-.85-1.31-1.24,0h0l-.38.36c-.45.07-.67.89-1.2.52-.35-.8,1.09-.91.47-1.69-.34-.43-.74,0-1.12.06-.26-1,.71-1.75.39-2.71l.42-.52a1.27,1.27,0,0,0,.34,0s0,.1.08.13.07,0,.11,0l-.2-.13a.34.34,0,0,0-.35-.37h0a.66.66,0,0,0-.37-.73h0c-.14-.37-.27-.27-.4,0-1.42.7-2.84-.07-4.26,0h0l-.35-.35h0c.21-.58-1-1.44.34-1.8,0,.29,0,.59.38.74l.12.44.18-.12-.27-.35-.05-1.05c-.31-1.48,1.2-1.46,1.83-2.12a3,3,0,0,1,3.62-.69C151.17,68.48,152.39,69.36,153.77,70Zm-1.94,2.92-.15-.17s0,.08,0,.1a.4.4,0,0,0,.13.07.39.39,0,0,0,.07.16s.08,0,.12,0Zm-4.09-3.35-.47,0a4.87,4.87,0,0,0,1,3Zm3.51,5.54c-.2,0-.4.1-.23.3a.65.65,0,0,0,.43.21.19.19,0,0,0,.18-.31C151.55,75.14,151.36,75.11,151.25,75.06Zm-.95-.21-.1-.06,0,.09Z"></path><path class="cls-9" d="M211.13,55.73l-39.27.06c-.77,0-1.53-.1-2.3-.1H114.35c0-.26,0-.51,0-.76.47,0,1-.06,1.42-.06q33.93,0,67.87,0c9.4,0,18.81.2,28.21-.14l.38.67Z"></path><path class="cls-1" d="M112.53,35c-.24-.45-.48-.9-.73-1.34a7.25,7.25,0,0,0,3,.2h72.4a9.38,9.38,0,0,1,1.05.12c-.63.53-1.37.28-2.06.28l-70.08,0c-.71,0-1.56-.37-2.14.43Z"></path><path class="cls-5" d="M148.57,74.77c.32,1-.65,1.75-.39,2.71-.59.48-1.27.89-1.45,1.73-.13.1-.28.21-.06.36a2.26,2.26,0,0,0,.22-.2,11.52,11.52,0,0,1,1.25,4c.08.32.23.91-.23.83a39,39,0,0,1-4.11-1c-.91-.26-.38-1.11-.6-1.66-.15-.39-.29-.79-.81-.79a.55.55,0,0,1-.59-.44c.12-1.18,1.65-.62,2.08-1.75l-3.55,1c.25-1.74.48-3.29.71-4.83l.88-.12a3.26,3.26,0,0,0,.61-2.45h0c.42.16.48.82,1.06.74h0a.31.31,0,0,0,.35.35h0c.7.93,2.27,1.57,1,3.12-.06.09-.19.23-.17.26.14.21.27.09.37-.06.83-.06,1.29-.68,1.81-1.2S147.84,74.44,148.57,74.77Zm-3.25,3.28s-.07-.1-.11-.1-.08.06-.12.09.07.09.11.1S145.28,78.08,145.32,78.05Zm-.82.47.12-.1s-.07-.09-.11-.1-.08.06-.12.09Z"></path><path class="cls-10" d="M142.39,80.73c.52,0,.66.4.81.79.22.55-.31,1.4.6,1.66a39,39,0,0,0,4.11,1c.46.08.31-.51.23-.83a11.52,11.52,0,0,0-1.25-4c0-.06-.11-.11-.17-.17.19-.83.87-1.24,1.46-1.72.38,0,.78-.49,1.12-.06.62.78-.82.89-.47,1.69.53.37.75-.45,1.2-.52l.38-.36h0c.41,0,.83.39,1.24,0l.92,0c-.51,1.2-1.67,1.11-2.67,1.35-1.31.31-1.82,1-1.5,2.41.62,2.85,2.43,5.25,2.82,8.19a69,69,0,0,1,.09,13.25c-.31,5.22-1.15,10.49-.24,15.75a2.6,2.6,0,0,1-.65,2.25.94.94,0,0,1-.75-.5,12.25,12.25,0,0,0,.47-4.32c-.21-5.21.52-10.39.88-15.59.31-4.49.31-9-1.09-13.39-.7-2.19-2.25-3-4.64-3.42-3.56-.59-7.07-1.55-10.6-2.36l.24-.41a65.46,65.46,0,0,0,6.74,1.26C143.47,82.88,142.26,81.45,142.39,80.73Z"></path><path class="cls-9" d="M114,34.73c.58-.8,1.43-.43,2.14-.43l70.08,0c.69,0,1.43.25,2.06-.28h1.46a3,3,0,0,0,2.83,0h.74c.56.5,1.24.28,1.87.28,4.51,0,9,0,13.52,0a5.75,5.75,0,0,0,2.79-.22l.68.2.05.8a26.12,26.12,0,0,0-2.65-.26H116.29C115.51,34.78,114.74,34.75,114,34.73Z"></path><path class="cls-11" d="M160.11,177.05c-.31-.85-1.05-.57-1.64-.59-2,0-4,0-5.95,0,.29-1,1.14-.61,1.78-.66,1.85-.14,3.79.33,5.88-.84a32.4,32.4,0,0,0-7.49-.62c-.59,0-1.36.29-1.6-.65l7.92-.1c1,.2,1.85-.28,2.79-.26.11.61.56.65,1.06.68,1.82.1,3.63.23,5.44.36.63,0,1.53,0,1.52.81s-.88.57-1.44.6a38.74,38.74,0,0,1-5.79.37c-.7-.06-1.15.19-1.2.94Z"></path><path class="cls-7" d="M161.39,177.05c.05-.75.5-1,1.2-.94a38.74,38.74,0,0,0,5.79-.37c.56,0,1.43.15,1.44-.6s-.89-.77-1.52-.81c-1.81-.13-3.62-.26-5.44-.36-.5,0-1-.07-1.06-.68l5,0a.69.69,0,0,0,.74.32l5.33,0c.27.42.69.34,1.09.33l2.49,0a2.11,2.11,0,0,0,.58.33c.47.11,1.13-.09,1.16.71s-.59.71-1.1.76a.7.7,0,0,0-.66.67h-1.77a.6.6,0,0,0-1.07,0,26.18,26.18,0,0,0-5,.35c-.24-.36-.48-.35-.72,0A52.41,52.41,0,0,0,161.39,177.05Z"></path><path class="cls-10" d="M125.83,86c3,1.51,4.48,0,5.27-2.76a3.58,3.58,0,0,1-.4,2.22,2.21,2.21,0,0,0,1.11,3.16c-.78,0-1.51,0-1.94-.84-.07-.13-.4-.17-.6-.17s-.25.32-.2.4c.22.44.08,1.28.71,1.24s1.75.77,2-.64c2.41.15,4.54,1.26,6.78,2a20,20,0,0,0,6.82.88c1.28,0,2.2-1,3.81-1.42-2.28,2.59-4.86,2.13-7.34,2a.48.48,0,0,1-.17,0c-2.78-.58-2.78-.57-3.13,2.36a2.13,2.13,0,0,1-.28.62l-.36,0a6.77,6.77,0,0,1,.22-2.45c.15-.54.32-1.26-.41-1.55-1.64-.63-3.19-1.55-5.06-1.39A2,2,0,0,0,131,90.87c-.93,1.63-.36,3.21-.17,4.82l-.16.15c-1.64-.56-3.51-.3-5-1.4l.18-.21c1.1.23,2.2.47,3.3.69.55.12,1.06,0,.82-.67a4.7,4.7,0,0,1,.33-3.28c.12-.33.29-.8-.18-.89-1.32-.26-1.49-1.17-1.49-2.26,0-.69-.58-.83-1.1-.95a3.91,3.91,0,0,1-1.78-.71Z"></path><path class="cls-1" d="M212.19,35.05l-.05-.8a4.77,4.77,0,0,1,3.77,4.57q.18,6,0,12a4.77,4.77,0,0,1-3.72,4.62l-.38-.67c2.36-1.06,3.24-2.92,3.17-5.44-.09-3-.08-5.94,0-8.91A5.39,5.39,0,0,0,212.19,35.05Z"></path><path class="cls-6" d="M66.12,34c0,.36,0,.76-.4,1-.2,0-.38.09-.36.35l0,0c-2.06.43-2.76,2-2.81,3.78-.11,3.8-.08,7.6,0,11.39a3.76,3.76,0,0,0,2.82,3.78l.39,1.29c-2.84-1-4.09-2.55-4.13-5.51q-.07-5.34,0-10.68A5.16,5.16,0,0,1,66.12,34Z"></path><path class="cls-4" d="M134.92,81.46l-.24.41H134l-1.06-.2c.29-.31.84-.12,1-.57,1.87-2.74,1.85-3.85-.17-5.26-2.95-2.07-6-4-8.86-6.18-1-.74-1.6-.62-2.18.36,0-1,.09-1.92.14-2.88L125.74,69c.61,1,1.62.52,2.46.68a2.44,2.44,0,0,0,1.3,2c1.36.94,2.7,1.91,4.06,2.85C136.93,76.87,137.16,78,134.92,81.46Z"></path><path class="cls-4" d="M109.86,25.35c-.21-.18-.44-.3-.54-.49-.21-.37,0-.68.28-.93.59-.5,1.19-1,1.78-1.47q3.57-3,7.13-5.89c.44-.37,1-.94,1.5-.23s-.18.95-.58,1.28l-8.51,7C110.6,24.89,110.25,25.09,109.86,25.35Z"></path><path class="cls-4" d="M106.34,21.89c-.58-.06-.74-.51-.52-1,1.21-2.76,2.45-5.51,3.7-8.25a.63.63,0,0,1,.87-.38.72.72,0,0,1,.34,1.05L107.1,21.4A.79.79,0,0,1,106.34,21.89Z"></path><path class="cls-4" d="M112.72,28.44c-.51,0-1,0-1.1-.59s.47-.73.95-.8c2.29-.35,4.57-.69,6.86-1,.47-.07,1-.17,1.17.46s-.36.82-.85.89C117.41,27.75,115.06,28.09,112.72,28.44Z"></path><path class="cls-10" d="M143.59,72.88c-.58.08-.64-.58-1.06-.74.6-3.83,5.28-6.22,9-4.81A3.59,3.59,0,0,1,153.77,70c-1.38-.59-2.6-1.47-4-2a3,3,0,0,0-3.62.69c-.63.66-2.14.64-1.83,2.12l-.36.34C142.55,71.44,143.8,72.3,143.59,72.88Z"></path><path class="cls-1" d="M211.46,34.05a5.75,5.75,0,0,1-2.79.22c-4.51,0-9,0-13.52,0-.63,0-1.31.22-1.87-.28C199.34,33.82,205.4,33.7,211.46,34.05Z"></path><path class="cls-12" d="M176.46,176.43a.7.7,0,0,1,.66-.67c.51,0,1.13,0,1.1-.76s-.69-.6-1.16-.71a2.11,2.11,0,0,1-.58-.33c.64-.73,1.31-.1,2,0,1.35.15,2.7.26,4,.45.38.05.89.17.94.66s-.42.64-.84.69C180.54,176,178.54,176.59,176.46,176.43Z"></path><path class="cls-10" d="M121.77,66.37c-1.42-.79-.91-2.53-1.72-3.6-.52-.08-.23,1.27-1.1.54-.19-.15-.35,0-.2.9.06.33.33.75-.07.92-.19.07-.56-.29-.84-.45h0c.06-.33.06-.63-.36-.73v0c0-.32,0-.62-.37-.74a.87.87,0,0,1-.28,0l-.06-.57a3,3,0,0,1,2.74-.7c1.43.38,1.27,1.54,1.65,2.44A15.19,15.19,0,0,1,121.77,66.37Z"></path><path class="cls-10" d="M138.21,107.85a22.24,22.24,0,0,1-2,9.78c-.23.51-.32,1.19-1.08,1.26,1.77-3.46,2.15-7.26,2.66-11Z"></path><path class="cls-5" d="M134.14,169.51c-2.51.35-3.41-.07-4.47-2.1.05-.13.11-.26.17-.4a10.56,10.56,0,0,0,4.86,1.38c0,.3,0,.59,0,.89Z"></path><path class="cls-5" d="M156.82,164.62c-.55,1.8-2,1.5-3.35,1.39a6.37,6.37,0,0,1-1.64-.63l0-1.1c1.65.88,3.31,0,5,.05A.48.48,0,0,1,156.82,164.62Z"></path><path class="cls-10" d="M141,74.72c-.23,1.54-.46,3.09-.71,4.83l3.55-1c-.43,1.13-2,.57-2.08,1.75-1.53,0-2.36-.42-1.83-2.18A6.4,6.4,0,0,0,140,76C140,75.25,140.18,74.74,141,74.72Z"></path><path class="cls-10" d="M124.31,85.38c.64-.14,1.06.3,1.52.61l-.12.16c-.28,0-.8-.13-.76.18.28,2.52-.46,5.11.5,7.57l-.22.21a3,3,0,0,1-.92-2.55C124.3,89.5,124.31,87.44,124.31,85.38Z"></path><path class="cls-7" d="M159,173.55l-7.92.1-.7,0a1.82,1.82,0,0,0,0-.32l2.87-.71c1.34.62,2.76.14,4.13.29C158,173,158.77,172.64,159,173.55Z"></path><path class="cls-13" d="M138.21,107.85h-.41c0-3.21,0-6.42.06-9.64,0-.58.15-1.23-.64-1.47.25-.32.78-.45.69-1l0-.71.36,0Z"></path><path class="cls-10" d="M120.56,76.81c.2.09.52.13.57.27.88,2.51,2.21,4.88,2.47,7.59C122.19,82.2,121.55,79.44,120.56,76.81Z"></path><path class="cls-10" d="M137.91,95.75c.09.55-.44.68-.69,1a34.29,34.29,0,0,0-5.45-.31c-.49,0-1,0-1.14-.6l.16-.15c1,0,2,.1,3,0C135.16,95.64,136.53,96.61,137.91,95.75Z"></path><path class="cls-10" d="M154.35,76.47c.49-1.7,1.28-3.39-.09-5.07-.16-.19.24-.28.45-.31.83,1.59,1.63,3.18.32,4.92C154.85,76.25,154.72,76.52,154.35,76.47Z"></path><path class="cls-10" d="M128.2,69.68c-.84-.16-1.85.29-2.46-.68.54-1.35,1.51-.49,2.27-.39S128.27,69.29,128.2,69.68Z"></path><path class="cls-1" d="M192.54,34a3,3,0,0,1-2.83,0A6.75,6.75,0,0,1,192.54,34Z"></path><path class="cls-10" d="M142.53,72.15a3.26,3.26,0,0,1-.61,2.45A2.13,2.13,0,0,1,142.53,72.15Z"></path><path class="cls-10" d="M152.56,78.26l.32-.76h0l1.12-.32A1.43,1.43,0,0,1,152.56,78.26Z"></path><path class="cls-12" d="M174,173.94c-.4,0-.82.09-1.09-.33C173.48,173,173.82,173.2,174,173.94Z"></path><path class="cls-12" d="M173.62,176.46a.6.6,0,0,1,1.07,0C174.34,176.92,174,176.92,173.62,176.46Z"></path><path class="cls-12" d="M167.57,173.57a.69.69,0,0,1-.74-.32C167.36,172.7,167.47,173.13,167.57,173.57Z"></path><path class="cls-12" d="M167.9,176.81c.24-.35.48-.36.72,0C168.38,177.18,168.15,177.18,167.9,176.81Z"></path><path class="cls-10" d="M154,77.18a.64.64,0,0,1,.36-.72C154.5,76.83,154.32,77,154,77.18Z"></path><path class="cls-10" d="M123.59,84.66c.27,0,.38.12.37.37A.36.36,0,0,1,123.59,84.66Z"></path><path class="cls-10" d="M125.63,94.44l-.4-.33.22-.21.36.33Z"></path><path class="cls-1" d="M134.68,121.45c.2,0,.38.12.36.38Z"></path><path class="cls-4" d="M122.91,67.17l-.56-.39Z"></path><path class="cls-10" d="M124,85c.26,0,.38.11.37.37A.36.36,0,0,1,124,85Z"></path><path class="cls-14" d="M151.86,164.28l0,1.1c-1.8,2.71-4.8,3.87-7.31,5.66-.76.55-1.68,1-1.29,2.2h-8.9a14.7,14.7,0,0,0,.26-3.56l.1-.41c0-.3,0-.59,0-.89.79-.29.91-1,1.08-1.69,1.82-7.62,3.26-15.32,4.63-23,.35-2,1-3.92,1.48-6,.72.41.78,1.1,1,1.65q3.91,10.52,7.78,21.05C151.13,161.67,151.13,163.09,151.86,164.28Z"></path><path class="cls-1" d="M131.17,82.49c-.8-.55-2,0-2.65-.95,1.11-.12,2.17.5,3.29.25l.11.12-.12.58Z"></path><path class="cls-1" d="M134,81.1c-.2.45-.75.26-1,.57l-.36.1-.65.14-.1-.12C132.21,80.56,133.25,81.33,134,81.1Z"></path><path class="cls-10" d="M131.17,82.49h.63c0,.45-.18.77-.7.73Z"></path><path class="cls-10" d="M132.56,81.77l.36-.1,1.06.2A.94.94,0,0,1,132.56,81.77Z"></path><path class="cls-10" d="M114.35,55.69h55.21c.77,0,1.53.06,2.3.1-.64,1.29-1.91,1.35-3.05,1.34-4.93-.09-9.86.24-14.77.49-8.44.42-16.88.33-25.31.15-5.27-.11-10.56,0-15.81-.61a.92.92,0,0,1-.75-.4,1,1,0,0,1,.71-1.06Z"></path><path class="cls-14" d="M212.19,35.05A5.39,5.39,0,0,1,215,40.37c-.08,3-.09,5.94,0,8.91.07,2.52-.81,4.38-3.17,5.44-9.4.34-18.81.12-28.21.14q-33.93.06-67.87,0c-.47,0-1,0-1.42.06-.46-.35-.93.19-1.39,0,.46-1.76,1-3.51,1.36-5.3A25.36,25.36,0,0,0,112.53,35l1.44-.27c.77,0,1.54.05,2.32.05h93.25A26.12,26.12,0,0,1,212.19,35.05ZM200.81,38c-2.21.19-3.74,1.05-4.59,2.92a4.37,4.37,0,0,0,.79,5,4.09,4.09,0,0,0,4.8,1.38,2.53,2.53,0,0,1,3.34.88c1,1.12,2.09,2.11,3.15,3.14.23.23.5.65.88.29s0-.65-.2-.9c-1.21-1.23-2.37-2.51-3.67-3.63a1.66,1.66,0,0,1-.48-2.37A4.68,4.68,0,0,0,200.81,38Zm-7.87,6.54c0-2.5,0-5,0-7.49,0-.43.2-1.11-.47-1.14s-.54.65-.54,1.09q0,7.58,0,15.15c0,.43-.17,1.12.56,1s.43-.75.43-1.17C192.94,49.51,192.93,47,192.94,44.52Z"></path><path class="cls-15" d="M113.63,45.21A24.2,24.2,0,0,1,88.71,69.86c-13-.27-23.92-10-24-24.52A24.3,24.3,0,0,1,88.84,20.76C102.43,20.49,113.9,31.92,113.63,45.21ZM89.21,25c-11-.43-20.38,9.55-20.39,20.26,0,10.9,9.21,20.38,19.93,20.47a20.37,20.37,0,0,0,20.87-20.61C109.65,34.42,100.47,24.65,89.21,25Z"></path><path class="cls-15" d="M116.43,65c1.12,2.92,1.61,6.07,3.29,8.78,0,1-.61.86-1.17.47-2.47-1.7-5-3.35-7.36-5.19a2.33,2.33,0,0,1-.55-3.45c.52-.71,1-1.48,1.54-2.14,1.46-1.66,2.87-.64,4.26.15A1.28,1.28,0,0,0,116.43,65Z"></path><path class="cls-12" d="M65.38,54.3a3.76,3.76,0,0,1-2.82-3.78c-.06-3.79-.09-7.59,0-11.39.05-1.8.75-3.35,2.81-3.78-.28,2.58-1.36,5-1.58,7.59A26,26,0,0,0,65.38,54.3Z"></path><path class="cls-10" d="M111.38,62.78c-.64.7-.76,2.14-2,2.16a2.21,2.21,0,0,1-2.09-1.37c-.13-.35,2-2.48,2.34-2.45C110.17,61.16,111.42,62.3,111.38,62.78Z"></path><path class="cls-1" d="M116.43,65a1.28,1.28,0,0,1,0-1.38c.15-.14.3-.29.44-.44a.87.87,0,0,0,.28,0c0,.29,0,.62.37.74v0c0,.32-.1.65.36.73h0v1.46Z"></path><path class="cls-1" d="M112.94,54.91c.46.21.93-.33,1.39,0,0,.25,0,.5,0,.76h-1.47Z"></path><path class="cls-12" d="M65.36,35.37c0-.26.16-.31.36-.35C65.69,35.22,65.71,35.48,65.36,35.37Z"></path><path class="cls-15" d="M134,81.1c-.71.23-1.75-.54-2.15.69-1.12.25-2.18-.37-3.29-.25l0,0a1.81,1.81,0,0,0-1.09-1.8h0c.06-.55.08-1.09-.72-1.07h0l-.38-.38,0,0c0-.31,0-.6-.39-.72h0c-.13-.12-.26-.24-.38-.37l0,0c-.12-.13-.24-.26-.37-.38h0c0-.31,0-.6-.39-.71h0l-.48-.36a12.4,12.4,0,0,1-2.34-3.86c-.36-.79-.71-1.57.55-1.89.58-1,1.17-1.1,2.18-.36,2.9,2.13,5.91,4.11,8.86,6.18C135.81,77.25,135.83,78.36,134,81.1Z"></path><path class="cls-1" d="M127.47,79.7a1.81,1.81,0,0,1,1.09,1.8C127.7,81.2,127.66,80.4,127.47,79.7Z"></path><path class="cls-1" d="M126.76,78.63c.8,0,.78.52.72,1.07A1.5,1.5,0,0,1,126.76,78.63Z"></path><path class="cls-1" d="M125,76.12c.36.11.4.4.39.71A.77.77,0,0,1,125,76.12Z"></path><path class="cls-1" d="M126.06,77.54c.35.12.39.41.39.72A.76.76,0,0,1,126.06,77.54Z"></path><path class="cls-1" d="M124.54,75.77l.48.36Z"></path><path class="cls-1" d="M125.36,76.82c.13.12.25.25.37.38C125.61,77.07,125.49,76.94,125.36,76.82Z"></path><path class="cls-1" d="M125.71,77.18c.12.13.25.25.38.37C125.84,77.55,125.75,77.39,125.71,77.18Z"></path><path class="cls-1" d="M126.43,78.24l.38.38Z"></path><path class="cls-1" d="M118.17,66.6l-.11.12s-.08-.09-.08-.13.06-.07.1-.11Z"></path><path class="cls-10" d="M134.33,173.25h8.9c1.71,1.35,3.58.51,5.4.38a1.2,1.2,0,0,0,1.76,0l.7,0c.24.94,1,.66,1.6.65a32.4,32.4,0,0,1,7.49.62c-2.09,1.17-4,.7-5.88.84-.64.05-1.49-.37-1.78.66h-1.06c-.31-.36-.74-.31-1.15-.31H135.49c-.41,0-.84,0-1.16.31h-1.05c-.29-1-1.16-.54-1.78-.67s-1.48.36-1.85-.6a8.21,8.21,0,0,1,1.56-.06A2.58,2.58,0,0,0,134.33,173.25Z"></path><path class="cls-11" d="M150.39,173.63a1.2,1.2,0,0,1-1.76,0c.61-.05,1.13-.54,1.79-.31A1.82,1.82,0,0,1,150.39,173.63Z"></path><path class="cls-11" d="M129.65,175.15c.37,1,1.21.47,1.85.6s1.49-.36,1.78.67a106.54,106.54,0,0,1-15.36-.69c-.49,0-1-.16-.94-.79s.56-.36,1-.47c1.74-.51,3.52-.24,5.28-.45Z"></path><path class="cls-1" d="M134.69,169.28l-.1.41-.45-.18Z"></path><path class="cls-11" d="M134.33,176.41c.32-.36.75-.31,1.16-.31h14.82c.41,0,.84,0,1.15.31-.32.49-.82.39-1.28.39H135.62C135.16,176.8,134.65,176.9,134.33,176.41Z"></path><path class="cls-10" d="M148.57,74.77c-.73-.33-1.15.14-1.6.6s-1,1.14-1.81,1.2l-.2-.2c1.27-1.55-.3-2.19-1-3.12,1.42-.08,2.84.69,4.26,0h.39A.77.77,0,0,0,149,74h0c0,.1,0,.21,0,.31Z"></path><path class="cls-1" d="M152.88,77.5c-.24-.12-.76-.1-.61-.46a6.26,6.26,0,0,0-.09-3.65c1.17,1.55.5,2.89.7,4.11Z"></path><path class="cls-1" d="M147.74,69.52l.5,3.07a4.87,4.87,0,0,1-1-3Z"></path><path class="cls-1" d="M151.64,78.22c-.41.41-.83,0-1.24,0C150.79,76.91,151.22,78,151.64,78.22Z"></path><path class="cls-1" d="M151.25,75.06c.11,0,.3.08.38.2a.19.19,0,0,1-.18.31.65.65,0,0,1-.43-.21C150.85,75.16,151.05,75.11,151.25,75.06Z"></path><path class="cls-13" d="M143.93,71.08l.36-.34c0,.35,0,.7.05,1.05l0,0C144,71.67,144,71.37,143.93,71.08Z"></path><path class="cls-1" d="M149,74a.77.77,0,0,1-.37-.73A.66.66,0,0,1,149,74Z"></path><path class="cls-13" d="M144.34,71.79l.27.35-.18.12-.12-.44Z"></path><path class="cls-1" d="M151.83,72.87l.19.18s-.1,0-.12,0a.39.39,0,0,1-.07-.16Z"></path><path class="cls-1" d="M148.62,73.23h-.4C148.35,73,148.48,72.86,148.62,73.23Z"></path><path class="cls-10" d="M144,73.24a.31.31,0,0,1-.35-.35Z"></path><path class="cls-1" d="M149,74.25c0-.1,0-.21,0-.31a.34.34,0,0,1,.35.37h0A1.27,1.27,0,0,1,149,74.25Z"></path><path class="cls-1" d="M150.41,78.23l-.38.36Z"></path><path class="cls-1" d="M151.83,72.87a.4.4,0,0,1-.13-.07s0-.07,0-.1l.15.17Z"></path><path class="cls-1" d="M149.32,74.31l.2.13s-.09,0-.11,0,0-.09-.08-.13Z"></path><polygon class="cls-1" points="150.3 74.85 150.18 74.88 150.2 74.79 150.3 74.85"></polygon><path class="cls-10" d="M145.16,76.57c-.1.15-.23.27-.37.06,0,0,.11-.17.17-.26Z"></path><path class="cls-10" d="M145.32,78.05s-.08.09-.12.09-.07-.07-.11-.1.08-.09.12-.09S145.28,78,145.32,78.05Z"></path><path class="cls-10" d="M144.5,78.52l-.11-.11s.08-.09.12-.09.08.07.11.1Z"></path><path class="cls-10" d="M146.89,79.37a2.26,2.26,0,0,1-.22.2c-.22-.15-.07-.26.06-.36C146.78,79.26,146.84,79.31,146.89,79.37Z"></path><path class="cls-2" d="M137.91,95.75c-1.38.86-2.75-.11-4.12,0-1,.06-2,0-3,0-.19-1.61-.76-3.19.17-4.82a2,2,0,0,1,1.73-1.22c1.87-.16,3.42.76,5.06,1.39.73.29.56,1,.41,1.55a6.77,6.77,0,0,0-.22,2.45Z"></path><path class="cls-5" d="M125.81,94.23l-.36-.33c-1-2.46-.22-5.05-.5-7.57,0-.31.48-.16.76-.18a3.82,3.82,0,0,0,1.78.72c.52.12,1.1.26,1.1.95,0,1.09.17,2,1.49,2.26.47.09.3.56.18.89a4.7,4.7,0,0,0-.33,3.28c.24.69-.27.79-.82.67C128,94.7,126.91,94.46,125.81,94.23Z"></path><path class="cls-12" d="M131.81,88.6c-.28,1.41-1.35.59-2,.64s-.49-.8-.71-1.24c0-.08.12-.4.2-.4s.53,0,.6.17c.43.83,1.16.88,1.94.84Z"></path><path class="cls-5" d="M117.88,64.67c-.46-.08-.39-.41-.36-.73C117.94,64,117.94,64.34,117.88,64.67Z"></path><path class="cls-5" d="M117.53,64c-.37-.12-.33-.45-.37-.74C117.52,63.34,117.55,63.64,117.53,64Z"></path><path class="cls-10" d="M200.81,38a4.68,4.68,0,0,1,4,6.68,1.66,1.66,0,0,0,.48,2.37c1.3,1.12,2.46,2.4,3.67,3.63.24.25.55.57.2.9s-.65-.06-.88-.29c-1.06-1-2.17-2-3.15-3.14a2.53,2.53,0,0,0-3.34-.88,4.09,4.09,0,0,1-4.8-1.38,4.37,4.37,0,0,1-.79-5C197.07,39,198.6,38.17,200.81,38Zm3.5,4.91a3.56,3.56,0,0,0-3.5-3.71,3.61,3.61,0,0,0-4,3.58,3.75,3.75,0,0,0,7.49.13Z"></path><path class="cls-1" d="M192.93,44.52c0,2.5,0,5,0,7.49,0,.42.24,1.1-.43,1.17s-.56-.62-.56-1q0-7.58,0-15.15c0-.44-.15-1.12.54-1.09s.46.71.47,1.14C192.94,39.53,192.94,42,192.93,44.52Z"></path><path class="cls-4" d="M89.21,25c11.26-.35,20.44,9.42,20.41,20.12A20.37,20.37,0,0,1,88.75,65.73C78,65.64,68.81,56.16,68.82,45.26,68.83,34.55,78.16,24.57,89.21,25Zm16.2,30.73.72-1A17.87,17.87,0,0,0,108.47,43c-.41-3.05-1.11-6.07-3.39-8.41a.69.69,0,0,0-.35-.67,16.08,16.08,0,0,0-7.36-6.21c-8.28-4-19.24-1.12-23.76,6.21a.75.75,0,0,0-.39.69A2.68,2.68,0,0,0,72.15,36a19.08,19.08,0,0,0,0,18.62l.92,1.52a7.91,7.91,0,0,0,1.72,2.14,18.71,18.71,0,0,0,16.85,6.26c3.86-.47,7.51-1.76,10.18-4.89a5.23,5.23,0,0,0,2.34-2.12A4.23,4.23,0,0,0,105.41,55.73Z"></path><path class="cls-14" d="M204.31,42.89a3.75,3.75,0,0,1-7.49-.13,3.61,3.61,0,0,1,4-3.58A3.56,3.56,0,0,1,204.31,42.89Z"></path><path class="cls-14" d="M72.19,54.64a19.08,19.08,0,0,1,0-18.62,2.68,2.68,0,0,1,1.07-1.39c7.18,0,14.36.08,21.54.09,3.44,0,6.88-.08,10.32-.11,2.28,2.34,3,5.36,3.39,8.41a17.87,17.87,0,0,1-2.34,11.66Zm28.7-7.39c-.43-1.36-.7-2.39-1.1-3.37-.29-.71-.09-1.93-1.13-2s-.9,1.19-1.19,1.89c-.43,1-.73,2.11-1.18,3.45-.44-1.66-.82-3-1.16-4.38-.16-.62-.33-1.25-1.14-1s-.21.81-.1,1.21c.45,1.6.94,3.19,1.41,4.78.15.52.22,1.07,1,1s.72-.52.87-1c.44-1.23.86-2.47,1.44-4.13.57,1.72,1,3,1.38,4.18.14.46.24.92.88.92s.78-.45.93-.91q.81-2.54,1.6-5.09c.12-.37.48-.82-.14-1s-.89.16-1,.7C101.81,44,101.4,45.45,100.89,47.25ZM77,43.72c.52,1.7.94,3,1.36,4.39.15.48.37.85,1,.81s.64-.4.77-.82c.49-1.52,1-3,1.47-4.58.15-.52.92-1.32,0-1.61s-1,.78-1.18,1.4A19.39,19.39,0,0,1,79.12,47c-.45-1.46-.84-2.76-1.24-4.06-.16-.5-.21-1.11-1-1.08s-.68.56-.83,1c-.44,1.29-.86,2.58-1.46,4.37-.47-1.81-.78-3.06-1.13-4.31-.15-.55-.28-1.29-1.1-1.06s-.24.91-.14,1.3c.38,1.49.86,3,1.33,4.43.17.52.13,1.25,1,1.31,1,.06.88-.83,1.09-1.37C76.09,46.4,76.45,45.22,77,43.72Zm10.78.07c.47,1.42.83,2.59,1.25,3.74.2.56.14,1.41,1.09,1.39s.8-.77,1-1.29c.52-1.51,1-3,1.45-4.57.1-.36.69-.91-.1-1.17s-.91.3-1.07.86C91,44.08,90.57,45.4,90,47.2c-.58-1.81-1-3.13-1.42-4.46-.13-.4-.22-.81-.75-.87s-.78.44-.92.88c-.47,1.4-.9,2.8-1.47,4.61-.47-1.78-.84-3.2-1.21-4.62-.12-.49-.3-1-.92-.86-.79.12-.46.69-.34,1.1q.73,2.57,1.52,5.11c.12.41.24.79.78.83s.81-.36,1-.83C86.74,46.75,87.19,45.41,87.74,43.79Z"></path><path class="cls-14" d="M73.61,33.94c4.52-7.33,15.48-10.22,23.76-6.21a16.08,16.08,0,0,1,7.36,6.21Z"></path><path class="cls-14" d="M101.86,59.67c-2.67,3.13-6.32,4.42-10.18,4.89A18.71,18.71,0,0,1,74.83,58.3c.81,0,.19-2,1.59-1.15,1.84,1.15,3.9,1,5.93,1.07,1.71.05,3.54-.34,5.12.14,3.35,1,6.71.41,10,.54A10.48,10.48,0,0,1,101.86,59.67Z"></path><path class="cls-12" d="M101.86,59.67a10.48,10.48,0,0,0-4.34-.77c-3.34-.13-6.7.46-10-.54-1.58-.48-3.41-.09-5.12-.14-2-.06-4.09.08-5.93-1.07-1.4-.87-.78,1.16-1.59,1.15a7.91,7.91,0,0,1-1.72-2.14c.43-.59,1.06-.42,1.64-.42l19.55,0c.27,1,1.09.86,1.83,1,2.66.68,5.43-.07,8.07.73A5.23,5.23,0,0,1,101.86,59.67Z"></path><path class="cls-11" d="M94.3,55.77l-19.55,0c-.58,0-1.21-.17-1.64.42-.31-.51-.61-1-.92-1.52l33.94,0-.72,1a4.33,4.33,0,0,1-1.21.21C100.91,55.5,97.6,55.8,94.3,55.77Z"></path><path class="cls-11" d="M73.61,33.94h31.12a.69.69,0,0,1,.35.67c-3.44,0-6.88.11-10.32.11-7.18,0-14.36-.06-21.54-.09A.75.75,0,0,1,73.61,33.94Z"></path><path class="cls-7" d="M94.3,55.77c3.3,0,6.61-.27,9.9.17a4.33,4.33,0,0,0,1.21-.21,4.23,4.23,0,0,1-1.21,1.82c-2.64-.8-5.41,0-8.07-.73C95.39,56.63,94.57,56.73,94.3,55.77Z"></path><path class="cls-13" d="M100.89,47.25c.51-1.8.92-3.23,1.32-4.65.14-.54.46-.88,1-.7s.26.66.14,1q-.8,2.55-1.6,5.09c-.15.46-.29.91-.93.91s-.74-.46-.88-.92c-.4-1.23-.81-2.46-1.38-4.18-.58,1.66-1,2.9-1.44,4.13-.15.44-.24.93-.87,1s-.83-.51-1-1c-.47-1.59-1-3.18-1.41-4.78-.11-.4-.63-1,.1-1.21s1,.35,1.14,1c.34,1.36.72,2.72,1.16,4.38.45-1.34.75-2.42,1.18-3.45.29-.7.07-1.94,1.19-1.89s.84,1.26,1.13,2C100.19,44.86,100.46,45.89,100.89,47.25Z"></path><path class="cls-13" d="M77,43.72c-.51,1.5-.87,2.68-1.33,3.83-.21.54-.09,1.43-1.09,1.37-.82-.06-.78-.79-1-1.31-.47-1.47-1-2.94-1.33-4.43-.1-.39-.77-1,.14-1.3s.95.51,1.1,1.06c.35,1.25.66,2.5,1.13,4.31.6-1.79,1-3.08,1.46-4.37.15-.45.21-1,.83-1s.8.58,1,1.08c.4,1.3.79,2.6,1.24,4.06a19.39,19.39,0,0,0,1.24-3.7c.23-.62.19-1.71,1.18-1.4s.16,1.09,0,1.61c-.44,1.54-1,3.06-1.47,4.58-.13.42-.23.79-.77.82s-.84-.33-1-.81C77.9,46.76,77.48,45.42,77,43.72Z"></path><path class="cls-13" d="M87.74,43.79c-.55,1.62-1,3-1.46,4.3-.16.47-.34.88-1,.83s-.66-.42-.78-.83Q83.75,45.54,83,43c-.12-.41-.45-1,.34-1.1.62-.1.8.37.92.86.37,1.42.74,2.84,1.21,4.62.57-1.81,1-3.21,1.47-4.61.14-.44.26-1,.92-.88s.62.47.75.87c.42,1.33.84,2.65,1.42,4.46.53-1.8.93-3.12,1.3-4.45.16-.56.37-1.09,1.07-.86s.2.81.1,1.17c-.44,1.54-.93,3.06-1.45,4.57-.18.52-.15,1.27-1,1.29s-.89-.83-1.09-1.39C88.57,46.38,88.21,45.21,87.74,43.79Z"></path></svg>