<svg xmlns="http://www.w3.org/2000/svg" xmlns:xlink="http://www.w3.org/1999/xlink" id="Layer_1" x="0px" y="0px" viewBox="0 0 189.9 184.7" style="enable-background:new 0 0 189.9 184.7;" xml:space="preserve"><g>	<path d="M97.1,3.6c1.7,1.2,3.4,2.3,4.9,3.7c12.8,11.7,27.8,18.7,45,20.9c5.1,0.7,10.2,0.9,15.3,1.1c5.1,0.2,7.3,2.4,7.4,7.5  c0.1,11.5,0.4,23.1,0.3,34.6c-0.1,13.9-1.5,27.7-5.1,41.2c-7.4,27.5-24,47.5-49.4,60.2c-5.6,2.8-11.5,5.1-17.3,7.4  c-1.4,0.5-3.3,0.7-4.7,0.2c-13.2-4.5-25.5-10.7-36.4-19.5c-14.9-12-24.6-27.4-30-45.6c-3.4-11.6-5.2-23.5-5.5-35.6  c-0.3-14.6-0.1-29.3-0.1-43.9c0-3.8,2.5-6.2,6.7-6.4c4.4-0.2,8.9-0.3,13.3-0.8c18.1-1.9,34.1-8.8,47.6-21.2  c1.5-1.4,3.4-2.5,5.1-3.8C95.2,3.6,96.2,3.6,97.1,3.6z M34,41.9c0,0.6-0.1,1.1-0.1,1.7c-0.1,7.5-0.2,15-0.3,22.5  c0,13,0.7,26,3.5,38.8c3.4,15.4,10,29.1,21.2,40.4c10.4,10.5,23,17.4,36.7,22.4c0.5,0.2,1.1,0.1,1.6-0.2c6.5-3,13.1-5.7,19.3-9.2  c13.5-7.7,23.9-18.5,30.9-32.5c6.8-13.6,9.6-28.2,10.2-43.2c0.6-13.1,0.2-26.2,0.3-39.3c0-0.6-0.1-1.1-0.1-1.7  c-4.5-0.5-8.8-0.9-13.2-1.5C126.6,37.8,111,31,97.4,19.6c-1.3-1.1-2.1-1.1-3.4,0C81.5,30.1,67.1,36.8,51,39.6  C45.5,40.6,39.8,41.1,34,41.9z"></path>	<path d="M87.2,100.6c9.8-9.8,19.5-19.5,29.2-29.3c1.3-1.3,2.7-2.3,4.6-2.4c2.6-0.1,4.6,0.9,5.8,3.2c1.2,2.3,1,4.6-0.5,6.7  c-0.4,0.6-1,1.1-1.5,1.7c-10.8,10.8-21.5,21.5-32.3,32.3c-3.9,3.9-7,3.9-10.8,0c-5.3-5.3-10.6-10.6-15.9-15.9  C64,95,63.4,92.9,64,90.5c0.7-2.4,2.3-3.8,4.7-4.3c2.4-0.5,4.3,0.4,5.9,2c3.7,3.7,7.4,7.4,11.1,11.1C86.2,99.7,86.6,100,87.2,100.6  z"></path></g></svg>