<svg xmlns="http://www.w3.org/2000/svg" xmlns:xlink="http://www.w3.org/1999/xlink" id="Layer_1" x="0px" y="0px" viewBox="0 0 841.89 595.276" style="enable-background:new 0 0 841.89 595.276;" xml:space="preserve"><g>	<path d="M-233.567,194.864c3.917,3.601,7.134,6.34,10.053,9.366c0.979,1.015,2.028,3.211,1.565,4.063  c-0.634,1.166-2.668,2.164-4.123,2.193c-9.645,0.19-19.297,0.211-28.942,0.039c-2.933-0.052-3.399,0.988-3.685,3.709  c-0.666,6.313,3.355,10.592,6.026,15.396c5.79,10.413,11.833,20.689,17.928,30.929c1.69,2.84,1.806,5.204,0.088,8.11  c-7.277,12.308-14.42,24.696-21.48,37.13c-1.321,2.327-2.991,3.049-5.523,3.035c-15.61-0.086-31.22-0.021-46.829-0.144  c-1.689-0.013-4.319-0.465-4.818-1.517c-0.632-1.333,0.029-3.742,0.893-5.251c15.233-26.601,30.605-53.123,45.853-79.715  c0.915-1.596,1.451-3.638,1.473-5.481c0.132-10.948,0.042-21.898,0.067-32.847c0.009-3.817,1.007-4.811,4.825-4.819  c11.383-0.022,22.767-0.08,34.147,0.1c1.437,0.023,3.483,1.062,4.076,2.226c0.456,0.894-0.584,3.06-1.563,4.08  C-226.449,188.502-229.66,191.251-233.567,194.864z M-304.886,301.694c0.777,0.443,0.962,0.64,1.147,0.64  c13.438,0.033,26.876,0.095,40.313-0.019c0.991-0.008,2.348-1.068,2.9-2.01c6.621-11.307,13.15-22.668,19.593-34.078  c0.456-0.807,0.426-2.329-0.035-3.148c-6.273-11.132-12.655-22.203-19.036-33.274c-0.444-0.77-1.084-1.428-1.951-2.549  C-276.415,252.327-290.617,276.952-304.886,301.694z M-232.866,185.516c-8.76,0-16.505-0.045-24.247,0.105  c-0.494,0.01-1.346,1.52-1.371,2.352c-0.136,4.546-0.024,9.099-0.083,13.649c-0.025,1.949,0.772,2.664,2.724,2.633  c5.307-0.085,10.617-0.023,15.926-0.019c1.994,0.001,3.988,0,5.981,0c0.108-0.294,0.216-0.588,0.324-0.881  c-1.454-1.509-2.884-3.042-4.366-4.523c-3.244-3.242-3.264-4.598-0.106-7.827C-236.547,189.434-235.052,187.82-232.866,185.516z"></path>	<path d="M-211.754,308.779c-9.107,0.001-18.214-0.001-27.32,0.001c-4.84,0.001-6.051-2.063-3.626-6.296  c9.1-15.882,18.214-31.756,27.338-47.624c2.184-3.799,4.941-3.893,7.059-0.224c9.207,15.95,18.393,31.912,27.571,47.879  c2.418,4.207,1.163,6.277-3.701,6.268C-193.54,308.766-202.647,308.778-211.754,308.779z M-235.038,302.085  c15.901,0,30.94,0,46.622,0c-7.889-13.659-15.46-26.766-23.338-40.405C-219.687,275.446-227.214,288.508-235.038,302.085z"></path></g><g>	<path d="M-117.764,504.873c-7.005,0-14.011-0.088-21.014,0.036c-3.652,0.064-5.66-1.147-5.845-5.11  c-0.225-4.825-2.942-8.303-6.517-11.431c-16.577-14.506-22.585-32.64-17.676-54.118c7.256-31.747,44.181-49.291,73.537-35.105  c33.651,16.261,41.298,58.864,15.363,85.794c-1.993,2.069-4.733,3.532-6.341,5.827c-1.824,2.603-3.48,5.726-3.911,8.805  c-0.571,4.083-2.378,5.422-6.17,5.37c-7.141-0.099-14.283-0.028-21.425-0.028C-117.764,504.898-117.764,504.885-117.764,504.873z   M-117.403,496.938c5.357,0,10.718,0.119,16.067-0.09c1.21-0.047,3.186-1.017,3.43-1.931c1.619-6.062,5.777-10.05,10.176-14.114  c13.781-12.734,18.462-28.461,13.155-46.41c-5.487-18.557-20.886-30.262-40.328-31.941c-16.531-1.427-34.044,8.413-42.181,23.702  c-9.913,18.624-5.757,41.251,10.255,55.051c4.351,3.75,7.995,7.81,9.735,13.465c0.317,1.03,2.344,2.109,3.626,2.167  C-128.123,497.079-122.76,496.939-117.403,496.938z"></path>	<path d="M-117.173,532.095c6.991-0.003,13.983-0.063,20.974,0.017c5.099,0.059,6.63,2.288,5.114,7.145  c-3.635,11.642-14.576,19.598-26.667,19.391c-12.209-0.209-23.05-8.32-26.108-19.533c-1.363-4.999,0.07-6.957,5.303-7.001  C-131.43,532.053-124.302,532.098-117.173,532.095z M-134.3,540.656c4.825,7.081,10.663,10.361,18.232,9.843  c6.456-0.442,11.378-3.703,15.534-9.843C-112.174,540.656-122.75,540.656-134.3,540.656z"></path>	<path d="M-117.361,522.809c-9.071,0-18.143-0.008-27.214,0.004c-3.006,0.004-5.846-0.546-5.666-4.289  c0.161-3.341,2.781-3.921,5.676-3.917c18.006,0.03,36.011,0.01,54.017-0.017c2.996-0.005,5.846,0.515,5.867,4.162  c0.021,3.739-2.924,4.094-5.877,4.087c-8.934-0.02-17.868-0.007-26.803-0.007C-117.361,522.825-117.361,522.817-117.361,522.809z"></path></g><path style="fill:#FFFFFF;" d="M383.909,158.747c-2.176-2.057-4.352-4.114-6.93-6.552c2.498-2.427,4.758-4.622,7.017-6.817 c0.281,0.224,0.561,0.447,0.842,0.671c-1.617,1.87-3.234,3.74-5.119,5.919c1.699,1.927,3.435,3.897,5.17,5.866 C384.563,158.138,384.236,158.443,383.909,158.747z"></path></svg>