<svg xmlns="http://www.w3.org/2000/svg" id="Layer_1" data-name="Layer 1" viewBox="0 0 159.67 146.88"><title>Unlimited Bandwidth</title><path d="M80,13.22h61.19c3.1,0,4.06.95,4.06,4,0,30.87.17,61.75-.07,92.62a27.21,27.21,0,0,1-28.77,27.5,28,28,0,0,1-14.28-5c-7-4.73-14.1-9.39-21.12-14.11a1.51,1.51,0,0,0-2,0c-7.14,4.8-14.27,9.59-21.45,14.32C41.8,143,21.28,135.69,16.09,117.8a31.27,31.27,0,0,1-1.24-8.54c-.09-30.45,0-60.9,0-91.35,0-.3,0-.6,0-.89,0-2.74,1-3.79,3.77-3.79H80Zm61,21.16H19V95.47C24.7,87.24,32.32,82.94,42.1,82.64a38.2,38.2,0,0,1,9.3-17.45c9.82-10.29,21.78-15.1,35.9-12.11,15.73,3.33,25.79,13.23,30.31,28.68.19.63.39,1,1.17,1,9.16.4,16.34,4.45,21.65,11.89.16.22.35.4.64.72ZM19,30H141V17.54H19ZM76.17,105c-.28-.23-.42-.37-.59-.49q-10.36-6.9-20.72-13.79a23.13,23.13,0,1,0,.3,38.4c8.35-5.5,16.65-11.09,25-16.63,9.32-6.21,18.58-12.49,28-18.58a18.57,18.57,0,0,1,21,.81,18.93,18.93,0,0,1-21.81,30.94c-5.48-3.59-10.9-7.27-16.37-10.89-1.11-.74-2.32-2-3.43-1.94s-2.35,1.38-3.59,2.19a7.44,7.44,0,0,0,.62.52c7,4.7,14.08,9.42,21.16,14.06A22,22,0,0,0,117,133.16a23.15,23.15,0,0,0,18-38.78c-7.93-8.54-20.26-9.92-30.22-3.33-8.16,5.4-16.29,10.86-24.43,16.29q-13.71,9.14-27.41,18.27a18.26,18.26,0,0,1-14.34,3c-7.94-1.7-13-6.63-14.92-14.53A18.89,18.89,0,0,1,52.05,94c2.81,1.76,5.54,3.65,8.3,5.49q6.06,4,12.1,8.06Zm15.25,5,17.8,11.87a20.64,20.64,0,0,0,1.84,1.13,14.69,14.69,0,0,0,21.57-12.57,14.69,14.69,0,0,0-22.34-13c-2.08,1.24-4.06,2.65-6.07,4ZM68.63,110c-6.76-4.44-13.21-9.11-20.09-13-5.3-3-10.88-2.15-15.63,1.72a13.88,13.88,0,0,0-5,14.83,14.6,14.6,0,0,0,22.42,8.8c5.88-3.83,11.68-7.77,17.51-11.67C68,110.45,68.25,110.26,68.63,110Zm44.74-26.84a33.62,33.62,0,0,0-5.25-11.52c-.16,0-.25,0-.32.07a58.92,58.92,0,0,1-24.65,6.76c-.85,0-.94.48-.93,1.16,0,3,0,6,0,8.94a7.24,7.24,0,0,0,.12.87c.28,0,.48.07.69.07,5.24,0,10.47,0,15.71,0a3,3,0,0,0,1.62-.58C104.27,86.14,108.4,83.91,113.37,83.13Zm-35.59-4.6A60,60,0,0,1,52,71.59a33.35,33.35,0,0,0-5.23,11.55c5,.77,9.08,3,13,5.73a3.34,3.34,0,0,0,1.74.6c5,0,10,0,15.06,0,.41,0,.82,0,1.29-.08Zm0-21.78A35.22,35.22,0,0,0,54.7,68.06a55.42,55.42,0,0,0,23.07,6ZM105.32,68a35.16,35.16,0,0,0-23-11.24V74A55.67,55.67,0,0,0,105.32,68Zm-23,26v7l10.13-6.76-.1-.22Zm-4.65,7V94H67.32Z"></path><path d="M44.56,44.23H26.68a9.08,9.08,0,0,1-1.28,0,2,2,0,0,1-1.88-1.91A2,2,0,0,1,25.12,40a5.8,5.8,0,0,1,1.39-.13H63.29c1.51.09,2.45,1,2.42,2.24s-.95,2.11-2.51,2.12Q53.89,44.25,44.56,44.23Z"></path><path d="M115.51,44.23q-9,0-18,0a8.12,8.12,0,0,1-1.4-.06,2.13,2.13,0,0,1-.33-4.1,5.21,5.21,0,0,1,1.63-.2h36a6.42,6.42,0,0,1,1.52.13,2,2,0,0,1,1.61,2.28,2,2,0,0,1-1.88,1.91,9.08,9.08,0,0,1-1.28,0C127.43,44.24,121.47,44.23,115.51,44.23Z"></path><path d="M40.33,49.17H54a7.71,7.71,0,0,1,1.27,0,2.13,2.13,0,0,1,.32,4.13,5.58,5.58,0,0,1-1.64.17H26.63a6.42,6.42,0,0,1-1.52-.13,2,2,0,0,1-1.59-2.28,2,2,0,0,1,1.88-1.91,10.86,10.86,0,0,1,1.4,0Z"></path><path d="M119.87,49.17H134a2.21,2.21,0,0,1,2.46,1.58A2.09,2.09,0,0,1,135,53.41a5.9,5.9,0,0,1-1.39.12H106.13a7.2,7.2,0,0,1-1.14,0,2.14,2.14,0,0,1-2-2.26,2.05,2.05,0,0,1,2.17-2c3-.05,6,0,9.06,0Z"></path><path d="M36,58.44h9.83c1.69,0,2.59.76,2.61,2.13s-.93,2.21-2.55,2.22H26c-1.62,0-2.55-.86-2.54-2.23s.93-2.11,2.61-2.12Z"></path><path d="M124.07,62.79h-10c-1,0-1.9-.29-2.16-1.24a3.05,3.05,0,0,1,.22-2.23,2.49,2.49,0,0,1,1.84-.85c6.73,0,13.46,0,20.19,0a2.1,2.1,0,0,1,2.36,2.11,2.15,2.15,0,0,1-2.4,2.23C130.8,62.81,127.44,62.79,124.07,62.79Z"></path><path d="M111.16,21.6q11.5,0,23,0a8.16,8.16,0,0,1,1.4,0,2,2,0,0,1,1.77,1.89A2,2,0,0,1,136,25.75a5.64,5.64,0,0,1-1.75.2H88.11c-.26,0-.52,0-.77,0A2.26,2.26,0,0,1,85,23.8a2.19,2.19,0,0,1,2.45-2.19C95.32,21.59,103.24,21.6,111.16,21.6Z"></path><path d="M33.7,25.82a2,2,0,0,1-2-2.13,2.07,2.07,0,0,1,2-2,2.11,2.11,0,0,1,2.12,2.09A2.05,2.05,0,0,1,33.7,25.82Z"></path><path d="M27.39,23.81a2.05,2.05,0,0,1-2.17,2,2,2,0,0,1-2-2.19,2.07,2.07,0,0,1,2.09-2A2.1,2.1,0,0,1,27.39,23.81Z"></path><path d="M42.19,25.82a2,2,0,0,1-2.12-2.06,2.07,2.07,0,0,1,2-2.09,2.11,2.11,0,0,1,2.2,2A2.07,2.07,0,0,1,42.19,25.82Z"></path></svg>