<svg xmlns="http://www.w3.org/2000/svg" xmlns:xlink="http://www.w3.org/1999/xlink" id="Layer_1" x="0px" y="0px" viewBox="0 0 595.3 635.9" style="enable-background:new 0 0 595.3 635.9;" xml:space="preserve"><g>	<path d="M316.9,603.6c-13.2,0-26.5,0-39.7,0c-10.5-1.6-21.2-2.6-31.6-4.9c-119-25.6-194.9-97.4-227.7-214.4  c-4.4-15.7-5.7-32.4-8.5-48.6c0-12.7,0-25.4,0-38c2.8-16.8,4.1-33.9,8.5-50.2c29.8-108.7,99-179.1,207.6-210  c16.8-4.8,34.5-6.3,51.8-9.3c12.7,0,25.4,0,38,0c10.8,1.6,21.8,2.5,32.5,4.8c120,25.7,196.4,97.8,228.8,216.2  c4.2,15.3,5.6,31.3,8.2,47c0,13.2,0,26.5,0,39.7c-1.6,10.6-2.6,21.2-4.9,31.7c-25.6,119-97.5,194.9-214.4,227.7  C349.7,599.6,333.1,600.9,316.9,603.6z M296.3,587c150,0.2,271.6-120.7,271.8-270.3C568.3,166,447.5,45.2,296.2,44.9  C147.8,44.6,26.2,166.3,26,315.1C25.8,465.1,146.8,586.8,296.3,587z"></path>	<path d="M237.7,459.3c-13.8-34.3-27-66.6-39.9-99c-12.4-31.2-24.7-62.4-37-93.6c-0.6-1.5-1.1-3.1-1.6-4.7  c-6.5-22.3-0.7-30.5,22.6-32.1c1.1-0.1,2.2-0.2,4.2-0.4c0.2-2.8,0.3-5.7,0.5-9.1c-38.2,0-75.9,0-115.7,0  c33.7-72.4,87-119.4,162.4-141.4c86.7-25.2,192.9,7.4,249.4,77.5c-3.7,1.3-7.2,2.4-10.6,3.6c-14.8,5.5-22.6,14.9-21.6,30.5  c0.9,12.7,3.2,25.7,7.6,37.7c17.7,48.1,16.5,96.1,0.8,144c-7.6,23.2-17.2,45.8-25.9,68.6c-1.1,2.8-2.6,5.4-4.5,9.5  c-7.4-19.3-14.4-37.4-21.3-55.5c-16.7-43.7-33.3-87.4-49.9-131c-1.4-3.6-2.6-7.3-3.5-11c-2.5-10,2.9-19.1,13.1-21.1  c7.2-1.4,14.6-1.9,22.6-2.8c0.2-2.5,0.4-5.2,0.6-8.4c-56.5,0-112.5,0-169,0c-0.2,2.8-0.3,5.5-0.4,7.8c1,0.6,1.4,1.2,1.9,1.2  c21.4-1.1,34.8,9.8,42.6,28.7c8.8,21.3,17.6,42.7,26.1,64.2c0.9,2.3,0.9,5.6,0,7.8C273.7,372.7,256.1,415,237.7,459.3z"></path>	<path d="M378.2,547.3c-52.6,17.6-104.6,18.1-157.9,1.5c27.6-65.2,54.9-129.9,83-196.4C328.6,418.1,353.2,482.3,378.2,547.3z"></path>	<path d="M529.1,240c33.9,91.3,3.2,222.9-110,288.1C456.1,431.3,492.5,336,529.1,240z"></path>	<path d="M64.6,247.6c37.9,93.6,75.8,187.2,114,281.7C85,481.7,27.9,361.4,61.8,248.6C62.7,248.3,63.6,247.9,64.6,247.6z"></path></g></svg>