<svg id="Group_5791" data-name="Group 5791" xmlns="http://www.w3.org/2000/svg" width="200" height="200" viewBox="0 0 301.211 301.21">
  <path id="Path_41424" data-name="Path 41424" d="M150.6,301.211c-3.434,0-6.858-.116-10.172-.338-3.424-.227-6.853-.575-10.2-1.034-1.473-.2-2.806-.4-4.076-.6-3.772-.613-7.612-1.391-11.408-2.318-1.3-.314-2.574-.642-3.782-.98-.425-.111-.86-.232-1.29-.353-1.835-.517-3.613-1.053-5.274-1.594-.106-.029-.232-.072-.357-.111-1.5-.483-3.067-1.019-4.646-1.594-1.333-.483-2.685-.995-4.134-1.565-3.019-1.188-6.042-2.5-8.988-3.9-1.227-.575-2.507-1.207-3.917-1.922-.251-.126-.507-.256-.758-.386l-.29-.15a150.322,150.322,0,1,1,134.515,2.029c-1.082.522-2.241,1.063-3.651,1.7l-.135.058c-.174.077-.348.155-.522.227-1.053.469-2.125.927-3.183,1.362l-.478.2c-.3.126-.58.241-.86.348-3.589,1.449-7.206,2.753-10.751,3.869-.28.1-.565.184-.855.27l-.251.077c-2.946.913-6.047,1.763-9.2,2.521A150.83,150.83,0,0,1,150.6,301.2v.01h0ZM150.6.966A149.674,149.674,0,0,0,81.759,283.5l.29.15c.246.13.5.256.749.382,1.405.715,2.676,1.343,3.893,1.913,2.927,1.386,5.931,2.69,8.93,3.869,1.439.57,2.782,1.077,4.105,1.555,1.57.57,3.125,1.1,4.622,1.584.116.039.227.072.338.106,1.666.541,3.424,1.072,5.25,1.589.42.121.85.241,1.275.353,1.207.333,2.468.662,3.758.976,3.777.923,7.588,1.7,11.34,2.3,1.261.208,2.584.406,4.047.6,3.323.454,6.733.8,10.133,1.024,3.294.222,6.694.338,10.1.338a149.992,149.992,0,0,0,35.113-4.149c3.135-.753,6.211-1.6,9.148-2.507l.251-.077c.28-.087.555-.169.836-.266,3.531-1.111,7.129-2.405,10.7-3.849.28-.111.551-.222.821-.333l.594-.246c1.019-.42,2.053-.865,3.077-1.319.179-.077.343-.15.512-.227l.135-.058c1.4-.633,2.555-1.169,3.627-1.686a147.8,147.8,0,0,0,14.084-7.742,149.43,149.43,0,0,0,12.949-9.022,151.112,151.112,0,0,0,42.1-51.333A149.676,149.676,0,0,0,150.6.966Z" fill="#6b63ff"/>
  <path id="Path_41425" data-name="Path 41425" d="M273.97,380.618l36.6,8.766L306.321,338.1,274,340.776Z" transform="translate(-141.649 -174.799)" fill="#f3a3a6"/>
  <circle id="Ellipse_3645" data-name="Ellipse 3645" cx="35.626" cy="35.626" r="35.626" transform="translate(122.874 106.732)" fill="#f3a3a6"/>
  <path id="Path_41426" data-name="Path 41426" d="M288.686,492.855c-.285.1-.565.184-.85.27-.082.024-.164.053-.246.077q-4.528,1.406-9.177,2.516a150.139,150.139,0,0,1-35.225,4.163q-5.115,0-10.138-.338-5.137-.34-10.167-1.029c-1.362-.184-2.714-.382-4.062-.6q-5.76-.935-11.375-2.314-1.891-.456-3.767-.976c-.43-.111-.86-.232-1.285-.353q-2.644-.746-5.255-1.589c-.116-.034-.237-.072-.353-.111q-2.333-.753-4.637-1.589-2.072-.746-4.12-1.56-4.557-1.8-8.96-3.883l1.13-5.12,3.917-17.736,8.506-38.533,8.6-38.939,22.59.628h.01l1.1.034,34.355.956,15.031.42,14.379,105.607Z" transform="translate(-92.584 -199.155)" fill="#dadbdc"/>
  <path id="Path_41427" data-name="Path 41427" d="M394.283,479.058a148.234,148.234,0,0,1-14.128,7.767c-1.2.58-2.42,1.14-3.642,1.69-.217.1-.43.193-.647.285q-1.579.7-3.178,1.362h0l-.478.2c-.28.116-.56.232-.845.343q-5.267,2.13-10.723,3.859c-.285.1-.565.184-.85.27l-31.511-80.626-2.13-5.443-5.941-15.21-1.971-5.038,13.007.2,15.016.237a34.591,34.591,0,0,1,28.8,24.57l19.223,65.528h0Z" transform="translate(-164.538 -200.867)" fill="#dadbdc"/>
  <path id="Path_41428" data-name="Path 41428" d="M263.512,260.281c1.265-.213,2.531-.43,3.8-.642.3-6.767.952-14.316,6.018-18.813,2.792-2.478,6.83-3.922,8.216-7.39,1.15-2.874.077-6.4,1.681-9.051,1.686-2.787,5.453-3.284,8.708-3.487,5.1-.314,10.283-.623,15.243.584s9.747,4.2,11.862,8.844a25.428,25.428,0,0,1,1.406,4.5c1.27,5.163,3.217,14.987,3.217,14.987s.377-2.033,1.449-5.989c2.188-3.13,4.859-6.018,6.144-9.612,1.546-4.328.865-9.162-.652-13.495-3.444-9.858-11.433-18.19-21.382-21.358s-19.368-4.956-26.806,2.376a37.35,37.35,0,0,1-4.246,4.052c-2.946,2.111-6.709,2.642-10.032,4.1-7.395,3.246-14.079,11.051-15.746,18.953s-.8,16.089.082,24.121c.758,6.926,4.047,14.649,9.814,18.562q.355-5.318.71-10.631l.512-.6h0Z" transform="translate(-130.003 -101.646)" fill="#2f2e43"/>
  <path id="Path_41429" data-name="Path 41429" d="M193.975,389.188l-.348.57-9.728,15.9-14.422,23.589-2.922,4.777L155.9,451.451a119.556,119.556,0,0,1-9.293,11.1l-.019.019c-2.12,2.26-4.55,4.7-7.24,7.148a.237.237,0,0,1-.063.058,102.662,102.662,0,0,1-10.925,8.733c-1.633,1.125-3.313,2.2-5.033,3.2-.353-.174-.7-.357-1.048-.536A150.764,150.764,0,0,1,78.8,447.2c12.756-20.373,38-43.218,54.26-56.824a37.91,37.91,0,0,1,33.162-7.815l5.748,1.372,1.111.266,20.894,4.994Z" transform="translate(-40.74 -197.246)" fill="#dadbdc"/>
  <path id="Path_41430" data-name="Path 41430" d="M359.977,385.467c-6.264-2.256-22.846-2.265-30.284.246a3.109,3.109,0,0,0-2.067,3.458l.295,1.782a6.948,6.948,0,0,1-1.879-.555,10.207,10.207,0,0,0-8.791-.155,9.179,9.179,0,0,0-4.806,6.231c-1.454,6.434,2.212,9.993,2.212,9.993l4.883,4.584a84.24,84.24,0,0,0,13.321,10.2l.1.058-1.739-10.462a3.5,3.5,0,0,1-4.883,1.246c-4.26-2.637-11.22-7.921-10.375-13.92.589-4.183,2.912-5.071,5.144-4.883a7.047,7.047,0,0,1,5.743,4.047,2.859,2.859,0,0,0,1.2,1.275l1.256.686,3.68,22.174a3.136,3.136,0,0,0,1.705,2.3c8.655,4.246,18,2.043,21.228,1.053a3.114,3.114,0,0,0,1.768-1.381l.7-1.154a3.138,3.138,0,0,0,.435-1.3l3.212-32.274a3.126,3.126,0,0,0-2.053-3.246Z" transform="translate(-161.365 -198.427)" fill="#6c63ff"/>
  <ellipse id="Ellipse_3646" data-name="Ellipse 3646" cx="14.553" cy="1.372" rx="14.553" ry="1.372" transform="translate(169.062 187.383)" fill="#dedfe0"/>
  <path id="uuid-add59a10-2c6d-45b5-a06d-26741c0f8cf5" d="M260.923,422.306c7.9-6.042,11.022-15.127,6.979-20.291s-13.712-4.453-21.614,1.594a23.994,23.994,0,0,0-7.424,9.1L205.75,438.738,218.9,454.464l31.25-27.333a24.33,24.33,0,0,0,10.771-4.825Z" transform="translate(-106.378 -206.06)" fill="#f3a3a6"/>
  <path id="Path_41431" data-name="Path 41431" d="M209.576,469.879l-13.1-23.039L148.81,469.27l26.671,34.283Z" transform="translate(-76.938 -231.018)" fill="#dadbdc"/>
  <path id="Path_41432" data-name="Path 41432" d="M179.615,461.91s-34.747,25.439-33.462,25.3,18.417-9.563,18.417-9.563l15.045-15.736h0Z" transform="translate(-75.546 -238.809)" fill="#272223" opacity="0.1" style="isolation: isolate"/>
</svg>
