<svg xmlns="http://www.w3.org/2000/svg" width="508.982" height="382.958" viewBox="0 0 508.982 382.958">
  <g id="Group_5779" data-name="Group 5779" transform="translate(0 -0.001)">
    <path id="Path_41325" data-name="Path 41325" d="M757.888,506.561c-59.949,0-106.91-10.864-106.91-24.733,0-8.315,16.64-15.734,45.652-20.354a.8.8,0,0,1,.251,1.576c-27.33,4.352-44.307,11.548-44.307,18.778,0,12.542,48.228,23.137,105.314,23.137S863.2,494.37,863.2,481.828c0-7.261-17.086-14.474-44.591-18.823a.8.8,0,1,1,.249-1.576c29.194,4.617,45.937,12.052,45.937,20.4C864.8,495.7,817.837,506.561,757.888,506.561Z" transform="translate(-355.815 -260.829)" fill="#ccc"/>
    <path id="Path_41326" data-name="Path 41326" d="M718.5,523.771a61.419,61.419,0,0,0,106.231-.268A966.957,966.957,0,0,1,718.5,523.771Z" transform="translate(-369.466 -273.38)" fill="#e6e6e6"/>
    <path id="Path_41327" data-name="Path 41327" d="M828.484,482.288a61.431,61.431,0,1,0-117.965.638A456.544,456.544,0,0,0,828.484,482.288Z" transform="translate(-367.338 -249.222)" fill="#e6e6e6"/>
    <path id="Path_41328" data-name="Path 41328" d="M396.839,217.181a7.18,7.18,0,1,0-9.973,6.617v37.264h5.585V223.8a7.182,7.182,0,0,0,4.388-6.617Z" transform="translate(-301.533 -210)" fill="#ccc"/>
    <path id="Path_41329" data-name="Path 41329" d="M446.937,430.781h0a15.974,15.974,0,0,1-15.945-16.572,16.3,16.3,0,0,1,16.327-15.342h43.837L527.225,382.9a4,4,0,0,1,5.263,2.032l9.689,21.887a3.994,3.994,0,0,1-2.033,5.262l-35.529,15.728a28.243,28.243,0,0,1-11.171,2.43Z" transform="translate(-311.338 -244.885)" fill="#ccc"/>
    <path id="Path_41330" data-name="Path 41330" d="M310.9,519.093a3.655,3.655,0,0,1-.62-.053l-23.593-4.026h0a3.59,3.59,0,0,1-2.919-4.23L302.238,416.6a15.558,15.558,0,1,1,30.67,5.244l-18.5,94.349A3.566,3.566,0,0,1,310.9,519.093Z" transform="translate(-281.564 -249.152)" fill="#ccc"/>
    <circle id="Ellipse_3631" data-name="Ellipse 3631" cx="14.361" cy="14.361" r="14.361" transform="translate(2.359 261.689)" fill="#e6e6e6"/>
    <circle id="Ellipse_3632" data-name="Ellipse 3632" cx="53.455" cy="53.455" r="53.455" transform="translate(32.934 46.017)" fill="#e6e6e6"/>
    <circle id="Ellipse_3633" data-name="Ellipse 3633" cx="53.455" cy="53.455" r="53.455" transform="translate(32.934 46.017)" fill="#e6e6e6"/>
    <circle id="Ellipse_3634" data-name="Ellipse 3634" cx="40.689" cy="40.689" r="40.689" transform="translate(45.699 58.782)" fill="#6c63ff"/>
    <path id="Path_41331" data-name="Path 41331" d="M392.473,349.2c-2.638-.073-5.92-.165-8.449-2.012a6.489,6.489,0,0,1-2.553-4.845,4.365,4.365,0,0,1,1.484-3.585,5.633,5.633,0,0,1,5.328-.767l-2.153-15.738,1.581-.217,2.532,18.5-1.32-.606c-1.531-.7-3.631-1.059-4.937.044a2.8,2.8,0,0,0-.92,2.31,4.9,4.9,0,0,0,1.9,3.612c1.968,1.437,4.585,1.623,7.552,1.706Z" transform="translate(-301.327 -232.65)" fill="#2f2e41"/>
    <rect id="Rectangle_2164" data-name="Rectangle 2164" width="8.594" height="1.596" transform="translate(68.391 90.963)" fill="#2f2e41"/>
    <rect id="Rectangle_2165" data-name="Rectangle 2165" width="8.594" height="1.596" transform="translate(95.517 90.963)" fill="#2f2e41"/>
    <path id="Path_41332" data-name="Path 41332" d="M351.7,324.663a40.7,40.7,0,0,1,34.518-40.224,40.684,40.684,0,1,0-.639,80.335A40.693,40.693,0,0,1,351.7,324.663Z" transform="translate(-292.693 -224.934)" opacity="0.2"/>
    <path id="Path_41333" data-name="Path 41333" d="M416.344,518.579H334.965A13.179,13.179,0,0,1,321.8,505.415V413.664A13.179,13.179,0,0,1,334.965,400.5h12.366v3.59a9.185,9.185,0,0,0,9.175,9.175h38.3a9.185,9.185,0,0,0,9.175-9.175V400.5h12.366a13.179,13.179,0,0,1,13.164,13.164v91.751a13.179,13.179,0,0,1-13.164,13.164Z" transform="translate(-289.266 -248.513)" fill="#e6e6e6"/>
    <path id="Path_41334" data-name="Path 41334" d="M435.335,629.048h-31.92V592.2l-41.688-63.919,26.731-17.433,41.505,63.641a28.873,28.873,0,0,1,4.69,15.29Z" transform="translate(-297.338 -270.821)" fill="#e6e6e6"/>
    <path id="Path_41335" data-name="Path 41335" d="M375.594,665.846H344.478V572.5h31.115Z" transform="translate(-293.851 -283.285)" fill="#e6e6e6"/>
    <path id="Path_41336" data-name="Path 41336" d="M413.2,573.594H344.583a6.789,6.789,0,0,1-6.782-6.782V541.282a6.789,6.789,0,0,1,6.782-6.782H413.2a6.789,6.789,0,0,1,6.782,6.782v25.531a6.789,6.789,0,0,1-6.782,6.782Z" transform="translate(-292.501 -275.603)" fill="#e6e6e6"/>
    <path id="Path_41337" data-name="Path 41337" d="M451.578,671.233h-37.1V646.5h37.1a12.366,12.366,0,1,1,0,24.733Z" transform="translate(-308.002 -298.246)" fill="#ccc"/>
    <path id="Path_41338" data-name="Path 41338" d="M381.578,683.233h-37.1V658.5h37.1a12.366,12.366,0,1,1,0,24.733Z" transform="translate(-293.851 -300.672)" fill="#ccc"/>
    <path id="Path_41339" data-name="Path 41339" d="M429.791,450.085h-29.52a2.792,2.792,0,0,1,0-5.585h29.52a2.792,2.792,0,1,1,0,5.585Z" transform="translate(-304.565 -257.408)" fill="#fff"/>
    <path id="Path_41340" data-name="Path 41340" d="M429.791,462.585h-29.52a2.792,2.792,0,1,1,0-5.585h29.52a2.792,2.792,0,0,1,0,5.585Z" transform="translate(-304.565 -259.935)" fill="#fff"/>
    <path id="Path_41341" data-name="Path 41341" d="M456.545,689.6H281.819a.8.8,0,1,1,0-1.6H456.545a.8.8,0,0,1,0,1.6Z" transform="translate(-281.022 -306.636)" fill="#3f3d56"/>
    <circle id="Ellipse_3635" data-name="Ellipse 3635" cx="14.361" cy="14.361" r="14.361" transform="translate(218.571 132.44)" fill="#e6e6e6"/>
    <path id="Path_41342" data-name="Path 41342" d="M577.265,420.406a4.792,4.792,0,0,1-4.787-4.787V243.287a4.787,4.787,0,0,1,9.574,0V415.619a4.792,4.792,0,0,1-4.787,4.787Z" transform="translate(-339.945 -215.761)" fill="#3f3d56"/>
    <path id="Path_41343" data-name="Path 41343" d="M723.71,235.895c-4.2-3.678-18.645-15.127-37.275-17.217-13.938-1.556-30.222,2.122-46.314,18.222-12.909,12.909-25.084,19.028-36.19,18.2-11.338-.854-18.877-8.912-22.363-13.643a1.949,1.949,0,0,0-2.21-.7,1.97,1.97,0,0,0-1.38,1.9v59.566a2,2,0,0,0,1.141,1.8c4.348,2.058,20.009,8.9,35.775,8.9,9.247,0,18.541-2.354,25.594-9.414.072-.072.136-.136.207-.2,12.494-12.159,40.035-9.662,60.133-5.689,8.313,1.644,15.35,3.534,19.523,4.747a3.585,3.585,0,0,0,4.579-3.447V238.6A3.6,3.6,0,0,0,723.71,235.895Z" transform="translate(-341.057 -211.688)" fill="#6c63ff"/>
    <circle id="Ellipse_3636" data-name="Ellipse 3636" cx="7.18" cy="7.18" r="7.18" transform="translate(407.658 179.513)" fill="#fff"/>
    <circle id="Ellipse_3637" data-name="Ellipse 3637" cx="7.18" cy="7.18" r="7.18" transform="translate(394.892 258.498)" fill="#fff"/>
    <circle id="Ellipse_3638" data-name="Ellipse 3638" cx="11.967" cy="11.967" r="11.967" transform="translate(366.968 199.458)" fill="#fff"/>
  </g>
</svg>
