<svg xmlns="http://www.w3.org/2000/svg" width="541.519" height="388.119" viewBox="0 0 541.519 388.119">
  <g id="Group_5780" data-name="Group 5780" transform="translate(-0.03)">
    <path id="Path_41344" data-name="Path 41344" d="M854.549,486.082a2.371,2.371,0,0,0,1.908-4.026l-.132-.653.072-.152a6.368,6.368,0,0,1,11.731.59c1.7,4.711,3.932,9.455,4.306,14.37a18.838,18.838,0,0,1-.632,6.456,75.522,75.522,0,0,0,8.322-31.015,72.877,72.877,0,0,0-.073-8.144q-.22-3.334-.732-6.635a76.4,76.4,0,0,0-13.629-33.05,20.332,20.332,0,0,1-8.039-9.157,15.515,15.515,0,0,1-1.212-4.3c.409.073.825.126,1.235.172l.39.038.048,0a2.349,2.349,0,0,0,2.105-3.734l-.5-.68c-.254-.35-.515-.693-.769-1.042a1.2,1.2,0,0,1-.083-.105c-.292-.4-.585-.791-.877-1.189a6.793,6.793,0,0,1,2.325-2.047c3.193-1.676,7.421-.215,9.535,2.7s2.362,6.88,1.416,10.355a27.224,27.224,0,0,1-4.152,8.211c.159.224.324.441.483.664a76.9,76.9,0,0,1,7.426,13.074,31.964,31.964,0,0,1,2.6-14.742c2.03-4.317,5.622-7.865,8.811-11.53a6.561,6.561,0,0,1,11.523,3.762q.005.085.01.169-.689.347-1.351.742a3.216,3.216,0,0,0,1.023,5.907l.065.013a32.011,32.011,0,0,1-1.065,4.74,32.951,32.951,0,0,1-17.349,19.866c-.269.123-.532.245-.8.361a78.483,78.483,0,0,1,3.3,20.057,74.444,74.444,0,0,1-.613,12l.027-.141a19.671,19.671,0,0,1,7.236-11.034c5.359-4,12.725-5.222,18.453-8.371a3.691,3.691,0,0,1,5.481,3.85q-.014.074-.03.148a21.6,21.6,0,0,0-2.474,1.054q-.689.347-1.351.742a3.216,3.216,0,0,0,1.023,5.907l.065.013.134.027a32.033,32.033,0,0,1-6.314,8.941,32.979,32.979,0,0,1-24.38,9.371h-.007a78.458,78.458,0,0,1-5.981,15.125l-18.808-.876c-.058-.212-.108-.431-.159-.642a21.4,21.4,0,0,0,5.219-.068c-1.316-1.777-2.631-3.568-3.947-5.345a1.168,1.168,0,0,1-.083-.105c-.667-.909-1.341-1.812-2.008-2.722h0a31.334,31.334,0,0,1,1.288-7.931Z" transform="translate(-416.279 -239.124)" fill="#f2f2f2"/>
    <path id="Path_41345" data-name="Path 41345" d="M246.7,238.607a2.371,2.371,0,0,1-2.153-3.9l.092-.66-.081-.147a6.368,6.368,0,0,0-11.672,1.314c-1.41,4.808-3.34,9.68-3.41,14.608a18.837,18.837,0,0,0,1.029,6.4,75.525,75.525,0,0,1-10.222-30.441,72.9,72.9,0,0,1-.43-8.133q.013-3.341.32-6.667a76.4,76.4,0,0,1,11.561-33.829,20.332,20.332,0,0,0,7.458-9.636,15.507,15.507,0,0,0,.944-4.366c-.4.1-.816.177-1.222.248l-.387.062-.048.007a2.349,2.349,0,0,1-2.332-3.6l.46-.71c.232-.365.471-.723.7-1.088a1.172,1.172,0,0,0,.076-.11c.267-.416.535-.825.8-1.241a6.793,6.793,0,0,0-2.447-1.9c-3.29-1.475-7.421.244-9.35,3.284s-1.932,7.012-.774,10.423a27.224,27.224,0,0,0,4.652,7.939c-.144.233-.3.46-.441.693a76.9,76.9,0,0,0-6.6,13.508,31.971,31.971,0,0,0-3.505-14.559c-2.29-4.178-6.1-7.5-9.5-10.959a6.561,6.561,0,0,0-11.269,4.466q0,.085,0,.169.709.3,1.394.658a3.216,3.216,0,0,1-.656,5.959l-.064.017a32,32,0,0,0,1.356,4.666,32.95,32.95,0,0,0,18.543,18.756c.276.106.546.212.821.311a78.485,78.485,0,0,0-2.05,20.222,74.442,74.442,0,0,0,1.353,11.943l-.035-.139a19.67,19.67,0,0,0-7.9-10.565c-5.6-3.661-13.023-4.426-18.934-7.215a3.692,3.692,0,0,0-5.233,4.182l.039.146a21.609,21.609,0,0,1,2.535.9q.709.3,1.394.658a3.216,3.216,0,0,1-.656,5.959l-.064.017-.132.035a32.03,32.03,0,0,0,6.855,8.534,32.98,32.98,0,0,0,24.912,7.846h.007a78.463,78.463,0,0,0,6.9,14.727l18.719-2.036c.045-.215.081-.437.119-.651a21.393,21.393,0,0,1-5.213.255c1.2-1.855,2.405-3.724,3.609-5.579a1.177,1.177,0,0,0,.076-.11c.61-.949,1.227-1.892,1.836-2.84h0a31.338,31.338,0,0,0-1.776-7.837Z" transform="translate(-187.399 -154.291)" fill="#f2f2f2"/>
    <path id="Path_41346" data-name="Path 41346" d="M667.416,272.072a6.573,6.573,0,0,1,4.189,9.167l10.045,11.168-5.3,7.759L662.388,284.2a6.609,6.609,0,0,1,5.028-12.124Z" transform="translate(-349.506 -194.692)" fill="#a0616a"/>
    <path id="Path_41347" data-name="Path 41347" d="M765.01,306.59h0a13.142,13.142,0,0,0-18.118-4.293l-33.035,20.46-35.635-30.291-8.866,8.255L708.723,351.8l51.165-26.673C758.693,325.746,766.453,308.939,765.01,306.59Z" transform="translate(-353.062 -201.788)" fill="#ccc"/>
    <path id="Path_41348" data-name="Path 41348" d="M585.241,352.58a124.188,124.188,0,1,1-14.68-58.617,122.575,122.575,0,0,1,6.867,15.163c.269.725.531,1.449.787,2.181v.007q1.708,4.824,3.009,9.828a124.247,124.247,0,0,1,4.017,31.438Z" transform="translate(-238.737 -179.747)" fill="#3f3d56"/>
    <path id="Path_41349" data-name="Path 41349" d="M479.807,287.3a41.683,41.683,0,0,0-36.593-1.5c-5.116,2.227-10.5,6.221-12.211,13.434,6.9-4.074,15.839,2.363,17.615,12.689l-.415.114c-.938,7.152,1.156,14.939,5.211,19.374.532-4.607,3.561-7.742,6.541-9.7s6.275-3.381,8.549-6.747c2.7-3.991,3.38-9.823,4.451-15.144S476.058,288.785,479.807,287.3Z" transform="translate(-271.128 -198.289)" fill="#fff"/>
    <path id="Path_41350" data-name="Path 41350" d="M412.094,346.617c-1.912,2.871-4.465,4.673-6.757,6.916a15.555,15.555,0,0,0-4.914,9.186c-.29,2.5.159,5.038.1,7.564s-.9,5.37-2.623,6c-2.712.98-4.783-4.058-7.571-4.41-2.216-.276-4.21,3.209-3.568,6.232s3.658,4.362,5.39,2.388c1.567,2.63.462,7.4-1.891,8.206-.249,1.656-.5,3.306-.739,4.962-5.949-4.162-11.961-8.393-17.02-14.487a43.973,43.973,0,0,1-10.022-23.687c-.656-7.005.317-15.018-2.9-20.409-2.574-4.314-6.992-5.266-10.967-5-.725.048-1.456.131-2.181.221a122.868,122.868,0,0,1,8.9-20.36,8.717,8.717,0,0,0,2.229-1.387c3.7-3.14,5.342-9.5,8.344-13.893q.29-.424.6-.828c3.071-4.01,7.185-6.074,11.16-7.992,8.8-4.272,17.855-8.6,27.145-8.006l-2.643.255q-4.628,12.962-9.262,25.923-.7,1.988-1.422,3.982c-1.753,4.914-3.561,10.146-3.292,15.646.159,3.258,1.291,6.736,3.444,7.854,2.008,1.035,4.2-.235,6.143-1.491.821-.525,1.636-1.049,2.457-1.581,2.947-1.9,6.212-3.844,9.324-2.574,2.85,1.16,4.955,5.031,5.356,9.207a18.407,18.407,0,0,1-2.816,11.561Z" transform="translate(-242.056 -196.739)" fill="#fff"/>
    <path id="Path_41351" data-name="Path 41351" d="M456.147,464.047l-25.822-15.9.146-.376c-5.352,2.038-7.573,11.551-6.689,19.331s3.883,14.734,5.4,22.314a59.229,59.229,0,0,1-2.233,31.078,254.523,254.523,0,0,0,29.9-41.2,22.043,22.043,0,0,0,2.7-6,9.54,9.54,0,0,0-.632-6.785,7.553,7.553,0,0,0-2.772-2.466Z" transform="translate(-268.58 -255.175)" fill="#fff"/>
    <path id="Path_41352" data-name="Path 41352" d="M420.961,322.123a9.518,9.518,0,0,0-.436,6.921c.847,2.172,2.638,3.153,4.286,3.97l4.756,2.357c1.582.784,3.288,1.576,4.9.931,1.945-.778,3.294-3.828,2.945-6.66-.371-3.013-2.271-5.085-4.027-6.85l-7.374-7.409-1.385,1.7A18.5,18.5,0,0,0,420.961,322.123Z" transform="translate(-267.365 -209.666)" fill="#fff"/>
    <path id="Path_41353" data-name="Path 41353" d="M619.582,346.746,626,348.257c-.373,7.226-3.955,13.914-8.758,16.337-2,1.008-4.231,1.38-5.887,3.265-1.5,1.712-2.257,4.376-2.954,6.922l-3.665,13.334c-1.311,4.79-3,10.111-6.4,11.837-2.926,1.484-6.274-.331-8.524-3.375s-3.624-7.137-4.956-11.126c.083,4.348-1.939,8.614-4.8,10.125s-6.364.145-8.282-3.23c-1.38-2.423-1.953-5.618-3.306-8.075s-4.189-3.865-5.666-1.56c-.973,1.532-.849,3.879-1.332,5.825a6.325,6.325,0,0,1-5.287,5.087c-2.25.166-4.445-1.132-6.329-2.892-3.886-3.644-6.75-9.428-7.861-15.853a18.912,18.912,0,0,1,.221-8.669c.849-2.685,2.9-4.755,4.935-4.245,1.339-2.83-1.3-6.584-3.686-6.253s-4.258,2.892-6.219,4.859-4.686,3.4-6.653,1.442a2.7,2.7,0,0,1-2.74,2.864c-1.27-.145-2.4-1.166-3.568-1.891-4.507-2.809-10.229-.946-13.431,4.369,2-8.517,4.935-18.29,11.084-20.291,2.512-.821,5.252-.145,7.627-1.567,4.2-2.519,5.052-12.037,1.422-15.964.462,3.713.373,8.047-1.587,10.587s-6.074.883-5.825-2.871a2.515,2.515,0,0,1-4.68.994c-1.3-1.988-1.194-5.238-.269-7.613a17.933,17.933,0,0,1,4.024-5.715c3.278-3.513,6.605-7.067,10.4-9.276s8.193-2.954,12-.759c2.009,1.159,3.775,3.092,5.825,4.113s4.652.9,6.012-1.5c1.525-2.678.807-6.653,1.373-10,1.015-5.915,6.929-8.682,10.208-4.776-2.45-.628-4.983,2.271-5.287,5.784s1.463,7.061,3.837,8.124c3.989,1.767,7.9-2.678,10.912-6.792q4.721-6.46,9.456-12.913a15.606,15.606,0,0,1,1.691-2.057,5.441,5.441,0,0,1,7.433-.152c3.189,2.6,4.686,7.937,7.3,11.609,3.8,5.335,9.476,6.633,14.763,7.668q5.911,1.149,11.83,2.312a122.577,122.577,0,0,1,6.867,15.163C630.584,334.295,624.421,339.6,619.582,346.746Z" transform="translate(-298.573 -202.079)" fill="#fff"/>
    <path id="Path_41354" data-name="Path 41354" d="M681.045,497.62a123.737,123.737,0,0,1-10.284,17.206c-2.484-1.063-5.156.835-7.481,2.616-2.429,1.863-5.349,3.679-7.841,1.981-2.547-1.739-3.368-6.6-2.561-10.463s2.823-6.916,4.776-9.828c2.071-3.092,4.286-6.3,7.164-7.5s6.591.5,7.433,4.6l2.043-.069c-1.146-1.574-.545-4.831.994-5.4,1.774-.669,3.313,1.767,4.362,3.92C680.12,495.646,680.6,496.626,681.045,497.62Z" transform="translate(-347.295 -269.911)" fill="#fff"/>
    <path id="Path_41355" data-name="Path 41355" d="M549.587,439.229c-4.391.276-7.87-5.13-10.181-10.448s-4.42-11.4-8.383-14.107c-2.264-1.547-4.845-1.759-7.3-2.508a9.04,9.04,0,0,1-6.2-5.459l-2.786-1.125c-3.679,2.069-7.406,4.175-10.576,7.541a23.637,23.637,0,0,0-6.3,13.777c-.532,5.576,1.433,11.793,5.1,13.887,2.9,1.655,6.279.612,9.217,2.127,3.671,1.893,5.851,7.392,6.676,12.821s.616,11.072,1.206,16.563,2.217,11.2,5.584,14.018c4.213,3.521,10.4.6,12.286-5.815.927-3.144.9-6.692,1.589-9.956,1.221-5.748,4.517-10.012,7.131-14.727S551.326,444.7,549.587,439.229Z" transform="translate(-294.08 -240.672)" fill="#fff"/>
    <path id="Path_41356" data-name="Path 41356" d="M510.26,365.79A11.732,11.732,0,0,1,511.4,367a3.988,3.988,0,0,1-.07,4.118,3.832,3.832,0,0,0,2.744-1.395,17.638,17.638,0,0,0,2.1-2.964,3.23,3.23,0,0,0,.62-2.585c-.207-.592-.7-.845-1.042-1.29a8.766,8.766,0,0,1-.962-2.8c-.609-2.092-2.069-3.63-3.653-3.85l.22.042a2.087,2.087,0,0,0-.978,2.224c.133.861.687,1.576.632,2.455-.079,1.263-1.341,1.856-1.419,3.119a2.411,2.411,0,0,0,.662,1.707Z" transform="translate(-298.145 -223.712)" fill="#fff"/>
    <path id="Path_41357" data-name="Path 41357" d="M499.142,337.871l.02,0a3.516,3.516,0,0,0,.375-.4Z" transform="translate(-294.551 -217.258)" fill="#e6e6e6"/>
    <path id="Path_41358" data-name="Path 41358" d="M497.517,343.986a3.829,3.829,0,0,0,1.192-3.8c-.319-1.436-1.448-2.4-2.489-2.137a2.537,2.537,0,0,1-2.359.695c-.644-.166-1.351-.593-1.909-.107a2.891,2.891,0,0,0-.65,1.27l-.62,1.9a1.2,1.2,0,0,0-.073.721.611.611,0,0,0,.469.372l3.72,1.1A3.205,3.205,0,0,0,497.517,343.986Z" transform="translate(-291.608 -217.444)" fill="#fff"/>
    <path id="Path_41359" data-name="Path 41359" d="M640.22,468.637l-1.72-2.816a9.408,9.408,0,0,0-2.266-2.845,2.008,2.008,0,0,0-2.859.286l.07.536a12.107,12.107,0,0,1,3.02,5.893c.131.959.085,1.952.2,2.915a3.4,3.4,0,0,0,1.062,2.378c.9.6,1.963-.286,2.6-1.371a4.721,4.721,0,0,0,.731-3,5.27,5.27,0,0,0-.844-1.972Z" transform="translate(-340.693 -260.24)" fill="#fff"/>
    <path id="Path_41360" data-name="Path 41360" d="M679.511,412.748l.5-3.262a9.407,9.407,0,0,0,.1-3.636,2.008,2.008,0,0,0-2.371-1.622l-.292.455a12.107,12.107,0,0,1-1.484,6.454c-.518.818-1.192,1.548-1.724,2.359a3.4,3.4,0,0,0-.719,2.5c.3,1.043,1.686,1.045,2.876.629a4.72,4.72,0,0,0,2.495-1.828,5.268,5.268,0,0,0,.624-2.052Z" transform="translate(-354.472 -240.193)" fill="#e6e6e6"/>
    <path id="Path_41361" data-name="Path 41361" d="M655.061,468.057c.28-.806-.124-1.73-.21-2.62a5.752,5.752,0,0,1,.875-3.261,10.6,10.6,0,0,0,1.364-2.99,2.5,2.5,0,0,0-.065-1.464c-.19-.426-.649-.621-.913-.283l.564.363a5.137,5.137,0,0,0-2.289.111,2.833,2.833,0,0,0-1.735,1.956,12.1,12.1,0,0,1-.455,2.029c-.336.692-.988.922-1.4,1.529a3.655,3.655,0,0,0,.058,3.473,4.054,4.054,0,0,0,2.293,1.8C653.838,468.95,654.745,468.963,655.061,468.057Z" transform="translate(-346.541 -258.439)" fill="#fff"/>
    <path id="Path_41362" data-name="Path 41362" d="M679.011,478.165a7.882,7.882,0,0,0,.992,1.821c.767.772,1.809.3,2.739.11a4.735,4.735,0,0,1,4.5,1.807,11.466,11.466,0,0,0-6.594-8.227,19.371,19.371,0,0,0-6.782-1.06l-.394.1C674.48,475.637,677.631,475.572,679.011,478.165Z" transform="translate(-354.478 -263.715)" fill="#fff"/>
    <path id="Path_41363" data-name="Path 41363" d="M578.558,490.068l.006.013.115-.221Z" transform="translate(-321.85 -269.643)" fill="#e6e6e6"/>
    <path id="Path_41364" data-name="Path 41364" d="M573.586,494.886a21.582,21.582,0,0,0-1.363,2.994,26.057,26.057,0,0,0-.988,5.123c-.123.987-.161,2.248.457,2.729a.877.877,0,0,0,1.148-.156,4.54,4.54,0,0,0,.832-1.237,28.492,28.492,0,0,0,2.809-6.667,11.6,11.6,0,0,0-.46-7.476Z" transform="translate(-319.307 -269.758)" fill="#fff"/>
    <path id="Path_41365" data-name="Path 41365" d="M538.466,301.191a2.766,2.766,0,0,0,2.981.582,9.846,9.846,0,0,0,2.8-1.853,6.6,6.6,0,0,0,1.7-1.855,3.762,3.762,0,0,0,.348-2.865,2.911,2.911,0,0,0-2.218-1.755l-4.129-1.224,1-.9c-1.024-.55-2.158.471-2.8,1.734a9.337,9.337,0,0,0-.849,2.615C536.957,297.655,537.292,300.016,538.466,301.191Z" transform="translate(-307.623 -201.343)" fill="#e6e6e6"/>
    <path id="Path_41366" data-name="Path 41366" d="M575.693,291a2.274,2.274,0,0,0,3.1.252,3.464,3.464,0,0,0,1.371-2.469c.1-1.083-.438-2.286-1.2-2.38l.175-1.014c-1.473-.266-3.285-.319-4.075,1.469A4.2,4.2,0,0,0,575.693,291Z" transform="translate(-320.55 -199.308)" fill="#e6e6e6"/>
    <path id="Path_41367" data-name="Path 41367" d="M552.108,211.755a32.764,32.764,0,0,0-36.23,28.885c-2.028,17.981,7.445,57.027,24.716,73.19,8.132-30.968,36.628-49.336,40.4-65.845C585.021,230.344,570.089,213.783,552.108,211.755Z" transform="translate(-300.21 -173.972)" fill="#6c63ff"/>
    <circle id="b262ea8c-1946-46c9-a449-3a1996c39394" cx="10.685" cy="10.685" r="10.685" transform="translate(235.24 56.386)" fill="#fff"/>
    <circle id="bcc29a3a-8123-4529-80aa-6f70df2823cf" cx="6.999" cy="6.999" r="6.999" transform="translate(227.692 141.267)" fill="#6c63ff"/>
    <path id="Path_41368" data-name="Path 41368" d="M569.834,244.161a10.685,10.685,0,0,1-11.007,18.318,10.684,10.684,0,0,0,7.815-19.591,10.685,10.685,0,0,1,3.192,1.273Z" transform="translate(-315.067 -184.746)" fill="#231f20" opacity="0.2" style="isolation: isolate"/>
    <path id="Path_41369" data-name="Path 41369" d="M591.78,248.57c-3.771,16.509-32.267,34.878-40.4,65.845a45.318,45.318,0,0,1-4.513-4.945c9.138-29.109,35.861-46.8,39.5-62.747,3.261-14.276-5.9-27.844-19.041-33.575C583.24,217.147,595.472,232.4,591.78,248.57Z" transform="translate(-310.956 -174.523)" fill="#231f20" opacity="0.2" style="isolation: isolate"/>
    <path id="Path_41370" data-name="Path 41370" d="M404.286,275.314a24.6,24.6,0,0,0-27.207,21.691c-1.523,13.5,5.591,42.825,18.561,54.963,6.107-23.256,27.507-37.05,30.338-49.448C429,289.273,417.789,276.837,404.286,275.314Z" transform="translate(-252.521 -195.838)" fill="#6c63ff"/>
    <circle id="b262ea8c-1946-46c9-a449-3a1996c39394-2" data-name="b262ea8c-1946-46c9-a449-3a1996c39394" cx="8.024" cy="8.024" r="8.024" transform="translate(139.256 93.445)" fill="#fff"/>
    <circle id="bcc29a3a-8123-4529-80aa-6f70df2823cf-2" data-name="bcc29a3a-8123-4529-80aa-6f70df2823cf" cx="5.256" cy="5.256" r="5.256" transform="translate(133.587 157.189)" fill="#6c63ff"/>
    <path id="Path_41371" data-name="Path 41371" d="M417.6,299.65a8.024,8.024,0,1,1-8.266,13.756,8.023,8.023,0,0,0,5.869-14.712A8.024,8.024,0,0,1,417.6,299.65Z" transform="translate(-263.678 -203.929)" fill="#231f20" opacity="0.2" style="isolation: isolate"/>
    <path id="Path_41372" data-name="Path 41372" d="M434.079,302.961c-2.832,12.4-24.231,26.192-30.338,49.448a34.036,34.036,0,0,1-3.389-3.713c6.862-21.86,26.93-35.142,29.666-47.121,2.449-10.721-4.43-20.91-14.3-25.214C427.666,279.363,436.852,290.821,434.079,302.961Z" transform="translate(-260.591 -196.252)" fill="#231f20" opacity="0.2" style="isolation: isolate"/>
    <path id="Path_41373" data-name="Path 41373" d="M607.253,546.253h-8.81l-4.192-33.983h13Z" transform="translate(-204.264 -176.093)" fill="#a0616a"/>
    <path id="Path_41374" data-name="Path 41374" d="M792.69,732.361h-6.252l-1.116-5.9-2.858,5.9H765.884a3.727,3.727,0,0,1-2.118-6.794l13.241-9.145v-5.967l13.927.831Z" transform="translate(-384.962 -345.472)" fill="#2f2e41"/>
    <path id="Path_41375" data-name="Path 41375" d="M555.253,546.253h-8.81l-4.192-33.983h13Z" transform="translate(-186.389 -176.093)" fill="#a0616a"/>
    <path id="Path_41376" data-name="Path 41376" d="M740.69,732.361h-6.252l-1.116-5.9-2.858,5.9H713.884a3.727,3.727,0,0,1-2.118-6.794l13.241-9.145v-5.967l13.927.831Z" transform="translate(-367.087 -345.472)" fill="#2f2e41"/>
    <path id="Path_41377" data-name="Path 41377" d="M698.174,532.94c1.686,2.529,20.028,72.052,20.028,72.052l16.264,1.855-1.93-17.492L729.585,558.4l-4.569-20.662s16.135-36.721,17.155-39.647l.725-2.1,5.041,45.75a12.847,12.847,0,0,1,.767,5.109c-.152,2.858,2.715,45.851,2.715,45.851l1.378,15.419,13.934,1.936,5.653-26.678c4.721-8.666,2.015-39.461.084-42.328s-1.163-22.829-1.163-22.829c2.465-.867,17.165-50.995,9.813-50.7.472-2.672.843-5.058.843-5.058L769.2,452.171l-31.942-8.3L729.2,440s-14.393,26.614-14.25,27.937a7.359,7.359,0,0,1-1.087,4.8l-14.532,48.633S696.471,530.385,698.174,532.94Z" transform="translate(-362.782 -252.503)" fill="#2f2e41"/>
    <path id="Path_41378" data-name="Path 41378" d="M792.991,310.787,787.91,300l-17.3.665-5.641,11.224S748.851,331.143,748.33,337.4c-.656,7.875,4.8,46.47-.656,43.969,0,0-12.859,15.094-5.25,15.094s42.028,21.606,44.286,24.036,12.34,4.005,11.495-1.067-5.213-32.507-5.213-32.507l11.825-43.137c3.4-9.313,4.462-19.76-3.231-26.016Z" transform="translate(-377.351 -204.377)" fill="#ccc"/>
    <path id="Path_41379" data-name="Path 41379" d="M708.745,267.347a18.953,18.953,0,0,0-24.608,10.623c-3.862,9.729-4.5,32.962,2.685,44.606,9.241-16.051,27.936-21.978,32.547-30.621C724.3,282.72,718.474,271.209,708.745,267.347Z" transform="translate(-357.167 -192.692)" fill="#6c63ff"/>
    <circle id="b262ea8c-1946-46c9-a449-3a1996c39394-3" data-name="b262ea8c-1946-46c9-a449-3a1996c39394" cx="6.181" cy="6.181" r="6.181" transform="translate(337.617 83.915)" fill="#fff"/>
    <circle id="bcc29a3a-8123-4529-80aa-6f70df2823cf-3" data-name="bcc29a3a-8123-4529-80aa-6f70df2823cf" cx="4.049" cy="4.049" r="4.049" transform="translate(321.152 129.665)" fill="#6c63ff"/>
    <path id="Path_41380" data-name="Path 41380" d="M715.882,286.488a6.181,6.181,0,0,1-8.925,8.554,6.18,6.18,0,0,0,7.337-9.749,6.181,6.181,0,0,1,1.588,1.2Z" transform="translate(-365.987 -199.323)" fill="#231f20" opacity="0.2" style="isolation: isolate"/>
    <path id="Path_41381" data-name="Path 41381" d="M721.362,293.287c-4.611,8.643-23.306,14.57-32.547,30.621a26.225,26.225,0,0,1-1.769-3.445c9.52-14.861,27.121-20.677,31.577-29.028,3.987-7.474.935-16.438-5.531-21.632C721.365,274.45,725.877,284.823,721.362,293.287Z" transform="translate(-359.143 -193.998)" fill="#231f20" opacity="0.2" style="isolation: isolate"/>
    <path id="Path_41382" data-name="Path 41382" d="M677.361,355.849a6.573,6.573,0,0,1,7.9,6.262l14.023,5.383-1.193,9.319-19.7-7.88a6.609,6.609,0,0,1-1.032-13.085Z" transform="translate(-353.986 -223.53)" fill="#a0616a"/>
    <path id="Path_41383" data-name="Path 41383" d="M783.424,325.647h0a13.142,13.142,0,0,0-18.09,4.409L745.206,363.3,699.7,352.508l-4.146,11.382L753.83,391.5l29.516-47.012C787.765,338.274,789.929,329.619,783.424,325.647Z" transform="translate(-362.066 -212.533)" fill="#ccc"/>
    <path id="Path_41384" data-name="Path 41384" d="M810.094,254.332a19.571,19.571,0,1,1-33.663-13.575l.094-.094c.156-.164.313-.329.478-.485l.006,0a.008.008,0,0,0,0-.006c.2-.188.407-.376.619-.556a19.566,19.566,0,0,1,32.465,14.718Z" transform="translate(-387.985 -181.952)" fill="#2f2e41"/>
    <circle id="Ellipse_3639" data-name="Ellipse 3639" cx="16.411" cy="16.411" r="16.411" transform="translate(381.305 60.497)" fill="#9e616a"/>
    <path id="Path_41385" data-name="Path 41385" d="M800.13,265.282l-2.719-.48a7.583,7.583,0,0,1-6.106-6.115l-2.653,4.447-.116.038c-6.322,2.1-12.9,1.471-20.1-1.917a56.1,56.1,0,0,1-5.984-3.3l-.142-.089-.012-.167c-.367-5.339.831-9.8,3.374-12.559a10.118,10.118,0,0,1,7.635-3.183.628.628,0,0,0,.271-.15l.11-.079V241.7l.188-.089c.405-.19.818-.373,1.23-.539a18.506,18.506,0,0,1,19.325,3.746c5.055,4.826,7.374,12.925,5.77,20.154Z" transform="translate(-384.987 -183.694)" fill="#2f2e41"/>
    <path id="Path_41386" data-name="Path 41386" d="M850.487,270.5c-5.585-2.883,1.6-13.344.155-19.461s-11.837-8.084-12.5-14.334-2.22-12.7-6.344-17.438c-2.635-3.03-6.518-5.268-10.516-4.888a9.456,9.456,0,0,0-8.287,11.676,2.907,2.907,0,0,0-4.813.571,2.948,2.948,0,0,0,2.469,3.751c2.205,2.723,4.731,5.614,8.186,6.163a3.728,3.728,0,0,0,3.177-.733,1.934,1.934,0,0,0-.088-2.924c4.342,1.725,6.887,6.419,7.532,11.046s-.247,9.309-.834,13.944-.84,9.51.977,13.814a17.59,17.59,0,0,0,12.485,9.9,23.943,23.943,0,0,0,16.023-2.547,37.883,37.883,0,0,0,12.282-10.908C864.659,272.2,856.731,273.727,850.487,270.5Z" transform="translate(-400.728 -174.932)" fill="#2f2e41"/>
    <path id="Path_41387" data-name="Path 41387" d="M805.235,265.57a33.382,33.382,0,0,0-25.7-22.335c-.023-.008-.1-.039-.2-.086-.063-.039-.141-.078-.219-.117.235-.133.462-.25.7-.368l.006,0a.008.008,0,0,0,0-.006c.2-.188.407-.376.618-.556l.595.023S801.939,238.813,805.235,265.57Z" transform="translate(-390.79 -184.439)" fill="#fd6584"/>
    <path id="Path_41388" data-name="Path 41388" d="M598.582,212.357l-11.77,13.636-19.448-5.743,21.2,9.77Z" transform="translate(-195.021 -72.998)" opacity="0.2"/>
    <path id="Path_41389" data-name="Path 41389" d="M814.786,744.584l-180.961.2a.781.781,0,1,1,0-1.563l180.961-.2a.781.781,0,0,1,0,1.563Z" transform="translate(-340.579 -356.667)" fill="#cacaca"/>
    <path id="Path_41390" data-name="Path 41390" d="M675.052,473.639q-12.71,0-27.862-.961c-52.247-3.318-119.922-14.853-190.559-32.479s-135.8-39.24-183.478-60.857c-23.226-10.531-41.052-20.5-52.983-29.628-12.631-9.665-18.156-18.089-16.422-25.038,3.378-13.538,33.292-16.5,57.792-16.6l.008,1.969c-33.645.138-53.493,5.5-55.89,15.108-3.053,12.233,21.844,31.33,68.307,52.4,47.575,21.57,112.616,43.141,183.142,60.74S595.183,467.4,647.315,470.713c50.911,3.234,81.863-1.928,84.915-14.161,2.534-10.156-14.174-25.118-47.046-42.13l.9-1.748c23.885,12.361,51.611,30.09,48.052,44.355-1.734,6.949-10.569,11.789-26.26,14.387A205.665,205.665,0,0,1,675.052,473.639Z" transform="translate(-192.902 -207.154)" fill="#6c63ff"/>
  </g>
</svg>
