<svg id="Group_5790" data-name="Group 5790" xmlns="http://www.w3.org/2000/svg" width="200" height="200" viewBox="0 0 301.21 301.21">
  <path id="Path_41411" data-name="Path 41411" d="M150.6,301.211c-3.434,0-6.854-.116-10.172-.338-3.419-.227-6.853-.575-10.2-1.034-1.473-.2-2.806-.4-4.076-.6-3.772-.613-7.612-1.391-11.413-2.318-1.3-.314-2.574-.642-3.782-.98-.425-.111-.86-.232-1.29-.353-1.835-.517-3.613-1.053-5.274-1.594-.106-.029-.232-.072-.357-.111-1.5-.483-3.062-1.019-4.646-1.594-1.338-.483-2.69-.995-4.134-1.565A150.654,150.654,0,0,1,44.111,44.107a150.605,150.605,0,0,1,257.1,106.5A149.084,149.084,0,0,1,285.4,217.855a151.257,151.257,0,0,1-69.573,68.532c-1.087.526-2.251,1.063-3.651,1.7l-.155.068c-.169.077-.333.15-.5.222-1.053.468-2.125.927-3.183,1.362l-.478.2c-.285.121-.57.237-.86.348-3.883,1.57-7.868,2.995-11.852,4.217-2.956.918-6.052,1.768-9.206,2.526a150.83,150.83,0,0,1-35.335,4.178h0ZM150.6.98a149.653,149.653,0,0,0-127.241,228.4,149.8,149.8,0,0,0,72.263,60.432c1.434.57,2.777,1.077,4.105,1.555,1.579.57,3.13,1.1,4.622,1.584.116.039.227.072.338.106,1.661.541,3.424,1.072,5.25,1.589.425.121.85.241,1.275.353,1.2.333,2.463.662,3.758.976,3.777.923,7.588,1.7,11.34,2.3,1.261.208,2.584.406,4.047.6,3.323.454,6.733.8,10.133,1.024,3.294.222,6.694.338,10.1.338a150.02,150.02,0,0,0,35.113-4.149c3.135-.753,6.211-1.6,9.148-2.507,3.956-1.217,7.921-2.628,11.78-4.192.29-.111.565-.227.84-.343l.57-.242c1.019-.42,2.053-.865,3.077-1.319.174-.072.333-.145.493-.217l.155-.068c1.391-.628,2.545-1.164,3.627-1.686a149.45,149.45,0,0,0,27.028-16.765,151.112,151.112,0,0,0,42.1-51.333A149.676,149.676,0,0,0,150.6.966h0V.98Z" transform="translate(0)" fill="#6b63ff"/>
  <path id="Path_41412" data-name="Path 41412" d="M252.009,177.091s-26.454,2.985-28.159,43.948c-1.42,34.133-4.328,53.158,9.558,60.278a21,21,0,0,0,16.1,1.029L306.2,263.707s.855-61.442-18.774-76.376-35.413-10.24-35.413-10.24h0Z" transform="translate(-115.084 -91.195)" fill="#2f2e41"/>
  <path id="Path_41413" data-name="Path 41413" d="M317.49,338.683l-28.69,9.433v-41.3h26.029Z" transform="translate(-149.316 -158.627)" fill="#f6a6a9"/>
  <path id="Path_41414" data-name="Path 41414" d="M309,475.414q-5.8,2.347-11.819,4.207-4.528,1.406-9.177,2.516a150.136,150.136,0,0,1-35.225,4.163q-5.115,0-10.138-.338-5.137-.34-10.167-1.029c-1.362-.184-2.714-.382-4.062-.6q-5.76-.935-11.375-2.314-1.891-.456-3.767-.976c-.43-.111-.86-.232-1.285-.353q-2.644-.746-5.255-1.589c-.116-.034-.237-.072-.353-.111q-2.333-.753-4.637-1.589-2.072-.746-4.12-1.56l29.806-98.1,1.241-4.081,4.4-14.495.034-.116.034-.106h52.052l.348,1.7,8.535,41.75,6.149,30.091,6.047,29.574,2.487,12.172.242,1.193h0Z" transform="translate(-102.175 -185.574)" fill="#dddedf"/>
  <path id="Path_41415" data-name="Path 41415" d="M226.461,358.969l-3.5,14.5-.488,2.033-.256,1.058-15.533,64.388-9.587,39.741q-2.644-.746-5.255-1.589c-.116-.034-.237-.072-.353-.111q-2.333-.753-4.637-1.589-2.072-.746-4.12-1.56a148.81,148.81,0,0,1-13.91-6.337c10.061-49.8,20.16-98.758,21.8-102.859.72-1.8,2.734-3.183,5.463-4.246.787-.309,1.637-.589,2.531-.845,5.859-1.671,13.678-2.285,19.542-2.5h.058c2.338-.082,4.361-.106,5.82-.106s2.425.024,2.425.024h0Z" transform="translate(-87.284 -185.579)" fill="#dddedf"/>
  <circle id="Ellipse_3644" data-name="Ellipse 3644" cx="28.589" cy="28.589" r="28.589" transform="translate(114.446 102.448)" fill="#f6a6a9"/>
  <path id="Path_41416" data-name="Path 41416" d="M252.938,199.93s-15.731,63.876,1.763,93.745l-24.642-5.236s-9.549-69.918,9.655-82.626l13.229-5.883h0Z" transform="translate(-117.718 -103.365)" fill="#2f2e41"/>
  <path id="Path_41417" data-name="Path 41417" d="M249.224,567.153c-1.362-.184-2.714-.382-4.062-.6q-5.76-.935-11.375-2.314-1.891-.456-3.767-.976l1.608-12.336,4.294-32.955,1.932,7.139,1.777,6.574,9.592,35.471h0Z" transform="translate(-118.925 -267.793)" fill="#272223" opacity="0.1" style="isolation: isolate"/>
  <path id="Path_41418" data-name="Path 41418" d="M379.552,522.643q-1.579.7-3.178,1.362h0l-.478.2c-.28.116-.56.232-.845.343q-5.8,2.347-11.819,4.207h0a59.639,59.639,0,0,1-21.121-27.033l-2.26-5.8L325.37,453.98l32.081,33.66,5.864,9.283,9.008,14.258,7.235,11.457h0Z" transform="translate(-168.224 -234.71)" fill="#272223" opacity="0.1" style="isolation: isolate"/>
  <path id="Path_41419" data-name="Path 41419" d="M406.324,453.457a149.937,149.937,0,0,1-27.115,16.818c-1.2.58-2.42,1.14-3.642,1.69-.217.1-.43.193-.647.285q-1.579.7-3.178,1.362h0c-.526-.2-1.048-.42-1.565-.647A47.789,47.789,0,0,1,355.967,463a87.375,87.375,0,0,1-13.819-18.455c-1.777-3.086-3.313-6.086-4.613-8.819l-.019-.043a115.033,115.033,0,0,1-5.236-12.853l-4.661-19.141-1.28-5.25h0l-7.284-29.888-2.647-10.867,3.951-.174,10.795-.473,11.906-.526a35.99,35.99,0,0,1,7.994,1.521,36.561,36.561,0,0,1,20.17,15.412c12.973,20.513,33.747,56.694,35.1,80.013Z" transform="translate(-163.592 -184.317)" fill="#dddedf"/>
  <path id="Path_41420" data-name="Path 41420" d="M219.522,329.587c6.264-2.256,22.846-2.265,30.284.246a3.109,3.109,0,0,1,2.067,3.458l-.295,1.782a6.949,6.949,0,0,0,1.879-.555,10.207,10.207,0,0,1,8.791-.155,9.179,9.179,0,0,1,4.806,6.231c1.454,6.434-2.212,9.993-2.212,9.993l-4.883,4.584a84.24,84.24,0,0,1-13.321,10.2l-.1.058,1.739-10.462a3.5,3.5,0,0,0,4.883,1.246c4.26-2.637,11.22-7.921,10.375-13.92-.589-4.183-2.912-5.071-5.144-4.883a7.047,7.047,0,0,0-5.743,4.047,2.859,2.859,0,0,1-1.2,1.275l-1.256.686-3.68,22.174a3.136,3.136,0,0,1-1.7,2.3c-8.655,4.246-18,2.043-21.228,1.053a3.114,3.114,0,0,1-1.768-1.381l-.7-1.154a3.139,3.139,0,0,1-.435-1.3l-3.212-32.274a3.126,3.126,0,0,1,2.053-3.246h0Z" transform="translate(-112.431 -169.537)" fill="#6c63ff"/>
  <path id="Path_41421" data-name="Path 41421" d="M251.745,333.452c0,.758-6.516,1.372-14.553,1.372s-14.553-.613-14.553-1.372,6.516-1.372,14.553-1.372S251.745,332.693,251.745,333.452Z" transform="translate(-115.11 -171.687)" fill="#dedfe0"/>
  <path id="uuid-4649cc22-8d47-4d9d-b2d1-a070273bfea6" d="M292.93,374.009c-5.477-7.873-5.675-17.132-.444-20.687s13.905-.058,19.383,7.82a23.178,23.178,0,0,1,4.144,10.539l22.759,33.65-16.7,10.578-20.663-34.293a23.479,23.479,0,0,1-8.477-7.6h0Z" transform="translate(-149.259 -181.95)" fill="#f6a6a9"/>
  <path id="Path_41422" data-name="Path 41422" d="M325.36,435.461l18.808-17.311,37.186,34.626-34.582,23.638Z" transform="translate(-168.219 -216.185)" fill="#dddedf"/>
  <path id="Path_41423" data-name="Path 41423" d="M425.525,487.522,427,498.877l-9.853-11.355V476.07Z" transform="translate(-215.675 -246.13)" fill="#272223" opacity="0.1" style="isolation: isolate"/>
</svg>
