<svg id="Group_5789" data-name="Group 5789" xmlns="http://www.w3.org/2000/svg" width="200" height="200" viewBox="0 0 301.21 301.21">
  <g id="Group_5788" data-name="Group 5788" transform="translate(36.966 65.672)">
    <path id="Path_41405" data-name="Path 41405" d="M259.981,337.788l7.168-44.8-48.387-19.713-7.168,68.1Z" transform="translate(-128.759 -184.222)" fill="#a0616a"/>
    <path id="Path_41406" data-name="Path 41406" d="M265.385,439.424q-6.231,3.038-12.684,5.476a150.125,150.125,0,0,1-26.564,7.344,153.239,153.239,0,0,1-63.621-1.987c-4.645-1.139-9.329-2.532-13.935-4.154-.483-.174-.973-.348-1.456-.522a149.9,149.9,0,0,1-16.736-7.248c-.728-.364-1.456-.736-2.184-1.132-.807-.411-1.606-.846-2.413-1.3-1.029-.562-2.05-1.148-3.07-1.741-3.418-1.978-6.781-4.115-9.994-6.338l-.214-.142c-.19-.135-.38-.261-.562-.4.119-.625.23-1.2.332-1.7.4-1.986.657-3.078.657-3.078l21.666-44.757,6.038-12.471,2.944-1.211,22.236-9.139H220.17l17.147,7.09s.087.325.261.95c1.709,6.133,11.68,40.95,27.15,75.015.214.474.435.957.657,1.44Z" transform="translate(-85.532 -219.645)" fill="#6c63ff"/>
    <circle id="Ellipse_3643" data-name="Ellipse 3643" cx="49.343" cy="49.343" r="49.343" transform="translate(69.651 24.481)" fill="#a0616a"/>
    <path id="Path_41407" data-name="Path 41407" d="M123.432,370.32l-.085.425L108.3,442.271l-.13.623-.21.985c-.81-.413-1.608-.849-2.412-1.3-1.03-.566-2.05-1.149-3.074-1.744-3.414-1.976-6.777-4.116-9.993-6.336l-.215-.147c-.187-.13-.379-.26-.561-.391q-3.686-2.573-7.191-5.35a.283.283,0,0,1-.045-.04,151.4,151.4,0,0,1-12.037-10.825q-3.72-3.72-7.145-7.655l.345-1.449.034-.147.43-1.846a42.15,42.15,0,0,1,33.088-31.7l21.674-4.15Z" transform="translate(-65.29 -226.322)" fill="#6c63ff"/>
    <path id="Path_41408" data-name="Path 41408" d="M391.917,424.348a151.662,151.662,0,0,1-20.455,14.679c-.7.427-1.424.846-2.144,1.266q-4.605,2.659-9.361,4.97-6.232,3.038-12.684,5.476l-.332-1.567L329.95,368.387l2.2.42,22.046,4.225a42.146,42.146,0,0,1,33.084,31.7l4.218,17.86.419,1.756Z" transform="translate(-180.103 -225.484)" fill="#6c63ff"/>
    <path id="Path_41409" data-name="Path 41409" d="M271.784,203c-1.282,4.78-7.731,26.137-24.246,30.631-3.244.886-10.983,1.907-8.934,0,.467-.435.918-.862,1.369-1.282,17.923-16.855,25.235-27.157,21.9-50.026-2.121-14.56-26.271-27.783-39.858-29.1a22.711,22.711,0,0,0-17.867,6.378c-7.968,8.229-6.655,33.488-11.07,48.325-1.187,3.972-2.777,7.2-5.064,9.155-1.424,1.219-2.334-.332-3.007-2.872-1.432-5.4-1.8-15.28-3.838-12.487-5.879,8.1-.277,18.825,1.416,22.964.348.847.7,1.661,1.06,2.437v.008c.206.443.419.886.625,1.306v.008c5.65,11.521,12.439,15.644,18.422,22.821a44.585,44.585,0,0,1,6.56,10.445,46.586,46.586,0,0,1,3.015,8.949c3.426,14.8-.641,28.242-1.741,31.9-2.3,7.612-6.259,20.692-17.868,28.075-14.576,9.275-27.878,1.1-34.24,9.908-.079.1-.15.206-.222.308a10.862,10.862,0,0,0-.633,1.068,149.9,149.9,0,0,1-16.736-7.248c-.728-.364-1.456-.736-2.184-1.132-.807-.411-1.606-.846-2.414-1.3-.032-.617-.063-1.234-.087-1.859a129.906,129.906,0,0,1,2.9-34.208,185.452,185.452,0,0,1,6-22.085,72.151,72.151,0,0,1,6.5-13.618,61.731,61.731,0,0,1,7.929-10.248c6.916-7.225,13.065-10.239,14.038-17.868,1.393-10.888-9.947-14.164-14.038-30.631-2.793-11.26-5.713-27.489-2.88-38.425,2.675-10.334,5-19.3,12.764-28.084,1.867-2.1,17.2-16.744,34.952-19.15,8.182-1.1,15.478,9.377,25.369,11.632,11.371,2.588,17.883,4.068,24.245,8.934,10.754,8.214,13.784,20.5,16.594,31.906,2.2,8.926,5.049,20.471,1.274,34.461Z" transform="translate(-95.967 -115.99)" fill="#2f2e41"/>
  </g>
  <path id="Path_41410" data-name="Path 41410" d="M257.1,44.111A150.605,150.605,0,0,0,0,150.605a149.462,149.462,0,0,0,36.966,98.839q3.423,3.932,7.145,7.655a151.4,151.4,0,0,0,12.037,10.825.283.283,0,0,0,.045.04A150.617,150.617,0,0,0,301.211,150.605,149.621,149.621,0,0,0,257.1,44.111Zm-8.578,219.334A149.531,149.531,0,0,1,216.5,284.751q-6.106,3.015-12.513,5.475a149.016,149.016,0,0,1-124.136-7.983q-1.35-.73-2.684-1.483a148.549,148.549,0,0,1-13.543-8.668A149.768,149.768,0,0,1,1.132,150.605c0-82.42,67.053-149.473,149.473-149.473S300.078,68.186,300.078,150.605A149.142,149.142,0,0,1,248.521,263.446Z" fill="#6b63ff"/>
</svg>
