<svg xmlns="http://www.w3.org/2000/svg" width="609.599" height="506.869" viewBox="0 0 609.599 506.869">
  <g id="Group_5716" data-name="Group 5716" transform="translate(0 0)">
    <path id="Path_41238" data-name="Path 41238" d="M185.2,533.649l10.277,3.583L214.185,499.3l-15.168-5.289Z" transform="translate(-21.501 -57.354)" fill="#a0616a"/>
    <path id="Path_41239" data-name="Path 41239" d="M452.236,707.052l2.43-6.967-2.759-.777-11.225-3.184-2.6-.731L428,718.047l-.54,1.215,7.3,2.545.668-1.16,3.029-5.277.767,6.6.166,1.451,19.346,6.747a4.629,4.629,0,0,0,5.861-2.837C466.739,723.8,453.525,709.948,452.236,707.052Z" transform="translate(-275.168 -225.055)" fill="#2f2e41"/>
    <path id="Path_41240" data-name="Path 41240" d="M102.968,542.428h10.883l5.178-41.982H102.965Z" transform="translate(-11.954 -58.102)" fill="#a0616a"/>
    <path id="Path_41241" data-name="Path 41241" d="M372,711.358V703.98l-2.861.175-11.647.69-2.7.166-2.061,24.712-.11,1.325h7.728l.248-1.316,1.122-5.98,2.9,5.98.635,1.316h20.489a4.63,4.63,0,0,0,4.6-4.609C391.208,722.4,374.17,713.668,372,711.358Z" transform="translate(-266.48 -226.052)" fill="#2f2e41"/>
    <path id="Path_41242" data-name="Path 41242" d="M438.276,413.184l17.093,22.656s-9.44-.655,0,3.448,9.708,2.654,9.574,7.627-9.757,4.23-4.945,9.321,37.041,72.785,37.041,72.785-26.41,98.006-29.792,102-7.158.222-3.382,4,8.5-.944,3.776,3.776-11.194,13.049-11.194,13.049l-19.014-2.665s-20.768-19.824,12.272-52.864c0,0,8.318-33.055,4.631-33.047s-3.687,5.337-3.687-5.352V547.232L406.9,465.263s-27.923-21.782-27.484-31.739S438.276,413.184,438.276,413.184Z" transform="translate(-269.589 -192.291)" fill="#2f2e41"/>
    <path id="Path_41243" data-name="Path 41243" d="M404.416,438.2s19.824,100.064,16.992,102.9-2.832,9.938-2.832,9.938L373.264,651.54l-17.936.944c-.424-28.757-.54-50.569,15.1-70.8l7.552-148.208Z" transform="translate(-266.78 -194.647)" fill="#2f2e41"/>
    <path id="Path_41244" data-name="Path 41244" d="M431.455,302.106,409.85,285.049h0l-11.341-.659L381.68,295.171l-4.121,21.022-9.746,23.673,14.294,63.885s1.341,4.584-2.172,5.135-3.092,7.308-3.092,7.308.715,5.857-2.7,6.372-12.508.516-4.548,10.75,70.917-28.473,70.917-28.473l9.144-47.98s17.733-23.818-1.364-37.459Z" transform="translate(-268.082 -177.338)" fill="#e6e6e6"/>
    <path id="Path_41245" data-name="Path 41245" d="M332.991,454.5a10.413,10.413,0,0,1,3.142-15.655l27.176-91.2L380.3,356.2l-29.6,87.416A10.47,10.47,0,0,1,332.991,454.5Z" transform="translate(-263.935 -184.682)" fill="#a0616a"/>
    <path id="Path_41246" data-name="Path 41246" d="M382.953,295.6s-4.858-2.582-8.18,8.59c-2.66,8.944-24.244,62.215-24.519,75.167a8.18,8.18,0,0,0-6.477,7.657l26.687,3.576c4.663-3.933,5.887-9.245,4.082-10.822l5.794-15.825,24.173-50.351L386.5,297.4Z" transform="translate(-265.453 -178.609)" fill="#e6e6e6"/>
    <path id="Path_41247" data-name="Path 41247" d="M538.238,423.591a10.413,10.413,0,0,0-9.6-12.757l-62.341-71.2-13.224,15.78,64.487,66.022a10.47,10.47,0,0,0,20.681,2.154Z" transform="translate(-278.142 -183.752)" fill="#a0616a"/>
    <path id="Path_41248" data-name="Path 41248" d="M423.7,302.271s3.264-4.428,11.09,4.208c6.266,6.914,48.764,45.613,54.613,57.172a8.18,8.18,0,0,1,9.151,4.1l-22.516,14.765c-5.906-1.53-9.306-5.791-8.361-7.992l-12.068-11.763-43.57-34.946,9.244-22.386Z" transform="translate(-273.379 -179.282)" fill="#e6e6e6"/>
    <circle id="Ellipse_3619" data-name="Ellipse 3619" cx="24.511" cy="24.511" r="24.511" transform="translate(104.483 88.093) rotate(-68.749)" fill="#a0616a"/>
    <path id="Path_41249" data-name="Path 41249" d="M429.09,219.965a9.962,9.962,0,0,0-11.835-2.1l1.48-8.264-12.3-1.882c-6.184-.947-12.556-1.887-18.637-.419a24.689,24.689,0,0,0-17.891,18.172,17.113,17.113,0,0,0-26.683,15.235c.295,4.7,2.493,9.038,3.853,13.547,5.168,17.134-3.391,37.359-19.29,45.578,5.121,3.884,10.409,7.853,16.609,9.543s13.613.579,17.7-4.384c2.089-2.539,3.1-5.772,4.059-8.917l11.664-38.14,6.286,11.349c2.007,2.807,1.289,6.734-.157,9.867s-3.547,6.034-4.194,9.423.857,7.589,4.225,8.338c4.551-10.706,9.2-22.114,7.434-33.612-.687-4.475-2.333-9.064-1.04-13.4,1-3.353,3.644-5.991,6.583-7.889a26.414,26.414,0,0,1,10.147-3.885c7.989-1.271,17.932.436,22.622-6.156a9.962,9.962,0,0,0-.635-12Z" transform="translate(-263.597 -168.3)" fill="#2f2e41"/>
    <circle id="Ellipse_3620" data-name="Ellipse 3620" cx="20.758" cy="20.758" r="20.758" transform="translate(129.153 161.961)" fill="#6c63ff"/>
    <path id="Path_41250" data-name="Path 41250" d="M430.226,357.646a5.707,5.707,0,0,0,.491,1.3,2.7,2.7,0,0,0,2.254,1.7,1.259,1.259,0,0,0,.247-.036c.887-.219,1.429-1.294,1.438-2.636a5.707,5.707,0,0,0-.168-1.378,5.577,5.577,0,0,0-.486-1.285c-.631-1.19-1.615-1.9-2.5-1.678C430.319,353.922,429.751,355.72,430.226,357.646Z" transform="translate(-275.47 -185.372)" fill="#fff"/>
    <path id="Path_41251" data-name="Path 41251" d="M432.047,359.163a2.986,2.986,0,0,0,1.146,1.707,1.256,1.256,0,0,0,.247-.036c.887-.219,1.429-1.294,1.438-2.636a5.708,5.708,0,0,0-.168-1.378,5.579,5.579,0,0,0-.486-1.285,3,3,0,0,0-2.177,3.628Z" transform="translate(-275.691 -185.598)" fill="#3f3d56"/>
    <path id="Path_41252" data-name="Path 41252" d="M420.237,360.109c.456,1.849,1.709,3.145,2.85,2.989a1.259,1.259,0,0,0,.142-.027c1.176-.29,1.744-2.088,1.269-4.014a5.553,5.553,0,0,0-.485-1.283c-.632-1.193-1.615-1.9-2.505-1.681C420.331,356.385,419.763,358.183,420.237,360.109Z" transform="translate(-274.31 -185.658)" fill="#fff"/>
    <path id="Path_41253" data-name="Path 41253" d="M422.157,361.605a2.987,2.987,0,0,0,1.163,1.72,1.266,1.266,0,0,0,.142-.027c1.176-.29,1.744-2.088,1.269-4.014a5.556,5.556,0,0,0-.485-1.283A3,3,0,0,0,422.157,361.605Z" transform="translate(-274.542 -185.884)" fill="#3f3d56"/>
    <path id="Path_41254" data-name="Path 41254" d="M438.269,367.525c1.263,5.12-.738,10.017-4.468,10.937s-7.779-2.485-9.042-7.605C429.363,372.013,433.87,370.972,438.269,367.525Z" transform="translate(-274.855 -186.99)" fill="#fff"/>
    <path id="Path_41255" data-name="Path 41255" d="M401.888,372.746a20.765,20.765,0,0,1,8.6-22.219,20.76,20.76,0,0,0,27.2,30.884,20.753,20.753,0,0,1-35.8-8.665Z" transform="translate(-272.129 -185.017)" opacity="0.2"/>
    <path id="Path_41256" data-name="Path 41256" d="M929.177,709.7a2.006,2.006,0,0,1-1.454-3.477l.137-.546-.055-.131a5.387,5.387,0,0,0-9.936.037c-1.625,3.914-3.694,7.835-4.2,11.973a15.934,15.934,0,0,0,.28,5.481,63.89,63.89,0,0,1-5.812-26.535,61.669,61.669,0,0,1,.382-6.879q.317-2.809.879-5.578a64.63,64.63,0,0,1,12.817-27.392,17.2,17.2,0,0,0,7.153-7.422,13.12,13.12,0,0,0,1.193-3.585c-.348.046-1.313-5.258-1.05-5.583-.485-.736-1.354-1.1-1.884-1.821-2.636-3.574-6.268-2.95-8.164,1.907-4.05,2.044-4.089,5.434-1.6,8.695,1.581,2.074,1.8,4.881,3.186,7.1-.143.183-.291.36-.434.542a65.037,65.037,0,0,0-6.789,10.756,27.039,27.039,0,0,0-1.614-12.56c-1.545-3.728-4.441-6.867-6.992-10.09a5.55,5.55,0,0,0-9.886,2.725q-.008.071-.015.143.568.321,1.112.68a2.721,2.721,0,0,1-1.1,4.951l-.055.009a27.062,27.062,0,0,0,.714,4.048c-3.272,12.654,3.792,17.262,13.879,17.469.223.114.44.228.662.337a66.392,66.392,0,0,0-3.574,16.819A62.971,62.971,0,0,0,907,701.946l-.017-.12a16.64,16.64,0,0,0-5.68-9.608c-4.371-3.591-10.547-4.913-15.263-7.8a3.123,3.123,0,0,0-4.783,3.038l.019.126a18.254,18.254,0,0,1,2.05.988q.568.321,1.112.68a2.721,2.721,0,0,1-1.1,4.951l-.056.008-.114.017a27.1,27.1,0,0,0,4.984,7.8c2.046,11.046,10.833,12.094,20.233,8.877h.006a66.37,66.37,0,0,0,4.459,13.017h15.928c.057-.177.109-.36.16-.537a18.1,18.1,0,0,1-4.407-.263c1.182-1.45,2.364-2.912,3.545-4.362a1,1,0,0,0,.074-.086c.6-.742,1.2-1.479,1.8-2.221h0a26.506,26.506,0,0,0-.777-6.753Z" transform="translate(-327.851 -218.156)" fill="#f2f2f2"/>
    <path id="Path_41257" data-name="Path 41257" d="M255.165,735.395a1.049,1.049,0,0,0,1.052,1.052h607.5a1.052,1.052,0,0,0,0-2.1h-607.5a1.049,1.049,0,0,0-1.052,1.052Z" transform="translate(-255.165 -229.578)" fill="#ccc"/>
    <path id="Path_41258" data-name="Path 41258" d="M484.477,549.383H471.654l-6.1-49.46,18.925,0Z" transform="translate(-54.051 -58.041)" fill="#ffb6b6"/>
    <path id="Path_41259" data-name="Path 41259" d="M737.458,731.491H698.027v-.5a15.348,15.348,0,0,1,15.347-15.347h0l7.2-5.464,13.438,5.465h3.442Z" transform="translate(-306.581 -226.772)" fill="#2f2e41"/>
    <path id="Path_41260" data-name="Path 41260" d="M547.758,549.383H534.936l-6.1-49.46,18.924,0Z" transform="translate(-61.398 -58.041)" fill="#ffb6b6"/>
    <path id="Path_41261" data-name="Path 41261" d="M800.74,731.491H761.308v-.5a15.348,15.348,0,0,1,15.347-15.347h0l7.2-5.464,13.438,5.465h3.442Z" transform="translate(-313.928 -226.772)" fill="#2f2e41"/>
    <path id="Path_41262" data-name="Path 41262" d="M704.3,414.27s-12.337,37.892-10.06,42.879,6.162,1.1,2.277,4.987-7.277-.245-3.638,6.353,9.15,60.913,11.575,63.542,5.757,2.7,2.8,5.255-6.847-2.625-2.962,2.555,14.195,124.685,14.195,124.685h20.14s5.016-5.782,2.177-9.545.249-5.213,0-7.726.7-7.929.87-10.4,3.579-61.358-4.6-95.374l14.911-64.77,18.062,78.283s-8.309,65.663,0,86.772c0,0-6.7,5.578-3.728,8.811s5.561.642,2.971,3.233,3.885,11.656,3.885,11.656l22.016-1.3,12.461-122.689s2.1-12.795,0-14.987-2.1,5.578-2.1-2.192V513.939s-1.217-63.724-1.379-67.477-15.7-30.949-15.7-30.949Z" transform="translate(-305.803 -192.417)" fill="#2f2e41"/>
    <path id="Path_41263" data-name="Path 41263" d="M706.214,264.969v74.716a71.816,71.816,0,0,1,3.686,22.433c-.08,12.7-2.873,27.339-2.864,33.738a8.36,8.36,0,0,0,.274,2.519c12.366,35.842,77.8,3.27,83.749.221.283-.141.433-.221.433-.221L790.2,358.23l.221-11.544,1.529-79.189-1.37-1.1-12-9.573-1.176-.937-3.606,5.259-32.147-2.21-12.269-3.394-3.827,1.556L708.3,264.121Z" transform="translate(-307.532 -173.989)" fill="#6c63ff"/>
    <path id="Path_41264" data-name="Path 41264" d="M684.374,433.215l4.226-23.348,13.675.553-5.347,24.526a7.943,7.943,0,1,1-12.554-1.731Z" transform="translate(-304.727 -191.906)" fill="#ffb6b6"/>
    <path id="Path_41265" data-name="Path 41265" d="M705.406,266.027h0c7.027,1.82,11.039,10.929,13.508,17.756,3.178,8.771-1.976,62.842-8.245,70.729-4.863,6.117-3.708,4.941-2.1,10.008s5.313.125,1.975,7.661-6.179,6.176-3.956,9.389,4.818,2.843,1.975,7.661-2.6,6.548-3.215,8.4-1.363,15.2-1.363,15.2-14.456-2.351-21.994.489c0,0,5.193-13.1,3.093-15.444s-4.818-2.843-2.593-5.808,6.673-2.717,1.978-4.695-.734-29.9-.734-29.9c-5.27-18.379-1.6-45.87,3.737-75.055A20.084,20.084,0,0,1,705.406,266.027Z" transform="translate(-304.624 -175.206)" fill="#6c63ff"/>
    <path id="Path_41266" data-name="Path 41266" d="M811.556,431.243l1.022-23.706,13.623-1.306-1.972,25.025a7.943,7.943,0,1,1-12.673-.013Z" transform="translate(-319.575 -191.484)" fill="#ffb6b6"/>
    <path id="Path_41267" data-name="Path 41267" d="M795.656,266.457l.382.045a22,22,0,0,1,16.906,11.631c4.338,8.259,18.06,64.2,14.7,71.872-3.133,7.159-3,5.4-.727,10.2s5.281-.6,3,7.323-5.285,6.957-2.647,9.839,5.159,2.164,3,7.323-1.685,6.84-2.046,8.759.71,15.242.71,15.242-14.641-.37-21.724,3.466c0,0,3.369-13.679.97-15.721s-5.159-2.164-3.357-5.4,6.243-3.6,1.323-4.92-4.781-29.526-4.781-29.526Z" transform="translate(-317.916 -175.256)" fill="#6c63ff"/>
    <path id="Path_41268" data-name="Path 41268" d="M753.4,225.775c.575.133,1.149.247,1.724.336a23.955,23.955,0,0,0,5.312.274,25.073,25.073,0,1,0-25.615-31.325c-.053.2-.106.4-.15.6a25.082,25.082,0,0,0,18.73,30.114Z" transform="translate(-310.759 -164.786)" fill="#ffb6b6"/>
    <path id="Path_41269" data-name="Path 41269" d="M775.507,221.307c3.487-2.729,3.826-7.932,6.8-11.211,4.976-5.483,7.314-11.382,4.707-17.879-2.305-5.746-1.815-12.81-6.781-16.509,2.439-.883,3.013-2.716.861-2.75-1.451-.023-6.86,2.75-4.258-.7s-2.324-2.091-2-3.505,2.416-2.2,3.337-1.076c-2.942-3.448-9.368-2.713-11.456,1.31-2.933-4.4-6.046-7.42-10.534-4.631-4.408,2.74-4.35,6.126-9.09,5.312-2.228-.383-2.439,3.827-3.961,5.5s-3.747,2.965-5.969,2.546-3.92-3.188-2.675-5.076l-5.236,11.945-2.11-2.588c-3.353,2.185-2.252,7.887,1.123,10.038s9.817-2.821,11.648.738c2.887,5.609,9.661,2.777,14.312-1.187,5.641-4.808,12.45,9.81,9.732,16.7,2.819-2.769,8.035-.471,9.5,3.2s.39,7.808-.693,11.608Z" transform="translate(-309.726 -163.277)" fill="#2f2e41"/>
    <path id="Path_41270" data-name="Path 41270" d="M472.929,91.833l.875,1.114,2.351,2.988,8.7,25.7,41.1-30.079-1.176-.937-6.258-13.3-32.147-2.21-9.617,15.168Z" transform="translate(-54.907 -8.72)" fill="#3f3d56"/>
    <path id="Path_41271" data-name="Path 41271" d="M769.85,330.761c-2.07,22.242-16.885,39.05-33.09,37.541s-27.663-20.761-25.593-43C727.978,336.327,747.454,338.432,769.85,330.761Z" transform="translate(-308.079 -182.088)" fill="#fff"/>
    <path id="Path_41272" data-name="Path 41272" d="M732.632,300.153a16.278,16.278,0,0,1-.727,3.893c-1.072,3.309-3.15,5.64-5.477,5.91a3.576,3.576,0,0,1-.711.024c-2.6-.168-4.664-2.915-5.365-6.682a16.287,16.287,0,0,1-.22-3.954,15.922,15.922,0,0,1,.717-3.854c1.173-3.661,3.58-6.142,6.191-5.974C730.5,289.741,733,294.505,732.632,300.153Z" transform="translate(-309.143 -177.932)" fill="#fff"/>
    <path id="Path_41273" data-name="Path 41273" d="M728.788,305.371a8.52,8.52,0,0,1-2.36,5.371,3.579,3.579,0,0,1-.712.024c-2.6-.168-4.664-2.915-5.365-6.682a16.284,16.284,0,0,1-.22-3.954,15.919,15.919,0,0,1,.717-3.854A8.557,8.557,0,0,1,728.788,305.371Z" transform="translate(-309.143 -178.718)" fill="#3f3d56"/>
    <path id="Path_41274" data-name="Path 41274" d="M761.927,302.047c-.351,5.423-3.217,9.692-6.5,9.831a3.57,3.57,0,0,1-.413,0c-3.449-.223-5.95-4.988-5.585-10.636a15.859,15.859,0,0,1,.717-3.847c1.173-3.669,3.581-6.15,6.191-5.981C759.792,291.635,762.292,296.4,761.927,302.047Z" transform="translate(-312.545 -178.152)" fill="#fff"/>
    <path id="Path_41275" data-name="Path 41275" d="M757.827,307.25a8.523,8.523,0,0,1-2.4,5.415,3.569,3.569,0,0,1-.413,0c-3.449-.223-5.95-4.988-5.585-10.636a15.859,15.859,0,0,1,.717-3.847A8.557,8.557,0,0,1,757.827,307.25Z" transform="translate(-312.545 -178.939)" fill="#3f3d56"/>
    <circle id="Ellipse_3621" data-name="Ellipse 3621" cx="12.219" cy="12.219" r="12.219" transform="translate(219.356 47.981)" fill="#f2f2f2"/>
    <path id="Path_41276" data-name="Path 41276" d="M518.909,225.351a3.359,3.359,0,0,0,.062.815,1.59,1.59,0,0,0,.991,1.335.742.742,0,0,0,.145.021c.537.024,1.022-.493,1.25-1.25a3.361,3.361,0,0,0,.134-.806,3.287,3.287,0,0,0-.061-.806c-.159-.777-.6-1.34-1.136-1.364C519.58,223.263,518.961,224.184,518.909,225.351Z" transform="translate(-285.785 -170.245)" fill="#fff"/>
    <path id="Path_41277" data-name="Path 41277" d="M519.689,226.525a1.758,1.758,0,0,0,.364,1.154.733.733,0,0,0,.145.021c.537.024,1.022-.493,1.25-1.25a3.361,3.361,0,0,0,.134-.806,3.284,3.284,0,0,0-.061-.807,1.765,1.765,0,0,0-1.832,1.687Z" transform="translate(-285.876 -170.424)" fill="#f2f2f2"/>
    <path id="Path_41278" data-name="Path 41278" d="M512.859,225.083c-.05,1.12.443,2.06,1.113,2.162a.738.738,0,0,0,.085.009c.712.032,1.332-.889,1.384-2.056a3.274,3.274,0,0,0-.061-.8c-.158-.779-.6-1.341-1.136-1.365C513.53,223,512.91,223.916,512.859,225.083Z" transform="translate(-285.083 -170.214)" fill="#fff"/>
    <path id="Path_41279" data-name="Path 41279" d="M513.7,226.26a1.759,1.759,0,0,0,.371,1.164.732.732,0,0,0,.085.009c.713.032,1.332-.89,1.384-2.056a3.274,3.274,0,0,0-.061-.8,1.765,1.765,0,0,0-1.779,1.688Z" transform="translate(-285.18 -170.393)" fill="#f2f2f2"/>
    <path id="Path_41280" data-name="Path 41280" d="M521.813,232.479c-.137,3.1-2.081,5.535-4.34,5.435s-3.98-2.7-3.843-5.8A8.89,8.89,0,0,0,521.813,232.479Z" transform="translate(-285.172 -171.269)" fill="#fff"/>
    <circle id="Ellipse_3622" data-name="Ellipse 3622" cx="12.219" cy="12.219" r="12.219" transform="translate(283.881 174.378)" fill="#f2f2f2"/>
    <path id="Path_41281" data-name="Path 41281" d="M591.909,368.351a3.362,3.362,0,0,0,.062.815,1.59,1.59,0,0,0,.991,1.335.738.738,0,0,0,.145.021c.538.024,1.022-.493,1.25-1.25a3.364,3.364,0,0,0,.134-.806,3.283,3.283,0,0,0-.061-.806c-.159-.777-.6-1.34-1.136-1.364C592.58,366.263,591.961,367.184,591.909,368.351Z" transform="translate(-294.26 -186.847)" fill="#fff"/>
    <path id="Path_41282" data-name="Path 41282" d="M592.689,369.525a1.758,1.758,0,0,0,.364,1.154.74.74,0,0,0,.145.021c.538.024,1.022-.493,1.25-1.25a3.364,3.364,0,0,0,.134-.806,3.283,3.283,0,0,0-.061-.806,1.765,1.765,0,0,0-1.832,1.687Z" transform="translate(-294.351 -187.026)" fill="#f2f2f2"/>
    <path id="Path_41283" data-name="Path 41283" d="M585.859,368.083c-.05,1.12.443,2.06,1.113,2.162a.745.745,0,0,0,.085.009c.713.032,1.332-.89,1.384-2.056a3.274,3.274,0,0,0-.061-.8c-.158-.779-.6-1.341-1.136-1.365C586.53,366,585.91,366.916,585.859,368.083Z" transform="translate(-293.558 -186.816)" fill="#fff"/>
    <path id="Path_41284" data-name="Path 41284" d="M586.7,369.26a1.759,1.759,0,0,0,.371,1.164.741.741,0,0,0,.085.009c.712.031,1.332-.89,1.384-2.056a3.274,3.274,0,0,0-.061-.8,1.765,1.765,0,0,0-1.779,1.688Z" transform="translate(-293.656 -186.996)" fill="#f2f2f2"/>
    <path id="Path_41285" data-name="Path 41285" d="M594.813,375.479c-.137,3.1-2.081,5.535-4.34,5.435s-3.98-2.7-3.843-5.8A8.89,8.89,0,0,0,594.813,375.479Z" transform="translate(-293.647 -187.872)" fill="#fff"/>
    <circle id="Ellipse_3623" data-name="Ellipse 3623" cx="12.219" cy="12.219" r="12.219" transform="translate(518.998 31.187)" fill="#f2f2f2"/>
    <path id="Path_41286" data-name="Path 41286" d="M857.909,206.351a3.362,3.362,0,0,0,.062.815,1.59,1.59,0,0,0,.991,1.335.737.737,0,0,0,.145.021c.538.024,1.022-.493,1.25-1.25a3.361,3.361,0,0,0,.134-.806,3.287,3.287,0,0,0-.061-.807c-.159-.777-.6-1.34-1.136-1.364C858.58,204.263,857.961,205.184,857.909,206.351Z" transform="translate(-325.143 -168.039)" fill="#fff"/>
    <path id="Path_41287" data-name="Path 41287" d="M858.689,207.525a1.758,1.758,0,0,0,.364,1.154.737.737,0,0,0,.145.021c.538.024,1.022-.493,1.25-1.25a3.361,3.361,0,0,0,.134-.806,3.287,3.287,0,0,0-.061-.807A1.765,1.765,0,0,0,858.689,207.525Z" transform="translate(-325.234 -168.218)" fill="#f2f2f2"/>
    <path id="Path_41288" data-name="Path 41288" d="M851.859,206.083c-.05,1.12.443,2.06,1.113,2.162a.74.74,0,0,0,.085.009c.712.032,1.332-.89,1.384-2.056a3.28,3.28,0,0,0-.061-.8c-.158-.779-.6-1.341-1.136-1.365C852.53,204,851.91,204.916,851.859,206.083Z" transform="translate(-324.441 -168.008)" fill="#fff"/>
    <path id="Path_41289" data-name="Path 41289" d="M852.7,207.26a1.759,1.759,0,0,0,.371,1.164.735.735,0,0,0,.085.009c.713.032,1.332-.89,1.384-2.056a3.277,3.277,0,0,0-.061-.8,1.765,1.765,0,0,0-1.779,1.688Z" transform="translate(-324.538 -168.187)" fill="#f2f2f2"/>
    <path id="Path_41290" data-name="Path 41290" d="M860.813,213.479c-.137,3.1-2.081,5.535-4.34,5.435s-3.98-2.7-3.843-5.8a8.89,8.89,0,0,0,8.183.362Z" transform="translate(-324.53 -169.063)" fill="#fff"/>
    <circle id="Ellipse_3624" data-name="Ellipse 3624" cx="12.219" cy="12.219" r="12.219" transform="translate(4.568 355.578)" fill="#f2f2f2"/>
    <path id="Path_41291" data-name="Path 41291" d="M275.909,573.351a3.357,3.357,0,0,0,.062.815,1.59,1.59,0,0,0,.991,1.335.74.74,0,0,0,.145.021c.538.024,1.022-.493,1.25-1.25a3.359,3.359,0,0,0,.134-.806,3.283,3.283,0,0,0-.061-.807c-.159-.777-.6-1.34-1.136-1.364C276.58,571.263,275.961,572.184,275.909,573.351Z" transform="translate(-257.573 -210.648)" fill="#fff"/>
    <path id="Path_41292" data-name="Path 41292" d="M276.689,574.525a1.758,1.758,0,0,0,.364,1.154.73.73,0,0,0,.145.021c.538.024,1.022-.493,1.25-1.25a3.36,3.36,0,0,0,.134-.806,3.283,3.283,0,0,0-.061-.807,1.765,1.765,0,0,0-1.832,1.687Z" transform="translate(-257.664 -210.827)" fill="#f2f2f2"/>
    <path id="Path_41293" data-name="Path 41293" d="M269.859,573.083c-.05,1.12.443,2.06,1.113,2.162a.732.732,0,0,0,.085.008c.712.032,1.332-.889,1.384-2.056a3.274,3.274,0,0,0-.061-.8c-.158-.779-.6-1.341-1.136-1.365C270.53,571,269.91,571.916,269.859,573.083Z" transform="translate(-256.871 -210.617)" fill="#fff"/>
    <path id="Path_41294" data-name="Path 41294" d="M270.7,574.26a1.758,1.758,0,0,0,.371,1.164.731.731,0,0,0,.085.008c.712.032,1.332-.889,1.384-2.056a3.274,3.274,0,0,0-.061-.8,1.765,1.765,0,0,0-1.779,1.688Z" transform="translate(-256.968 -210.796)" fill="#f2f2f2"/>
    <path id="Path_41295" data-name="Path 41295" d="M278.813,580.479c-.137,3.1-2.081,5.535-4.34,5.435s-3.98-2.7-3.843-5.8A8.89,8.89,0,0,0,278.813,580.479Z" transform="translate(-256.96 -211.672)" fill="#fff"/>
    <circle id="Ellipse_3625" data-name="Ellipse 3625" cx="12.219" cy="12.219" r="12.219" transform="translate(7.22 162.004)" fill="#f2f2f2"/>
    <path id="Path_41296" data-name="Path 41296" d="M278.909,354.351a3.361,3.361,0,0,0,.062.815,1.59,1.59,0,0,0,.991,1.335.74.74,0,0,0,.145.021c.538.024,1.022-.493,1.25-1.25a3.361,3.361,0,0,0,.134-.806,3.287,3.287,0,0,0-.061-.806c-.158-.777-.6-1.34-1.136-1.364C279.58,352.263,278.961,353.184,278.909,354.351Z" transform="translate(-257.921 -185.222)" fill="#fff"/>
    <path id="Path_41297" data-name="Path 41297" d="M279.689,355.525a1.758,1.758,0,0,0,.364,1.154.74.74,0,0,0,.145.021c.538.024,1.022-.493,1.25-1.25a3.361,3.361,0,0,0,.134-.806,3.284,3.284,0,0,0-.061-.806,1.765,1.765,0,0,0-1.832,1.687Z" transform="translate(-258.012 -185.401)" fill="#f2f2f2"/>
    <path id="Path_41298" data-name="Path 41298" d="M272.859,354.083c-.05,1.12.443,2.06,1.113,2.162a.746.746,0,0,0,.085.009c.712.032,1.332-.889,1.384-2.056a3.271,3.271,0,0,0-.061-.8c-.158-.779-.6-1.341-1.136-1.365C273.53,352,272.91,352.916,272.859,354.083Z" transform="translate(-257.219 -185.191)" fill="#fff"/>
    <path id="Path_41299" data-name="Path 41299" d="M273.7,355.26a1.758,1.758,0,0,0,.371,1.164.739.739,0,0,0,.085.009c.712.032,1.332-.89,1.384-2.056a3.271,3.271,0,0,0-.061-.8,1.765,1.765,0,0,0-1.779,1.688Z" transform="translate(-257.316 -185.37)" fill="#f2f2f2"/>
    <path id="Path_41300" data-name="Path 41300" d="M281.813,361.479c-.137,3.1-2.081,5.535-4.34,5.435s-3.98-2.7-3.843-5.8A8.89,8.89,0,0,0,281.813,361.479Z" transform="translate(-257.308 -186.246)" fill="#fff"/>
  </g>
</svg>
