<svg xmlns="http://www.w3.org/2000/svg" width="200" height="200" viewBox="0 0 301.211 301.21">
  <g id="Group_5784" data-name="Group 5784" transform="translate(0)">
    <circle id="Ellipse_3641" data-name="Ellipse 3641" cx="48.89" cy="48.89" r="48.89" transform="translate(104.411 98.848)" fill="#ffb6b6"/>
    <path id="Path_41397" data-name="Path 41397" d="M213.815,336.626,211.606,314.3l44.106-8.247,26.045,63.413-45.295,52.089L204.19,358.141Z" transform="translate(-88.58 -132.77)" fill="#ffb6b6"/>
    <path id="Path_41398" data-name="Path 41398" d="M197.574,257.428l9.643,2.179s-7.58-24.037-5.007-26.332,8.878,1.321,8.878,1.321l6.626,7.428,8.07-8.217s8.762-10.895,12.192-13.954-2.08-14.417-2.08-14.417,50.9-13.724,31.957-38.41c0,0-11.1-19.355-14.719-13.05s-7.928-3.709-7.928-3.709l-13.166,2.5s-25.985-15.321-50.647,17.455,16.181,87.2,16.181,87.2Z" transform="translate(-75.257 -64.723)" fill="#2f2e41"/>
    <path id="Path_41399" data-name="Path 41399" d="M293.567,429.755a150.73,150.73,0,0,1-182.187,5.418c.045-.476.091-.946.13-1.415.674-7.36,1.274-14.517,1.67-20.451,1.534-23.038,55.282-38.393,55.282-38.393s.243.243.73.668c2.967,2.6,15.01,12.048,36.128,14.687,18.831,2.355,25.031-8.816,26.905-14.166a17.349,17.349,0,0,0,.736-2.723l55.282,26.107c3.607,5.152,5.016,16.25,5.294,28.723C293.55,428.725,293.561,429.234,293.567,429.755Z" transform="translate(-48.318 -161.978)" fill="#6c63ff"/>
    <path id="Path_41400" data-name="Path 41400" d="M257.1,44.112A150.605,150.605,0,0,0,0,150.605a149.462,149.462,0,0,0,36.966,98.839q3.423,3.932,7.145,7.655c.583.583,1.172,1.166,1.766,1.733q2.378,2.3,4.841,4.49,1.495,1.333,3.023,2.616c.8.674,1.6,1.336,2.406,1.987a.286.286,0,0,0,.045.04q3.372,2.718,6.868,5.232a150.73,150.73,0,0,0,182.187-5.418q3.27-2.65,6.409-5.5,2.777-2.514,5.441-5.181c.561-.561,1.121-1.127,1.67-1.7q2.293-2.361,4.462-4.8A150.613,150.613,0,0,0,257.1,44.112Zm5.764,205.078c-1.415,1.608-2.865,3.193-4.348,4.739q-3.465,3.609-7.157,6.987c-.934.861-1.88,1.7-2.837,2.531q-1.631,1.418-3.3,2.786a149.11,149.11,0,0,1-28.723,18.52q-6.106,3.015-12.513,5.475a149.016,149.016,0,0,1-124.136-7.983q-1.35-.73-2.684-1.483a148.531,148.531,0,0,1-13.543-8.668l-.43-.311q-4.637-3.346-9-7.049c-1.064-.9-2.118-1.812-3.154-2.746q-2.531-2.251-4.954-4.631-4.586-4.493-8.77-9.359a148.806,148.806,0,0,1-36.179-97.39c0-82.42,67.053-149.473,149.473-149.473S300.078,68.186,300.078,150.605A148.817,148.817,0,0,1,262.863,249.189Z" transform="translate(0)" fill="#6b63ff"/>
  </g>
</svg>
