<svg id="Group_5787" data-name="Group 5787" xmlns="http://www.w3.org/2000/svg" width="200" height="200" viewBox="0 0 301.211 301.21">
  <g id="Group_5786" data-name="Group 5786" transform="translate(100.732 66.591)">
    <g id="Group_5785" data-name="Group 5785" transform="translate(3.678 32.254)">
      <circle id="Ellipse_3642" data-name="Ellipse 3642" cx="48.89" cy="48.89" r="48.89" fill="#a0616a"/>
      <path id="Path_41401" data-name="Path 41401" d="M199.288,340.585l10.191-26.045,52.655-7.927,5.657,57.653L214.57,365.4Z" transform="translate(-190.864 -231.858)" fill="#a0616a"/>
    </g>
    <path id="Path_41402" data-name="Path 41402" d="M279.844,207.777c-.635,2.542-1.917,8.595-3.92,8.624-1.636.024-3.2-26.234-1.568-30.577,1.878-4.99-3.057-11.3-6.774-14.541-6.683-5.826-21.519,6.684-36.6,1.017-.4-.15-.32-.133-5.084-2.034-14.658-5.849-15.429-6.017-16.269-6.1-7.106-.7-15.778,5.112-19.319,12.2-3.681,7.37-.605,13.691-4.067,31.521-.4,2.078-1.037,5.04-2.034,5.084-1.822.079-3.6-9.653-4.067-12.2-1.952-10.679-3.834-20.975,0-32.537.418-1.261,3-5.942,8.134-15.252,7.4-13.412,11.126-20.143,12.2-21.353,7.716-8.677,21.762-16.593,33.554-13.218,5.96,1.706,4.892,4.448,12.2,7.118,13.027,4.756,24.349-1.06,26.437,3.05,1.106,2.178-1.989,3.973-2.034,8.134-.077,7.14,8.954,9.2,14.235,16.269,2.839,3.8,7.7,3.839-5.023,54.8Z" transform="translate(-177.913 -117.614)" fill="#2f2e41"/>
  </g>
  <path id="Path_41403" data-name="Path 41403" d="M298.383,403.06q-2.956,3.321-6.132,6.5A150.638,150.638,0,0,1,91.346,420.424a.259.259,0,0,1-.045-.04q-5.308-4.28-10.271-9.093.093-.747.2-1.478c.464-3.284.98-6.415,1.557-9.3,4.728-23.621,66.935-48.42,68.554-49.066a.186.186,0,0,0,.034-.011s8.006,29.51,42.311,29.13c23.366-.255,18.837-29.13,18.837-29.13s.283.056.815.17c6.749,1.433,53.607,11.726,72.092,25.773,5.634,4.28,9.676,13.4,12.581,24.266C298.139,402.114,298.258,402.59,298.383,403.06Z" transform="translate(-35.152 -152.46)" fill="#6c63ff"/>
  <path id="Path_41404" data-name="Path 41404" d="M257.1,44.112A150.605,150.605,0,0,0,0,150.605a149.462,149.462,0,0,0,36.966,98.839q3.423,3.932,7.145,7.655c.583.583,1.172,1.166,1.767,1.732q4.96,4.807,10.271,9.093a.259.259,0,0,0,.045.04A150.638,150.638,0,0,0,257.1,257.1q3.176-3.176,6.132-6.5A150.614,150.614,0,0,0,257.1,44.112Zm5.764,205.078A150.494,150.494,0,0,1,216.5,284.752q-6.106,3.015-12.513,5.475a149.01,149.01,0,0,1-124.136-7.984q-1.35-.73-2.684-1.483a150.744,150.744,0,0,1-31.084-23.407Q41.5,252.861,37.312,248a148.807,148.807,0,0,1-36.179-97.39C1.132,68.186,68.186,1.132,150.605,1.132S300.078,68.186,300.078,150.605A148.816,148.816,0,0,1,262.863,249.189Z" transform="translate(0 0)" fill="#6b63ff"/>
</svg>
