<svg xmlns="http://www.w3.org/2000/svg" xmlns:xlink="http://www.w3.org/1999/xlink" width="1964" height="1804" viewBox="0 0 1964 1804">
  <defs>
    <clipPath id="clip-path">
      <rect id="Rectangle_2089" data-name="Rectangle 2089" width="1964" height="1804" transform="translate(0 -354.357)" fill="none"/>
    </clipPath>
  </defs>
  <g id="WAVE" transform="translate(0 354.357)">
    <g id="Group_5490" data-name="Group 5490" transform="translate(0)" clip-path="url(#clip-path)">
      <g id="Group_5489" data-name="Group 5489" transform="translate(-1088.49 -533.656)">
        <g id="Group_5486" data-name="Group 5486" opacity="0.22">
          <path id="Path_40704" data-name="Path 40704" d="M-221.72-84.729C-84.935-104.908,61.621-43.63,137.575,65.5c64.416,92.611,78.409,210.214,143.266,302.547,15.564,22.216,35.2,43.505,61.715,52.669,57.739,19.948,119.356-24.344,180.727-20.179,64.367,4.351,110.911,59.982,137.767,115.289s44.237,117,89.112,160.738c58.72,57.251,152.889,70.071,235.962,55.678s159.321-51.744,237.14-82.66c77.869-30.917,162.218-56.094,245.732-44.2,145.132,20.688,269.987,149.908,413.646,121.445,47.772-9.442,89.5-35.822,129.912-61.6q218.582-139.541,437.115-279.036" transform="translate(221.72 212.19)" fill="none" stroke="#fff" stroke-miterlimit="10" stroke-width="1" opacity="0"/>
          <path id="Path_40705" data-name="Path 40705" d="M-220.78-87.094C-140.211-96.3-53.554-76.171,18.963-35.211,64.279-9.617,104.1,24.215,133.9,64.758c18.068,24.622,32.5,51,45.268,78.217,33.73,71.83,56.167,149.723,103.154,216.046,15.515,21.891,34.761,43,60.586,52.484,31.422,11.524,63.925,3.841,96.869-4.258,26.022-6.341,52.289-12.959,78.556-10.506,62.452,5.785,107.916,60.769,134.183,115.567,4.075,8.516,7.954,17.217,12.176,25.687a560.984,560.984,0,0,0,37.019,62.9A341.6,341.6,0,0,0,759.3,667.446c61.175,54.613,153.479,70.256,236.453,58.362,10.752-1.527,21.456-3.471,32.012-5.693,70.848-15.042,138.16-44.431,206.307-70.812,19.835-7.683,40.064-15.134,60.488-21.984,36.185-12.08,72.86-21.938,109.831-26.381a329.217,329.217,0,0,1,73.941-.926c70.16,7.359,135.852,39.71,201.545,67.48C1748.713,696.65,1817.4,720.856,1891,705.629c47.821-9.9,89.946-35.822,130.845-61.185Q2242.854,507.472,2464.7,373.23" transform="translate(225.395 209.464)" fill="none" stroke="#707070" stroke-miterlimit="10" stroke-width="1" opacity="0.04"/>
          <path id="Path_40706" data-name="Path 40706" d="M-219.85-89.147c76.936-6.017,162.316,15.829,234.538,56.279C59.809-7.6,99.774,25.217,130.214,64.325c18.461,23.743,33.386,49.2,46.741,75.44C212.207,209.1,236.8,284.583,283.84,350.257c15.417,21.568,34.319,42.487,59.408,52.253,30.588,11.895,62.059,5.415,93.972-1.435,25.187-5.369,50.718-10.969,76.15-7.914,60.488,7.22,104.921,61.555,130.6,115.8,4.37,9.21,8.494,18.605,13.354,27.445,13.5,24.3,29.164,42.163,44.63,59.75,18.608,21.1,40.653,41.191,66.429,62.388,63.385,52.114,154.117,70.442,236.993,61,10.752-1.2,21.406-2.823,31.962-4.721,70.848-12.82,138.946-39.8,207.436-65.628,19.983-7.544,40.26-15,60.734-22.077,36.136-12.45,72.419-23.234,108.947-28.788a330.78,330.78,0,0,1,73.106-3.379c69.424,4.628,134.821,33.37,200.465,58.038,68.687,26.011,137.571,47.578,211.217,31.8,47.919-10.321,90.438-35.869,131.827-60.722,148.962-89.6,299-176.613,448.6-263.439" transform="translate(229.031 206.426)" fill="none" stroke="#6b63ff" stroke-miterlimit="10" stroke-width="1" opacity="0.08"/>
          <path id="Path_40707" data-name="Path 40707" d="M-218.91-90.841c73.3-2.823,157.406,20.734,229.334,60.676C55.348-5.219,95.51,26.531,126.539,64.3c18.8,22.91,34.27,47.347,48.214,72.709,36.823,66.832,63.532,139.911,110.567,204.984,15.318,21.244,33.828,41.932,58.279,52.068,29.7,12.265,60.193,6.989,91.125,1.342,24.4-4.4,49.1-8.979,73.744-5.322,58.573,8.7,101.877,62.342,127.015,116.076,4.615,9.858,8.985,19.994,14.582,29.25,15.417,25.455,34.319,40.96,52.289,56.557,21.5,18.7,47.035,36.656,75.266,58.177,65.3,49.8,154.755,70.627,237.484,63.638q16.129-1.388,31.962-3.749c70.848-10.552,139.78-35.174,208.615-60.491,20.13-7.359,40.505-14.857,60.979-22.169,36.136-12.82,71.977-24.576,108.014-31.241a342.171,342.171,0,0,1,72.271-5.878c68.737,1.9,133.791,27.029,199.434,48.6,68.589,22.817,137.571,41.839,211.266,25.409,48.017-10.737,90.879-35.915,132.759-60.306,150.533-87.89,302.833-171.892,454.3-255.663" transform="translate(232.706 203.029)" fill="none" stroke="#6b63ff" stroke-miterlimit="10" stroke-width="1" opacity="0.12"/>
          <path id="Path_40708" data-name="Path 40708" d="M-217.97-92.13c69.669.37,152.5,25.64,224.13,65.073C50.887-2.435,91.245,28.3,122.864,64.628c19.148,22.03,35.154,45.542,49.687,69.933,38.345,64.286,67.263,135.052,114.3,199.477,15.22,20.966,33.386,41.423,57.1,51.836,28.869,12.635,58.328,8.562,88.228,4.165,23.616-3.379,47.477-6.989,71.339-2.684C560.175,397.49,602.3,450.53,626.947,503.662c4.861,10.552,9.525,21.382,15.76,31.055,17.282,26.566,39.523,39.756,59.9,53.41,24.4,16.338,53.32,32.12,84.1,53.965C853.728,689.67,942.1,712.9,1024.685,708.414q16.055-.9,31.913-2.777c70.8-8.331,140.566-30.593,209.793-55.354,20.277-7.22,40.751-14.764,61.224-22.262,36.136-13.237,71.486-25.918,107.131-33.693a352.7,352.7,0,0,1,71.388-8.377c68.049-.694,132.808,20.549,198.4,39.2,68.54,19.485,137.571,36.1,211.315,19.022,48.066-11.154,91.37-35.961,133.692-59.889,152.153-86.178,306.663-167.218,460.043-247.841" transform="translate(236.382 199.181)" fill="none" stroke="#6b63ff" stroke-miterlimit="10" stroke-width="1" opacity="0.16"/>
          <path id="Path_40709" data-name="Path 40709" d="M-217.03-93.23C-150.994-89.666-69.443-62.684,1.9-23.76,46.427.584,86.932,30.2,119.189,65.148c19.541,21.2,36.087,43.737,51.159,67.156,39.916,61.787,70.946,130.146,117.981,193.969,15.122,20.642,32.944,40.914,55.971,51.651,27.986,13.005,56.511,10.09,85.38,6.989,22.83-2.453,45.857-5,68.884-.093,54.694,11.571,95.691,63.962,119.847,116.585,5.155,11.2,10.016,22.817,16.988,32.86,19.2,27.677,44.679,38.553,67.509,50.216,27.3,13.931,59.555,27.631,92.941,49.753,68.589,45.542,155.982,71,238.466,68.961,10.7-.278,21.308-.879,31.913-1.759,70.8-6.109,141.352-25.964,210.972-50.17,20.425-7.081,41-14.625,61.519-22.354,36.086-13.607,71.044-27.214,106.247-36.146a365.6,365.6,0,0,1,70.553-10.876c67.362-3.379,131.827,14.162,197.372,29.76S1850.462,642.01,1924.3,624.33c48.164-11.571,91.861-35.961,134.674-59.473,153.773-84.465,310.443-162.5,465.787-240.066" transform="translate(240.057 195.19)" fill="none" stroke="#6b63ff" stroke-miterlimit="10" stroke-width="1" opacity="0.2"/>
          <path id="Path_40710" data-name="Path 40710" d="M-216.09-94.33c62.4,6.757,142.726,35.452,213.721,73.866C41.966,3.557,82.668,32.159,115.563,65.668c19.885,20.318,36.97,41.932,52.632,64.379,41.487,59.241,74.628,125.24,121.712,188.415,15.024,20.318,32.5,40.4,54.793,51.466,27.1,13.376,54.645,11.663,82.484,9.766,22-1.481,44.286-3.055,66.478,2.5,52.78,13.005,92.6,64.8,116.263,116.816,5.4,11.895,10.556,24.206,18.166,34.619,21.063,28.834,49.834,37.35,75.168,47.069,30.195,11.571,65.741,23.141,101.779,45.588,70.062,43.6,156.621,71.182,238.957,71.645q16.055.069,31.864-.787c70.749-3.841,142.137-21.336,212.15-45.033,20.572-6.942,41.242-14.486,61.764-22.447,36.087-13.977,70.6-28.556,105.363-38.553a377.363,377.363,0,0,1,69.669-13.376c66.674-6.063,130.8,7.775,196.292,20.318s137.571,24.622,211.463,6.294c48.263-11.987,92.3-36.008,135.607-59.01,155.393-82.753,314.273-157.776,471.532-232.291" transform="translate(243.732 191.199)" fill="none" stroke="#6b63ff" stroke-miterlimit="10" stroke-width="1" opacity="0.24"/>
          <path id="Path_40711" data-name="Path 40711" d="M-215.15-95.43c58.819,10,137.816,40.358,208.517,78.263C37.505,6.53,78.354,34.068,111.888,66.188a517.255,517.255,0,0,1,54.105,61.6C209,184.531,244.353,248.17,291.437,310.7c14.926,19.994,32.012,39.9,53.663,51.234,26.267,13.746,52.78,13.237,79.587,12.589,21.21-.509,42.666-1.064,64.072,5.137,50.816,14.486,89.5,65.628,112.679,117.048,5.646,12.543,11.047,25.594,19.344,36.424,22.978,29.945,54.989,36.146,82.778,43.922,33.092,9.21,71.879,18.744,110.616,41.376,71.388,41.747,157.259,71.367,239.5,74.283q15.981.555,31.864.185c70.749-1.62,142.972-16.708,213.328-39.849,20.719-6.757,41.487-14.347,62.01-22.586,36.038-14.394,70.16-29.9,104.479-41.006a391.054,391.054,0,0,1,68.835-15.829c66.036-8.794,129.765,1.435,195.26,10.876,68.2,9.858,137.571,18.837,211.561-.046,48.312-12.4,92.794-36.054,136.589-58.593,157.013-81.04,318.053-153.1,477.227-224.469" transform="translate(247.407 187.208)" fill="none" stroke="#6b63ff" stroke-miterlimit="10" stroke-width="1" opacity="0.28"/>
          <path id="Path_40712" data-name="Path 40712" d="M-214.22-96.53C-159.034-83.34-81.313-51.266-10.908-13.87,33.035,9.5,74.08,36.022,108.2,66.708a535.391,535.391,0,0,1,55.578,58.825c44.58,54.243,82.189,115.382,129.126,177.4,14.876,19.67,31.57,39.34,52.485,51.049,25.383,14.07,50.914,14.81,76.739,15.412,20.425.463,41.045.926,61.666,7.729,48.9,15.921,86.362,66.461,109.095,117.326,5.941,13.237,11.587,26.983,20.572,38.229,24.892,31.1,60.144,34.989,90.437,40.728,35.939,6.85,78.016,14.348,119.454,37.165C896.02,650.6,981.2,682.123,1063.344,687.538q15.981,1.041,31.815,1.2c70.749.6,143.757-12.126,214.506-34.712,20.866-6.618,41.733-14.209,62.255-22.678,36.038-14.764,69.718-31.194,103.547-43.459a411.8,411.8,0,0,1,68-18.328c65.349-11.524,128.733-4.952,194.229,1.481,68.1,6.665,137.571,13.1,211.61-6.433,48.41-12.82,93.236-36.1,137.522-58.177,158.634-79.328,321.883-148.381,482.971-216.694" transform="translate(251.043 183.217)" fill="none" stroke="#6b63ff" stroke-miterlimit="10" stroke-width="1" opacity="0.32"/>
          <path id="Path_40713" data-name="Path 40713" d="M-213.28-97.63c51.552,16.384,128,50.124,198.108,87.057,43.746,23.049,84.988,48.5,119.7,77.8a557.344,557.344,0,0,1,57.051,56.094c46.152,51.7,85.92,110.476,132.858,171.892,14.778,19.346,31.128,38.831,51.307,50.818,24.549,14.44,49.1,16.384,73.842,18.235,19.639,1.435,39.425,2.962,59.261,10.321,46.937,17.448,83.22,67.341,105.51,117.557,6.186,13.885,12.078,28.371,21.75,40.034,26.758,32.212,65.3,33.786,98.048,37.581,38.836,4.489,84.1,10.043,128.292,32.953,73.892,38.368,158.486,71.737,240.479,79.606,10.654,1.018,21.21,1.759,31.766,2.175,70.7,2.87,144.543-7.5,215.685-29.574a654.406,654.406,0,0,0,62.5-22.771c36.037-15.134,69.227-32.536,102.663-45.912a438.914,438.914,0,0,1,67.116-20.827c64.661-14.209,127.7-11.293,193.2-7.961,67.951,3.471,137.571,7.359,211.708-12.82,48.508-13.237,93.727-36.146,138.5-57.714C2256.319,409.3,2421.729,343.255,2584.781,278" transform="translate(254.718 179.226)" fill="none" stroke="#6b63ff" stroke-miterlimit="10" stroke-width="1" opacity="0.36"/>
          <path id="Path_40714" data-name="Path 40714" d="M-212.34-98.74c47.919,19.577,123.087,55.03,192.9,91.454C24.162,15.438,65.5,39.829,100.852,67.737a589.338,589.338,0,0,1,58.524,53.317c47.674,49.2,89.6,105.616,136.54,166.338,14.729,19.022,30.637,38.322,50.178,50.633,23.665,14.81,47.232,17.958,70.995,21.012,18.853,2.407,37.8,4.952,56.855,12.913,45.022,18.929,80.029,68.174,101.926,117.835,6.432,14.579,12.618,29.76,22.928,41.793,28.673,33.323,70.455,32.583,105.707,34.388,41.733,2.129,90.143,5.739,137.129,28.741,75.07,36.794,159.125,71.923,240.97,82.244q15.907,2.013,31.766,3.147c70.7,5.091,145.328-2.87,216.814-24.391a565,565,0,0,0,62.8-22.863c35.989-15.551,68.786-33.879,101.779-48.319A468.273,468.273,0,0,1,1562.04,561.2c63.974-16.939,126.671-18.235,192.118-17.4,67.8.833,137.571,1.62,211.757-19.161,48.557-13.653,94.169-36.146,139.436-57.3,161.874-75.9,329.492-138.986,494.459-201.1" transform="translate(258.393 175.198)" fill="none" stroke="#6b63ff" stroke-miterlimit="10" stroke-width="1" opacity="0.4"/>
          <path id="Path_40715" data-name="Path 40715" d="M-211.4-99.84C-167.114-77.069-93.173-39.9-23.7-3.989c43.4,22.4,84.939,45.773,120.878,72.247a623.073,623.073,0,0,1,60,50.54c49.245,46.7,93.334,100.71,140.271,160.831,14.631,18.7,30.195,37.813,49,50.4,22.83,15.181,45.415,19.531,68.1,23.835,18.068,3.425,36.234,6.942,54.4,15.551C512,389.78,545.829,438.423,567.285,487.482c6.677,15.227,13.109,31.148,24.156,43.6,30.588,34.48,75.61,31.426,113.317,31.241,44.629-.231,96.182,1.527,145.966,24.576,76.2,35.313,159.714,72.108,241.461,84.928q15.908,2.5,31.717,4.165c70.7,7.313,146.163,1.759,217.992-19.253a490.6,490.6,0,0,0,63.041-22.956c35.988-15.921,68.344-35.174,100.9-50.772a496.11,496.11,0,0,1,65.447-25.826c63.286-19.67,125.64-24.02,191.087-26.844s137.571-4.119,211.855-25.548c48.656-14.07,94.66-36.193,140.418-56.881,163.494-74.191,333.323-134.265,500.2-193.321" transform="translate(262.069 171.207)" fill="none" stroke="#6b63ff" stroke-miterlimit="10" stroke-width="1" opacity="0.44"/>
          <path id="Path_40716" data-name="Path 40716" d="M-210.46-100.94C-169.807-74.976-97.143-36.1-27.965-.693,15.241,21.43,56.924,43.692,93.5,68.777a670.752,670.752,0,0,1,61.47,47.763c50.767,44.153,97.016,95.8,143.954,155.323,14.533,18.42,29.753,37.257,47.87,50.216,21.947,15.551,43.549,21.151,65.25,26.659,17.282,4.4,34.614,8.932,51.994,18.143,41.144,21.8,73.744,69.886,94.758,118.344,6.923,15.921,13.649,32.536,25.334,45.4,32.453,35.591,80.765,30.222,120.976,28.047,47.477-2.592,102.221-2.684,154.755,20.364,77.279,33.879,160.352,72.293,242,87.566q15.908,2.985,31.717,5.137c70.651,9.58,146.949,6.341,219.171-14.07a437.649,437.649,0,0,0,63.287-23.049c35.939-16.338,67.9-36.517,100.011-53.225a523.33,523.33,0,0,1,64.563-28.279c62.6-22.4,124.609-30.361,190.056-36.285,67.558-6.109,137.62-9.858,211.9-31.935,48.754-14.486,95.1-36.239,141.351-56.464,165.115-72.478,337.1-129.544,505.9-185.546" transform="translate(265.744 167.216)" fill="none" stroke="#6b63ff" stroke-miterlimit="10" stroke-width="1" opacity="0.48"/>
          <path id="Path_40717" data-name="Path 40717" d="M-209.52-102.04C-172.5-72.882-101.113-32.293-32.229,2.6,10.78,24.4,52.66,45.647,89.876,69.3a729.229,729.229,0,0,1,62.943,44.986c52.338,41.654,100.7,90.9,147.685,149.816,14.435,18.1,29.262,36.794,46.692,50.031,21.063,15.967,41.684,22.725,62.354,29.436,16.5,5.369,32.993,10.923,49.588,20.734,39.18,23.28,70.553,70.719,91.174,118.575,7.168,16.615,14.14,33.925,26.562,47.208,34.368,36.7,85.921,29.065,128.586,24.9,50.374-4.952,108.211-6.8,163.593,16.153,78.409,32.49,160.99,72.478,242.492,90.25q15.834,3.471,31.668,6.109c70.651,11.8,147.734,10.969,220.349-8.932a391.481,391.481,0,0,0,63.532-23.187c35.94-16.708,67.411-37.859,99.128-55.631a563.741,563.741,0,0,1,63.728-30.778c61.961-25.131,123.578-36.7,188.976-45.681s137.62-15.643,212-38.275c48.8-14.9,95.593-36.285,142.333-56C2300,338.243,2474.193,284.139,2644.9,231.285" transform="translate(269.419 163.225)" fill="none" stroke="#707070" stroke-miterlimit="10" stroke-width="1" opacity="0.52"/>
          <path id="Path_40718" data-name="Path 40718" d="M-208.58-103.14c33.386,32.4,103.5,74.653,172.086,109.041C6.319,27.376,48.4,47.555,86.2,69.817c22.83,13.468,44.089,27.4,64.416,42.209A784.735,784.735,0,0,1,301.984,256.334c14.336,17.772,28.82,36.285,45.562,49.8,20.228,16.338,39.867,24.3,59.457,32.259,15.711,6.387,31.373,12.866,47.183,23.373,37.265,24.715,67.362,71.6,87.639,118.853,7.414,17.263,14.68,35.313,27.74,48.967,36.234,37.859,91.125,27.908,136.245,21.706,53.271-7.266,114.2-10.876,172.43,11.941,79.489,31.194,161.58,72.663,242.983,92.888q15.834,3.957,31.668,7.081c70.651,14.023,148.52,15.6,221.527-3.8a360,360,0,0,0,63.827-23.28c35.939-17.078,66.969-39.2,98.195-58.084a619.087,619.087,0,0,1,62.845-33.277c61.273-27.862,122.547-43.043,187.945-55.122s137.62-21.382,212.052-44.662c48.9-15.319,96.035-36.285,143.266-55.585,168.355-69.053,344.713-120.149,517.389-169.948" transform="translate(273.094 159.234)" fill="none" stroke="#6b63ff" stroke-miterlimit="10" stroke-width="1" opacity="0.56"/>
          <path id="Path_40719" data-name="Path 40719" d="M-207.65-104.24C-177.9-68.649-109.062-24.681-40.768,9.2,1.849,30.349,44.072,49.51,82.516,70.337c23.174,12.635,44.973,25.594,65.84,39.432,55.431,36.609,108.113,81.133,155.1,138.754,14.238,17.448,28.329,35.776,44.384,49.615,19.344,16.708,38,25.918,56.609,35.082,14.926,7.359,29.8,14.857,44.777,25.964,35.3,26.149,64.17,72.432,84.055,119.084,7.659,17.957,15.171,36.7,28.918,50.772,38.149,38.97,96.28,26.7,143.855,18.559,56.167-9.627,120.19-14.949,181.268,7.729,80.569,29.9,162.218,72.848,243.474,95.573,10.556,2.962,21.063,5.646,31.619,8.1,70.6,16.291,149.305,20.225,222.706,1.388a332.057,332.057,0,0,0,64.072-23.372c35.89-17.495,66.527-40.5,97.311-60.537a679.746,679.746,0,0,1,62.01-35.776c60.586-30.593,121.516-49.383,186.914-64.564s137.62-27.121,212.15-51.049c49-15.782,96.525-36.332,144.2-55.168,169.975-67.341,348.542-115.428,523.133-162.173" transform="translate(276.73 155.243)" fill="none" stroke="#6b63ff" stroke-miterlimit="10" stroke-width="1" opacity="0.6"/>
          <path id="Path_40720" data-name="Path 40720" d="M-206.71-105.35c26.12,38.785,93.727,84.465,161.678,117.835,42.42,20.827,84.84,38.923,123.873,58.362,23.567,11.756,45.857,23.789,67.313,36.7,57,34.11,111.795,76.273,158.781,133.247,14.14,17.171,27.887,35.221,43.255,49.383,18.51,17.078,36.185,27.492,53.713,37.905,14.091,8.377,28.182,16.847,42.371,28.556,33.386,27.584,60.979,73.311,80.471,119.316,7.9,18.652,15.711,38.09,30.146,52.577,40.063,40.08,101.484,25.64,151.515,15.366,59.064-11.895,126.131-18.929,190.105,3.564,81.649,28.649,162.856,72.987,243.965,98.211q15.76,4.929,31.619,9.071c70.6,18.513,150.14,24.807,223.884,6.526a308.515,308.515,0,0,0,64.318-23.465c35.89-17.865,66.085-41.839,96.427-62.99,20.081-13.931,40.505-26.751,61.176-38.275,59.9-33.369,120.485-55.678,185.883-74.005s137.62-32.86,212.2-57.39c49.049-16.2,97.017-36.378,145.182-54.752,171.6-65.628,352.323-110.753,528.828-154.351" transform="translate(280.405 151.216)" fill="none" stroke="#6b63ff" stroke-miterlimit="10" stroke-width="1" opacity="0.64"/>
          <path id="Path_40721" data-name="Path 40721" d="M-205.77-106.45c22.487,41.978,88.817,89.371,156.424,122.231,42.224,20.5,84.84,37.581,124.462,55.585,23.91,10.923,46.741,21.984,68.785,33.925C202.426,136.9,259.379,176.659,306.414,233.03c14.042,16.847,27.445,34.665,42.076,49.2,17.675,17.4,34.319,29.112,50.865,40.682,13.305,9.349,26.562,18.837,39.916,31.148,31.422,29.019,57.788,74.144,76.887,119.593,8.1,19.346,16.2,39.479,31.324,54.382,41.929,41.237,106.64,24.437,159.125,12.218C768.568,526,838.679,517.389,905.55,539.6c82.729,27.445,163.445,73.172,244.505,100.849q15.76,5.415,31.57,10.043c70.6,20.734,150.925,29.436,225.062,11.663A288.413,288.413,0,0,0,1471.25,638.6c35.841-18.235,65.643-43.181,95.544-65.4,19.786-14.671,39.916-28.325,60.292-40.728,59.162-36.1,119.454-62.018,184.8-83.4,66.969-21.938,137.62-38.6,212.248-63.777,49.147-16.615,97.459-36.424,146.114-54.289,173.216-63.916,356.153-106.033,534.572-146.576" transform="translate(284.08 147.225)" fill="none" stroke="#6b63ff" stroke-miterlimit="10" stroke-width="1" opacity="0.68"/>
          <path id="Path_40722" data-name="Path 40722" d="M-204.83-107.55c18.853,45.171,83.907,94.277,151.22,126.628C-11.583,39.3,31.181,55.271,71.441,71.886c24.3,10.043,47.674,20.133,70.258,31.148,60.1,29.065,119.209,66.461,166.244,122.231,13.944,16.523,27,34.156,40.947,49.013,16.791,17.772,32.453,30.685,47.968,43.505,12.52,10.367,24.941,20.827,37.51,33.786,29.508,30.454,54.6,75.024,73.3,119.825,8.347,19.994,16.742,40.867,32.552,56.14,43.844,42.348,111.795,23.234,166.784,9.071,64.858-16.615,138.013-26.751,207.78-4.86,83.809,26.288,164.084,73.357,245,103.533q15.76,5.832,31.521,11.061c70.553,23,151.711,34.064,226.192,16.847a271.077,271.077,0,0,0,64.808-23.65c35.841-18.652,65.152-44.477,94.66-67.85,19.491-15.412,39.327-29.9,59.457-43.228,58.475-38.831,118.472-68.359,183.771-92.842,66.871-25.085,137.62-44.385,212.346-70.118,49.245-17.032,97.95-36.424,147.1-53.873,174.836-62.2,359.982-101.312,540.317-138.8" transform="translate(287.756 143.234)" fill="none" stroke="#6b63ff" stroke-miterlimit="10" stroke-width="1" opacity="0.72"/>
          <path id="Path_40723" data-name="Path 40723" d="M-203.89-108.65c15.22,48.365,79,99.183,146.016,131.025,41.831,19.9,84.791,34.851,125.64,50.031,24.647,9.21,48.557,18.328,71.731,28.371,61.666,26.566,122.891,61.6,169.926,116.678,13.845,16.245,26.562,33.647,39.769,48.782,15.957,18.143,30.588,32.3,45.071,46.329,11.734,11.339,23.37,22.771,35.1,36.378,27.593,31.888,51.4,75.9,69.718,120.1,8.592,20.688,17.233,42.256,33.73,57.945,45.759,43.505,116.95,22.077,174.394,5.878,67.754-18.976,144-30.593,216.618-9.071,84.938,25.178,164.722,73.543,245.487,106.172Q1185,636.286,1200.836,642c70.553,25.224,152.5,38.692,227.37,21.984a254.25,254.25,0,0,0,65.1-23.789c35.841-19.022,64.71-45.819,93.727-70.3q28.8-24.229,58.573-45.727c57.788-41.608,117.441-74.653,182.74-102.284,66.772-28.232,137.62-50.124,212.4-76.5,49.293-17.448,98.391-36.47,148.029-53.456,176.456-60.491,363.762-96.637,546.061-130.979" transform="translate(291.431 139.243)" fill="none" stroke="#6b63ff" stroke-miterlimit="10" stroke-width="1" opacity="0.76"/>
          <path id="Path_40724" data-name="Path 40724" d="M-202.95-109.75c11.587,51.6,74.088,104.089,140.811,135.422C-20.5,45.249,22.6,59.134,64.14,72.972c25.04,8.331,49.441,16.523,73.2,25.594,63.188,24.02,126.573,56.742,173.657,111.17,13.747,15.921,26.12,33.138,38.64,48.6,15.073,18.467,28.722,33.879,42.224,49.152,10.9,12.357,21.8,24.761,32.7,38.97,25.727,33.277,48.214,76.736,66.134,120.334,8.788,21.382,17.773,43.644,34.908,59.75,47.624,44.616,122.154,20.873,182.053,2.731,70.651-21.336,149.943-34.388,225.455-13.237,86.068,24.067,165.311,73.728,245.978,108.856,10.458,4.536,20.964,8.932,31.471,13.005,70.553,27.445,153.331,43.274,228.548,27.168a241.154,241.154,0,0,0,65.349-23.882c35.792-19.392,64.268-47.162,92.843-72.709,18.9-16.847,38.149-33,57.739-48.226A958.9,958.9,0,0,1,1836.7,408.519c66.625-31.379,137.62-55.863,212.493-82.892,49.392-17.865,98.883-36.517,149.011-53.039,178.027-58.778,367.592-91.917,551.806-123.2" transform="translate(295.106 135.252)" fill="none" stroke="#6b63ff" stroke-miterlimit="10" stroke-width="1" opacity="0.8"/>
          <path id="Path_40725" data-name="Path 40725" d="M-202.02-110.85c7.954,54.8,69.227,108.995,135.607,139.819,41.438,19.253,84.742,32.12,126.868,44.524,25.383,7.5,50.325,14.718,74.677,22.817,64.759,21.521,130.157,51.929,177.34,105.662,13.649,15.643,25.629,32.629,37.461,48.365,14.238,18.837,26.905,35.5,39.327,51.929,10.114,13.329,20.179,26.751,30.293,41.608,23.812,34.758,44.973,77.615,62.55,120.612,9.034,22.077,18.264,45.033,36.136,61.555,49.539,45.727,127.31,19.716,189.663-.463,73.548-23.7,155.884-38.137,234.293-17.448,87.2,23,165.949,73.913,246.469,111.494,10.458,4.86,20.915,9.58,31.471,14.024,70.5,29.713,154.117,47.9,229.727,32.3a229.525,229.525,0,0,0,65.594-23.974c35.792-19.809,63.827-48.458,91.959-75.162,18.608-17.587,37.51-34.573,56.9-50.725,56.315-47.162,115.477-87.15,180.63-121.121,66.625-34.388,137.669-61.6,212.543-89.232,49.49-18.281,99.324-36.563,149.944-52.577,179.647-57.066,371.373-87.2,557.5-115.428" transform="translate(298.742 131.261)" fill="none" stroke="#6b63ff" stroke-miterlimit="10" stroke-width="1" opacity="0.84"/>
          <path id="Path_40726" data-name="Path 40726" d="M-201.08-111.96c4.37,57.992,64.318,113.9,130.4,144.216C-29.436,51.185,14.065,62.987,56.78,74c25.727,6.618,51.209,12.913,76.15,20.086C199.26,113.111,266.769,141.111,314,194.243c13.551,15.319,25.187,32.074,36.332,48.18,13.355,19.207,24.991,37.118,36.479,54.752,9.329,14.348,18.559,28.741,27.887,44.2,21.848,36.193,41.782,78.495,58.966,120.843,9.23,22.771,18.8,46.467,37.314,63.314,51.4,46.884,132.465,18.513,197.322-3.61,76.4-26.057,161.776-41.885,243.081-21.66,88.326,21.938,166.587,74.1,247.009,114.178,10.409,5.184,20.866,10.228,31.422,15,70.5,31.935,154.9,52.53,230.9,37.442a219.141,219.141,0,0,0,65.84-24.067c35.743-20.179,63.385-49.8,91.076-77.615,18.264-18.328,36.921-36.146,56.02-53.178,55.578-49.892,114.5-93.536,179.6-130.562,66.527-37.581,137.669-67.341,212.641-95.619,49.539-18.7,99.815-36.563,150.925-52.16,181.268-55.354,375.2-82.521,563.246-107.606" transform="translate(302.417 127.233)" fill="none" stroke="#6b63ff" stroke-miterlimit="10" stroke-width="1" opacity="0.88"/>
          <path id="Path_40727" data-name="Path 40727" d="M-200.14-113.06c.736,61.185,59.408,118.807,125.2,148.612C-33.9,54.158,9.751,64.942,53.1,74.522c26.12,5.785,52.092,11.061,77.623,17.31,67.853,16.476,137.571,42.163,184.754,94.647,13.453,15,24.745,31.565,35.154,47.995,12.52,19.577,23.125,38.692,33.583,57.575,8.445,15.366,16.939,30.685,25.432,46.791,19.934,37.627,38.591,79.328,55.382,121.121,9.427,23.465,19.3,47.856,38.541,65.119,53.32,47.995,137.62,17.356,204.933-6.8,79.391-28.417,167.815-45.588,252.017-25.918,89.456,20.92,167.177,74.283,247.5,116.816,10.409,5.508,20.866,10.876,31.422,15.967,70.5,34.156,155.688,57.159,232.083,42.626a209.835,209.835,0,0,0,66.134-24.159c35.743-20.549,62.894-51.142,90.192-80.068,17.97-19.068,36.332-37.72,55.186-55.678,54.891-52.623,113.464-99.877,178.567-140,66.38-40.775,137.669-73.126,212.69-102.006,49.638-19.115,100.257-36.609,151.858-51.744,182.888-53.641,378.983-77.8,568.99-99.831" transform="translate(306.092 123.242)" fill="none" stroke="#6b63ff" stroke-miterlimit="10" stroke-width="1" opacity="0.92"/>
          <path id="Path_40728" data-name="Path 40728" d="M-199.116-114.16c-2.9,64.379,54.5,123.712,119.994,153.009,40.9,18.281,84.693,28,128.635,36.193,26.464,4.906,53.025,9.256,79.1,14.533,69.424,13.977,141.253,37.257,188.485,89.093,13.354,14.671,24.254,31.055,34.025,47.763,11.636,19.948,21.259,40.312,30.735,60.352,7.659,16.338,15.367,32.675,23.027,49.429,18.019,39.108,35.3,80.207,51.8,121.352,9.623,24.159,19.835,49.244,39.72,66.924,55.235,49.105,142.824,16.152,212.592-9.951,82.189-30.731,173.657-49.152,260.756-30.037,90.634,19.9,167.815,74.468,247.991,119.454,10.409,5.832,20.817,11.524,31.373,16.939,70.455,36.424,156.522,61.741,233.262,47.763a201.427,201.427,0,0,0,66.38-24.252c35.743-20.966,62.452-52.438,89.308-82.475q26.512-29.713,54.3-58.177c54.2-55.354,112.433-106.218,177.487-149.445,66.281-43.968,137.669-78.865,212.788-108.347a1605.03,1605.03,0,0,1,152.84-51.281c184.508-51.929,382.813-73.08,574.734-92.055" transform="translate(309.684 119.251)" fill="none" stroke="#6b63ff" stroke-miterlimit="10" stroke-width="1" opacity="0.96"/>
          <path id="Path_40729" data-name="Path 40729" d="M-197.847-115.26c-6.53,67.572,49.588,128.618,114.79,157.406C-17.856,70.98,55.79,75.839,126.736,87.317S271.671,119.669,318.9,170.9c29.066,31.518,45.17,71.6,60.684,110.753q34.393,86.779,68.835,173.6c9.869,24.854,20.326,50.633,40.9,68.729,57.1,50.263,147.98,14.949,220.2-13.144,85.184-33.092,179.7-52.762,269.692-34.249,103.743,21.336,188.043,89.741,279.855,140.1,91.763,50.355,211.364,82.151,301.065,28.556,35.694-21.336,62.01-53.78,88.375-84.928,68.245-80.577,142.677-157.36,229.923-219.517,265.273-188.878,615.878-222.757,947.089-249.878" transform="translate(313.03 115.26)" fill="none" stroke="#6b63ff" stroke-miterlimit="10" stroke-width="1"/>
        </g>
        <g id="Group_5487" data-name="Group 5487" transform="translate(835.343 577.464)">
          <path id="Path_40730" data-name="Path 40730" d="M2127.933,22.99c-119.061,6.433-227.91,76.042-266.943,170.735-33.092,80.3-18.362,171.568-51.847,251.729-8.052,19.253-19.688,38.507-39.818,49.661-43.844,24.3-105.363.509-155.786,13.376-52.878,13.514-79.292,62.99-89.358,109.134s-10.7,95.573-38.394,135.792c-36.283,52.669-112.188,77.291-185,79.606-72.763,2.314-144.985-13.885-217.109-24.946s-148.372-16.754-215.636,5.508c-116.8,38.692-192.265,156.3-318.888,157.545-42.076.417-82.975-12.913-122.6-26.01Q212.25,874.167-2.06,803.263" transform="translate(245.19 39.398)" fill="none" stroke="#fff" stroke-miterlimit="10" stroke-width="1" opacity="0"/>
          <path id="Path_40731" data-name="Path 40731" d="M2148.131,22.09c-61.617,6.757-123.725,32.768-173.706,69.747-37.9,28.093-68.491,62.9-86.853,102.052-8.837,18.929-14.974,38.461-19.737,58.362-14.533,60.63-16.4,124.638-41.782,184.065-7.954,18.744-19.148,37.489-38.149,48.735-27.249,16.152-61.372,13.005-95.053,12.866-17.626,0-35.1.741-51.356,5.554-49.637,14.533-74.53,62.712-84.153,107.7-2.7,12.542-4.713,25.316-6.726,38.137-5.3,33-10.949,66-30.539,94.138-18.215,26.2-47.87,42.626-80.323,54.058-37.019,12.959-79.489,19.994-120.338,23a966.21,966.21,0,0,1-128.782,1.018c-32.4-1.851-65.741-4.952-99.177-9.164-11.587-1.435-23.272-3.008-34.958-4.721-18.215-2.638-36.185-5.508-54.105-7.59-47.281-5.415-94.807-6.665-139.044,5C746.6,835.779,669.759,946.995,544.217,947.689c-41.831.231-82.533-12.265-122.056-24.483C279.68,879.1,137.052,835.964-5.33,792.829" transform="translate(232.405 36.133)" fill="none" stroke="#6b63ff" stroke-miterlimit="10" stroke-width="1" opacity="0.07"/>
          <path id="Path_40732" data-name="Path 40732" d="M2168.447,21.19c-55.726,9.858-115.821,37.951-165.606,74.561-37.559,27.631-68.687,61-88.572,98.257a306.272,306.272,0,0,0-22.241,55.492c-17.577,57.714-23.371,119.131-48.95,177.631-7.9,18.189-18.608,36.47-36.529,47.763-25.678,16.338-57.591,14.81-89.014,16.106-16.448.694-32.748,2.222-47.968,7.405-46.3,15.736-69.767,62.388-78.949,106.218-2.553,12.219-4.517,24.669-6.481,37.072-5.106,32.074-10.507,64.286-29.7,91.593s-53.074,42.163-87.983,51.975c-39.965,11.293-85.429,17.634-128.439,22.586-46.79,5.369-89.75,10.228-134.036,11.709-33.534,1.111-69.08.6-104.774-3.008-12.373-1.25-24.843-2.869-37.314-4.952-19.393-3.193-38.2-7.313-56.9-10.645-49.294-8.609-99.226-14.116-146.359-4.628C742.413,819.7,663.759,923.926,539.2,924.065c-41.536,0-82.091-11.663-121.516-23-142.137-40.913-284.47-79.929-426.313-118.9" transform="translate(219.503 32.868)" fill="none" stroke="#6b63ff" stroke-miterlimit="10" stroke-width="1" opacity="0.13"/>
          <path id="Path_40733" data-name="Path 40733" d="M2188.879,20.29c-49.833,12.913-107.866,43.135-157.553,79.374-37.167,27.214-68.982,59.01-90.29,94.508-10.261,17.078-18.019,34.712-24.745,52.623-20.425,54.844-30.489,113.577-56.118,171.152-7.856,17.634-18.117,35.406-34.908,46.838-24.205,16.43-53.762,16.662-82.975,19.3-15.269,1.435-30.441,3.656-44.58,9.21-42.96,16.847-64.956,62.065-73.744,104.783-2.455,11.895-4.321,23.974-6.235,36.054-4.959,31.194-10.114,62.527-28.869,89.047-20.719,29.25-58.229,41.608-95.642,49.938-42.96,9.534-91.321,15.366-136.491,22.123-49.49,7.405-93.383,16.986-139.338,22.4-34.712,4.073-72.419,6.156-110.371,3.147a389.373,389.373,0,0,1-39.671-5.137c-20.572-3.749-40.162-9.118-59.7-13.7-51.258-11.8-103.5-21.475-153.724-14.255C738.592,804.265,657.729,901,534.249,900.532c-41.291-.139-81.649-11.015-121.025-21.475C271.479,841.291,129.391,806.44-11.96,771.682" transform="translate(206.484 29.602)" fill="none" stroke="#6b63ff" stroke-miterlimit="10" stroke-width="1" opacity="0.2"/>
          <path id="Path_40734" data-name="Path 40734" d="M2209.235,19.39c-43.991,16.014-99.913,48.272-149.452,84.234-36.823,26.751-69.228,57.112-91.959,90.713-10.949,16.153-19.59,32.814-27.249,49.8-23.419,51.975-37.51,108.023-63.287,164.719-7.757,17.124-17.577,34.388-33.239,45.866-22.634,16.615-49.981,18.42-76.984,22.539-14.14,2.175-28.084,5.137-41.242,11.061-39.671,17.911-60.193,61.741-68.589,103.3-2.357,11.571-4.124,23.326-5.99,35.036-4.762,30.269-9.721,60.815-28.035,86.5-22,30.778-63.434,41.052-103.252,47.856-45.906,7.822-97.262,13.1-144.592,21.706-52.191,9.488-97.016,23.743-144.641,33.046-35.841,6.989-75.708,11.709-115.968,9.3a311.539,311.539,0,0,1-42.027-5.322c-21.75-4.351-42.175-10.923-62.452-16.754-53.271-15.042-107.671-28.7-161.089-23.882-114.2,10.275-197.519,98.952-319.968,97.933-41-.37-81.158-10.367-120.485-19.994-141.351-34.573-283.243-65.3-424.005-95.9" transform="translate(193.542 26.337)" fill="none" stroke="#6b63ff" stroke-miterlimit="10" stroke-width="1" opacity="0.27"/>
          <path id="Path_40735" data-name="Path 40735" d="M2229.463,18.5c-38.1,19.115-92.009,53.456-141.4,89.047-36.43,26.335-69.424,55.168-93.678,86.964a354.275,354.275,0,0,0-29.753,46.93c-26.415,49.105-44.531,102.515-70.455,158.239-7.708,16.569-17.037,33.323-31.619,44.94-21.112,16.8-46.2,20.225-70.946,25.779-12.962,2.916-25.776,6.572-37.854,12.913-36.332,19.022-55.382,61.417-63.385,101.867-2.209,11.247-3.928,22.632-5.7,34.018-4.566,29.389-9.28,59.1-27.2,83.956-23.272,32.3-68.638,40.5-110.911,45.773-48.9,6.063-103.2,10.83-152.644,21.244-54.94,11.571-100.65,30.5-149.894,43.737-37.02,9.951-79.047,17.263-121.565,15.458a265.143,265.143,0,0,1-44.384-5.554c-22.929-4.906-44.139-12.774-65.25-19.763-55.284-18.235-111.746-35.73-168.4-33.508-112.973,4.443-198.8,84.6-320.213,83.03-40.751-.555-80.716-9.766-119.945-18.467-141.008-31.379-282.6-57.992-422.827-84.419" transform="translate(180.679 23.108)" fill="none" stroke="#6b63ff" stroke-miterlimit="10" stroke-width="1" opacity="0.33"/>
          <path id="Path_40736" data-name="Path 40736" d="M2249.778,17.6c-32.208,22.215-84.055,58.64-133.3,93.907-36.087,25.872-69.669,53.225-95.4,83.169a378.053,378.053,0,0,0-32.208,44.061c-29.409,46.19-51.5,96.961-77.574,151.806-7.61,16.014-16.546,32.305-30,44.014-19.59,16.986-42.42,22.03-64.907,28.973-11.832,3.656-23.469,8.007-34.466,14.718-33.043,20.087-50.62,61.093-58.181,100.433-2.111,10.876-3.731,21.938-5.45,33-4.37,28.464-8.936,57.344-26.365,81.411-24.549,33.832-73.793,39.942-118.521,43.69-51.9,4.351-109.094,8.562-160.745,20.827-57.64,13.653-104.283,37.257-155.2,54.382-38.149,12.866-82.385,22.817-127.162,21.614a240.273,240.273,0,0,1-46.741-5.739c-24.107-5.461-46.152-14.579-68.049-22.817C958.271,783.618,899.7,762.421,839.75,761.911c-111.6-.972-200.121,70.256-320.508,68.128-40.456-.741-80.274-9.118-119.4-16.939-140.615-28.232-281.966-50.679-421.7-72.941" transform="translate(167.777 19.842)" fill="none" stroke="#6b63ff" stroke-miterlimit="10" stroke-width="1" opacity="0.4"/>
          <path id="Path_40737" data-name="Path 40737" d="M2269.977,16.7c-26.316,25.316-76.1,63.823-125.247,98.72-35.694,25.455-69.865,51.281-97.065,79.374a421.821,421.821,0,0,0-34.712,41.191c-32.453,43.32-58.524,91.454-84.742,145.373-7.561,15.5-16.006,31.287-28.329,43.043-18.019,17.171-38.59,23.882-58.868,32.212-10.654,4.4-21.112,9.442-31.079,16.569-29.7,21.151-45.857,60.769-52.976,98.952-1.964,10.552-3.584,21.29-5.2,31.981-4.173,27.584-8.543,55.585-25.531,78.865-25.825,35.313-79,39.386-126.181,41.608-54.891,2.592-114.986,6.341-168.8,20.364-60.39,15.736-107.965,43.968-160.45,65.073-39.278,15.782-85.724,28.417-132.759,27.723a227.75,227.75,0,0,1-49.1-5.924c-25.285-6.017-48.115-16.384-70.8-25.872-59.26-24.622-119.847-49.291-183.084-52.715C724.784,747.219,633.61,809.145,514.3,806.461c-40.162-.926-79.832-8.516-118.914-15.458C255.167,765.964,114.061,747.636-25.13,729.539" transform="translate(154.992 16.577)" fill="none" stroke="#6b63ff" stroke-miterlimit="10" stroke-width="1" opacity="0.47"/>
          <path id="Path_40738" data-name="Path 40738" d="M2290.371,15.8c-20.474,28.417-68.147,69.007-117.2,103.533-35.35,24.992-70.062,49.383-98.784,75.625a474.893,474.893,0,0,0-37.216,38.322c-35.5,40.451-65.5,85.946-91.91,138.893-7.463,14.949-15.466,30.269-26.709,42.117-16.5,17.4-34.81,25.687-52.878,35.406a159.08,159.08,0,0,0-27.691,18.374c-26.365,22.169-41.045,60.445-47.772,97.517-1.866,10.228-3.388,20.6-4.91,30.963-3.977,26.659-8.15,53.873-24.647,76.319-27.1,36.841-84.2,38.831-133.79,39.525-57.886.833-120.927,4.119-176.9,19.9-63.09,17.819-111.6,50.679-165.753,75.718-40.456,18.7-89.063,33.971-138.356,33.879a212.223,212.223,0,0,1-51.454-6.156c-26.464-6.572-50.079-18.189-73.6-28.926-61.274-27.816-123.922-55.816-190.449-62.342-109-10.737-202.723,41.608-321.048,38.322-39.916-1.111-79.391-7.868-118.374-13.931C251.111,747.014,110.25,732.851-28.45,718.92" transform="translate(142.012 13.312)" fill="none" stroke="#6b63ff" stroke-miterlimit="10" stroke-width="1" opacity="0.53"/>
          <path id="Path_40739" data-name="Path 40739" d="M2310.648,14.9c-14.582,31.518-60.242,74.19-109.094,108.393-35.007,24.576-70.259,47.439-100.5,71.83-14.287,11.524-27.347,23.373-39.72,35.452-38.492,37.535-72.468,80.439-99.078,132.46-7.365,14.44-14.926,29.25-25.04,41.145-14.926,17.587-31.03,27.492-46.839,38.646a180.92,180.92,0,0,0-24.352,20.225c-23.076,23.187-36.283,60.121-42.568,96.082-1.718,9.9-3.191,19.9-4.664,29.945-3.78,25.779-7.806,52.114-23.812,73.774-28.378,38.322-89.357,38.276-141.449,37.442-60.832-.926-126.819,1.851-184.95,19.485-65.791,19.948-115.232,57.436-171.006,86.409-41.635,21.614-92.352,39.525-143.954,40.034a207.08,207.08,0,0,1-53.811-6.341c-27.642-7.127-52.092-19.994-76.4-31.981-63.237-31.009-128.046-62.111-197.764-71.969C717.879,720.658,621.6,763.192,504.305,759.35c-39.622-1.3-78.949-7.266-117.834-12.4-139.486-18.7-280.052-28.7-418.212-38.461" transform="translate(129.149 10.046)" fill="none" stroke="#6b63ff" stroke-miterlimit="10" stroke-width="1" opacity="0.6"/>
          <path id="Path_40740" data-name="Path 40740" d="M2330.953,14c-8.69,34.619-52.289,79.328-101.042,113.206-34.613,24.113-70.455,45.542-102.171,68.081-14.975,10.645-28.918,21.475-42.224,32.629-41.536,34.619-79.439,74.931-106.246,126.027-7.316,13.885-14.386,28.232-23.42,40.219-13.4,17.772-27.249,29.343-40.8,41.839a211.2,211.2,0,0,0-20.964,22.077c-19.786,24.159-31.521,59.843-37.363,94.6-1.62,9.58-2.995,19.253-4.419,28.88-3.584,24.854-7.414,50.355-22.978,71.228-29.7,39.8-94.561,37.581-149.06,35.36-63.827-2.823-132.759-.37-193,19.022-68.491,22.03-118.963,64.055-176.309,97.054-42.813,24.483-95.691,45.079-149.551,46.19a200.473,200.473,0,0,1-56.167-6.572c-28.82-7.683-54.056-21.8-79.194-35.036-65.251-34.2-132.268-68.22-205.129-81.6-106.64-19.531-205.325,12.913-321.588,8.516-39.376-1.481-78.507-6.618-117.343-10.923C242.89,709.3,102.57,703.421-35.05,697.82" transform="translate(116.208 6.781)" fill="none" stroke="#6b63ff" stroke-miterlimit="10" stroke-width="1" opacity="0.67"/>
          <path id="Path_40741" data-name="Path 40741" d="M2351.27,13.11c-2.848,37.72-44.335,84.511-92.941,118.066-34.27,23.7-70.651,43.644-103.89,64.286-15.613,9.719-30.44,19.577-44.728,29.759-44.63,31.7-86.362,69.423-113.415,119.547-7.217,13.376-13.846,27.214-21.8,39.294-11.833,18-23.419,31.194-34.761,45.079a283.773,283.773,0,0,0-17.577,23.882c-16.546,25.178-26.709,59.519-32.159,93.166-1.522,9.256-2.8,18.559-4.124,27.862-3.437,23.974-7.07,48.6-22.143,68.683-31.03,41.284-99.766,37.026-156.719,33.323-66.822-4.582-138.6-2.5-201.1,18.606-71.191,24.252-122.6,70.812-181.562,107.745-43.991,27.4-99.03,50.633-155.2,52.345A197.118,197.118,0,0,1,1110.627,848c-30-8.238-56.069-23.6-81.943-38.09-67.263-37.4-136.54-74.19-212.445-91.222-105.658-23.7-206.651-1.435-321.883-6.387-39.082-1.712-78.065-5.97-116.8-9.4-138.7-12.311-278.775-14.07-415.9-15.5" transform="translate(103.306 3.552)" fill="none" stroke="#6b63ff" stroke-miterlimit="10" stroke-width="1" opacity="0.73"/>
          <path id="Path_40742" data-name="Path 40742" d="M2371.625,12.21c3.044,40.821-36.43,89.7-84.889,122.879-33.877,23.28-70.848,41.747-105.609,60.491-16.3,8.794-32.011,17.68-47.231,26.89-47.674,28.788-93.285,63.916-120.583,113.114-7.119,12.82-13.305,26.242-20.13,38.322-10.261,18.189-19.59,33.046-28.722,48.319-4.861,8.146-9.525,16.569-14.189,25.733-13.305,26.15-21.947,59.2-27,91.685q-2.062,13.4-3.879,26.844c-3.24,23.049-6.677,46.838-21.308,66.137-32.355,42.765-104.921,36.47-164.329,31.24-69.767-6.294-144.494-4.721-209.155,18.143-73.891,26.381-126.278,77.523-186.865,118.436-45.121,30.315-102.368,56.187-160.794,58.5a195.58,195.58,0,0,1-60.93-6.942c-31.177-8.794-58.033-25.455-84.742-41.1-69.276-40.59-140.959-79.976-219.809-100.849C706.683,682.331,603.48,694.272,489.328,688.81c-38.836-1.9-77.623-5.369-116.263-7.914-138.357-9.164-278.137-6.757-414.726-3.98" transform="translate(90.364 0.286)" fill="none" stroke="#6b63ff" stroke-miterlimit="10" stroke-width="1" opacity="0.8"/>
          <path id="Path_40743" data-name="Path 40743" d="M2392.019,11.31c8.936,43.922-28.476,94.879-76.788,127.693-33.533,22.817-71.044,39.849-107.278,56.742-16.939,7.914-33.583,15.782-49.736,24.021-50.717,25.825-100.257,58.454-127.7,106.681-7.021,12.311-12.765,25.224-18.51,37.4-8.69,18.42-15.809,34.9-22.732,51.512-3.682,8.886-7.266,17.957-10.8,27.538-10.114,27.121-17.135,58.871-21.8,90.25-1.277,8.608-2.455,17.217-3.633,25.826-3.044,22.169-6.334,45.079-20.474,63.592-33.73,44.246-110.125,35.915-171.988,29.158-72.762-8.053-150.434-6.989-217.256,17.726-76.592,28.464-129.912,84.28-192.118,129.081-46.3,33.231-105.658,61.741-166.391,64.656a193.189,193.189,0,0,1-63.287-7.174c-32.355-9.349-60.046-27.26-87.541-44.153-71.24-43.783-145.427-85.622-227.174-110.43-104.086-31.657-209.253-30.13-322.423-36.146-38.541-2.083-77.181-4.721-115.772-6.387-137.964-5.97-277.5.555-413.6,7.5" transform="translate(77.384 -2.979)" fill="none" stroke="#6b63ff" stroke-miterlimit="10" stroke-width="1" opacity="0.87"/>
          <path id="Path_40744" data-name="Path 40744" d="M2412.257,10.41c14.827,47.023-20.523,100.062-68.737,132.552-33.19,22.4-71.191,38-109,52.947-17.626,7.035-35.154,13.885-52.24,21.151-53.811,22.863-107.082,52.993-134.87,100.2-6.874,11.8-12.176,24.206-16.84,36.424-7.119,18.652-11.931,36.7-16.693,54.752-2.5,9.673-4.959,19.392-7.463,29.389a891.459,891.459,0,0,0-16.595,88.816c-1.129,8.238-2.258,16.523-3.339,24.807-2.848,21.244-6.039,43.274-19.639,61.046-35.2,45.588-115.33,35.36-179.647,27.075-75.757-9.812-156.326-9.21-225.308,17.263-79.292,30.546-133.545,91.037-197.421,139.772-47.428,36.146-109,67.341-171.988,70.812a192.51,192.51,0,0,1-65.643-7.359c-33.534-9.951-62.01-29.065-90.29-47.208-73.253-46.977-150.042-91.13-234.489-120.056-103.547-35.5-210.579-44.431-322.668-51.049-38.3-2.268-76.739-4.119-115.232-4.86C226.587,634.11,87.249,644.755-48.26,655.863" transform="translate(64.56 -6.245)" fill="none" stroke="#6b63ff" stroke-miterlimit="10" stroke-width="1" opacity="0.93"/>
          <path id="Path_40745" data-name="Path 40745" d="M2432.6,9.51c20.67,50.124-12.569,105.2-60.684,137.366-48.067,32.166-108.6,47.532-165.458,67.48s-114.053,47.486-142.039,93.768c-17.233,28.464-21.7,61.37-25.874,93.444q-9.28,71.159-18.559,142.364c-2.651,20.364-5.646,41.561-18.8,58.5-36.479,47.115-120.485,34.8-187.257,24.992-78.7-11.571-162.267-11.478-233.409,16.847-82.042,32.629-137.227,97.748-202.723,150.417s-158.437,95.712-245.536,69.377c-34.712-10.506-64.023-30.87-93.089-50.263-75.266-50.17-154.8-96.5-241.854-129.683-264.537-100.9-565.6-70.9-848.894-38.877" transform="translate(51.58 -9.51)" fill="none" stroke="#5d69fb" stroke-miterlimit="10" stroke-width="1"/>
        </g>
        <g id="Group_5488" data-name="Group 5488" transform="translate(1186.783 1483.368)" opacity="0.18">
          <path id="Path_40746" data-name="Path 40746" d="M2166.668,596.956c-97.262,42.348-220.1,26.011-301.164-40.034-68.736-56.048-105.609-140.744-174.59-196.515-16.595-13.422-35.988-25.363-57.788-26.89-47.477-3.332-83.368,41.932-129.961,51.142-48.852,9.627-95.985-22.493-128.439-58.269-32.4-35.776-59.211-78.263-102.417-101.821-56.56-30.87-129.519-21.614-188.141,5.693s-106.934,70.3-157.9,108.856S818.159,413.262,753.35,421.084c-112.629,13.607-234.637-57.621-335.09-7.775-33.386,16.569-58.573,44.524-82.827,71.784Q204.122,632.547,72.86,780.049" transform="translate(186.669 -205.245)" fill="none" stroke="#fff" stroke-miterlimit="10" stroke-width="1" opacity="0"/>
          <path id="Path_40747" data-name="Path 40747" d="M2172.62,592.16c-93.58,39.525-212.3,22.91-291.1-41.145C1814.7,496.679,1779.2,413.973,1711.055,361.3c-17.282-13.375-37.707-24.391-60.193-25.687a87.091,87.091,0,0,0-26.758,2.87c-29.066,7.59-55.431,27.63-83.956,38.183a111.859,111.859,0,0,1-23.763,6.156,96.132,96.132,0,0,1-31.766-1.018c-26.611-5.184-51.9-20.318-73.646-39.109-8.788-7.59-17.037-15.829-24.794-23.882-22.683-23.7-43.255-47.393-67.067-67.2a188.644,188.644,0,0,0-40.751-26.52c-20.326-9.58-42.666-14.764-65.742-16.523-43.353-3.332-88.866,5.137-128.586,21.475-2.16.879-4.272,1.759-6.383,2.684-41.536,18-79.194,43.644-114.839,72.108-14.238,11.339-27.838,23.234-41.978,34.388-48.8,38.507-104.578,72.941-167.275,81.318-108.9,14.533-226.83-52.345-324.288-3.055-32.4,16.384-56.855,43.644-80.52,70.256C258.508,589.845,164.389,688.056,70.76,785.9" transform="translate(178.458 -195.774)" fill="none" stroke="#6b63ff" stroke-miterlimit="10" stroke-width="1" opacity="0.04"/>
          <path id="Path_40748" data-name="Path 40748" d="M2178.6,587.321c-89.946,36.7-204.49,19.809-281.083-42.256-64.907-52.623-99.177-133.2-166.293-182.908-17.97-13.329-39.425-23.465-62.648-24.483a96.243,96.243,0,0,0-27.642,3.008c-30.146,7.544-57.886,26.7-87.2,35.591a114.144,114.144,0,0,1-24.205,4.767,101.527,101.527,0,0,1-31.962-2.731c-26.758-6.572-52.24-22.678-74.334-42.3-8.936-7.96-17.43-16.569-25.629-24.669-24.009-23.789-46.2-44.662-70.995-62.157a206.543,206.543,0,0,0-42.224-23.465c-21.014-8.47-44.04-12.913-67.853-14.533a332.545,332.545,0,0,0-132.71,18.7c-2.209.787-4.419,1.62-6.628,2.453-43.107,16.477-83.22,41.052-119.65,70.719-14.533,11.848-27.936,24.622-42.175,36.285-46.692,38.368-101.042,71.784-161.58,80.716-105.167,15.5-219.073-47.069-313.487,1.62-31.373,16.2-55.284,42.719-78.212,68.775C268.859,596.115,168.406,694.464,68.64,791.8" transform="translate(170.169 -186.214)" fill="none" stroke="#6b63ff" stroke-miterlimit="10" stroke-width="1" opacity="0.08"/>
          <path id="Path_40749" data-name="Path 40749" d="M2184.67,582.523c-86.264,33.879-196.684,16.708-271.018-43.366-62.992-50.957-96.182-129.266-162.12-176.1-18.706-13.283-41.144-22.539-65.1-23.326a108.165,108.165,0,0,0-28.526,3.1c-31.275,7.451-60.39,25.733-90.437,33.045a111.1,111.1,0,0,1-24.6,3.332,106.614,106.614,0,0,1-32.159-4.489c-26.906-7.961-52.583-25.039-75.021-45.449-9.132-8.331-17.822-17.31-26.513-25.5-25.285-23.882-49.146-41.839-74.923-57.112a227.1,227.1,0,0,0-43.746-20.364c-21.7-7.313-45.415-11.061-69.964-12.5-46.2-2.684-94.169,2.592-136.884,15.921-2.307.741-4.566,1.435-6.873,2.222a388.123,388.123,0,0,0-124.462,69.331c-14.827,12.311-27.985,25.964-42.371,38.229-44.63,38.137-97.557,70.581-155.933,80.068-101.435,16.476-211.315-41.747-302.685,6.294-30.391,15.967-53.614,41.839-75.954,67.248C279.3,602.47,172.364,700.774,66.51,797.642" transform="translate(161.841 -176.695)" fill="none" stroke="#6b63ff" stroke-miterlimit="10" stroke-width="1" opacity="0.12"/>
          <path id="Path_40750" data-name="Path 40750" d="M2190.534,577.665c-82.631,31.055-188.878,13.653-261-44.477-61.077-49.244-93.285-125.193-157.947-169.3-19.442-13.283-42.862-21.614-67.509-22.123a118.838,118.838,0,0,0-29.36,3.24c-32.355,7.359-62.894,24.807-93.678,30.454A114.021,114.021,0,0,1,1556,377.4a112.005,112.005,0,0,1-32.306-6.2c-27.1-9.256-52.927-27.4-75.708-48.643-9.28-8.7-18.215-18-27.4-26.288-26.66-23.928-52.092-39.109-78.8-52.068a263.179,263.179,0,0,0-45.219-17.31c-22.339-6.2-46.79-9.21-72.075-10.46-47.673-2.36-96.82,1.3-141.008,13.144-2.357.648-4.713,1.3-7.07,1.99-46.3,13.376-91.272,35.822-129.274,67.942-15.171,12.82-28.084,27.353-42.568,40.173-42.567,37.859-94.021,69.377-150.287,79.42-97.7,17.448-203.558-36.47-291.884,10.969-29.36,15.782-51.994,40.96-73.646,65.721C289.826,608.859,176.411,707.163,64.42,803.569" transform="translate(153.671 -167.117)" fill="none" stroke="#6b63ff" stroke-miterlimit="10" stroke-width="1" opacity="0.16"/>
          <path id="Path_40751" data-name="Path 40751" d="M2196.564,572.9c-78.949,28.232-181.072,10.552-250.937-45.588-59.162-47.532-90.536-121.074-153.822-162.5a130.571,130.571,0,0,0-69.964-20.966,133.825,133.825,0,0,0-30.244,3.332c-33.435,7.266-65.4,23.835-96.918,27.862a116.954,116.954,0,0,1-25.432.555,119.005,119.005,0,0,1-32.5-7.96c-27.249-10.645-53.271-29.759-76.4-51.836-9.476-9.071-18.608-18.744-28.28-27.075-27.937-24.021-55.038-36.332-82.729-47.023A311.6,311.6,0,0,0,1302.6,227.5c-23.027-5.045-48.164-7.359-74.186-8.423-49.1-2.036-99.422,0-145.132,10.321-2.455.555-4.91,1.157-7.316,1.759-47.87,11.848-95.3,33.231-134.085,66.6-15.466,13.283-28.182,28.7-42.764,42.117-40.6,37.489-90.536,68.174-144.592,78.772-93.923,18.42-195.8-31.194-281.083,15.643-28.329,15.6-50.325,40.08-71.339,64.24C300.373,615.3,180.428,713.6,62.3,809.5" transform="translate(145.382 -157.634)" fill="none" stroke="#6b63ff" stroke-miterlimit="10" stroke-width="1" opacity="0.2"/>
          <path id="Path_40752" data-name="Path 40752" d="M2202.584,568.153c-75.266,25.409-173.265,7.451-240.921-46.7-57.247-45.819-87.835-116.816-149.649-155.693C1791,352.524,1765.716,346,1739.6,346a150.217,150.217,0,0,0-31.078,3.471c-34.565,7.22-67.853,22.91-100.159,25.27a117.854,117.854,0,0,1-25.874-.879,127,127,0,0,1-32.7-9.673c-27.4-12.033-53.615-32.12-77.083-55.03-9.623-9.442-19-19.485-29.164-27.862-29.262-24.113-57.935-33.555-86.657-41.978a402.356,402.356,0,0,0-48.214-11.154c-23.714-3.888-49.539-5.461-76.3-6.387-50.521-1.712-102.073-1.3-149.256,7.544-2.553.463-5.057.972-7.561,1.481-49.441,10.275-99.324,30.639-138.9,65.212-15.809,13.792-28.28,29.991-42.96,44.061-38.689,37.026-87,66.97-138.946,78.124-90.192,19.392-188.043-25.918-270.281,20.318-27.347,15.366-48.656,39.2-69.08,62.712-104.578,120.519-231,218.73-355.22,314.164" transform="translate(137.054 -148.163)" fill="none" stroke="#6b63ff" stroke-miterlimit="10" stroke-width="1" opacity="0.24"/>
          <path id="Path_40753" data-name="Path 40753" d="M2208.5,563.559c-71.633,22.586-165.458,4.351-230.856-47.81-55.333-44.153-85.233-112.512-145.476-148.89-21.8-13.19-48.066-18.837-74.873-18.606a170.031,170.031,0,0,0-31.963,3.564c-35.645,7.128-70.357,21.938-103.4,22.678a119.155,119.155,0,0,1-26.316-2.268,135.141,135.141,0,0,1-32.846-11.432c-27.544-13.422-53.958-34.48-77.77-58.177-9.819-9.812-19.394-20.225-30.048-28.649-30.539-24.206-60.881-30.824-90.536-36.933-15.171-3.147-31.521-6.017-49.687-8.1-24.352-2.777-50.914-3.61-78.408-4.351-51.994-1.388-104.725-2.592-153.38,4.767l-7.807,1.25c-51.061,8.747-103.35,28-143.708,63.823-16.1,14.255-28.378,31.333-43.157,46-36.823,36.517-83.466,65.767-133.25,77.523-86.461,20.364-180.286-20.642-259.48,24.992-26.316,15.181-46.986,38.322-66.773,61.185C321.389,628.354,188.434,726.565,58.08,821.49" transform="translate(128.883 -138.848)" fill="none" stroke="#6b63ff" stroke-miterlimit="10" stroke-width="1" opacity="0.28"/>
          <path id="Path_40754" data-name="Path 40754" d="M2214.518,559.238c-67.951,19.762-157.652,1.249-220.841-48.921-53.418-42.441-82.729-108.069-141.3-142.087-22.634-13.144-49.785-17.911-77.279-17.4a193.109,193.109,0,0,0-32.846,3.656c-36.725,7.035-72.861,21.012-106.64,20.086a122.776,122.776,0,0,1-26.709-3.656,143.277,143.277,0,0,1-33.043-13.191c-27.691-14.81-54.3-36.841-78.458-61.37-9.967-10.182-19.835-20.966-30.931-29.435-31.864-24.3-63.777-28.047-94.463-31.935-15.662-1.99-32.552-3.8-51.208-5-25.04-1.62-52.24-1.759-80.52-2.36-53.418-1.018-107.327-3.888-157.5,1.99-2.7.324-5.352.648-8.052,1.018-52.632,7.174-107.376,25.409-148.569,62.435-16.4,14.764-28.476,32.629-43.353,47.949-35.006,35.961-79.98,64.61-127.6,76.875-82.729,21.336-172.479-15.366-248.678,29.713-25.334,15-45.317,37.442-64.465,59.7C331.828,635.233,192.392,733.4,55.95,827.906" transform="translate(120.555 -129.853)" fill="none" stroke="#6b63ff" stroke-miterlimit="10" stroke-width="1" opacity="0.32"/>
          <path id="Path_40755" data-name="Path 40755" d="M2220.586,555.273c-64.268,16.893-149.845-1.851-210.824-50.031-51.5-40.728-80.323-103.58-137.178-135.283-23.469-13.1-51.5-16.986-79.734-16.2a212.765,212.765,0,0,0-33.681,3.8c-37.854,6.942-75.315,20.04-109.88,17.541A121.446,121.446,0,0,1,1622.138,370a155.427,155.427,0,0,1-33.239-14.9c-27.838-16.2-54.646-39.2-79.194-64.564-10.163-10.552-20.228-21.706-31.815-30.269-33.141-24.391-66.674-25.316-98.342-26.89-16.1-.787-33.533-1.574-52.681-1.944-25.727-.509-53.615.093-82.631-.324-54.842-.694-109.978-5.184-161.629-.787-2.749.231-5.548.509-8.3.787-54.2,5.646-111.4,22.817-153.38,61.046C904.187,307.385,892.355,326.083,877.38,342c-33.19,35.36-76.445,63.407-121.958,76.227-79,22.262-164.722-10.043-237.828,34.388-24.3,14.764-43.648,36.609-62.206,58.177C342.365,642.468,196.4,740.587,53.82,834.586" transform="translate(112.227 -121.166)" fill="none" stroke="#6b63ff" stroke-miterlimit="10" stroke-width="1" opacity="0.36"/>
          <path id="Path_40756" data-name="Path 40756" d="M2226.528,551.822c-60.635,14.07-142.039-4.952-200.759-51.142-49.589-39.062-77.918-99-133-128.48-24.3-13.005-53.222-16.06-82.189-15.042a244.173,244.173,0,0,0-34.565,3.888c-38.934,6.85-77.819,19.115-113.121,14.949a126.869,126.869,0,0,1-27.593-6.48,168.153,168.153,0,0,1-33.435-16.662c-27.985-17.587-54.989-41.561-79.881-67.757-10.311-10.923-20.621-22.447-32.7-31.055-34.417-24.483-69.62-22.54-102.27-21.845-16.595.37-34.516.694-54.2,1.111-26.365.648-54.99,1.944-84.693,1.712-56.266-.37-112.63-6.479-165.753-3.564q-4.272.208-8.543.555c-55.823,4.073-115.428,20.179-158.192,59.658-17.037,15.736-28.673,35.221-43.746,51.79-31.471,34.712-72.959,62.2-116.263,75.579-75.266,23.234-156.964-4.767-227.026,39.062-23.321,14.579-41.978,35.73-59.9,56.7C352.874,650.218,200.377,748.29,51.71,841.78" transform="translate(103.978 -112.995)" fill="none" stroke="#6b63ff" stroke-miterlimit="10" stroke-width="1" opacity="0.4"/>
          <path id="Path_40757" data-name="Path 40757" d="M2232.4,551.708c-56.953,11.247-134.232-8.053-190.743-52.253-47.673-37.35-75.61-94.323-128.832-121.676-25.187-12.959-54.94-15.088-84.595-13.838a278.362,278.362,0,0,0-35.4,4.027c-40.014,6.8-80.323,18.143-116.361,12.357a128.316,128.316,0,0,1-27.985-7.914,184.294,184.294,0,0,1-33.583-18.374c-28.133-18.976-55.333-43.922-80.569-70.9-10.507-11.293-21.014-23.187-33.583-31.842-35.743-24.576-72.517-19.809-106.2-16.8-17.086,1.527-35.546,2.916-55.676,4.212-27.053,1.759-56.364,3.8-86.8,3.749-57.739,0-115.281-7.775-169.877-6.341-2.946.093-5.843.185-8.739.324-57.4,2.545-119.454,17.587-163,58.269-17.38,16.2-28.82,36.47-43.942,53.734-29.8,34.018-69.424,61-110.616,74.931-71.535,24.206-149.207.509-216.225,43.737-22.29,14.394-40.309,34.851-57.591,55.168C363.51,661.443,204.434,759.423,49.63,852.45" transform="translate(95.845 -108.16)" fill="none" stroke="#6b63ff" stroke-miterlimit="10" stroke-width="1" opacity="0.44"/>
          <path id="Path_40758" data-name="Path 40758" d="M2238.422,553.253c-53.271,8.423-126.426-11.108-180.678-53.363-45.759-35.637-73.352-89.556-124.708-114.873-26.071-12.866-56.658-14.162-87.05-12.681a324.121,324.121,0,0,0-36.283,4.119c-41.144,6.711-82.778,17.217-119.6,9.766a131.051,131.051,0,0,1-28.428-9.3,196.882,196.882,0,0,1-33.779-20.133c-28.28-20.364-55.676-46.282-81.256-74.1-10.654-11.709-21.406-23.928-34.466-32.629C1475.154,225.39,1436.76,232.98,1402.1,238.3c-17.528,2.684-36.528,5.137-57.2,7.266-27.74,2.916-57.739,5.646-88.915,5.785-59.163.278-117.883-9.071-174-9.164-2.995,0-5.99,0-8.985.093-58.966.972-123.48,15-167.815,56.881-17.675,16.708-28.967,37.72-44.139,55.678-28.133,33.277-65.889,59.8-104.921,74.283-67.8,25.178-141.45,5.785-205.423,48.411-21.259,14.162-38.64,34.018-55.333,53.641C374.047,674.1,208.392,772.03,47.5,864.594" transform="translate(87.518 -104.985)" fill="none" stroke="#6b63ff" stroke-miterlimit="10" stroke-width="1" opacity="0.48"/>
          <path id="Path_40759" data-name="Path 40759" d="M2244.492,555.095c-49.637,5.6-118.619-14.209-170.663-54.474-43.844-33.925-71.142-84.789-120.534-108.069-26.954-12.728-58.377-13.237-89.5-11.478-12.569.694-24.941,2.314-37.167,4.212-42.224,6.618-85.282,16.245-122.891,7.174a135.19,135.19,0,0,1-28.82-10.691,216.575,216.575,0,0,1-33.975-21.845c-28.427-21.753-56.02-48.643-81.944-77.291-10.85-12.08-21.8-24.668-35.35-33.416-38.3-24.761-78.359-14.347-114-6.711-18.019,3.841-37.51,7.359-58.672,10.321-28.378,4.073-59.114,7.5-91.027,7.822-60.586.6-120.534-10.367-178.125-11.941-3.093-.093-6.186-.139-9.23-.185-60.586-.555-127.457,12.357-172.626,55.492-18.019,17.171-29.115,38.97-44.335,57.622-26.513,32.49-62.4,58.593-99.275,73.681-64.023,26.149-133.692,11.061-194.622,53.086-20.277,13.977-36.97,33.138-53.025,52.16C384.633,687.277,212.4,785.117,45.37,877.173" transform="translate(79.19 -102.106)" fill="none" stroke="#707070" stroke-miterlimit="10" stroke-width="1" opacity="0.52"/>
          <path id="Path_40760" data-name="Path 40760" d="M2250.355,557.258c-45.955,2.777-110.813-17.31-160.6-55.585-41.929-32.259-68.982-79.883-116.361-101.266-27.887-12.589-60.1-12.311-91.91-10.321-12.863.787-25.481,2.453-38,4.351-43.3,6.526-87.786,15.319-126.131,4.582a136.09,136.09,0,0,1-29.262-12.126,228.379,228.379,0,0,1-34.123-23.6c-28.575-23.141-56.364-51-82.631-80.485-11-12.45-22.192-25.409-36.234-34.2-39.622-24.854-81.256-11.617-117.932-1.666-18.51,5-38.541,9.58-60.193,13.422-29.066,5.184-60.488,9.349-93.138,9.812-62.01.926-123.185-11.663-182.249-14.718l-9.476-.417c-62.157-2.083-131.483,9.766-177.438,54.1-18.313,17.68-29.311,40.173-44.531,59.565a254.527,254.527,0,0,1-93.58,73.033c-60.292,27.121-125.886,16.338-183.821,57.76C553.5,513.289,537.495,531.8,522.029,550.13,395.21,700.64,216.4,798.342,43.28,889.935" transform="translate(71.019 -99.548)" fill="none" stroke="#6b63ff" stroke-miterlimit="10" stroke-width="1" opacity="0.56"/>
          <path id="Path_40761" data-name="Path 40761" d="M2256.386,559.492c-42.322,0-103.007-20.411-150.582-56.7-40.014-30.546-66.821-74.931-112.188-94.462-28.82-12.4-61.814-11.385-94.365-9.118-13.109.879-26.071,2.592-38.885,4.443-44.433,6.479-90.241,14.347-129.372,2.036a141.883,141.883,0,0,1-29.7-13.514c-12.078-7.174-23.37-15.967-34.319-25.316-28.722-24.53-56.707-53.363-83.318-83.632-11.194-12.82-22.585-26.149-37.068-35.036-40.9-24.946-84.2-8.886-121.811,3.379a605.59,605.59,0,0,1-61.666,16.476c-29.753,6.341-61.863,11.2-95.249,11.848-63.483,1.3-125.788-12.959-186.374-17.495-3.24-.231-6.481-.463-9.721-.648-63.729-3.656-135.509,7.174-182.25,52.715-18.608,18.143-29.508,41.423-44.728,61.509-23.419,30.916-55.382,56.233-87.934,72.386-56.56,28.093-118.128,21.66-173.019,62.481-18.264,13.561-33.583,31.426-48.459,49.105C405.806,714.259,220.415,811.869,41.16,903" transform="translate(62.73 -97.061)" fill="none" stroke="#6b63ff" stroke-miterlimit="10" stroke-width="1" opacity="0.6"/>
          <path id="Path_40762" data-name="Path 40762" d="M2262.367,561.921c-38.639-2.869-95.2-23.511-140.566-57.806-38.1-28.834-64.71-69.932-108.063-87.659-29.753-12.172-63.532-10.46-96.82-7.914-13.4,1.018-26.611,2.731-39.72,4.582-45.513,6.387-92.745,13.422-132.612-.555a143.958,143.958,0,0,1-30.1-14.9c-12.176-7.775-23.469-17.171-34.515-27.075-28.82-25.918-57.051-55.724-84.006-86.826-11.342-13.191-22.978-26.936-37.952-35.823-42.125-25.131-87.1-6.156-125.739,8.377a558.059,558.059,0,0,1-63.139,19.577c-30.391,7.451-63.238,13.052-97.36,13.885-64.907,1.62-128.439-14.255-190.5-20.272-3.339-.324-6.628-.6-9.967-.879-65.349-5.184-139.535,4.536-187.061,51.327-18.952,18.652-29.753,42.58-44.924,63.407-21.9,30.083-51.847,55.03-82.287,71.738-52.829,29.065-110.371,26.936-162.218,67.156-17.233,13.376-31.913,30.593-46.151,47.625C416.452,727.982,224.383,825.5,39.04,916.119" transform="translate(54.441 -94.816)" fill="none" stroke="#6b63ff" stroke-miterlimit="10" stroke-width="1" opacity="0.64"/>
          <path id="Path_40763" data-name="Path 40763" d="M2268.358,564.54c-34.958-5.693-87.393-26.612-130.5-58.917-36.185-27.168-62.648-64.888-103.89-80.855-30.735-11.895-65.3-9.534-99.226-6.757-13.649,1.111-27.2,2.87-40.6,4.675-46.593,6.294-95.249,12.45-135.852-3.147a147.926,147.926,0,0,1-30.539-16.338c-12.274-8.377-23.616-18.374-34.712-28.834-28.918-27.4-57.4-58.084-84.693-90.019-11.538-13.561-23.371-27.677-38.836-36.609-43.451-25.224-90.045-3.425-129.617,13.422a518.218,518.218,0,0,1-64.661,22.632c-31.079,8.609-64.563,14.9-99.471,15.921-66.33,1.944-131.09-15.551-194.622-23.049-3.388-.416-6.775-.787-10.212-1.111C1004,268.8,927.36,277.5,879,325.492c-19.246,19.115-30,43.783-45.121,65.351-20.425,29.2-48.361,53.826-76.592,71.09-49.1,29.991-102.614,32.212-151.416,71.83-16.251,13.191-30.195,29.713-43.844,46.1C427.107,741.8,228.41,839.132,36.93,929.29" transform="translate(46.192 -92.714)" fill="none" stroke="#6b63ff" stroke-miterlimit="10" stroke-width="1" opacity="0.68"/>
          <path id="Path_40764" data-name="Path 40764" d="M2274.261,567.06c-31.324-8.516-79.538-29.713-120.485-60.028-34.27-25.455-60.537-59.8-99.717-74.052-31.766-11.571-67.018-8.608-101.681-5.554-13.944,1.2-27.74,3.008-41.438,4.813-47.723,6.2-97.7,11.524-139.093-5.739a150.28,150.28,0,0,1-30.931-17.726c-12.373-9.025-23.763-19.624-34.859-30.546-29.066-28.787-57.739-60.445-85.381-93.166-11.685-13.931-23.763-28.417-39.72-37.4-44.728-25.316-92.941-.694-133.545,18.467a487.85,487.85,0,0,1-66.134,25.687c-31.766,9.719-65.938,16.754-101.582,17.958-67.8,2.268-133.692-16.8-198.746-25.872-3.486-.463-6.972-.926-10.409-1.342-68.491-8.285-147.587-.694-196.733,48.55-19.59,19.624-30.293,44.94-45.317,67.294-19,28.325-44.826,52.623-70.946,70.488-45.366,30.963-94.856,37.489-140.615,76.5-15.22,12.959-28.526,28.88-41.586,44.57C437.772,755.753,232.4,852.946,34.83,942.595" transform="translate(37.981 -90.513)" fill="none" stroke="#6b63ff" stroke-miterlimit="10" stroke-width="1" opacity="0.72"/>
          <path id="Path_40765" data-name="Path 40765" d="M2280.33,569.842c-27.642-11.339-71.731-32.814-110.42-61.139-32.355-23.743-58.475-54.613-95.544-67.248-32.748-11.154-68.736-7.683-104.135-4.4-14.189,1.3-28.329,3.147-42.322,4.906-48.8,6.156-100.208,10.552-142.333-8.331a151.269,151.269,0,0,1-31.373-19.161c-12.52-9.581-23.861-20.827-35.055-32.305-29.213-30.176-58.082-62.805-86.117-96.36-11.881-14.3-24.156-29.158-40.6-38.183-46-25.409-95.936,1.944-137.473,23.511a484.989,484.989,0,0,1-67.656,28.788c-32.453,10.876-67.313,18.606-103.694,19.994-69.227,2.592-136.343-18.1-202.87-28.649-3.535-.555-7.119-1.111-10.654-1.574-70.111-9.858-151.613-3.286-201.545,47.208-19.884,20.086-30.637,46.051-45.513,69.238-17.577,27.445-41.291,51.42-65.25,69.84-41.635,31.935-87.1,42.765-129.814,81.179-14.189,12.774-26.807,28-39.278,43.089C448.506,769.92,236.405,866.881,32.7,956.113" transform="translate(29.653 -88.574)" fill="none" stroke="#6b63ff" stroke-miterlimit="10" stroke-width="1" opacity="0.76"/>
          <path id="Path_40766" data-name="Path 40766" d="M2286.35,572.549c-23.959-14.162-63.925-35.869-100.4-62.25-30.44-22.03-56.412-49.383-91.419-60.445s-70.455-6.757-106.59-3.193c-14.484,1.388-28.869,3.286-43.205,5-49.883,6.063-102.712,9.627-145.574-10.923a158.919,158.919,0,0,1-31.815-20.549c-12.618-10.228-24.009-22.03-35.252-34.018-29.36-31.565-58.426-65.165-86.8-99.553-12.029-14.671-24.549-29.9-41.487-38.97-47.33-25.5-98.833,4.721-141.351,28.556a475.359,475.359,0,0,1-69.129,31.842c-33.092,12.033-68.687,20.457-105.8,21.984-70.651,2.916-138.995-19.392-206.995-31.426-3.633-.648-7.266-1.25-10.9-1.851-71.682-11.385-155.639-5.878-206.357,45.82-20.179,20.6-31.03,47.162-45.71,71.182-16.2,26.566-37.8,50.262-59.6,69.192-37.9,32.907-79.341,48.087-119.012,85.854-13.207,12.589-25.138,27.168-36.97,41.562C459.19,783.921,240.363,880.7,30.57,969.42" transform="translate(21.326 -86.561)" fill="none" stroke="#6b63ff" stroke-miterlimit="10" stroke-width="1" opacity="0.8"/>
          <path id="Path_40767" data-name="Path 40767" d="M2292.3,575.346c-20.326-16.986-56.118-38.97-90.339-63.361-28.477-20.364-54.351-44.153-87.246-53.641-34.859-10.043-72.173-5.785-109-2.036-14.778,1.527-29.458,3.425-44.04,5.137-51.012,5.97-105.167,8.655-148.814-13.468a163.614,163.614,0,0,1-32.208-21.938c-12.716-10.83-24.156-23.234-35.4-35.776-29.507-32.953-58.769-67.526-87.491-102.747-12.225-15.042-24.941-30.639-42.371-39.8-48.606-25.594-101.779,7.451-145.279,33.6a468.71,468.71,0,0,1-70.651,34.9c-33.779,13.144-70.062,22.308-107.916,24.02-72.075,3.24-141.646-20.688-211.119-34.2-3.731-.741-7.413-1.388-11.145-2.083-73.253-12.913-159.665-8.516-211.168,44.431C837.6,369.436,826.646,396.65,812.212,421.5s-34.27,49.059-53.958,68.544c-34.123,33.879-71.535,53.363-108.211,90.528-12.176,12.357-23.419,26.335-34.712,40.081C470,798.148,244.4,894.693,28.47,982.907" transform="translate(13.115 -84.637)" fill="none" stroke="#6b63ff" stroke-miterlimit="10" stroke-width="1" opacity="0.84"/>
          <path id="Path_40768" data-name="Path 40768" d="M2298.283,578.144c-16.644-19.809-48.312-42.071-80.323-64.471-26.562-18.652-52.289-38.831-83.073-46.838-35.939-9.349-73.891-4.86-111.451-.833-15.024,1.62-30,3.564-44.924,5.23-52.092,5.878-107.671,7.729-152.055-16.06a168.343,168.343,0,0,1-32.65-23.372c-12.814-11.432-24.3-24.437-35.6-37.489-29.655-34.341-59.113-69.886-88.179-105.894-12.373-15.412-25.334-31.379-43.255-40.59-49.932-25.687-104.725,10.182-149.207,38.646a471.725,471.725,0,0,1-72.124,38c-34.466,14.3-71.437,24.206-110.027,26.057-73.548,3.61-144.248-21.984-215.243-36.98-3.781-.787-7.61-1.574-11.391-2.314-74.873-14.486-163.691-11.108-215.979,43.042-20.817,21.568-32.012,49.337-46.1,75.023s-30.784,47.856-48.263,67.9c-30.391,34.85-63.778,58.64-97.409,95.2-11.194,12.172-21.75,25.455-32.4,38.553C480.845,812.379,248.368,908.646,26.35,996.4" transform="translate(4.826 -82.714)" fill="none" stroke="#6b63ff" stroke-miterlimit="10" stroke-width="1" opacity="0.88"/>
          <path id="Path_40769" data-name="Path 40769" d="M2304.235,581c-13.011-22.632-40.505-45.172-70.259-65.582-24.646-16.939-50.177-33.462-78.9-40.034-37.068-8.47-75.61-3.934-113.906.324-15.318,1.712-30.588,3.7-45.759,5.369-53.172,5.785-110.174,6.757-155.3-18.652a171.16,171.16,0,0,1-33.043-24.761c-12.913-12.08-24.45-25.687-35.792-39.247-29.8-35.73-59.457-72.247-88.866-109.087-12.569-15.782-25.727-32.12-44.139-41.376-51.208-25.779-107.622,12.913-153.086,43.69a473.5,473.5,0,0,1-73.646,41.052c-35.1,15.412-72.811,26.057-112.138,28.093-74.972,3.934-146.9-23.28-219.367-39.756-3.879-.879-7.757-1.712-11.636-2.545-76.445-16.014-167.717-13.7-220.791,41.654-21.161,22.03-32.6,50.355-46.3,76.967-12.323,23.928-27.249,46.652-42.617,67.294-26.66,35.823-56.02,63.916-86.608,99.923-10.163,11.987-20.032,24.622-30.1,37.026C491.755,826.76,252.406,922.749,24.25,1010.038" transform="translate(-3.384 -80.897)" fill="none" stroke="#6b63ff" stroke-miterlimit="10" stroke-width="1" opacity="0.92"/>
          <path id="Path_40770" data-name="Path 40770" d="M2310.177,583.856c-9.328-25.455-32.7-48.272-60.242-66.693-22.732-15.227-48.017-28.047-74.775-33.231-38.2-7.359-77.329-3.008-116.312,1.527-15.564,1.805-31.128,3.841-46.642,5.461-54.3,5.739-112.629,5.832-158.536-21.244a177.784,177.784,0,0,1-33.484-26.149c-13.011-12.681-24.6-26.89-35.939-40.96q-44.924-55.678-89.554-112.281c-12.716-16.153-26.12-32.86-45.022-42.163-52.485-25.872-110.567,15.69-157.014,48.689a473.8,473.8,0,0,1-75.119,44.153c-35.792,16.569-74.186,27.908-114.25,30.13-76.4,4.258-149.551-24.576-223.491-42.533-3.928-.972-7.9-1.9-11.882-2.777-78.016-17.587-171.743-16.338-225.6,40.266-21.455,22.539-33.288,51.419-46.5,78.911A694.851,694.851,0,0,1,758.9,511.61c-22.929,36.794-48.263,69.192-75.757,104.6C674.006,627.963,664.825,640,655.3,651.752,503.049,841.463,256.384,936.851,22.14,1023.63" transform="translate(-11.634 -79.031)" fill="none" stroke="#6b63ff" stroke-miterlimit="10" stroke-width="1" opacity="0.96"/>
          <path id="Path_40771" data-name="Path 40771" d="M2316.285,586.826c-10.31-51.6-65.84-85.807-120.829-94.231s-110.911,2.638-166.293,8.285-115.133,4.859-161.825-23.835c-28.722-17.68-49.687-44.246-70.062-70.3q-45.145-57.76-90.241-115.474c-12.913-16.523-26.512-33.6-45.906-42.95-53.811-26.011-113.464,18.42-160.892,53.734-55.922,41.654-121.811,75.162-192.953,79.374-81.993,4.813-160.107-29.2-239.742-48.365-79.636-19.115-175.769-18.929-230.463,38.877-21.8,23-34.074,52.392-46.692,80.855-32.7,73.589-70.8,145.6-121.762,209.288C513.674,855.634,260.381,950.836,20,1037.153" transform="translate(-20 -77.28)" fill="none" stroke="#6b63ff" stroke-miterlimit="10" stroke-width="1"/>
        </g>
      </g>
    </g>
  </g>
</svg>
